<?xml version="1.0" encoding="utf-8"?>
<!-- Generator: Adobe Illustrator 16.0.0, SVG Export Plug-In . SVG Version: 6.00 Build 0)  -->
<!DOCTYPE svg PUBLIC "-//W3C//DTD SVG 1.1//EN" "http://www.w3.org/Graphics/SVG/1.1/DTD/svg11.dtd">
<svg version="1.1" id="Layer_1" xmlns="http://www.w3.org/2000/svg" xmlns:xlink="http://www.w3.org/1999/xlink" x="0px" y="0px"
	 width="100px" height="100px" viewBox="0 0 100 100" enable-background="new 0 0 100 100" xml:space="preserve">
<path opacity="0.44" fill="#FFFFFF" d="M1.29,50.329c0,26.98,21.875,48.855,48.853,48.855C77.126,99.185,99,77.31,99,50.329
	C99,23.347,77.126,1.473,50.143,1.473C23.164,1.473,1.29,23.347,1.29,50.329z M34.858,81.569l30.337-31.205L34.93,19.239
	l2.414-2.417l33.554,33.558l-1.548,1.548l-0.017-0.017L37.268,83.978L34.858,81.569z"/>
<path opacity="0.77" fill="none" stroke="#FFFFFF" stroke-width="2.0382" stroke-miterlimit="10" d="M1.29,50.329
	c0,26.98,21.875,48.855,48.853,48.855C77.126,99.185,99,77.31,99,50.329C99,23.347,77.126,1.473,50.143,1.473
	C23.164,1.473,1.29,23.347,1.29,50.329z"/>
</svg>
