<?xml version="1.0" encoding="utf-8"?>
<!-- Generator: Adobe Illustrator 16.0.0, SVG Export Plug-In . SVG Version: 6.00 Build 0)  -->
<!DOCTYPE svg PUBLIC "-//W3C//DTD SVG 1.1//EN" "http://www.w3.org/Graphics/SVG/1.1/DTD/svg11.dtd">
<svg version="1.1" id="Layer_1" xmlns="http://www.w3.org/2000/svg" xmlns:xlink="http://www.w3.org/1999/xlink" x="0px" y="0px"
	 width="350px" height="40px" viewBox="0 0 350 40" enable-background="new 0 0 350 40" xml:space="preserve">
<linearGradient id="SVGID_1_" gradientUnits="userSpaceOnUse" x1="89.9624" y1="-2.4951" x2="89.9624" y2="194.2722">
	<stop  offset="0" style="stop-color:#CA9C57"/>
	<stop  offset="0.0627" style="stop-color:#BC8F50"/>
	<stop  offset="0.2463" style="stop-color:#996F3F"/>
	<stop  offset="0.4322" style="stop-color:#7D5631"/>
	<stop  offset="0.619" style="stop-color:#6A4428"/>
	<stop  offset="0.8074" style="stop-color:#5E3A22"/>
	<stop  offset="1" style="stop-color:#5A3620"/>
</linearGradient>
<path fill-rule="evenodd" clip-rule="evenodd" fill="url(#SVGID_1_)" d="M145.92,8.847c-2.637,2.691-6.973,10.989-2.838,15.038
	c3.642,3.563,12.197-0.245,10.782-6.244c-1.044-1.215-3.068-1.839-4.823-0.85c-0.943,0.475-0.789,2.589-0.852,3.12
	c-1.776-0.921-2.428-4.969-0.284-5.958c3.095,2.855,12.3,1.789,11.35-2.837c-0.332-1.608-2.856-2.731-4.823-1.417
	c-0.905,0.888,0.299,3.162,0,3.403c-2.097,0.111-2.95-1.023-3.405-2.554c1.27-3.41,7.328-4.581,11.633-3.121
	c-4.185,11.988-11.996,20.348-22.414,26.103c3.423-14.12-1.403-28.106-10.497-31.492c-4.944-1.841-11.713-0.198-13.05,3.688
	c-1.131,3.285,0.677,6.901,2.553,7.66c6.378,2.583,8.47-3.93,6.242-6.808c3.042,0.36,5.287,1.52,6.241,3.971
	c-4.393,0.887-7.437,9.953-3.404,12.768c1.873,1.308,5.873,1.262,6.809-1.419c0.619-1.773-0.274-3.282-1.419-3.689
	c-1.639-0.58-2.237,0.968-3.403,1.136c-0.042-2.783,1.66-3.823,3.688-4.539c2.89,4.622,2.409,14.497,0,19.293
	c-4.155-8.531-9.562-15.607-17.023-21.563c-6.787-5.416-16.84-11.405-27.804-11.064C73.234,1.965,60.36,12.963,52.863,22.182
	c-2.932,3.603-4.512,8.007-7.661,11.631c-1.671-5.651-2.677-14.334,0.567-19.008c1.86,0.884,3.877,1.609,3.406,4.822
	c-1.408-2.829-5.872-1.737-4.824,2.271c0.62,2.366,4.66,2.692,6.524,1.702c1.244-0.66,2.114-2.636,2.271-3.973
	c0.598-5.111-2.637-6.869-5.106-9.646c1.358-1.856,3.138-3.294,6.241-3.403c-2.478,3.581-0.542,8.556,5.391,7.092
	c2.272-0.561,4.361-4.297,3.404-7.659c-0.662-2.329-3.701-4.128-5.674-4.54c-13.99-2.924-22.403,16.25-18.157,32.06
	c-10.15-6.023-18.412-13.933-22.131-26.386c5.066-0.969,10.216,0.096,11.633,3.688c-0.818,1.262-1.494,2.668-3.973,2.27
	c0.76-0.657,1.16-2.219,0.568-3.403c-2.136-1.178-4.466-0.406-4.823,1.417c-0.968,4.938,8.317,5.431,11.632,2.837
	c1.387,1.528,1.035,5.29-0.852,5.958c1.268-4.704-4.971-4.339-5.674-1.703c-1.373,5.152,7.203,8.904,10.781,5.677
	c1.406-1.269,2.006-4.559,1.703-7.094C36.991,7.484,23.479,0.485,10.874,2.605c-6.979,9.011-7.891,31.9,2.836,35.748
	c5.664,2.031,12.688-3.326,9.363-8.797c-2.627-4.319-10.658-0.189-6.525,4.541c-1.4-0.587-2.523-1.448-3.121-2.839
	c3.443-1.553,7.201-11.102,1.701-11.915c-4.526-0.668-4.855,5.761-0.567,5.674c-0.757,1.04-1.601,1.991-3.403,1.985
	c-1.174-5.265-0.359-11.861,2.553-14.751c6.36,15.027,14.732,28.069,36.599,28.371c8.299,0.113,16.572-1.741,22.98-5.675
	c5.426-3.331,12.87-9.025,12.199-17.308c-0.593-7.34-11.832-7.396-11.348,0.853c0.799,2.025,3.957,2.93,6.242,2.554
	c-0.92,2.106-2.301,3.753-4.255,4.822c-2.755-4.441-17.232-5.538-16.74,1.134c0.344,4.661,8.268,2.949,7.094-1.417
	c3.356-0.047,4.88,1.739,5.956,3.971c-4.151,4.359-11.852,6.684-20.427,5.676C58.645,22.054,70.079,8.694,87.759,7.428
	c1.383-0.099,3.02-0.132,4.539,0c17.605,1.536,29.483,15.278,35.181,28.088c-9.175,0.379-15.973-1.618-20.427-5.959
	c1.29-2.115,2.658-4.148,6.241-3.971c-0.859,5.169,6.338,5.453,6.81,1.703c0.239-1.916-1.022-3.469-2.554-4.257
	c-4.754-2.443-11.589,0.596-14.468,2.837c-1.535-1.211-3.661-3.335-3.689-5.106c9.544,1.585,6.504-10.963-1.702-8.511
	c-2.588,0.772-3.884,4.042-3.406,7.943c0.718,5.848,5.899,10.465,10.782,13.902c7.005,4.93,14.497,6.539,24.115,6.525
	c22.286-0.033,29.913-13.593,37.166-28.371c2.095,3.129,3.733,10.206,1.703,14.751c-1.415-0.382-2.733-0.86-3.121-2.268
	c8.281-0.892-1.315-9.501-3.121-3.121c-1.322,4.673,2.862,7.109,4.255,9.93c-0.432,1.458-1.862,1.919-3.119,2.554
	c4.995-8.072-10.169-8.09-6.526,1.135c1.125,2.851,6.335,4.471,10.213,2.836c4.904-2.066,7.719-10.336,7.661-18.157
	c-0.054-7.405-2.967-11.997-5.674-17.306C159.882,1.42,150.791,3.877,145.92,8.847z"/>
<linearGradient id="SVGID_2_" gradientUnits="userSpaceOnUse" x1="263.5581" y1="-2.4951" x2="263.5581" y2="194.2724">
	<stop  offset="0" style="stop-color:#CA9C57"/>
	<stop  offset="0.0627" style="stop-color:#BC8F50"/>
	<stop  offset="0.2463" style="stop-color:#996F3F"/>
	<stop  offset="0.4322" style="stop-color:#7D5631"/>
	<stop  offset="0.619" style="stop-color:#6A4428"/>
	<stop  offset="0.8074" style="stop-color:#5E3A22"/>
	<stop  offset="1" style="stop-color:#5A3620"/>
</linearGradient>
<path fill-rule="evenodd" clip-rule="evenodd" fill="url(#SVGID_2_)" d="M339.811,4.009c-5.664-2.031-12.688,3.326-9.363,8.796
	c2.626,4.32,10.658,0.19,6.525-4.54c1.4,0.587,2.523,1.448,3.12,2.839c-3.443,1.553-7.201,11.102-1.7,11.915
	c4.526,0.668,4.855-5.761,0.567-5.675c0.757-1.039,1.601-1.991,3.403-1.985c1.174,5.266,0.358,11.861-2.553,14.752
	c-6.36-15.028-14.732-28.069-36.599-28.371c-8.298-0.113-16.572,1.74-22.98,5.674c-5.426,3.331-12.869,9.026-12.199,17.308
	c0.593,7.34,11.832,7.397,11.348-0.852c-0.799-2.025-3.956-2.93-6.242-2.554c0.92-2.106,2.301-3.753,4.255-4.822
	c2.756,4.441,17.232,5.538,16.74-1.135c-0.344-4.661-8.268-2.948-7.093,1.417c-3.357,0.047-4.881-1.739-5.957-3.971
	c4.151-4.358,11.853-6.683,20.427-5.675c-6.634,13.179-18.068,26.538-35.748,27.805c-1.383,0.099-3.019,0.131-4.539,0
	c-17.605-1.536-29.483-15.279-35.181-28.089c9.175-0.378,15.973,1.619,20.427,5.959c-1.289,2.115-2.658,4.149-6.241,3.971
	c0.859-5.168-6.337-5.452-6.81-1.703c-0.239,1.917,1.023,3.47,2.554,4.258c4.754,2.443,11.59-0.596,14.468-2.837
	c1.535,1.211,3.662,3.335,3.689,5.105c-9.544-1.585-6.503,10.964,1.702,8.512c2.588-0.772,3.885-4.042,3.406-7.944
	c-0.718-5.848-5.899-10.464-10.782-13.901c-7.005-4.93-14.497-6.539-24.115-6.525c-22.286,0.033-29.913,13.593-37.166,28.371
	c-2.094-3.13-3.732-10.206-1.703-14.752c1.415,0.383,2.733,0.86,3.122,2.269c-8.282,0.892,1.314,9.5,3.121,3.121
	c1.321-4.673-2.862-7.109-4.256-9.93c0.433-1.458,1.862-1.919,3.12-2.554c-4.996,8.071,10.169,8.089,6.525-1.135
	c-1.125-2.851-6.335-4.472-10.213-2.837c-4.904,2.066-7.718,10.337-7.66,18.158c0.054,7.404,2.966,11.997,5.674,17.305
	c8.735,1.187,17.825-1.271,22.696-6.24c2.638-2.691,6.973-10.99,2.838-15.038c-3.642-3.564-12.196,0.245-10.782,6.243
	c1.045,1.216,3.068,1.84,4.823,0.851c0.943-0.476,0.789-2.59,0.853-3.12c1.775,0.921,2.427,4.968,0.283,5.957
	c-3.094-2.854-12.3-1.788-11.349,2.838c0.331,1.608,2.856,2.73,4.823,1.417c0.904-0.889-0.299-3.162,0-3.403
	c2.097-0.111,2.949,1.022,3.404,2.554c-1.27,3.409-7.328,4.58-11.633,3.121c4.185-11.989,11.996-20.349,22.415-26.103
	c-3.424,14.119,1.402,28.105,10.497,31.491c4.943,1.842,11.712,0.198,13.049-3.687c1.132-3.285-0.677-6.901-2.553-7.661
	c-6.378-2.582-8.469,3.93-6.242,6.809c-3.041-0.361-5.287-1.521-6.241-3.971c4.394-0.888,7.437-9.953,3.405-12.768
	c-1.873-1.308-5.873-1.263-6.809,1.418c-0.62,1.773,0.274,3.283,1.418,3.69c1.639,0.58,2.237-0.969,3.403-1.136
	c0.043,2.783-1.66,3.823-3.688,4.539c-2.89-4.623-2.409-14.497,0-19.293c4.155,8.531,9.563,15.606,17.023,21.562
	c6.787,5.417,16.84,11.406,27.804,11.064c15.943-0.493,28.817-11.492,36.315-20.71c2.931-3.603,4.511-8.008,7.66-11.632
	c1.672,5.652,2.677,14.335-0.567,19.009c-1.86-0.884-3.877-1.609-3.405-4.823c1.407,2.829,5.871,1.738,4.824-2.271
	c-0.62-2.366-4.66-2.692-6.525-1.701c-1.243,0.659-2.114,2.636-2.271,3.972c-0.598,5.111,2.638,6.869,5.106,9.646
	c-1.357,1.856-3.137,3.293-6.24,3.403c2.478-3.582,0.541-8.556-5.391-7.092c-2.272,0.56-4.361,4.297-3.405,7.659
	c0.662,2.329,3.701,4.128,5.674,4.539c13.99,2.925,22.403-16.249,18.157-32.059c10.15,6.022,18.412,13.932,22.131,26.385
	c-5.067,0.97-10.216-0.095-11.633-3.688c0.818-1.261,1.494-2.667,3.972-2.269c-0.759,0.657-1.159,2.219-0.567,3.403
	c2.136,1.178,4.466,0.405,4.823-1.417c0.968-4.939-8.318-5.432-11.632-2.838c-1.387-1.528-1.036-5.289,0.852-5.957
	c-1.268,4.703,4.971,4.339,5.674,1.703c1.372-5.152-7.203-8.904-10.781-5.677c-1.406,1.269-2.006,4.559-1.703,7.094
	c1.119,9.306,14.631,16.306,27.236,14.185C349.625,30.746,350.536,7.856,339.811,4.009z"/>
<linearGradient id="SVGID_3_" gradientUnits="userSpaceOnUse" x1="89.7153" y1="39.6504" x2="89.7153" y2="0.1968">
	<stop  offset="0" style="stop-color:#392116"/>
	<stop  offset="0.7199" style="stop-color:#311B12"/>
</linearGradient>
<path fill-rule="evenodd" clip-rule="evenodd" fill="url(#SVGID_3_)" d="M162.696,33.12c1.258-0.634,2.688-1.095,3.12-2.554
	c-1.394-2.82-5.578-5.257-4.256-9.93c1.806-6.379,11.404,2.229,3.121,3.121c0.388,1.408,1.706,1.888,3.121,2.27
	c2.03-4.545,0.392-11.623-1.702-14.753c-7.254,14.78-14.88,28.338-37.167,28.371c-9.618,0.014-17.109-1.596-24.114-6.525
	c-4.884-3.437-10.065-8.054-10.781-13.901c-0.479-3.902,0.816-7.172,3.404-7.944c8.207-2.452,11.248,10.097,1.701,8.512
	c0.03,1.771,2.155,3.896,3.689,5.106c2.88-2.242,9.715-5.281,14.471-2.838c1.529,0.788,2.793,2.342,2.553,4.258
	c-0.473,3.749-7.669,3.465-6.811-1.703c-3.581-0.179-4.953,1.855-6.24,3.972c4.455,4.34,11.251,6.337,20.425,5.958
	C121.534,21.73,109.657,7.986,92.052,6.45c-1.521-0.131-3.157-0.099-4.539,0c-17.68,1.269-29.115,14.626-35.748,27.805
	c8.574,1.009,16.274-1.316,20.426-5.674c-1.076-2.232-2.6-4.019-5.956-3.972c1.175,4.365-6.749,6.078-7.094,1.418
	c-0.492-6.674,13.985-5.576,16.739-1.135c1.955-1.071,3.336-2.717,4.256-4.823c-2.285,0.376-5.442-0.527-6.242-2.554
	c-0.484-8.25,10.756-8.191,11.35-0.851c0.669,8.28-6.773,13.976-12.2,17.307c-6.409,3.934-14.683,5.787-22.98,5.674
	c-21.866-0.302-30.237-13.343-36.6-28.371c-2.911,2.891-3.726,9.486-2.553,14.753c1.803,0.006,2.646-0.948,3.403-1.986
	c-4.288,0.086-3.959-6.343,0.568-5.673c5.5,0.812,1.743,10.36-1.701,11.915c0.596,1.389,1.722,2.25,3.119,2.837
	c-4.131-4.729,3.9-8.859,6.525-4.539c3.324,5.469-3.697,10.826-9.362,8.795C2.739,33.528,3.647,10.639,10.626,1.629
	c12.605-2.121,26.119,4.879,27.236,14.185c0.305,2.537-0.296,5.825-1.703,7.094c-3.578,3.228-12.152-0.524-10.779-5.675
	c0.703-2.638,6.94-3.002,5.674,1.701c1.887-0.667,2.238-4.429,0.85-5.957c-3.313,2.594-12.6,2.102-11.631-2.837
	c0.357-1.823,2.687-2.596,4.823-1.419c0.592,1.186,0.19,2.747-0.567,3.404c2.479,0.398,3.152-1.007,3.973-2.27
	c-1.418-3.592-6.566-4.657-11.633-3.688c3.719,12.453,11.979,20.363,22.129,26.385C34.753,16.744,43.167-2.43,57.155,0.494
	c1.973,0.412,5.012,2.21,5.676,4.539c0.955,3.362-1.133,7.1-3.406,7.659c-5.932,1.464-7.868-3.51-5.39-7.092
	c-3.105,0.11-4.884,1.546-6.242,3.405c2.47,2.775,5.704,4.533,5.106,9.646c-0.155,1.335-1.027,3.312-2.27,3.972
	c-1.864,0.991-5.905,0.665-6.525-1.702c-1.047-4.009,3.416-5.102,4.824-2.27c0.471-3.215-1.546-3.94-3.406-4.823
	c-3.244,4.675-2.238,13.355-0.567,19.009c3.149-3.625,4.729-8.028,7.661-11.632C60.114,11.987,72.987,0.987,88.93,0.494
	c10.965-0.342,21.018,5.647,27.807,11.064c7.46,5.956,12.866,13.03,17.021,21.562c2.411-4.795,2.892-14.672,0-19.292
	c-2.026,0.715-3.729,1.755-3.688,4.54c1.166-0.168,1.766-1.718,3.404-1.136c1.144,0.405,2.038,1.915,1.418,3.688
	c-0.936,2.682-4.936,2.726-6.808,1.418c-4.032-2.814-0.989-11.88,3.403-12.767c-0.954-2.451-3.199-3.609-6.242-3.972
	c2.229,2.879,0.138,9.391-6.241,6.81c-1.876-0.761-3.684-4.375-2.553-7.66c1.337-3.889,8.106-5.531,13.05-3.688
	c9.094,3.387,13.921,17.373,10.498,31.491c10.418-5.754,18.229-14.112,22.412-26.103c-4.303-1.458-10.362-0.288-11.63,3.122
	c0.454,1.53,1.307,2.664,3.403,2.553c0.299-0.242-0.904-2.515,0-3.404c1.967-1.313,4.492-0.19,4.823,1.419
	c0.95,4.626-8.254,5.691-11.348,2.837c-2.146,0.989-1.493,5.035,0.283,5.957c0.063-0.53-0.093-2.645,0.851-3.12
	c1.756-0.987,3.779-0.365,4.823,0.852c1.415,5.997-7.139,9.807-10.781,6.242c-4.136-4.048,0.199-12.347,2.837-15.038
	c4.871-4.969,13.963-7.426,22.697-6.24c2.707,5.308,5.62,9.9,5.674,17.305c0.058,7.821-2.757,16.092-7.66,18.158
	c-3.879,1.635-9.089,0.014-10.214-2.837C152.528,25.032,167.69,25.049,162.696,33.12z"/>
<linearGradient id="SVGID_4_" gradientUnits="userSpaceOnUse" x1="263.1709" y1="40.4893" x2="263.1709" y2="1.0356">
	<stop  offset="0" style="stop-color:#392116"/>
	<stop  offset="0.7199" style="stop-color:#311B12"/>
</linearGradient>
<path fill-rule="evenodd" clip-rule="evenodd" fill="url(#SVGID_4_)" d="M190.19,7.564c-1.258,0.635-2.688,1.095-3.12,2.555
	c1.394,2.819,5.578,5.256,4.256,9.93c-1.806,6.379-11.404-2.229-3.121-3.121c-0.388-1.408-1.707-1.888-3.121-2.27
	c-2.03,4.545-0.392,11.623,1.701,14.753c7.254-14.78,14.881-28.338,37.168-28.371c9.617-0.014,17.109,1.595,24.113,6.524
	c4.885,3.437,10.066,8.055,10.782,13.902c0.479,3.901-0.817,7.172-3.405,7.944c-8.206,2.452-11.247-10.097-1.7-8.512
	c-0.03-1.771-2.155-3.896-3.689-5.106c-2.88,2.242-9.716,5.281-14.471,2.838c-1.529-0.788-2.793-2.342-2.553-4.258
	c0.473-3.749,7.669-3.466,6.81,1.703c3.582,0.179,4.953-1.855,6.241-3.972c-4.455-4.341-11.252-6.338-20.426-5.958
	c5.697,12.809,17.574,26.552,35.18,28.089c1.521,0.131,3.156,0.099,4.538,0c17.681-1.269,29.115-14.626,35.748-27.805
	c-8.573-1.01-16.273,1.315-20.425,5.674c1.075,2.232,2.6,4.019,5.956,3.972c-1.175-4.365,6.749-6.078,7.093-1.418
	c0.492,6.674-13.984,5.575-16.739,1.135c-1.955,1.071-3.335,2.717-4.256,4.823c2.286-0.377,5.443,0.527,6.243,2.554
	c0.483,8.25-10.756,8.191-11.35,0.851c-0.669-8.28,6.773-13.976,12.2-17.307c6.409-3.934,14.683-5.788,22.98-5.674
	c21.865,0.301,30.237,13.343,36.599,28.371c2.912-2.891,3.725-9.487,2.553-14.753c-1.803-0.006-2.646,0.948-3.403,1.986
	c4.288-0.086,3.959,6.342-0.567,5.673c-5.5-0.812-1.744-10.36,1.701-11.915c-0.597-1.389-1.723-2.25-3.12-2.838
	c4.131,4.73-3.899,8.86-6.525,4.54c-3.323-5.469,3.698-10.826,9.362-8.796c10.725,3.849,9.815,26.737,2.837,35.748
	c-12.604,2.121-26.118-4.879-27.236-14.186c-0.305-2.536,0.296-5.824,1.703-7.093c3.578-3.228,12.152,0.523,10.78,5.675
	c-0.703,2.638-6.941,3.002-5.675-1.701c-1.886,0.666-2.237,4.429-0.851,5.957c3.314-2.594,12.6-2.102,11.632,2.837
	c-0.357,1.823-2.687,2.596-4.823,1.419c-0.592-1.187-0.19-2.747,0.567-3.404c-2.479-0.399-3.152,1.006-3.972,2.27
	c1.417,3.592,6.565,4.657,11.633,3.688c-3.719-12.453-11.979-20.363-22.13-26.386c4.245,15.81-4.169,34.983-18.157,32.06
	c-1.973-0.412-5.012-2.21-5.676-4.539c-0.955-3.363,1.133-7.1,3.406-7.659c5.932-1.464,7.868,3.51,5.389,7.092
	c3.106-0.11,4.885-1.546,6.243-3.405c-2.47-2.775-5.705-4.533-5.106-9.646c0.155-1.335,1.027-3.312,2.27-3.973
	c1.863-0.99,5.905-0.664,6.525,1.703c1.047,4.009-3.417,5.101-4.824,2.27c-0.472,3.215,1.546,3.94,3.406,4.823
	c3.244-4.675,2.238-13.356,0.566-19.009c-3.148,3.625-4.729,8.028-7.66,11.632c-7.498,9.218-20.372,20.218-36.314,20.711
	c-10.964,0.341-21.018-5.648-27.806-11.064c-7.46-5.956-12.867-13.03-17.021-21.563c-2.411,4.795-2.892,14.672,0,19.293
	c2.026-0.715,3.729-1.755,3.688-4.54c-1.166,0.168-1.766,1.718-3.404,1.136c-1.144-0.405-2.038-1.915-1.418-3.688
	c0.936-2.682,4.936-2.726,6.808-1.418c4.032,2.814,0.989,11.88-3.403,12.767c0.953,2.451,3.199,3.609,6.242,3.972
	c-2.229-2.879-0.138-9.391,6.241-6.81c1.876,0.761,3.684,4.375,2.553,7.66c-1.338,3.888-8.106,5.531-13.05,3.688
	c-9.094-3.387-13.921-17.373-10.498-31.492c-10.418,5.755-18.229,14.113-22.412,26.104c4.303,1.458,10.361,0.288,11.63-3.122
	c-0.455-1.53-1.307-2.664-3.403-2.553c-0.299,0.242,0.904,2.515,0,3.404c-1.967,1.313-4.493,0.189-4.823-1.419
	c-0.95-4.627,8.254-5.692,11.348-2.837c2.146-0.989,1.493-5.035-0.283-5.957c-0.063,0.53,0.093,2.645-0.852,3.119
	c-1.755,0.988-3.778,0.366-4.822-0.851c-1.415-5.997,7.139-9.807,10.781-6.242c4.136,4.048-0.199,12.347-2.837,15.037
	c-4.871,4.97-13.963,7.427-22.697,6.241c-2.708-5.308-5.62-9.9-5.674-17.305c-0.058-7.821,2.756-16.092,7.66-18.158
	c3.879-1.635,9.088-0.014,10.214,2.837C200.358,15.653,185.196,15.637,190.19,7.564z"/>
</svg>
