<?xml version="1.0" encoding="utf-8"?>
<!-- Generator: Adobe Illustrator 16.0.0, SVG Export Plug-In . SVG Version: 6.00 Build 0)  -->
<!DOCTYPE svg PUBLIC "-//W3C//DTD SVG 1.1//EN" "http://www.w3.org/Graphics/SVG/1.1/DTD/svg11.dtd">
<svg version="1.1" id="Layer_1" xmlns="http://www.w3.org/2000/svg" xmlns:xlink="http://www.w3.org/1999/xlink" x="0px" y="0px"
	 width="498.5px" height="133.464px" viewBox="0 16.536 498.5 133.464" enable-background="new 0 16.536 498.5 133.464"
	 xml:space="preserve">
<g id="Layer_1_1_" display="none">
	
		<image display="inline" overflow="visible" enable-background="new    " width="961" height="245" xlink:href="E001C4C9.png"  transform="matrix(0.7501 0 0 0.7501 158.4985 19.6978)">
	</image>
</g>
<g id="Layer_2">
</g>
<g id="Layer_4">
</g>
<g id="Layer_3">
</g>
<g id="Layer_5">
	<g>
		
			<linearGradient id="SVGID_1_" gradientUnits="userSpaceOnUse" x1="242.25" y1="-275.7402" x2="740.5" y2="-275.7402" gradientTransform="matrix(1 0 0 -1 -242 -181)">
			<stop  offset="0" style="stop-color:#D62626"/>
			<stop  offset="0.1505" style="stop-color:#9F1C1C"/>
			<stop  offset="0.8656" style="stop-color:#9F1C1C"/>
			<stop  offset="1" style="stop-color:#D62626"/>
		</linearGradient>
		
			<linearGradient id="SVGID_2_" gradientUnits="userSpaceOnUse" x1="241.4019" y1="-275.833" x2="741.3936" y2="-275.833" gradientTransform="matrix(1 0 0 -1 -242 -181)">
			<stop  offset="0" style="stop-color:#D62626"/>
			<stop  offset="0.1505" style="stop-color:#9F1C1C"/>
			<stop  offset="0.9194" style="stop-color:#7F1716"/>
			<stop  offset="1" style="stop-color:#D62626"/>
		</linearGradient>
		<path fill="url(#SVGID_1_)" stroke="url(#SVGID_2_)" stroke-miterlimit="10" d="M0.25,75.684l21.667,29.977L5.982,144.098
			l83.293-16.622c0,0,11.588-5.194,3.621-10.908c-7.967-5.712-17.383-12.983-17.383-12.983s-5.07-7.275,6.881-8.832
			c11.951-1.558,97.629-15.584,169.771-13.506c0,0,105.822,3.638,151.09,11.947c0,0,37.302-0.37,8.692,16.696
			c-28.609,17.067,7.241,19.145,7.241,19.145l72.793,15.063l-17.021-38.956L498.5,75.683L426.07,59.95c0,0-121.083-32.776-356.626,0
			L0.25,75.684z"/>
		<path fill="#7F1716" d="M402.846,95.743l-1.935,26.94c0,0,21.446-15.615,21.77-21.714
			C423.007,94.87,402.846,95.743,402.846,95.743"/>
		<path fill="#7F1716" d="M93.646,94.74l1.934,26.941c0,0-21.443-15.616-21.769-21.714C73.485,93.867,93.646,94.74,93.646,94.74"/>
		<path fill="#9F1C1C" d="M66.649,35.083l5.242,65.663c0,0,128.955-35.087,350.869,0l4.193-65.663c0,0,1.048-3.509-9.785-5.013
			c-10.834-1.503-101.696-14.034-170.192-13.534C178.479,17.037,74.687,31.574,74.687,31.574S66.412,32.114,66.649,35.083z"/>
		<g>
			<g opacity="0.3">
				<path fill="none" stroke="#FFFFFF" stroke-miterlimit="10" d="M419.614,37.588c0,0-0.426-0.054-1.237-0.154"/>
				<path fill="none" stroke="#FFFFFF" stroke-miterlimit="10" stroke-dasharray="3.9755,3.9755" d="M415.913,37.129
					c-20.043-2.47-116.194-14.04-157.401-13.98C203.59,23.23,147.59,27.966,76.281,39.202"/>
				<path fill="none" stroke="#FFFFFF" stroke-miterlimit="10" d="M75.045,39.397c-0.413,0.065-0.825,0.13-1.238,0.197"/>
			</g>
		</g>
		<g>
			<g opacity="0.3">
				<path fill="none" stroke="#FFFFFF" stroke-miterlimit="10" d="M414.722,92.726c0,0-0.427-0.055-1.237-0.156"/>
				<path fill="none" stroke="#FFFFFF" stroke-miterlimit="10" stroke-dasharray="4.0271,4.0271" d="M410.989,92.256
					c-19.943-2.491-114.525-14.029-155.091-13.968c-54.13,0.081-103.862,1.876-174.009,13.037"/>
				<path fill="none" stroke="#FFFFFF" stroke-miterlimit="10" d="M80.637,91.524c-0.412,0.066-0.825,0.132-1.238,0.199"/>
			</g>
		</g>
		
			<line fill="none" stroke="#FFFFFF" stroke-miterlimit="10" stroke-opacity="0.3" stroke-dasharray="4,4" x1="11.433" y1="81.699" x2="69.357" y2="69.01"/>
		<path fill="none" stroke="#FFFFFF" stroke-miterlimit="10" stroke-opacity="0.3" stroke-dasharray="4,4" d="M16.675,134.33
			c0,0,65.643-11.526,73.185-17.042"/>
		<path fill="none" stroke="#FFFFFF" stroke-miterlimit="10" stroke-opacity="0.3" stroke-dasharray="4,4" d="M484.964,81.699
			c0,0-57.451-13.348-60.178-12.689"/>
		<path fill="none" stroke="#FFFFFF" stroke-miterlimit="10" stroke-opacity="0.3" stroke-dasharray="4,4" d="M481.471,134.33
			c0,0-72.241-13.467-75.066-15.859"/>
	</g>
</g>
</svg>
