<?xml version="1.0" encoding="utf-8"?>
<!-- Generator: Adobe Illustrator 16.0.0, SVG Export Plug-In . SVG Version: 6.00 Build 0)  -->
<!DOCTYPE svg PUBLIC "-//W3C//DTD SVG 1.1//EN" "http://www.w3.org/Graphics/SVG/1.1/DTD/svg11.dtd">
<svg version="1.1" id="Layer_1" xmlns="http://www.w3.org/2000/svg" xmlns:xlink="http://www.w3.org/1999/xlink" x="0px" y="0px"
	 width="300px" height="265px" viewBox="0 0 300 265" enable-background="new 0 0 300 265" xml:space="preserve">
<g>
	<path opacity="0.77" fill="#E96449" d="M16.414,172.738l-2.642,2.412c0,0,2.081,1.732,4.182,2.272
		c3.828,0.983,6.508,0.461,8.807-0.448c1.843-0.731,3.927-2.585,3.927-2.585l-2.834-1.982c0,0-1.68,1.114-2.693,1.585
		c-1.827,0.856-2.885,0.971-5.133,0.591C17.492,174.158,16.414,172.738,16.414,172.738z"/>
	<path opacity="0.77" fill="#E8755F" d="M19.074,170.41l-2.872,2.469c0,0,2.299,1.495,3.46,1.626
		c2.311,0.265,2.731,0.397,4.782-0.322c2.401-0.837,3.299-1.99,3.299-1.99l-2.762-2.204c0,0-0.484,0.634-1.865,1.025
		c-0.547,0.152-1.785,0.21-2.891-0.029C19.663,170.864,19.074,170.41,19.074,170.41z"/>
	<polygon fill="#E8755F" points="61.426,169.708 60.104,169.865 57.304,174.899 64.073,174.152 	"/>
	<polygon fill="#E8755F" points="43.777,172.225 40.251,176.389 47.278,175.845 	"/>
	<g>
		<g>
			<defs>
				<path id="SVGID_1_" d="M24.818,170.161c-0.137,0.13-0.271,0.261-0.406,0.392c-0.762,0.738-1.526,1.475-2.288,2.214
					c0.87-0.847,1.174-2.237,1.131-4.196l2.689-2.604C25.993,167.925,25.686,169.316,24.818,170.161z"/>
			</defs>
			<use xlink:href="#SVGID_1_"  overflow="visible" fill="#9A5853"/>
			<clipPath id="SVGID_2_">
				<use xlink:href="#SVGID_1_"  overflow="visible"/>
			</clipPath>
			<g clip-path="url(#SVGID_2_)" enable-background="new    ">
				<path fill="#9A5853" d="M24.818,170.161l-2.694,2.605c0.87-0.847,1.174-2.237,1.131-4.196l2.689-2.604
					C25.993,167.925,25.686,169.316,24.818,170.161"/>
			</g>
		</g>
		<g>
			<path fill="#E37F68" d="M21.483,131.259c6.473,0.015,11.645,4.347,11.711,11.129c0.179,7.796,0.357,15.596,0.532,23.396
				c0.223,6.942-4.834,11.939-11.651,12.142c-0.151,0.003-0.302,0.006-0.449,0.005c-6.582-0.016-11.664-4.726-11.749-11.479
				c-0.175-7.8-0.36-15.598-0.535-23.396c-0.229-6.973,4.935-11.593,11.665-11.791C21.165,131.259,21.324,131.259,21.483,131.259z
				 M25.945,165.966c-0.175-7.674-0.348-15.343-0.525-23.015c-0.076-3.3-1.059-4.89-3.986-4.899c-0.087,0-0.179,0.001-0.272,0.006
				c-3.138,0.086-4.105,1.729-4.028,5.124c0.175,7.672,0.353,15.346,0.528,23.018c0.075,3.3,1.062,4.933,4.001,4.94
				c0.085,0,0.169-0.005,0.257-0.005C25.053,171.045,26.024,169.36,25.945,165.966"/>
		</g>
		<g enable-background="new    ">
			<defs>
				<path id="SVGID_3_" enable-background="new    " d="M46.758,147.473l-2.692,2.604c-0.054,0.003-0.077,0.004-0.13,0.009
					l2.695-2.604C46.681,147.479,46.704,147.476,46.758,147.473z"/>
			</defs>
			<clipPath id="SVGID_4_">
				<use xlink:href="#SVGID_3_"  overflow="visible"/>
			</clipPath>
			<g clip-path="url(#SVGID_4_)" enable-background="new    ">
				<path fill="#955747" d="M46.758,147.473l-2.692,2.604c-0.054,0.003-0.077,0.004-0.13,0.009l2.695-2.604
					C46.681,147.479,46.704,147.476,46.758,147.473"/>
			</g>
		</g>
		<g>
			<path fill="#E37F68" d="M63.036,128.75c0.346,15.131,0.69,30.268,1.038,45.401c-2.708,0.314-4.061,0.464-6.77,0.747
				c-3.522-9.144-7.039-18.281-10.546-27.426c-0.054,0.003-0.077,0.006-0.127,0.008c0.213,9.455,0.43,18.911,0.647,28.364
				c-2.805,0.235-4.211,0.347-7.027,0.544c-0.345-15.134-0.686-30.27-1.032-45.404c2.883-0.204,4.322-0.313,7.211-0.559
				c3.344,8.362,6.695,16.719,10.056,25.079c0.049-0.006,0.074-0.011,0.125-0.015c-0.197-8.657-0.396-17.314-0.592-25.97
				C58.827,129.226,60.226,129.074,63.036,128.75z"/>
		</g>
		<g>
			<path fill="#E37F68" d="M91.587,124.838c0.064,2.716,0.096,4.075,0.157,6.789c-3.004,0.47-4.503,0.699-7.511,1.136
				c0.293,12.874,0.589,25.742,0.879,38.615c-3.103,0.456-4.656,0.672-7.762,1.098c-0.293-12.872-0.589-25.741-0.882-38.612
				c-3.007,0.412-4.506,0.607-7.517,0.983c-0.06-2.717-0.09-4.076-0.154-6.792C76.411,127.079,84.004,125.998,91.587,124.838z"/>
		</g>
		<g>
			<defs>
				<path id="SVGID_5_" d="M77.35,172.476l-2.69,2.604c-0.293-12.873-0.589-25.743-0.882-38.613l2.69-2.603
					C76.761,146.735,77.057,159.604,77.35,172.476z"/>
			</defs>
			<use xlink:href="#SVGID_5_"  overflow="visible" fill="#C05D52"/>
			<clipPath id="SVGID_6_">
				<use xlink:href="#SVGID_5_"  overflow="visible"/>
			</clipPath>
			<g clip-path="url(#SVGID_6_)" enable-background="new    ">
				<path fill="#C05D52" d="M77.35,172.476l-2.69,2.604c-0.293-12.873-0.589-25.743-0.882-38.613l2.69-2.603
					C76.761,146.735,77.057,159.604,77.35,172.476"/>
			</g>
		</g>
		<g>
			<defs>
				<path id="SVGID_7_" d="M114.463,166.612l-2.69,2.603c-0.156-6.71-0.305-13.419-0.461-20.124l2.689-2.604
					C114.157,153.192,114.313,159.901,114.463,166.612z"/>
			</defs>
			<use xlink:href="#SVGID_7_"  overflow="visible" fill="#C05D52"/>
			<clipPath id="SVGID_8_">
				<use xlink:href="#SVGID_7_"  overflow="visible"/>
			</clipPath>
			<g clip-path="url(#SVGID_8_)" enable-background="new    ">
				<path fill="#C05D52" d="M114.463,166.612l-2.69,2.603c-0.156-6.71-0.305-13.419-0.461-20.124l2.689-2.604
					C114.157,153.192,114.313,159.901,114.463,166.612"/>
			</g>
		</g>
		<g>
			<path fill="#E37F68" d="M121.187,119.824c0.341,15.133,0.691,30.271,1.036,45.404c-3.106,0.562-4.658,0.837-7.76,1.384
				c-0.15-6.711-0.306-13.42-0.462-20.126c-3.303,0.58-4.949,0.865-8.255,1.423c0.152,6.709,0.305,13.416,0.462,20.124
				c-3.106,0.526-4.652,0.784-7.762,1.283c-0.344-15.134-0.693-30.267-1.038-45.402c3.106-0.503,4.661-0.76,7.759-1.286
				c0.142,6.164,0.283,12.325,0.423,18.49c3.307-0.561,4.954-0.845,8.26-1.422c-0.142-6.165-0.282-12.329-0.427-18.493
				C116.53,120.662,118.078,120.384,121.187,119.824z"/>
		</g>
		<g>
			<path fill="#E37F68" d="M148.204,114.815c0.061,2.718,0.096,4.075,0.161,6.794c-4.338,0.815-8.672,1.629-13.01,2.437
				c0.087,3.898,0.177,7.794,0.268,11.697c3.335-0.621,6.67-1.248,10.005-1.875c0.061,2.721,0.092,4.077,0.153,6.794
				c-3.336,0.624-6.667,1.249-10.003,1.871c0.102,4.442,0.201,8.889,0.302,13.334c4.63-0.866,9.256-1.734,13.884-2.604
				c0.062,2.717,0.091,4.077,0.155,6.795c-7.213,1.354-14.423,2.703-21.639,4.03c-0.347-15.137-0.695-30.266-1.038-45.405
				C134.366,117.412,141.289,116.118,148.204,114.815z"/>
		</g>
		<g>
			<path fill="#E37F68" d="M176.854,109.503c0.062,2.718,0.094,4.073,0.157,6.791c-4.632,0.841-9.257,1.69-13.886,2.551
				c0.084,3.897,0.177,7.798,0.262,11.697c3.465-0.645,6.926-1.282,10.385-1.915c0.066,2.718,0.097,4.077,0.159,6.793
				c-3.463,0.633-6.925,1.27-10.386,1.914c0.154,6.705,0.305,13.415,0.46,20.123c-3.101,0.576-4.655,0.866-7.759,1.447
				c-0.343-15.132-0.687-30.27-1.036-45.405C162.423,112.151,169.637,110.814,176.854,109.503z"/>
		</g>
		<g>
			<path fill="#E37F68" d="M202.506,105.115c0.06,2.718,0.093,4.076,0.155,6.795c-4.344,0.69-8.68,1.413-13.017,2.161
				c0.093,3.895,0.177,7.796,0.266,11.695c3.334-0.573,6.675-1.133,10.016-1.677c0.063,2.718,0.096,4.076,0.154,6.795
				c-3.342,0.541-6.676,1.104-10.011,1.674c0.101,4.446,0.2,8.892,0.302,13.334c4.625-0.791,9.259-1.557,13.895-2.305
				c0.063,2.718,0.097,4.077,0.15,6.795c-7.226,1.164-14.439,2.387-21.648,3.656c-0.338-15.135-0.684-30.271-1.037-45.404
				C188.647,107.413,195.567,106.238,202.506,105.115z"/>
		</g>
		<g enable-background="new    ">
			<defs>
				<path id="SVGID_9_" enable-background="new    " d="M215.792,120.191l-2.693,2.605c-0.049,0.003-0.076,0.006-0.123,0.015
					l2.69-2.604C215.716,120.2,215.74,120.197,215.792,120.191z"/>
			</defs>
			<clipPath id="SVGID_10_">
				<use xlink:href="#SVGID_9_"  overflow="visible"/>
			</clipPath>
			<g clip-path="url(#SVGID_10_)" enable-background="new    ">
				<path fill="#955747" d="M215.792,120.191l-2.693,2.605c-0.049,0.003-0.076,0.006-0.123,0.015l2.69-2.604
					C215.716,120.2,215.74,120.197,215.792,120.191"/>
			</g>
		</g>
		<g>
			<defs>
				<path id="SVGID_11_" d="M226.327,147.186l-2.688,2.604c-3.507-8.999-7.021-17.996-10.54-26.993l2.693-2.605
					C219.311,129.188,222.826,138.186,226.327,147.186z"/>
			</defs>
			<use xlink:href="#SVGID_11_"  overflow="visible" fill="#C05D52"/>
			<clipPath id="SVGID_12_">
				<use xlink:href="#SVGID_11_"  overflow="visible"/>
			</clipPath>
			<g clip-path="url(#SVGID_12_)" enable-background="new    ">
				<path fill="#C05D52" d="M226.327,147.186l-2.688,2.604c-3.507-8.999-7.021-17.996-10.54-26.993l2.693-2.605
					C219.311,129.188,222.826,138.186,226.327,147.186"/>
			</g>
		</g>
		<g>
			<path fill="#E37F68" d="M232.055,100.93c0.347,15.135,0.696,30.274,1.038,45.404c-2.703,0.326-4.058,0.501-6.766,0.852
				c-3.501-9-7.017-17.998-10.535-26.995c-0.052,0.005-0.076,0.008-0.126,0.016c0.219,9.455,0.431,18.91,0.646,28.363
				c-2.804,0.403-4.207,0.614-7.013,1.048c-0.342-15.137-0.687-30.272-1.036-45.407c2.882-0.441,4.318-0.656,7.197-1.074
				c3.357,8.223,6.705,16.445,10.053,24.668c0.051-0.008,0.075-0.013,0.127-0.016c-0.2-8.656-0.4-17.316-0.598-25.975
				C227.852,101.449,229.251,101.268,232.055,100.93z"/>
		</g>
		<g>
			<path fill="#E37F68" d="M251.347,98.349c6.366,0.016,10.613,5.264,10.691,11.626c0.033,1.335,0.047,2.001,0.08,3.332
				c-3.115,0.199-4.669,0.314-7.779,0.563c-0.032-1.408-0.048-2.114-0.079-3.523c-0.084-3.629-1.693-5.162-3.565-5.167
				c-0.106,0-0.215,0.005-0.321,0.015c-3.134,0.275-4.099,2.014-4.021,5.407c0.17,7.673,0.347,15.346,0.525,23.021
				c0.071,3.128,0.961,4.675,3.553,4.681c0.22,0,0.456-0.01,0.702-0.032c2.819-0.248,3.719-1.951,3.656-4.909
				c-0.054-2.184-0.078-3.281-0.128-5.468c3.109-0.25,4.664-0.363,7.777-0.561c0.049,2.084,0.069,3.129,0.118,5.216
				c0.203,6.823-4.623,11.897-11.273,12.514c-0.447,0.041-0.887,0.062-1.325,0.062c-6.031-0.015-10.792-4.053-10.847-10.518
				c-0.18-7.798-0.361-15.595-0.531-23.393c-0.205-7.003,4.821-12.19,11.638-12.813C250.6,98.365,250.977,98.349,251.347,98.349z"/>
		</g>
		<g>
			<path fill="#E37F68" d="M288.006,97.29c0.063,2.714,0.093,4.074,0.15,6.79c-4.352,0.001-8.706,0.078-13.053,0.221
				c0.085,3.9,0.176,7.798,0.266,11.698c3.345-0.111,6.691-0.181,10.042-0.208c0.063,2.718,0.095,4.075,0.155,6.79
				c-3.349,0.028-6.699,0.1-10.043,0.207c0.102,4.449,0.2,8.892,0.307,13.335c4.642-0.134,9.287-0.208,13.937-0.218
				c0.063,2.714,0.09,4.073,0.153,6.791c-7.253,0.021-14.48,0.21-21.72,0.551c-0.345-15.137-0.69-30.271-1.035-45.403
				C274.107,97.512,281.047,97.322,288.006,97.29z"/>
		</g>
		<g>
			<g>
				<defs>
					<path id="SVGID_13_" d="M64.073,174.152l-2.694,2.604c-2.707,0.312-4.058,0.463-6.765,0.744l2.689-2.602
						C60.012,174.616,61.365,174.466,64.073,174.152z"/>
				</defs>
				<use xlink:href="#SVGID_13_"  overflow="visible" fill="#9A5853"/>
				<clipPath id="SVGID_14_">
					<use xlink:href="#SVGID_13_"  overflow="visible"/>
				</clipPath>
				<g clip-path="url(#SVGID_14_)" enable-background="new    ">
					<path fill="#9A5853" d="M64.073,174.152l-2.694,2.604c-2.707,0.312-4.058,0.463-6.765,0.744l2.689-2.602
						C60.012,174.616,61.365,174.466,64.073,174.152"/>
				</g>
			</g>
			<g>
				<defs>
					<path id="SVGID_15_" d="M47.278,175.845l-2.694,2.603c-2.805,0.237-4.209,0.347-7.021,0.545l2.688-2.604
						C43.066,176.192,44.473,176.081,47.278,175.845z"/>
				</defs>
				<use xlink:href="#SVGID_15_"  overflow="visible" fill="#9A5853"/>
				<clipPath id="SVGID_16_">
					<use xlink:href="#SVGID_15_"  overflow="visible"/>
				</clipPath>
				<g clip-path="url(#SVGID_16_)" enable-background="new    ">
					<path fill="#9A5853" d="M47.278,175.845l-2.694,2.603c-2.805,0.237-4.209,0.347-7.021,0.545l2.688-2.604
						C43.066,176.192,44.473,176.081,47.278,175.845"/>
				</g>
			</g>
			<g>
				<defs>
					<path id="SVGID_17_" d="M91.744,131.627l-2.691,2.603c-3.003,0.47-4.508,0.699-7.512,1.136l2.691-2.603
						C87.241,132.326,88.74,132.097,91.744,131.627z"/>
				</defs>
				<use xlink:href="#SVGID_17_"  overflow="visible" fill="#9A5853"/>
				<clipPath id="SVGID_18_">
					<use xlink:href="#SVGID_17_"  overflow="visible"/>
				</clipPath>
				<g clip-path="url(#SVGID_18_)" enable-background="new    ">
					<path fill="#9A5853" d="M91.744,131.627l-2.691,2.603c-3.003,0.47-4.508,0.699-7.512,1.136l2.691-2.603
						C87.241,132.326,88.74,132.097,91.744,131.627"/>
				</g>
			</g>
			<g>
				<defs>
					<path id="SVGID_19_" d="M76.468,133.864l-2.69,2.603c-3.007,0.411-4.511,0.608-7.516,0.985l2.689-2.604
						C71.962,134.471,73.461,134.275,76.468,133.864z"/>
				</defs>
				<use xlink:href="#SVGID_19_"  overflow="visible" fill="#9A5853"/>
				<clipPath id="SVGID_20_">
					<use xlink:href="#SVGID_19_"  overflow="visible"/>
				</clipPath>
				<g clip-path="url(#SVGID_20_)" enable-background="new    ">
					<path fill="#9A5853" d="M76.468,133.864l-2.69,2.603c-3.007,0.411-4.511,0.608-7.516,0.985l2.689-2.604
						C71.962,134.471,73.461,134.275,76.468,133.864"/>
				</g>
			</g>
			<g>
				<defs>
					<path id="SVGID_21_" d="M85.112,171.378l-2.689,2.604c-3.106,0.455-4.659,0.673-7.763,1.098l2.69-2.604
						C80.456,172.05,82.009,171.834,85.112,171.378z"/>
				</defs>
				<use xlink:href="#SVGID_21_"  overflow="visible" fill="#9A5853"/>
				<clipPath id="SVGID_22_">
					<use xlink:href="#SVGID_21_"  overflow="visible"/>
				</clipPath>
				<g clip-path="url(#SVGID_22_)" enable-background="new    ">
					<path fill="#9A5853" d="M85.112,171.378l-2.689,2.604c-3.106,0.455-4.659,0.673-7.763,1.098l2.69-2.604
						C80.456,172.05,82.009,171.834,85.112,171.378"/>
				</g>
			</g>
			<g>
				<defs>
					<path id="SVGID_23_" d="M114.001,146.486l-2.689,2.604c-3.303,0.579-4.954,0.864-8.26,1.421l2.694-2.603
						C109.053,147.351,110.698,147.066,114.001,146.486z"/>
				</defs>
				<use xlink:href="#SVGID_23_"  overflow="visible" fill="#9A5853"/>
				<clipPath id="SVGID_24_">
					<use xlink:href="#SVGID_23_"  overflow="visible"/>
				</clipPath>
				<g clip-path="url(#SVGID_24_)" enable-background="new    ">
					<path fill="#9A5853" d="M114.001,146.486l-2.689,2.604c-3.303,0.579-4.954,0.864-8.26,1.421l2.694-2.603
						C109.053,147.351,110.698,147.066,114.001,146.486"/>
				</g>
			</g>
			<g>
				<defs>
					<path id="SVGID_25_" d="M122.223,165.228l-2.694,2.606c-3.103,0.557-4.653,0.834-7.756,1.38l2.69-2.603
						C117.565,166.065,119.117,165.79,122.223,165.228z"/>
				</defs>
				<use xlink:href="#SVGID_25_"  overflow="visible" fill="#9A5853"/>
				<clipPath id="SVGID_26_">
					<use xlink:href="#SVGID_25_"  overflow="visible"/>
				</clipPath>
				<g clip-path="url(#SVGID_26_)" enable-background="new    ">
					<path fill="#9A5853" d="M122.223,165.228l-2.694,2.606c-3.103,0.557-4.653,0.834-7.756,1.38l2.69-2.603
						C117.565,166.065,119.117,165.79,122.223,165.228"/>
				</g>
			</g>
			<g>
				<defs>
					<path id="SVGID_27_" d="M106.208,168.033l-2.694,2.604c-3.102,0.524-4.653,0.784-7.759,1.283l2.691-2.604
						C101.556,168.817,103.102,168.559,106.208,168.033z"/>
				</defs>
				<use xlink:href="#SVGID_27_"  overflow="visible" fill="#9A5853"/>
				<clipPath id="SVGID_28_">
					<use xlink:href="#SVGID_27_"  overflow="visible"/>
				</clipPath>
				<g clip-path="url(#SVGID_28_)" enable-background="new    ">
					<path fill="#9A5853" d="M106.208,168.033l-2.694,2.604c-3.102,0.524-4.653,0.784-7.759,1.283l2.691-2.604
						C101.556,168.817,103.102,168.559,106.208,168.033"/>
				</g>
			</g>
			<g>
				<defs>
					<path id="SVGID_29_" d="M148.365,121.609l-2.691,2.603c-4.339,0.815-8.674,1.629-13.012,2.435l2.693-2.601
						C139.693,123.239,144.027,122.424,148.365,121.609z"/>
				</defs>
				<use xlink:href="#SVGID_29_"  overflow="visible" fill="#9A5853"/>
				<clipPath id="SVGID_30_">
					<use xlink:href="#SVGID_29_"  overflow="visible"/>
				</clipPath>
				<g clip-path="url(#SVGID_30_)" enable-background="new    ">
					<path fill="#9A5853" d="M148.365,121.609l-2.691,2.603c-4.339,0.815-8.674,1.629-13.012,2.435l2.693-2.601
						C139.693,123.239,144.027,122.424,148.365,121.609"/>
				</g>
			</g>
			<g>
				<defs>
					<path id="SVGID_31_" d="M145.781,140.663l-2.693,2.604c-3.333,0.625-6.666,1.248-10.002,1.871l2.692-2.604
						C139.114,141.912,142.445,141.287,145.781,140.663z"/>
				</defs>
				<use xlink:href="#SVGID_31_"  overflow="visible" fill="#9A5853"/>
				<clipPath id="SVGID_32_">
					<use xlink:href="#SVGID_31_"  overflow="visible"/>
				</clipPath>
				<g clip-path="url(#SVGID_32_)" enable-background="new    ">
					<path fill="#9A5853" d="M145.781,140.663l-2.693,2.604c-3.333,0.625-6.666,1.248-10.002,1.871l2.692-2.604
						C139.114,141.912,142.445,141.287,145.781,140.663"/>
				</g>
			</g>
			<g>
				<defs>
					<path id="SVGID_33_" d="M150.12,160.059l-2.691,2.604c-7.213,1.353-14.426,2.703-21.642,4.03l2.694-2.604
						C135.697,162.762,142.907,161.413,150.12,160.059z"/>
				</defs>
				<use xlink:href="#SVGID_33_"  overflow="visible" fill="#9A5853"/>
				<clipPath id="SVGID_34_">
					<use xlink:href="#SVGID_33_"  overflow="visible"/>
				</clipPath>
				<g clip-path="url(#SVGID_34_)" enable-background="new    ">
					<path fill="#9A5853" d="M150.12,160.059l-2.691,2.604c-7.213,1.353-14.426,2.703-21.642,4.03l2.694-2.604
						C135.697,162.762,142.907,161.413,150.12,160.059"/>
				</g>
			</g>
			<g>
				<defs>
					<path id="SVGID_35_" d="M177.011,116.294l-2.694,2.605c-4.626,0.837-9.256,1.688-13.888,2.548l2.696-2.602
						C167.754,117.985,172.379,117.135,177.011,116.294z"/>
				</defs>
				<use xlink:href="#SVGID_35_"  overflow="visible" fill="#9A5853"/>
				<clipPath id="SVGID_36_">
					<use xlink:href="#SVGID_35_"  overflow="visible"/>
				</clipPath>
				<g clip-path="url(#SVGID_36_)" enable-background="new    ">
					<path fill="#9A5853" d="M177.011,116.294l-2.694,2.605c-4.626,0.837-9.256,1.688-13.888,2.548l2.696-2.602
						C167.754,117.985,172.379,117.135,177.011,116.294"/>
				</g>
			</g>
			<g>
				<defs>
					<path id="SVGID_37_" d="M173.931,135.421l-2.691,2.603c-3.462,0.633-6.923,1.269-10.385,1.912l2.69-2.601
						C167.006,136.691,170.468,136.054,173.931,135.421z"/>
				</defs>
				<use xlink:href="#SVGID_37_"  overflow="visible" fill="#9A5853"/>
				<clipPath id="SVGID_38_">
					<use xlink:href="#SVGID_37_"  overflow="visible"/>
				</clipPath>
				<g clip-path="url(#SVGID_38_)" enable-background="new    ">
					<path fill="#9A5853" d="M173.931,135.421l-2.691,2.603c-3.462,0.633-6.923,1.269-10.385,1.912l2.69-2.601
						C167.006,136.691,170.468,136.054,173.931,135.421"/>
				</g>
			</g>
			<g>
				<defs>
					<path id="SVGID_39_" d="M164.005,157.458l-2.688,2.604c-3.103,0.574-4.662,0.863-7.76,1.446l2.689-2.604
						C159.35,158.325,160.904,158.035,164.005,157.458z"/>
				</defs>
				<use xlink:href="#SVGID_39_"  overflow="visible" fill="#9A5853"/>
				<clipPath id="SVGID_40_">
					<use xlink:href="#SVGID_39_"  overflow="visible"/>
				</clipPath>
				<g clip-path="url(#SVGID_40_)" enable-background="new    ">
					<path fill="#9A5853" d="M164.005,157.458l-2.688,2.604c-3.103,0.574-4.662,0.863-7.76,1.446l2.689-2.604
						C159.35,158.325,160.904,158.035,164.005,157.458"/>
				</g>
			</g>
			<g>
				<defs>
					<path id="SVGID_41_" d="M202.661,111.91l-2.688,2.603c-4.346,0.69-8.685,1.413-13.017,2.161l2.688-2.603
						C193.981,113.323,198.317,112.6,202.661,111.91z"/>
				</defs>
				<use xlink:href="#SVGID_41_"  overflow="visible" fill="#9A5853"/>
				<clipPath id="SVGID_42_">
					<use xlink:href="#SVGID_41_"  overflow="visible"/>
				</clipPath>
				<g clip-path="url(#SVGID_42_)" enable-background="new    ">
					<path fill="#9A5853" d="M202.661,111.91l-2.688,2.603c-4.346,0.69-8.685,1.413-13.017,2.161l2.688-2.603
						C193.981,113.323,198.317,112.6,202.661,111.91"/>
				</g>
			</g>
			<g>
				<defs>
					<path id="SVGID_43_" d="M200.08,130.883l-2.689,2.603c-3.343,0.541-6.682,1.101-10.016,1.674l2.694-2.603
						C193.404,131.987,196.738,131.424,200.08,130.883z"/>
				</defs>
				<use xlink:href="#SVGID_43_"  overflow="visible" fill="#9A5853"/>
				<clipPath id="SVGID_44_">
					<use xlink:href="#SVGID_43_"  overflow="visible"/>
				</clipPath>
				<g clip-path="url(#SVGID_44_)" enable-background="new    ">
					<path fill="#9A5853" d="M200.08,130.883l-2.689,2.603c-3.343,0.541-6.682,1.101-10.016,1.674l2.694-2.603
						C193.404,131.987,196.738,131.424,200.08,130.883"/>
				</g>
			</g>
			<g>
				<defs>
					<path id="SVGID_45_" d="M204.416,150.381l-2.688,2.604c-7.229,1.164-14.443,2.389-21.649,3.656l2.689-2.604
						C189.977,152.768,197.19,151.545,204.416,150.381z"/>
				</defs>
				<use xlink:href="#SVGID_45_"  overflow="visible" fill="#9A5853"/>
				<clipPath id="SVGID_46_">
					<use xlink:href="#SVGID_45_"  overflow="visible"/>
				</clipPath>
				<g clip-path="url(#SVGID_46_)" enable-background="new    ">
					<path fill="#9A5853" d="M204.416,150.381l-2.688,2.604c-7.229,1.164-14.443,2.389-21.649,3.656l2.689-2.604
						C189.977,152.768,197.19,151.545,204.416,150.381"/>
				</g>
			</g>
			<g>
				<defs>
					<path id="SVGID_47_" d="M233.093,146.334l-2.69,2.605c-2.709,0.323-4.058,0.498-6.764,0.85l2.688-2.604
						C229.035,146.835,230.39,146.661,233.093,146.334z"/>
				</defs>
				<use xlink:href="#SVGID_47_"  overflow="visible" fill="#9A5853"/>
				<clipPath id="SVGID_48_">
					<use xlink:href="#SVGID_47_"  overflow="visible"/>
				</clipPath>
				<g clip-path="url(#SVGID_48_)" enable-background="new    ">
					<path fill="#9A5853" d="M233.093,146.334l-2.69,2.605c-2.709,0.323-4.058,0.498-6.764,0.85l2.688-2.604
						C229.035,146.835,230.39,146.661,233.093,146.334"/>
				</g>
			</g>
			<g>
				<defs>
					<path id="SVGID_49_" d="M216.312,148.571l-2.69,2.604c-2.802,0.404-4.209,0.615-7.011,1.046l2.688-2.602
						C212.104,149.185,213.508,148.974,216.312,148.571z"/>
				</defs>
				<use xlink:href="#SVGID_49_"  overflow="visible" fill="#9A5853"/>
				<clipPath id="SVGID_50_">
					<use xlink:href="#SVGID_49_"  overflow="visible"/>
				</clipPath>
				<g clip-path="url(#SVGID_50_)" enable-background="new    ">
					<path fill="#9A5853" d="M216.312,148.571l-2.69,2.604c-2.802,0.404-4.209,0.615-7.011,1.046l2.688-2.602
						C212.104,149.185,213.508,148.974,216.312,148.571"/>
				</g>
			</g>
			<g>
				<defs>
					<path id="SVGID_51_" d="M262.118,113.307l-2.693,2.606c-3.112,0.197-4.67,0.312-7.775,0.56l2.689-2.604
						C257.449,113.622,259.003,113.506,262.118,113.307z"/>
				</defs>
				<use xlink:href="#SVGID_51_"  overflow="visible" fill="#9A5853"/>
				<clipPath id="SVGID_52_">
					<use xlink:href="#SVGID_51_"  overflow="visible"/>
				</clipPath>
				<g clip-path="url(#SVGID_52_)" enable-background="new    ">
					<path fill="#9A5853" d="M262.118,113.307l-2.693,2.606c-3.112,0.197-4.67,0.312-7.775,0.56l2.689-2.604
						C257.449,113.622,259.003,113.506,262.118,113.307"/>
				</g>
			</g>
			<g>
				<defs>
					<path id="SVGID_53_" d="M288.156,104.08l-2.688,2.603c-4.358,0-8.706,0.078-13.062,0.221l2.697-2.603
						C279.45,104.157,283.805,104.081,288.156,104.08z"/>
				</defs>
				<use xlink:href="#SVGID_53_"  overflow="visible" fill="#9A5853"/>
				<clipPath id="SVGID_54_">
					<use xlink:href="#SVGID_53_"  overflow="visible"/>
				</clipPath>
				<g clip-path="url(#SVGID_54_)" enable-background="new    ">
					<path fill="#9A5853" d="M288.156,104.08l-2.688,2.603c-4.358,0-8.706,0.078-13.062,0.221l2.697-2.603
						C279.45,104.157,283.805,104.081,288.156,104.08"/>
				</g>
			</g>
			<g>
				<defs>
					<path id="SVGID_55_" d="M285.566,122.58l-2.69,2.604c-3.349,0.028-6.7,0.099-10.042,0.208l2.689-2.604
						C278.867,122.68,282.218,122.608,285.566,122.58z"/>
				</defs>
				<use xlink:href="#SVGID_55_"  overflow="visible" fill="#9A5853"/>
				<clipPath id="SVGID_56_">
					<use xlink:href="#SVGID_55_"  overflow="visible"/>
				</clipPath>
				<g clip-path="url(#SVGID_56_)" enable-background="new    ">
					<path fill="#9A5853" d="M285.566,122.58l-2.69,2.604c-3.349,0.028-6.7,0.099-10.042,0.208l2.689-2.604
						C278.867,122.68,282.218,122.608,285.566,122.58"/>
				</g>
			</g>
			<g>
				<defs>
					<path id="SVGID_57_" d="M289.92,142.696l-2.688,2.604c-7.253,0.021-14.482,0.21-21.72,0.551l2.688-2.604
						C275.439,142.906,282.667,142.716,289.92,142.696z"/>
				</defs>
				<use xlink:href="#SVGID_57_"  overflow="visible" fill="#9A5853"/>
				<clipPath id="SVGID_58_">
					<use xlink:href="#SVGID_57_"  overflow="visible"/>
				</clipPath>
				<g clip-path="url(#SVGID_58_)" enable-background="new    ">
					<path fill="#9A5853" d="M289.92,142.696l-2.688,2.604c-7.253,0.021-14.482,0.21-21.72,0.551l2.688-2.604
						C275.439,142.906,282.667,142.716,289.92,142.696"/>
				</g>
			</g>
		</g>
		<g>
			<g enable-background="new    ">
				<defs>
					<path id="SVGID_59_" enable-background="new    " d="M15.561,141.633c0.894-0.868,1.795-1.735,2.689-2.604
						c0.635-0.616,1.575-0.936,2.912-0.971c0.093-0.005,0.185-0.006,0.272-0.006c2.927,0.009,3.91,1.599,3.986,4.899
						c0.177,7.672,0.351,15.341,0.525,23.015l-2.689,2.604c-0.175-7.674-0.353-15.343-0.525-23.017
						c-0.076-3.298-1.062-4.888-3.988-4.894c-0.085-0.004-0.178,0-0.271,0.003C17.136,140.701,16.194,141.018,15.561,141.633z"/>
				</defs>
				<use xlink:href="#SVGID_59_"  overflow="visible" fill="#C05D52"/>
				<clipPath id="SVGID_60_">
					<use xlink:href="#SVGID_59_"  overflow="visible"/>
				</clipPath>
				<g clip-path="url(#SVGID_60_)" enable-background="new    ">
					<path fill="#C05D52" d="M25.945,165.966l-2.689,2.604c-0.175-7.674-0.353-15.343-0.525-23.017
						c-0.076-3.298-1.062-4.888-3.988-4.894c-0.085-0.004-0.178,0-0.271,0.003c-1.336,0.038-2.278,0.355-2.912,0.971l2.689-2.604
						c0.635-0.616,1.575-0.936,2.912-0.971c0.093-0.005,0.185-0.006,0.272-0.006c2.927,0.009,3.91,1.599,3.986,4.899
						C25.597,150.624,25.77,158.292,25.945,165.966"/>
				</g>
			</g>
			<g>
				<defs>
					<path id="SVGID_61_" d="M30.311,174.612c-0.896,0.867-1.791,1.734-2.688,2.603c-2.075,2.009-4.952,3.219-8.239,3.315
						c-0.149,0.003-0.299,0.008-0.445,0.008c-6.582-0.02-11.668-4.731-11.75-11.485c-0.18-7.797-0.36-15.597-0.536-23.394
						c-0.116-3.502,1.131-6.412,3.25-8.465l0,0c0.897-0.867,1.795-1.734,2.692-2.603c-2.123,2.054-3.367,4.963-3.252,8.465
						c0.175,7.799,0.36,15.597,0.535,23.396c0.085,6.754,5.167,11.464,11.749,11.479c0.146,0.001,0.297-0.002,0.449-0.005
						C25.361,177.829,28.236,176.619,30.311,174.612z"/>
				</defs>
				<use xlink:href="#SVGID_61_"  overflow="visible" fill="#9A5853"/>
				<clipPath id="SVGID_62_">
					<use xlink:href="#SVGID_61_"  overflow="visible"/>
				</clipPath>
				<g clip-path="url(#SVGID_62_)" enable-background="new    ">
					<path fill="#9A5853" d="M30.311,174.612l-2.688,2.603c-2.075,2.009-4.952,3.219-8.239,3.315
						c-0.149,0.003-0.299,0.008-0.445,0.008c-6.582-0.02-11.668-4.731-11.75-11.485c-0.18-7.797-0.36-15.597-0.536-23.394
						c-0.116-3.502,1.131-6.412,3.25-8.465l2.692-2.603c-2.123,2.054-3.367,4.963-3.252,8.465c0.175,7.799,0.36,15.597,0.535,23.396
						c0.085,6.754,5.167,11.464,11.749,11.479c0.146,0.001,0.297-0.002,0.449-0.005C25.361,177.829,28.236,176.619,30.311,174.612"
						/>
				</g>
			</g>
			<g enable-background="new    ">
				<defs>
					<path id="SVGID_63_" enable-background="new    " d="M56.61,155.491l-2.689,2.602c-0.204-8.657-0.396-17.313-0.597-25.971
						l2.694-2.601C56.214,138.177,56.414,146.833,56.61,155.491z"/>
				</defs>
				<use xlink:href="#SVGID_63_"  overflow="visible" fill="#C05D52"/>
				<clipPath id="SVGID_64_">
					<use xlink:href="#SVGID_63_"  overflow="visible"/>
				</clipPath>
				<g clip-path="url(#SVGID_64_)" enable-background="new    ">
					<path fill="#C05D52" d="M56.61,155.491l-2.689,2.602c-0.204-8.657-0.396-17.313-0.597-25.971l2.694-2.601
						C56.214,138.177,56.414,146.833,56.61,155.491"/>
				</g>
			</g>
			<g enable-background="new    ">
				<defs>
					<path id="SVGID_65_" enable-background="new    " d="M57.304,174.899l-2.689,2.602c-3.525-9.139-7.044-18.281-10.549-27.424
						l2.692-2.604C50.265,156.618,53.781,165.755,57.304,174.899z"/>
				</defs>
				<use xlink:href="#SVGID_65_"  overflow="visible" fill="#C05D52"/>
				<clipPath id="SVGID_66_">
					<use xlink:href="#SVGID_65_"  overflow="visible"/>
				</clipPath>
				<g clip-path="url(#SVGID_66_)" enable-background="new    ">
					<path fill="#C05D52" d="M57.304,174.899l-2.689,2.602c-3.525-9.139-7.044-18.281-10.549-27.424l2.692-2.604
						C50.265,156.618,53.781,165.755,57.304,174.899"/>
				</g>
			</g>
			<g enable-background="new    ">
				<defs>
					<path id="SVGID_67_" enable-background="new    " d="M40.251,176.389l-2.688,2.604c-0.345-15.134-0.696-30.27-1.037-45.405
						l2.693-2.603C39.565,146.12,39.906,161.255,40.251,176.389z"/>
				</defs>
				<use xlink:href="#SVGID_67_"  overflow="visible" fill="#C05D52"/>
				<clipPath id="SVGID_68_">
					<use xlink:href="#SVGID_67_"  overflow="visible"/>
				</clipPath>
				<g clip-path="url(#SVGID_68_)" enable-background="new    ">
					<path fill="#C05D52" d="M40.251,176.389l-2.688,2.604c-0.345-15.134-0.696-30.27-1.037-45.405l2.693-2.603
						C39.565,146.12,39.906,161.255,40.251,176.389"/>
				</g>
			</g>
			<g enable-background="new    ">
				<defs>
					<path id="SVGID_69_" enable-background="new    " d="M68.951,134.847l-2.689,2.604c-0.063-2.718-0.096-4.077-0.156-6.795
						l2.691-2.602C68.861,130.771,68.891,132.13,68.951,134.847z"/>
				</defs>
				<use xlink:href="#SVGID_69_"  overflow="visible" fill="#C05D52"/>
				<clipPath id="SVGID_70_">
					<use xlink:href="#SVGID_69_"  overflow="visible"/>
				</clipPath>
				<g clip-path="url(#SVGID_70_)" enable-background="new    ">
					<path fill="#C05D52" d="M68.951,134.847l-2.689,2.604c-0.063-2.718-0.096-4.077-0.156-6.795l2.691-2.602
						C68.861,130.771,68.891,132.13,68.951,134.847"/>
				</g>
			</g>
			<g enable-background="new    ">
				<defs>
					<path id="SVGID_71_" enable-background="new    " d="M113.851,139.695l-2.694,2.603c-0.137-6.164-0.279-12.327-0.421-18.491
						l2.688-2.604C113.568,127.366,113.709,133.531,113.851,139.695z"/>
				</defs>
				<use xlink:href="#SVGID_71_"  overflow="visible" fill="#C05D52"/>
				<clipPath id="SVGID_72_">
					<use xlink:href="#SVGID_71_"  overflow="visible"/>
				</clipPath>
				<g clip-path="url(#SVGID_72_)" enable-background="new    ">
					<path fill="#C05D52" d="M113.851,139.695l-2.694,2.603c-0.137-6.164-0.279-12.327-0.421-18.491l2.688-2.604
						C113.568,127.366,113.709,133.531,113.851,139.695"/>
				</g>
			</g>
			<g enable-background="new    ">
				<defs>
					<path id="SVGID_73_" enable-background="new    " d="M98.446,169.316l-2.691,2.604c-0.345-15.135-0.692-30.268-1.035-45.403
						l2.688-2.603C97.753,139.049,98.103,154.182,98.446,169.316z"/>
				</defs>
				<use xlink:href="#SVGID_73_"  overflow="visible" fill="#C05D52"/>
				<clipPath id="SVGID_74_">
					<use xlink:href="#SVGID_73_"  overflow="visible"/>
				</clipPath>
				<g clip-path="url(#SVGID_74_)" enable-background="new    ">
					<path fill="#C05D52" d="M98.446,169.316l-2.691,2.604c-0.345-15.135-0.692-30.268-1.035-45.403l2.688-2.603
						C97.753,139.049,98.103,154.182,98.446,169.316"/>
				</g>
			</g>
			<g enable-background="new    ">
				<defs>
					<path id="SVGID_75_" enable-background="new    " d="M128.481,164.089l-2.694,2.604c-0.345-15.137-0.69-30.27-1.036-45.403
						l2.692-2.605C127.786,133.824,128.134,148.953,128.481,164.089z"/>
				</defs>
				<use xlink:href="#SVGID_75_"  overflow="visible" fill="#C05D52"/>
				<clipPath id="SVGID_76_">
					<use xlink:href="#SVGID_75_"  overflow="visible"/>
				</clipPath>
				<g clip-path="url(#SVGID_76_)" enable-background="new    ">
					<path fill="#C05D52" d="M128.481,164.089l-2.694,2.604c-0.345-15.137-0.69-30.27-1.036-45.403l2.692-2.605
						C127.786,133.824,128.134,148.953,128.481,164.089"/>
				</g>
			</g>
			<g enable-background="new    ">
				<defs>
					<path id="SVGID_77_" enable-background="new    " d="M156.246,158.906l-2.689,2.604c-0.342-15.134-0.688-30.27-1.035-45.405
						l2.688-2.604C155.56,128.636,155.903,143.774,156.246,158.906z"/>
				</defs>
				<use xlink:href="#SVGID_77_"  overflow="visible" fill="#C05D52"/>
				<clipPath id="SVGID_78_">
					<use xlink:href="#SVGID_77_"  overflow="visible"/>
				</clipPath>
				<g clip-path="url(#SVGID_78_)" enable-background="new    ">
					<path fill="#C05D52" d="M156.246,158.906l-2.689,2.604c-0.342-15.134-0.688-30.27-1.035-45.405l2.688-2.604
						C155.56,128.636,155.903,143.774,156.246,158.906"/>
				</g>
			</g>
			<g enable-background="new    ">
				<defs>
					<path id="SVGID_79_" enable-background="new    " d="M182.768,154.038l-2.689,2.604c-0.338-15.136-0.686-30.271-1.036-45.403
						l2.688-2.605C182.084,123.767,182.43,138.903,182.768,154.038z"/>
				</defs>
				<use xlink:href="#SVGID_79_"  overflow="visible" fill="#C05D52"/>
				<clipPath id="SVGID_80_">
					<use xlink:href="#SVGID_79_"  overflow="visible"/>
				</clipPath>
				<g clip-path="url(#SVGID_80_)" enable-background="new    ">
					<path fill="#C05D52" d="M182.768,154.038l-2.689,2.604c-0.338-15.136-0.686-30.271-1.036-45.403l2.688-2.605
						C182.084,123.767,182.43,138.903,182.768,154.038"/>
				</g>
			</g>
			<g enable-background="new    ">
				<defs>
					<path id="SVGID_81_" enable-background="new    " d="M225.64,127.79l-2.694,2.604c-0.197-8.658-0.395-17.319-0.592-25.977
						l2.688-2.602C225.239,110.473,225.439,119.134,225.64,127.79z"/>
				</defs>
				<use xlink:href="#SVGID_81_"  overflow="visible" fill="#C05D52"/>
				<clipPath id="SVGID_82_">
					<use xlink:href="#SVGID_81_"  overflow="visible"/>
				</clipPath>
				<g clip-path="url(#SVGID_82_)" enable-background="new    ">
					<path fill="#C05D52" d="M225.64,127.79l-2.694,2.604c-0.197-8.658-0.395-17.319-0.592-25.977l2.688-2.602
						C225.239,110.473,225.439,119.134,225.64,127.79"/>
				</g>
			</g>
			<g enable-background="new    ">
				<defs>
					<path id="SVGID_83_" enable-background="new    " d="M209.299,149.619l-2.688,2.602c-0.347-15.135-0.691-30.27-1.041-45.405
						l2.693-2.604C208.612,119.347,208.957,134.482,209.299,149.619z"/>
				</defs>
				<use xlink:href="#SVGID_83_"  overflow="visible" fill="#C05D52"/>
				<clipPath id="SVGID_84_">
					<use xlink:href="#SVGID_83_"  overflow="visible"/>
				</clipPath>
				<g clip-path="url(#SVGID_84_)" enable-background="new    ">
					<path fill="#C05D52" d="M209.299,149.619l-2.688,2.602c-0.347-15.135-0.691-30.27-1.041-45.405l2.693-2.604
						C208.612,119.347,208.957,134.482,209.299,149.619"/>
				</g>
			</g>
			<g enable-background="new    ">
				<defs>
					<path id="SVGID_85_" enable-background="new    " d="M244.851,108.878c0.896-0.867,1.796-1.736,2.693-2.602
						c0.634-0.614,1.55-0.971,2.829-1.082c0.106-0.01,0.215-0.015,0.321-0.015c1.872,0.005,3.481,1.537,3.565,5.167
						c0.031,1.409,0.047,2.115,0.079,3.523l-2.689,2.604c-0.031-1.407-0.049-2.113-0.081-3.523c-0.084-3.628-1.692-5.16-3.564-5.165
						c-0.109-0.003-0.214,0.003-0.325,0.011C246.402,107.911,245.483,108.266,244.851,108.878z"/>
				</defs>
				<use xlink:href="#SVGID_85_"  overflow="visible" fill="#C05D52"/>
				<clipPath id="SVGID_86_">
					<use xlink:href="#SVGID_85_"  overflow="visible"/>
				</clipPath>
				<g clip-path="url(#SVGID_86_)" enable-background="new    ">
					<path fill="#C05D52" d="M254.339,113.87l-2.689,2.604c-0.031-1.407-0.049-2.113-0.081-3.523
						c-0.084-3.628-1.692-5.16-3.564-5.165c-0.109-0.003-0.214,0.003-0.325,0.011c-1.276,0.115-2.195,0.469-2.828,1.082l2.693-2.602
						c0.634-0.614,1.55-0.971,2.829-1.082c0.106-0.01,0.215-0.015,0.321-0.015c1.872,0.005,3.481,1.537,3.565,5.167
						C254.291,111.755,254.307,112.461,254.339,113.87"/>
				</g>
			</g>
			<g enable-background="new    ">
				<defs>
					<path id="SVGID_87_" enable-background="new    " d="M253.663,137.281c-0.896,0.867-1.795,1.734-2.693,2.603
						c0.855-0.829,1.166-2.148,1.124-3.917c-0.048-2.186-0.074-3.283-0.128-5.468l2.694-2.604c0.05,2.188,0.074,3.284,0.128,5.468
						C254.826,135.131,254.52,136.452,253.663,137.281z"/>
				</defs>
				<use xlink:href="#SVGID_87_"  overflow="visible" fill="#C05D52"/>
				<clipPath id="SVGID_88_">
					<use xlink:href="#SVGID_87_"  overflow="visible"/>
				</clipPath>
				<g clip-path="url(#SVGID_88_)" enable-background="new    ">
					<path fill="#C05D52" d="M253.663,137.281l-2.693,2.603c0.855-0.829,1.166-2.148,1.124-3.917
						c-0.048-2.186-0.074-3.283-0.128-5.468l2.694-2.604c0.05,2.188,0.074,3.284,0.128,5.468
						C254.826,135.131,254.52,136.452,253.663,137.281"/>
				</g>
			</g>
			<g>
				<defs>
					<path id="SVGID_89_" d="M259,141.637l-2.69,2.604c-1.977,1.91-4.652,3.142-7.717,3.425c-0.447,0.042-0.887,0.063-1.326,0.061
						c-6.033-0.013-10.79-4.051-10.847-10.515c-0.18-7.8-0.356-15.597-0.536-23.395c-0.104-3.75,1.283-6.98,3.646-9.269
						c0.897-0.866,1.797-1.735,2.693-2.604c-2.362,2.289-3.758,5.519-3.644,9.269c0.17,7.798,0.352,15.595,0.531,23.393
						c0.055,6.465,4.815,10.503,10.847,10.518c0.438,0,0.878-0.021,1.325-0.062C254.35,144.779,257.023,143.548,259,141.637z"/>
				</defs>
				<use xlink:href="#SVGID_89_"  overflow="visible" fill="#9A5853"/>
				<clipPath id="SVGID_90_">
					<use xlink:href="#SVGID_89_"  overflow="visible"/>
				</clipPath>
				<g clip-path="url(#SVGID_90_)" enable-background="new    ">
					<path fill="#9A5853" d="M259,141.637l-2.69,2.604c-1.977,1.91-4.652,3.142-7.717,3.425c-0.447,0.042-0.887,0.063-1.326,0.061
						c-6.033-0.013-10.79-4.051-10.847-10.515c-0.18-7.8-0.356-15.597-0.536-23.395c-0.104-3.75,1.283-6.98,3.646-9.269l2.693-2.604
						c-2.362,2.289-3.758,5.519-3.644,9.269c0.17,7.798,0.352,15.595,0.531,23.393c0.055,6.465,4.815,10.503,10.847,10.518
						c0.438,0,0.878-0.021,1.325-0.062C254.35,144.779,257.023,143.548,259,141.637"/>
				</g>
			</g>
			<g enable-background="new    ">
				<defs>
					<path id="SVGID_91_" enable-background="new    " d="M268.2,143.247l-2.688,2.604c-0.346-15.136-0.693-30.271-1.038-45.405
						l2.691-2.601C267.51,112.976,267.855,128.109,268.2,143.247z"/>
				</defs>
				<use xlink:href="#SVGID_91_"  overflow="visible" fill="#C05D52"/>
				<clipPath id="SVGID_92_">
					<use xlink:href="#SVGID_91_"  overflow="visible"/>
				</clipPath>
				<g clip-path="url(#SVGID_92_)" enable-background="new    ">
					<path fill="#C05D52" d="M268.2,143.247l-2.688,2.604c-0.346-15.136-0.693-30.271-1.038-45.405l2.691-2.601
						C267.51,112.976,267.855,128.109,268.2,143.247"/>
				</g>
			</g>
		</g>
		<path opacity="0.77" fill="#E95C35" d="M32.711,138.947l-3.624,3.313c0,0-0.141,18.539-0.141,25.247c0,4.021-1.092,4.9-1.092,4.9
			l2.834,1.982c0,0,3.216-3.499,2.918-7.927c-0.418-6.281-0.17-17.08-0.193-22.541C33.395,139.937,32.711,138.947,32.711,138.947z"
			/>
		<path opacity="0.77" fill="#E96449" d="M14.918,137.498l2.781,2.293c0,0-0.541,0.884-0.534,2.358
			c0.003,2.25,0.233,19.542,0.563,25.029c0.149,2.529,1.346,3.231,1.346,3.231l-2.788,2.383c0,0-2.074-1.71-2.04-6.465
			c0.039-5.094-0.325-20.208-0.325-24.526C13.921,139.283,14.918,137.498,14.918,137.498z"/>
		<path opacity="0.77" fill="#E95A3D" d="M25.366,142.121l3.09-2.477c0,0-1.21-4.357-4.333-4.853c-2.292-0.365-3.75-0.716-5.806,0
			c-3.066,1.076-3.49,2.737-3.49,2.737l2.849,2.314c0,0,0.55-0.958,1.22-1.248c1.563-0.681,3.447-0.735,4.809-0.016
			C25.22,139.38,25.366,142.121,25.366,142.121z"/>
		<path fill="#E96449" d="M244.106,104.854l2.783,2.294c0,0-0.542,0.881-0.538,2.354c0.008,2.25,0.236,19.542,0.564,25.029
			c0.15,2.53,1.349,3.231,1.349,3.231l-2.793,2.386c0,0-2.071-1.712-2.039-6.47c0.037-5.095-0.322-20.202-0.322-24.523
			C243.11,106.64,244.106,104.854,244.106,104.854z"/>
		<path fill="#E8755F" d="M248.265,137.764l-2.877,2.469c0,0,2.036,1.719,3.199,1.853c2.309,0.264,2.991,0.17,5.048-0.548
			c2.396-0.837,3.295-1.993,3.295-1.993l-3.032-2.537c0,0-0.488,0.729-1.875,1.121c-0.547,0.154-1.554,0.296-2.664,0.057
			C248.794,138.063,248.265,137.764,248.265,137.764z"/>
		<path fill="#E96449" d="M245.419,140.175l-3.032,2.23c0,0,1.277,1.446,3.914,2.161c3.058,0.829,5.88,0.903,9.692-0.841
			c3.226-1.482,6.162-5,6.496-9.256c0.191-2.419-0.052-7.135-0.052-7.135l-3.516,4.528c0,0-0.627,5.824-1.445,7.009
			c-1.513,2.201-4.883,3.228-6.014,3.296C246.751,142.448,245.419,140.175,245.419,140.175z"/>
		<path fill="#F0947D" d="M243.736,106.038l-3.071-2.25c0,0,1.54-2.482,4.499-3.94c2.439-1.203,6.629-2.364,10.438-0.617
			c3.226,1.48,5.996,4.656,6.401,9.843c0.196,2.421,0.099,4.425,0.099,4.425l-3.518-4.528c0,0-0.979-3.814-1.795-5
			c-1.512-2.204-5.852-2.346-6.984-2.414C245.095,101.277,243.736,106.038,243.736,106.038z"/>
		<path fill="#E95A3D" d="M254.339,113.87l3.67-5.146c0,0,0.154-5.729-4.731-6.899c-2.259-0.543-3.519-0.675-5.571,0.041
			c-3.071,1.076-3.688,3.016-3.688,3.016l2.842,2.315c0,0,0.665-1.111,1.327-1.42c0.902-0.418,2.425-0.703,3.893-0.229
			c1.883,0.609,2.172,4.405,2.218,6.655C254.313,113.186,254.339,113.87,254.339,113.87z"/>
		<polygon fill="#E8755F" points="230.371,141.777 229.051,141.931 226.327,147.186 233.093,146.334 		"/>
		<polygon fill="#E8755F" points="212.722,144.294 209.299,149.619 216.312,148.571 		"/>
		<polygon fill="#F0947D" points="212.617,111.542 213.879,111.291 215.46,103.138 208.263,104.211 		"/>
		<polygon fill="#F0947D" points="258.725,132.156 262.438,127.334 254.66,127.895 		"/>
		<polygon fill="#E8755F" points="258.221,108.471 254.339,113.87 262.118,113.307 		"/>
		<polygon fill="#E96449" points="232.055,100.93 228.858,107.617 230.371,141.777 233.093,146.334 		"/>
		<polygon fill="#E96449" points="215.666,120.208 212.617,111.542 212.757,144.526 216.312,148.571 		"/>
		<polygon fill="#E96449" points="225.64,127.79 230.371,141.551 229.051,141.931 		"/>
		<polygon fill="#E8755F" points="215.666,120.208 212.536,111.375 213.879,111.291 		"/>
		<polygon fill="#E96449" points="190.069,132.557 186.173,130.052 186.424,149.939 190.371,145.891 		"/>
		<polygon fill="#F0947D" points="186.005,111.654 181.73,108.633 182.768,154.038 186.431,150.077 		"/>
		<polygon fill="#F0947D" points="271.006,100.914 267.165,97.844 268.2,143.247 271.488,139.869 		"/>
		<polygon fill="#E96449" points="189.686,114.077 186.096,111.398 186.173,130.052 189.91,125.766 		"/>
		<polygon fill="#EA6444" points="198.905,148.004 204.416,150.381 204.266,143.586 		"/>
		<polygon fill="#EA6444" points="195.987,128.682 200.08,130.883 199.926,124.088 		"/>
		<polygon fill="#E95A3D" points="186.535,149.939 182.768,154.038 204.416,150.381 199.044,147.948 		"/>
		<path fill="none" stroke="#FFFFFF" stroke-width="0.6731" stroke-miterlimit="10" d="M29.204,166.398
			c0,3.719-0.465,7.279-6.584,8.308c-0.538,0.092-1.411,0.065-2.169-0.063c-3.83-0.635-6.14-2.774-6.14-7.4l-0.397-23.753
			c0-3.718,0.057-8.053,5.45-9c0.643-0.113,2.606-0.059,2.606-0.059c4.513,0.051,6.755,3.178,6.755,6.896L29.204,166.398z"/>
		<polygon fill="#E96449" points="275.523,122.787 271.093,119.592 271.402,139.842 275.83,136.123 		"/>
		<polygon fill="#E96449" points="275.104,104.301 270.819,100.768 271.093,119.592 275.369,115.999 		"/>
		<polygon fill="#EA6444" points="284.053,139.603 289.92,142.696 289.767,135.905 		"/>
		<polygon fill="#EA6444" points="281.148,119.282 285.566,122.58 285.411,115.791 		"/>
		<polygon fill="#EA6444" points="283.519,100.353 288.156,104.08 288.006,97.29 		"/>
		<path fill="#E95A3D" d="M271.554,139.77l-3.354,3.477c0,0,8.367-0.312,11.138-0.384c2.658-0.068,10.582-0.167,10.582-0.167
			l-5.867-3.093L271.554,139.77z"/>
		<path fill="#E95A3D" d="M270.955,100.829l4.148,3.472c0,0,3.593-0.064,6.367-0.134c2.657-0.067,6.686-0.087,6.686-0.087
			l-4.571-3.698L270.955,100.829z"/>
		<polygon fill="#EA6444" points="198.035,109.44 202.661,111.91 202.506,105.115 		"/>
		<polygon fill="#E95A3D" points="185.845,111.458 189.686,114.077 202.661,111.91 198.171,109.461 		"/>
		<polygon fill="#E95A3D" points="186.239,130.151 190.111,132.58 200.08,130.883 195.987,128.682 		"/>
		<polygon fill="#E95A3D" points="163.545,137.335 159.947,134.387 160.118,154.074 164.005,157.458 		"/>
		<polygon fill="#E96449" points="163.125,118.846 159.699,115.741 160.118,134.47 163.387,130.542 		"/>
		<polygon fill="#EA6444" points="156.246,158.906 164.005,157.458 160.158,153.864 		"/>
		<polygon fill="#EA6444" points="98.446,169.316 106.208,168.033 101.979,165.196 		"/>
		<polygon fill="#EA6444" points="114.463,166.612 122.223,165.228 118.44,161.773 		"/>
		<polygon fill="#E95A3D" points="169.738,133.06 173.931,135.421 173.771,128.628 		"/>
		<polygon fill="#EA6444" points="172.591,113.835 177.011,116.294 176.854,109.503 		"/>
		<polygon fill="#E95A3D" points="159.699,115.741 163.125,118.846 177.011,116.294 172.591,113.835 		"/>
		<polygon fill="#E96449" points="160.02,134.456 163.545,137.335 173.931,135.421 170.411,133.06 		"/>
		<polygon fill="#E96449" points="101.896,145.254 105.822,147.948 114.001,146.486 118.247,142.842 		"/>
		<polygon fill="#E95A3D" points="215.46,103.138 213.879,111.291 229.307,141.718 225.513,127.806 		"/>
		<polygon fill="#F0947D" points="43.012,137.178 44.765,136.938 46.43,130.426 39.219,130.985 		"/>
		<polygon fill="#F0947D" points="59.815,135.846 63.036,128.75 56.018,129.521 		"/>
		<polygon fill="#E96449" points="63.036,128.75 59.911,135.548 61.426,169.708 64.073,174.152 		"/>
		<polygon fill="#E96449" points="46.63,147.481 43.279,137.205 43.813,172.458 47.278,175.845 		"/>
		<polygon fill="#E96449" points="56.486,155.505 61.26,169.667 60.104,169.865 		"/>
		<polygon fill="#E8755F" points="46.63,147.481 43.252,137.289 44.627,137.036 		"/>
		<polygon fill="#E95A3D" points="46.43,130.426 44.683,137.289 60.361,169.654 56.486,155.505 		"/>
		<g>
			<polyline fill="none" stroke="#FFFFFF" stroke-width="0.6731" stroke-miterlimit="10" points="284.053,100.353 270.881,100.838 
				271.392,139.906 284.469,139.56 			"/>
			
				<line fill="none" stroke="#FFFFFF" stroke-width="0.6731" stroke-miterlimit="10" x1="271.214" y1="119.528" x2="281.695" y2="119.199"/>
		</g>
		<g>
			<polyline fill="none" stroke="#FFFFFF" stroke-width="0.6731" stroke-miterlimit="10" points="198.359,109.41 185.951,111.457 
				186.424,150.002 199.213,147.879 			"/>
			
				<line fill="none" stroke="#FFFFFF" stroke-width="0.6731" stroke-miterlimit="10" x1="186.451" y1="130.052" x2="196.419" y2="128.608"/>
		</g>
		<polygon fill="#E96449" points="135.781,142.588 131.988,139.724 132.243,159.607 136.081,155.868 		"/>
		<polygon fill="#E95C35" points="105.746,147.909 101.727,145.198 101.937,165.348 106.208,168.033 		"/>
		<polygon fill="#E95C35" points="121.187,119.824 117.877,124.13 118.47,161.94 122.223,165.228 		"/>
		<polygon fill="#F0947D" points="144.018,119.031 148.204,114.815 127.443,118.685 131.848,121.218 		"/>
		<polygon fill="#E96449" points="135.355,124.046 131.912,121.068 131.988,139.724 135.623,135.743 		"/>
		<polygon fill="#E96449" points="105.167,122.628 101.388,127.825 101.727,145.198 105.59,141.118 		"/>
		<polygon fill="#EA6444" points="144.638,157.608 150.12,160.059 149.965,153.264 		"/>
		<polygon fill="#EA6444" points="141.803,138.352 145.781,140.663 145.628,133.868 		"/>
		<polygon fill="#E95A3D" points="132.351,159.607 128.481,164.089 150.12,160.059 144.859,157.617 		"/>
		<polygon fill="#EA6444" points="143.852,119.11 148.365,121.609 148.204,114.815 		"/>
		<polygon fill="#E95A3D" points="131.657,121.127 135.355,124.046 148.365,121.609 143.984,119.13 		"/>
		<polygon fill="#E95A3D" points="132.058,139.821 135.781,142.588 145.781,140.663 141.803,138.352 		"/>
		<g>
			<polyline fill="none" stroke="#FFFFFF" stroke-width="0.6731" stroke-miterlimit="10" points="144.177,119.079 131.765,121.125 
				132.243,159.671 145.028,157.55 			"/>
			
				<line fill="none" stroke="#FFFFFF" stroke-width="0.6731" stroke-miterlimit="10" x1="132.269" y1="139.724" x2="142.229" y2="138.275"/>
		</g>
		<polygon fill="#EA6444" points="88.896,129.043 91.744,131.627 91.587,124.838 		"/>
		<polygon fill="#EA6444" points="68.797,128.055 68.951,134.847 72.636,131.23 		"/>
		<polygon fill="#EA6444" points="81.449,167.872 77.35,172.476 85.112,171.378 		"/>
		<g>
			<polygon fill="#E95C35" points="84.233,132.764 80.796,130.2 81.385,167.893 85.112,171.378 			"/>
		</g>
		<g>
			<polygon fill="#E96449" points="91.744,131.627 88.896,129.043 80.631,130.354 84.233,132.764 			"/>
		</g>
		<g>
			<polygon fill="#E96449" points="68.914,134.891 72.636,131.23 80.796,130.326 76.422,133.881 			"/>
		</g>
		<polygon fill="#F0947D" points="88.896,129.043 91.587,124.838 68.797,128.055 72.699,131.259 		"/>
		<polygon fill="#F0947D" points="105.167,122.628 97.408,123.914 101.388,127.825 		"/>
		<polygon fill="#F0947D" points="118.215,142.672 113.851,139.695 105.59,141.118 101.6,145.41 		"/>
		<polygon fill="#F0947D" points="121.187,119.824 113.424,121.203 117.963,124.626 		"/>
		<polygon fill="#F0947D" points="172.591,113.835 176.854,109.503 155.21,113.5 159.699,115.741 		"/>
		<g>
			<path fill="none" stroke="#FFFFFF" stroke-width="0.669" stroke-miterlimit="10" d="M72.347,131.209c0,0,4.487-0.486,8.188-0.998
				c3.808-0.529,8.608-1.269,8.608-1.269"/>
			
				<line fill="none" stroke="#FFFFFF" stroke-width="0.669" stroke-miterlimit="10" x1="80.857" y1="130.188" x2="81.471" y2="168.272"/>
		</g>
		<g>
			<polyline fill="none" stroke="#FFFFFF" stroke-width="0.6731" stroke-miterlimit="10" points="172.71,113.646 159.699,115.741 
				160.173,154.29 			"/>
			
				<line fill="none" stroke="#FFFFFF" stroke-width="0.6731" stroke-miterlimit="10" x1="160.202" y1="134.337" x2="170.169" y2="132.889"/>
		</g>
		<g>
			<g>
				
					<line fill="none" stroke="#FFFFFF" stroke-width="0.6731" stroke-miterlimit="10" x1="101.385" y1="127.494" x2="101.998" y2="165.581"/>
			</g>
			<g>
				
					<line fill="none" stroke="#FFFFFF" stroke-width="0.6731" stroke-miterlimit="10" x1="117.877" y1="124.13" x2="118.49" y2="162.214"/>
			</g>
			
				<line fill="none" stroke="#FFFFFF" stroke-width="0.6731" stroke-miterlimit="10" x1="101.59" y1="145.254" x2="118.134" y2="142.785"/>
		</g>
		<polyline fill="none" stroke="#FFFFFF" stroke-width="0.6731" stroke-miterlimit="10" points="228.688,107.224 230.078,141.79 
			229.051,141.931 213.89,111.203 212.536,111.375 212.733,144.796 		"/>
		<polyline fill="none" stroke="#FFFFFF" stroke-width="0.6731" stroke-miterlimit="10" points="59.743,135.157 61.13,169.724 
			60.104,169.865 44.606,137.117 43.252,137.289 43.789,172.727 		"/>
		<path fill="none" stroke="#FFFFFF" stroke-width="0.6731" stroke-miterlimit="10" d="M258.179,108.934
			c0-4.414-2.524-7.657-7.741-7.488c-7.04,0.228-7.443,6.252-7.352,10.377c0.211,9.325,0.428,14.738,0.643,24.062
			c0.084,3.805,2.9,6.322,6.049,6.283c9.37-0.112,9.001-6.895,8.919-10.49"/>
	</g>
</g>
</svg>
