<?xml version="1.0" encoding="utf-8"?>
<!-- Generator: Adobe Illustrator 16.0.0, SVG Export Plug-In . SVG Version: 6.00 Build 0)  -->
<!DOCTYPE svg PUBLIC "-//W3C//DTD SVG 1.1//EN" "http://www.w3.org/Graphics/SVG/1.1/DTD/svg11.dtd">
<svg version="1.1" id="Layer_1" xmlns="http://www.w3.org/2000/svg" xmlns:xlink="http://www.w3.org/1999/xlink" x="0px" y="0px"
	 width="45px" height="40px" viewBox="0 0 45 40" enable-background="new 0 0 45 40" xml:space="preserve">
<g>
	<g>
		<g>
			
				<linearGradient id="SVGID_1_" gradientUnits="userSpaceOnUse" x1="-87.334" y1="2552.3076" x2="-69.5952" y2="2602.8169" gradientTransform="matrix(-1 0 0 -1 -59.4141 2589.9902)">
				<stop  offset="0" style="stop-color:#CA9C57"/>
				<stop  offset="0.0627" style="stop-color:#BC8F50"/>
				<stop  offset="0.2463" style="stop-color:#996F3F"/>
				<stop  offset="0.4322" style="stop-color:#7D5631"/>
				<stop  offset="0.619" style="stop-color:#6A4428"/>
				<stop  offset="0.8074" style="stop-color:#5E3A22"/>
				<stop  offset="1" style="stop-color:#5A3620"/>
			</linearGradient>
			<path fill="url(#SVGID_1_)" d="M1.271,32.063c-3.67-8.427,6.458-22.916,18.557-28.296c12.036-5.355,19.794-0.972,23.467,7.456
				c3.671,8.43-3.954,17.477-15.99,22.832C15.204,39.436,4.944,40.493,1.271,32.063z"/>
		</g>
		<g>
			
				<radialGradient id="SVGID_2_" cx="25.2412" cy="19.5298" r="33.1036" gradientTransform="matrix(0.6639 0.7479 -0.7479 0.6639 23.0899 -12.312)" gradientUnits="userSpaceOnUse">
				<stop  offset="0" style="stop-color:#FFFFFF"/>
				<stop  offset="0.1351" style="stop-color:#F5F1ED"/>
				<stop  offset="0.4053" style="stop-color:#DACEBF"/>
				<stop  offset="0.7818" style="stop-color:#AF9676"/>
				<stop  offset="1" style="stop-color:#957348"/>
			</radialGradient>
			<path fill="url(#SVGID_2_)" d="M13.271,38.948c-4.986,0-8.411-2.059-10.179-6.12c-3.723-8.546,6.749-22.28,17.614-27.113
				c3.345-1.488,6.486-2.243,9.335-2.243c5.949,0,10.688,3.359,13.346,9.459c3.336,7.661-2.783,16.524-15.226,22.057
				C22.256,37.616,17.246,38.948,13.271,38.948z"/>
			<path fill="#371D13" d="M30.041,4.18c6.122,0,10.333,3.606,12.698,9.034c3.39,7.785-3.694,16.161-14.865,21.127
				c-5.435,2.418-10.47,3.898-14.603,3.898c-4.403,0-7.781-1.68-9.53-5.694C0.35,24.763,9.765,11.355,20.993,6.362
				C24.371,4.859,27.386,4.181,30.041,4.18 M30.042,2.765V4.18V2.765h-0.002c-2.95,0-6.188,0.775-9.623,2.304
				C9.033,10.132-1.498,24.066,2.442,33.111c1.865,4.281,5.609,6.545,10.828,6.545c4.075,0,9.182-1.354,15.178-4.021
				c12.827-5.702,19.09-14.94,15.587-22.985C41.258,6.275,36.288,2.765,30.042,2.765L30.042,2.765z"/>
		</g>
		
			<radialGradient id="SVGID_3_" cx="-779.5112" cy="2266.6777" r="17.1551" gradientTransform="matrix(-0.9153 0.4028 -0.4028 -0.9153 222.3194 2409.5793)" gradientUnits="userSpaceOnUse">
			<stop  offset="0" style="stop-color:#34455F"/>
			<stop  offset="0.1102" style="stop-color:#373F59"/>
			<stop  offset="0.4724" style="stop-color:#3F3047"/>
			<stop  offset="1" style="stop-color:#311A11"/>
		</radialGradient>
		<path fill="url(#SVGID_3_)" d="M5.225,31.425c-3.2-7.268,5.59-19.745,16.1-24.37c10.458-4.603,17.204-0.819,20.404,6.448
			c3.197,7.271-3.419,15.059-13.879,19.662C17.341,37.792,8.422,38.694,5.225,31.425z"/>
		
			<radialGradient id="SVGID_4_" cx="-787.7964" cy="2267.4834" r="8.9118" fx="-787.9553" fy="2267.6348" gradientTransform="matrix(-0.9153 0.4028 -0.4028 -0.9153 222.3194 2409.5793)" gradientUnits="userSpaceOnUse">
			<stop  offset="0" style="stop-color:#477962"/>
			<stop  offset="0.2344" style="stop-color:#4A675E"/>
			<stop  offset="0.7003" style="stop-color:#523A53"/>
			<stop  offset="1" style="stop-color:#57194B"/>
		</radialGradient>
		<path opacity="0.58" fill="url(#SVGID_4_)" d="M5.225,31.425c-3.2-7.268,5.59-19.745,16.1-24.37
			c10.458-4.603,17.204-0.819,20.404,6.448c3.197,7.271-3.419,15.059-13.879,19.662C17.341,37.792,8.422,38.694,5.225,31.425z"/>
		
			<radialGradient id="SVGID_5_" cx="425.2227" cy="2565.1172" r="5.6553" gradientTransform="matrix(1 0 0 -1 -399.5625 2589.9902)" gradientUnits="userSpaceOnUse">
			<stop  offset="0" style="stop-color:#477962"/>
			<stop  offset="0.274" style="stop-color:#406756"/>
			<stop  offset="0.819" style="stop-color:#2D3A36"/>
			<stop  offset="1" style="stop-color:#26292A"/>
		</radialGradient>
		<path opacity="0.58" fill="url(#SVGID_5_)" d="M5.225,31.425c-3.2-7.268,5.59-19.745,16.1-24.37
			c10.458-4.603,17.204-0.819,20.404,6.448c3.197,7.271-3.419,15.059-13.879,19.662C17.341,37.792,8.422,38.694,5.225,31.425z"/>
		
			<radialGradient id="SVGID_6_" cx="414.9033" cy="2566.3906" r="8.1605" gradientTransform="matrix(1 0 0 -1 -399.5625 2589.9902)" gradientUnits="userSpaceOnUse">
			<stop  offset="0" style="stop-color:#477962"/>
			<stop  offset="0.2208" style="stop-color:#3E6755"/>
			<stop  offset="0.6594" style="stop-color:#273A33"/>
			<stop  offset="1" style="stop-color:#131216"/>
		</radialGradient>
		<path opacity="0.58" fill="url(#SVGID_6_)" d="M5.225,31.425c-3.2-7.268,5.59-19.745,16.1-24.37
			c10.458-4.603,17.204-0.819,20.404,6.448c3.197,7.271-3.419,15.059-13.879,19.662C17.341,37.792,8.422,38.694,5.225,31.425z"/>
		
			<radialGradient id="SVGID_7_" cx="417.4541" cy="2556.0752" r="4.3093" gradientTransform="matrix(1 0 0 -1 -399.5625 2589.9902)" gradientUnits="userSpaceOnUse">
			<stop  offset="0" style="stop-color:#477962"/>
			<stop  offset="0.2208" style="stop-color:#3E6755"/>
			<stop  offset="0.6594" style="stop-color:#273A33"/>
			<stop  offset="1" style="stop-color:#131216"/>
		</radialGradient>
		<path opacity="0.58" fill="url(#SVGID_7_)" d="M5.225,31.425c-3.2-7.268,5.59-19.745,16.1-24.37
			c10.458-4.603,17.204-0.819,20.404,6.448c3.197,7.271-3.419,15.059-13.879,19.662C17.341,37.792,8.422,38.694,5.225,31.425z"/>
		
			<radialGradient id="SVGID_8_" cx="423.3115" cy="2576.5791" r="3.8544" gradientTransform="matrix(1 0 0 -1 -399.5625 2589.9902)" gradientUnits="userSpaceOnUse">
			<stop  offset="0" style="stop-color:#477962"/>
			<stop  offset="0.2208" style="stop-color:#3E6755"/>
			<stop  offset="0.6594" style="stop-color:#273A33"/>
			<stop  offset="1" style="stop-color:#131216"/>
		</radialGradient>
		<path opacity="0.58" fill="url(#SVGID_8_)" d="M5.225,31.425c-3.2-7.268,5.59-19.745,16.1-24.37
			c10.458-4.603,17.204-0.819,20.404,6.448c3.197,7.271-3.419,15.059-13.879,19.662C17.341,37.792,8.422,38.694,5.225,31.425z"/>
		
			<radialGradient id="SVGID_9_" cx="427.3896" cy="2572.6318" r="14.152" gradientTransform="matrix(1 0 0 -1 -399.5625 2589.9902)" gradientUnits="userSpaceOnUse">
			<stop  offset="0" style="stop-color:#FFFFFF"/>
			<stop  offset="0.3649" style="stop-color:#9EA49F"/>
			<stop  offset="0.6725" style="stop-color:#545E55"/>
			<stop  offset="0.8909" style="stop-color:#263328"/>
			<stop  offset="1" style="stop-color:#142216"/>
		</radialGradient>
		<path opacity="0.22" fill="url(#SVGID_9_)" d="M5.229,31.425c-3.196-7.268,5.594-19.745,16.104-24.37
			c10.455-4.603,17.205-0.819,20.402,6.448c3.199,7.271-3.417,15.059-13.876,19.662C17.348,37.792,8.432,38.694,5.229,31.425z"/>
		
			<radialGradient id="SVGID_10_" cx="427.292" cy="2573.9053" r="17.4074" gradientTransform="matrix(1 0 0 -1 -399.5625 2589.9902)" gradientUnits="userSpaceOnUse">
			<stop  offset="0" style="stop-color:#FFFFFF"/>
			<stop  offset="0.0992" style="stop-color:#EDF6F3"/>
			<stop  offset="0.2974" style="stop-color:#BFE0D4"/>
			<stop  offset="0.5741" style="stop-color:#76BBA1"/>
			<stop  offset="0.5767" style="stop-color:#75BBA1"/>
			<stop  offset="0.8589" style="stop-color:#3B6084"/>
			<stop  offset="1" style="stop-color:#55382E"/>
		</radialGradient>
		<path opacity="0.58" fill="url(#SVGID_10_)" d="M5.225,31.425c-3.2-7.268,5.59-19.745,16.1-24.37
			c10.458-4.603,17.204-0.819,20.404,6.448c3.197,7.271-3.419,15.059-13.879,19.662C17.341,37.792,8.422,38.694,5.225,31.425z"/>
	</g>
	<g>
		<circle fill="#392116" cx="15.016" cy="31.701" r="1.651"/>
		
			<radialGradient id="SVGID_11_" cx="15.0161" cy="2558.7158" r="1.1648" gradientTransform="matrix(1 0 0 -1 0 2589.9902)" gradientUnits="userSpaceOnUse">
			<stop  offset="0" style="stop-color:#FFFFFF"/>
			<stop  offset="0.1351" style="stop-color:#F5F1ED"/>
			<stop  offset="0.4053" style="stop-color:#DACEBF"/>
			<stop  offset="0.7818" style="stop-color:#AF9676"/>
			<stop  offset="1" style="stop-color:#957348"/>
		</radialGradient>
		<circle fill="url(#SVGID_11_)" cx="15.016" cy="31.275" r="1.165"/>
	</g>
	<g>
		<circle fill="#392116" cx="10.77" cy="30.285" r="1.651"/>
		
			<radialGradient id="SVGID_12_" cx="10.7695" cy="2560.1309" r="1.1653" gradientTransform="matrix(1 0 0 -1 0 2589.9902)" gradientUnits="userSpaceOnUse">
			<stop  offset="0" style="stop-color:#FFFFFF"/>
			<stop  offset="0.1351" style="stop-color:#F5F1ED"/>
			<stop  offset="0.4053" style="stop-color:#DACEBF"/>
			<stop  offset="0.7818" style="stop-color:#AF9676"/>
			<stop  offset="1" style="stop-color:#957348"/>
		</radialGradient>
		<circle fill="url(#SVGID_12_)" cx="10.769" cy="29.859" r="1.165"/>
	</g>
	<g>
		<circle fill="#392116" cx="20.678" cy="30.285" r="1.652"/>
		
			<radialGradient id="SVGID_13_" cx="20.6777" cy="2560.1309" r="1.1653" gradientTransform="matrix(1 0 0 -1 0 2589.9902)" gradientUnits="userSpaceOnUse">
			<stop  offset="0" style="stop-color:#FFFFFF"/>
			<stop  offset="0.1351" style="stop-color:#F5F1ED"/>
			<stop  offset="0.4053" style="stop-color:#DACEBF"/>
			<stop  offset="0.7818" style="stop-color:#AF9676"/>
			<stop  offset="1" style="stop-color:#957348"/>
		</radialGradient>
		<circle fill="url(#SVGID_13_)" cx="20.678" cy="29.859" r="1.165"/>
	</g>
	<g>
		<circle fill="#392116" cx="26.34" cy="27.453" r="1.651"/>
		
			<radialGradient id="SVGID_14_" cx="26.3398" cy="2562.9629" r="1.1646" gradientTransform="matrix(1 0 0 -1 0 2589.9902)" gradientUnits="userSpaceOnUse">
			<stop  offset="0" style="stop-color:#FFFFFF"/>
			<stop  offset="0.1351" style="stop-color:#F5F1ED"/>
			<stop  offset="0.4053" style="stop-color:#DACEBF"/>
			<stop  offset="0.7818" style="stop-color:#AF9676"/>
			<stop  offset="1" style="stop-color:#957348"/>
		</radialGradient>
		<circle fill="url(#SVGID_14_)" cx="26.34" cy="27.027" r="1.164"/>
	</g>
</g>
</svg>
