<?xml version="1.0" encoding="utf-8"?>
<!-- Generator: Adobe Illustrator 16.0.0, SVG Export Plug-In . SVG Version: 6.00 Build 0)  -->
<!DOCTYPE svg PUBLIC "-//W3C//DTD SVG 1.1//EN" "http://www.w3.org/Graphics/SVG/1.1/DTD/svg11.dtd">
<svg version="1.1" id="Layer_1" xmlns="http://www.w3.org/2000/svg" xmlns:xlink="http://www.w3.org/1999/xlink" x="0px" y="0px"
	 width="75px" height="95.102px" viewBox="12.5 0 75 95.102" enable-background="new 12.5 0 75 95.102" xml:space="preserve">
<g id="Layer_1_1_">
</g>
<linearGradient id="SVGID_1_" gradientUnits="userSpaceOnUse" x1="269.8613" y1="-256.0508" x2="342.4111" y2="-256.0508" gradientTransform="matrix(1 0 0 -1 -256 -208.5)">
	<stop  offset="0" style="stop-color:#75B8E6"/>
	<stop  offset="1" style="stop-color:#1E72B7"/>
</linearGradient>
<path fill="url(#SVGID_1_)" d="M13.862,0c0,0,2.157,43.159,0,95.102l0,0c0,0,20.051-4.114,35.539-3.435
	c15.488,0.682,37.011,3.435,37.011,3.435S82.198,52.306,86.41,0"/>
<path opacity="0.3" d="M69.941,41.358c-1.409,0.239-3.449-0.009-4.529-0.459c2.245-0.187,3.767-1.206,4.355-2.594
	c-0.813,0.498-3.327,1.042-4.714,0.524c-0.07-0.328-0.145-0.638-0.22-0.919c-1.056-3.888-4.682-7.02-8.472-6.642
	c0.302-0.122,0.612-0.237,0.927-0.344c0.418-0.149,2.868-0.55,2.483-1.414c-0.327-0.762-3.32,0.575-3.885,0.75
	c0.742-0.28,1.973-0.76,2.104-1.618c-1.138,0.157-2.257,0.696-3.12,1.482c0.309-0.338,0.548-0.747,0.597-1.187
	c-3.042,1.945-4.82,5.863-6.258,9.669c-1.128-1.095-2.129-1.958-3.026-2.438c-2.518-1.35-5.531-2.76-10.257-4.518
	c-0.144,1.565,0.773,3.648,3.415,5.032c-0.568-0.078-1.619,0.095-2.456,0.295c0.34,1.795,1.458,3.271,4.477,3.986
	c-1.378,0.087-2.092,0.406-2.737,1.082c0.625,1.247,2.161,2.715,4.917,2.415c-3.068,1.323-1.251,3.775,1.248,3.411
	c-4.257,4.402-10.971,4.077-14.828,0.394c10.064,13.732,31.947,8.118,35.207-5.106C67.613,43.178,69.049,42.315,69.941,41.358z"/>
<path fill="#FFFFFF" d="M70.308,42.092c-1.408,0.239-3.447-0.008-4.528-0.462c2.245-0.184,3.766-1.206,4.355-2.592
	c-0.813,0.497-3.328,1.041-4.715,0.524c-0.069-0.328-0.144-0.637-0.22-0.921c-1.056-3.884-4.682-7.018-8.472-6.64
	c0.302-0.123,0.613-0.238,0.927-0.344c0.417-0.147,2.869-0.55,2.483-1.415c-0.326-0.762-3.319,0.575-3.884,0.75
	c0.741-0.281,1.972-0.758,2.104-1.617c-1.139,0.156-2.256,0.696-3.12,1.48c0.309-0.336,0.549-0.747,0.597-1.188
	c-3.041,1.946-4.82,5.864-6.258,9.669c-1.128-1.095-2.128-1.958-3.025-2.439c-2.518-1.348-5.532-2.758-10.257-4.515
	c-0.145,1.563,0.772,3.648,3.416,5.028c-0.568-0.078-1.62,0.097-2.456,0.296c0.341,1.797,1.458,3.272,4.477,3.986
	c-1.378,0.089-2.093,0.408-2.738,1.084c0.626,1.246,2.162,2.713,4.917,2.412c-3.067,1.325-1.251,3.776,1.248,3.412
	c-4.258,4.402-10.97,4.078-14.827,0.395c10.063,13.731,31.948,8.118,35.206-5.106C67.981,43.911,69.416,43.048,70.308,42.092z"/>
<linearGradient id="SVGID_2_" gradientUnits="userSpaceOnUse" x1="274.209" y1="-255.1904" x2="338.1982" y2="-255.1904" gradientTransform="matrix(1 0 0 -1 -256 -208.5)">
	<stop  offset="0" style="stop-color:#75B8E6"/>
	<stop  offset="0.0033" style="stop-color:#74B7E5"/>
	<stop  offset="0.0749" style="stop-color:#59A2D7"/>
	<stop  offset="0.1562" style="stop-color:#4390CB"/>
	<stop  offset="0.2522" style="stop-color:#3282C2"/>
	<stop  offset="0.3709" style="stop-color:#2779BC"/>
	<stop  offset="0.5375" style="stop-color:#2074B8"/>
	<stop  offset="1" style="stop-color:#1E72B7"/>
</linearGradient>
<path fill="url(#SVGID_2_)" d="M18.209,4.076c0,0,3.103,40.49,0,84.231c0,0,17.872-1.04,31.743-1.651
	c22.009,1.766,32.246,3.827,32.246,3.827s-6.792-39.535-0.641-87.12c0.663-5.123-7.782,32.776-1.805,83.962
	c0,0-16.317-2.7-30.208-2.435c-14.265,0.271-27.938,0.511-29.603,0.905C19.941,85.795,23.507,40.452,18.209,4.076z"/>
<linearGradient id="SVGID_3_" gradientUnits="userSpaceOnUse" x1="306.2041" y1="-217.4668" x2="306.2041" y2="-208.5" gradientTransform="matrix(1 0 0 -1 -256 -208.5)">
	<stop  offset="0.4166" style="stop-color:#000000;stop-opacity:0"/>
	<stop  offset="0.7929" style="stop-color:#030000;stop-opacity:0.387"/>
	<stop  offset="0.9954" style="stop-color:#090000;stop-opacity:0.5952"/>
	<stop  offset="1" style="stop-color:#090000;stop-opacity:0.6"/>
</linearGradient>
<polygon opacity="0.5" fill="url(#SVGID_3_)" points="13.997,0 14.812,8.967 85.274,8.967 86.41,0 "/>
</svg>
