<?xml version="1.0" encoding="utf-8"?>
<!-- Generator: Adobe Illustrator 16.0.0, SVG Export Plug-In . SVG Version: 6.00 Build 0)  -->
<!DOCTYPE svg PUBLIC "-//W3C//DTD SVG 1.1//EN" "http://www.w3.org/Graphics/SVG/1.1/DTD/svg11.dtd">
<svg version="1.1" id="Layer_1" xmlns="http://www.w3.org/2000/svg" xmlns:xlink="http://www.w3.org/1999/xlink" x="0px" y="0px"
	 width="191px" height="127.406px" viewBox="0 0 191 127.406" enable-background="new 0 0 191 127.406" xml:space="preserve">
<g>
	<path fill="#EFE28A" d="M-0.464,50.096c0,0,24.081,22.909,42.282,30.358c21.271,8.706,70.132,6.481,70.132,6.481
		s-1.574-38.704-2.333-57.354c-0.124-3.076-4.884-5.693-7.001-6.241c-15.393-3.996-35.564,9.663-58.649,2.384
		C27.673,20.587,8.843,0.146,8.843,0.146s2.656,19.424,14.92,37.275c6.711,9.758,19.041,22.604,19.041,22.604
		s-10.794,0.459-16.809-0.677C17.655,57.777-0.464,50.096-0.464,50.096z"/>
	
		<radialGradient id="SVGID_1_" cx="11344.2148" cy="3401.21" r="22.9586" fx="11325.1416" fy="3388.4314" gradientTransform="matrix(0.9992 -0.0406 -0.0406 -0.9992 -11111.3164 3906.6807)" gradientUnits="userSpaceOnUse">
		<stop  offset="0" style="stop-color:#55382E"/>
		<stop  offset="0.0926" style="stop-color:#644937"/>
		<stop  offset="0.7209" style="stop-color:#C7B672"/>
		<stop  offset="1" style="stop-color:#EFE28A"/>
	</radialGradient>
	<path fill="url(#SVGID_1_)" d="M107.108,28.052c0,0,2.107,5.08-3.644,7.352c-5.7,2.253-25.645,2.334-31.501,4.137
		c-2.805,0.859-5.121,1.939-4.699,4.811c0.756,5.138,4.776,9.627,18.488,12.604c15.725,3.412,24.695-0.255,24.695-0.255"/>
	<path fill="#F1D362" d="M67.599,112.591c0,0,19.247,8.497,54.69,12.939c23.43,2.937,47.711,2.181,68.711-0.574V58.655
		c-15,2.616-30.236,4.301-46.623,4.217C95.055,62.619,67.3,43.483,67.3,43.483L67.599,112.591z"/>
</g>
<g opacity="0.44">
	<g>
		<path fill="none" stroke="#BC5A4D" stroke-linecap="round" d="M189.239,62.912c-0.23,0.04-0.46,0.08-0.689,0.12"/>
		<path fill="none" stroke="#BC5A4D" stroke-linecap="round" stroke-dasharray="1.4114,3.0243" d="M185.566,63.536
			c-13.584,2.243-26.289,3.574-41.327,3.336C103.417,66.226,77.257,53.25,70.248,49.32"/>
		<path fill="none" stroke="#BC5A4D" stroke-linecap="round" d="M68.943,48.566c-0.394-0.235-0.592-0.364-0.592-0.364"/>
	</g>
</g>
<g opacity="0.44">
	<g>
		<path fill="none" stroke="#BC5A4D" stroke-linecap="round" d="M68.351,108.61c0.215,0.084,0.432,0.168,0.65,0.252"/>
		<path fill="none" stroke="#BC5A4D" stroke-linecap="round" stroke-dasharray="1.3966,2.9927" d="M71.799,109.918
			c14.005,5.168,33.391,10.603,55.841,12.838c28.493,2.838,52.321-0.138,59.433-1.202"/>
		<path fill="none" stroke="#BC5A4D" stroke-linecap="round" d="M188.553,121.324c0.452-0.074,0.686-0.116,0.686-0.116"/>
	</g>
</g>
</svg>
