<?xml version="1.0" encoding="utf-8"?><svg xmlns="http://www.w3.org/2000/svg" width="100" height="100" viewBox="0 0 100 100"><path fill="#fff" d="M1.29 50.329c0 26.98 21.875 48.855 48.853 48.855 26.983.001 48.857-21.874 48.857-48.855 0-26.982-21.874-48.856-48.857-48.856-26.979 0-48.853 21.874-48.853 48.856zm33.568 31.24l30.337-31.205-30.265-31.125 2.414-2.417 33.554 33.558-1.548 1.548-.017-.017-32.065 32.067-2.41-2.409z" opacity=".44"/><path fill="none" stroke="#fff" stroke-width="2.038" stroke-miterlimit="10" d="M1.29 50.329c0 26.98 21.875 48.855 48.853 48.855 26.983.001 48.857-21.874 48.857-48.855 0-26.982-21.874-48.856-48.857-48.856-26.979 0-48.853 21.874-48.853 48.856z" opacity=".77"/></svg>