<?xml version="1.0" encoding="utf-8"?><svg xmlns="http://www.w3.org/2000/svg" width="800" height="600" viewBox="0 0 800 600"><g><path fill="#C5DFDC" d="M0 0h800v600h-800z" opacity=".1"/><g fill="#F5F1EB"><path d="M130.325 501.521c-.17 20.535-24.729 36.978-54.842 36.714-30.095-.274-54.364-17.147-54.166-37.7.162-20.542 24.731-36.978 54.835-36.714 30.105.275 54.367 17.148 54.173 37.7zM328.585 544.063c-.186 20.544-24.74 36.988-54.851 36.723-30.106-.277-54.345-17.155-54.166-37.697.17-20.547 24.723-36.987 54.833-36.711 30.107.27 54.358 17.142 54.184 37.685zM215.349 512.474c-.185 20.545-24.723 36.986-54.833 36.71-30.104-.271-54.357-17.134-54.174-37.688.188-20.544 24.74-36.977 54.837-36.715 30.117.272 54.37 17.148 54.17 37.693zM278.92 501.32c-.116 14.349-17.279 25.832-38.308 25.649-21.021-.186-37.981-11.977-37.847-26.342.131-14.347 17.285-25.834 38.308-25.631 21.046.177 37.987 11.963 37.847 26.324zM94.095 544.517c-.069 8.159-9.829 14.688-21.785 14.58-11.958-.109-21.606-6.813-21.52-14.971.069-8.158 9.822-14.686 21.782-14.586 11.963.107 21.6 6.811 21.523 14.977zM243.46 542.793c-.271 30.396-36.594 54.713-81.129 54.313-44.542-.394-80.428-25.362-80.15-55.759.27-30.388 36.599-54.713 81.136-54.313 44.537.401 80.419 25.362 80.143 55.759z"/></g><g fill="#F5F1EB"><path d="M732.076 299.437c.021 3.865-4.558 7.022-10.225 7.051-5.663.026-10.27-3.085-10.289-6.955-.021-3.864 4.559-7.019 10.224-7.048 5.667-.026 10.272 3.086 10.29 6.952zM769.484 306.928c.021 3.87-4.56 7.023-10.221 7.05-5.665.024-10.274-3.086-10.29-6.948-.02-3.87 4.559-7.026 10.221-7.053 5.666-.026 10.276 3.086 10.29 6.951zM748.099 301.279c.021 3.864-4.551 7.02-10.22 7.048-5.662.024-10.273-3.083-10.29-6.949-.019-3.868 4.561-7.025 10.225-7.051 5.663-.026 10.271 3.085 10.285 6.952zM760.034 299.016c.014 2.702-3.188 4.907-7.146 4.924-3.957.019-7.173-2.153-7.184-4.855-.018-2.702 3.184-4.906 7.141-4.926 3.956-.02 7.176 2.155 7.189 4.857zM725.372 307.622c.006 1.531-1.815 2.785-4.06 2.8-2.255.008-4.084-1.225-4.09-2.764-.008-1.535 1.806-2.788 4.059-2.8 2.25-.011 4.083 1.227 4.091 2.764zM753.468 306.91c.025 5.719-6.745 10.39-15.127 10.429-8.379.04-15.192-4.564-15.217-10.286-.032-5.719 6.74-10.387 15.12-10.429 8.383-.039 15.195 4.566 15.224 10.286z"/></g><path fill="#F5F1EB" d="M870.747 59.516c.223-.763.319-1.544.269-2.335-.406-6.4-10.041-11.019-21.514-10.317-8.738.538-16.02 4.006-18.817 8.453-5.651-3.928-14.71-6.167-24.762-5.555-7.746.473-14.695 2.557-19.819 5.586-5.303-4.983-15.464-7.986-26.921-7.288-16.429 1.009-29.286 9.247-28.699 18.399.442 6.975 8.532 12.463 19.608 14.25-1.392 1.186-2.181 2.593-2.087 4.064.226 3.646 5.698 6.263 12.238 5.87 2.603-.163 4.973-.79 6.878-1.708 5.861 9.987 23.307 16.503 43.455 15.271 16.863-1.03 31.166-7.216 38.067-15.43 5.642 2.938 13.539 4.513 22.168 3.988 16.418-1.003 29.278-9.237 28.69-18.405-.543-8.775-13.235-15.205-28.754-14.843z"/><g fill="#F5F1EB"><path d="M536.907 204.803c-.152-11.082 8.713-20.188 19.792-20.344 11.083-.135 20.191 8.725 20.328 19.803.17 11.082-8.708 20.189-19.794 20.333-11.082.155-20.179-8.714-20.326-19.792zM463.476 183.795c-.144-11.078 8.716-20.188 19.802-20.34 11.082-.134 20.191 8.725 20.334 19.803.165 11.08-8.712 20.186-19.797 20.333-11.081.156-20.182-8.713-20.339-19.796zM505.488 199.736c-.146-11.077 8.715-20.199 19.798-20.342 11.076-.158 20.188 8.714 20.336 19.792.159 11.074-8.711 20.188-19.803 20.333-11.08.154-20.182-8.713-20.331-19.783zM482.208 206.366c-.114-7.739 6.083-14.102 13.835-14.212 7.742-.093 14.098 6.089 14.199 13.827.106 7.75-6.091 14.115-13.827 14.222-7.745.098-14.104-6.096-14.207-13.837zM549.771 181.262c-.049-4.395 3.475-8.021 7.871-8.078 4.403-.07 8.028 3.457 8.078 7.851.068 4.411-3.454 8.025-7.871 8.093-4.396.061-8.009-3.467-8.078-7.866zM494.828 183.646c-.231-16.391 12.887-29.866 29.281-30.092 16.396-.213 29.866 12.903 30.096 29.294.228 16.402-12.903 29.875-29.302 30.084-16.391.238-29.856-12.878-30.075-29.286z"/></g><path fill="#F5F1EB" d="M876.652 521.31c0 3.541-46.243 6.399-103.293 6.399-57.052 0-247.956-4.896-197.968-6.973 21.845-.899 89.928-4.936 137.785-2.706 29.108 1.359 75.105-.908 81.626-.908 57.054 0 81.85.656 81.85 4.188zM470.794 530.467c0 2.442 25.829 4.416 57.702 4.416 31.862 0 57.691-1.974 57.691-4.416 0-2.437-25.829-4.421-57.691-4.421-31.873 0-57.702 1.984-57.702 4.421zM254.605 104.879c0-4.725 61.702-8.537 137.823-8.537 76.118 0 330.839 6.532 264.141 9.302-29.147 1.2-119.987 6.586-183.846 3.611-38.835-1.814-100.208 1.211-108.906 1.211-76.128 0-109.212-.876-109.212-5.587zM532.334 121.657c0-2.216-55.063-4.054-123.002-4.054s-122.999 1.837-122.999 4.054c0 2.251 55.059 4.049 122.999 4.049 67.939.001 123.002-1.797 123.002-4.049zM0 517.124v10.37c44.136-.727 76.652-3.216 76.652-6.185 0-3.421-23.288-4.144-76.652-4.185zM70.747 59.516c.223-.763.319-1.544.269-2.335-.406-6.4-10.041-11.019-21.514-10.317-8.738.538-16.02 4.006-18.817 8.453-5.651-3.928-14.71-6.167-24.762-5.555-2.037.124-4.015.365-5.923.7v53.676c3.403.256 6.945.289 10.576.067 16.863-1.03 31.166-7.216 38.067-15.43 5.642 2.938 13.539 4.513 22.168 3.988 16.418-1.003 29.278-9.237 28.69-18.405-.543-8.774-13.235-15.204-28.754-14.842z"/></g></svg>