<?xml version="1.0" encoding="utf-8"?><svg xmlns="http://www.w3.org/2000/svg" width="40" height="40" xmlns:xlink="http://www.w3.org/1999/xlink" viewBox="0 0 40 40"><path fill="none" d="M0 0h40v40h-40zM0 0h40v40h-40zM.084 0h84.221v84.22h-84.221z"/><defs><path id="a" d="M.042.125h39.958v39.875h-39.958z"/></defs><clipPath id="b"><use xlink:href="#a" overflow="visible"/></clipPath><g clip-path="url(#b)"><path fill="#51311E" stroke="#3E271B" stroke-width="9.358" stroke-miterlimit="10" d="M756.448 4.508h-718.507s-3.949 30.19-33.191 30.19v489.396c15.207 0 31.817 14.975 31.817 32.521h721.041c.297-21.058 13.305-32.827 33.189-32.827v-489.09c-30.412 0-34.349-30.19-34.349-30.19z"/><g opacity=".77"><radialGradient id="c" cx="557.87" cy="-292.195" r="592.405" gradientTransform="matrix(1.451 0 0 -1.312 -417.598 -425.927)" gradientUnits="userSpaceOnUse"><stop offset="0" stop-color="#C2955C"/><stop offset=".12" stop-color="#BD9159"/><stop offset=".262" stop-color="#AF8451"/><stop offset=".414" stop-color="#976F45"/><stop offset=".572" stop-color="#775233"/><stop offset=".72" stop-color="#51311E"/></radialGradient><path fill="url(#c)" d="M751.91 8.492c0-.183-713.107-.177-713.153 0-4.47 17.58-16.03 28.883-31.452 30.191l.081 487.795c19.375 0 34.436 16.1 34.721 35.985h710.518c.292-19.886 14.964-36.029 32.508-36.029v-484.923c-17.545 0-33.223-14.145-33.223-33.019z"/></g></g><defs><path id="d" d="M0 0h40v40h-40z"/></defs><clipPath><use xlink:href="#d" overflow="visible"/></clipPath></svg>