<?xml version="1.0" encoding="utf-8"?><svg xmlns="http://www.w3.org/2000/svg" width="350" height="40" viewBox="0 0 350 40"><linearGradient id="a" x1="89.962" x2="89.962" y1="-2.495" y2="194.272" gradientUnits="userSpaceOnUse"><stop offset="0" stop-color="#CA9C57"/><stop offset=".063" stop-color="#BC8F50"/><stop offset=".246" stop-color="#996F3F"/><stop offset=".432" stop-color="#7D5631"/><stop offset=".619" stop-color="#6A4428"/><stop offset=".807" stop-color="#5E3A22"/><stop offset="1" stop-color="#5A3620"/></linearGradient><path fill="url(#a)" fill-rule="evenodd" d="M145.92 8.847c-2.637 2.691-6.973 10.989-2.838 15.038 3.642 3.563 12.197-.245 10.782-6.244-1.044-1.215-3.068-1.839-4.823-.85-.943.475-.789 2.589-.852 3.12-1.776-.921-2.428-4.969-.284-5.958 3.095 2.855 12.3 1.789 11.35-2.837-.332-1.608-2.856-2.731-4.823-1.417-.905.888.299 3.162 0 3.403-2.097.111-2.95-1.023-3.405-2.554 1.27-3.41 7.328-4.581 11.633-3.121-4.185 11.988-11.996 20.348-22.414 26.103 3.423-14.12-1.403-28.106-10.497-31.492-4.944-1.841-11.713-.198-13.05 3.688-1.131 3.285.677 6.901 2.553 7.66 6.378 2.583 8.47-3.93 6.242-6.808 3.042.36 5.287 1.52 6.241 3.971-4.393.887-7.437 9.953-3.404 12.768 1.873 1.308 5.873 1.262 6.809-1.419.619-1.773-.274-3.282-1.419-3.689-1.639-.58-2.237.968-3.403 1.136-.042-2.783 1.66-3.823 3.688-4.539 2.89 4.622 2.409 14.497 0 19.293-4.155-8.531-9.562-15.607-17.023-21.563-6.787-5.416-16.84-11.405-27.804-11.064-15.945.493-28.819 11.491-36.316 20.71-2.932 3.603-4.512 8.007-7.661 11.631-1.671-5.651-2.677-14.334.567-19.008 1.86.884 3.877 1.609 3.406 4.822-1.408-2.829-5.872-1.737-4.824 2.271.62 2.366 4.66 2.692 6.524 1.702 1.244-.66 2.114-2.636 2.271-3.973.598-5.111-2.637-6.869-5.106-9.646 1.358-1.856 3.138-3.294 6.241-3.403-2.478 3.581-.542 8.556 5.391 7.092 2.272-.561 4.361-4.297 3.404-7.659-.662-2.329-3.701-4.128-5.674-4.54-13.99-2.924-22.403 16.25-18.157 32.06-10.15-6.023-18.412-13.933-22.131-26.386 5.066-.969 10.216.096 11.633 3.688-.818 1.262-1.494 2.668-3.973 2.27.76-.657 1.16-2.219.568-3.403-2.136-1.178-4.466-.406-4.823 1.417-.968 4.938 8.317 5.431 11.632 2.837 1.387 1.528 1.035 5.29-.852 5.958 1.268-4.704-4.971-4.339-5.674-1.703-1.373 5.152 7.203 8.904 10.781 5.677 1.406-1.269 2.006-4.559 1.703-7.094-1.118-9.308-14.63-16.307-27.235-14.187-6.979 9.011-7.891 31.9 2.836 35.748 5.664 2.031 12.688-3.326 9.363-8.797-2.627-4.319-10.658-.189-6.525 4.541-1.4-.587-2.523-1.448-3.121-2.839 3.443-1.553 7.201-11.102 1.701-11.915-4.526-.668-4.855 5.761-.567 5.674-.757 1.04-1.601 1.991-3.403 1.985-1.174-5.265-.359-11.861 2.553-14.751 6.36 15.027 14.732 28.069 36.599 28.371 8.299.113 16.572-1.741 22.98-5.675 5.426-3.331 12.87-9.025 12.199-17.308-.593-7.34-11.832-7.396-11.348.853.799 2.025 3.957 2.93 6.242 2.554-.92 2.106-2.301 3.753-4.255 4.822-2.755-4.441-17.232-5.538-16.74 1.134.344 4.661 8.268 2.949 7.094-1.417 3.356-.047 4.88 1.739 5.956 3.971-4.151 4.359-11.852 6.684-20.427 5.676 6.634-13.178 18.068-26.538 35.748-27.804 1.383-.099 3.02-.132 4.539 0 17.605 1.536 29.483 15.278 35.181 28.088-9.175.379-15.973-1.618-20.427-5.959 1.29-2.115 2.658-4.148 6.241-3.971-.859 5.169 6.338 5.453 6.81 1.703.239-1.916-1.022-3.469-2.554-4.257-4.754-2.443-11.589.596-14.468 2.837-1.535-1.211-3.661-3.335-3.689-5.106 9.544 1.585 6.504-10.963-1.702-8.511-2.588.772-3.884 4.042-3.406 7.943.718 5.848 5.899 10.465 10.782 13.902 7.005 4.93 14.497 6.539 24.115 6.525 22.286-.033 29.913-13.593 37.166-28.371 2.095 3.129 3.733 10.206 1.703 14.751-1.415-.382-2.733-.86-3.121-2.268 8.281-.892-1.315-9.501-3.121-3.121-1.322 4.673 2.862 7.109 4.255 9.93-.432 1.458-1.862 1.919-3.119 2.554 4.995-8.072-10.169-8.09-6.526 1.135 1.125 2.851 6.335 4.471 10.213 2.836 4.904-2.066 7.719-10.336 7.661-18.157-.054-7.405-2.967-11.997-5.674-17.306-8.736-1.185-17.827 1.272-22.698 6.242z" clip-rule="evenodd"/><linearGradient id="b" x1="263.558" x2="263.558" y1="-2.495" y2="194.272" gradientUnits="userSpaceOnUse"><stop offset="0" stop-color="#CA9C57"/><stop offset=".063" stop-color="#BC8F50"/><stop offset=".246" stop-color="#996F3F"/><stop offset=".432" stop-color="#7D5631"/><stop offset=".619" stop-color="#6A4428"/><stop offset=".807" stop-color="#5E3A22"/><stop offset="1" stop-color="#5A3620"/></linearGradient><path fill="url(#b)" fill-rule="evenodd" d="M339.811 4.009c-5.664-2.031-12.688 3.326-9.363 8.796 2.626 4.32 10.658.19 6.525-4.54 1.4.587 2.523 1.448 3.12 2.839-3.443 1.553-7.201 11.102-1.7 11.915 4.526.668 4.855-5.761.567-5.675.757-1.039 1.601-1.991 3.403-1.985 1.174 5.266.358 11.861-2.553 14.752-6.36-15.028-14.732-28.069-36.599-28.371-8.298-.113-16.572 1.74-22.98 5.674-5.426 3.331-12.869 9.026-12.199 17.308.593 7.34 11.832 7.397 11.348-.852-.799-2.025-3.956-2.93-6.242-2.554.92-2.106 2.301-3.753 4.255-4.822 2.756 4.441 17.232 5.538 16.74-1.135-.344-4.661-8.268-2.948-7.093 1.417-3.357.047-4.881-1.739-5.957-3.971 4.151-4.358 11.853-6.683 20.427-5.675-6.634 13.179-18.068 26.538-35.748 27.805-1.383.099-3.019.131-4.539 0-17.605-1.536-29.483-15.279-35.181-28.089 9.175-.378 15.973 1.619 20.427 5.959-1.289 2.115-2.658 4.149-6.241 3.971.859-5.168-6.337-5.452-6.81-1.703-.239 1.917 1.023 3.47 2.554 4.258 4.754 2.443 11.59-.596 14.468-2.837 1.535 1.211 3.662 3.335 3.689 5.105-9.544-1.585-6.503 10.964 1.702 8.512 2.588-.772 3.885-4.042 3.406-7.944-.718-5.848-5.899-10.464-10.782-13.901-7.005-4.93-14.497-6.539-24.115-6.525-22.286.033-29.913 13.593-37.166 28.371-2.094-3.13-3.732-10.206-1.703-14.752 1.415.383 2.733.86 3.122 2.269-8.282.892 1.314 9.5 3.121 3.121 1.321-4.673-2.862-7.109-4.256-9.93.433-1.458 1.862-1.919 3.12-2.554-4.996 8.071 10.169 8.089 6.525-1.135-1.125-2.851-6.335-4.472-10.213-2.837-4.904 2.066-7.718 10.337-7.66 18.158.054 7.404 2.966 11.997 5.674 17.305 8.735 1.187 17.825-1.271 22.696-6.24 2.638-2.691 6.973-10.99 2.838-15.038-3.642-3.564-12.196.245-10.782 6.243 1.045 1.216 3.068 1.84 4.823.851.943-.476.789-2.59.853-3.12 1.775.921 2.427 4.968.283 5.957-3.094-2.854-12.3-1.788-11.349 2.838.331 1.608 2.856 2.73 4.823 1.417.904-.889-.299-3.162 0-3.403 2.097-.111 2.949 1.022 3.404 2.554-1.27 3.409-7.328 4.58-11.633 3.121 4.185-11.989 11.996-20.349 22.415-26.103-3.424 14.119 1.402 28.105 10.497 31.491 4.943 1.842 11.712.198 13.049-3.687 1.132-3.285-.677-6.901-2.553-7.661-6.378-2.582-8.469 3.93-6.242 6.809-3.041-.361-5.287-1.521-6.241-3.971 4.394-.888 7.437-9.953 3.405-12.768-1.873-1.308-5.873-1.263-6.809 1.418-.62 1.773.274 3.283 1.418 3.69 1.639.58 2.237-.969 3.403-1.136.043 2.783-1.66 3.823-3.688 4.539-2.89-4.623-2.409-14.497 0-19.293 4.155 8.531 9.563 15.606 17.023 21.562 6.787 5.417 16.84 11.406 27.804 11.064 15.943-.493 28.817-11.492 36.315-20.71 2.931-3.603 4.511-8.008 7.66-11.632 1.672 5.652 2.677 14.335-.567 19.009-1.86-.884-3.877-1.609-3.405-4.823 1.407 2.829 5.871 1.738 4.824-2.271-.62-2.366-4.66-2.692-6.525-1.701-1.243.659-2.114 2.636-2.271 3.972-.598 5.111 2.638 6.869 5.106 9.646-1.357 1.856-3.137 3.293-6.24 3.403 2.478-3.582.541-8.556-5.391-7.092-2.272.56-4.361 4.297-3.405 7.659.662 2.329 3.701 4.128 5.674 4.539 13.99 2.925 22.403-16.249 18.157-32.059 10.15 6.022 18.412 13.932 22.131 26.385-5.067.97-10.216-.095-11.633-3.688.818-1.261 1.494-2.667 3.972-2.269-.759.657-1.159 2.219-.567 3.403 2.136 1.178 4.466.405 4.823-1.417.968-4.939-8.318-5.432-11.632-2.838-1.387-1.528-1.036-5.289.852-5.957-1.268 4.703 4.971 4.339 5.674 1.703 1.372-5.152-7.203-8.904-10.781-5.677-1.406 1.269-2.006 4.559-1.703 7.094 1.119 9.306 14.631 16.306 27.236 14.185 6.98-9.009 7.891-31.899-2.834-35.746z" clip-rule="evenodd"/><linearGradient id="c" x1="89.715" x2="89.715" y1="39.65" y2=".197" gradientUnits="userSpaceOnUse"><stop offset="0" stop-color="#392116"/><stop offset=".72" stop-color="#311B12"/></linearGradient><path fill="url(#c)" fill-rule="evenodd" d="M162.696 33.12c1.258-.634 2.688-1.095 3.12-2.554-1.394-2.82-5.578-5.257-4.256-9.93 1.806-6.379 11.404 2.229 3.121 3.121.388 1.408 1.706 1.888 3.121 2.27 2.03-4.545.392-11.623-1.702-14.753-7.254 14.78-14.88 28.338-37.167 28.371-9.618.014-17.109-1.596-24.114-6.525-4.884-3.437-10.065-8.054-10.781-13.901-.479-3.902.816-7.172 3.404-7.944 8.207-2.452 11.248 10.097 1.701 8.512.03 1.771 2.155 3.896 3.689 5.106 2.88-2.242 9.715-5.281 14.471-2.838 1.529.788 2.793 2.342 2.553 4.258-.473 3.749-7.669 3.465-6.811-1.703-3.581-.179-4.953 1.855-6.24 3.972 4.455 4.34 11.251 6.337 20.425 5.958-5.696-12.81-17.573-26.554-35.178-28.09-1.521-.131-3.157-.099-4.539 0-17.68 1.269-29.115 14.626-35.748 27.805 8.574 1.009 16.274-1.316 20.426-5.674-1.076-2.232-2.6-4.019-5.956-3.972 1.175 4.365-6.749 6.078-7.094 1.418-.492-6.674 13.985-5.576 16.739-1.135 1.955-1.071 3.336-2.717 4.256-4.823-2.285.376-5.442-.527-6.242-2.554-.484-8.25 10.756-8.191 11.35-.851.669 8.28-6.773 13.976-12.2 17.307-6.409 3.934-14.683 5.787-22.98 5.674-21.866-.302-30.237-13.343-36.6-28.371-2.911 2.891-3.726 9.486-2.553 14.753 1.803.006 2.646-.948 3.403-1.986-4.288.086-3.959-6.343.568-5.673 5.5.812 1.743 10.36-1.701 11.915.596 1.389 1.722 2.25 3.119 2.837-4.131-4.729 3.9-8.859 6.525-4.539 3.324 5.469-3.697 10.826-9.362 8.795-10.724-3.848-9.816-26.737-2.837-35.747 12.605-2.121 26.119 4.879 27.236 14.185.305 2.537-.296 5.825-1.703 7.094-3.578 3.228-12.152-.524-10.779-5.675.703-2.638 6.94-3.002 5.674 1.701 1.887-.667 2.238-4.429.85-5.957-3.313 2.594-12.6 2.102-11.631-2.837.357-1.823 2.687-2.596 4.823-1.419.592 1.186.19 2.747-.567 3.404 2.479.398 3.152-1.007 3.973-2.27-1.418-3.592-6.566-4.657-11.633-3.688 3.719 12.453 11.979 20.363 22.129 26.385-4.245-15.808 4.169-34.982 18.157-32.058 1.973.412 5.012 2.21 5.676 4.539.955 3.362-1.133 7.1-3.406 7.659-5.932 1.464-7.868-3.51-5.39-7.092-3.105.11-4.884 1.546-6.242 3.405 2.47 2.775 5.704 4.533 5.106 9.646-.155 1.335-1.027 3.312-2.27 3.972-1.864.991-5.905.665-6.525-1.702-1.047-4.009 3.416-5.102 4.824-2.27.471-3.215-1.546-3.94-3.406-4.823-3.244 4.675-2.238 13.355-.567 19.009 3.149-3.625 4.729-8.028 7.661-11.632 7.498-9.218 20.371-20.218 36.314-20.711 10.965-.342 21.018 5.647 27.807 11.064 7.46 5.956 12.866 13.03 17.021 21.562 2.411-4.795 2.892-14.672 0-19.292-2.026.715-3.729 1.755-3.688 4.54 1.166-.168 1.766-1.718 3.404-1.136 1.144.405 2.038 1.915 1.418 3.688-.936 2.682-4.936 2.726-6.808 1.418-4.032-2.814-.989-11.88 3.403-12.767-.954-2.451-3.199-3.609-6.242-3.972 2.229 2.879.138 9.391-6.241 6.81-1.876-.761-3.684-4.375-2.553-7.66 1.337-3.889 8.106-5.531 13.05-3.688 9.094 3.387 13.921 17.373 10.498 31.491 10.418-5.754 18.229-14.112 22.412-26.103-4.303-1.458-10.362-.288-11.63 3.122.454 1.53 1.307 2.664 3.403 2.553.299-.242-.904-2.515 0-3.404 1.967-1.313 4.492-.19 4.823 1.419.95 4.626-8.254 5.691-11.348 2.837-2.146.989-1.493 5.035.283 5.957.063-.53-.093-2.645.851-3.12 1.756-.987 3.779-.365 4.823.852 1.415 5.997-7.139 9.807-10.781 6.242-4.136-4.048.199-12.347 2.837-15.038 4.871-4.969 13.963-7.426 22.697-6.24 2.707 5.308 5.62 9.9 5.674 17.305.058 7.821-2.757 16.092-7.66 18.158-3.879 1.635-9.089.014-10.214-2.837-3.641-9.223 11.521-9.206 6.527-1.135z" clip-rule="evenodd"/><linearGradient id="d" x1="263.171" x2="263.171" y1="40.489" y2="1.036" gradientUnits="userSpaceOnUse"><stop offset="0" stop-color="#392116"/><stop offset=".72" stop-color="#311B12"/></linearGradient><path fill="url(#d)" fill-rule="evenodd" d="M190.19 7.564c-1.258.635-2.688 1.095-3.12 2.555 1.394 2.819 5.578 5.256 4.256 9.93-1.806 6.379-11.404-2.229-3.121-3.121-.388-1.408-1.707-1.888-3.121-2.27-2.03 4.545-.392 11.623 1.701 14.753 7.254-14.78 14.881-28.338 37.168-28.371 9.617-.014 17.109 1.595 24.113 6.524 4.885 3.437 10.066 8.055 10.782 13.902.479 3.901-.817 7.172-3.405 7.944-8.206 2.452-11.247-10.097-1.7-8.512-.03-1.771-2.155-3.896-3.689-5.106-2.88 2.242-9.716 5.281-14.471 2.838-1.529-.788-2.793-2.342-2.553-4.258.473-3.749 7.669-3.466 6.81 1.703 3.582.179 4.953-1.855 6.241-3.972-4.455-4.341-11.252-6.338-20.426-5.958 5.697 12.809 17.574 26.552 35.18 28.089 1.521.131 3.156.099 4.538 0 17.681-1.269 29.115-14.626 35.748-27.805-8.573-1.01-16.273 1.315-20.425 5.674 1.075 2.232 2.6 4.019 5.956 3.972-1.175-4.365 6.749-6.078 7.093-1.418.492 6.674-13.984 5.575-16.739 1.135-1.955 1.071-3.335 2.717-4.256 4.823 2.286-.377 5.443.527 6.243 2.554.483 8.25-10.756 8.191-11.35.851-.669-8.28 6.773-13.976 12.2-17.307 6.409-3.934 14.683-5.788 22.98-5.674 21.865.301 30.237 13.343 36.599 28.371 2.912-2.891 3.725-9.487 2.553-14.753-1.803-.006-2.646.948-3.403 1.986 4.288-.086 3.959 6.342-.567 5.673-5.5-.812-1.744-10.36 1.701-11.915-.597-1.389-1.723-2.25-3.12-2.838 4.131 4.73-3.899 8.86-6.525 4.54-3.323-5.469 3.698-10.826 9.362-8.796 10.725 3.849 9.815 26.737 2.837 35.748-12.604 2.121-26.118-4.879-27.236-14.186-.305-2.536.296-5.824 1.703-7.093 3.578-3.228 12.152.523 10.78 5.675-.703 2.638-6.941 3.002-5.675-1.701-1.886.666-2.237 4.429-.851 5.957 3.314-2.594 12.6-2.102 11.632 2.837-.357 1.823-2.687 2.596-4.823 1.419-.592-1.187-.19-2.747.567-3.404-2.479-.399-3.152 1.006-3.972 2.27 1.417 3.592 6.565 4.657 11.633 3.688-3.719-12.453-11.979-20.363-22.13-26.386 4.245 15.81-4.169 34.983-18.157 32.06-1.973-.412-5.012-2.21-5.676-4.539-.955-3.363 1.133-7.1 3.406-7.659 5.932-1.464 7.868 3.51 5.389 7.092 3.106-.11 4.885-1.546 6.243-3.405-2.47-2.775-5.705-4.533-5.106-9.646.155-1.335 1.027-3.312 2.27-3.973 1.863-.99 5.905-.664 6.525 1.703 1.047 4.009-3.417 5.101-4.824 2.27-.472 3.215 1.546 3.94 3.406 4.823 3.244-4.675 2.238-13.356.566-19.009-3.148 3.625-4.729 8.028-7.66 11.632-7.498 9.218-20.372 20.218-36.314 20.711-10.964.341-21.018-5.648-27.806-11.064-7.46-5.956-12.867-13.03-17.021-21.563-2.411 4.795-2.892 14.672 0 19.293 2.026-.715 3.729-1.755 3.688-4.54-1.166.168-1.766 1.718-3.404 1.136-1.144-.405-2.038-1.915-1.418-3.688.936-2.682 4.936-2.726 6.808-1.418 4.032 2.814.989 11.88-3.403 12.767.953 2.451 3.199 3.609 6.242 3.972-2.229-2.879-.138-9.391 6.241-6.81 1.876.761 3.684 4.375 2.553 7.66-1.338 3.888-8.106 5.531-13.05 3.688-9.094-3.387-13.921-17.373-10.498-31.492-10.418 5.755-18.229 14.113-22.412 26.104 4.303 1.458 10.361.288 11.63-3.122-.455-1.53-1.307-2.664-3.403-2.553-.299.242.904 2.515 0 3.404-1.967 1.313-4.493.189-4.823-1.419-.95-4.627 8.254-5.692 11.348-2.837 2.146-.989 1.493-5.035-.283-5.957-.063.53.093 2.645-.852 3.119-1.755.988-3.778.366-4.822-.851-1.415-5.997 7.139-9.807 10.781-6.242 4.136 4.048-.199 12.347-2.837 15.037-4.871 4.97-13.963 7.427-22.697 6.241-2.708-5.308-5.62-9.9-5.674-17.305-.058-7.821 2.756-16.092 7.66-18.158 3.879-1.635 9.088-.014 10.214 2.837 3.64 9.223-11.522 9.207-6.528 1.134z" clip-rule="evenodd"/></svg>