<?xml version="1.0" encoding="utf-8"?><svg xmlns="http://www.w3.org/2000/svg" width="498.5" height="133.464" viewBox="0 16.536 498.5 133.464" enable-background="new 0 16.536 498.5 133.464"><g><linearGradient id="a" x1="242.25" x2="740.5" y1="-275.74" y2="-275.74" gradientUnits="userSpaceOnUse" gradientTransform="matrix(1 0 0 -1 -242 -181)"><stop offset="0" stop-color="#D62626"/><stop offset=".15" stop-color="#9F1C1C"/><stop offset=".866" stop-color="#9F1C1C"/><stop offset="1" stop-color="#D62626"/></linearGradient><linearGradient id="b" x1="241.402" x2="741.394" y1="-275.833" y2="-275.833" gradientUnits="userSpaceOnUse" gradientTransform="matrix(1 0 0 -1 -242 -181)"><stop offset="0" stop-color="#D62626"/><stop offset=".15" stop-color="#9F1C1C"/><stop offset=".919" stop-color="#7F1716"/><stop offset="1" stop-color="#D62626"/></linearGradient><path fill="url(#a)" stroke="url(#b)" stroke-miterlimit="10" d="M.25 75.684l21.667 29.977-15.935 38.437 83.293-16.622s11.588-5.194 3.621-10.908c-7.967-5.712-17.383-12.983-17.383-12.983s-5.07-7.275 6.881-8.832c11.951-1.558 97.629-15.584 169.771-13.506 0 0 105.822 3.638 151.09 11.947 0 0 37.302-.37 8.692 16.696-28.609 17.067 7.241 19.145 7.241 19.145l72.793 15.063-17.021-38.956 23.54-29.459-72.43-15.733s-121.083-32.776-356.626 0l-69.194 15.734z"/><path fill="#7F1716" d="M402.846 95.743l-1.935 26.94s21.446-15.615 21.77-21.714c.326-6.099-19.835-5.226-19.835-5.226M93.646 94.74l1.934 26.941s-21.443-15.616-21.769-21.714c-.326-6.1 19.835-5.227 19.835-5.227"/><path fill="#9F1C1C" d="M66.649 35.083l5.242 65.663s128.955-35.087 350.869 0l4.193-65.663s1.048-3.509-9.785-5.013c-10.834-1.503-101.696-14.034-170.192-13.534-68.497.501-172.289 15.038-172.289 15.038s-8.275.54-8.038 3.509z"/><g fill="none" stroke="#fff" stroke-miterlimit="10" opacity=".3"><path d="M419.614 37.588l-1.237-.154"/><path d="M415.913 37.129c-20.043-2.47-116.194-14.04-157.401-13.98-54.922.081-110.922 4.817-182.231 16.053" stroke-dasharray="3.9755,3.9755"/><path d="M75.045 39.397l-1.238.197"/></g><g fill="none" stroke="#fff" stroke-miterlimit="10" opacity=".3"><path d="M414.722 92.726l-1.237-.156"/><path d="M410.989 92.256c-19.943-2.491-114.525-14.029-155.091-13.968-54.13.081-103.862 1.876-174.009 13.037" stroke-dasharray="4.0271,4.0271"/><path d="M80.637 91.524l-1.238.199"/></g><path fill="none" stroke="#fff" stroke-opacity=".3" stroke-miterlimit="10" d="M11.433 81.699l57.924-12.689M16.675 134.33s65.643-11.526 73.185-17.042M484.964 81.699s-57.451-13.348-60.178-12.689M481.471 134.33s-72.241-13.467-75.066-15.859" stroke-dasharray="4,4"/></g></svg>