<?xml version="1.0" encoding="utf-8"?><svg xmlns="http://www.w3.org/2000/svg" width="200" height="265" viewBox="0 0 200 265"><path fill="#9C5550" d="M199.918 218.713l-8.793 8.283-.451-10.94z"/><g fill="#9C5550"><path d="M.595 262.627c.002-71.719 0-143.438 0-215.157 12.317-2.065 24.601-4.32 36.875-6.628-.023 29.165-.045 58.33-.07 87.495 12.202-2.286 24.412-4.531 36.612-6.825-.607-29.04-1.216-58.081-1.824-87.121 13.298-2.524 26.596-5.053 39.899-7.551l1.359 214.727c-12.258 2.278-24.522 4.523-36.78 6.802-.658-31.609-1.323-63.219-1.984-94.828-12.435 2.328-24.873 4.641-37.307 6.974-.026 31.747-.052 63.494-.075 95.241-12.235 2.29-24.471 4.576-36.705 6.871zM154.166 233.867l-.3-214.711c12.383-2.32 25.134-4.64 37.134-6.895v214.65c-12 2.327-24.538 4.642-36.834 6.956z"/></g><path fill="#9C5550" d="M.188 47.559l8.076-8.293 3.416 9.249zM44.959 247.56l-7.929 8.541-1.018-10.753zM119.943 233.36l-6.723 8.219-1.149-10.619zM72.181 34.391l7.712-8.198 3.221 9.474zM153.196 19.254l8.641-8.325 10.179 7.019z"/><path fill="#EF836E" d="M161.837 10.929l21.163 12.747v180.804l-19.841 21.168z"/><path fill="#EA5B36" d="M200 4.062l-17 19.614v180.804l17 14.233zM119.131 18.638l-19.131 20.006v180.807l20.199 13.909z"/><path fill="#EF836E" d="M80.062 26.193l19.938 12.451v87.428l-19.275-12.779z"/><path fill="#EF806A" d="M45.064 120.104l-18.369 19.954 74.577-13.986-19.591-12.779z"/><path fill="#EB6444" d="M82.257 145.348l19.015-19.207-74.577 13.985 18.369 12.186z"/><path fill="#EA5B36" d="M45.283 32.639l-18.283 19.945v87.474l18.25-19.954z"/><path fill="#EF836E" d="M7.958 39.266l19.042 13.318v180.261l-18.02 21.584z"/><path fill="#EB6444" d="M8.264 39.266l19.028 13.523 18.137-20.15zM79.843 26.193l21.443 13.45 17.678-20.854z"/><path fill="#EB6443" d="M161.771 10.929l20.354 13.946 17.875-20.813z"/><path fill="#EB785D" d="M44.959 247.56l-18.204-14.715-18.491 21.584zM119.943 233.36l-18.946-15.444-17.893 22.256zM200 218.713l-18.375-15.713-18.825 22.648z"/><path fill="#EA5B36" d="M26.8 140.048l18.264 12.264-.105 95.248-18.204-14.715z"/><path fill="#EF836E" d="M100 126.072l-18.378 19.276 1.738 94.824 16.64-20.721z"/><g fill="none" stroke="#fff"><path stroke-width="3" d="M25.5 51v180"/><path stroke-width="2.86" d="M100.813 126.072l-73.765 13.919"/><path stroke-width="3" d="M102.5 37v182"/></g><path fill="none" stroke="#fff" stroke-width="3" d="M182.5 24v181"/></svg>