<?xml version="1.0" encoding="utf-8"?><svg xmlns="http://www.w3.org/2000/svg" width="1208" height="1603" viewBox="0 0 1208 1603"><g><radialGradient id="a" cx="933.981" cy="897.361" r="926.928" gradientTransform="matrix(.926 -.377 .115 .283 -34.557 995.304)" gradientUnits="userSpaceOnUse"><stop offset="0" stop-color="#A8C142"/><stop offset=".494" stop-color="#A6BF42"/><stop offset=".762" stop-color="#9EB740"/><stop offset=".976" stop-color="#92A93E"/><stop offset="1" stop-color="#90A73E"/></radialGradient><path fill="url(#a)" d="M944.324 865.189s-155.419 28.587-341.947 44.311c0 0-232.775 11.084-388 159.25-159.324 152.079-195.682 238.813-212 300.75-1.199 4.552-2.221 9.715-3.087 15.367l-.429 174.859c.251 3.847-1.499 7.521-1.253 10.995 5.74-53.283 36.93-167.549 171.146-313.222 164-178 480.654-214.693 722.654-240.693 238.151-25.587 296.157-279.147 310.683-479.664.098-1.713.197-3.426.286-5.143 0 .001-45.147 267.888-258.053 333.19z"/><radialGradient id="b" cx="790" cy="485" r="1002.98" gradientUnits="userSpaceOnUse"><stop offset="0" stop-color="#A8C142"/><stop offset=".557" stop-color="#98AF3F"/><stop offset="1" stop-color="#90A73E"/></radialGradient><path fill="url(#b)" d="M5.205 1603.5l.034-28.045c-1.385 18.195-.034 28.045-.034 28.045z"/><radialGradient id="c" cx="787.747" cy="485" r="781.507" gradientTransform="matrix(.989 -.148 .17 1.138 -73.746 49.141)" gradientUnits="userSpaceOnUse"><stop offset="0" stop-color="#A8C142"/><stop offset=".557" stop-color="#98AF3F"/><stop offset="1" stop-color="#90A73E"/></radialGradient><path fill="url(#c)" d="M7.138 1368.5c16.318-61.937 52.21-149.16 212-300.75 151.964-144.166 388-157.25 388-157.25 186.528-15.724 341.947-46.311 341.947-46.311 201.687-61.861 252.826-305.509 257.657-331.018.146-2.235.282-4.462.395-6.671 9.009-178-52.991-272-162-344-166.135-109.732-321.879-102.678-470-108-334-12-576.137-75-576.137-75l6.479 1376.223c.511-2.549 1.063-4.961 1.659-7.223z"/></g></svg>