<?xml version="1.0" encoding="utf-8"?><svg xmlns="http://www.w3.org/2000/svg" width="300" height="265" xmlns:xlink="http://www.w3.org/1999/xlink" viewBox="0 0 300 265"><path fill="#E96449" d="M16.414 172.738l-2.642 2.412s2.081 1.732 4.182 2.272c3.828.983 6.508.461 8.807-.448 1.843-.731 3.927-2.585 3.927-2.585l-2.834-1.982s-1.68 1.114-2.693 1.585c-1.827.856-2.885.971-5.133.591-2.536-.425-3.614-1.845-3.614-1.845z" opacity=".77"/><path fill="#E8755F" d="M19.074 170.41l-2.872 2.469s2.299 1.495 3.46 1.626c2.311.265 2.731.397 4.782-.322 2.401-.837 3.299-1.99 3.299-1.99l-2.762-2.204s-.484.634-1.865 1.025c-.547.152-1.785.21-2.891-.029-.562-.121-1.151-.575-1.151-.575z" opacity=".77"/><path fill="#E8755F" d="M61.426 169.708l-1.322.157-2.8 5.034 6.769-.747zM43.777 172.225l-3.526 4.164 7.027-.544z"/><defs><path id="a" d="M24.818 170.161l-.406.392-2.288 2.214c.87-.847 1.174-2.237 1.131-4.196l2.689-2.604c.049 1.958-.258 3.349-1.126 4.194z"/></defs><use fill="#9A5853" xlink:href="#a" overflow="visible"/><clipPath id="b"><use xlink:href="#a" overflow="visible"/></clipPath><path fill="#9A5853" d="M24.818 170.161l-2.694 2.605c.87-.847 1.174-2.237 1.131-4.196l2.689-2.604c.049 1.959-.258 3.35-1.126 4.195" clip-path="url(#b)" enable-background="new"/><path fill="#E37F68" d="M21.483 131.259c6.473.015 11.645 4.347 11.711 11.129.179 7.796.357 15.596.532 23.396.223 6.942-4.834 11.939-11.651 12.142l-.449.005c-6.582-.016-11.664-4.726-11.749-11.479l-.535-23.396c-.229-6.973 4.935-11.593 11.665-11.791l.476-.006zm4.462 34.707c-.175-7.674-.348-15.343-.525-23.015-.076-3.3-1.059-4.89-3.986-4.899l-.272.006c-3.138.086-4.105 1.729-4.028 5.124l.528 23.018c.075 3.3 1.062 4.933 4.001 4.94l.257-.005c3.133-.09 4.104-1.775 4.025-5.169"/><g enable-background="new"><defs><path id="c" d="M46.758 147.473l-2.692 2.604-.13.009 2.695-2.604.127-.009z" enable-background="new"/></defs><clipPath id="d"><use xlink:href="#c" overflow="visible"/></clipPath><path fill="#955747" d="M46.758 147.473l-2.692 2.604-.13.009 2.695-2.604.127-.009" clip-path="url(#d)" enable-background="new"/></g><path fill="#E37F68" d="M63.036 128.75c.346 15.131.69 30.268 1.038 45.401-2.708.314-4.061.464-6.77.747-3.522-9.144-7.039-18.281-10.546-27.426l-.127.008c.213 9.455.43 18.911.647 28.364-2.805.235-4.211.347-7.027.544-.345-15.134-.686-30.27-1.032-45.404 2.883-.204 4.322-.313 7.211-.559 3.344 8.362 6.695 16.719 10.056 25.079l.125-.015c-.197-8.657-.396-17.314-.592-25.97 2.808-.293 4.207-.445 7.017-.769zM91.587 124.838c.064 2.716.096 4.075.157 6.789-3.004.47-4.503.699-7.511 1.136.293 12.874.589 25.742.879 38.615-3.103.456-4.656.672-7.762 1.098l-.882-38.612c-3.007.412-4.506.607-7.517.983-.06-2.717-.09-4.076-.154-6.792 7.614-.976 15.207-2.057 22.79-3.217z"/><defs><path id="e" d="M77.35 172.476l-2.69 2.604-.882-38.613 2.69-2.603.882 38.612z"/></defs><use fill="#C05D52" xlink:href="#e" overflow="visible"/><clipPath id="f"><use xlink:href="#e" overflow="visible"/></clipPath><path fill="#C05D52" d="M77.35 172.476l-2.69 2.604-.882-38.613 2.69-2.603.882 38.612" clip-path="url(#f)" enable-background="new"/><defs><path id="g" d="M114.463 166.612l-2.69 2.603-.461-20.124 2.689-2.604c.156 6.705.312 13.414.462 20.125z"/></defs><use fill="#C05D52" xlink:href="#g" overflow="visible"/><clipPath id="h"><use xlink:href="#g" overflow="visible"/></clipPath><path fill="#C05D52" d="M114.463 166.612l-2.69 2.603-.461-20.124 2.689-2.604c.156 6.705.312 13.414.462 20.125" clip-path="url(#h)" enable-background="new"/><path fill="#E37F68" d="M121.187 119.824c.341 15.133.691 30.271 1.036 45.404-3.106.562-4.658.837-7.76 1.384-.15-6.711-.306-13.42-.462-20.126-3.303.58-4.949.865-8.255 1.423.152 6.709.305 13.416.462 20.124-3.106.526-4.652.784-7.762 1.283-.344-15.134-.693-30.267-1.038-45.402 3.106-.503 4.661-.76 7.759-1.286.142 6.164.283 12.325.423 18.49 3.307-.561 4.954-.845 8.26-1.422-.142-6.165-.282-12.329-.427-18.493 3.107-.541 4.655-.819 7.764-1.379zM148.204 114.815c.061 2.718.096 4.075.161 6.794-4.338.815-8.672 1.629-13.01 2.437.087 3.898.177 7.794.268 11.697 3.335-.621 6.67-1.248 10.005-1.875l.153 6.794c-3.336.624-6.667 1.249-10.003 1.871.102 4.442.201 8.889.302 13.334 4.63-.866 9.256-1.734 13.884-2.604.062 2.717.091 4.077.155 6.795-7.213 1.354-14.423 2.703-21.639 4.03-.347-15.137-.695-30.266-1.038-45.405 6.924-1.271 13.847-2.565 20.762-3.868zM176.854 109.503l.157 6.791c-4.632.841-9.257 1.69-13.886 2.551.084 3.897.177 7.798.262 11.697 3.465-.645 6.926-1.282 10.385-1.915.066 2.718.097 4.077.159 6.793-3.463.633-6.925 1.27-10.386 1.914.154 6.705.305 13.415.46 20.123-3.101.576-4.655.866-7.759 1.447-.343-15.132-.687-30.27-1.036-45.405 7.213-1.348 14.427-2.685 21.644-3.996zM202.506 105.115c.06 2.718.093 4.076.155 6.795-4.344.69-8.68 1.413-13.017 2.161.093 3.895.177 7.796.266 11.695 3.334-.573 6.675-1.133 10.016-1.677.063 2.718.096 4.076.154 6.795-3.342.541-6.676 1.104-10.011 1.674.101 4.446.2 8.892.302 13.334 4.625-.791 9.259-1.557 13.895-2.305.063 2.718.097 4.077.15 6.795-7.226 1.164-14.439 2.387-21.648 3.656-.338-15.135-.684-30.271-1.037-45.404 6.916-1.221 13.836-2.396 20.775-3.519z"/><g enable-background="new"><defs><path id="i" d="M215.792 120.191l-2.693 2.605-.123.015 2.69-2.604.126-.016z" enable-background="new"/></defs><clipPath id="j"><use xlink:href="#i" overflow="visible"/></clipPath><path fill="#955747" d="M215.792 120.191l-2.693 2.605-.123.015 2.69-2.604.126-.016" clip-path="url(#j)" enable-background="new"/></g><defs><path id="k" d="M226.327 147.186l-2.688 2.604c-3.507-8.999-7.021-17.996-10.54-26.993l2.693-2.605c3.519 8.996 7.034 17.994 10.535 26.994z"/></defs><use fill="#C05D52" xlink:href="#k" overflow="visible"/><clipPath id="l"><use xlink:href="#k" overflow="visible"/></clipPath><path fill="#C05D52" d="M226.327 147.186l-2.688 2.604c-3.507-8.999-7.021-17.996-10.54-26.993l2.693-2.605c3.519 8.996 7.034 17.994 10.535 26.994" clip-path="url(#l)" enable-background="new"/><path fill="#E37F68" d="M232.055 100.93c.347 15.135.696 30.274 1.038 45.404-2.703.326-4.058.501-6.766.852-3.501-9-7.017-17.998-10.535-26.995l-.126.016c.219 9.455.431 18.91.646 28.363-2.804.403-4.207.614-7.013 1.048-.342-15.137-.687-30.272-1.036-45.407 2.882-.441 4.318-.656 7.197-1.074 3.357 8.223 6.705 16.445 10.053 24.668l.127-.016c-.2-8.656-.4-17.316-.598-25.975 2.81-.365 4.209-.546 7.013-.884zM251.347 98.349c6.366.016 10.613 5.264 10.691 11.626l.08 3.332c-3.115.199-4.669.314-7.779.563l-.079-3.523c-.084-3.629-1.693-5.162-3.565-5.167l-.321.015c-3.134.275-4.099 2.014-4.021 5.407.17 7.673.347 15.346.525 23.021.071 3.128.961 4.675 3.553 4.681.22 0 .456-.01.702-.032 2.819-.248 3.719-1.951 3.656-4.909-.054-2.184-.078-3.281-.128-5.468 3.109-.25 4.664-.363 7.777-.561l.118 5.216c.203 6.823-4.623 11.897-11.273 12.514-.447.041-.887.062-1.325.062-6.031-.015-10.792-4.053-10.847-10.518-.18-7.798-.361-15.595-.531-23.393-.205-7.003 4.821-12.19 11.638-12.813.382-.037.759-.053 1.129-.053zM288.006 97.29c.063 2.714.093 4.074.15 6.79-4.352.001-8.706.078-13.053.221.085 3.9.176 7.798.266 11.698 3.345-.111 6.691-.181 10.042-.208.063 2.718.095 4.075.155 6.79-3.349.028-6.699.1-10.043.207.102 4.449.2 8.892.307 13.335 4.642-.134 9.287-.208 13.937-.218l.153 6.791c-7.253.021-14.48.21-21.72.551l-1.035-45.403c6.942-.332 13.882-.522 20.841-.554z"/><defs><path id="m" d="M64.073 174.152l-2.694 2.604c-2.707.312-4.058.463-6.765.744l2.689-2.602c2.709-.282 4.062-.432 6.77-.746z"/></defs><use fill="#9A5853" xlink:href="#m" overflow="visible"/><clipPath id="n"><use xlink:href="#m" overflow="visible"/></clipPath><path fill="#9A5853" d="M64.073 174.152l-2.694 2.604c-2.707.312-4.058.463-6.765.744l2.689-2.602c2.709-.282 4.062-.432 6.77-.746" clip-path="url(#n)" enable-background="new"/><defs><path id="o" d="M47.278 175.845l-2.694 2.603c-2.805.237-4.209.347-7.021.545l2.688-2.604c2.815-.197 4.222-.308 7.027-.544z"/></defs><use fill="#9A5853" xlink:href="#o" overflow="visible"/><clipPath id="p"><use xlink:href="#o" overflow="visible"/></clipPath><path fill="#9A5853" d="M47.278 175.845l-2.694 2.603c-2.805.237-4.209.347-7.021.545l2.688-2.604c2.815-.197 4.222-.308 7.027-.544" clip-path="url(#p)" enable-background="new"/><defs><path id="q" d="M91.744 131.627l-2.691 2.603c-3.003.47-4.508.699-7.512 1.136l2.691-2.603c3.009-.437 4.508-.666 7.512-1.136z"/></defs><use fill="#9A5853" xlink:href="#q" overflow="visible"/><clipPath id="r"><use xlink:href="#q" overflow="visible"/></clipPath><path fill="#9A5853" d="M91.744 131.627l-2.691 2.603c-3.003.47-4.508.699-7.512 1.136l2.691-2.603c3.009-.437 4.508-.666 7.512-1.136" clip-path="url(#r)" enable-background="new"/><defs><path id="s" d="M76.468 133.864l-2.69 2.603c-3.007.411-4.511.608-7.516.985l2.689-2.604c3.011-.377 4.51-.573 7.517-.984z"/></defs><use fill="#9A5853" xlink:href="#s" overflow="visible"/><clipPath id="t"><use xlink:href="#s" overflow="visible"/></clipPath><path fill="#9A5853" d="M76.468 133.864l-2.69 2.603c-3.007.411-4.511.608-7.516.985l2.689-2.604c3.011-.377 4.51-.573 7.517-.984" clip-path="url(#t)" enable-background="new"/><defs><path id="u" d="M85.112 171.378l-2.689 2.604c-3.106.455-4.659.673-7.763 1.098l2.69-2.604c3.106-.426 4.659-.642 7.762-1.098z"/></defs><use fill="#9A5853" xlink:href="#u" overflow="visible"/><clipPath id="v"><use xlink:href="#u" overflow="visible"/></clipPath><path fill="#9A5853" d="M85.112 171.378l-2.689 2.604c-3.106.455-4.659.673-7.763 1.098l2.69-2.604c3.106-.426 4.659-.642 7.762-1.098" clip-path="url(#v)" enable-background="new"/><defs><path id="w" d="M114.001 146.486l-2.689 2.604c-3.303.579-4.954.864-8.26 1.421l2.694-2.603c3.307-.557 4.952-.842 8.255-1.422z"/></defs><use fill="#9A5853" xlink:href="#w" overflow="visible"/><clipPath id="x"><use xlink:href="#w" overflow="visible"/></clipPath><path fill="#9A5853" d="M114.001 146.486l-2.689 2.604c-3.303.579-4.954.864-8.26 1.421l2.694-2.603c3.307-.557 4.952-.842 8.255-1.422" clip-path="url(#x)" enable-background="new"/><defs><path id="y" d="M122.223 165.228l-2.694 2.606c-3.103.557-4.653.834-7.756 1.38l2.69-2.603c3.102-.546 4.654-.821 7.76-1.383z"/></defs><use fill="#9A5853" xlink:href="#y" overflow="visible"/><clipPath id="z"><use xlink:href="#y" overflow="visible"/></clipPath><path fill="#9A5853" d="M122.223 165.228l-2.694 2.606c-3.103.557-4.653.834-7.756 1.38l2.69-2.603c3.102-.546 4.654-.821 7.76-1.383" clip-path="url(#z)" enable-background="new"/><defs><path id="A" d="M106.208 168.033l-2.694 2.604c-3.102.524-4.653.784-7.759 1.283l2.691-2.604c3.11-.499 4.656-.757 7.762-1.283z"/></defs><use fill="#9A5853" xlink:href="#A" overflow="visible"/><clipPath id="B"><use xlink:href="#A" overflow="visible"/></clipPath><path fill="#9A5853" d="M106.208 168.033l-2.694 2.604c-3.102.524-4.653.784-7.759 1.283l2.691-2.604c3.11-.499 4.656-.757 7.762-1.283" clip-path="url(#B)" enable-background="new"/><defs><path id="C" d="M148.365 121.609l-2.691 2.603c-4.339.815-8.674 1.629-13.012 2.435l2.693-2.601c4.338-.807 8.672-1.622 13.01-2.437z"/></defs><use fill="#9A5853" xlink:href="#C" overflow="visible"/><clipPath id="D"><use xlink:href="#C" overflow="visible"/></clipPath><path fill="#9A5853" d="M148.365 121.609l-2.691 2.603c-4.339.815-8.674 1.629-13.012 2.435l2.693-2.601c4.338-.807 8.672-1.622 13.01-2.437" clip-path="url(#D)" enable-background="new"/><defs><path id="E" d="M145.781 140.663l-2.693 2.604c-3.333.625-6.666 1.248-10.002 1.871l2.692-2.604c3.336-.622 6.667-1.247 10.003-1.871z"/></defs><use fill="#9A5853" xlink:href="#E" overflow="visible"/><clipPath id="F"><use xlink:href="#E" overflow="visible"/></clipPath><path fill="#9A5853" d="M145.781 140.663l-2.693 2.604c-3.333.625-6.666 1.248-10.002 1.871l2.692-2.604c3.336-.622 6.667-1.247 10.003-1.871" clip-path="url(#F)" enable-background="new"/><defs><path id="G" d="M150.12 160.059l-2.691 2.604c-7.213 1.353-14.426 2.703-21.642 4.03l2.694-2.604c7.216-1.327 14.426-2.676 21.639-4.03z"/></defs><use fill="#9A5853" xlink:href="#G" overflow="visible"/><clipPath id="H"><use xlink:href="#G" overflow="visible"/></clipPath><path fill="#9A5853" d="M150.12 160.059l-2.691 2.604c-7.213 1.353-14.426 2.703-21.642 4.03l2.694-2.604c7.216-1.327 14.426-2.676 21.639-4.03" clip-path="url(#H)" enable-background="new"/><defs><path id="I" d="M177.011 116.294l-2.694 2.605c-4.626.837-9.256 1.688-13.888 2.548l2.696-2.602c4.629-.86 9.254-1.71 13.886-2.551z"/></defs><use fill="#9A5853" xlink:href="#I" overflow="visible"/><clipPath id="J"><use xlink:href="#I" overflow="visible"/></clipPath><path fill="#9A5853" d="M177.011 116.294l-2.694 2.605c-4.626.837-9.256 1.688-13.888 2.548l2.696-2.602c4.629-.86 9.254-1.71 13.886-2.551" clip-path="url(#J)" enable-background="new"/><defs><path id="K" d="M173.931 135.421l-2.691 2.603c-3.462.633-6.923 1.269-10.385 1.912l2.69-2.601c3.461-.644 6.923-1.281 10.386-1.914z"/></defs><use fill="#9A5853" xlink:href="#K" overflow="visible"/><clipPath id="L"><use xlink:href="#K" overflow="visible"/></clipPath><path fill="#9A5853" d="M173.931 135.421l-2.691 2.603c-3.462.633-6.923 1.269-10.385 1.912l2.69-2.601c3.461-.644 6.923-1.281 10.386-1.914" clip-path="url(#L)" enable-background="new"/><defs><path id="M" d="M164.005 157.458l-2.688 2.604c-3.103.574-4.662.863-7.76 1.446l2.689-2.604c3.104-.579 4.658-.869 7.759-1.446z"/></defs><use fill="#9A5853" xlink:href="#M" overflow="visible"/><clipPath id="N"><use xlink:href="#M" overflow="visible"/></clipPath><path fill="#9A5853" d="M164.005 157.458l-2.688 2.604c-3.103.574-4.662.863-7.76 1.446l2.689-2.604c3.104-.579 4.658-.869 7.759-1.446" clip-path="url(#N)" enable-background="new"/><defs><path id="O" d="M202.661 111.91l-2.688 2.603c-4.346.69-8.685 1.413-13.017 2.161l2.688-2.603c4.337-.748 8.673-1.471 13.017-2.161z"/></defs><use fill="#9A5853" xlink:href="#O" overflow="visible"/><clipPath id="P"><use xlink:href="#O" overflow="visible"/></clipPath><path fill="#9A5853" d="M202.661 111.91l-2.688 2.603c-4.346.69-8.685 1.413-13.017 2.161l2.688-2.603c4.337-.748 8.673-1.471 13.017-2.161" clip-path="url(#P)" enable-background="new"/><defs><path id="Q" d="M200.08 130.883l-2.689 2.603c-3.343.541-6.682 1.101-10.016 1.674l2.694-2.603c3.335-.57 6.669-1.133 10.011-1.674z"/></defs><use fill="#9A5853" xlink:href="#Q" overflow="visible"/><clipPath id="R"><use xlink:href="#Q" overflow="visible"/></clipPath><path fill="#9A5853" d="M200.08 130.883l-2.689 2.603c-3.343.541-6.682 1.101-10.016 1.674l2.694-2.603c3.335-.57 6.669-1.133 10.011-1.674" clip-path="url(#R)" enable-background="new"/><defs><path id="S" d="M204.416 150.381l-2.688 2.604c-7.229 1.164-14.443 2.389-21.649 3.656l2.689-2.604c7.209-1.269 14.422-2.492 21.648-3.656z"/></defs><use fill="#9A5853" xlink:href="#S" overflow="visible"/><clipPath id="T"><use xlink:href="#S" overflow="visible"/></clipPath><path fill="#9A5853" d="M204.416 150.381l-2.688 2.604c-7.229 1.164-14.443 2.389-21.649 3.656l2.689-2.604c7.209-1.269 14.422-2.492 21.648-3.656" clip-path="url(#T)" enable-background="new"/><defs><path id="U" d="M233.093 146.334l-2.69 2.605c-2.709.323-4.058.498-6.764.85l2.688-2.604c2.708-.35 4.063-.524 6.766-.851z"/></defs><use fill="#9A5853" xlink:href="#U" overflow="visible"/><clipPath id="V"><use xlink:href="#U" overflow="visible"/></clipPath><path fill="#9A5853" d="M233.093 146.334l-2.69 2.605c-2.709.323-4.058.498-6.764.85l2.688-2.604c2.708-.35 4.063-.524 6.766-.851" clip-path="url(#V)" enable-background="new"/><defs><path id="W" d="M216.312 148.571l-2.69 2.604c-2.802.404-4.209.615-7.011 1.046l2.688-2.602c2.805-.434 4.209-.645 7.013-1.048z"/></defs><use fill="#9A5853" xlink:href="#W" overflow="visible"/><clipPath id="X"><use xlink:href="#W" overflow="visible"/></clipPath><path fill="#9A5853" d="M216.312 148.571l-2.69 2.604c-2.802.404-4.209.615-7.011 1.046l2.688-2.602c2.805-.434 4.209-.645 7.013-1.048" clip-path="url(#X)" enable-background="new"/><defs><path id="Y" d="M262.118 113.307l-2.693 2.606c-3.112.197-4.67.312-7.775.56l2.689-2.604c3.11-.247 4.664-.363 7.779-.562z"/></defs><use fill="#9A5853" xlink:href="#Y" overflow="visible"/><clipPath id="Z"><use xlink:href="#Y" overflow="visible"/></clipPath><path fill="#9A5853" d="M262.118 113.307l-2.693 2.606c-3.112.197-4.67.312-7.775.56l2.689-2.604c3.11-.247 4.664-.363 7.779-.562" clip-path="url(#Z)" enable-background="new"/><defs><path id="aa" d="M288.156 104.08l-2.688 2.603c-4.358 0-8.706.078-13.062.221l2.697-2.603c4.347-.144 8.702-.22 13.053-.221z"/></defs><use fill="#9A5853" xlink:href="#aa" overflow="visible"/><clipPath id="ab"><use xlink:href="#aa" overflow="visible"/></clipPath><path fill="#9A5853" d="M288.156 104.08l-2.688 2.603c-4.358 0-8.706.078-13.062.221l2.697-2.603c4.347-.144 8.702-.22 13.053-.221" clip-path="url(#ab)" enable-background="new"/><defs><path id="ac" d="M285.566 122.58l-2.69 2.604c-3.349.028-6.7.099-10.042.208l2.689-2.604c3.344-.108 6.695-.18 10.043-.208z"/></defs><use fill="#9A5853" xlink:href="#ac" overflow="visible"/><clipPath id="ad"><use xlink:href="#ac" overflow="visible"/></clipPath><path fill="#9A5853" d="M285.566 122.58l-2.69 2.604c-3.349.028-6.7.099-10.042.208l2.689-2.604c3.344-.108 6.695-.18 10.043-.208" clip-path="url(#ad)" enable-background="new"/><defs><path id="ae" d="M289.92 142.696l-2.688 2.604c-7.253.021-14.482.21-21.72.551l2.688-2.604c7.239-.341 14.467-.531 21.72-.551z"/></defs><use fill="#9A5853" xlink:href="#ae" overflow="visible"/><clipPath id="af"><use xlink:href="#ae" overflow="visible"/></clipPath><path fill="#9A5853" d="M289.92 142.696l-2.688 2.604c-7.253.021-14.482.21-21.72.551l2.688-2.604c7.239-.341 14.467-.531 21.72-.551" clip-path="url(#af)" enable-background="new"/><g enable-background="new"><defs><path id="ag" d="M15.561 141.633l2.689-2.604c.635-.616 1.575-.936 2.912-.971l.272-.006c2.927.009 3.91 1.599 3.986 4.899.177 7.672.351 15.341.525 23.015l-2.689 2.604c-.175-7.674-.353-15.343-.525-23.017-.076-3.298-1.062-4.888-3.988-4.894l-.271.003c-1.336.039-2.278.356-2.911.971z" enable-background="new"/></defs><use fill="#C05D52" xlink:href="#ag" overflow="visible"/><clipPath id="ah"><use xlink:href="#ag" overflow="visible"/></clipPath><path fill="#C05D52" d="M25.945 165.966l-2.689 2.604c-.175-7.674-.353-15.343-.525-23.017-.076-3.298-1.062-4.888-3.988-4.894l-.271.003c-1.336.038-2.278.355-2.912.971l2.689-2.604c.635-.616 1.575-.936 2.912-.971l.272-.006c2.927.009 3.91 1.599 3.986 4.899.178 7.673.351 15.341.526 23.015" clip-path="url(#ah)" enable-background="new"/></g><defs><path id="ai" d="M30.311 174.612l-2.688 2.603c-2.075 2.009-4.952 3.219-8.239 3.315l-.445.008c-6.582-.02-11.668-4.731-11.75-11.485-.18-7.797-.36-15.597-.536-23.394-.116-3.502 1.131-6.412 3.25-8.465l2.692-2.603c-2.123 2.054-3.367 4.963-3.252 8.465l.535 23.396c.085 6.754 5.167 11.464 11.749 11.479l.449-.005c3.285-.097 6.16-1.307 8.235-3.314z"/></defs><use fill="#9A5853" xlink:href="#ai" overflow="visible"/><clipPath id="aj"><use xlink:href="#ai" overflow="visible"/></clipPath><path fill="#9A5853" d="M30.311 174.612l-2.688 2.603c-2.075 2.009-4.952 3.219-8.239 3.315l-.445.008c-6.582-.02-11.668-4.731-11.75-11.485-.18-7.797-.36-15.597-.536-23.394-.116-3.502 1.131-6.412 3.25-8.465l2.692-2.603c-2.123 2.054-3.367 4.963-3.252 8.465l.535 23.396c.085 6.754 5.167 11.464 11.749 11.479l.449-.005c3.285-.097 6.16-1.307 8.235-3.314" clip-path="url(#aj)" enable-background="new"/><g enable-background="new"><defs><path id="ak" d="M56.61 155.491l-2.689 2.602c-.204-8.657-.396-17.313-.597-25.971l2.694-2.601.592 25.97z" enable-background="new"/></defs><use fill="#C05D52" xlink:href="#ak" overflow="visible"/><clipPath id="al"><use xlink:href="#ak" overflow="visible"/></clipPath><path fill="#C05D52" d="M56.61 155.491l-2.689 2.602c-.204-8.657-.396-17.313-.597-25.971l2.694-2.601.592 25.97" clip-path="url(#al)" enable-background="new"/></g><g enable-background="new"><defs><path id="am" d="M57.304 174.899l-2.689 2.602c-3.525-9.139-7.044-18.281-10.549-27.424l2.692-2.604c3.507 9.145 7.023 18.282 10.546 27.426z" enable-background="new"/></defs><use fill="#C05D52" xlink:href="#am" overflow="visible"/><clipPath id="an"><use xlink:href="#am" overflow="visible"/></clipPath><path fill="#C05D52" d="M57.304 174.899l-2.689 2.602c-3.525-9.139-7.044-18.281-10.549-27.424l2.692-2.604c3.507 9.145 7.023 18.282 10.546 27.426" clip-path="url(#an)" enable-background="new"/></g><g enable-background="new"><defs><path id="ao" d="M40.251 176.389l-2.688 2.604c-.345-15.134-.696-30.27-1.037-45.405l2.693-2.603c.346 15.135.687 30.27 1.032 45.404z" enable-background="new"/></defs><use fill="#C05D52" xlink:href="#ao" overflow="visible"/><clipPath id="ap"><use xlink:href="#ao" overflow="visible"/></clipPath><path fill="#C05D52" d="M40.251 176.389l-2.688 2.604c-.345-15.134-.696-30.27-1.037-45.405l2.693-2.603c.346 15.135.687 30.27 1.032 45.404" clip-path="url(#ap)" enable-background="new"/></g><g enable-background="new"><defs><path id="aq" d="M68.951 134.847l-2.689 2.604c-.063-2.718-.096-4.077-.156-6.795l2.691-2.602c.064 2.717.094 4.076.154 6.793z" enable-background="new"/></defs><use fill="#C05D52" xlink:href="#aq" overflow="visible"/><clipPath id="ar"><use xlink:href="#aq" overflow="visible"/></clipPath><path fill="#C05D52" d="M68.951 134.847l-2.689 2.604c-.063-2.718-.096-4.077-.156-6.795l2.691-2.602c.064 2.717.094 4.076.154 6.793" clip-path="url(#ar)" enable-background="new"/></g><g enable-background="new"><defs><path id="as" d="M113.851 139.695l-2.694 2.603c-.137-6.164-.279-12.327-.421-18.491l2.688-2.604c.144 6.163.285 12.328.427 18.492z" enable-background="new"/></defs><use fill="#C05D52" xlink:href="#as" overflow="visible"/><clipPath id="at"><use xlink:href="#as" overflow="visible"/></clipPath><path fill="#C05D52" d="M113.851 139.695l-2.694 2.603c-.137-6.164-.279-12.327-.421-18.491l2.688-2.604c.144 6.163.285 12.328.427 18.492" clip-path="url(#at)" enable-background="new"/></g><g enable-background="new"><defs><path id="au" d="M98.446 169.316l-2.691 2.604c-.345-15.135-.692-30.268-1.035-45.403l2.688-2.603c.345 15.135.695 30.268 1.038 45.402z" enable-background="new"/></defs><use fill="#C05D52" xlink:href="#au" overflow="visible"/><clipPath id="av"><use xlink:href="#au" overflow="visible"/></clipPath><path fill="#C05D52" d="M98.446 169.316l-2.691 2.604c-.345-15.135-.692-30.268-1.035-45.403l2.688-2.603c.345 15.135.695 30.268 1.038 45.402" clip-path="url(#av)" enable-background="new"/></g><g enable-background="new"><defs><path id="aw" d="M128.481 164.089l-2.694 2.604c-.345-15.137-.69-30.27-1.036-45.403l2.692-2.605c.343 15.139.691 30.268 1.038 45.404z" enable-background="new"/></defs><use fill="#C05D52" xlink:href="#aw" overflow="visible"/><clipPath id="ax"><use xlink:href="#aw" overflow="visible"/></clipPath><path fill="#C05D52" d="M128.481 164.089l-2.694 2.604c-.345-15.137-.69-30.27-1.036-45.403l2.692-2.605c.343 15.139.691 30.268 1.038 45.404" clip-path="url(#ax)" enable-background="new"/></g><g enable-background="new"><defs><path id="ay" d="M156.246 158.906l-2.689 2.604c-.342-15.134-.688-30.27-1.035-45.405l2.688-2.604c.35 15.135.693 30.273 1.036 45.405z" enable-background="new"/></defs><use fill="#C05D52" xlink:href="#ay" overflow="visible"/><clipPath id="az"><use xlink:href="#ay" overflow="visible"/></clipPath><path fill="#C05D52" d="M156.246 158.906l-2.689 2.604c-.342-15.134-.688-30.27-1.035-45.405l2.688-2.604c.35 15.135.693 30.273 1.036 45.405" clip-path="url(#az)" enable-background="new"/></g><g enable-background="new"><defs><path id="aA" d="M182.768 154.038l-2.689 2.604c-.338-15.136-.686-30.271-1.036-45.403l2.688-2.605c.353 15.133.699 30.269 1.037 45.404z" enable-background="new"/></defs><use fill="#C05D52" xlink:href="#aA" overflow="visible"/><clipPath id="aB"><use xlink:href="#aA" overflow="visible"/></clipPath><path fill="#C05D52" d="M182.768 154.038l-2.689 2.604c-.338-15.136-.686-30.271-1.036-45.403l2.688-2.605c.353 15.133.699 30.269 1.037 45.404" clip-path="url(#aB)" enable-background="new"/></g><g enable-background="new"><defs><path id="aC" d="M225.64 127.79l-2.694 2.604-.592-25.977 2.688-2.602c.197 8.658.397 17.319.598 25.975z" enable-background="new"/></defs><use fill="#C05D52" xlink:href="#aC" overflow="visible"/><clipPath id="aD"><use xlink:href="#aC" overflow="visible"/></clipPath><path fill="#C05D52" d="M225.64 127.79l-2.694 2.604-.592-25.977 2.688-2.602c.197 8.658.397 17.319.598 25.975" clip-path="url(#aD)" enable-background="new"/></g><g enable-background="new"><defs><path id="aE" d="M209.299 149.619l-2.688 2.602c-.347-15.135-.691-30.27-1.041-45.405l2.693-2.604c.349 15.135.694 30.27 1.036 45.407z" enable-background="new"/></defs><use fill="#C05D52" xlink:href="#aE" overflow="visible"/><clipPath id="aF"><use xlink:href="#aE" overflow="visible"/></clipPath><path fill="#C05D52" d="M209.299 149.619l-2.688 2.602c-.347-15.135-.691-30.27-1.041-45.405l2.693-2.604c.349 15.135.694 30.27 1.036 45.407" clip-path="url(#aF)" enable-background="new"/></g><g enable-background="new"><defs><path id="aG" d="M244.851 108.878l2.693-2.602c.634-.614 1.55-.971 2.829-1.082l.321-.015c1.872.005 3.481 1.537 3.565 5.167l.079 3.523-2.689 2.604-.081-3.523c-.084-3.628-1.692-5.16-3.564-5.165l-.325.011c-1.277.115-2.196.47-2.828 1.082z" enable-background="new"/></defs><use fill="#C05D52" xlink:href="#aG" overflow="visible"/><clipPath id="aH"><use xlink:href="#aG" overflow="visible"/></clipPath><path fill="#C05D52" d="M254.339 113.87l-2.689 2.604-.081-3.523c-.084-3.628-1.692-5.16-3.564-5.165l-.325.011c-1.276.115-2.195.469-2.828 1.082l2.693-2.602c.634-.614 1.55-.971 2.829-1.082l.321-.015c1.872.005 3.481 1.537 3.565 5.167l.079 3.523" clip-path="url(#aH)" enable-background="new"/></g><g enable-background="new"><defs><path id="aI" d="M253.663 137.281l-2.693 2.603c.855-.829 1.166-2.148 1.124-3.917-.048-2.186-.074-3.283-.128-5.468l2.694-2.604c.05 2.188.074 3.284.128 5.468.038 1.768-.268 3.089-1.125 3.918z" enable-background="new"/></defs><use fill="#C05D52" xlink:href="#aI" overflow="visible"/><clipPath id="aJ"><use xlink:href="#aI" overflow="visible"/></clipPath><path fill="#C05D52" d="M253.663 137.281l-2.693 2.603c.855-.829 1.166-2.148 1.124-3.917-.048-2.186-.074-3.283-.128-5.468l2.694-2.604c.05 2.188.074 3.284.128 5.468.038 1.768-.268 3.089-1.125 3.918" clip-path="url(#aJ)" enable-background="new"/></g><defs><path id="aK" d="M259 141.637l-2.69 2.604c-1.977 1.91-4.652 3.142-7.717 3.425-.447.042-.887.063-1.326.061-6.033-.013-10.79-4.051-10.847-10.515l-.536-23.395c-.104-3.75 1.283-6.98 3.646-9.269.897-.866 1.797-1.735 2.693-2.604-2.362 2.289-3.758 5.519-3.644 9.269.17 7.798.352 15.595.531 23.393.055 6.465 4.815 10.503 10.847 10.518.438 0 .878-.021 1.325-.062 3.068-.283 5.741-1.514 7.718-3.425z"/></defs><use fill="#9A5853" xlink:href="#aK" overflow="visible"/><clipPath id="aL"><use xlink:href="#aK" overflow="visible"/></clipPath><path fill="#9A5853" d="M259 141.637l-2.69 2.604c-1.977 1.91-4.652 3.142-7.717 3.425-.447.042-.887.063-1.326.061-6.033-.013-10.79-4.051-10.847-10.515l-.536-23.395c-.104-3.75 1.283-6.98 3.646-9.269l2.693-2.604c-2.362 2.289-3.758 5.519-3.644 9.269.17 7.798.352 15.595.531 23.393.055 6.465 4.815 10.503 10.847 10.518.438 0 .878-.021 1.325-.062 3.068-.283 5.741-1.514 7.718-3.425" clip-path="url(#aL)" enable-background="new"/><g enable-background="new"><defs><path id="aM" d="M268.2 143.247l-2.688 2.604c-.346-15.136-.693-30.271-1.038-45.405l2.691-2.601 1.035 45.402z" enable-background="new"/></defs><use fill="#C05D52" xlink:href="#aM" overflow="visible"/><clipPath id="aN"><use xlink:href="#aM" overflow="visible"/></clipPath><path fill="#C05D52" d="M268.2 143.247l-2.688 2.604c-.346-15.136-.693-30.271-1.038-45.405l2.691-2.601 1.035 45.402" clip-path="url(#aN)" enable-background="new"/></g><path fill="#E95C35" d="M32.711 138.947l-3.624 3.313s-.141 18.539-.141 25.247c0 4.021-1.092 4.9-1.092 4.9l2.834 1.982s3.216-3.499 2.918-7.927c-.418-6.281-.17-17.08-.193-22.541-.018-3.984-.702-4.974-.702-4.974z" opacity=".77"/><path fill="#E96449" d="M14.918 137.498l2.781 2.293s-.541.884-.534 2.358c.003 2.25.233 19.542.563 25.029.149 2.529 1.346 3.231 1.346 3.231l-2.788 2.383s-2.074-1.71-2.04-6.465c.039-5.094-.325-20.208-.325-24.526 0-2.518.997-4.303.997-4.303z" opacity=".77"/><path fill="#E95A3D" d="M25.366 142.121l3.09-2.477s-1.21-4.357-4.333-4.853c-2.292-.365-3.75-.716-5.806 0-3.066 1.076-3.49 2.737-3.49 2.737l2.849 2.314s.55-.958 1.22-1.248c1.563-.681 3.447-.735 4.809-.016 1.515.802 1.661 3.543 1.661 3.543z" opacity=".77"/><path fill="#E96449" d="M244.106 104.854l2.783 2.294s-.542.881-.538 2.354c.008 2.25.236 19.542.564 25.029.15 2.53 1.349 3.231 1.349 3.231l-2.793 2.386s-2.071-1.712-2.039-6.47c.037-5.095-.322-20.202-.322-24.523 0-2.515.996-4.301.996-4.301z"/><path fill="#E8755F" d="M248.265 137.764l-2.877 2.469s2.036 1.719 3.199 1.853c2.309.264 2.991.17 5.048-.548 2.396-.837 3.295-1.993 3.295-1.993l-3.032-2.537s-.488.729-1.875 1.121c-.547.154-1.554.296-2.664.057-.565-.123-1.094-.422-1.094-.422z"/><path fill="#E96449" d="M245.419 140.175l-3.032 2.23s1.277 1.446 3.914 2.161c3.058.829 5.88.903 9.692-.841 3.226-1.482 6.162-5 6.496-9.256.191-2.419-.052-7.135-.052-7.135l-3.516 4.528s-.627 5.824-1.445 7.009c-1.513 2.201-4.883 3.228-6.014 3.296-4.711.281-6.043-1.992-6.043-1.992z"/><path fill="#F0947D" d="M243.736 106.038l-3.071-2.25s1.54-2.482 4.499-3.94c2.439-1.203 6.629-2.364 10.438-.617 3.226 1.48 5.996 4.656 6.401 9.843.196 2.421.099 4.425.099 4.425l-3.518-4.528s-.979-3.814-1.795-5c-1.512-2.204-5.852-2.346-6.984-2.414-4.71-.28-6.069 4.481-6.069 4.481z"/><path fill="#E95A3D" d="M254.339 113.87l3.67-5.146s.154-5.729-4.731-6.899c-2.259-.543-3.519-.675-5.571.041-3.071 1.076-3.688 3.016-3.688 3.016l2.842 2.315s.665-1.111 1.327-1.42c.902-.418 2.425-.703 3.893-.229 1.883.609 2.172 4.405 2.218 6.655.014.983.04 1.667.04 1.667z"/><path fill="#E8755F" d="M230.371 141.777l-1.32.154-2.724 5.255 6.766-.852zM212.722 144.294l-3.423 5.325 7.013-1.048z"/><path fill="#F0947D" d="M212.617 111.542l1.262-.251 1.581-8.153-7.197 1.073zM258.725 132.156l3.713-4.822-7.778.561z"/><path fill="#E8755F" d="M258.221 108.471l-3.882 5.399 7.779-.563z"/><path fill="#E96449" d="M232.055 100.93l-3.197 6.687 1.513 34.16 2.722 4.557zM215.666 120.208l-3.049-8.666.14 32.984 3.555 4.045zM225.64 127.79l4.731 13.761-1.32.38z"/><path fill="#E8755F" d="M215.666 120.208l-3.13-8.833 1.343-.084z"/><path fill="#E96449" d="M190.069 132.557l-3.896-2.505.251 19.887 3.947-4.048z"/><path fill="#F0947D" d="M186.005 111.654l-4.275-3.021 1.038 45.405 3.663-3.961zM271.006 100.914l-3.841-3.07 1.035 45.403 3.288-3.378z"/><path fill="#E96449" d="M189.686 114.077l-3.59-2.679.077 18.654 3.737-4.286z"/><path fill="#EA6444" d="M198.905 148.004l5.511 2.377-.15-6.795zM195.987 128.682l4.093 2.201-.154-6.795z"/><path fill="#E95A3D" d="M186.535 149.939l-3.767 4.099 21.648-3.657-5.372-2.433z"/><path fill="none" stroke="#fff" stroke-width=".673" stroke-miterlimit="10" d="M29.204 166.398c0 3.719-.465 7.279-6.584 8.308-.538.092-1.411.065-2.169-.063-3.83-.635-6.14-2.774-6.14-7.4l-.397-23.753c0-3.718.057-8.053 5.45-9 .643-.113 2.606-.059 2.606-.059 4.513.051 6.755 3.178 6.755 6.896l.479 25.071z"/><path fill="#E96449" d="M275.523 122.787l-4.43-3.195.309 20.25 4.428-3.719zM275.104 104.301l-4.285-3.533.274 18.824 4.276-3.593z"/><path fill="#EA6444" d="M284.053 139.603l5.867 3.093-.153-6.791zM281.148 119.282l4.418 3.298-.155-6.789zM283.519 100.353l4.637 3.727-.15-6.79z"/><path fill="#E95A3D" d="M271.554 139.77l-3.354 3.477s8.367-.312 11.138-.384c2.658-.068 10.582-.167 10.582-.167l-5.867-3.093-12.499.167zM270.955 100.829l4.148 3.472s3.593-.064 6.367-.134c2.657-.067 6.686-.087 6.686-.087l-4.571-3.698-12.63.447z"/><path fill="#EA6444" d="M198.035 109.44l4.626 2.47-.155-6.795z"/><path fill="#E95A3D" d="M185.845 111.458l3.841 2.619 12.975-2.167-4.49-2.449zM186.239 130.151l3.872 2.429 9.969-1.697-4.093-2.201zM163.545 137.335l-3.598-2.948.171 19.687 3.887 3.384z"/><path fill="#E96449" d="M163.125 118.846l-3.426-3.105.419 18.729 3.269-3.928z"/><path fill="#EA6444" d="M156.246 158.906l7.759-1.448-3.847-3.594zM98.446 169.316l7.762-1.283-4.229-2.837zM114.463 166.612l7.76-1.384-3.783-3.455z"/><path fill="#E95A3D" d="M169.738 133.06l4.193 2.361-.16-6.793z"/><path fill="#EA6444" d="M172.591 113.835l4.42 2.459-.157-6.791z"/><path fill="#E95A3D" d="M159.699 115.741l3.426 3.105 13.886-2.552-4.42-2.459z"/><path fill="#E96449" d="M160.02 134.456l3.525 2.879 10.386-1.914-3.52-2.361zM101.896 145.254l3.926 2.694 8.179-1.462 4.246-3.644z"/><path fill="#E95A3D" d="M215.46 103.138l-1.581 8.153 15.428 30.427-3.794-13.912z"/><path fill="#F0947D" d="M43.012 137.178l1.753-.24 1.665-6.512-7.211.559zM59.815 135.846l3.221-7.096-7.018.771z"/><path fill="#E96449" d="M63.036 128.75l-3.125 6.798 1.515 34.16 2.647 4.444zM46.63 147.481l-3.351-10.276.534 35.253 3.465 3.387zM56.486 155.505l4.774 14.162-1.156.198z"/><path fill="#E8755F" d="M46.63 147.481l-3.378-10.192 1.375-.253z"/><path fill="#E95A3D" d="M46.43 130.426l-1.747 6.863 15.678 32.365-3.875-14.149z"/><g fill="none" stroke="#fff" stroke-width=".673" stroke-miterlimit="10"><path d="M284.053 100.353l-13.172.485.511 39.068 13.077-.346M271.214 119.528l10.481-.329"/></g><g fill="none" stroke="#fff" stroke-width=".673" stroke-miterlimit="10"><path d="M198.359 109.41l-12.408 2.047.473 38.545 12.789-2.123M186.451 130.052l9.968-1.444"/></g><path fill="#E96449" d="M135.781 142.588l-3.793-2.864.255 19.883 3.838-3.739z"/><path fill="#E95C35" d="M105.746 147.909l-4.019-2.711.21 20.15 4.271 2.685zM121.187 119.824l-3.31 4.306.593 37.81 3.753 3.288z"/><path fill="#F0947D" d="M144.018 119.031l4.186-4.216-20.761 3.87 4.405 2.533z"/><path fill="#E96449" d="M135.355 124.046l-3.443-2.978.076 18.656 3.635-3.981zM105.167 122.628l-3.779 5.197.339 17.373 3.863-4.08z"/><path fill="#EA6444" d="M144.638 157.608l5.482 2.451-.155-6.795zM141.803 138.352l3.978 2.311-.153-6.795z"/><path fill="#E95A3D" d="M132.351 159.607l-3.87 4.482 21.639-4.03-5.261-2.442z"/><path fill="#EA6444" d="M143.852 119.11l4.513 2.499-.161-6.794z"/><path fill="#E95A3D" d="M131.657 121.127l3.698 2.919 13.01-2.437-4.381-2.479zM132.058 139.821l3.723 2.767 10-1.925-3.978-2.311z"/><g fill="none" stroke="#fff" stroke-width=".673" stroke-miterlimit="10"><path d="M144.177 119.079l-12.412 2.046.478 38.546 12.785-2.121M132.269 139.724l9.96-1.449"/></g><path fill="#EA6444" d="M88.896 129.043l2.848 2.584-.157-6.789zM68.797 128.055l.154 6.792 3.685-3.617zM81.449 167.872l-4.099 4.604 7.762-1.098z"/><path fill="#E95C35" d="M84.233 132.764l-3.437-2.564.589 37.693 3.727 3.485z"/><path fill="#E96449" d="M91.744 131.627l-2.848-2.584-8.265 1.311 3.602 2.41zM68.914 134.891l3.722-3.661 8.16-.904-4.374 3.555z"/><path fill="#F0947D" d="M88.896 129.043l2.691-4.205-22.79 3.217 3.902 3.204zM105.167 122.628l-7.759 1.286 3.98 3.911zM118.215 142.672l-4.364-2.977-8.261 1.423-3.99 4.292zM121.187 119.824l-7.763 1.379 4.539 3.423zM172.591 113.835l4.263-4.332-21.644 3.997 4.489 2.241z"/><g fill="none" stroke="#fff" stroke-width=".669" stroke-miterlimit="10"><path d="M72.347 131.209s4.487-.486 8.188-.998c3.808-.529 8.608-1.269 8.608-1.269M80.857 130.188l.614 38.084"/></g><g fill="none" stroke="#fff" stroke-width=".673" stroke-miterlimit="10"><path d="M172.71 113.646l-13.011 2.095.474 38.549M160.202 134.337l9.967-1.448"/></g><path fill="none" stroke="#fff" stroke-width=".673" stroke-miterlimit="10" d="M101.385 127.494l.613 38.087M117.877 124.13l.613 38.084M101.59 145.254l16.544-2.469M228.688 107.224l1.39 34.566-1.027.141-15.161-30.728-1.354.172.197 33.421M59.743 135.157l1.387 34.567-1.026.141-15.498-32.748-1.354.172.537 35.438M258.179 108.934c0-4.414-2.524-7.657-7.741-7.488-7.04.228-7.443 6.252-7.352 10.377.211 9.325.428 14.738.643 24.062.084 3.805 2.9 6.322 6.049 6.283 9.37-.112 9.001-6.895 8.919-10.49"/></svg>