<?xml version="1.0" encoding="utf-8"?><svg xmlns="http://www.w3.org/2000/svg" width="45" height="40" viewBox="0 0 45 40"><linearGradient id="a" x1="-87.334" x2="-69.595" y1="2552.308" y2="2602.817" gradientUnits="userSpaceOnUse" gradientTransform="matrix(-1 0 0 -1 -59.414 2589.99)"><stop offset="0" stop-color="#CA9C57"/><stop offset=".063" stop-color="#BC8F50"/><stop offset=".246" stop-color="#996F3F"/><stop offset=".432" stop-color="#7D5631"/><stop offset=".619" stop-color="#6A4428"/><stop offset=".807" stop-color="#5E3A22"/><stop offset="1" stop-color="#5A3620"/></linearGradient><path fill="url(#a)" d="M1.271 32.063c-3.67-8.427 6.458-22.916 18.557-28.296 12.036-5.355 19.794-.972 23.467 7.456 3.671 8.43-3.954 17.477-15.99 22.832-12.101 5.381-22.361 6.438-26.034-1.992z"/><radialGradient id="b" cx="25.241" cy="19.53" r="33.104" gradientTransform="matrix(.664 .748 -.748 .664 23.09 -12.312)" gradientUnits="userSpaceOnUse"><stop offset="0" stop-color="#fff"/><stop offset=".135" stop-color="#F5F1ED"/><stop offset=".405" stop-color="#DACEBF"/><stop offset=".782" stop-color="#AF9676"/><stop offset="1" stop-color="#957348"/></radialGradient><path fill="url(#b)" d="M13.271 38.948c-4.986 0-8.411-2.059-10.179-6.12-3.723-8.546 6.749-22.28 17.614-27.113 3.345-1.488 6.486-2.243 9.335-2.243 5.949 0 10.688 3.359 13.346 9.459 3.336 7.661-2.783 16.524-15.226 22.057-5.905 2.628-10.915 3.96-14.89 3.96z"/><path fill="#371D13" d="M30.041 4.18c6.122 0 10.333 3.606 12.698 9.034 3.39 7.785-3.694 16.161-14.865 21.127-5.435 2.418-10.47 3.898-14.603 3.898-4.403 0-7.781-1.68-9.53-5.694-3.391-7.782 6.024-21.19 17.252-26.183 3.378-1.503 6.393-2.181 9.048-2.182m.001-1.415v1.415-1.415h-.002c-2.95 0-6.188.775-9.623 2.304-11.384 5.063-21.915 18.997-17.975 28.042 1.865 4.281 5.609 6.545 10.828 6.545 4.075 0 9.182-1.354 15.178-4.021 12.827-5.702 19.09-14.94 15.587-22.985-2.777-6.375-7.747-9.885-13.993-9.885z"/><radialGradient id="c" cx="-779.511" cy="2266.678" r="17.155" gradientTransform="matrix(-.915 .403 -.403 -.915 222.319 2409.579)" gradientUnits="userSpaceOnUse"><stop offset="0" stop-color="#34455F"/><stop offset=".11" stop-color="#373F59"/><stop offset=".472" stop-color="#3F3047"/><stop offset="1" stop-color="#311A11"/></radialGradient><path fill="url(#c)" d="M5.225 31.425c-3.2-7.268 5.59-19.745 16.1-24.37 10.458-4.603 17.204-.819 20.404 6.448 3.197 7.271-3.419 15.059-13.879 19.662-10.509 4.627-19.428 5.529-22.625-1.74z"/><radialGradient id="d" cx="-787.796" cy="2267.483" r="8.912" fx="-787.955" fy="2267.635" gradientTransform="matrix(-.915 .403 -.403 -.915 222.319 2409.579)" gradientUnits="userSpaceOnUse"><stop offset="0" stop-color="#477962"/><stop offset=".234" stop-color="#4A675E"/><stop offset=".7" stop-color="#523A53"/><stop offset="1" stop-color="#57194B"/></radialGradient><path fill="url(#d)" d="M5.225 31.425c-3.2-7.268 5.59-19.745 16.1-24.37 10.458-4.603 17.204-.819 20.404 6.448 3.197 7.271-3.419 15.059-13.879 19.662-10.509 4.627-19.428 5.529-22.625-1.74z" opacity=".58"/><radialGradient id="e" cx="425.223" cy="2565.117" r="5.655" gradientTransform="matrix(1 0 0 -1 -399.563 2589.99)" gradientUnits="userSpaceOnUse"><stop offset="0" stop-color="#477962"/><stop offset=".274" stop-color="#406756"/><stop offset=".819" stop-color="#2D3A36"/><stop offset="1" stop-color="#26292A"/></radialGradient><path fill="url(#e)" d="M5.225 31.425c-3.2-7.268 5.59-19.745 16.1-24.37 10.458-4.603 17.204-.819 20.404 6.448 3.197 7.271-3.419 15.059-13.879 19.662-10.509 4.627-19.428 5.529-22.625-1.74z" opacity=".58"/><radialGradient id="f" cx="414.903" cy="2566.391" r="8.161" gradientTransform="matrix(1 0 0 -1 -399.563 2589.99)" gradientUnits="userSpaceOnUse"><stop offset="0" stop-color="#477962"/><stop offset=".221" stop-color="#3E6755"/><stop offset=".659" stop-color="#273A33"/><stop offset="1" stop-color="#131216"/></radialGradient><path fill="url(#f)" d="M5.225 31.425c-3.2-7.268 5.59-19.745 16.1-24.37 10.458-4.603 17.204-.819 20.404 6.448 3.197 7.271-3.419 15.059-13.879 19.662-10.509 4.627-19.428 5.529-22.625-1.74z" opacity=".58"/><radialGradient id="g" cx="417.454" cy="2556.075" r="4.309" gradientTransform="matrix(1 0 0 -1 -399.563 2589.99)" gradientUnits="userSpaceOnUse"><stop offset="0" stop-color="#477962"/><stop offset=".221" stop-color="#3E6755"/><stop offset=".659" stop-color="#273A33"/><stop offset="1" stop-color="#131216"/></radialGradient><path fill="url(#g)" d="M5.225 31.425c-3.2-7.268 5.59-19.745 16.1-24.37 10.458-4.603 17.204-.819 20.404 6.448 3.197 7.271-3.419 15.059-13.879 19.662-10.509 4.627-19.428 5.529-22.625-1.74z" opacity=".58"/><radialGradient id="h" cx="423.312" cy="2576.579" r="3.854" gradientTransform="matrix(1 0 0 -1 -399.563 2589.99)" gradientUnits="userSpaceOnUse"><stop offset="0" stop-color="#477962"/><stop offset=".221" stop-color="#3E6755"/><stop offset=".659" stop-color="#273A33"/><stop offset="1" stop-color="#131216"/></radialGradient><path fill="url(#h)" d="M5.225 31.425c-3.2-7.268 5.59-19.745 16.1-24.37 10.458-4.603 17.204-.819 20.404 6.448 3.197 7.271-3.419 15.059-13.879 19.662-10.509 4.627-19.428 5.529-22.625-1.74z" opacity=".58"/><radialGradient id="i" cx="427.39" cy="2572.632" r="14.152" gradientTransform="matrix(1 0 0 -1 -399.563 2589.99)" gradientUnits="userSpaceOnUse"><stop offset="0" stop-color="#fff"/><stop offset=".365" stop-color="#9EA49F"/><stop offset=".672" stop-color="#545E55"/><stop offset=".891" stop-color="#263328"/><stop offset="1" stop-color="#142216"/></radialGradient><path fill="url(#i)" d="M5.229 31.425c-3.196-7.268 5.594-19.745 16.104-24.37 10.455-4.603 17.205-.819 20.402 6.448 3.199 7.271-3.417 15.059-13.876 19.662-10.511 4.627-19.427 5.529-22.63-1.74z" opacity=".22"/><radialGradient id="j" cx="427.292" cy="2573.905" r="17.407" gradientTransform="matrix(1 0 0 -1 -399.563 2589.99)" gradientUnits="userSpaceOnUse"><stop offset="0" stop-color="#fff"/><stop offset=".099" stop-color="#EDF6F3"/><stop offset=".297" stop-color="#BFE0D4"/><stop offset=".574" stop-color="#76BBA1"/><stop offset=".577" stop-color="#75BBA1"/><stop offset=".859" stop-color="#3B6084"/><stop offset="1" stop-color="#55382E"/></radialGradient><path fill="url(#j)" d="M5.225 31.425c-3.2-7.268 5.59-19.745 16.1-24.37 10.458-4.603 17.204-.819 20.404 6.448 3.197 7.271-3.419 15.059-13.879 19.662-10.509 4.627-19.428 5.529-22.625-1.74z" opacity=".58"/><circle cx="15.016" cy="31.701" r="1.651" fill="#392116"/><radialGradient id="k" cx="15.016" cy="2558.716" r="1.165" gradientTransform="matrix(1 0 0 -1 0 2589.99)" gradientUnits="userSpaceOnUse"><stop offset="0" stop-color="#fff"/><stop offset=".135" stop-color="#F5F1ED"/><stop offset=".405" stop-color="#DACEBF"/><stop offset=".782" stop-color="#AF9676"/><stop offset="1" stop-color="#957348"/></radialGradient><circle cx="15.016" cy="31.275" r="1.165" fill="url(#k)"/><circle cx="10.77" cy="30.285" r="1.651" fill="#392116"/><radialGradient id="l" cx="10.77" cy="2560.131" r="1.165" gradientTransform="matrix(1 0 0 -1 0 2589.99)" gradientUnits="userSpaceOnUse"><stop offset="0" stop-color="#fff"/><stop offset=".135" stop-color="#F5F1ED"/><stop offset=".405" stop-color="#DACEBF"/><stop offset=".782" stop-color="#AF9676"/><stop offset="1" stop-color="#957348"/></radialGradient><circle cx="10.769" cy="29.859" r="1.165" fill="url(#l)"/><circle cx="20.678" cy="30.285" r="1.652" fill="#392116"/><radialGradient id="m" cx="20.678" cy="2560.131" r="1.165" gradientTransform="matrix(1 0 0 -1 0 2589.99)" gradientUnits="userSpaceOnUse"><stop offset="0" stop-color="#fff"/><stop offset=".135" stop-color="#F5F1ED"/><stop offset=".405" stop-color="#DACEBF"/><stop offset=".782" stop-color="#AF9676"/><stop offset="1" stop-color="#957348"/></radialGradient><circle cx="20.678" cy="29.859" r="1.165" fill="url(#m)"/><circle cx="26.34" cy="27.453" r="1.651" fill="#392116"/><radialGradient id="n" cx="26.34" cy="2562.963" r="1.165" gradientTransform="matrix(1 0 0 -1 0 2589.99)" gradientUnits="userSpaceOnUse"><stop offset="0" stop-color="#fff"/><stop offset=".135" stop-color="#F5F1ED"/><stop offset=".405" stop-color="#DACEBF"/><stop offset=".782" stop-color="#AF9676"/><stop offset="1" stop-color="#957348"/></radialGradient><circle cx="26.34" cy="27.027" r="1.164" fill="url(#n)"/></svg>