<?xml version="1.0" encoding="utf-8"?><svg xmlns="http://www.w3.org/2000/svg" width="40" height="40" xmlns:xlink="http://www.w3.org/1999/xlink" viewBox="0 0 40 40"><defs><path id="a" d="M0 0h40v40h-40z"/></defs><clipPath id="b"><use xlink:href="#a" overflow="visible"/></clipPath><g clip-path="url(#b)"><defs><path id="c" d="M0 0h40v40h-40z"/></defs><clipPath id="d"><use xlink:href="#c" overflow="visible"/></clipPath><path fill="none" d="M0 0h40v40h-40zM0 0h40v40h-40z" clip-path="url(#d)"/><path fill="#EDDBAE" d="M80 0h-102v21.846c2-3.021 7.665-4.846 9.968.154h.018c2.559 3 7.642 3 10.201 0h.017c2.559-5 7.677-5 10.238 0h.018c2.562 3 7.645 3 10.203 0h.018c2.557-5 7.679-5 10.235 0h.019c2.566 3 7.645 3 10.201 0h.02c2.562-5 7.686-5 10.242 0h.019c2.56 3 7.648 3 10.193 0h.023c2.559-5 7.682-5 10.242 0h.019c2.568 3 8.106 5.372 10.106 1.22v-23.220000000000002z" clip-path="url(#d)"/><path fill="none" d="M0 0h40v40h-40zM0 0h40v40h-40z" clip-path="url(#d)"/></g></svg>