<?xml version="1.0" encoding="utf-8"?><svg xmlns="http://www.w3.org/2000/svg" width="200" height="265" xmlns:xlink="http://www.w3.org/1999/xlink" viewBox="0 0 200 265"><path fill="#C05D51" d="M23.199 165.158l-4.452 4.914-.17.03 4.45-4.914zM27.947 191.896l-4.452 4.913-4.748-26.737 4.452-4.914zM31.841 215.037l-4.451 4.913-2.165-13.842 4.453-4.915z"/><path fill="#9B5752" d="M42.307 213.4l-4.451 4.915-10.466 1.635 4.451-4.913zM29.678 201.193l-4.453 4.915-11.863 1.854 4.453-4.914zM16.136 217.491l-4.453 4.913-10.466 1.642 4.453-4.913z"/><path fill="#EF836E" d="M29.616 151.391l12.691 62.01-10.466 1.637-2.163-13.844-11.863 1.854-1.68 14.443-10.465 1.642 10.51-65.64 13.436-2.102zm-10.392 41.868l8.723-1.362-4.749-26.738-.171.03-3.803 28.07"/><path fill="#C05D51" d="M5.67 219.133l-4.453 4.913 10.51-65.639 4.453-4.914z"/><path fill="#9B5752" d="M62.546 155.283l-4.45 4.914-4.103.642 4.453-4.914z"/><defs><path id="a" d="M76.456 172.336l-4.451 4.914c-.897.987-1.948 1.852-3.167 2.54l4.453-4.915c1.217-.688 2.269-1.55 3.165-2.539z"/></defs><use fill="#9B5752" xlink:href="#a" overflow="visible"/><clipPath id="b"><use xlink:href="#a" overflow="visible"/></clipPath><path fill="#9B5752" d="M76.456 172.336l-4.451 4.914c-.897.987-1.948 1.852-3.167 2.54l4.453-4.915c1.217-.688 2.269-1.55 3.165-2.539" clip-path="url(#b)" enable-background="new"/><defs><path id="c" d="M67.499 169.91l-4.451 4.913c1.444-1.597 2.313-3.871 2.264-6.716-.091-5.273-1.94-8.026-5.735-8.032-.465 0-.96.039-1.481.122l4.451-4.914c.524-.081 1.018-.124 1.482-.121 3.795.006 5.646 2.758 5.734 8.031.05 2.846-.816 5.12-2.264 6.717z"/></defs><use fill="#9B5752" xlink:href="#c" overflow="visible"/><clipPath id="d"><use xlink:href="#c" overflow="visible"/></clipPath><path fill="#9B5752" d="M67.499 169.91l-4.451 4.913c1.444-1.597 2.313-3.871 2.264-6.716-.091-5.273-1.94-8.026-5.735-8.032-.465 0-.96.039-1.481.122l4.451-4.914c.524-.081 1.018-.124 1.482-.121 3.795.006 5.646 2.758 5.734 8.031.05 2.846-.816 5.12-2.264 6.717" clip-path="url(#d)" enable-background="new"/><path fill="#9B5752" d="M62.383 181.548l-4.453 4.914-3.489.545 4.453-4.915z"/><defs><path id="e" d="M69.151 198.42c-1.486 1.638-2.969 3.275-4.452 4.914 1.7-1.879 2.362-4.697 2.299-8.457-.097-5.678-1.995-8.604-6.723-8.613-.716-.001-1.496.064-2.345.198l4.454-4.914c.848-.134 1.628-.198 2.344-.198 4.727.008 6.625 2.935 6.723 8.612.063 3.76-.599 6.58-2.3 8.458z"/></defs><use fill="#9B5752" xlink:href="#e" overflow="visible"/><clipPath id="f"><use xlink:href="#e" overflow="visible"/></clipPath><path fill="#9B5752" d="M69.151 198.42l-4.452 4.914c1.7-1.879 2.362-4.697 2.299-8.457-.097-5.678-1.995-8.604-6.723-8.613-.716-.001-1.496.064-2.345.198l4.454-4.914c.848-.134 1.628-.198 2.344-.198 4.727.008 6.625 2.935 6.723 8.612.063 3.76-.599 6.58-2.3 8.458" clip-path="url(#f)" enable-background="new"/><defs><path id="g" d="M77.431 203.931l-4.452 4.914c-2.648 2.924-6.489 4.992-11.767 5.816l4.452-4.914c5.277-.823 9.118-2.892 11.767-5.816z"/></defs><use fill="#9B5752" xlink:href="#g" overflow="visible"/><clipPath id="h"><use xlink:href="#g" overflow="visible"/></clipPath><path fill="#9B5752" d="M77.431 203.931l-4.452 4.914c-2.648 2.924-6.489 4.992-11.767 5.816l4.452-4.914c5.277-.823 9.118-2.892 11.767-5.816" clip-path="url(#h)" enable-background="new"/><path fill="#9B5752" d="M65.664 209.747l-4.452 4.914-17.094 2.679 4.45-4.914z"/><path fill="#EF836E" d="M73.291 174.875c5.539 1.615 8.84 5.53 8.981 13.753.179 10.52-4.306 19.198-16.608 21.119l-17.095 2.679-1.093-63.828 16.048-2.509c1.531-.239 2.954-.356 4.265-.354 8.637.015 12.609 5.182 12.77 14.622.093 5.477-2.071 11.581-7.268 14.518zm-9.525 26.132c5.758-.901 7.794-4.587 7.685-11.045-.098-5.678-1.997-8.604-6.723-8.612-.716 0-1.497.064-2.344.198l-3.49.544.336 19.624 4.536-.709m-5.32-45.082l.292 17.148 3.923-.61c4.101-.643 7.193-3.964 7.101-9.27-.089-5.273-1.939-8.025-5.734-8.031-.464-.003-.958.04-1.482.121l-4.1.642"/><path fill="#C05D51" d="M48.568 212.426l-4.45 4.914-1.095-63.829 4.453-4.913z"/><defs><path id="i" d="M95.836 155.196l4.454-4.913c.886-.981 2.197-1.6 4.049-1.887.544-.086 1.045-.129 1.502-.127 3.192.004 4.3 2.119 4.372 6.293l-4.452 4.916c-.072-4.177-1.179-6.292-4.372-6.296-.457 0-.957.042-1.502.127-1.852.289-3.161.908-4.051 1.887z"/></defs><use fill="#9B5752" xlink:href="#i" overflow="visible"/><clipPath id="j"><use xlink:href="#i" overflow="visible"/></clipPath><path fill="#9B5752" d="M110.213 154.563l-4.452 4.916c-.072-4.177-1.179-6.292-4.372-6.296-.457 0-.957.042-1.502.127-1.852.288-3.161.907-4.05 1.887l4.454-4.913c.886-.981 2.197-1.6 4.049-1.887.544-.086 1.045-.129 1.502-.127 3.191.003 4.299 2.119 4.371 6.293" clip-path="url(#j)" enable-background="new"/><defs><path id="k" d="M87.986 149.663l4.454-4.915c-3.175 3.506-4.644 8.148-4.561 13.043l-4.451 4.913c-.084-4.894 1.384-9.537 4.558-13.041z"/></defs><use fill="#C05D51" xlink:href="#k" overflow="visible"/><clipPath id="l"><use xlink:href="#k" overflow="visible"/></clipPath><path fill="#C05D51" d="M87.879 157.791l-4.451 4.913c-.084-4.895 1.384-9.537 4.558-13.041l4.454-4.915c-3.175 3.506-4.644 8.148-4.561 13.043" clip-path="url(#l)" enable-background="new"/><path fill="#C05D51" d="M110.769 186.919l-4.456 4.914-.552-32.354 4.452-4.916z"/><defs><path id="m" d="M109.176 193.003l-4.453 4.914c1.209-1.331 1.639-3.334 1.591-6.084l4.455-4.914c.044 2.751-.386 4.752-1.593 6.084z"/></defs><use fill="#C05D51" xlink:href="#m" overflow="visible"/><clipPath id="n"><use xlink:href="#m" overflow="visible"/></clipPath><path fill="#C05D51" d="M109.176 193.003l-4.453 4.914c1.209-1.331 1.639-3.334 1.591-6.084l4.455-4.914c.044 2.751-.386 4.752-1.593 6.084" clip-path="url(#n)" enable-background="new"/><path fill="#C05D51" d="M88.444 190.679l-4.453 4.914-.563-32.889 4.451-4.913z"/><defs><path id="o" d="M117.033 198.532l-4.452 4.915c-2.673 2.948-6.554 5.093-11.734 5.903-1.275.201-2.477.295-3.601.294-8.883-.017-13.118-6.052-13.255-14.052l4.453-4.914c.136 7.998 4.373 14.035 13.255 14.051 1.123.002 2.324-.092 3.6-.291 5.181-.812 9.061-2.957 11.734-5.906z"/></defs><use fill="#9B5752" xlink:href="#o" overflow="visible"/><clipPath id="p"><use xlink:href="#o" overflow="visible"/></clipPath><path fill="#9B5752" d="M117.033 198.532l-4.452 4.915c-2.673 2.948-6.554 5.093-11.734 5.903-1.275.201-2.477.295-3.601.294-8.883-.017-13.118-6.052-13.255-14.052l4.453-4.914c.136 7.998 4.373 14.035 13.255 14.051 1.123.002 2.324-.092 3.6-.291 5.181-.812 9.061-2.957 11.734-5.906" clip-path="url(#p)" enable-background="new"/><path fill="#EF836E" d="M107.767 138.553c8.883.016 13.126 6.05 13.262 14.058l.564 32.882c.154 9.018-4.958 17.169-16.294 18.946-1.275.199-2.477.293-3.6.291-8.883-.016-13.12-6.053-13.255-14.051l-.564-32.888c-.154-9.014 4.954-17.172 16.295-18.945 1.272-.2 2.469-.294 3.592-.293zm3.002 48.366l-.556-32.356c-.072-4.174-1.18-6.289-4.372-6.293-.457-.002-.958.041-1.502.127-4.366.678-5.722 3.193-5.639 7.968l.554 32.355c.072 4.178 1.181 6.292 4.385 6.297.455.002.953-.04 1.495-.125 4.359-.685 5.715-3.201 5.635-7.973"/><path fill="#C05D51" d="M152.635 180.46l-4.454 4.915-.825-48.181 4.454-4.914z"/><defs><path id="q" d="M150.919 186.424l-4.451 4.913c1.205-1.329 1.76-3.309 1.713-5.962l4.454-4.915c.044 2.653-.51 4.634-1.716 5.964z"/></defs><use fill="#C05D51" xlink:href="#q" overflow="visible"/><clipPath id="r"><use xlink:href="#q" overflow="visible"/></clipPath><path fill="#C05D51" d="M150.919 186.424l-4.451 4.913c1.205-1.329 1.76-3.309 1.713-5.962l4.454-4.915c.044 2.653-.51 4.634-1.716 5.964" clip-path="url(#r)" enable-background="new"/><path fill="#C05D51" d="M130.298 183.51l-4.452 4.913-.817-47.733 4.45-4.914z"/><defs><path id="s" d="M158.869 192.03l-4.454 4.914c-2.794 3.084-6.779 5.088-11.708 5.857-1.271.198-2.48.297-3.627.294-8.145-.015-13.069-5.063-13.234-14.673l4.452-4.913c.165 9.608 5.089 14.658 13.233 14.672 1.146.003 2.357-.095 3.627-.294 4.93-.769 8.916-2.772 11.711-5.857z"/></defs><use fill="#9B5752" xlink:href="#s" overflow="visible"/><clipPath id="t"><use xlink:href="#s" overflow="visible"/></clipPath><path fill="#9B5752" d="M158.869 192.029l-4.454 4.915c-2.794 3.084-6.779 5.088-11.708 5.857-1.271.198-2.48.297-3.627.294-8.145-.015-13.069-5.063-13.234-14.673l4.452-4.913c.165 9.608 5.089 14.658 13.233 14.672 1.146.003 2.357-.095 3.627-.294 4.93-.769 8.916-2.772 11.711-5.858" clip-path="url(#t)" enable-background="new"/><path fill="#EF836E" d="M162.623 130.589l.818 47.733c.188 10.967-5.988 17.959-16.283 19.565-1.27.199-2.481.297-3.627.294-8.145-.014-13.068-5.063-13.233-14.672l-.818-47.733 10.816-1.69.826 48.175c.069 4.132 1.53 6.185 4.564 6.19.406.001.844-.035 1.308-.108 3.93-.612 5.721-3.201 5.641-7.883l-.825-48.18 10.813-1.691z"/><path fill="#9B5752" d="M200.815 134.19l-4.452 4.915-10.465 1.635 4.452-4.913zM179.533 137.517l-4.451 4.916-10.468 1.639 4.452-4.912z"/><path fill="#C05D51" d="M169.066 139.16l-4.452 4.912-.163-9.551 4.453-4.914z"/><path fill="#EF836E" d="M200.652 124.646l.163 9.544-10.465 1.637.93 54.277-10.815 1.69-.932-54.277-10.467 1.643-.162-9.553z"/><path fill="#9B5752" d="M191.28 190.104l-4.454 4.915-10.815 1.69 4.454-4.915z"/><path fill="#C05D51" d="M180.465 191.794l-4.454 4.915-.929-54.276 4.451-4.916z"/><path fill="#E97560" d="M11.121 211.661l-5.451 7.472 10.466-1.642zM35.853 208.064l-4.012 6.973 10.466-1.637zM185.881 184.665l-5.416 7.129 10.815-1.69z"/><path fill="#EB6444" d="M194.866 131.072l5.949 3.118-.163-9.544zM168.904 129.607l.162 9.553 4.822-5.723z"/><path fill="#EA5B36" d="M119.737 146.004l-4.744 4.973s-.215 27.342-.215 37.235c0 5.935-1.607 7.226-1.607 7.226l4.185 2.925s4.194-4.932 4.194-11.469c0-9.282-.455-24.84-.495-32.893-.029-5.876-1.318-7.997-1.318-7.997z"/><path fill="#EA6449" d="M97.972 197.503l-4.602 4.845s2.814 1.975 5.848 2.319c6.02.69 7.012-.109 12.344-2.061 2.743-1.003 5.793-4.244 5.793-4.244l-4.185-2.925s-1.891 2.571-3.385 3.269c-2.695 1.262-4.761 1.607-8.087 1.147-1.49-.206-3.726-2.35-3.726-2.35zM96.419 148.236l3.223 3.148s-.664.265-.945 2.877c-.299 2.795.474 25.497.474 33.507 0 4.806 1.071 5.715 1.071 5.715l-3.306 3.521s-2.62-2.566-2.62-7.86c0-7.517.293-28.502.293-34.873-.001-3.714 1.81-6.035 1.81-6.035z"/><path fill="#E97560" d="M100.242 193.483l-3.306 3.521s2.414 2.265 4.13 2.462c3.404.39 4.783.187 7.813-.873 3.535-1.234 5.111-3.95 5.111-3.95l-4.197-2.656s-1.045 1.85-3.052 2.535c-1.764.602-2.718.679-4.952.121-.826-.207-1.547-1.16-1.547-1.16z"/><path fill="#EA5A3D" d="M110.213 154.563l4.536-3.571s-1.431-6.334-6.031-7.064c-3.384-.538-4.665-.416-7.694.645-4.526 1.583-4.902 3.74-4.902 3.74l3.521 3.073s.949-1.655 1.938-2.085c2.308-1.004 4.572-1.49 6.577-.43 2.239 1.182 2.055 5.692 2.055 5.692z"/><path fill="none" stroke="#fff" stroke-miterlimit="10" d="M115.5 187.909c0 5.125-.936 9.71-8.826 11.443l-2.964.347c-5.124 0-9.21-4.152-9.21-9.276v-34.072c0-5.122.458-10.229 8.09-12.396l4.376-.434c5.122 0 8.534 4.673 8.534 9.796v34.592z"/><path fill="#EB644B" d="M129.479 135.776l5.462 7.677 5.355-9.367zM151.81 132.28l5.182 6.359 5.631-8.05z"/><path fill="#EA6449" d="M140.296 134.086l-5.354 9.367s.042 28.753.042 39.636c0 4.132 3.249 7.471 3.249 7.471l4.287-3.26s-1.517-2.147-1.517-6.103c0-18.009-.707-47.111-.707-47.111z"/><path fill="#EA5B36" d="M162.623 130.589l-5.631 8.05s-.085 29.873-.085 40.755c0 4.132-1.014 7.885-1.014 7.885l4.037 3.616s3.511-4.11 3.511-12.572c0-18.011-.818-47.734-.818-47.734z"/><path fill="#EA6449" d="M138.232 190.56l-4.29 3.994s2.863 2.94 6.2 3.322c6.623.758 7.03.596 12.896-1.548 3.018-1.102 6.893-5.434 6.893-5.434l-4.226-3.785s-1.971 3.55-3.612 4.319c-2.964 1.386-5.972 2.568-9.629 2.063-1.643-.225-4.232-2.931-4.232-2.931z"/><path fill="none" stroke="#fff" stroke-miterlimit="10" d="M135.5 143v39.21c0 5.741 3.357 11.352 9.1 11.352l2.895-.388c8.837-1.942 9.006-8.039 9.006-13.78v-41.394"/><path fill="#EB644B" d="M53.152 152.335l5.294 3.59s1.97-.41 5.264-.721c1.817-.172 3.497.801 3.497.801l3.037-3.896s-2.866-1.662-7.658-1.302c-5.421.408-9.434 1.528-9.434 1.528zM47.476 148.598l5.676 3.737s6.624-1.298 9.928-1.487c4.829-.276 6.935 1.261 6.935 1.261l3.954-5.101s-2.095-1.933-9.514-.975c-5.389.696-16.979 2.565-16.979 2.565z"/><path fill="#EA5A3D" d="M58.446 155.925l-5.294-3.59.241 26.081 5.331-5.216z"/><path fill="#EA6449" d="M58.961 182.063l-5.294-3.59.413 28.861 5.149-5.618z"/><path fill="#EA5B36" d="M54.165 206.989l-5.597 5.437s16.455-2.487 18.666-2.942c5.846-1.205 8.77-4.041 8.77-4.041l-3.008-4.128s-2.704 2.233-5.331 3.182c-8.34 3.009-13.5 2.492-13.5 2.492z"/><path fill="#EB644B" d="M64.999 176.811s11.164.52 11.435 14.102c.171 8.597-3.354 10.661-3.354 10.661l2.924 3.869s6.277-4.816 6.277-16.422c0-3.385-.345-11.692-8.856-14.1-2.278-.646-8.426 1.89-8.426 1.89z"/><g fill="none" stroke="#fff" stroke-miterlimit="10"><path d="M52.934 152.223l1.032 54.91M52.705 152.395s13.756-3.037 18.34.171c5.918 4.144 3.504 15.103 0 19.146-4.197 4.843-8.481 5.502-8.481 5.502M62.563 177.213s4.814-.916 9.4 2.295c5.918 4.14 5.316 17.354 1.605 21.206-6.077 6.305-19.833 6.533-19.833 6.533M63.237 177.114l-9.844 1.16"/></g><path fill="#EA5A3D" d="M33.274 195.556l-3.596 5.637-11.863 1.855-4.356-5.046z"/><path fill="#EA6449" d="M17.815 203.048l-4.356-5.046-2.368 13.759 5.045 5.73z"/><path fill="#EA5A3D" d="M23.027 165.188l-3.339-6.259-6.188 39.205 5.724-4.875z"/><path fill="#E77762" d="M19.688 158.929l3.44 6.449 2.409-7.137z"/><path fill="#EA5A3D" d="M25.537 158.241l4.079-6.85 12.691 62.009-6.454-5.336z"/><path fill="#E96449" d="M16.18 153.493l3.682 5.694 5.675-.946 4.079-6.85z"/><g fill="none" stroke="#fff" stroke-miterlimit="10"><path d="M11.091 212.234l8.597-53.305M19.346 158.95l6.556-.666M25.537 158.241l10.316 50.382M13.5 198.134l19.603-2.75"/></g><path fill="#EA6449" d="M200.815 134.19l-5.465-3.249-10.685 1.111 5.685 3.775zM169.066 139.16l4.822-5.723 10.777-1.385-5.132 5.465z"/><path fill="#EA5B36" d="M190.35 135.827l-5.685-3.775 1.245 52.726 5.37 5.326z"/><g fill="none" stroke="#fff" stroke-miterlimit="10"><path d="M184.498 132.304l1.412 52.818M195.35 130.941s-5.854.546-10.685 1.11c-4.975.581-11.243 1.389-11.243 1.389"/></g></svg>