<?xml version="1.0" encoding="utf-8"?><svg xmlns="http://www.w3.org/2000/svg" width="1600" height="1080" xmlns:xlink="http://www.w3.org/1999/xlink" viewBox="0 0 1600 1080"><path fill="#EDDBAE" fill-rule="evenodd" d="M964.289 324.285s-17.57 44.032-25.903 72.363c-1.23 4.265-1.405 5.789.241 6.294 1.193.351 2.668-1.958 3.461-5.4 6.668-28.666 22.201-73.257 22.201-73.257zM968.461 326.52s2.703 47.321 1.585 76.858c-.161 4.409-.499 5.934-2.21 5.868-1.25-.05-1.892-2.708-1.562-6.21 2.76-29.29 2.187-76.516 2.187-76.516z" clip-rule="evenodd"/><linearGradient id="a" x1="1947.156" x2="1932.65" y1="357.457" y2="419.582" gradientUnits="userSpaceOnUse" gradientTransform="matrix(.689 .05 -.073 .997 -349.397 -103.634)"><stop offset="0" stop-color="#4D322C"/><stop offset="1" stop-color="#2A1009"/></linearGradient><path fill="url(#a)" d="M965.663 321.818s-30.118 76.464-26.628 83.296c0 0 .505 2.592 3.34 1.898 0 0-1.436 4.434 1.76 8.524 3.234 4.102 6.705-.782 6.705-.782s1.269 5.606 6.058 5.971c4.433.322 5.405-5.841 5.405-5.841s2.367 3.278 5.558-2.466c3.085-5.506.505-90.044.505-90.044l-2.703-.556z"/><radialGradient id="b" cx="956.762" cy="352.103" r="49.776" gradientTransform="matrix(-.268 .964 -.211 -.059 1287.05 -549.138)" gradientUnits="userSpaceOnUse"><stop offset=".27" stop-color="#4D322C"/><stop offset=".439" stop-color="#52372E"/><stop offset=".647" stop-color="#614535"/><stop offset=".875" stop-color="#7A5C41"/><stop offset="1" stop-color="#8B6C49"/></radialGradient><path fill="url(#b)" fill-rule="evenodd" d="M958.908 352.23s-10.795 30.233-16.666 49.556c-.879 2.891-1.004 3.939.12 4.303.812.236 1.835-1.336 2.397-3.672 4.759-19.53 14.149-50.187 14.149-50.187z" clip-rule="evenodd"/><radialGradient id="c" cx="958.449" cy="703.985" r="54.139" gradientTransform="matrix(-.116 .993 -.217 -.025 1223.82 -580.855)" gradientUnits="userSpaceOnUse"><stop offset=".27" stop-color="#4D322C"/><stop offset=".439" stop-color="#52372E"/><stop offset=".647" stop-color="#614535"/><stop offset=".875" stop-color="#7A5C41"/><stop offset="1" stop-color="#8B6C49"/></radialGradient><path fill="url(#c)" fill-rule="evenodd" d="M962.441 353.042s-8.486 36.701-11.309 56.693c-.429 3.028-.393 4.062.789 4.227.842.13 1.591-1.592 1.803-3.972 1.674-20.036 8.717-56.948 8.717-56.948z" clip-rule="evenodd"/><radialGradient id="d" cx="-3287.729" cy="-281.579" r="51.043" gradientTransform="matrix(-.066 1.063 .225 .01 812.301 3847.484)" gradientUnits="userSpaceOnUse"><stop offset=".27" stop-color="#4D322C"/><stop offset=".439" stop-color="#52372E"/><stop offset=".647" stop-color="#614535"/><stop offset=".875" stop-color="#7A5C41"/><stop offset="1" stop-color="#8B6C49"/></radialGradient><path fill="url(#d)" fill-rule="evenodd" d="M965.088 351h.557s-1.367 45.676-1.792 56.501c-.125 3.229.286 4.805-.937 4.772-.874 0-.874-2.528-.638-5.067 1.999-21.321 2.81-56.206 2.81-56.206z" clip-rule="evenodd"/><linearGradient id="e" x1="1037.752" x2="1006.507" y1="251.191" y2="294.745" gradientUnits="userSpaceOnUse"><stop offset=".288" stop-color="#4D322C"/><stop offset=".661" stop-color="#381E17"/><stop offset="1" stop-color="#2A1009"/></linearGradient><path fill="url(#e)" d="M990.574 292.368c2.554-1.5 5.082-2.982 7.643-4.458.837-.475 1.748-.875 2.51-1.5.811-.673 1.292-1.535 1.942-2.328 1.842-2.244 3.354-4.9 4.651-7.443 1.061-2.042 1.686-4.458 2.91-6.375.019 0 8.01-12.512 12.212-11.05 4.169 1.472 2.491 16.643-13.861 30.067 0 0 10.188-3.906 13.937-8.166 0 0 5.969-7.454 5.743 2.135-.206 9.616-21.702 15.548-21.702 15.548s-1.262 1.125.986 1.847c0 0 14.436-6.807 13.93-2.771-.531 4.058-11.525 7.815-16.813 8.464 0 0-3.372.774-1.475 1.649 0 0 6.905-1.505 6.736 1.774-.155 3.284-21.347 5.669-21.347 5.669l1.998-23.062z"/><defs><path id="f" d="M990.574 292.368l10.152-5.905s5.032-5.183 9.504-16.197c0 0 8.01-12.512 12.212-11.05 4.169 1.472 2.491 16.643-13.861 30.067 0 0 10.188-3.906 13.937-8.166 0 0 5.969-7.454 5.743 2.135-.206 9.616-21.702 15.548-21.702 15.548s-1.262 1.125.986 1.847c0 0 14.436-6.807 13.93-2.771-.531 4.058-11.525 7.815-16.813 8.464 0 0-3.372.774-1.475 1.649 0 0 6.905-1.505 6.736 1.774-.155 3.284-9.233 5.895-13.741 6.286-4.458.388-7.605-.617-7.605-.617l1.997-23.064z"/></defs><linearGradient id="g" x1="1037.752" x2="1006.507" y1="251.191" y2="294.745" gradientUnits="userSpaceOnUse"><stop offset=".288" stop-color="#4D322C"/><stop offset=".661" stop-color="#381E17"/><stop offset="1" stop-color="#2A1009"/></linearGradient><use fill="url(#g)" xlink:href="#f" overflow="visible"/><clipPath id="h"><use xlink:href="#f" overflow="visible"/></clipPath><linearGradient id="i" x1="1037.752" x2="1006.507" y1="251.191" y2="294.745" gradientUnits="userSpaceOnUse"><stop offset=".288" stop-color="#4D322C"/><stop offset=".661" stop-color="#381E17"/><stop offset="1" stop-color="#2A1009"/></linearGradient><path fill="url(#i)" d="M990.574 292.368l10.152-5.905s5.032-5.183 9.504-16.197c0 0 8.01-12.512 12.212-11.05 4.169 1.472 2.491 16.643-13.861 30.067 0 0 10.188-3.906 13.937-8.166 0 0 5.969-7.454 5.743 2.135-.206 9.616-21.702 15.548-21.702 15.548s-1.262 1.125.986 1.847c0 0 14.436-6.807 13.93-2.771-.531 4.058-11.525 7.815-16.813 8.464 0 0-3.372.774-1.475 1.649 0 0 6.905-1.505 6.736 1.774-.155 3.284-16.737 6.886-16.737 6.886l-4.609-1.217 1.997-23.064z" clip-path="url(#h)"/><linearGradient id="j" x1="917.804" x2="937.686" y1="230.119" y2="296.015" gradientUnits="userSpaceOnUse"><stop offset=".288" stop-color="#4D322C"/><stop offset=".661" stop-color="#381E17"/><stop offset="1" stop-color="#2A1009"/></linearGradient><path fill="url(#j)" d="M961.455 287.983c-3.533-2.684-7.111-5.405-10.678-8.083-1.186-.88-2.503-1.717-3.496-2.706-1.043-1.086-1.498-2.385-2.222-3.632-2.062-3.393-3.415-7.312-4.521-10.966-.888-2.896-.924-6.218-2.148-9.026 0 0-7.941-18.531-15.391-17.974-7.479.516-11.039 20.41 10.184 42.76 0 0-15.035-8.217-19.405-14.834 0 0-6.731-11.414-10.345.899-3.628 12.31 29.164 26.761 29.164 26.761s1.586 1.833-2.436 2.021c0 0-20.829-13.272-21.64-7.954-.812 5.3 15.671 13.636 24.013 16.127 0 0 5.207 2.062 1.76 2.567 0 0-10.677-4.134-11.8.125-1.093 4.232 32.634 14.032 32.634 14.032l6.327-30.117z"/><defs><path id="k" d="M961.455 287.983l-14.197-10.762s-6.121-8.155-8.867-23.651c0 0-7.941-18.531-15.391-17.974-7.479.516-11.039 20.41 10.184 42.76 0 0-15.035-8.217-19.405-14.834 0 0-6.731-11.414-10.345.899-3.628 12.31 29.164 26.761 29.164 26.761s1.586 1.833-2.436 2.021c0 0-20.829-13.272-21.64-7.954-.812 5.3 15.671 13.636 24.013 16.127 0 0 5.207 2.062 1.76 2.567 0 0-10.677-4.134-11.8.125-1.093 4.232 15.409 10.621 21.315 12.367 4.832 1.41 11.318 1.665 11.318 1.665l6.327-30.117z"/></defs><linearGradient id="l" x1="917.804" x2="937.686" y1="230.119" y2="296.015" gradientUnits="userSpaceOnUse"><stop offset=".288" stop-color="#4D322C"/><stop offset=".661" stop-color="#381E17"/><stop offset="1" stop-color="#2A1009"/></linearGradient><use fill="url(#l)" xlink:href="#k" overflow="visible"/><clipPath id="m"><use xlink:href="#k" overflow="visible"/></clipPath><linearGradient id="n" x1="917.804" x2="937.686" y1="230.119" y2="296.015" gradientUnits="userSpaceOnUse"><stop offset=".288" stop-color="#4D322C"/><stop offset=".661" stop-color="#381E17"/><stop offset="1" stop-color="#2A1009"/></linearGradient><path fill="url(#n)" d="M961.455 287.983l-14.197-10.762s-6.121-8.155-8.867-23.651c0 0-7.941-18.531-15.391-17.974-7.479.516-11.039 20.41 10.184 42.76 0 0-15.035-8.217-19.405-14.834 0 0-6.731-11.414-10.345.899-3.628 12.31 29.164 26.761 29.164 26.761s1.586 1.833-2.436 2.021c0 0-20.829-13.272-21.64-7.954-.812 5.3 15.671 13.636 24.013 16.127 0 0 5.207 2.062 1.76 2.567 0 0-10.677-4.134-11.8.125-1.093 4.232 24.575 14.103 24.575 14.103l8.059-.071 6.326-30.117z" clip-path="url(#m)"/><radialGradient id="o" cx="975.913" cy="272.848" r="54.816" gradientUnits="userSpaceOnUse"><stop offset=".288" stop-color="#4D322C"/><stop offset=".482" stop-color="#7A593F"/><stop offset=".669" stop-color="#A0794E"/><stop offset=".767" stop-color="#AE8554"/></radialGradient><path fill="url(#o)" d="M975.303 258.354s-16.07-1.687-21.703 12.419c-5.655 14.114-4.544 50.141-1.985 53.849 0 0 2.548 11.577 14.386 14.103 11.838 2.548 21.447-18.612 21.447-18.612s24.23-60.33-12.145-61.759z"/><defs><path id="p" d="M975.303 258.354s-16.07-1.687-21.703 12.419c-5.655 14.114-4.544 50.141-1.985 53.849 0 0 2.548 11.577 14.386 14.103 11.838 2.548 21.447-18.612 21.447-18.612s24.23-60.33-12.145-61.759z"/></defs><radialGradient id="q" cx="975.913" cy="272.848" r="54.816" gradientUnits="userSpaceOnUse"><stop offset=".288" stop-color="#4D322C"/><stop offset=".482" stop-color="#7A593F"/><stop offset=".669" stop-color="#A0794E"/><stop offset=".767" stop-color="#AE8554"/></radialGradient><use fill="url(#q)" xlink:href="#p" overflow="visible"/><clipPath id="r"><use xlink:href="#p" overflow="visible"/></clipPath><radialGradient id="s" cx="975.913" cy="272.859" r="54.821" gradientUnits="userSpaceOnUse"><stop offset=".288" stop-color="#4D322C"/><stop offset=".482" stop-color="#7A593F"/><stop offset=".669" stop-color="#A0794E"/><stop offset=".767" stop-color="#AE8554"/></radialGradient><path fill="url(#s)" d="M950.373 322.842s1.404-41.47 6.462-40.351l46.015-8.138-23.151-20.894-28.209 5.368-6.479 60.625 5.362 3.39z" clip-path="url(#r)"/><radialGradient id="t" cx="976.279" cy="283.203" r="19.45" gradientUnits="userSpaceOnUse"><stop offset="0" stop-color="#8B6C49"/><stop offset=".283" stop-color="#86694A"/><stop offset=".613" stop-color="#78604C"/><stop offset=".966" stop-color="#61524F"/><stop offset="1" stop-color="#5E504F"/></radialGradient><path fill="url(#t)" fill-rule="evenodd" d="M980.772 269.154c.786-2.01 1.842-3.895 4.32-4.121 1.837-.176 3.235.519 4.383 1.236.925.581 2.423 1.711 2.796 2.835l.283 1.586c.779 2.184 3.234 3.083 4.082 5.093.606 1.453.058 3.333-.405 4.534-.518 1.429-1.022 2.678-1.46 4.039-.899 2.773-2.055 5.25-3.354 7.586-1.281 2.285-5.651 6.894-6.975 7.617-1.16.636-3.814 2.141-5.369 1.788-1.312-.315-3.521-.44-7.954-3.423-6.145-4.124-10.259-9.143-13.91-15.448-.319-.568-.694-1.198-1.019-1.898-.279-.646-.693-1.717-.48-2.434.23-.788 1.873-1.211 2.622-1.749 1.673-1.198 2.921-2.966 3.321-5.411.219-1.282.438-2.355 1.057-3.279 1.254-1.85 3.626-2.51 6.323-2.317 3.004.245 5.419.942 6.63 3.116.113.212.213.486.37.649 1.018 1.112 3.603 1.326 4.739.001z" clip-rule="evenodd"/><path fill="#211E22" d="M982.258 283.059s.244 3.165-.512 3.727l-5.656 1.836-3.459-1.673-.388-.486.151-.614 4.356-4.52 5.508 1.73z"/><path fill="#0D0000" d="M972.243 286.137s3.354-2.836 7.406-2.836c4.069 0 6.218 1.413 6.218 1.413s-.131-5.981-5.419-6.112c-5.307-.131-8.205 7.535-8.205 7.535zM971.231 285.539s4.446 2.559 11.026.668c0 0-1.468 3.39-5.507 3.564-4.069.163-5.519-4.232-5.519-4.232z"/><radialGradient id="u" cx="962.203" cy="274.551" r="9.591" gradientUnits="userSpaceOnUse"><stop offset="0" stop-color="#EDDBAE"/><stop offset=".225" stop-color="#DEC291"/><stop offset=".551" stop-color="#CAA36B"/><stop offset=".724" stop-color="#C3975D"/></radialGradient><path fill="url(#u)" d="M959.932 277.208c-.699 1.573 1.211 4.284 3.51 5.299 2.266 1.005 3.746.185 4.433-1.41.698-1.592-.737-3.257-3.01-4.262-2.299-1.026-4.241-1.21-4.933.373z"/><radialGradient id="v" cx="-3273.44" cy="275.059" r="9.585" gradientTransform="matrix(-1 0 0 1 -2280.664 0)" gradientUnits="userSpaceOnUse"><stop offset="0" stop-color="#EDDBAE"/><stop offset=".225" stop-color="#DEC291"/><stop offset=".551" stop-color="#CAA36B"/><stop offset=".724" stop-color="#C3975D"/></radialGradient><path fill="url(#v)" d="M995.045 277.708c.699 1.573-1.211 4.316-3.495 5.308-2.279.997-3.735.188-4.433-1.41-.707-1.564.735-3.281 3.01-4.286 2.283-.984 4.219-1.198 4.918.388z"/><radialGradient id="w" cx="968.562" cy="264.685" r="11.201" gradientUnits="userSpaceOnUse"><stop offset=".092" stop-color="#EDDBAE"/><stop offset=".374" stop-color="#DEC291"/><stop offset=".784" stop-color="#CAA36B"/><stop offset="1" stop-color="#C3975D"/></radialGradient><path fill="url(#w)" fill-rule="evenodd" d="M959.73 267.481c.045 1.076 5.634 2.711 9.904 2.529 4.258-.144 5.904-1.342 5.529-3.126-.678-3.485-4.881-1.717-8.597-1.413-4.25.312-6.873.972-6.836 2.01z" clip-rule="evenodd"/><radialGradient id="x" cx="-4097.048" cy="378.019" r="11.223" gradientTransform="matrix(-.727 .001 -.036 .747 -1978.549 -12.14)" gradientUnits="userSpaceOnUse"><stop offset=".092" stop-color="#EDDBAE"/><stop offset=".374" stop-color="#DEC291"/><stop offset=".784" stop-color="#CAA36B"/><stop offset="1" stop-color="#C3975D"/></radialGradient><path fill="url(#x)" fill-rule="evenodd" d="M992.973 267.53c-.062.777-4.183 2.023-7.279 1.912-3.098-.125-4.246-1.024-3.922-2.347.638-2.613 3.62-1.298 6.307-1.076 3.089.231 4.968.712 4.894 1.511z" clip-rule="evenodd"/><path fill="#0D0000" d="M974.467 272.74c0 2.282-1.293 4.131-2.891 4.131-1.605 0-2.891-1.85-2.891-4.131 0-2.325 1.285-4.183 2.891-4.183 1.598 0 2.891 1.858 2.891 4.183z"/><path fill="#fff" d="M973.679 271.066c0 .565-.485 1.035-1.048 1.035-.587 0-1.055-.47-1.055-1.035 0-.57.468-1.057 1.055-1.057.562.001 1.048.487 1.048 1.057z"/><path fill="#0D0000" d="M990.051 272.74c0 2.282-1.611 4.131-3.635 4.131-2.022 0-3.684-1.85-3.684-4.131 0-2.325 1.661-4.183 3.684-4.183s3.635 1.858 3.635 4.183z"/><path fill="#fff" d="M989.014 271.066c0 .565-.474 1.035-1.036 1.035-.601 0-1.048-.47-1.048-1.035 0-.57.447-1.057 1.048-1.057.562.001 1.036.487 1.036 1.057z"/><radialGradient id="y" cx="-80.663" cy="-1686.348" r="16.043" gradientTransform="matrix(.439 .899 -.899 .439 -518.106 1154.868)" gradientUnits="userSpaceOnUse"><stop offset="0" stop-color="#3F2C28"/><stop offset=".131" stop-color="#2D2021"/><stop offset=".356" stop-color="#141018"/><stop offset=".562" stop-color="#050513"/><stop offset=".73" stop-color="#000211"/></radialGradient><path fill="url(#y)" fill-rule="evenodd" d="M960.557 335.098c-.899-.91-4.021-1.885-5.033-1.073-.799.649-1.748 7.704-1.891 8.741-.221 1.635.143 3.271.143 3.271l2.935-5.962s-.624 7.098.544 7.049c.442-.011 1.691-7.473 1.691-7.473l.924 7.698s1.561-.888 1.518-8.136c-.001-1.053-.09-3.37-.831-4.115z" clip-rule="evenodd"/><radialGradient id="z" cx="-73.117" cy="-1698.22" r="16.049" gradientTransform="matrix(.439 .899 -.899 .439 -518.106 1154.868)" gradientUnits="userSpaceOnUse"><stop offset="0" stop-color="#3F2C28"/><stop offset=".131" stop-color="#2D2021"/><stop offset=".356" stop-color="#141018"/><stop offset=".562" stop-color="#050513"/><stop offset=".73" stop-color="#000211"/></radialGradient><path fill="url(#z)" fill-rule="evenodd" d="M974.535 336.671c-.905-.91-4.027-1.866-5.025-1.073-.799.638-1.974 7.848-2.174 8.866-.175.942.413 3.148.413 3.148l2.597-7.383s-.273 8.5.886 8.456c.462-.019 2.305-8.418 2.305-8.418l.306 8.654s1.567-.905 1.523-8.136c-.019-1.066-.095-3.389-.831-4.114z" clip-rule="evenodd"/><linearGradient id="A" x1="823.273" x2="812.462" y1="144.164" y2="190.459" gradientUnits="userSpaceOnUse" gradientTransform="matrix(.997 .073 -.073 .997 69.654 -73.627)"><stop offset="0" stop-color="#000211"/><stop offset="1" stop-color="#031C10"/></linearGradient><path fill="url(#A)" d="M874.888 107.994s-29.102 54.52-24.62 60.438c0 0 .701 2.216 4.154 1.711 0 0-1.631 3.732 2.422 7.323 4.064 3.577 8.198-.489 8.198-.489s1.741 4.822 7.622 5.27c5.477.383 6.494-4.824 6.494-4.824s2.996 2.836 6.773-1.961c2.647-3.357 3.066-64.333 3.066-64.333l-14.109-3.135z"/><defs><path id="B" d="M879.871 63.371l-16.953-12.843s-5.981-9.689-11.362-27.69c-2.017-6.761-3.972-23.456-12.895-22.82-8.915.663-16.363 17.681 7.45 51.836 0 0-15.76-21.318-19.199-28.321-1.174-2.412-7.6-16.086-12.282-1.475-5.573 17.474 30.763 45.104 30.763 45.104s-1.18-.027-8.641-5.408c-6.025-4.357-15.928-17.371-19.594-12.012-5.582 8.19 6.469 18.419 27.26 31.865 5.57 3.604 18.288 17.803 18.288 17.803l9.616-.108 7.549-35.931z"/></defs><radialGradient id="C" cx="876.72" cy="71.162" r="72.179" gradientUnits="userSpaceOnUse"><stop offset="0" stop-color="#000211"/><stop offset=".14" stop-color="#040212"/><stop offset=".269" stop-color="#0F0116"/><stop offset=".337" stop-color="#180019"/><stop offset="1" stop-color="#031C10"/></radialGradient><use fill="url(#C)" xlink:href="#B" overflow="visible"/><clipPath><use xlink:href="#B" overflow="visible"/></clipPath><defs><path id="D" d="M902.69 68.662l17.226-4.374s7.754-5.511 17.738-17.629c3.766-4.547 10.676-16.76 17.339-13.364 6.661 3.398 6.854 18.911-22.578 37.475 0 0 19.057-11.289 23.988-15.565 1.687-1.467 11.083-9.909 9.921 2.86-1.361 15.263-38.328 24.716-38.328 24.716s.918.364 8.409-1.353c6.05-1.38 17.906-8.187 18.993-2.879 1.643 8.116-10.971 12.071-31.33 15.665-5.463.97-19.861 7.761-19.861 7.761l-7.373-3.194 5.856-30.119z"/></defs><radialGradient id="E" cx="893.96" cy="80.303" r="76.222" gradientUnits="userSpaceOnUse"><stop offset="0" stop-color="#000211"/><stop offset=".14" stop-color="#040212"/><stop offset=".269" stop-color="#0F0116"/><stop offset=".337" stop-color="#180019"/><stop offset="1" stop-color="#031C10"/></radialGradient><use fill="url(#E)" xlink:href="#D" overflow="visible"/><clipPath><use xlink:href="#D" overflow="visible"/></clipPath><radialGradient id="F" cx="893.439" cy="32.497" r="54.545" gradientUnits="userSpaceOnUse"><stop offset="0" stop-color="#3D7D61"/><stop offset=".026" stop-color="#39775D"/><stop offset=".148" stop-color="#275C4C"/><stop offset=".274" stop-color="#1A4A40"/><stop offset=".404" stop-color="#123F38"/><stop offset=".546" stop-color="#103B36"/><stop offset="1" stop-color="#000211"/></radialGradient><path fill="url(#F)" d="M892.426 26.285s-19.18-2.002-25.917 14.817c-6.731 16.831-5.39 59.862-2.354 64.271 0 0 3.028 13.84 17.164 16.876 14.141 3.026 25.599-22.222 25.599-22.222s28.944-72.061-14.492-73.742z"/><defs><path id="G" d="M892.426 26.285s-19.18-2.002-25.917 14.817c-6.731 16.831-5.39 59.862-2.354 64.271 0 0 3.028 13.84 17.164 16.876 14.141 3.026 25.599-22.222 25.599-22.222s28.944-72.061-14.492-73.742z"/></defs><radialGradient id="H" cx="893.439" cy="32.497" r="54.545" gradientUnits="userSpaceOnUse"><stop offset="0" stop-color="#3D7D61"/><stop offset=".026" stop-color="#39775D"/><stop offset=".148" stop-color="#275C4C"/><stop offset=".274" stop-color="#1A4A40"/><stop offset=".404" stop-color="#123F38"/><stop offset=".546" stop-color="#103B36"/><stop offset="1" stop-color="#000211"/></radialGradient><use fill="url(#H)" xlink:href="#G" overflow="visible"/><clipPath id="I"><use xlink:href="#G" overflow="visible"/></clipPath><radialGradient id="J" cx="893.435" cy="32.497" r="54.544" gradientUnits="userSpaceOnUse"><stop offset="0" stop-color="#3D7D61"/><stop offset=".026" stop-color="#39775D"/><stop offset=".148" stop-color="#275C4C"/><stop offset=".274" stop-color="#1A4A40"/><stop offset=".404" stop-color="#123F38"/><stop offset=".546" stop-color="#103B36"/><stop offset="1" stop-color="#000211"/></radialGradient><path fill="url(#J)" d="M862.644 103.263s1.698-49.513 7.749-48.158l54.93-9.727-27.658-24.941-33.665 6.392-7.755 72.393 6.399 4.041z" clip-path="url(#I)"/><g fill="#FFF1D4"><path d="M863.076 60.456s-.089-3.61-.201-4.794c-.145-1.375-.875-5.721 1.555-5.27 1.104.217 1.174 2.629 1.174 2.629s-2.191-5.077-1.662 6.598c.076 1.736.318 5.27-1.086 4.977-1.111-.226-.998-2.429-.998-2.429s1.466 2.083 1.218-1.711zM865.846 61.719s.756-2.797 1.068-3.699c.375-1.035 1.773-4.281-.205-4.382-.899-.062-1.426 1.812-1.426 1.812s2.68-3.523.062 5.438c-.392 1.353-1.254 4.053-.116 4.083.917.025 1.235-1.703 1.235-1.703s-1.523 1.347-.618-1.549zM867.783 63.164s.286-2.657.322-3.545c.039-1.029-.08-4.333 1.663-3.74.812.269.611 2.054.611 2.054s-1.124-3.972-1.88 4.71c-.101 1.298-.288 3.919-1.279 3.575-.807-.28-.494-1.891-.494-1.891s.87 1.678 1.057-1.163zM870.554 64.408s.638-2.029.888-2.678c.312-.761 1.43-3.097-.025-3.222-.656-.076-1.094 1.274-1.094 1.274s2.081-2.496-.13 4.02c-.331.962-1.036 2.923-.206 2.985.662.049.961-1.211.961-1.211s-1.169.943-.394-1.168zM873.039 62.431s-.562 1.785-.793 2.358c-.262.673-1.274 2.749.014 2.879.592.054.967-1.157.967-1.157s-1.83 2.238.131-3.545c.301-.867.937-2.597.188-2.648-.588-.049-.861 1.062-.861 1.062s1.046-.837.354 1.051z"/></g><path fill="#FFF1D4" d="M912.23 68.874s-.52 1.616-.712 2.129c-.243.598-1.149 2.464.005 2.575.538.06.882-1.035.882-1.035s-1.661 2.01.112-3.184c.262-.769.824-2.336.169-2.385-.544-.038-.774.954-.774.954s.924-.741.318.946zM915.582 64.702s-.973 3.11-1.379 4.107c-.456 1.138-2.191 4.716.031 4.922 1.011.092 1.674-1.972 1.674-1.972s-3.166 3.846.217-6.106c.494-1.489 1.574-4.477.312-4.572-1.018-.082-1.467 1.842-1.467 1.842s1.78-1.419.612 1.779z"/><radialGradient id="K" cx="897.877" cy="45.046" r="36.817" gradientUnits="userSpaceOnUse"><stop offset="0" stop-color="#457864"/><stop offset=".217" stop-color="#437562"/><stop offset=".409" stop-color="#3E6A5A"/><stop offset=".591" stop-color="#36584D"/><stop offset=".766" stop-color="#2A3E3B"/><stop offset=".908" stop-color="#1D2428"/></radialGradient><path fill="url(#K)" d="M885.364 34.92s-7.979-1.386-8.847 6.057c-.338 2.833-1.736 5.411-4.084 7.054-1.68 1.16-3.59.875-2.978 3.328.424 1.793 1.81 3.879 2.733 5.487 3.277 5.667 7.244 10.729 12.712 14.424 2.711 1.825 5.87 3.26 8.786 4.721 3.488 1.771 4.276 2.423 7.768.424 2.172-1.25 4.264-1.972 6.018-3.857 2.329-2.48 4.096-5.672 5.625-8.673 1.219-2.371 2.205-4.838 2.96-7.386.774-2.673 3.048-6.25 2.017-9.067-.998-2.754-5.188-4.308-5.188-7.655 0-2.434-10.215-10.387-13.687-.511 0 0-2.429 2.741-5.794 0 .001 0-1.117-4.172-8.041-4.346z"/><radialGradient id="L" cx="897.877" cy="45.046" r="36.817" gradientUnits="userSpaceOnUse"><stop offset="0" stop-color="#457864"/><stop offset=".217" stop-color="#437562"/><stop offset=".409" stop-color="#3E6A5A"/><stop offset=".591" stop-color="#36584D"/><stop offset=".766" stop-color="#2A3E3B"/><stop offset=".908" stop-color="#1D2428"/></radialGradient><path fill="url(#L)" d="M885.364 34.92s-7.979-1.386-8.847 6.057c-.338 2.833-1.736 5.411-4.084 7.054-1.68 1.16-3.59.875-2.978 3.328.424 1.793 1.81 3.879 2.733 5.487 3.277 5.667 7.244 10.729 12.712 14.424 2.711 1.825 5.87 3.26 8.786 4.721 3.488 1.771 4.276 2.423 7.768.424 2.172-1.25 4.264-1.972 6.018-3.857 2.329-2.48 4.096-5.672 5.625-8.673 1.219-2.371 2.205-4.838 2.96-7.386.774-2.673 3.048-6.25 2.017-9.067-.998-2.754-5.188-4.308-5.188-7.655 0-2.434-10.215-10.387-13.687-.511 0 0-2.429 2.741-5.794 0 .001 0-1.117-4.172-8.041-4.346z"/><radialGradient id="M" cx="897.877" cy="45.046" r="36.817" gradientUnits="userSpaceOnUse"><stop offset="0" stop-color="#457864"/><stop offset=".217" stop-color="#437562"/><stop offset=".409" stop-color="#3E6A5A"/><stop offset=".591" stop-color="#36584D"/><stop offset=".766" stop-color="#2A3E3B"/><stop offset=".908" stop-color="#1D2428"/></radialGradient><path fill="url(#M)" d="M885.364 34.92s-7.979-1.386-8.847 6.057c-.338 2.833-1.736 5.411-4.084 7.054-1.68 1.16-3.59.875-2.978 3.328.424 1.793 1.81 3.879 2.733 5.487 3.277 5.667 7.244 10.729 12.712 14.424 2.711 1.825 5.87 3.26 8.786 4.721 3.488 1.771 4.276 2.423 7.768.424 2.172-1.25 4.264-1.972 6.018-3.857 2.329-2.48 4.096-5.672 5.625-8.673 1.219-2.371 2.205-4.838 2.96-7.386.774-2.673 3.048-6.25 2.017-9.067-.998-2.754-5.188-4.308-5.188-7.655 0-2.434-10.215-10.387-13.687-.511 0 0-2.429 2.741-5.794 0 .001 0-1.117-4.172-8.041-4.346z"/><radialGradient id="N" cx="897.877" cy="45.046" r="36.817" gradientUnits="userSpaceOnUse"><stop offset="0" stop-color="#457864"/><stop offset=".217" stop-color="#437562"/><stop offset=".409" stop-color="#3E6A5A"/><stop offset=".591" stop-color="#36584D"/><stop offset=".766" stop-color="#2A3E3B"/><stop offset=".908" stop-color="#1D2428"/></radialGradient><path fill="url(#N)" d="M885.364 34.92s-7.979-1.386-8.847 6.057c-.338 2.833-1.736 5.411-4.084 7.054-1.68 1.16-3.59.875-2.978 3.328.424 1.793 1.81 3.879 2.733 5.487 3.277 5.667 7.244 10.729 12.712 14.424 2.711 1.825 5.87 3.26 8.786 4.721 3.488 1.771 4.276 2.423 7.768.424 2.172-1.25 4.264-1.972 6.018-3.857 2.329-2.48 4.096-5.672 5.625-8.673 1.219-2.371 2.205-4.838 2.96-7.386.774-2.673 3.048-6.25 2.017-9.067-.998-2.754-5.188-4.308-5.188-7.655 0-2.434-10.215-10.387-13.687-.511 0 0-2.429 2.741-5.794 0 .001 0-1.117-4.172-8.041-4.346z"/><g fill="#0D0000"><path d="M892.288 43.492c0 2.785-2.247 5.039-5.026 5.039-2.784 0-5.039-2.254-5.039-5.039 0-.956.275-1.855.738-2.629.887-1.435 2.473-2.41 4.301-2.41 2.779.001 5.026 2.255 5.026 5.039zM882.961 40.863s-1.904.652-3.09-1.75c0 0 .322 6.321 5.462 9.029l.356-3.683-2.728-3.596z"/></g><g fill="#0D0000"><path d="M901.441 43.623c0 2.385 1.936 4.321 4.321 4.321s4.327-1.937 4.327-4.321c0-.832-.239-1.616-.645-2.255-.754-1.241-2.122-2.064-3.683-2.064-2.384 0-4.32 1.934-4.32 4.319zM909.445 41.368s1.654.557 2.66-1.51c0 0 .594 4.952-3.828 7.274l-1.178-2.673 2.346-3.091z"/></g><path fill="#F3EDE5" d="M905.381 41.814c0 .625-.523 1.135-1.156 1.135-.635 0-1.159-.511-1.159-1.135 0-.658.524-1.174 1.159-1.174.632 0 1.156.516 1.156 1.174zM887.668 41.814c0 .625-.531 1.135-1.167 1.135-.644 0-1.168-.511-1.168-1.135 0-.658.524-1.174 1.168-1.174.636 0 1.167.516 1.167 1.174z"/><radialGradient id="O" cx="1163.475" cy="-16.026" r="5.147" gradientTransform="matrix(.915 -.403 .403 .915 -146.663 534.913)" gradientUnits="userSpaceOnUse"><stop offset="0" stop-color="#30465F"/><stop offset=".23" stop-color="#2E3848"/><stop offset=".742" stop-color="#2B1B1B"/><stop offset="1" stop-color="#2A1009"/></radialGradient><path fill="url(#O)" d="M917.076 48.431c.961 2.179-1.68 5.933-4.827 7.318-3.14 1.385-5.169.245-6.13-1.948-.963-2.173 1.034-4.496 4.169-5.881 3.148-1.399 5.837-1.673 6.788.511z"/><radialGradient id="P" cx="1501.256" cy="132.045" r="5.148" gradientTransform="matrix(-.915 -.403 -.403 .915 2307.555 534.913)" gradientUnits="userSpaceOnUse"><stop offset="0" stop-color="#30465F"/><stop offset=".23" stop-color="#2E3848"/><stop offset=".742" stop-color="#2B1B1B"/><stop offset="1" stop-color="#2A1009"/></radialGradient><path fill="url(#P)" d="M874.994 47.92c-.963 2.179 1.672 5.924 4.833 7.304 3.134 1.385 5.162.25 6.124-1.937.955-2.173-1.023-4.52-4.164-5.9-3.16-1.379-5.832-1.654-6.793.533z"/><path fill="#43423F" d="M900.225 47.431c-2.934-.375-4.914.277-5.184 2.993-.18 1.782 1.574 2.776 3.878 2.964 3.478.269 6.013-1.024 9.696-1.117 3.959-.095 4.109-.445 6.562.905.78.437-.005-3.822-14.952-5.745z"/><path fill="#0D0000" d="M901.404 53.75c-2.298.402-6.594-.522-6.406-3.097.131-2.122 3.584.255 5.338.706 2.555.63 3.641.707 7.38.549 3.103-.12 3.515-.266 4.933.299.149.064-3.54.189-11.245 1.543z"/><path fill="#fff" d="M897.738 75.54c6.549.924 3.572 12.05-2.066 13.636-4.264 1.217-7.666-1.298-10.334-4.857-2.658-3.526-2.459-7.823 1.156-10.387 2.635-1.875 6.725.945 11.244 1.608z"/><path fill="#120018" fill-rule="evenodd" d="M899.605 47.975c.225.095.363.225.363.358 0 .315-.707.573-1.567.573-.718 0-1.317-.188-1.505-.413-.101.082-.145.188-.145.274 0 .476 1.006.842 2.261.842 1.249 0 2.255-.366 2.255-.842.001-.38-.693-.698-1.662-.792z" clip-rule="evenodd"/><path fill="#E3D7CF" d="M895.066 75.466c-1.305-.644-2.316-1.345-2.935-1.236.206.011 1.299 1.111 2.284 1.698 2.688 1.622 3.941 3.621 3.192 7.087-.601 2.727-2.654 4.713-5.008 5.087 2.84.25 5.569-1.937 6.256-5.145.75-3.462-.966-6.081-3.789-7.491z"/><radialGradient id="Q" cx="-315.121" cy="-1707.078" r="13.987" gradientTransform="matrix(.439 .899 -.899 .439 -518.106 1154.868)" gradientUnits="userSpaceOnUse"><stop offset="0" stop-color="#3F2C28"/><stop offset=".131" stop-color="#2D2021"/><stop offset=".356" stop-color="#141018"/><stop offset=".562" stop-color="#050513"/><stop offset=".73" stop-color="#000211"/></radialGradient><path fill="url(#Q)" fill-rule="evenodd" d="M876.498 116.274c-.786-.799-3.515-1.625-4.396-.924-.692.56-1.521 6.704-1.659 7.606-.188 1.423.138 2.857.138 2.857l2.553-5.207s-.542 6.196.469 6.158c.398-.022 1.491-6.519 1.491-6.519l.807 6.712s1.342-.78 1.323-7.111c-.014-.899-.094-2.923-.726-3.572z" clip-rule="evenodd"/><radialGradient id="R" cx="-308.541" cy="-1717.431" r="13.987" gradientTransform="matrix(.439 .899 -.899 .439 -518.106 1154.868)" gradientUnits="userSpaceOnUse"><stop offset="0" stop-color="#3F2C28"/><stop offset=".131" stop-color="#2D2021"/><stop offset=".356" stop-color="#141018"/><stop offset=".562" stop-color="#050513"/><stop offset=".73" stop-color="#000211"/></radialGradient><path fill="url(#R)" fill-rule="evenodd" d="M888.68 117.648c-.787-.807-3.516-1.648-4.383-.937-.699.562-1.705 6.837-1.893 7.728-.156.815.361 2.735.361 2.735l2.255-6.413s-.236 7.413.78 7.355c.394-.016 2.018-7.334 2.018-7.334l.274 7.546s1.349-.779 1.304-7.117c0-.917-.068-2.927-.716-3.563z" clip-rule="evenodd"/><path fill="#9D8566" d="M37.661 253.388s-10.624-1.704-14.202-1.704c-10.022 0-19.39 2.586-19.39 2.586l-4.069 568.577 33.594-.883 4.067-568.576z"/><path fill="#867655" d="M3.688 253.98l-3.475 570.02h9.738l4.276-462.044-8.503-107.998z"/><path fill="#EEC338" stroke="#DFAC35" stroke-width=".43" d="M27.037 288.254l151.3-48.222 48.987 10.972-41.333 37.25-158.954 40.308z"/><path fill="#DFAC35" d="M228.092 253.042l-.768-2.038-41.333 37.25-158.954 40.308v1.407l159.34-40.694zM78.579 309.17l103.075-22.449 19.646-17.859-19.134 13.011 5.868-6.378-9.441 4.081 11.481-10.714-13.268 8.676-4.847 4.592 6.634-.257-1.531 2.424z"/><path fill="#867655" d="M20.831 271.23v38.948l2.628 13.095-2.628 14.289-2-15.649-4.604-4.425 2.089-22.619 1.7 10.934-1.022-31.178zM26.714 295.374l-2.869 15.048 2.425 33.042 4.974-9.814v-4.756l-4.207 1.075z" opacity=".77"/><path fill="#321931" fill-rule="evenodd" d="M158.653 276.27c-.797.191-1.394.577-2.332.626-.786-1.856-1.801-3.486-2.643-5.282-.532 1.896-.823 4.042-1.088 6.215-.602.429-1.536.532-2.328.77-1.091-3.001-2.332-5.85-3.423-8.855.83-.056 1.274-.492 2.177-.469.646 1.58 1.291 3.167 1.868 4.819.573-1.706.638-3.919 1.086-5.749.786-.094 1.244-.517 2.175-.467.779 1.605 1.726 3.044 2.485 4.663.413-1.664.388-3.762.624-5.601.408-.366 1.266-.281 1.708-.615.755 3.078-.513 6.778-.309 9.945zM142.956 270.835c4.916-.525 4.88 11.495-1.398 9.941-2.75-.68-3.286-7.313-.932-9.163.638-.509 1.401-.683 2.33-.778zm-.31 8.079c2.774.48 2.15-7.021-.467-6.061-1.64.602-1.185 5.776.467 6.061zM138.292 281.868c-.741.089-1.19.469-2.018.462-.9-1.966.256-6.98-1.708-7.457-3.394-.817-1.338 5.935-1.243 8.395-.857.018-1.289.471-2.178.465-.144-3.331-.81-6.13-.932-9.484 2.351.283 4.095-2.5 6.368-.934 1.967 1.356.912 5.635 1.711 8.553zM113.425 275.495c.725.624.346 2.353.624 3.419.665.038.835-.406 1.553-.314l.157 1.558c-.503.171-.92.427-1.553.46.243 1.885.251 4.002.62 5.753.664.386.763-.393 1.4-.464-.085.689-.152 1.403-.314 2.018-3.732 2.479-3.452-3.423-3.573-6.521-.332-.29-.826.2-1.396.152.027-.602.004-1.147-.157-1.553.377-.193.754-.386 1.244-.469-.468-2.135.107-3.305 1.395-4.039zM124.31 281.556c-1.569.555-3.309.943-4.977 1.403-.107 2.474 2.683 2.018 3.421.617.191.429.791.449 1.087.776-.723 1.405-2.119 3.006-4.351 2.48-3.793-.875-2.788-10.038 1.401-10.094 2.263-.033 3.08 2.18 3.419 4.818zm-5.287-.467c.781.178 1.955-.498 2.954-.624.135-2.909-3.38-1.802-2.954.624zM105.035 290.728c-3.787-1.953-2.119-11.782 3.108-9.639 2.806 1.152 2.495 11.102-3.108 9.639zm1.867-7.769c-2.824-.736-2.24 4.808-.936 5.901 2.739.047 2.247-4.795.936-5.901zM101.618 282.49c-.759 3.335-1.658 6.525-2.33 9.948-.561.215-1.114.438-1.868.462-.936-3.001-2.572-5.3-3.421-8.391.572-.099 1.189-.162 1.558-.464 1.172 1.412 1.628 3.546 2.485 5.279.572-1.966 1.062-4.014 1.398-6.213.67-.26 1.384-.482 2.178-.621zM78.927 285.287c.703.487.119 2.26.312 3.264.314.357.929-.308 1.553-.157v1.56c-.436.175-.896.348-1.401.462.153 1.814.054 3.881.312 5.594.842.22.824-.422 1.398-.464-.251.572-.26 1.398-.467 2.018-3.605 2.391-2.981-3.517-3.107-6.527-.26-.402-.723.305-1.243.155v-1.706c.557.036.75-.292 1.243-.312-.566-1.301.049-3.537 1.4-3.887zM85.765 286.833c4.828-.557 3.979 10.729-1.398 9.643-2.99-.608-2.557-7.701-.312-9.169.387-.254 1.139-.404 1.71-.474zm-.31 7.78c2.188.099 2.087-6.539-.155-5.91-1.592.446-1.653 5.825.155 5.91zM70.379 287.617c.514 3.737.406 8.918.464 12.588-.567.208-1.183.364-1.863.465-.166-2.525-.027-5.304-.155-8.231-.118-2.712-.311-3.945 1.554-4.822zM66.029 293.055c2.072 2.645 1.275 10.126-3.266 9.327-2.271-.399-2.662-5.226-1.396-7.616.828-1.574 2.604-2.487 4.662-1.711zm-2.489 7.459c2.119.402 2.036-4.251 1.243-5.749-2.967-1.218-2.787 5.462-1.243 5.749zM59.966 294.146c.103.88-.278 1.27-.31 2.016-3.457-.602-1.562 5.607-1.867 7.461-.453.375-1.136.523-1.863.622v-9.322c1.814-.189 2.112-.894 4.04-.777zM45.982 294.766v1.71c-1.222.44-2.546.77-3.888 1.086v2.952c.877-.157 1.551-.518 2.49-.619v1.706c-.779.312-1.67.507-2.49.781v3.729c1.544-.128 3.084-1.039 4.35-.929-.049.568.133 1.372-.152 1.701-1.958.586-4.027 1.053-5.908 1.715-.44-4.791.069-8.043 0-12.276 1.858-.528 3.645-1.121 5.598-1.556zM53.439 296.476c1.297 1.668.202 6.344.779 8.233-.689.092-1.053.505-1.865.472-.104-3.064.225-5.051-.467-7.152-3.614-.242-1.686 5.051-2.178 7.926-.642.132-1.136.419-1.863.467.076-4.227-.045-6.395.157-9.169 2.005.067 3.177-1.782 5.437-.777z" clip-rule="evenodd"/><path fill="#D8D4CB" fill-rule="evenodd" d="M189.834 257.834c4.022 4.725 2.929 12.268-2.447 16.851-5.374 4.579-12.999 4.469-17.024-.254-4.029-4.731-2.934-12.271 2.442-16.855 5.379-4.581 13.002-4.465 17.029.258z" clip-rule="evenodd"/><path fill="#E46532" fill-rule="evenodd" d="M180.878 253.585c7.501-.804 12.062 4.285 12.276 10.566.238 6.884-5.118 12.22-9.792 13.986-6.83 2.586-13.919-.673-15.694-6.061-2.543-7.708 3.023-14.801 8.235-17.252 1.451-.684 2.496-.978 4.975-1.239zm-6.373 3.259c-2.678 1.724-5.661 4.889-6.22 9.636-.911 7.803 5.746 13.201 13.526 10.878 4.774-1.428 10.027-6.523 9.944-13.053-.027-2.036-.952-4.51-1.553-5.441-1.378-2.117-5.145-4.66-9.946-4.041-2.712.356-4.408 1.159-5.751 2.021zM183.208 255.444c.211 1.145-2.545 1.921-3.883 2.646-4.314 2.323-7.335 7.185-9.172 12.119 2.559-.022 3.345-3.347 4.975-4.97 1.611-1.614 3.646-2.296 4.974-4.042.243.081.833.597 1.088.155-.693 2.108-3.659 3.286-4.974 5.284.72-.045 1.344.002 1.708.305.35.507-.135 1.035.157 1.405 1.706-.209 2.271-2.171 3.73-2.952 1.634-.882 3.646-.348 5.281-1.554 1.192-.882 1.507-2.336 3.262-2.024 1.302 3.291-.123 7.416-1.553 9.481-2.168-1.141-3.246-3.385-4.66-5.284-3.302-1.07-5.702 5.417-9.015 3.731-.434-.222-.975-1.078-.622-1.866-1.578.656-2.125 2.33-3.576 3.109.384 1.946 2.007 2.656 2.333 4.665-2.819-1.037-4.294-3.522-4.51-6.839-.506-8.011 6.241-14.121 14.457-13.369zm-8.081 13.214c.707 1.192 2.635.235 2.332-1.401-1.039-.316-2.312.211-2.332 1.401z" clip-rule="evenodd"/><path fill="#E2E15B" d="M1168.229 236.629c0 35.947 29.136 65.092 65.089 65.092 35.945 0 65.092-29.145 65.092-65.092 0-35.948-29.146-65.095-65.092-65.095-35.953 0-65.089 29.147-65.089 65.095z"/><g fill="#EAE5E1"><path d="M1169.603 250.191c-1.506 9.285 4.809 18.03 14.091 19.536 9.286 1.488 18.035-4.818 19.523-14.104 1.517-9.283-4.806-18.03-14.091-19.525-9.288-1.506-18.024 4.811-19.523 14.093zM1105.349 258.714c-1.495 9.283 4.811 18.03 14.099 19.534 9.286 1.488 18.035-4.818 19.528-14.101 1.512-9.283-4.808-18.03-14.096-19.528-9.283-1.507-18.025 4.81-19.531 14.095zM1142.595 250.545c-1.499 9.283 4.811 18.041 14.099 19.536 9.277 1.506 18.029-4.811 19.525-14.093 1.512-9.277-4.805-18.03-14.099-19.528-9.282-1.504-18.024 4.81-19.525 14.085zM1123.876 242.09c-1.057 6.483 3.354 12.595 9.85 13.648 6.488 1.041 12.59-3.361 13.638-9.845 1.049-6.494-3.361-12.605-9.845-13.657-6.489-1.042-12.597 3.368-13.643 9.854zM1177.48 271.551c-.588 3.684 1.92 7.165 5.604 7.758 3.689.606 7.17-1.905 7.758-5.588.604-3.695-1.906-7.166-5.604-7.771-3.683-.596-7.154 1.917-7.758 5.601zM1131.649 262.731c-2.228 13.732 7.113 26.673 20.85 28.896 13.737 2.215 26.673-7.126 28.9-20.857 2.227-13.742-7.124-26.683-20.866-28.894-13.731-2.234-26.664 7.105-28.884 20.855z"/></g><path fill="#EAE5E2" d="M1256.328 222.598c0 3.666 47.871 6.624 106.93 6.624 59.056 0 256.683-5.068 204.932-7.217-22.611-.931-93.091-5.109-142.635-2.802-30.13 1.407-77.746-.939-84.495-.939-59.064-.001-84.732.678-84.732 4.334zM1291.539 238.983c0 2.333 24.685 4.22 55.146 4.22 30.45 0 55.138-1.886 55.138-4.22 0-2.329-24.688-4.225-55.138-4.225-30.461 0-55.146 1.897-55.146 4.225zM1352.382 214.337c0 1.155 24.306 2.113 54.292 2.113 29.987 0 54.29-.958 54.29-2.113 0-1.173-24.303-2.11-54.29-2.11-29.986.001-54.292.937-54.292 2.11z"/></svg>