<?xml version="1.0" encoding="utf-8"?><svg xmlns="http://www.w3.org/2000/svg" width="80" height="80" xmlns:xlink="http://www.w3.org/1999/xlink" viewBox="0 0 80 80"><linearGradient id="a" x1="9.517" x2="4.806" y1="77.231" y2="97.405" gradientUnits="userSpaceOnUse" gradientTransform="matrix(.997 .073 -.073 .997 31.913 -20.704)"><stop offset="0" stop-color="#000211"/><stop offset="1" stop-color="#031C10"/></linearGradient><path fill="url(#a)" d="M33.431 47.42s-12.682 23.756-10.727 26.335c0 0 .304.969 1.81.747 0 0-.714 1.629 1.051 3.19 1.773 1.563 3.578-.212 3.578-.212s.755 2.104 3.321 2.29c2.384.174 2.828-2.099 2.828-2.099s1.309 1.236 2.952-.853c1.155-1.47 1.336-28.034 1.336-28.034l-6.149-1.364z"/><defs><path id="b" d="M35.602 27.975l-7.386-5.599s-2.61-4.22-4.954-12.066c-.88-2.952-1.729-10.222-5.616-9.943-3.886.283-7.133 7.703 3.243 22.589 0 0-6.867-9.289-8.366-12.343-.513-1.048-3.312-7.009-5.35-.646-2.436 7.613 13.406 19.658 13.406 19.658s-.513-.009-3.768-2.355c-2.625-1.892-6.944-7.569-8.537-5.235-2.436 3.567 2.817 8.026 11.876 13.886 2.429 1.57 7.97 7.757 7.97 7.757l4.19-.044 3.292-15.659z"/></defs><radialGradient id="c" cx="33.83" cy="30.779" r="33.585" gradientTransform="matrix(.936 0 0 .936 2.546 2.543)" gradientUnits="userSpaceOnUse"><stop offset="0" stop-color="#000211"/><stop offset=".14" stop-color="#040212"/><stop offset=".269" stop-color="#0F0116"/><stop offset=".337" stop-color="#180019"/><stop offset="1" stop-color="#031C10"/></radialGradient><use fill="url(#c)" xlink:href="#b" overflow="visible"/><clipPath><use xlink:href="#b" overflow="visible"/></clipPath><defs><path id="d" d="M45.548 30.28l7.504-1.909s3.379-2.4 7.731-7.677c1.64-1.987 4.654-7.307 7.553-5.829 2.899 1.48 2.989 8.247-9.833 16.332 0 0 8.303-4.918 10.449-6.783.734-.64 4.827-4.317 4.327 1.242-.598 6.651-16.706 10.776-16.706 10.776s.4.159 3.665-.589c2.636-.604 7.805-3.57 8.273-1.257.716 3.538-4.779 5.264-13.654 6.832-2.378.421-8.654 3.38-8.654 3.38l-3.209-1.395 2.554-13.123z"/></defs><radialGradient id="e" cx="41.852" cy="35.034" r="35.469" gradientTransform="matrix(.936 0 0 .936 2.546 2.543)" gradientUnits="userSpaceOnUse"><stop offset="0" stop-color="#000211"/><stop offset=".14" stop-color="#040212"/><stop offset=".269" stop-color="#0F0116"/><stop offset=".337" stop-color="#180019"/><stop offset="1" stop-color="#031C10"/></radialGradient><use fill="url(#e)" xlink:href="#d" overflow="visible"/><clipPath><use xlink:href="#d" overflow="visible"/></clipPath><radialGradient id="f" cx="41.609" cy="12.79" r="25.378" gradientTransform="matrix(.936 0 0 .936 2.546 2.543)" gradientUnits="userSpaceOnUse"><stop offset="0" stop-color="#3D7D61"/><stop offset=".026" stop-color="#39775D"/><stop offset=".148" stop-color="#275C4C"/><stop offset=".274" stop-color="#1A4A40"/><stop offset=".404" stop-color="#123F38"/><stop offset=".546" stop-color="#103B36"/><stop offset="1" stop-color="#000211"/></radialGradient><path fill="url(#f)" d="M41.075 11.815s-8.359-.879-11.294 6.455c-2.935 7.337-2.349 26.087-1.027 28.009 0 0 1.321 6.031 7.482 7.352 6.16 1.322 11.149-9.687 11.149-9.687s12.616-31.395-6.31-32.129z"/><defs><path id="g" d="M41.075 11.815s-8.359-.879-11.294 6.455c-2.935 7.337-2.349 26.087-1.027 28.009 0 0 1.321 6.031 7.482 7.352 6.16 1.322 11.149-9.687 11.149-9.687s12.616-31.395-6.31-32.129z"/></defs><radialGradient id="h" cx="41.609" cy="12.79" r="25.378" gradientTransform="matrix(.936 0 0 .936 2.546 2.543)" gradientUnits="userSpaceOnUse"><stop offset="0" stop-color="#3D7D61"/><stop offset=".026" stop-color="#39775D"/><stop offset=".148" stop-color="#275C4C"/><stop offset=".274" stop-color="#1A4A40"/><stop offset=".404" stop-color="#123F38"/><stop offset=".546" stop-color="#103B36"/><stop offset="1" stop-color="#000211"/></radialGradient><use fill="url(#h)" xlink:href="#g" overflow="visible"/><clipPath id="i"><use xlink:href="#g" overflow="visible"/></clipPath><radialGradient id="j" cx="41.609" cy="12.79" r="25.378" gradientTransform="matrix(.936 0 0 .936 2.546 2.543)" gradientUnits="userSpaceOnUse"><stop offset="0" stop-color="#3D7D61"/><stop offset=".026" stop-color="#39775D"/><stop offset=".148" stop-color="#275C4C"/><stop offset=".274" stop-color="#1A4A40"/><stop offset=".404" stop-color="#123F38"/><stop offset=".546" stop-color="#103B36"/><stop offset="1" stop-color="#000211"/></radialGradient><path fill="url(#j)" d="M28.098 45.358s.736-21.574 3.373-20.983l23.938-4.241-12.054-10.868-14.672 2.785-3.375 31.546 2.79 1.761z" clip-path="url(#i)"/><g fill="#FFF1D4"><path d="M28.282 26.702s-.038-1.569-.088-2.089c-.058-.594-.381-2.491.677-2.29.484.091.514 1.144.514 1.144s-.956-2.213-.726 2.87c.035.761.138 2.298-.47 2.171-.484-.103-.433-1.053-.433-1.053s.636.901.526-.753zM29.494 27.249s.327-1.213.465-1.609c.157-.451.768-1.865-.092-1.91-.394-.021-.617.792-.617.792s1.164-1.539.02 2.369c-.171.586-.542 1.764-.045 1.779.394.012.536-.739.536-.739s-.666.585-.267-.682zM30.335 27.887s.125-1.162.139-1.551c.018-.445-.034-1.879.727-1.626.349.115.268.896.268.896s-.488-1.729-.82 2.048c-.049.566-.125 1.711-.562 1.559-.346-.122-.216-.824-.216-.824s.381.733.464-.502zM31.538 28.427s.277-.883.392-1.168c.13-.328.623-1.348-.008-1.408-.289-.028-.478.563-.478.563s.904-1.096-.059 1.744c-.145.425-.456 1.278-.09 1.305.29.022.417-.525.417-.525s-.508.407-.174-.511zM32.628 27.561s-.247.781-.348 1.035c-.116.29-.553 1.194.007 1.248.255.024.423-.5.423-.5s-.802.972.053-1.544c.127-.377.403-1.134.08-1.158-.255-.021-.37.466-.37.466s.451-.363.155.453z"/></g><path fill="#FFF1D4" d="M49.704 30.37s-.222.703-.312.931c-.104.261-.497 1.073.006 1.123.23.021.38-.45.38-.45s-.72.875.048-1.389c.115-.339.361-1.019.072-1.04-.231-.018-.333.419-.333.419s.405-.326.139.406zM51.162 28.558s-.424 1.347-.598 1.783c-.2.499-.953 2.058.011 2.148.442.042.73-.86.73-.86s-1.379 1.671.091-2.66c.221-.649.694-1.952.138-1.993-.442-.033-.638.802-.638.802s.776-.623.266.78z"/><radialGradient id="k" cx="43.675" cy="18.624" r="17.131" gradientTransform="matrix(.936 0 0 .936 2.546 2.543)" gradientUnits="userSpaceOnUse"><stop offset="0" stop-color="#457864"/><stop offset=".217" stop-color="#437562"/><stop offset=".409" stop-color="#3E6A5A"/><stop offset=".591" stop-color="#36584D"/><stop offset=".766" stop-color="#2A3E3B"/><stop offset=".908" stop-color="#1D2428"/></radialGradient><path fill="url(#k)" d="M37.991 15.576s-3.474-.603-3.849 2.641c-.144 1.234-.756 2.359-1.783 3.071-.733.509-1.562.38-1.298 1.451.188.78.791 1.692 1.195 2.395 1.431 2.469 3.155 4.677 5.543 6.287 1.176.793 2.555 1.413 3.823 2.054 1.523.772 1.86 1.052 3.39.18.943-.541 1.853-.858 2.62-1.677 1.012-1.081 1.783-2.475 2.452-3.779.533-1.035.963-2.111 1.287-3.224.335-1.159 1.327-2.718.883-3.942-.438-1.207-2.263-1.88-2.263-3.345 0-1.056-4.453-4.524-5.965-.225 0 0-1.056 1.206-2.525 0-.002-.001-.492-1.812-3.51-1.887z"/><radialGradient id="l" cx="43.675" cy="18.624" r="17.131" gradientTransform="matrix(.936 0 0 .936 2.546 2.543)" gradientUnits="userSpaceOnUse"><stop offset="0" stop-color="#457864"/><stop offset=".217" stop-color="#437562"/><stop offset=".409" stop-color="#3E6A5A"/><stop offset=".591" stop-color="#36584D"/><stop offset=".766" stop-color="#2A3E3B"/><stop offset=".908" stop-color="#1D2428"/></radialGradient><path fill="url(#l)" d="M37.991 15.576s-3.474-.603-3.849 2.641c-.144 1.234-.756 2.359-1.783 3.071-.733.509-1.562.38-1.298 1.451.188.78.791 1.692 1.195 2.395 1.431 2.469 3.155 4.677 5.543 6.287 1.176.793 2.555 1.413 3.823 2.054 1.523.772 1.86 1.052 3.39.18.943-.541 1.853-.858 2.62-1.677 1.012-1.081 1.783-2.475 2.452-3.779.533-1.035.963-2.111 1.287-3.224.335-1.159 1.327-2.718.883-3.942-.438-1.207-2.263-1.88-2.263-3.345 0-1.056-4.453-4.524-5.965-.225 0 0-1.056 1.206-2.525 0-.002-.001-.492-1.812-3.51-1.887z"/><radialGradient id="m" cx="43.675" cy="18.624" r="17.131" gradientTransform="matrix(.936 0 0 .936 2.546 2.543)" gradientUnits="userSpaceOnUse"><stop offset="0" stop-color="#457864"/><stop offset=".217" stop-color="#437562"/><stop offset=".409" stop-color="#3E6A5A"/><stop offset=".591" stop-color="#36584D"/><stop offset=".766" stop-color="#2A3E3B"/><stop offset=".908" stop-color="#1D2428"/></radialGradient><path fill="url(#m)" d="M37.991 15.576s-3.474-.603-3.849 2.641c-.144 1.234-.756 2.359-1.783 3.071-.733.509-1.562.38-1.298 1.451.188.78.791 1.692 1.195 2.395 1.431 2.469 3.155 4.677 5.543 6.287 1.176.793 2.555 1.413 3.823 2.054 1.523.772 1.86 1.052 3.39.18.943-.541 1.853-.858 2.62-1.677 1.012-1.081 1.783-2.475 2.452-3.779.533-1.035.963-2.111 1.287-3.224.335-1.159 1.327-2.718.883-3.942-.438-1.207-2.263-1.88-2.263-3.345 0-1.056-4.453-4.524-5.965-.225 0 0-1.056 1.206-2.525 0-.002-.001-.492-1.812-3.51-1.887z"/><radialGradient id="n" cx="43.675" cy="18.624" r="17.131" gradientTransform="matrix(.936 0 0 .936 2.546 2.543)" gradientUnits="userSpaceOnUse"><stop offset="0" stop-color="#457864"/><stop offset=".217" stop-color="#437562"/><stop offset=".409" stop-color="#3E6A5A"/><stop offset=".591" stop-color="#36584D"/><stop offset=".766" stop-color="#2A3E3B"/><stop offset=".908" stop-color="#1D2428"/></radialGradient><path fill="url(#n)" d="M37.991 15.576s-3.474-.603-3.849 2.641c-.144 1.234-.756 2.359-1.783 3.071-.733.509-1.562.38-1.298 1.451.188.78.791 1.692 1.195 2.395 1.431 2.469 3.155 4.677 5.543 6.287 1.176.793 2.555 1.413 3.823 2.054 1.523.772 1.86 1.052 3.39.18.943-.541 1.853-.858 2.62-1.677 1.012-1.081 1.783-2.475 2.452-3.779.533-1.035.963-2.111 1.287-3.224.335-1.159 1.327-2.718.883-3.942-.438-1.207-2.263-1.88-2.263-3.345 0-1.056-4.453-4.524-5.965-.225 0 0-1.056 1.206-2.525 0-.002-.001-.492-1.812-3.51-1.887z"/><g fill="#0D0000"><path d="M41.014 19.312c0 1.211-.98 2.192-2.192 2.192-1.212 0-2.194-.981-2.194-2.192 0-.418.119-.813.321-1.145.387-.628 1.078-1.048 1.873-1.048 1.211.001 2.192.982 2.192 2.193zM36.949 18.167s-.834.284-1.347-.765c0 0 .144 2.758 2.383 3.938l.156-1.605-1.192-1.568z"/></g><g fill="#0D0000"><path d="M45 19.369c0 1.04.846 1.884 1.884 1.884 1.042 0 1.883-.845 1.883-1.884 0-.36-.098-.701-.277-.984-.329-.541-.929-.901-1.606-.901-1.038 0-1.884.845-1.884 1.885zM48.49 18.385s.719.245 1.16-.658c0 0 .254 2.158-1.667 3.169l-.513-1.165 1.02-1.346z"/></g><circle cx="46.214" cy="18.575" r=".505" fill="#F3EDE5"/><circle cx="38.491" cy="18.575" r=".506" fill="#F3EDE5"/><radialGradient id="o" cx="125.344" cy="-131.894" r="2.396" gradientTransform="matrix(.857 -.377 .377 .857 -8.174 183.188)" gradientUnits="userSpaceOnUse"><stop offset="0" stop-color="#30465F"/><stop offset=".23" stop-color="#2E3848"/><stop offset=".742" stop-color="#2B1B1B"/><stop offset="1" stop-color="#2A1009"/></radialGradient><path fill="url(#o)" d="M51.815 21.465c.419.951-.73 2.582-2.105 3.188-1.368.601-2.25.108-2.668-.844-.419-.951.447-1.969 1.815-2.571 1.373-.607 2.539-.723 2.958.227z"/><radialGradient id="p" cx="660.069" cy="103.159" r="2.395" gradientTransform="matrix(-.857 -.377 -.377 .857 640.513 183.188)" gradientUnits="userSpaceOnUse"><stop offset="0" stop-color="#30465F"/><stop offset=".23" stop-color="#2E3848"/><stop offset=".742" stop-color="#2B1B1B"/><stop offset="1" stop-color="#2A1009"/></radialGradient><path fill="url(#p)" d="M33.477 21.238c-.418.95.73 2.583 2.105 3.187 1.368.603 2.25.107 2.667-.842.42-.953-.446-1.97-1.814-2.573-1.374-.606-2.541-.723-2.958.228z"/><path fill="#43423F" d="M44.469 21.029c-1.273-.165-2.139.116-2.256 1.303-.079.782.688 1.211 1.689 1.29 1.518.118 2.621-.443 4.227-.482 1.723-.043 1.788-.197 2.862.396.336.185-.007-1.671-6.522-2.507z"/><path fill="#0D0000" d="M44.982 23.782c-.998.176-2.869-.229-2.792-1.349.063-.926 1.566.113 2.333.305 1.108.28 1.584.313 3.21.243 1.355-.058 1.54-.119 2.155.128.062.024-1.546.079-4.906.673z"/><path fill="#fff" d="M43.388 33.273c2.852.41 1.554 5.256-.899 5.95-1.861.527-3.342-.568-4.501-2.114-1.16-1.546-1.073-3.415.5-4.536 1.148-.818 2.932.418 4.9.7z"/><path fill="#120018" fill-rule="evenodd" d="M44.203 21.264c.099.043.157.097.157.156 0 .136-.307.246-.683.246-.313 0-.577-.078-.656-.179l-.065.126c0 .202.441.365.986.365.546 0 .987-.163.987-.365 0-.166-.308-.306-.726-.349z" clip-rule="evenodd"/><path fill="#E3D7CF" d="M42.226 33.247c-.57-.283-1.008-.585-1.281-.541.095.008.569.484.995.74 1.175.705 1.716 1.577 1.389 3.086-.258 1.189-1.154 2.055-2.178 2.224 1.238.103 2.423-.848 2.727-2.248.325-1.508-.426-2.648-1.652-3.261z"/><radialGradient id="q" cx="-722.144" cy="-1925.425" r="6.51" gradientTransform="matrix(.411 .842 -.842 .411 -1289.071 1452.701)" gradientUnits="userSpaceOnUse"><stop offset="0" stop-color="#3F2C28"/><stop offset=".131" stop-color="#2D2021"/><stop offset=".356" stop-color="#141018"/><stop offset=".562" stop-color="#050513"/><stop offset=".73" stop-color="#000211"/></radialGradient><path fill="url(#q)" fill-rule="evenodd" d="M34.129 51.03c-.343-.349-1.529-.714-1.911-.406-.307.247-.667 2.926-.721 3.317-.085.619.052 1.243.052 1.243l1.119-2.266s-.236 2.694.204 2.679c.172-.009.646-2.84.646-2.84l.351 2.928s.591-.343.575-3.098c-.002-.397-.035-1.275-.315-1.557z" clip-rule="evenodd"/><radialGradient id="r" cx="-719.088" cy="-1930.245" r="6.512" gradientTransform="matrix(.411 .842 -.842 .411 -1289.071 1452.701)" gradientUnits="userSpaceOnUse"><stop offset="0" stop-color="#3F2C28"/><stop offset=".131" stop-color="#2D2021"/><stop offset=".356" stop-color="#141018"/><stop offset=".562" stop-color="#050513"/><stop offset=".73" stop-color="#000211"/></radialGradient><path fill="url(#r)" fill-rule="evenodd" d="M39.441 51.623c-.343-.347-1.53-.714-1.911-.407-.308.247-.749 2.983-.825 3.37-.067.352.155 1.19.155 1.19l.985-2.792s-.104 3.224.338 3.204c.172-.006.877-3.196.877-3.196l.12 3.286s.591-.344.573-3.099c-.001-.396-.032-1.274-.312-1.556z" clip-rule="evenodd"/></svg>