<?xml version="1.0" encoding="utf-8"?><svg xmlns="http://www.w3.org/2000/svg" width="80" height="80" xmlns:xlink="http://www.w3.org/1999/xlink" viewBox="0 0 80 80"><path fill="#EDDBAE" fill-rule="evenodd" d="M38.29 38.539s-7.45 18.662-10.979 30.676c-.529 1.809-.596 2.455.102 2.665.509.152 1.127-.833 1.465-2.286 2.829-12.146 9.412-31.055 9.412-31.055zM40.057 39.486s1.144 20.061.675 32.578c-.069 1.878-.21 2.515-.939 2.489-.532-.016-.803-1.145-.662-2.63 1.17-12.416.926-32.437.926-32.437z" clip-rule="evenodd"/><linearGradient id="a" x1="959.398" x2="953.249" y1="69.132" y2="95.469" gradientUnits="userSpaceOnUse" gradientTransform="matrix(.689 .05 -.073 .997 -616.924 -67.412)"><stop offset="0" stop-color="#4D322C"/><stop offset="1" stop-color="#2A1009"/></linearGradient><path fill="url(#a)" d="M38.87 37.502s-12.768 32.41-11.287 35.304c0 0 .217 1.098 1.415.806 0 0-.608 1.88.749 3.615 1.365 1.737 2.838-.336 2.838-.336s.545 2.382 2.57 2.531c1.884.139 2.293-2.47 2.293-2.47s1.004 1.377 2.358-1.047c1.306-2.336.209-38.174.209-38.174l-1.145-.229z"/><radialGradient id="b" cx="36.025" cy="46.961" r="14.091" gradientTransform="matrix(-.401 1.442 -.316 -.088 64.352 2.481)" gradientUnits="userSpaceOnUse"><stop offset=".27" stop-color="#4D322C"/><stop offset=".439" stop-color="#52372E"/><stop offset=".647" stop-color="#614535"/><stop offset=".875" stop-color="#7A5C41"/><stop offset="1" stop-color="#8B6C49"/></radialGradient><path fill="url(#b)" fill-rule="evenodd" d="M36.007 50.386s-4.573 12.818-7.064 21.008c-.375 1.229-.424 1.671.053 1.817.348.108.777-.561 1.018-1.552 2.013-8.277 5.993-21.273 5.993-21.273z" clip-rule="evenodd"/><radialGradient id="c" cx="8.81" cy="368.383" r="15.33" gradientTransform="matrix(-.173 1.487 -.325 -.038 157.794 51.709)" gradientUnits="userSpaceOnUse"><stop offset=".27" stop-color="#4D322C"/><stop offset=".439" stop-color="#52372E"/><stop offset=".647" stop-color="#614535"/><stop offset=".875" stop-color="#7A5C41"/><stop offset="1" stop-color="#8B6C49"/></radialGradient><path fill="url(#c)" fill-rule="evenodd" d="M37.507 50.733s-3.598 15.563-4.795 24.037c-.182 1.273-.161 1.718.333 1.79.359.051.68-.676.767-1.69.709-8.491 3.695-24.137 3.695-24.137z" clip-rule="evenodd"/><radialGradient id="d" cx="-3922.772" cy="-552.979" r="14.595" gradientTransform="matrix(-.1 1.591 .337 .014 -164.136 6297.888)" gradientUnits="userSpaceOnUse"><stop offset=".27" stop-color="#4D322C"/><stop offset=".439" stop-color="#52372E"/><stop offset=".647" stop-color="#614535"/><stop offset=".875" stop-color="#7A5C41"/><stop offset="1" stop-color="#8B6C49"/></radialGradient><path fill="url(#d)" fill-rule="evenodd" d="M38.63 49.528h.235s-.581 19.529-.759 24.125c-.055 1.369.117 2.116-.398 2.109-.373-.006-.372-1.21-.271-2.29.851-9.035 1.193-23.944 1.193-23.944z" clip-rule="evenodd"/><linearGradient id="e" x1="69.428" x2="56.182" y1="7.554" y2="26.019" gradientUnits="userSpaceOnUse"><stop offset=".288" stop-color="#4D322C"/><stop offset=".661" stop-color="#381E17"/><stop offset="1" stop-color="#2A1009"/></linearGradient><path fill="url(#e)" d="M49.429 25.006l3.245-1.886c.354-.205.737-.373 1.064-.639.344-.275.547-.652.823-.985.776-.943 1.417-2.078 1.971-3.154.452-.862.714-1.886 1.229-2.699.009 0 3.401-5.306 5.179-4.686 1.77.627 1.06 7.05-5.874 12.748 0 0 4.318-1.652 5.909-3.463 0 0 2.531-3.155 2.433.908-.091 4.07-9.202 6.589-9.202 6.589s-.535.476.423.788c0 0 6.115-2.889 5.899-1.183-.218 1.713-4.887 3.314-7.12 3.589 0 0-1.431.333-.63.702 0 0 2.928-.643 2.857.746-.068 1.394-9.054 2.41-9.054 2.41l.848-9.785z"/><defs><path id="f" d="M49.429 25.006l4.31-2.499s2.132-2.193 4.023-6.864c0 0 3.401-5.306 5.179-4.686 1.77.627 1.06 7.05-5.874 12.748 0 0 4.318-1.652 5.909-3.463 0 0 2.531-3.155 2.433.908-.091 4.07-9.202 6.589-9.202 6.589s-.535.476.423.788c0 0 6.115-2.889 5.899-1.183-.218 1.713-4.887 3.314-7.12 3.589 0 0-1.431.333-.63.702 0 0 2.928-.643 2.857.746-.068 1.394-3.916 2.506-5.827 2.668-1.89.161-3.227-.259-3.227-.259l.847-9.784z"/></defs><linearGradient id="g" x1="69.428" x2="56.182" y1="7.554" y2="26.019" gradientUnits="userSpaceOnUse"><stop offset=".288" stop-color="#4D322C"/><stop offset=".661" stop-color="#381E17"/><stop offset="1" stop-color="#2A1009"/></linearGradient><use fill="url(#g)" xlink:href="#f" overflow="visible"/><clipPath id="h"><use xlink:href="#f" overflow="visible"/></clipPath><linearGradient id="i" x1="69.427" x2="56.181" y1="7.554" y2="26.018" gradientUnits="userSpaceOnUse"><stop offset=".288" stop-color="#4D322C"/><stop offset=".661" stop-color="#381E17"/><stop offset="1" stop-color="#2A1009"/></linearGradient><path fill="url(#i)" d="M49.429 25.006l4.31-2.499s2.132-2.193 4.023-6.864c0 0 3.401-5.306 5.179-4.686 1.77.627 1.06 7.05-5.874 12.748 0 0 4.318-1.652 5.909-3.463 0 0 2.531-3.155 2.433.908-.091 4.07-9.202 6.589-9.202 6.589s-.535.476.423.788c0 0 6.115-2.889 5.899-1.183-.218 1.713-4.887 3.314-7.12 3.589 0 0-1.431.333-.63.702 0 0 2.928-.643 2.857.746-.068 1.394-7.1 2.923-7.1 2.923l-1.954-.513.847-9.785z" clip-path="url(#h)"/><linearGradient id="j" x1="18.584" x2="27.014" y1="-1.381" y2="26.557" gradientUnits="userSpaceOnUse"><stop offset=".288" stop-color="#4D322C"/><stop offset=".661" stop-color="#381E17"/><stop offset="1" stop-color="#2A1009"/></linearGradient><path fill="url(#j)" d="M37.089 23.152c-1.502-1.136-3.012-2.288-4.526-3.428-.497-.377-1.059-.722-1.479-1.152-.446-.458-.639-1.006-.948-1.529-.87-1.443-1.446-3.102-1.916-4.645-.379-1.241-.392-2.645-.903-3.836 0 0-3.368-7.854-6.532-7.62-3.167.225-4.676 8.655 4.318 18.127 0 0-6.371-3.481-8.229-6.285 0 0-2.852-4.838-4.383.382-1.537 5.225 12.363 11.336 12.363 11.336s.674.778-1.031.872c0 0-8.834-5.635-9.171-3.38-.351 2.247 6.635 5.776 10.179 6.839 0 0 2.206.873.742 1.089 0 0-4.525-1.756-5 .047-.465 1.797 13.834 5.953 13.834 5.953l2.682-12.77z"/><defs><path id="k" d="M37.089 23.152l-6.018-4.557s-2.594-3.462-3.755-10.034c0 0-3.368-7.854-6.532-7.62-3.167.225-4.676 8.655 4.318 18.127 0 0-6.371-3.481-8.229-6.285 0 0-2.852-4.838-4.383.382-1.537 5.225 12.363 11.336 12.363 11.336s.674.778-1.031.872c0 0-8.834-5.635-9.171-3.38-.351 2.247 6.635 5.776 10.179 6.839 0 0 2.206.873.742 1.089 0 0-4.525-1.756-5 .047-.465 1.797 6.531 4.503 9.035 5.241 2.047.601 4.799.712 4.799.712l2.683-12.769z"/></defs><linearGradient id="l" x1="18.584" x2="27.014" y1="-1.381" y2="26.557" gradientUnits="userSpaceOnUse"><stop offset=".288" stop-color="#4D322C"/><stop offset=".661" stop-color="#381E17"/><stop offset="1" stop-color="#2A1009"/></linearGradient><use fill="url(#l)" xlink:href="#k" overflow="visible"/><clipPath id="m"><use xlink:href="#k" overflow="visible"/></clipPath><linearGradient id="n" x1="18.584" x2="27.014" y1="-1.381" y2="26.557" gradientUnits="userSpaceOnUse"><stop offset=".288" stop-color="#4D322C"/><stop offset=".661" stop-color="#381E17"/><stop offset="1" stop-color="#2A1009"/></linearGradient><path fill="url(#n)" d="M37.089 23.152l-6.018-4.557s-2.594-3.462-3.755-10.034c0 0-3.368-7.854-6.532-7.62-3.167.225-4.676 8.655 4.318 18.127 0 0-6.371-3.481-8.229-6.285 0 0-2.852-4.838-4.383.382-1.537 5.225 12.363 11.336 12.363 11.336s.674.778-1.031.872c0 0-8.834-5.635-9.171-3.38-.351 2.247 6.635 5.776 10.179 6.839 0 0 2.206.873.742 1.089 0 0-4.525-1.756-5 .047-.465 1.797 10.419 5.987 10.419 5.987l3.415-.034 2.683-12.769z" clip-path="url(#m)"/><radialGradient id="o" cx="41.449" cy="24.526" r="15.522" gradientTransform="matrix(1.497 0 0 1.497 -18.837 -19.975)" gradientUnits="userSpaceOnUse"><stop offset=".288" stop-color="#4D322C"/><stop offset=".482" stop-color="#7A593F"/><stop offset=".669" stop-color="#A0794E"/><stop offset=".767" stop-color="#AE8554"/></radialGradient><path fill="url(#o)" d="M42.959 10.599s-6.813-.719-9.2 5.26c-2.398 5.98-1.924 21.254-.846 22.821 0 0 1.085 4.913 6.103 5.992 5.018 1.073 9.088-7.894 9.088-7.894s10.275-25.581-5.145-26.179z"/><defs><path id="p" d="M42.959 10.599s-6.813-.719-9.2 5.26c-2.398 5.98-1.924 21.254-.846 22.821 0 0 1.085 4.913 6.103 5.992 5.018 1.073 9.088-7.894 9.088-7.894s10.275-25.581-5.145-26.179z"/></defs><radialGradient id="q" cx="41.449" cy="24.526" r="15.522" gradientTransform="matrix(1.497 0 0 1.497 -18.837 -19.975)" gradientUnits="userSpaceOnUse"><stop offset=".288" stop-color="#4D322C"/><stop offset=".482" stop-color="#7A593F"/><stop offset=".669" stop-color="#A0794E"/><stop offset=".767" stop-color="#AE8554"/></radialGradient><use fill="url(#q)" xlink:href="#p" overflow="visible"/><clipPath id="r"><use xlink:href="#p" overflow="visible"/></clipPath><radialGradient id="s" cx="41.449" cy="24.526" r="15.522" gradientTransform="matrix(1.497 0 0 1.497 -18.837 -19.975)" gradientUnits="userSpaceOnUse"><stop offset=".288" stop-color="#4D322C"/><stop offset=".482" stop-color="#7A593F"/><stop offset=".669" stop-color="#A0794E"/><stop offset=".767" stop-color="#AE8554"/></radialGradient><path fill="url(#s)" d="M32.387 37.93s.6-17.58 2.741-17.103l19.507-3.449-9.812-8.858-11.957 2.269-2.748 25.704 2.269 1.437z" clip-path="url(#r)"/><radialGradient id="t" cx="41.553" cy="27.452" r="5.508" gradientTransform="matrix(1.497 0 0 1.497 -18.837 -19.975)" gradientUnits="userSpaceOnUse"><stop offset="0" stop-color="#8B6C49"/><stop offset=".283" stop-color="#86694A"/><stop offset=".613" stop-color="#78604C"/><stop offset=".966" stop-color="#61524F"/><stop offset="1" stop-color="#5E504F"/></radialGradient><path fill="url(#t)" fill-rule="evenodd" d="M45.276 15.171c.334-.853.783-1.657 1.836-1.751.775-.067 1.369.225 1.854.534.391.247 1.023.719 1.185 1.2l.12.671c.332.924 1.371 1.303 1.734 2.163.257.612.02 1.403-.173 1.921-.221.597-.431 1.132-.617 1.699-.384 1.173-.876 2.24-1.424 3.229-.542.971-2.396 2.921-2.961 3.228-.491.266-1.614.904-2.273.753-.554-.127-1.491-.186-3.372-1.449-2.604-1.746-4.35-3.879-5.896-6.55-.139-.238-.293-.503-.429-.807-.122-.268-.297-.721-.206-1.029.1-.341.795-.509 1.115-.738.707-.504 1.238-1.254 1.406-2.298.09-.542.184-1 .446-1.391.534-.787 1.538-1.067 2.679-.978 1.274.1 2.301.399 2.814 1.32l.152.275c.434.474 1.524.556 2.01-.002z" clip-rule="evenodd"/><path fill="#211E22" d="M45.909 21.062s.103 1.346-.219 1.58l-2.4.782-1.463-.71-.162-.206.061-.265 1.846-1.91 2.337.729z"/><path fill="#0D0000" d="M41.665 22.367s1.418-1.194 3.135-1.194c1.727 0 2.635.597 2.635.597s-.052-2.541-2.293-2.6c-2.252-.047-3.477 3.197-3.477 3.197zM41.231 22.111s1.889 1.088 4.678.288c0 0-.624 1.435-2.338 1.509-1.722.071-2.34-1.797-2.34-1.797z"/><radialGradient id="u" cx="37.567" cy="25.003" r="2.714" gradientTransform="matrix(1.497 0 0 1.497 -18.837 -19.975)" gradientUnits="userSpaceOnUse"><stop offset="0" stop-color="#EDDBAE"/><stop offset=".225" stop-color="#DEC291"/><stop offset=".551" stop-color="#CAA36B"/><stop offset=".724" stop-color="#C3975D"/></radialGradient><path fill="url(#u)" d="M36.442 18.583c-.295.67.515 1.82 1.485 2.248.966.424 1.588.076 1.884-.595.292-.671-.316-1.388-1.281-1.813-.97-.427-1.793-.512-2.088.16z"/><radialGradient id="v" cx="-3818.031" cy="25.146" r="2.714" gradientTransform="matrix(-1.497 0 0 1.497 -5665.708 -19.975)" gradientUnits="userSpaceOnUse"><stop offset="0" stop-color="#EDDBAE"/><stop offset=".225" stop-color="#DEC291"/><stop offset=".551" stop-color="#CAA36B"/><stop offset=".724" stop-color="#C3975D"/></radialGradient><path fill="url(#v)" d="M51.329 18.795c.295.671-.515 1.823-1.485 2.249-.966.425-1.585.077-1.88-.594-.297-.669.314-1.389 1.277-1.813.971-.428 1.793-.512 2.088.158z"/><radialGradient id="w" cx="39.369" cy="22.209" r="3.175" gradientTransform="matrix(1.497 0 0 1.497 -18.837 -19.975)" gradientUnits="userSpaceOnUse"><stop offset=".092" stop-color="#EDDBAE"/><stop offset=".374" stop-color="#DEC291"/><stop offset=".784" stop-color="#CAA36B"/><stop offset="1" stop-color="#C3975D"/></radialGradient><path fill="url(#w)" fill-rule="evenodd" d="M36.359 14.462c.017.444 2.388 1.147 4.194 1.076 1.807-.071 2.503-.573 2.352-1.333-.293-1.473-2.076-.727-3.646-.604-1.805.14-2.917.415-2.9.861z" clip-rule="evenodd"/><radialGradient id="x" cx="-4588.934" cy="218.953" r="3.173" gradientTransform="matrix(-1.089 .002 -.054 1.119 -4935.626 -223.125)" gradientUnits="userSpaceOnUse"><stop offset=".092" stop-color="#EDDBAE"/><stop offset=".374" stop-color="#DEC291"/><stop offset=".784" stop-color="#CAA36B"/><stop offset="1" stop-color="#C3975D"/></radialGradient><path fill="url(#x)" fill-rule="evenodd" d="M50.452 14.48c-.029.331-1.778.858-3.09.807-1.311-.051-1.799-.427-1.66-.993.266-1.102 1.536-.545 2.674-.456 1.307.103 2.105.309 2.076.642z" clip-rule="evenodd"/><path fill="#0D0000" d="M42.604 16.681c0 .971-.549 1.76-1.223 1.76-.68 0-1.229-.79-1.229-1.76 0-.977.549-1.766 1.229-1.766.675 0 1.223.79 1.223 1.766z"/><path fill="#fff" d="M42.267 15.982c0 .238-.201.441-.439.441-.25 0-.445-.203-.445-.441 0-.243.195-.443.445-.443.237 0 .439.201.439.443z"/><path fill="#0D0000" d="M49.21 16.681c0 .971-.684 1.76-1.542 1.76-.856 0-1.562-.79-1.562-1.76 0-.977.705-1.766 1.562-1.766.858 0 1.542.79 1.542 1.766z"/><path fill="#fff" d="M48.771 15.982c0 .238-.199.441-.438.441-.251 0-.446-.203-.446-.441 0-.243.195-.443.446-.443.238 0 .438.201.438.443z"/><radialGradient id="y" cx="-730.206" cy="-1932.941" r="4.543" gradientTransform="matrix(.657 1.345 -1.345 .657 -2083.568 2298.198)" gradientUnits="userSpaceOnUse"><stop offset="0" stop-color="#3F2C28"/><stop offset=".131" stop-color="#2D2021"/><stop offset=".356" stop-color="#141018"/><stop offset=".562" stop-color="#050513"/><stop offset=".73" stop-color="#000211"/></radialGradient><path fill="url(#y)" fill-rule="evenodd" d="M36.708 43.126c-.383-.388-1.707-.795-2.131-.453-.342.276-.744 3.266-.806 3.702-.095.691.06 1.389.06 1.389l1.246-2.529s-.264 3.01.229 2.99c.192-.007.722-3.17.722-3.17l.394 3.266s.658-.38.639-3.455c-.004-.443-.04-1.422-.353-1.74z" clip-rule="evenodd"/><radialGradient id="z" cx="-728.073" cy="-1936.304" r="4.545" gradientTransform="matrix(.657 1.345 -1.345 .657 -2083.568 2298.198)" gradientUnits="userSpaceOnUse"><stop offset="0" stop-color="#3F2C28"/><stop offset=".131" stop-color="#2D2021"/><stop offset=".356" stop-color="#141018"/><stop offset=".562" stop-color="#050513"/><stop offset=".73" stop-color="#000211"/></radialGradient><path fill="url(#z)" fill-rule="evenodd" d="M42.634 43.79c-.383-.389-1.707-.797-2.133-.455-.342.276-.836 3.326-.918 3.759-.076.394.172 1.332.172 1.332l1.1-3.119s-.115 3.599.377 3.578c.193-.008.979-3.568.979-3.568l.135 3.666s.66-.383.639-3.455c-.004-.444-.039-1.424-.351-1.738z" clip-rule="evenodd"/></svg>