<?xml version="1.0" encoding="utf-8"?><svg xmlns="http://www.w3.org/2000/svg" width="102.314" height="131.782" viewBox="0 0 102.314 131.782"><path fill="#D48022" d="M63.479 126.006c.313 1.703 2.172 1.039 3.106 2.322 1.076 1.478-.766 3.162-1.586 3.453 0 0 .144-2.102-.254-2.096-1.332.02-2.428-1.154-2.428-1.154s-2.418-.162-3.234-.878c-1.856-1.618-1.168-1.54-2.1-1.624-2.914-.266-3.781 1.221-3.902 1.152-.488-.285.183-2.262 1.14-2.197.131.01 1.366-.802 2.286-.67.234.034 1.783.418 1.783.418l-.039-.365s3.103-.789 3.213-.634c1.107 1.554 2.267.457 3.484.528 1.797.104 2.031.887 2.113.934 1.16.678 1.362 2.535.311 3.186 0 0-.322-1.762-1.293-1.834-.661-.05-2.6-.541-2.6-.541zM31.373 124.959c-.696 1.586-2.352.513-3.557 1.541-1.387 1.191.018 3.258.748 3.728 0 0 .345-2.076.729-1.979 1.291.326 2.628-.563 2.628-.563s2.391.396 3.351-.108c2.181-1.148 1.492-1.23 2.418-1.1 2.896.415 3.396 2.061 3.529 2.021.545-.164.346-2.244-.601-2.4-.13-.021-1.146-1.092-2.072-1.178-.233-.021-1.832-.004-1.832-.004l.125-.349s-2.838-1.481-2.982-1.354c-1.436 1.254-2.312-.078-3.511-.291-1.771-.312-2.183.396-2.271.426-1.283.393-1.91 2.15-1.037 3.025 0 0 .719-1.64 1.682-1.486.655.101 2.653.071 2.653.071zM36.021 109.67c-.715-.049-.963 4.246-1.341 5.65-.184.674-1.282 1.873-1.13 2.553.064.293.788.504.903.779.322.771-.227 3.332-.227 3.332l-.226 2.044 2.238.007s.068-4.018.594-5.221c.119-.273.732-.609.778-.904.084-.527-.688-1.453-.822-1.969-.169-.646-.3-2.65-.3-2.65l.926-3.047-1.393-.574zM61.02 110.021c-.715-.048-.963 4.248-1.34 5.647-.183.674-1.283 1.873-1.13 2.558.064.289.787.502.902.778.324.771-.225 3.332-.225 3.332l-.228 2.043 2.24.008s.066-4.02.592-5.223c.121-.272.732-.608.781-.903.082-.527-.689-1.453-.824-1.97-.168-.646-.299-2.651-.299-2.651l.924-3.048-1.393-.571z"/><path fill="#B7802F" d="M35.688 111.363c.248-.45.883-.215 1.006.208.135.465.859.266.724-.199-.301-1.029-1.81-1.42-2.377-.388-.233.425.415.804.647.379zM35.257 114.104c.219-.348.73-.398.966-.033.26.405.909.029.646-.379-.542-.845-1.737-.798-2.26.033-.258.412.391.788.648.379zM34.803 116.01c.447-.579 1.204-.26 1.69.08.398.277.772-.373.379-.647-.889-.62-2.007-.729-2.717.188-.296.384.357.757.648.379zM34.896 119.991c.423-.191 1.028-.363 1.346.094.273.396.923.021.647-.379-.58-.838-1.535-.742-2.373-.363-.439.199-.057.845.38.648zM34.304 122.398c.685-.092 1.344-.067 2.009.13.464.139.662-.585.199-.723-.724-.217-1.462-.258-2.208-.157-.472.063-.478.813 0 .75zM33.706 123.571c.594.611 1.785 1.051 2.631.922.478-.072.273-.795-.198-.723-.566.086-1.516-.332-1.902-.73-.338-.347-.868.184-.531.531zM32.248 123.39c-.939-.204-2.357.8-1.375 1.698.356.326.889-.203.53-.53-.185-.168-.1-.196.099-.312.143-.082.379-.17.546-.135.472.104.672-.618.2-.721zM30.116 122.67c-.784.545-.938 1.848-.249 2.535.342.342.873-.188.53-.531-.327-.325-.293-1.086.097-1.354.395-.275.021-.924-.378-.65zM27.921 123.804c.319.206.241.599.126.899-.172.453.555.646.725.199.244-.645.131-1.357-.472-1.748-.407-.261-.783.388-.379.65zM29.167 126.364c.749.271 1.066.979.911 1.738-.097.473.626.673.724.199.242-1.182-.284-2.245-1.435-2.66-.457-.164-.652.561-.2.723zM30.858 125.905c.617.524 1.34 1.045 1.475 1.896.075.477.798.273.725-.199-.156-.984-.953-1.618-1.668-2.229-.367-.31-.9.217-.532.532zM36.774 124.608c-1.013.334-1.189 1.605-.719 2.453.233.423.882.045.646-.379-.22-.396-.259-1.178.271-1.352.458-.149.262-.874-.198-.722zM38.049 124.657c-.672.403-1.061 1.233-.68 1.963.224.43.871.051.647-.379-.187-.355.112-.758.412-.937.414-.248.037-.897-.379-.647zM39.767 125.239c-.73.172-1.246.885-1.056 1.631.12.469.844.271.725-.199-.093-.358.208-.633.53-.709.471-.11.271-.833-.199-.723zM40.365 125.747c-.707.164-1.077.756-.881 1.459.129.467.853.269.724-.199-.088-.316.046-.465.357-.536.47-.111.27-.833-.2-.724zM34.625 121.198c.567-.082 1.078-.084 1.63.082.464.141.661-.584.199-.723-.685-.206-1.327-.186-2.028-.082-.478.07-.274.793.199.723zM35.454 112.713c.218-.348.729-.4.964-.034.262.405.91.028.647-.38-.542-.844-1.736-.797-2.259.035-.258.411.392.788.648.379zM34.763 118.942c.428-.191 1.328-.441 1.676.035.282.387.933.014.646-.379-.633-.868-1.84-.689-2.703-.305-.438.198-.057.845.381.649zM60.719 111.267c.248-.451.882-.211 1.005.211.135.464.857.267.723-.199-.299-1.03-1.806-1.422-2.375-.391-.235.424.412.802.647.379zM60.289 114.01c.218-.35.728-.399.961-.032.262.405.91.03.648-.379-.541-.845-1.736-.802-2.258.032-.256.412.393.787.649.379zM59.773 115.989c.482-.623 1.188-.387 1.75.004.397.276.771-.373.379-.647-.82-.57-1.978-.769-2.66.112-.292.378.235.912.531.531zM60.484 112.618c.217-.349.729-.402.963-.035.261.405.91.029.648-.379-.542-.844-1.738-.797-2.261.034-.255.411.394.787.65.38zM60.061 120.312c.423-.19 1.028-.362 1.346.095.273.395.924.02.648-.38-.581-.838-1.535-.741-2.373-.362-.441.197-.059.843.379.647zM59.568 122.706c.646-.086 1.283-.045 1.908.145.464.141.661-.583.198-.723-.761-.23-1.522-.25-2.307-.145-.475.064-.271.788.201.723zM58.871 123.892c.592.612 1.786 1.053 2.631.924.478-.071.273-.795-.198-.724-.566.087-1.517-.332-1.9-.731-.338-.349-.868.182-.533.531zM59.789 121.517c.566-.079 1.078-.081 1.629.086.464.142.661-.583.199-.724-.685-.207-1.326-.185-2.027-.086-.478.067-.274.79.199.724zM59.928 119.265c.426-.192 1.33-.443 1.676.032.28.389.932.015.647-.379-.629-.869-1.845-.688-2.703-.303-.44.199-.058.846.38.65zM62.807 125.103c.152.006.3.117.422.2.201.138.336.266.094.393-.428.227-.049.873.379.648 1.174-.619.069-1.952-.895-1.991-.484-.02-.482.73 0 .75zM64.516 124.726c.31.36.148 1.104-.25 1.338-.417.245-.039.894.379.647.84-.492 1.022-1.791.401-2.518-.315-.366-.843.167-.53.533zM66.68 125.124c-.68.23-.972.877-.896 1.565.051.476.802.479.75 0-.034-.319-.016-.72.346-.843.454-.154.259-.879-.2-.722zM65.025 127.256c-1.213.113-2.006 1-2.07 2.205-.025.483.726.481.75 0 .041-.77.529-1.381 1.32-1.455.478-.043.482-.793 0-.75zM63.131 126.485c-.845.409-1.779.819-2.178 1.734-.188.439.456.82.648.379.343-.793 1.179-1.112 1.907-1.465.437-.211.056-.857-.377-.648zM57.736 125.03c.47.307.236 1.045-.08 1.375-.334.35.195.881.531.531.671-.702.821-1.971-.072-2.555-.406-.263-.782.386-.379.649zM56.338 124.635c.244.248.433.717.16 1.012-.325.355.203.889.531.531.554-.605.386-1.516-.16-2.073-.34-.345-.87.185-.531.53zM54.682 124.883c.292.154.517.492.336.816-.234.424.413.803.647.379.374-.674.058-1.49-.604-1.844-.427-.226-.806.423-.379.649zM53.975 125.226c.282.146.379.319.211.604-.244.418.402.797.647.379.368-.629.164-1.299-.479-1.633-.429-.221-.809.426-.379.65z"/><path fill="#F1D484" d="M73.098 57.491s.735-7.195 10.838-6.289c2.94.264 8.069 3.922 10.19 5.979 2.761 2.674 6.328 5.209 8.188 13.004.1.418-13.621-5.501-17.158-6.789-2.123-.773-5.531-.01-7.467-2.105-1.316-1.428-4.591-3.8-4.591-3.8z"/><path fill="#EEB651" d="M33.302 105.967l-.069 4.539 2.905-.521 1.396.573.395 1.224 1.872.606.13-1.907 2.639-3.648zM58.125 106.694l-.068 4.537 2.906-.518 1.394.573.397 1.222 1.871.605.131-1.905 2.639-3.648z"/><path fill="#F1D484" d="M34.486 44.574c-1.967 3.786-7.747 16.257-11.58 22.747-2.998 5.076-4.879 15.582-3.98 19.408 6.228 26.512 28.761 23.811 35.11 23.891 6.75.086 21.771.988 28.814-26.211 4.78-18.475-9.275-28.9-12.435-37.563-3.817-10.477-15.119-9.469-20.172-9.546-11.957-.18-14.127 4.135-15.757 7.274z"/><path fill="#fff" stroke="#fff" stroke-width=".266" d="M41.11 57.524c-4.371 3.341-9.03 18.505-7.602 23.816 1.292 4.804 5.368 11.951 17.168 14.488 13.75 2.957 19.151-9.56 20.651-14.047 1.805-5.402.582-18.513-3.469-22.515-4.94-4.874-21.233-5.958-26.748-1.742z"/><path fill="#BFBCBA" d="M40.906 56.066c-4.324 3.308-4.554 6.55-6.452 13.874-.173.666 1.666-22.695 28.593-8.255 12.269 6.58 3.371 26.254 6.304 22.599 4.803-5.979 2.043-22.531-1.97-26.49-4.889-4.829-21.014-5.9-26.475-1.728z"/><path fill="#EEB651" d="M34.199 42.585c-1.129 3.172-2.215 10.451-6.073 15.225-3.769 4.664-7.421 11.004-6.854 13.969.14.728 7.585-26.832 44.345-17.836 16.076 3.936 17.707 31.511 18.021 28.229 1.84-19.088-15.972-36.029-19.779-42.09-4.604-7.332-13.062-5.779-17.289-5.055-10.004 1.72-11.436 4.933-12.371 7.558z"/><path fill="#F1D484" d="M44.963 0v15.007s-7.5 2.477-8.75 15.863l-5.551 21.481s15.051 1.608 24.552 22.381c0 0 9.183-20.286 16.683-24.101 0 0-5.933-19.375-8.183-25.125l-10.25-11.561s-3.001-10.952-8.501-13.945z"/><path fill="#221E21" d="M63.912 53.757" opacity=".5" enable-background="new"/><path fill="#7F8080" d="M60.096 23.497c1.952 1.668 3.252 5.388 3.295 6.939.069 2.771-1.736 3.822-4.351 5.174-1.332.688-4.455-.544-5.444-1.643-2.267-2.517-2.847-11.861-.132-12.646 3.298-.957 6.196 1.803 6.632 2.176z"/><path fill="#fff" d="M54.607 23.212c2.342-.432 7.219 4.018 6.74 7.467-.052.381.125 3.861-4.796 4.658-1.396.225-3.911-1.686-4.094-2.988-1.219-8.719.561-8.843 2.15-9.137z"/><path d="M56.424 30.247c.72-.204 1.277.494 1.386.898.18.689-.066 1.707-.722 1.857-.821.186-1.553-.637-1.625-1.09-.072-.451.141-1.431.961-1.665zM56.488 30.688c.502-.079.813.41.879.824.096.613-.469.953-.678.964-.515.026-.73-.314-.797-.771.001.001-.103-.909.596-1.017z"/><ellipse cx="57.204" cy="31.076" fill="#fff" transform="matrix(-.158 .988 -.988 -.158 96.909 -20.514)" rx=".316" ry=".297"/><path fill="#7F8080" d="M40.679 24.97c-1.964 1.652-3.291 5.363-3.343 6.915-.093 2.769 1.707 3.835 4.312 5.203 1.328.698 4.457-.51 5.457-1.604 2.282-2.497 2.928-11.84.221-12.645-3.292-.977-6.207 1.76-6.647 2.131z"/><path fill="#fff" d="M45.882 25.05c-2.321-.531-7.384 3.705-7.057 7.17.037.385-.289 3.854 4.593 4.859 1.386.283 3.979-1.514 4.219-2.809 1.593-8.658-.179-8.859-1.755-9.22z"/><path d="M44.232 31.178c-.662-.176-1.187.419-1.289.763-.174.587.047 1.459.649 1.588.761.162 1.445-.539 1.516-.927.071-.384-.117-1.219-.876-1.424zM44.155 31.527c-.466-.069-.757.347-.821.702-.095.521.423.813.617.822.475.025.678-.265.746-.654 0 0 .104-.775-.542-.87z"/><circle cx="44.564" cy="32.134" r=".274" fill="#fff"/><path fill="#D7AE2B" d="M59.62 40.832s-5.875-8.279-8.875-7.5c0 0-2.567-1.199-8.05 8.478 0 0 3.3 6.009 7.925 6.266-.001-.001 1.875 1.727 9-7.244z" enable-background="new"/><path fill="#EEC280" d="M61.496 22.067c.072.177-5.725-5.268-8.121-5.867-2.096-.525-6.999.183-9.148.406-3.165.33-7.055 8.189-6.013 6.291 3.103-5.65 4.703-6.619 4.703-6.619 2.079-3.908.054-15.543 1.439-15.905 5.169-1.349 10.184 14.698 10.184 14.698s4.886 1.903 6.956 6.996z"/><path fill="#CE922D" d="M50.435 5.772c-3.467-6.339-5.717-5.684-5.717-5.684 4.76 5.426 7.781 14.076 7.52 15.491-.258 1.403 1.307-.546 1.926-.323.361.131.291-2.14-3.729-9.484z"/><path fill="#EEB651" d="M64.412 29.304s.125 1.813.685 4.6c.645 3.217 1.418 6.928.704 8.423-.495 1.042-.362 1.999-.362 1.999.098-.764 1.119-1.102 2.045-.949.436.072 1.969 1.252 2.602 1.719.414.303-1.01-2.131-1.061-2.641-.076-.785-2.314-4.598-2.383-4.934-.57-2.819-2.23-8.217-2.23-8.217z"/><path fill="#F1D484" d="M34.183 59.215s.268-8.058-11.027-8.578c-3.288-.151-9.502 3.116-12.155 5.067-3.447 2.537-7.773 4.803-10.999 13.132-.174.447 15.871-4.024 19.973-4.917 2.463-.536 6.11.823 8.564-1.2 1.668-1.378 5.644-3.504 5.644-3.504z"/><path fill="#CE922D" d="M48.49 42.419c.875.004 2.605.28 3.475.377.699.079 2.548-.708 3.123-.176.316.293.039 1.305-.047 1.727-.082.4-.252 1.609-.252 1.609 1.109-1.232 1.482-2.549 2.076-3.38.33-.462 2.807-1.036 2.807-1.036s-3.36-.139-4.321-.176c-.992-.037-2.855.472-3.847.41-.688-.04-2.073-.509-2.762-.469-1.28.073-5.176 1.451-5.176 1.451s2.387.079 3.213-.135c.431-.112 1.279-.202 1.711-.202zM46.955 37.237c-.086.166 1.158-2.464 2.713-3.164.679-.303 2.313-.082 2.95.296.48.283 1.244 1.14 1.541 1.61.369.586.947 1.844 1.197 2.486.133.332.172 1.162.477 1.354.263.166.924-.174 1.234-.152.416.025 2 1.077 2 1.077-2.232-1.802-3.146-3.797-3.744-4.542-.801-1-2.139-2.549-3.76-2.942-.832-.201-2.001.042-2.407.731-.807 1.373-.36-.26-2.201 3.246z"/><path fill="#BF8025" d="M46.511 41.886s1.852-.575 2.488-.586c.618-.012 1.806.449 2.419.482.685.034 2.028-.334 2.713-.369 1.361-.076 5.457.133 5.457.133s-3.284.508-3.194 1.953c.018.271-.104-.873-.308-1.059-.479-.443-1.543-.854-4.35-.389-1.045.172-1.387-.156-2.447-.166-.692-.008-2.778.001-2.778.001z"/><path fill="#fff" d="M50.488 34.606s.041.271.008.354c-.057.135-.426.41-.426.41l.215-.393.203-.371zM52.236 35.41s-.269-.065-.328-.128c-.104-.105-.217-.551-.217-.551l.279.352.266.327z"/><path fill="#EEB651" d="M19.357 51.413s7.276.861 9.105 1.84c1.779.955 4.987 3.528 4.987 3.528s-1.379-4.903-8.721-6.052c-1.959-.309-5.371.684-5.371.684zM75.361 56.414l-1.025-1.7s3.229-2.923 4.547-3.357c4.084-1.354 9.445 1.484 9.445 1.484s-7.535-.91-9.135-.078c-1.148.597-3.832 3.651-3.832 3.651z"/></svg>