<?xml version="1.0" encoding="utf-8"?><svg xmlns="http://www.w3.org/2000/svg" width="320" height="420" xmlns:xlink="http://www.w3.org/1999/xlink" viewBox="-70.102 -78.461 320 420" enable-background="new -70.102 -78.461 320 420"><path fill="#91A73C" d="M-65.673 253.101l135.795 67.972-4.258 4.138 31.408 5.498 122.469 6.582 25.728-56.802-34.136-13.985-4.106 2.533-104.019-46.821-109.822 6.617-59.059 16.746z"/><path fill="#DDC6AA" d="M-65.673 142.709h133.65v110.392h-133.65z"/><path fill="#D4BEA4" d="M103.208 222.216l-35.23 30.885v-110.392l35.23-19.228z"/><path fill="#C1AE97" d="M-71.046 142.709h142.47v22.501h-142.47z"/><path fill="#AE9C88" d="M71.423 165.21l33.991-24.451-.276-17.278-33.715 19.228z"/><path fill="#DDC6AA" d="M71.423 142.709h-142.469l42.755-19.228h133.429z"/><path fill="#D8D4CB" d="M34.154 196.052c5.53 15.396-3.267 33.302-19.63 39.994-16.371 6.687-34.121-.372-39.649-15.773-5.528-15.395 3.264-33.302 19.63-39.992 16.365-6.686 34.123.374 39.649 15.771z"/><path fill="#E46531" d="M16.695 177.455c18.232 4.664 24.7 21.45 20.017 37.352-5.125 17.444-22.058 26.031-34.455 26.305-18.134.391-32.041-14.057-31.749-29.117.413-21.544 19.294-34.36 33.522-35.848 3.95-.418 6.643-.233 12.665 1.308zm-17.611 2.506c-7.684 1.923-17.284 7.19-22.504 18.579-8.579 18.713 2.553 38.142 22.677 39.236 12.362.687 28.867-7.413 34.06-23.824 1.613-5.11 1.5-12.138.851-14.988-1.48-6.519-8.2-16.242-19.948-18.954-6.645-1.525-11.281-1.021-15.136-.049zM20.614 184.193c-.457 3.043-7.549 2.542-11.271 3.154-12.018 1.989-23.111 11.466-31.473 22.192 6.005 2.21 10.594-5.411 15.747-8.027 5.101-2.599 10.43-2.504 14.973-5.696.507.425 1.457 2.244 2.421 1.359-3.356 4.665-11.273 4.969-16.001 8.807 1.725.515 3.151 1.192 3.745 2.288.413 1.561-1.165 2.459-.789 3.642 4.176.994 7.11-3.4 11.167-4.075 4.552-.757 8.829 2.372 13.653.81 3.52-1.145 5.455-4.504 9.304-2.162.327 9.379-6.414 18.445-11.459 22.347-4.137-4.794-4.803-11.358-6.558-17.368-6.842-5.61-17.817 8.493-24.175 1.326-.829-.938-1.398-3.563.082-5.215-4.228.23-6.9 3.93-10.932 4.593-.709 5.215 2.507 8.428 1.607 13.746-5.748-5.086-7.151-12.631-4.91-21.118 5.417-20.508 26.264-29.793 44.869-20.603zm-29.823 25.873c.678 3.606 5.976 2.929 6.613-1.427-2.166-1.724-5.581-1.531-6.613 1.427z"/><defs><path id="a" d="M71.466 142.696h-142.472l42.753-19.229h133.429z"/></defs><clipPath id="b"><use xlink:href="#a" overflow="visible"/></clipPath><g fill="#AE9C88" clip-path="url(#b)"><path d="M89.616 135.253c-.309 10.228-32.457 17.539-71.802 16.34-39.345-1.203-70.983-10.465-70.671-20.691.313-10.226 32.459-17.538 71.803-16.336 39.343 1.205 70.983 10.467 70.67 20.687z"/><ellipse cx="83.388" cy="137.876" transform="matrix(.107 -.994 .994 .107 -62.605 206.064)" rx="7.151" ry="23.835"/><ellipse cx="-42.358" cy="129.892" transform="matrix(.031 -1 1 .031 -170.893 83.581)" rx="6.195" ry="23.835"/></g><path fill="#0E0C17" d="M7.186 140.857h-8.711l28.503-15.513 6.116-.006z" opacity=".88" enable-background="new"/><path fill="#D48022" d="M50.09 122.885c.489 2.664 3.397 1.625 4.857 3.633 1.684 2.311-1.197 4.945-2.48 5.401 0 0 .226-3.289-.397-3.28-2.083.032-3.797-1.804-3.797-1.804s-3.782-.254-5.059-1.375c-2.902-2.529-1.827-2.409-3.284-2.54-4.558-.416-5.915 1.911-6.104 1.803-.764-.446.287-3.54 1.784-3.438.205.017 2.135-1.254 3.574-1.048.367.054 2.789.654 2.789.654l-.061-.57s4.854-1.234 5.026-.992c1.732 2.432 3.547.715 5.45.826 2.812.163 3.178 1.387 3.306 1.46 1.815 1.062 2.13 3.966.486 4.984 0 0-.504-2.756-2.022-2.868-1.036-.079-4.068-.846-4.068-.846zM-.131 121.248c-1.089 2.48-3.679.802-5.563 2.41-2.169 1.862.027 5.097 1.17 5.831 0 0 .54-3.247 1.14-3.097 2.02.511 4.111-.88 4.111-.88s3.741.62 5.242-.168c3.411-1.796 2.334-1.925 3.782-1.722 4.529.649 5.312 3.225 5.519 3.161.854-.257.542-3.511-.939-3.753-.203-.032-1.792-1.71-3.241-1.844-.364-.032-2.866-.007-2.866-.007l.195-.545s-4.439-2.317-4.664-2.119c-2.247 1.962-3.617-.122-5.491-.455-2.771-.487-3.416.62-3.553.668-2.007.615-2.988 3.362-1.622 4.73 0 0 1.124-2.564 2.632-2.323 1.022.158 4.148.113 4.148.113zM7.14 97.333c-1.118-.076-1.506 6.642-2.098 8.837-.289 1.056-2.005 2.93-1.769 3.994.101.459 1.232.788 1.413 1.218.504 1.205-.354 5.212-.354 5.212l-.354 3.197 3.501.012s.107-6.285.929-8.167c.187-.427 1.146-.952 1.218-1.413.131-.825-1.077-2.273-1.286-3.081-.265-1.01-.469-4.145-.469-4.145l1.448-4.766-2.179-.898zM46.243 97.881c-1.118-.075-1.506 6.645-2.096 8.833-.287 1.055-2.007 2.931-1.769 4.001.101.452 1.231.785 1.411 1.218.507 1.205-.351 5.212-.351 5.212l-.357 3.195 3.504.013s.104-6.288.926-8.17c.189-.426 1.146-.951 1.222-1.413.128-.824-1.079-2.272-1.29-3.081-.263-1.011-.467-4.146-.467-4.146l1.445-4.768-2.178-.894z"/><path fill="#B7802F" d="M6.619 99.98c.388-.704 1.381-.336 1.573.325.211.728 1.344.415 1.132-.312-.47-1.61-2.831-2.221-3.718-.606-.364.664.649 1.257 1.013.593zM5.944 104.268c.344-.544 1.143-.624 1.512-.053.406.634 1.421.046 1.01-.593-.848-1.321-2.717-1.248-3.535.053-.403.645.611 1.233 1.013.593zM5.235 107.25c.698-.906 1.882-.406 2.643.125.623.434 1.208-.583.593-1.013-1.39-.97-3.139-1.141-4.25.295-.463.6.559 1.183 1.014.593zM5.38 113.476c.661-.3 1.607-.568 2.105.146.428.62 1.443.033 1.013-.593-.907-1.311-2.401-1.161-3.712-.568-.688.312-.09 1.323.594 1.015zM4.454 117.241c1.071-.144 2.102-.105 3.142.203.726.217 1.036-.915.312-1.13-1.133-.339-2.288-.403-3.454-.246-.739.099-.748 1.272 0 1.173zM3.518 119.076c.929.956 2.792 1.644 4.115 1.441.749-.112.428-1.243-.309-1.13-.886.135-2.372-.52-2.976-1.143-.527-.541-1.357.29-.83.832zM1.238 118.792c-1.468-.318-3.686 1.252-2.151 2.657.558.51 1.392-.318.83-.83-.291-.263-.156-.307.154-.487.224-.128.592-.266.854-.212.738.163 1.052-.966.313-1.128zM-2.097 117.667c-1.227.852-1.466 2.89-.389 3.965.535.535 1.365-.295.829-.831-.512-.508-.458-1.698.151-2.118.619-.43.034-1.445-.591-1.016zM-5.531 119.441c.5.322.377.937.197 1.406-.269.709.869 1.01 1.135.311.382-1.01.205-2.122-.739-2.734-.636-.409-1.224.606-.593 1.017zM-3.582 123.444c1.171.425 1.668 1.531 1.425 2.72-.151.739.979 1.052 1.132.312.379-1.849-.443-3.512-2.244-4.161-.715-.258-1.02.876-.313 1.129zM-.936 122.726c.965.82 2.096 1.635 2.307 2.967.118.745 1.248.428 1.135-.312-.244-1.54-1.491-2.531-2.609-3.486-.575-.485-1.409.34-.833.831zM8.318 120.698c-1.584.522-1.861 2.512-1.125 3.837.364.662 1.379.07 1.01-.593-.344-.62-.405-1.842.425-2.113.716-.235.409-1.37-.31-1.131zM10.311 120.774c-1.051.631-1.659 1.93-1.063 3.07.35.673 1.362.08 1.013-.593-.293-.556.174-1.185.645-1.465.646-.387.056-1.403-.595-1.012zM12.999 121.685c-1.143.269-1.949 1.384-1.653 2.551.188.733 1.321.425 1.135-.312-.147-.56.325-.99.828-1.109.738-.171.425-1.302-.31-1.13zM13.934 122.479c-1.106.257-1.685 1.183-1.378 2.282.202.729 1.333.422 1.132-.312-.137-.494.072-.728.559-.837.735-.174.422-1.303-.313-1.133zM4.955 115.364c.888-.129 1.687-.132 2.549.128.726.22 1.034-.913.312-1.13-1.071-.322-2.076-.29-3.173-.129-.746.11-.427 1.24.312 1.131zM6.252 102.092c.341-.544 1.141-.626 1.508-.054.411.635 1.424.045 1.013-.594-.848-1.32-2.716-1.246-3.533.055-.405.642.612 1.232 1.012.593zM5.172 111.835c.669-.3 2.076-.69 2.622.055.441.604 1.458.021 1.01-.593-.99-1.358-2.878-1.078-4.229-.477-.684.309-.088 1.322.597 1.015zM45.771 99.831c.388-.706 1.381-.33 1.573.329.211.726 1.34.417 1.13-.312-.467-1.611-2.824-2.224-3.715-.61-.367.662.646 1.254 1.012.593zM45.099 104.121c.341-.547 1.14-.624 1.503-.05.411.634 1.423.047 1.014-.593-.846-1.321-2.716-1.254-3.532.05-.401.645.615 1.231 1.015.593zM44.293 107.215c.753-.975 1.857-.604 2.737.007.62.432 1.205-.584.592-1.012-1.283-.892-3.095-1.203-4.161.175-.456.592.369 1.426.832.83zM45.405 101.943c.339-.546 1.14-.63 1.506-.055.408.634 1.423.045 1.014-.593-.848-1.32-2.719-1.247-3.538.053-.398.644.617 1.232 1.018.595zM44.743 113.978c.662-.298 1.607-.566 2.105.148.428.617 1.445.03 1.015-.595-.909-1.311-2.401-1.159-3.712-.566-.691.309-.094 1.321.592 1.013zM43.972 117.722c1.009-.135 2.007-.07 2.984.228.726.222 1.034-.912.309-1.132-1.19-.359-2.38-.391-3.608-.227-.742.102-.423 1.234.315 1.131zM42.881 119.578c.926.958 2.794 1.647 4.115 1.445.749-.111.428-1.243-.309-1.132-.886.136-2.374-.52-2.973-1.144-.527-.545-1.357.286-.833.831zM44.317 115.863c.886-.123 1.686-.126 2.548.135.726.222 1.034-.912.312-1.132-1.071-.324-2.074-.29-3.171-.135-.747.104-.429 1.234.311 1.132zM44.535 112.34c.666-.301 2.079-.693 2.621.051.437.607 1.458.022 1.011-.593-.983-1.359-2.885-1.077-4.228-.474-.687.311-.09 1.324.596 1.016zM49.038 121.472c.237.009.469.184.66.313.314.215.525.415.146.614-.669.354-.076 1.365.593 1.014 1.836-.969.108-3.054-1.399-3.114-.757-.032-.754 1.141 0 1.173zM51.712 120.882c.484.563.23 1.728-.391 2.093-.652.384-.061 1.397.593 1.013 1.313-.77 1.598-2.801.626-3.939-.492-.573-1.319.261-.828.833zM55.096 121.504c-1.064.36-1.521 1.372-1.402 2.448.08.744 1.255.75 1.174 0-.054-.499-.024-1.125.54-1.318.711-.241.406-1.374-.312-1.13zM52.508 124.84c-1.897.178-3.138 1.564-3.238 3.449-.038.755 1.136.752 1.173 0 .064-1.205.828-2.16 2.065-2.276.747-.066.752-1.24 0-1.173zM49.544 123.633c-1.321.641-2.782 1.282-3.406 2.713-.293.688.713 1.283 1.014.593.536-1.24 1.844-1.739 2.981-2.291.685-.33.089-1.341-.589-1.015zM41.106 121.358c.734.479.37 1.634-.125 2.15-.522.547.306 1.378.831.831 1.049-1.099 1.283-3.082-.113-3.996-.636-.412-1.224.604-.593 1.015zM38.919 120.741c.382.388.678 1.121.25 1.582-.509.557.318 1.391.831.831.866-.947.603-2.37-.25-3.243-.532-.539-1.362.289-.831.83zM36.329 121.128c.457.241.808.77.525 1.277-.366.663.646 1.256 1.011.593.585-1.056.092-2.331-.944-2.886-.668-.352-1.261.662-.592 1.016zM35.223 121.665c.44.228.593.5.33.945-.382.654.628 1.247 1.011.593.576-.983.257-2.031-.749-2.554-.671-.347-1.265.666-.592 1.016z"/><path fill="#F1D484" d="M65.135 15.714s1.148-11.255 16.953-9.837c4.598.412 12.62 6.134 15.938 9.352 4.32 4.183 9.898 8.148 12.809 20.341.156.654-21.306-8.604-26.839-10.62-3.32-1.209-8.651-.016-11.679-3.292-2.059-2.234-7.182-5.944-7.182-5.944z"/><path fill="#EEB651" d="M2.885 91.541l-.106 7.099 4.544-.815 2.183.896.619 1.914 2.927.948.204-2.983 4.128-5.706zM41.714 92.676l-.105 7.098 4.544-.81 2.181.895.62 1.913 2.928.945.204-2.98 4.129-5.705z"/><path fill="#F1D484" d="M4.739-4.491c-3.077 5.922-12.119 25.429-18.114 35.58-4.689 7.94-7.631 24.374-6.226 30.358 9.743 41.47 44.989 37.244 54.919 37.369 10.559.135 34.055 1.546 45.071-40.999 7.476-28.897-14.507-45.204-19.451-58.754-5.97-16.388-23.649-14.812-31.553-14.932-18.703-.281-22.097 6.468-24.646 11.378z"/><path fill="#fff" stroke="#fff" stroke-width=".266" d="M15.1 15.765c-6.838 5.227-14.125 28.945-11.892 37.254 2.021 7.514 8.397 18.694 26.854 22.663 21.508 4.626 29.957-14.955 32.303-21.972 2.822-8.451.91-28.959-5.426-35.219-7.728-7.625-33.213-9.32-41.839-2.726z"/><path fill="#BFBCBA" d="M14.781 13.485c-6.765 5.174-7.124 10.245-10.093 21.702-.271 1.042 2.606-35.5 44.725-12.913 19.192 10.292 5.273 41.066 9.861 35.349 7.513-9.352 3.196-35.242-3.082-41.435-7.647-7.554-32.869-9.229-41.411-2.703z"/><path fill="#EEB651" d="M4.289-7.602c-1.765 4.961-3.464 16.348-9.499 23.815-5.895 7.295-11.608 17.212-10.72 21.85.218 1.138 11.864-41.97 69.364-27.899 25.146 6.156 27.697 49.289 28.189 44.156 2.878-29.858-24.984-56.357-30.939-65.837-7.203-11.469-20.433-9.04-27.043-7.908-15.649 2.691-17.89 7.717-19.352 11.823z"/><path fill="#F1D484" d="M21.126-74.213v23.474s-11.731 3.875-13.687 24.813c-1.955 20.937-8.682 33.6-8.682 33.6s23.542 2.515 38.404 35.008c0 0 14.365-31.731 26.096-37.699 0 0-9.281-30.306-12.8-39.3-3.52-8.994-16.033-18.083-16.033-18.083s-4.695-17.132-13.298-21.813z"/><path fill="#221E21" d="M50.766 9.873" opacity=".5" enable-background="new"/><path fill="#7F8080" d="M44.798-37.459c3.052 2.609 5.087 8.427 5.154 10.854.107 4.334-2.716 5.978-6.807 8.093-2.083 1.076-6.969-.851-8.515-2.57-3.547-3.937-4.454-18.553-.208-19.781 5.161-1.497 9.693 2.82 10.376 3.404z"/><path fill="#fff" d="M36.212-37.905c3.663-.676 11.292 6.285 10.543 11.68-.082.596.196 6.039-7.503 7.286-2.183.352-6.116-2.637-6.403-4.674-1.907-13.638.877-13.833 3.363-14.292z"/><path d="M39.053-26.901c1.127-.319 1.998.772 2.169 1.404.281 1.078-.104 2.67-1.13 2.905-1.283.291-2.429-.996-2.542-1.705-.112-.705.221-2.238 1.503-2.604zM39.154-26.211c.785-.124 1.271.642 1.375 1.289.15.958-.733 1.49-1.06 1.508-.807.041-1.143-.491-1.247-1.206.001.001-.162-1.422.932-1.591z"/><ellipse cx="40.276" cy="-25.602" fill="#fff" transform="matrix(.988 .157 -.157 .988 -3.521 -6.644)" rx=".465" ry=".495"/><path fill="#7F8080" d="M14.426-35.155c-3.073 2.584-5.148 8.389-5.23 10.816-.146 4.331 2.67 6 6.746 8.139 2.077 1.092 6.972-.797 8.536-2.509 3.57-3.906 4.58-18.52.345-19.779-5.15-1.529-9.709 2.752-10.397 3.333z"/><path fill="#fff" d="M22.563-35.031c-3.629-.83-11.55 5.795-11.038 11.216.058.602-.452 6.029 7.184 7.601 2.169.442 6.225-2.369 6.601-4.394 2.491-13.543-.281-13.857-2.747-14.423z"/><path d="M19.983-25.445c-1.036-.275-1.857.656-2.016 1.193-.272.918.073 2.282 1.014 2.483 1.191.254 2.261-.842 2.372-1.449.112-.6-.183-1.907-1.37-2.227zM19.863-24.899c-.729-.107-1.184.543-1.285 1.099-.148.815.662 1.271.965 1.285.743.04 1.06-.414 1.167-1.022 0-.001.162-1.213-.847-1.362z"/><circle cx="20.503" cy="-23.949" r=".429" fill="#fff"/><path fill="#D7AE2B" d="M44.052-10.344s-9.189-12.95-13.882-11.731c0 0-4.015-1.876-12.592 13.261 0 0 5.162 9.399 12.396 9.802-.001-.003 2.934 2.7 14.078-11.332z"/><path fill="#EEC280" d="M46.987-39.696c.113.277-8.955-8.241-12.703-9.177-3.278-.822-10.948.286-14.308.635-4.951.516-11.037 12.809-9.407 9.84 4.854-8.838 7.356-10.354 7.356-10.354 3.252-6.112.086-24.312 2.252-24.878 8.085-2.11 15.929 22.99 15.929 22.99s7.643 2.977 10.881 10.944z"/><path fill="#CE922D" d="M29.686-65.185c-5.424-9.915-8.944-8.891-8.944-8.891 7.447 8.488 12.171 22.018 11.764 24.231-.403 2.194 2.044-.854 3.012-.505.566.205.455-3.347-5.832-14.835z"/><path fill="#EEB651" d="M51.548-28.376s.196 2.836 1.073 7.195c1.008 5.032 2.218 10.837 1.1 13.176-.773 1.63-.565 3.127-.565 3.127.153-1.195 1.751-1.724 3.199-1.485.681.113 3.079 1.958 4.069 2.689.647.474-1.58-3.333-1.659-4.131-.119-1.229-3.62-7.192-3.728-7.718-.892-4.41-3.489-12.853-3.489-12.853z"/><path fill="#F1D484" d="M4.265 18.41s.418-12.604-17.249-13.417c-5.143-.237-14.863 4.874-19.013 7.925-5.391 3.969-12.158 7.513-17.205 20.542-.272.699 24.826-6.295 31.243-7.692 3.853-.839 9.556 1.288 13.395-1.877 2.609-2.155 8.829-5.481 8.829-5.481z"/><path fill="#CE922D" d="M26.643-7.862c1.369.006 4.076.438 5.435.589 1.094.124 3.987-1.107 4.885-.275.495.458.062 2.041-.073 2.702-.128.625-.394 2.517-.394 2.517 1.735-1.927 2.319-3.987 3.248-5.287.517-.723 4.39-1.621 4.39-1.621s-5.255-.218-6.758-.275c-1.552-.058-4.466.738-6.019.641-1.075-.063-3.241-.796-4.32-.733-2.002.114-8.096 2.269-8.096 2.269s3.733.124 5.025-.211c.675-.175 2.002-.316 2.677-.316zM24.242-15.968c-.134.26 1.812-3.854 4.244-4.948 1.063-.475 3.619-.128 4.615.462.751.442 1.946 1.783 2.41 2.519.578.917 1.482 2.885 1.873 3.888.208.52.269 1.818.745 2.118.413.26 1.445-.271 1.931-.237.65.039 3.128 1.685 3.128 1.685-3.492-2.819-4.922-5.94-5.857-7.105-1.252-1.564-3.345-3.987-5.881-4.602-1.301-.314-3.13.065-3.765 1.144-1.261 2.147-.564-.408-3.443 5.076z"/><path fill="#BF8025" d="M23.549-8.696s2.896-.899 3.891-.917c.967-.019 2.826.703 3.784.754 1.072.053 3.173-.522 4.244-.577 2.129-.119 8.536.208 8.536.208s-5.136.795-4.995 3.055c.028.424-.163-1.366-.482-1.657-.749-.693-2.414-1.336-6.804-.609-1.635.27-2.169-.244-3.828-.259-1.084-.011-4.346.002-4.346.002z"/><path fill="#fff" d="M29.769-20.083s.064.424.012.554c-.089.211-.666.642-.666.642l.336-.615.318-.581zM32.503-18.825s-.422-.102-.514-.2c-.162-.165-.339-.862-.339-.862l.437.55.416.512z"/><path fill="#EEB651" d="M-18.926 6.207s11.38 1.347 14.241 2.878c2.783 1.494 7.801 5.519 7.801 5.519s-2.157-7.67-13.641-9.467c-3.064-.484-8.401 1.07-8.401 1.07zM68.675 14.029l-1.604-2.66s5.052-4.572 7.112-5.251c6.388-2.117 14.775 2.322 14.775 2.322s-11.786-1.423-14.289-.122c-1.796.934-5.994 5.711-5.994 5.711z"/></svg>