<?xml version="1.0" encoding="utf-8"?><svg xmlns="http://www.w3.org/2000/svg" width="50" height="50" viewBox="0 0 50 50"><radialGradient id="a" cx="-5369.917" cy="-2268.628" r="33.548" fx="-5396.854" fy="-2268.187" gradientTransform="matrix(0 1.219 -1.219 0 -2739.28 6569.699)" gradientUnits="userSpaceOnUse"><stop offset="0" stop-color="#EF8068"/><stop offset=".207" stop-color="#E7775E"/><stop offset=".554" stop-color="#D16044"/><stop offset=".997" stop-color="#AE391A"/><stop offset="1" stop-color="#AE391A"/></radialGradient><path fill="url(#a)" d="M25.557 49.845c-13.594 0-24.607-11.019-24.607-24.611 0-13.593 11.014-24.611 24.607-24.611 13.591 0 24.611 11.019 24.611 24.611s-11.02 24.611-24.611 24.611z"/><path fill="#FFF6DC" d="M25.557 1.928c13.375 0 24.248 10.672 24.594 23.959l.017-.654c0-13.593-11.02-24.611-24.611-24.611-13.594.001-24.607 11.019-24.607 24.612l.014.654c.349-13.287 11.219-23.96 24.593-23.96z" opacity=".22"/><path fill="#801810" d="M25.559 48.799c-13.375 0-24.246-10.668-24.595-23.955l-.014.654c0 13.595 11.019 24.611 24.609 24.611 13.595 0 24.609-11.016 24.609-24.611l-.017-.654c-.346 13.287-11.218 23.955-24.592 23.955z" opacity=".7"/><path fill="#FFF6DC" d="M33.173 28.726c-.144-.138-1.157-1.176-2.545-2.587l5.111-5.093c.638-.66.761-1.584.266-2.059l-2.754-2.672c-.498-.479-1.412-.332-2.052.329 0 0-2.33 2.39-4.92 5.043-2.594-2.653-4.923-5.043-4.923-5.043-.638-.661-1.554-.807-2.049-.329l-2.754 2.672c-.495.475-.375 1.398.265 2.059l5.109 5.093c-1.382 1.411-2.403 2.449-2.541 2.587l-2.675 2.766c-.495.475-.705 1.526-.058 2.179l1.862 1.855c.304.307.666.49 1.016.564.501.16 1.169-.037 1.668-.549l5.081-5.067 5.083 5.067c.494.512 1.161.709 1.662.549.35-.074.712-.258 1.017-.564l1.858-1.856c.649-.652.44-1.704-.055-2.179l-2.672-2.765z"/><path fill="#801810" d="M33.173 27.725c-.144-.135-1.157-1.173-2.545-2.589l5.111-5.093c.638-.656.761-1.585.266-2.057l-2.754-2.673c-.498-.476-1.412-.332-2.052.332l-4.92 5.04c-2.594-2.653-4.923-5.04-4.923-5.04-.638-.663-1.554-.807-2.049-.332l-2.754 2.673c-.495.471-.375 1.401.265 2.057l5.109 5.093c-1.382 1.417-2.403 2.455-2.541 2.589l-2.675 2.771c-.495.472-.705 1.523-.058 2.171l1.862 1.858c.304.305.666.489 1.016.562.501.162 1.169-.037 1.668-.549l5.081-5.063 5.083 5.063c.494.512 1.161.711 1.662.549.35-.072.712-.257 1.017-.562l1.859-1.858c.649-.647.44-1.699-.055-2.171l-2.673-2.771z"/><path fill="none" stroke="#801810" stroke-width=".729" d="M44.095 31.28c-2.86 10.173-13.425 16.103-23.597 13.242-10.175-2.864-16.1-13.431-13.241-23.599 2.862-10.174 13.427-16.102 23.599-13.241 10.175 2.86 16.102 13.427 13.239 23.598z" stroke-linecap="round" stroke-dasharray="4.2925,5.7233"/><path fill="none" stroke="#FFFBFD" stroke-width=".727" d="M44.037 30.279c-2.851 10.14-13.381 16.052-23.523 13.196-10.143-2.849-16.049-13.382-13.198-23.523 2.852-10.142 13.383-16.053 23.525-13.199 10.142 2.851 16.052 13.386 13.196 23.526z" stroke-linecap="round" stroke-dasharray="4.2791,5.7054"/></svg>