<?xml version="1.0" encoding="utf-8"?><svg xmlns="http://www.w3.org/2000/svg" width="397.219" height="255.441" viewBox="0 0 397.219 255.441"><path fill="#020303" d="M7.446 46.811c7.977 1.085 8.598 7.407 8.299 10.454-.435 4.482-6.688 12.37-4.877 16.492 1 2.28 9.031 4.183 9.031 4.183s-18.516 3.547-19.874-13.692c-.352-4.474 2.974-18.043 7.421-17.437z"/><path fill="none" stroke="#020303" stroke-width="2.25" d="M5.244 49.605s4.087-11.251 10.967-18.057c24.254-23.998 41.216-9.658 51.923-1.471 28.075 21.473 44.356-15.99 44.356-15.99"/><path fill="#CCC8AB" d="M104.669 134.307c-9.306 7.363-4.481 35.458-3.882 47.311.514 10.095 7.362 39.758 7.362 39.758l7.873 2.964s.463-31.784 5.05-40.795c2.808-5.517 8.645-9.879 12.385-14.813 4.619-6.092 15.362-21.65 11.591-28.301-5.037-8.881-32.369-12.457-40.379-6.124z"/><path fill="#020303" d="M115.835 215.731c-2.942-.1-8.134 1.813-9.582 4.376-.944 1.669-1.981 8.668-.844 10.213 1.831 2.488 5.494 2.966 10.619 1.916 2.714-.555-.571-7.139 1.595-5.417 3.36 2.676 4.343 4.816 8.623 4.153 2.155-.336 2.215-5.508.183-10.086-.791-1.781-6.625-5.019-10.594-5.155z"/><path fill="#E1A280" d="M63.446 155.616s9.577 5.659 10.283 11.58c1.159 9.742 4.657 11.449 7.185 14.652 2.557 3.234.088 6.962.073 8.445-.01 1.024 1.299 2.679 2.66 1.301 1.246-1.264-.092-7.472.969-8.462.717-.667 3.222.095 3.816.873.584.76-.052 2.876-.148 3.831-.494 5.059 2.834 3.898 3.512 3.272 1.596-1.479-2.28-6.289-1.533-7.589.568-.994 4.808-1.371 5.916-1.083 2.713.705.251 6.777 1.278 8.264.974 1.404 2.688.823 3.198-.104 1.228-2.233-3.305-8.17-.559-9.131 1.519-.531 4.584-.271 5.382.932 1.757 2.65-2.44 8.575 1.277 8.264 4.945-.414-3.231-9.365 3.842-9.318.964.003.464.019 1.351.394 1.444.611 2.062 3.246 1.983 4.809-.037.747-.904 3.079-.431 3.991.638 1.223 2.146 1.67 3.638.128 2.021-2.089-2.099-7.643-1.515-8.486.416-.6 2.642-1.794 5.883-1.244 2.223.38 1.663 4.085 1.393 4.591-1.2 2.234-.259 3.253-.025 3.563.516.676 2.438 1.092 2.906-.63.822-3.037-3.687-7.242 1.48-10.227 3.287-1.898 7.17-4.256 10.706-8.439 3.423-4.048 10.523-18.417 10.523-18.417s-34.152-13.812-46.23-14.108c-6.472-.159-38.813 18.348-38.813 18.348z"/><path fill="#CCC8AB" d="M359.797 36.993c3.395.078 11.691 1.875 15.068 2.201 7.406.721 16.705-6.102 21.021-3.292 2.162 1.408 1.203 8.009.508 10.489-2.645 9.482-11.17 13.232-16.492 13.51-15.059.787-20.643-9.013-20.643-9.013l-2.248-8.367c.001 0 1.743-5.553 2.786-5.528z"/><path fill="#E4E1D2" d="M364.805 113.069c-.346-4.031-4.02-16.976-4.355-19.779-.59-4.929-1.273-8.454.311-14.552.398-1.524 2.342-4.263 2.479-5.831.088-.993-.236-3.746-.213-4.743.029-1.278 1.422-4.917 1.422-4.917s-3.453-6.716-3.877-9.166c-.346-1.976.789-5.507.33-9.234-.578-4.688.504-10.779-6.34-16.519-5.154-4.318-19.506-6.519-26.215-6.054-8.027.557-22.027 2.372-27.131 8.596-.512.624-.96 1.281-1.36 1.962-20.611 5.348-60.858 14.174-93.86 11.606-19.183-1.493-45.686-19.334-65.354-32.873-11.675-8.036-17.87 2.042-23.443 1.868-10.572-.328-31.973-17.433-42.292-11.618-21.638 12.19-24.436 34.445-25.478 52.423-1.292 22.314-3.28 46.35-3.249 66.593.019 11.771 2.457 35.268 4.35 46.883 2.48 15.23 14.104 60.095 14.104 60.095l7.256-1.772s-9.146-63.205 4.989-75.938c5.145-4.639 18.905 2.123 25.148 5.126 45.468 21.873 89.719 7.484 92.382 22.159 1.09 6.01-1.133 13.645.943 24.425 3.758 19.51 7.868 39.729 7.868 39.729l12.362-1.715s-1.09-13.771-.254-35.418c.193-5.012 2.854-14.73 6.346-15.188 3.174-.415 10.341 8.532 24.248 10.177 3.398.402 11.66-1.938 14.695.055 3.986 2.619 4.115 44.465 4.115 44.465l14.473-.494s-1.442-16.656-1.469-30.215c-.023-12.427 9.008-32.833 11.422-38.195 6.744-14.989 11.709-12.011 19.004-45.337.926-4.227 2.085-8.126 3.397-11.747.502.702.968 1.364 1.353 1.946 1.844 2.782 2.779 5.706 5.086 8.121 2.795 2.926 10.938 2.937 13.564 3.417 3.326.611 4.07 4.2 13.109 3.53 9.723-.719 14.076-7.125 16.455-9.477 2.177-2.151 3.941-9.349 3.679-12.394z"/><path fill="#BD803D" d="M329.766 20.95c-2.305.104-6.982-1.091-9.221-.518l-4.605 2.863c-.959.245-4.592-.076-4.592-.076s1.396.977 1.855 1.216c1.531.797 3.34.939 3.34.939s-2.658.814-3.463.946c-.984.158-3.691.213-3.691.213s.818.96 4.373 1.326c.912.096 3.605-.039 3.605-.039s-1.215 2.643-1.637 3.515c-.594 1.207-3.314 3.771-2.436 4.79.635.732 2.785-.849 3.674-1.238 1.777-.771 6.816-3.7 6.816-3.7s4.107 2.413 5.209 3.535c1.352 1.381 2.334 6.981 4.203 6.485.955-.255.221-3.952.221-3.952s1.242 6.599 3.004 6.416c1.879-.193 1.734-7.353 1.734-7.353s1.418 4.358 2.539 3.987c1.58-.523-.467-6.636-.467-6.636s2.395 1.418 3.133 1.977c.797.607 2.971 2.691 2.971 2.691l-.629-3.761s1.055 1.111 3.564 1.95c.748.249 3.629.496 3.629.496l-2.795-3.761 3.627 1.768-3.186-3.185 3.348.307s-2.936-2.131-3.801-2.976c-1.137-1.111-2.721-4.033-4.047-4.914-1.414-.938-6.5-1.955-6.5-1.955s2.656.028 2.682-.663c.049-1.424-4.01-1.629-5.428-1.746-1.771-.14-5.253.973-7.029 1.053z"/><path fill="#504330" d="M329.62 123.104c-.6-1.022-.613-2.189-.545-3.376.152-2.593-1.357-7.333 3.324-9.842 2.99-1.602 9.934 2.576 13.322 2.563 3.795-.015 11.676-5.017 14.881-2.984 1.707 1.08 2.246 5.846 1.947 7.845-.256 1.732-1.76 4.425-3.1 5.549-1.266 1.055-4.055 1.284-5.58 1.895-1.912.766-2.707 3.957-8.639 4.102-7.049.171-8.057-3.158-10.695-4.325-2.839-1.264-4.017.104-4.915-1.427z"/><path fill="#fff" d="M330.379 66.978c-.246 4.381-3.998 7.736-8.381 7.488-4.385-.245-7.738-3.999-7.492-8.38.244-4.384 3.998-7.739 8.381-7.492 4.385.245 7.737 3.998 7.492 8.384zM360.374 68.697c-.234 4.173-3.807 7.366-7.979 7.134-4.174-.235-7.365-3.809-7.135-7.98.236-4.171 3.809-7.365 7.982-7.132 4.171.235 7.368 3.803 7.132 7.978z"/><path fill="#020303" d="M325.389 67.473c-.471.746-1.459.968-2.205.498-.746-.474-.969-1.46-.492-2.205.469-.746 1.457-.967 2.203-.498.742.474.965 1.461.494 2.205zM355.766 69.216c-.473.746-1.459.97-2.203.498-.748-.471-.971-1.461-.496-2.207.471-.744 1.457-.966 2.201-.493.746.47.969 1.456.498 2.202z"/><path fill="#CCC8AB" d="M314.299 64.785s4.908-1.414 9.072-1.643c4.746-.259 6.934.771 6.934.771s-.643-8.145-9.48-7.268c-6.688.667-6.526 8.14-6.526 8.14zM345.547 66.354s4.359-1.02 8.07-1.158c4.227-.156 6.184.632 6.184.632s-.637-6.109-8.508-5.521c-5.951.443-5.746 6.047-5.746 6.047z"/><path fill="#020303" d="M342.122 121.63c.324-.729-1.697-1.687-2.295-2.214-.605-.536-1.834-2.461-2.52-2.031-.859.544.164 3.306.941 3.966.739.629 3.479 1.164 3.874.279zM351.417 121.232c-.455-.581 1.152-1.896 1.572-2.504.426-.616 1.102-2.625 1.814-2.387.896.296.59 3.011.039 3.78-.525.728-2.873 1.824-3.425 1.111z"/><path fill="none" stroke="#808080" stroke-width="1.125" d="M352.801 129.342c-1.77 2.606-9.297 3.187-12.359 2.036-4.4-1.652-6.484-5.736-10.18-2.888" stroke-linecap="round"/><path fill="#CCC8AB" d="M303.213 28.445c-3.334.632-9.567 4.276-12.85 5.15-7.188 1.911-17.473-3.313-21.277.163-1.901 1.737.115 8.093 1.201 10.43 4.152 8.925 13.17 11.244 18.467 10.654 14.986-1.665 17.803-14.233 17.803-14.233s2.361-4.501 1.967-6.628c-.283-1.523-4.289-5.726-5.311-5.536z"/><path fill="#020303" d="M213.756 236.723c-3.234-.111-8.944 1.992-10.536 4.813-1.036 1.834-2.177 9.531-.927 11.227 2.015 2.734 6.039 3.26 11.677 2.107 2.983-.609-.632-7.853 1.753-5.955 3.693 2.94 4.773 5.295 9.479 4.563 2.371-.367 2.435-6.055.2-11.087-.868-1.958-7.282-5.521-11.646-5.668zM274.403 234.881c-2.939-.102-8.133 1.814-9.584 4.376-.941 1.671-1.979 8.672-.842 10.213 1.832 2.484 5.494 2.965 10.621 1.916 2.711-.553-.574-7.138 1.592-5.415 3.361 2.675 4.344 4.815 8.625 4.153 2.154-.336 2.215-5.508.182-10.086-.789-1.781-6.625-5.021-10.594-5.157zM70.563 222.585c-2.942-.102-8.134 1.812-9.583 4.377-.941 1.668-1.982 8.669-.845 10.213 1.833 2.485 5.496 2.963 10.622 1.916 2.713-.557-.574-7.143 1.594-5.416 3.36 2.673 4.343 4.815 8.621 4.15 2.156-.334 2.216-5.508.184-10.084-.793-1.78-6.625-5.021-10.593-5.156z"/><path fill="#504330" d="M94.428 58.315c1.719-5.183 9.739-14.689 15.085-15.798 10.725-2.224 34.412 9.244 39.514 18.938 5.496 10.444-11.293 35.53-7.299 46.636 2.477 6.896 21.087 12.159 21.933 19.438.753 6.489-9.061 18.806-15.073 21.361-6.058 2.574-21.54.817-26.022-4.003-7.718-8.297 6.224-39.576-3.627-45.177-7.673-4.364-23.588 19.048-31.699 15.563-7.874-3.381-13.35-24.728-10.239-32.714 1.997-5.13 16.606-6.102 19.058-11.03 1.482-2.98-2.676-10.053-1.631-13.214zM188.801 119.332c-4.876-.292-12.564 9.106-13.802 13.832-1.373 5.24 1.826 17.225 5.827 20.877 6.981 6.369 28.934 11.404 37.189 6.802 5.415-3.021 12.799-18.188 9.024-23.109-3.355-4.376-16.818 4.507-21.922 2.418-6.12-2.5-9.716-20.423-16.316-20.82zM216.23 44.883s-12.985 8.71-13.917 12.755c-1.688 7.335 5.236 22.811 10.465 28.224 6.883 7.123 27.617 19.095 36.656 15.045 6.266-2.808 10.982-19.289 9.135-25.902-1.154-4.133-9.197-9.553-13.277-10.885-4.084-1.332-14.758 4.524-17.156.964-2.143-3.187 3.188-12.052 6.566-13.877 3.771-2.038 13.387 4.689 16.99 2.363 2.541-1.641 3.41-11.603 3.41-11.603s-10.412 1.541-20.975 2.325c-8.907.665-17.897.591-17.897.591zM223.222 189.537s7.87-.947 8.589-3.618c1.668-6.197-2.574-17.983.223-22.365 3.071-4.812 14.032-12.143 19.709-11.534 3.938.424 10.146 7.064 11.668 10.725 1.979 4.752.922 15.725-.795 20.582-1.128 3.188-8.359 7.466-8.093 10.835.138 1.715 4.94 4.797 4.94 4.797s-2.287-.823-10.539.362c-10.52 1.512-25.702-9.784-25.702-9.784z"/><path fill="#CCC8AB" d="M309.782 114.742s-9.855-12.668-11.424-17.204c-1.055-3.045-1.355-19.76-1.355-19.76s-4.063 13.236-1.877 18.941c3.516 9.186 14.656 18.023 14.656 18.023z"/></svg>