<?xml version="1.0" encoding="utf-8"?><svg xmlns="http://www.w3.org/2000/svg" width="397.22" height="255.442" viewBox="0 0 397.22 255.442"><path fill="#020303" d="M7.446 46.811c7.977 1.085 8.598 7.407 8.299 10.454-.435 4.482-6.688 12.37-4.877 16.492 1 2.28 9.031 4.183 9.031 4.183s-18.516 3.547-19.874-13.692c-.352-4.474 2.974-18.043 7.421-17.437z"/><path fill="none" stroke="#020303" stroke-width="2.25" d="M5.244 49.605s4.087-11.251 10.967-18.057c24.254-23.998 41.216-9.658 51.923-1.471 28.075 21.473 44.356-15.99 44.356-15.99"/><path fill="#CCC8AB" d="M104.669 134.307c-9.306 7.363-4.481 35.458-3.882 47.31.514 10.095 7.362 39.758 7.362 39.758l7.873 2.964s.463-31.784 5.05-40.795c2.808-5.516 8.645-9.879 12.385-14.812 4.619-6.092 15.362-21.651 11.591-28.301-5.037-8.881-32.369-12.457-40.379-6.124z"/><path fill="#020303" d="M115.835 215.731c-2.942-.1-8.134 1.813-9.582 4.376-.944 1.669-1.981 8.668-.844 10.213 1.831 2.488 5.494 2.965 10.619 1.916 2.714-.555-.571-7.139 1.595-5.417 3.36 2.675 4.343 4.816 8.623 4.153 2.155-.336 2.215-5.508.183-10.086-.791-1.781-6.625-5.019-10.594-5.155z"/><path fill="#E1A280" d="M63.446 155.616s9.577 5.66 10.283 11.581c1.159 9.742 4.657 11.449 7.185 14.652 2.557 3.234.088 6.962.073 8.445-.01 1.025 1.299 2.679 2.66 1.301 1.246-1.264-.092-7.472.969-8.462.717-.667 3.222.095 3.816.873.584.76-.052 2.876-.148 3.831-.494 5.059 2.834 3.899 3.512 3.273 1.596-1.48-2.28-6.289-1.533-7.589.568-.994 4.808-1.371 5.916-1.083 2.713.705.251 6.777 1.278 8.263.974 1.405 2.688.824 3.198-.104 1.228-2.233-3.305-8.17-.559-9.131 1.519-.531 4.584-.27 5.382.932 1.757 2.65-2.44 8.575 1.277 8.263 4.945-.414-3.231-9.365 3.842-9.318.964.003.464.019 1.351.394 1.444.611 2.062 3.246 1.983 4.808-.037.747-.904 3.079-.431 3.991.638 1.223 2.146 1.67 3.638.128 2.021-2.089-2.099-7.642-1.515-8.486.416-.6 2.642-1.794 5.883-1.244 2.223.38 1.663 4.085 1.393 4.591-1.2 2.234-.259 3.253-.025 3.563.516.676 2.438 1.092 2.906-.63.822-3.037-3.687-7.242 1.48-10.226 3.287-1.899 7.17-4.256 10.706-8.44 3.423-4.048 10.523-18.417 10.523-18.417s-34.152-13.811-46.23-14.108c-6.472-.158-38.813 18.349-38.813 18.349z"/><path fill="#CCC8AB" d="M359.798 36.993c3.393.079 11.691 1.875 15.068 2.202 7.406.72 16.705-6.102 21.021-3.292 2.162 1.408 1.203 8.008.508 10.489-2.645 9.482-11.17 13.232-16.492 13.51-15.059.787-20.643-9.013-20.643-9.013l-2.248-8.367c.001-.001 1.743-5.554 2.786-5.529z"/><path fill="#E4E1D2" d="M313.454 29.031s-60.936 19.027-107.459 15.407c-19.183-1.493-45.686-19.334-65.355-32.873-11.675-8.036-17.87 2.042-23.443 1.868-10.57-.328-31.971-17.433-42.29-11.618-21.638 12.19-24.436 34.445-25.478 52.423-1.292 22.314-3.28 46.349-3.249 66.592.019 11.771 2.457 35.268 4.35 46.883 2.48 15.231 14.104 60.095 14.104 60.095l7.256-1.773s-9.146-63.205 4.989-75.938c5.145-4.639 18.905 2.123 25.148 5.126 45.468 21.873 89.719 7.484 92.382 22.159 1.09 6.01-1.133 13.645.943 24.425 3.758 19.51 7.868 39.728 7.868 39.728l12.362-1.714s-1.09-13.772-.254-35.418c.194-5.012 2.854-14.731 6.346-15.188 3.174-.415 10.341 8.532 24.249 10.177 3.398.402 11.66-1.939 14.695.055 3.986 2.619 4.115 44.464 4.115 44.464l14.473-.494s-1.443-16.656-1.469-30.215c-.023-12.426 9.008-32.833 11.422-38.195 6.744-14.989 11.709-12.011 19.004-45.337 8.254-37.677 34.299-50.611 34.299-50.611l-29.008-50.028zM360.999 44.25c.459 3.728-.676 7.259-.33 9.235.424 2.45 3.877 9.166 3.877 9.166s-1.393 3.638-1.422 4.917c-.023.997.301 3.75.213 4.743-.137 1.568-2.08 4.306-2.479 5.831-1.584 6.097-.9 9.623-.311 14.552.336 2.803 4.01 15.748 4.355 19.779.262 3.045-1.502 10.243-3.676 12.392-2.379 2.352-6.734 8.758-16.457 9.477-9.039.67-9.783-2.919-13.109-3.53-2.627-.481-10.768-.491-13.564-3.417-2.307-2.415-3.242-5.339-5.086-8.121-3.857-5.824-14.34-18.161-16.004-27.712-1.588-9.141 1.453-21.846 1.627-28.951.182-7.5-4.813-23.197 2.68-32.337 5.104-6.224 19.104-8.039 27.131-8.596 6.709-.465 21.061 1.735 26.215 6.054 6.844 5.739 5.762 11.831 6.34 16.518z"/><path fill="#BD803D" d="M329.767 20.95c-2.305.104-6.984-1.09-9.221-.517-1.313.334-3.293 2.53-4.607 2.863-.959.245-4.59-.076-4.59-.076s1.396.977 1.854 1.216c1.531.797 3.34.939 3.34.939s-2.658.815-3.463.947c-.984.158-3.691.212-3.691.212s.818.96 4.373 1.327c.912.095 3.605-.039 3.605-.039s-1.215 2.642-1.637 3.514c-.592 1.207-3.313 3.772-2.434 4.79.635.733 2.785-.848 3.674-1.238 1.777-.772 6.816-3.7 6.816-3.7s4.107 2.413 5.209 3.535c1.352 1.381 2.334 6.981 4.203 6.485.955-.255.221-3.952.221-3.952s1.242 6.599 3.004 6.416c1.879-.193 1.734-7.352 1.734-7.352s1.418 4.358 2.539 3.987c1.58-.524-.467-6.636-.467-6.636s2.395 1.418 3.133 1.977c.797.607 2.971 2.691 2.971 2.691l-.629-3.761s1.055 1.112 3.564 1.951c.748.249 3.629.496 3.629.496l-2.795-3.761 3.627 1.767-3.186-3.184 3.348.307s-2.936-2.131-3.801-2.976c-1.137-1.111-2.721-4.033-4.047-4.914-1.414-.939-6.5-1.955-6.5-1.955s2.656.028 2.682-.663c.049-1.424-4.01-1.629-5.428-1.746-1.773-.143-5.255.97-7.03 1.05z"/><path fill="#504330" d="M329.62 123.104c-.6-1.023-.613-2.19-.545-3.376.152-2.593-1.357-7.333 3.324-9.842 2.99-1.602 9.934 2.576 13.322 2.562 3.795-.014 11.676-5.016 14.881-2.984 1.707 1.08 2.246 5.846 1.947 7.845-.256 1.732-1.76 4.425-3.1 5.549-1.264 1.054-4.053 1.284-5.58 1.894-1.912.766-2.707 3.957-8.639 4.102-7.047.171-8.055-3.158-10.695-4.325-2.839-1.262-4.016.106-4.915-1.425z"/><path fill="#fff" d="M330.38 66.978c-.246 4.381-3.998 7.736-8.381 7.488-4.385-.245-7.738-3.999-7.492-8.38.244-4.384 3.998-7.739 8.381-7.492 4.383.245 7.736 3.998 7.492 8.384zM360.374 68.697c-.234 4.172-3.807 7.366-7.979 7.133-4.174-.235-7.365-3.808-7.135-7.98.236-4.171 3.809-7.365 7.982-7.132 4.171.236 7.368 3.804 7.132 7.979z"/><path fill="#020303" d="M325.39 67.473c-.471.746-1.459.968-2.205.498-.748-.474-.969-1.46-.494-2.205.469-.746 1.457-.967 2.203-.498.744.474.966 1.461.496 2.205zM355.767 69.216c-.473.746-1.459.97-2.205.498-.748-.471-.969-1.461-.496-2.207.471-.744 1.457-.966 2.203-.493.746.47.968 1.456.498 2.202z"/><path fill="#CCC8AB" d="M314.3 64.785s4.908-1.414 9.072-1.642c4.746-.259 6.934.771 6.934.771s-.643-8.144-9.482-7.267c-6.686.665-6.524 8.138-6.524 8.138zM345.548 66.354s4.359-1.02 8.07-1.158c4.227-.157 6.184.631 6.184.631s-.637-6.109-8.508-5.521c-5.951.444-5.746 6.048-5.746 6.048z"/><path fill="#020303" d="M342.122 121.63c.324-.729-1.697-1.686-2.295-2.214-.605-.536-1.834-2.461-2.52-2.031-.859.544.164 3.306.941 3.966.739.629 3.48 1.164 3.874.279zM351.417 121.232c-.455-.581 1.152-1.896 1.572-2.504.426-.616 1.102-2.625 1.814-2.387.896.296.59 3.011.039 3.78-.525.728-2.872 1.824-3.425 1.111z"/><path fill="none" stroke="#808080" stroke-width="1.125" d="M352.802 129.342c-1.771 2.606-9.297 3.187-12.361 2.036-4.4-1.652-6.484-5.736-10.178-2.888" stroke-linecap="round"/><path fill="#CCC8AB" d="M303.214 28.445c-3.334.631-9.568 4.276-12.85 5.15-7.188 1.911-17.473-3.313-21.277.163-1.902 1.737.115 8.093 1.201 10.43 4.152 8.925 13.17 11.244 18.467 10.654 14.986-1.665 17.803-14.233 17.803-14.233s2.361-4.501 1.965-6.628c-.282-1.523-4.288-5.726-5.309-5.536z"/><path fill="#020303" d="M213.757 236.723c-3.235-.111-8.945 1.992-10.537 4.812-1.036 1.834-2.177 9.532-.927 11.227 2.015 2.734 6.04 3.26 11.677 2.107 2.984-.609-.631-7.852 1.753-5.955 3.694 2.941 4.773 5.295 9.479 4.564 2.371-.367 2.434-6.055.2-11.087-.868-1.958-7.283-5.521-11.645-5.668zM274.403 234.881c-2.939-.101-8.133 1.815-9.584 4.376-.941 1.671-1.979 8.672-.842 10.213 1.832 2.484 5.494 2.965 10.621 1.916 2.711-.553-.574-7.138 1.592-5.415 3.361 2.675 4.344 4.815 8.625 4.153 2.154-.336 2.215-5.508.182-10.086-.789-1.781-6.625-5.021-10.594-5.157zM70.563 222.585c-2.942-.101-8.134 1.812-9.583 4.377-.941 1.668-1.982 8.669-.845 10.213 1.833 2.485 5.496 2.963 10.622 1.916 2.713-.557-.574-7.143 1.594-5.416 3.36 2.673 4.343 4.815 8.621 4.15 2.156-.334 2.216-5.507.184-10.084-.793-1.78-6.625-5.021-10.593-5.156z"/><path fill="#504330" d="M94.428 58.315c1.719-5.183 9.739-14.69 15.085-15.798 10.725-2.224 34.412 9.244 39.514 18.938 5.496 10.445-11.293 35.531-7.299 46.636 2.477 6.896 21.087 12.159 21.933 19.438.753 6.489-9.061 18.805-15.073 21.361-6.058 2.574-21.54.817-26.022-4.003-7.718-8.297 6.224-39.576-3.627-45.177-7.673-4.364-23.588 19.048-31.699 15.563-7.874-3.381-13.35-24.728-10.239-32.714 1.997-5.13 16.606-6.102 19.058-11.03 1.482-2.98-2.676-10.053-1.631-13.214zM188.801 119.332c-4.876-.292-12.564 9.107-13.802 13.832-1.373 5.241 1.826 17.225 5.827 20.877 6.981 6.369 28.934 11.405 37.189 6.802 5.415-3.021 12.799-18.188 9.024-23.109-3.355-4.376-16.818 4.506-21.922 2.418-6.12-2.5-9.716-20.423-16.316-20.82zM216.23 44.883s-12.985 8.71-13.917 12.755c-1.688 7.335 5.236 22.81 10.465 28.224 6.883 7.123 27.617 19.094 36.656 15.044 6.266-2.807 10.982-19.289 9.135-25.902-1.154-4.133-9.197-9.553-13.277-10.885-4.085-1.332-14.759 4.525-17.157.964-2.143-3.186 3.188-12.052 6.567-13.877 3.771-2.038 13.386 4.69 16.99 2.364 2.541-1.641 3.41-11.603 3.41-11.603s-10.412 1.541-20.974 2.325c-8.908.665-17.898.591-17.898.591zM223.222 189.537s7.871-.947 8.589-3.618c1.668-6.197-2.574-17.983.223-22.365 3.071-4.812 14.032-12.143 19.708-11.534 3.939.424 10.146 7.064 11.668 10.724 1.98 4.752.922 15.725-.795 20.582-1.127 3.188-8.359 7.466-8.092 10.835.137 1.715 4.941 4.797 4.941 4.797s-2.287-.823-10.539.363c-10.521 1.512-25.703-9.784-25.703-9.784z"/><path fill="#CCC8AB" d="M309.782 114.742s-9.855-12.668-11.424-17.204c-1.055-3.045-1.355-19.759-1.355-19.759s-4.064 13.236-1.877 18.941c3.516 9.185 14.656 18.022 14.656 18.022z"/></svg>