<?xml version="1.0" encoding="utf-8"?><svg xmlns="http://www.w3.org/2000/svg" width="135" height="80" viewBox="0 0 135 80"><path fill="#ECC43B" d="M.395 50.918l99.058-50.539h35.153l-28.671 31.27-105.54 46.835z"/><path fill="#D9A938" d="M134.464 2.043l.142-1.664-29.458 31.445-104.753 46.66v1.053l105.418-47.078zM11.025 67.472l13.251-4.329 8.502-4.328-10.873 3.054zM97.149 32.82l9.428-12.483-3.312 8.153zM42.113 54.733l46.116-19.619-23.053 8.154z"/><g fill-rule="evenodd" clip-rule="evenodd"><path fill="#2B0B31" d="M85.086 28.597c-.517.217-.88.6-1.501.699-.682-1.642-1.499-3.065-2.213-4.651-.193 1.756-.205 3.724-.2 5.711-.361.424-.976.569-1.485.83-.985-2.665-2.052-5.181-3.037-7.851.549-.1.809-.518 1.412-.549.566 1.396 1.13 2.805 1.657 4.274.236-1.584.091-3.598.235-5.285.517-.131.786-.541 1.412-.547.655 1.415 1.408 2.667 2.054 4.094.132-1.532-.063-3.438-.062-5.121.244-.357.823-.329 1.086-.655.768 2.749.238 6.185.642 9.051zM74.153 24.54c3.234-.753 4.233 10.172-.088 9.116-1.892-.463-2.813-6.461-1.4-8.276.382-.497.877-.7 1.488-.84zm.48 7.361c1.892.28.837-6.502-.828-5.482-1.044.637-.299 5.316.828 5.482zM71.981 34.831c-.486.122-.754.494-1.307.535-.769-1.738-.422-6.36-1.774-6.682-2.333-.553-.386 5.468-.118 7.7-.567.063-.816.499-1.41.542-.379-3.017-1.063-5.526-1.43-8.563 1.595.126 2.519-2.504 4.17-1.208 1.428 1.121 1.085 5.069 1.869 7.676zM54.853 30.441c.535.527.427 2.118.707 3.072.446-.003.521-.417 1.006-.375l.24 1.407c-.32.184-.579.438-.998.508.321 1.699.508 3.623.901 5.192.48.313.479-.402.897-.502 0 .632.016 1.284-.037 1.852-2.281 2.462-2.595-2.918-2.941-5.724-.245-.247-.533.227-.919.217-.031-.548-.094-1.04-.235-1.402.232-.2.469-.395.788-.498-.493-1.913-.21-3.006.591-3.747zM62.627 35.335c-1 .592-2.127 1.042-3.202 1.552.139 2.256 1.961 1.685 2.334.371.164.38.569.363.791.644-.361 1.321-1.155 2.854-2.689 2.501-2.607-.583-2.714-8.965.073-9.254 1.511-.157 2.241 1.809 2.693 4.186zm-3.567-.126c.539.116 1.263-.563 1.916-.734-.155-2.651-2.408-1.448-1.916.734zM50.55 44.754c-2.693-1.56-2.415-10.585 1.254-8.933 1.97.89 2.605 9.948-1.254 8.933zm.584-7.166c-1.947-.507-1.084 4.498-.123 5.418 1.831-.111 1.091-4.483.123-5.418zM47.568 37.463c-.221 3.072-.549 6.022-.71 9.171-.351.228-.702.462-1.203.526-.88-2.676-2.17-4.672-2.996-7.433.375-.123.779-.214 1-.511.902 1.219 1.387 3.134 2.107 4.66.213-1.819.365-3.708.401-5.729.428-.272.884-.513 1.401-.684zM32.67 41.281c.511.406.274 2.051.486 2.953.241.304.594-.336 1.024-.231l.132 1.415c-.276.186-.569.366-.896.501.255 1.641.366 3.523.685 5.063.58.156.515-.426.891-.498-.118.533-.054 1.282-.139 1.857-2.202 2.377-2.286-3.024-2.627-5.756-.21-.349-.457.317-.817.212l-.144-1.549c.375.001.475-.307.804-.353-.49-1.152-.27-3.217.601-3.614zM37.365 42.304c3.169-.779 3.566 9.523-.113 8.841-2.047-.385-2.363-6.854-.99-8.314.239-.254.729-.431 1.103-.527zm.453 7.086c1.467-.035.836-6.059-.605-5.359-1.023.493-.606 5.383.605 5.359zM27.168 43.883c.661 3.365 1.029 8.08 1.382 11.412-.363.221-.76.397-1.203.527-.329-2.287-.473-4.818-.807-7.472-.311-2.457-.542-3.566.628-4.467zM24.728 49.068c1.606 2.288 1.712 9.13-1.383 8.66-1.551-.235-2.223-4.598-1.581-6.84.421-1.478 1.526-2.408 2.964-1.82zm-1.026 6.922c1.447.243.996-3.982.343-5.294-2.086-.942-1.397 5.117-.343 5.294zM20.776 50.402c.146.793-.078 1.172-.037 1.85-2.355-.353-.564 5.181-.608 6.886-.271.365-.713.538-1.189.668-.25-2.741-.589-6.19-.792-8.47 1.193-.273 1.33-.933 2.626-.934zM11.5 51.754l.146 1.554c-.776.467-1.63.843-2.499 1.205l.251 2.686c.572-.193.989-.563 1.607-.708l.146 1.553c-.495.327-1.072.555-1.596.848l.318 3.388c1.018-.204 1.966-1.118 2.824-1.089.014.52.204 1.24.041 1.558-1.256.639-2.598 1.181-3.796 1.888-.7-4.327-.635-7.314-1.043-11.156 1.195-.583 2.335-1.223 3.601-1.727zM16.622 52.887c1.006 1.443.672 5.754 1.218 7.438-.45.124-.659.519-1.203.534-.328-2.779-.278-4.604-.919-6.473-2.433-.015-.695 4.684-.778 7.327-.417.154-.723.444-1.203.529-.31-3.845-.574-5.807-.679-8.342 1.346-.052 1.97-1.799 3.564-1.013z"/><path fill="#CFCBC1" d="M104.316 10.087c3.088 4.065 3 10.983-.199 15.449-3.194 4.465-8.289 4.793-11.375.728-3.092-4.07-3.002-10.984.195-15.453 3.198-4.465 8.292-4.792 11.379-.724z"/><path fill="#E96E38" d="M97.982 6.728c4.935-1.151 8.409 3.214 9.088 8.912.745 6.242-2.377 11.392-5.344 13.262-4.336 2.733-9.341.169-10.984-4.625-2.352-6.86.758-13.621 4.027-16.142.91-.702 1.581-1.028 3.213-1.407zm-3.975 3.324c-1.64 1.714-3.361 4.761-3.328 9.104.053 7.145 4.955 11.675 9.947 9.125 3.063-1.565 6.133-6.495 5.523-12.424-.192-1.846-1.02-4.042-1.501-4.855-1.096-1.843-3.825-3.946-6.979-3.112-1.776.475-2.839 1.301-3.662 2.162zM99.691 8.287c.24 1.027-1.533 1.891-2.366 2.624-2.676 2.353-4.28 6.942-5.084 11.528 1.707-.162 1.949-3.229 2.895-4.797.938-1.556 2.234-2.292 2.975-3.952.169.061.605.494.74.081-.283 1.954-2.164 3.19-2.868 5.08.475-.08.896-.073 1.164.185.28.438 0 .945.227 1.266 1.119-.285 1.329-2.101 2.236-2.893 1.014-.894 2.403-.521 3.39-1.711.72-.868.808-2.205 2.006-2.022 1.146 2.917.55 6.745-.23 8.704-1.543-.915-2.453-2.894-3.56-4.539-2.292-.786-3.341 5.245-5.693 3.899-.312-.177-.743-.925-.574-1.661-.996.683-1.22 2.235-2.12 3.025.42 1.746 1.565 2.302 1.952 4.108-1.968-.784-3.165-2.959-3.589-5.961-1.023-7.253 2.96-13.184 8.499-12.964zm-4.261 12.463c.571 1.045 1.776.066 1.435-1.404-.722-.229-1.525.322-1.435 1.404z"/></g></svg>