<?xml version="1.0" encoding="utf-8"?><svg xmlns="http://www.w3.org/2000/svg" width="75" height="95" viewBox="0 0 75 95"><g><linearGradient id="a" x1="37.328" x2="38.143" y1="4.831" y2="87.915" gradientUnits="userSpaceOnUse"><stop offset="0" stop-color="#6275AB"/><stop offset="1" stop-color="#31488A"/></linearGradient><path fill="url(#a)" d="M1.16-.024s2.176 43.124 0 95.024c0 0 20.175-4.072 35.796-3.394 15.621.68 37.377 3.394 37.377 3.394s-4.248-42.761 0-95.024"/><linearGradient id="b" x1="5.544" x2="70.085" y1="46.627" y2="46.627" gradientUnits="userSpaceOnUse"><stop offset="0" stop-color="#293E70"/><stop offset="1" stop-color="#31488A"/></linearGradient><path fill="url(#b)" d="M5.544 4.048s3.13 40.457 0 84.162c0 0 17.979-1.002 31.969-1.613 22.199 1.764 32.572 3.787 32.572 3.787s-6.851-39.501-.646-87.049c.666-5.119-7.852 32.75-1.821 83.893 0 0-16.506-2.659-30.516-2.396-14.388.271-28.132.474-29.81.869 0 0 3.597-45.307-1.748-81.653z" opacity=".3"/><linearGradient id="c" x1="37.815" x2="37.815" y1="10" gradientUnits="userSpaceOnUse"><stop offset=".417" stop-opacity="0"/><stop offset=".842" stop-color="#020000" stop-opacity=".438"/><stop offset=".995" stop-color="#090000" stop-opacity=".595"/><stop offset="1" stop-color="#090000" stop-opacity=".6"/></linearGradient><path fill="url(#c)" d="M1.296 0l.823 10h71.069l1.145-10z" opacity=".5"/><linearGradient id="d" x1="36.841" x2="36.841" y1="38.986" y2="58.277" gradientUnits="userSpaceOnUse"><stop offset="0" stop-color="#FCFCFC"/><stop offset="1" stop-color="#D4D4D4"/></linearGradient><path fill="url(#d)" d="M40.318 34.31h4.638v-5.688h-4.638c-3.833 0-6.954 3.35-6.954 7.465v2.872h-4.637v5.705h4.637v13.816h5.797v-13.817h5.795v-5.705h-5.795v-2.925c0-.986.611-1.723 1.157-1.723z"/><g fill="#404D89"><path d="M28.727 38.958h4.637v1.148h-4.637zM40.318 28.621c-3.833 0-6.954 3.35-6.954 7.465v1.148c0-4.115 3.121-7.465 6.954-7.465h4.638v-1.148h-4.638zM39.161 38.958h5.795v1.148h-5.795z"/></g></g></svg>