<?xml version="1.0" encoding="utf-8"?><svg xmlns="http://www.w3.org/2000/svg" width="131" height="303" viewBox="0 0 131 303"><path fill="#846211" d="M75.287 13.28l7.42-.049.349 52.816-7.42.049z"/><path fill="none" stroke="#DED7C0" stroke-width="1.119" d="M61.432 53.561l17.056-31.982M61.432 62.586l17.056-31.98M61.432 72.68l17.056-31.981M61.432 84.104l17.056-31.98" stroke-linecap="round"/><path fill="#846211" d="M75.759 136l-11.909.316-3.084-114.866 11.914-.322z"/><path fill="none" stroke="#DED7C0" stroke-width="1.797" d="M44.589 143.358s7.57-1.521 11.446-12.192c7.217-19.894 10.584-97.01 10.584-97.01M44.589 162.557s10.297-8.901 14.17-19.573c7.221-19.891 7.86-76.848 7.86-76.848M41.142 181.855s11.658-8.299 16.292-18.664c8.635-19.318 9.508-68.655 9.508-68.655M45.122 190.633s9.17-.868 13.798-11.233c8.635-19.319 8.343-54.062 8.343-54.062" stroke-linecap="round"/><path fill="#846211" d="M37.443 138.95l11.895-.677 7.401 130.097-11.895.677z"/><path fill="#6B8E37" d="M69.226 271.055c-.887.806-7.894.826-10.559.704-2.597-.122-9.752-.957-10.443-1.896-.668-.899-1.133-7.464-1.133-7.464l2.164 4.738.719-4.606 1.889 4.5 1.446-2.865.479 2.898.769-4.376 1.325 4.302.886-4.429.807 4.617 1.068-2.633 1.534 2.586.246-4.118.746 4.726 1.127-4.814.878 4.286 2.222-3.972 1.089 4.634 1.735-4.447.243 4.482 2.41-4.42c-.001-.001-.795 6.783-1.647 7.567z"/><path fill="#80993E" d="M48.735 289c-15.429 2.838-21.242-.021-22.488-1.705-1.199-1.632-2.037-11.199-2.037-11.199l3.89 8.543 1.3-8.304 3.4 8.105 2.607-5.157.866 5.221 1.37-7.893 2.4 7.762 1.59-7.986 1.458 8.326 1.932-4.749 2.755 4.666 2.893-7.891-.151 9.131s-.505 2.894-1.785 3.13z"/></svg>