<?xml version="1.0" encoding="utf-8"?><svg xmlns="http://www.w3.org/2000/svg" width="800" height="150" viewBox="0 0 800 150"><g><linearGradient id="a" x1=".249" x2="800.298" y1="90.625" y2="90.625" gradientUnits="userSpaceOnUse"><stop offset="0" stop-color="#D62626"/><stop offset=".15" stop-color="#9F1C1C"/><stop offset=".866" stop-color="#9F1C1C"/><stop offset="1" stop-color="#D62626"/></linearGradient><linearGradient id="b" x1="-.803" x2="801.422" y1="90.7" y2="90.7" gradientUnits="userSpaceOnUse"><stop offset="0" stop-color="#D62626"/><stop offset=".15" stop-color="#9F1C1C"/><stop offset=".919" stop-color="#7F1716"/><stop offset="1" stop-color="#D62626"/></linearGradient><path fill="url(#a)" stroke="url(#b)" stroke-miterlimit="10" d="M.25 68.822l34.791 34.297-25.586 43.979 133.745-19.018s18.607-5.943 5.814-12.48l-27.912-14.857s-8.141-8.322 11.049-10.104c19.19-1.782 156.764-17.831 272.604-15.453 0 0 169.92 4.162 242.608 13.67 0 0 59.895-.425 13.957 19.103-45.938 19.527 11.628 21.904 11.628 21.904l116.884 17.234-27.331-44.572 37.797-33.704-116.301-18.001s-194.425-37.501-572.64 0l-111.107 18.002z"/><path fill="#7F1716" d="M646.704 91.772l-3.105 30.825s34.435-17.866 34.956-24.844c.522-6.979-31.851-5.981-31.851-5.981M150.218 90.625l3.104 30.825s-34.432-17.866-34.954-24.845c-.523-6.978 31.85-5.98 31.85-5.98"/><path fill="#9F1C1C" d="M106.868 22.368l8.417 75.129s207.064-40.146 563.397 0l6.731-75.129s1.684-4.015-15.712-5.735c-17.396-1.72-163.294-16.058-273.28-15.485-109.985.573-276.646 17.205-276.646 17.205s-13.287.618-12.907 4.015z"/><g fill="none" stroke="#fff" stroke-miterlimit="10" opacity=".3"><path d="M673.63 25.235l-1.987-.177"/><path d="M667.687 24.709c-32.183-2.825-186.576-16.063-252.742-15.994-88.188.092-178.109 5.51-292.61 18.366" stroke-dasharray="3.9755,3.9755"/><path d="M120.35 27.304l-1.988.225"/></g><g fill="none" stroke="#fff" stroke-miterlimit="10" opacity=".3"><path d="M665.774 88.321l-1.987-.18"/><path d="M659.78 87.783c-32.022-2.851-183.894-16.052-249.032-15.981-86.918.093-166.773 2.146-279.409 14.917" stroke-dasharray="4.0271,4.0271"/><path d="M129.329 86.946l-1.988.228"/></g><path fill="none" stroke="#fff" stroke-opacity=".3" stroke-miterlimit="10" d="M18.206 75.704l93.01-14.518M26.623 135.922s105.404-13.188 117.515-19.498M778.563 75.704s-92.251-15.272-96.628-14.518M772.953 135.922s-115.998-15.409-120.534-18.145" stroke-dasharray="4,4"/></g></svg>