<?xml version="1.0" encoding="utf-8"?><svg xmlns="http://www.w3.org/2000/svg" width="191" height="127.406" viewBox="0 0 191 127.406"><path fill="#EFE28A" d="M-.464 50.096s24.081 22.909 42.282 30.358c21.271 8.706 70.132 6.481 70.132 6.481s-1.574-38.704-2.333-57.354c-.124-3.076-4.884-5.693-7.001-6.241-15.393-3.996-35.564 9.663-58.649 2.384-16.294-5.137-35.124-25.578-35.124-25.578s2.656 19.424 14.92 37.275c6.711 9.758 19.041 22.604 19.041 22.604s-10.794.459-16.809-.677c-8.34-1.571-26.459-9.252-26.459-9.252z"/><radialGradient id="a" cx="11344.215" cy="3401.21" r="22.959" fx="11325.142" fy="3388.431" gradientTransform="matrix(.999 -.041 -.041 -.999 -11111.316 3906.681)" gradientUnits="userSpaceOnUse"><stop offset="0" stop-color="#55382E"/><stop offset=".093" stop-color="#644937"/><stop offset=".721" stop-color="#C7B672"/><stop offset="1" stop-color="#EFE28A"/></radialGradient><path fill="url(#a)" d="M107.108 28.052s2.107 5.08-3.644 7.352c-5.7 2.253-25.645 2.334-31.501 4.137-2.805.859-5.121 1.939-4.699 4.811.756 5.138 4.776 9.627 18.488 12.604 15.725 3.412 24.695-.255 24.695-.255"/><path fill="#F1D362" d="M67.599 112.591s19.247 8.497 54.69 12.939c23.43 2.937 47.711 2.181 68.711-.574v-66.301c-15 2.616-30.236 4.301-46.623 4.217-49.322-.253-77.077-19.389-77.077-19.389l.299 69.108z"/><g fill="none" stroke="#BC5A4D" stroke-linecap="round" opacity=".44"><path d="M189.239 62.912l-.689.12"/><path d="M185.566 63.536c-13.584 2.243-26.289 3.574-41.327 3.336-40.822-.646-66.982-13.622-73.991-17.552" stroke-dasharray="1.4114,3.0243"/><path d="M68.943 48.566l-.592-.364"/></g><g fill="none" stroke="#BC5A4D" stroke-linecap="round" opacity=".44"><path d="M68.351 108.61l.65.252"/><path d="M71.799 109.918c14.005 5.168 33.391 10.603 55.841 12.838 28.493 2.838 52.321-.138 59.433-1.202" stroke-dasharray="1.3966,2.9927"/><path d="M188.553 121.324l.686-.116"/></g></svg>