<?xml version="1.0" encoding="utf-8"?><svg xmlns="http://www.w3.org/2000/svg" width="150" height="50" viewBox="0 0 150 50"><path fill="#6B8E37" d="M142.979 38.438c-3.726 3.41-33.194 3.481-44.413 2.965-10.924-.503-40.999-4.022-43.914-7.962-2.805-3.785-4.745-31.406-4.745-31.406l9.085 19.938 3.024-19.383 7.941 18.932 6.09-12.052 2.003 12.193 3.22-18.419 5.598 18.105 3.707-18.634 3.396 19.436 4.504-11.087 6.456 10.879 1.039-17.338 3.129 19.905 4.739-20.256 3.698 18.021 9.338-16.711 4.578 19.493 7.288-18.705 1.036 18.856 10.135-18.589c0-.001-3.334 28.532-6.932 31.819z"/><path fill="#80993E" d="M59.249 45.086c-35.987 6.643-49.564-.041-52.479-3.98-2.804-3.786-4.747-26.127-4.747-26.127l9.088 19.935 3.027-19.382 7.938 18.931 6.087-12.05 2.002 12.194 3.22-18.42 5.598 18.104 3.708-18.633 3.396 19.436 4.504-11.09 6.456 10.883 6.744-18.409-.35 21.31c0-.002-1.191 6.746-4.192 7.298z"/></svg>