<?xml version="1.0" encoding="utf-8"?><svg xmlns="http://www.w3.org/2000/svg" width="1600" height="1441.044" xmlns:xlink="http://www.w3.org/1999/xlink" viewBox="0 0 1600 1441.044"><defs><path id="a" d="M0-161.771h1603.053v1607.697h-1603.053z"/></defs><clipPath id="b"><use xlink:href="#a" overflow="visible"/></clipPath><g clip-path="url(#b)"><defs><path id="c" d="M-3.006-176h1606.119v1620h-1606.119z"/></defs><clipPath id="d"><use xlink:href="#c" overflow="visible"/></clipPath><radialGradient id="e" cx="1463.6" cy="-106.755" r="207.149" gradientTransform="matrix(0 1 2.306 0 1205.671 -881.187)" gradientUnits="userSpaceOnUse"><stop offset="0" stop-color="#A8C142"/><stop offset=".434" stop-color="#9CB440"/><stop offset="1" stop-color="#90A73E"/></radialGradient><path fill="url(#e)" d="M0 3515.286h1603.113v-2822.473s-109.813-5.332-316.593-54.052c-66.896-15.76-172.729-58.019-353.484-38.071-87.66 9.671-241.696 39.085-242.167 39.166-27.565 4.86-311.532 54.873-411.655 59.614-124.723 5.907-279.214-6.657-279.214-6.657v2822.473z" clip-path="url(#d)"/><g clip-path="url(#d)"><defs><path id="f" d="M0 437.807h1603.113v330.735h-1603.113z"/></defs><clipPath id="g"><use xlink:href="#f" overflow="visible"/></clipPath><g clip-path="url(#g)"><path fill="none" stroke="#B1A55A" stroke-width=".552" d="M-882.187 763.03s91.583-33.018 119.127-42.962c76.938-27.779 169.889-25.244 227.017-27.193 92.564-3.158 430.267-11.859 536.043-3.183 58.514 4.8 149.016 11.63 281.747 6.319 90.001-3.601 429.278-64.125 457.33-68.537 86.289-13.689 200.753-33.12 286.358-35.324 32.885 0 81.437-.52 143.302 11.78 77.051 15.319 171.23 45.179 240.506 58.455 130.121 24.937 198.68 27.548 198.68 27.548M-882.187 759.722s91.583-33.016 119.127-42.96c76.938-27.778 169.889-25.245 227.017-27.194 92.564-3.158 443.308-10.334 536.043-3.156 65.46 5.066 153.024 11.125 285.755 5.813 90.001-3.6 425.27-63.646 453.321-68.058 86.289-13.691 200.753-33.122 286.358-35.326 32.83 0 81.24-.554 142.969 11.712 77.172 15.336 171.56 45.245 240.968 58.548 130.066 24.931 198.551 27.525 198.551 27.525M-882.187 756.415s91.583-33.017 119.127-42.961c76.938-27.78 169.889-25.245 227.017-27.194 92.564-3.158 443.313-10.462 536.043-3.223 78.553 6.133 149.417 11.086 282.148 5.775 90.001-3.601 428.877-63.539 456.928-67.952 86.289-13.689 200.753-33.12 286.358-35.325 32.843 0 81.285-.547 143.043 11.727 77.177 15.336 171.56 45.245 240.964 58.547 130.037 24.926 198.481 27.513 198.481 27.513M-882.187 753.107s91.583-33.018 119.127-42.963c76.938-27.777 169.889-25.243 227.017-27.191 92.564-3.158 433.809-11.106 536.043-3.164 89.24 6.934 149.417 10.334 282.148 5.023 90.001-3.601 428.877-62.848 456.928-67.26 86.289-13.688 200.753-33.12 286.358-35.325 32.787 0 81.081-.587 142.701 11.651 77.328 15.356 171.965 45.33 241.533 58.665 129.94 24.911 198.253 27.468 198.253 27.468"/><g fill="#846211"><path d="M-592.102 680.271h1.517v20.686h-1.517zM-558.732 680.271h1.517v20.686h-1.517zM-525.596 678.158h1.518v20.686h-1.518zM-492.526 675.815h1.516v20.687h-1.516zM-459.389 672.095h1.517v20.687h-1.517zM-625.171 681.523h1.516v20.687h-1.516zM-393.066 663.963h1.515v20.688h-1.515zM-359.699 659.554h1.516v20.688h-1.516zM-326.561 654.502h1.516v20.686h-1.516zM-293.493 649.77h1.516v20.687h-1.516zM-260.355 644.946h1.517v20.687h-1.517zM-426.138 667.422h1.518v20.687h-1.518zM-857.365 739.804h1.515v20.687h-1.515zM-823.998 728.25h1.517v20.686h-1.517zM-790.86 716.192h1.516v20.687h-1.516zM-757.791 705.031h1.516v20.686h-1.516zM-724.653 695.431h1.517v20.687h-1.517zM-658.331 685.461h1.517v20.688h-1.517zM-691.4 688.919h1.517v20.687h-1.517zM-194.263 637.092h1.516v20.687h-1.516zM-160.896 635.07h1.517v20.687h-1.517zM-127.757 634.796h1.516v20.687h-1.516zM-94.688 635.208h1.517v20.688h-1.517zM-59.443 657.63l-1.515.086-1.173-20.653 1.515-.086zM-227.333 640.733h1.516v20.686h-1.516zM14.275 677.658h1.517v20.686h-1.517zM38.024 678.344h1.517v20.688h-1.517zM71.161 680.988h1.517v20.686h-1.517zM104.23 679.997h1.517v22.771h-1.517zM137.369 682.67h1.517v20.688h-1.517zM-28.413 638.666h1.516v20.686h-1.516zM204.214 704.992l-1.51-.134 1.827-20.606 1.51.134zM236.989 683.701h1.516v20.686h-1.516zM270.126 682.069h1.518v20.686h-1.518zM303.887 701.325l-1.512-.119 1.624-20.622 1.512.119zM336.334 676.9h1.517v20.687h-1.517zM170.553 684.301h1.516v20.513h-1.516zM402.586 667.384h1.518v20.688h-1.518zM435.955 661.109h1.517v22.484h-1.517zM469.091 654.413h1.518v23.832h-1.518zM502.161 652.547h1.518v20.687h-1.518zM537.519 668.295l-1.514.1-1.357-20.64 1.514-.1zM369.518 672.069h1.517v20.687h-1.517zM601.552 636.332h1.516v20.687h-1.516zM634.919 630.154h1.518v20.688h-1.518zM668.058 625.471h1.516v20.687h-1.516zM701.125 620.371h1.518v20.686h-1.518zM734.264 615.732h1.516v20.686h-1.516zM568.483 641.292h1.516v23.521h-1.516z"/></g><path fill="#846211" d="M1036.824 578.57h1.516v20.686h-1.516zM1071.849 600.929l-1.515.023-.321-20.684 1.515-.023zM1103.684 603.263l-1.505-.168 2.294-20.559 1.505.168zM1136.396 585.966h1.518v20.687h-1.518zM1169.534 587.736h1.519v25.923h-1.519zM1003.754 579.822h1.516v20.687h-1.516zM1351.301 637.771h1.517v20.686h-1.517zM1386.318 664.937l-1.516.022-.306-20.683 1.516-.022zM1418.153 672.486l-1.506-.167 2.28-20.562 1.506.167zM1318.23 628.622h1.516v20.686h-1.516zM1235.92 629.679l-1.501-.219 2.983-20.47 1.501.219zM1288.813 642.73l-1.501-.219 2.983-20.471 1.501.219zM1269.226 617.21h1.517v20.687h-1.517zM1202.789 597.347h1.516v23.357h-1.516zM774.552 630.952l-1.501.223-3.035-20.463 1.501-.223zM804.927 604.457h1.518v20.686h-1.518zM838.064 599.056h1.518v20.688h-1.518zM871.134 594.233h1.518v20.687h-1.518zM904.271 587.941h1.518v20.686h-1.518zM1453.653 658.857h1.517v20.686h-1.517zM1486.792 662.791h1.515v20.686h-1.515zM1519.859 669.168h1.517v20.686h-1.517zM1552.391 671.536h1.519v20.687h-1.519zM1585.302 695.968l-1.514-.103 1.705-24.948 1.514.103zM970.593 582.658h1.518v20.686h-1.518zM937.524 584.288h1.516v20.686h-1.516z"/></g></g></g><path fill="#6B8E37" d="M342.849 770.704c.871 1.307 9.732 3.455 13.146 4.105 3.324.64 12.632 1.738 13.795.753 1.122-.947 3.729-9.204 3.729-9.204l-4.191 5.404.509-6.107-3.777 5.18-.949-4.104-1.494 3.563.377-5.835-3.009 5.104.249-5.934-2.445 5.664-.542-3.697-2.739 2.841.957-5.345-2.4 5.826.06-6.501-2.434 5.212-1.586-5.755-2.805 5.595-.822-6.213-1.693 5.657-1.687-6.381c-.003 0-1.092 8.914-.249 10.172z"/><path fill="#80993E" d="M211.806 772.043c11.293 2.967 15.774 1.166 16.794-.02.984-1.138 2.131-8.202 2.131-8.202l-3.366 6.125-.501-6.24-2.976 5.838-1.653-3.979-.927 3.832-.585-5.937-2.212 5.63-.738-6.021-1.542 6.107-1.168-3.638-2.314 3.308-1.708-6.017-.395 6.792s.218 2.175 1.16 2.422z"/><path fill="#6B8E37" d="M1545.844 722.981c.871 1.307 9.731 3.455 13.145 4.105 3.324.64 12.633 1.738 13.795.753 1.122-.947 3.729-9.204 3.729-9.204l-4.19 5.404.509-6.107-3.777 5.18-.948-4.104-1.494 3.563.378-5.835-3.01 5.104.249-5.934-2.445 5.664-.542-3.697-2.74 2.841.957-5.345-2.4 5.826.06-6.501-2.434 5.212-1.586-5.755-2.806 5.595-.822-6.213-1.693 5.657-1.687-6.381c-.003.001-1.092 8.915-.248 10.172zM657.845 698.423c.8.605 6.598.04 8.793-.285 2.14-.313 7.988-1.605 8.482-2.444.478-.808.315-6.337.315-6.337l-1.393 4.142-.976-3.792-1.191 3.919-1.435-2.277-.153 2.464-.998-3.6-.744 3.712-1.096-3.633-.285 3.932-1.104-2.117-1.056 2.29-.545-3.426-.224 4.02-1.33-3.936-.373 3.656-2.167-3.139-.517 3.965-1.802-3.575.167 3.769-2.359-3.495c.001-.002 1.218 5.606 1.991 6.187z"/></svg>