<?xml version="1.0" encoding="utf-8"?><svg xmlns="http://www.w3.org/2000/svg" width="300" height="265" xmlns:xlink="http://www.w3.org/1999/xlink" viewBox="0 0 300 265"><path fill="#E96449" d="M9.79 208.369l-2.803 2.561s2.208 1.838 4.437 2.409c4.062 1.044 6.905.49 9.345-.478 1.956-.773 4.167-2.74 4.167-2.74l-3.007-2.104s-1.783 1.182-2.859 1.682c-1.938.908-3.061 1.029-5.446.626-2.689-.45-3.834-1.956-3.834-1.956z" opacity=".77" enable-background="new"/><path fill="#E8755F" d="M12.613 205.898l-3.047 2.619s2.439 1.586 3.672 1.726c2.451.282 2.897.423 5.073-.343 2.548-.887 3.5-2.111 3.5-2.111l-2.931-2.338s-.513.672-1.979 1.087c-.581.163-1.895.224-3.068-.029-.595-.128-1.22-.611-1.22-.611z" opacity=".77" enable-background="new"/><path fill="#E8755F" d="M57.55 205.152l-1.401.166-2.971 5.343 7.182-.792zM38.825 207.825l-3.741 4.419 7.455-.578z"/><path fill="#9A5853" d="M18.708 205.633l-.431.417c-.809.782-1.619 1.564-2.428 2.351.923-.898 1.246-2.375 1.201-4.455l2.853-2.762c.051 2.08-.275 3.555-1.195 4.449z"/><defs><path id="a" d="M18.708 205.633l-.431.417c-.809.782-1.619 1.564-2.428 2.351.923-.898 1.246-2.375 1.201-4.455l2.853-2.762c.051 2.08-.275 3.555-1.195 4.449z"/></defs><clipPath id="b"><use xlink:href="#a" overflow="visible"/></clipPath><path fill="#9A5853" d="M18.708 205.633l-2.859 2.768c.923-.898 1.246-2.375 1.201-4.455l2.853-2.762c.051 2.08-.275 3.555-1.195 4.449" clip-path="url(#b)" enable-background="new"/><path fill="#E37F68" d="M15.169 164.355c6.868.018 12.355 4.613 12.426 11.812.189 8.271.378 16.548.564 24.823.236 7.367-5.129 12.67-12.363 12.885l-.476.005c-6.983-.019-12.375-5.015-12.467-12.18-.186-8.277-.382-16.552-.567-24.826-.243-7.399 5.236-12.302 12.377-12.511l.506-.008zm4.734 36.829c-.186-8.143-.369-16.279-.557-24.42-.081-3.5-1.125-5.188-4.229-5.197l-.289.007c-3.329.092-4.356 1.835-4.275 5.437.186 8.143.375 16.283.56 24.424.08 3.502 1.126 5.233 4.246 5.241l.272-.003c3.327-.101 4.357-1.889 4.272-5.489"/><g enable-background="new"><defs><path id="c" d="M41.987 181.561l-2.857 2.764-.139.01 2.86-2.764.136-.01z"/></defs><clipPath id="d"><use xlink:href="#c" overflow="visible"/></clipPath><path fill="#955747" d="M41.987 181.561l-2.857 2.764-.139.01 2.86-2.764.136-.01" clip-path="url(#d)" enable-background="new"/></g><path fill="#E37F68" d="M59.259 161.695l1.101 48.174c-2.874.333-4.309.492-7.182.792-3.738-9.701-7.47-19.397-11.19-29.101l-.135.008c.226 10.035.456 20.065.687 30.098-2.977.251-4.469.368-7.455.578-.367-16.059-.729-32.119-1.097-48.178 3.06-.217 4.586-.334 7.652-.594 3.549 8.873 7.104 17.739 10.67 26.61l.132-.017c-.209-9.187-.42-18.371-.628-27.556 2.98-.309 4.463-.471 7.445-.814zM89.555 157.544c.067 2.882.101 4.324.166 7.204-3.188.498-4.778.741-7.969 1.207.311 13.656.625 27.313.932 40.972-3.292.483-4.94.712-8.236 1.165-.311-13.658-.625-27.314-.935-40.972-3.191.438-4.782.646-7.976 1.044-.064-2.883-.097-4.324-.164-7.207 8.078-1.036 16.135-2.182 24.182-3.413z"/><path fill="#C05D52" d="M74.447 208.092l-2.854 2.762-.936-40.971 2.855-2.763c.311 13.657.625 27.314.935 40.972z"/><defs><path id="e" d="M74.447 208.092l-2.854 2.762-.936-40.971 2.855-2.763c.311 13.657.625 27.314.935 40.972z"/></defs><clipPath id="f"><use xlink:href="#e" overflow="visible"/></clipPath><path fill="#C05D52" d="M74.447 208.092l-2.854 2.762-.936-40.971 2.855-2.763c.311 13.657.625 27.314.935 40.972" clip-path="url(#f)" enable-background="new"/><path fill="#C05D52" d="M113.827 201.868l-2.853 2.762-.49-21.353 2.854-2.764c.165 7.116.331 14.236.489 21.355z"/><defs><path id="g" d="M113.827 201.868l-2.853 2.762-.49-21.353 2.854-2.764c.165 7.116.331 14.236.489 21.355z"/></defs><clipPath id="h"><use xlink:href="#g" overflow="visible"/></clipPath><path fill="#C05D52" d="M113.827 201.868l-2.853 2.762-.49-21.353 2.854-2.764c.165 7.116.331 14.236.489 21.355" clip-path="url(#h)" enable-background="new"/><path fill="#E37F68" d="M120.962 152.225c.361 16.057.733 32.119 1.099 48.176-3.295.597-4.942.889-8.234 1.469-.158-7.119-.324-14.239-.489-21.354-3.505.613-5.251.918-8.759 1.51.161 7.117.324 14.236.49 21.353-3.295.56-4.937.833-8.236 1.363-.365-16.06-.735-32.116-1.101-48.177 3.295-.533 4.945-.807 8.232-1.363.15 6.541.301 13.078.449 19.619 3.509-.594 5.256-.897 8.765-1.51-.151-6.541-.299-13.082-.453-19.621 3.295-.579 4.938-.872 8.237-1.465zM149.629 146.909c.063 2.884.103 4.323.171 7.21-4.604.863-9.201 1.729-13.804 2.584.092 4.136.187 8.271.283 12.411 3.539-.659 7.078-1.324 10.617-1.989l.162 7.21c-3.539.661-7.074 1.324-10.614 1.983l.321 14.149c4.913-.919 9.821-1.84 14.732-2.763l.164 7.21c-7.653 1.435-15.303 2.868-22.959 4.276-.368-16.063-.738-32.114-1.101-48.178 7.344-1.348 14.69-2.72 22.028-4.103zM180.028 141.273l.166 7.205c-4.916.893-9.822 1.793-14.734 2.709.09 4.133.188 8.273.279 12.41 3.676-.684 7.348-1.361 11.018-2.031.071 2.885.104 4.326.169 7.207-3.673.672-7.348 1.349-11.021 2.033.166 7.113.324 14.233.488 21.352-3.291.611-4.939.92-8.232 1.535-.362-16.057-.727-32.117-1.1-48.178 7.655-1.432 15.309-2.851 22.967-4.242zM207.248 136.616c.063 2.884.098 4.323.163 7.209-4.609.733-9.211 1.5-13.811 2.293.098 4.133.188 8.272.281 12.409 3.538-.607 7.081-1.201 10.627-1.779.064 2.884.102 4.324.164 7.209-3.547.574-7.085 1.172-10.622 1.775.106 4.718.213 9.435.318 14.147 4.907-.838 9.825-1.651 14.743-2.444.066 2.885.103 4.326.16 7.209-7.666 1.236-15.319 2.533-22.971 3.881-.359-16.059-.727-32.119-1.102-48.178 7.344-1.292 14.686-2.538 22.05-3.731z"/><g enable-background="new"><defs><path id="i" d="M221.345 152.614l-2.857 2.764-.131.015 2.854-2.762.134-.017z"/></defs><clipPath id="j"><use xlink:href="#i" overflow="visible"/></clipPath><path fill="#955747" d="M221.345 152.614l-2.857 2.764-.131.015 2.854-2.762.134-.017" clip-path="url(#j)" enable-background="new"/></g><path fill="#C05D52" d="M232.522 181.258l-2.854 2.762c-3.719-9.549-7.449-19.096-11.182-28.642l2.856-2.764c3.736 9.546 7.466 19.093 11.18 28.644z"/><defs><path id="k" d="M232.522 181.258l-2.854 2.762c-3.719-9.549-7.449-19.096-11.182-28.642l2.856-2.764c3.736 9.546 7.466 19.093 11.18 28.644z"/></defs><clipPath id="l"><use xlink:href="#k" overflow="visible"/></clipPath><path fill="#C05D52" d="M232.522 181.258l-2.854 2.762c-3.719-9.549-7.449-19.096-11.182-28.642l2.856-2.764c3.736 9.546 7.466 19.093 11.18 28.644" clip-path="url(#l)" enable-background="new"/><path fill="#E37F68" d="M238.601 132.176c.367 16.061.737 32.123 1.102 48.178-2.868.346-4.307.529-7.18.903-3.715-9.551-7.443-19.098-11.178-28.644l-.134.017c.231 10.033.457 20.065.687 30.095-2.976.43-4.465.651-7.441 1.111-.363-16.061-.729-32.12-1.102-48.179 3.059-.468 4.584-.695 7.639-1.14 3.563 8.726 7.115 17.448 10.664 26.174l.138-.017c-.214-9.185-.425-18.375-.634-27.561 2.98-.386 4.464-.579 7.439-.937zM259.069 129.438c6.756.016 11.262 5.585 11.346 12.335l.084 3.535c-3.305.211-4.954.334-8.254.598-.034-1.494-.053-2.244-.083-3.738-.091-3.852-1.798-5.477-3.783-5.482l-.343.016c-3.324.292-4.348 2.138-4.266 5.736.182 8.142.367 16.283.557 24.428.074 3.318 1.021 4.96 3.771 4.968.23 0 .48-.01.742-.034 2.992-.263 3.947-2.068 3.881-5.209-.058-2.318-.082-3.48-.136-5.803 3.299-.266 4.948-.385 8.251-.594l.128 5.535c.216 7.238-4.907 12.623-11.962 13.276-.477.044-.943.065-1.406.065-6.4-.016-11.451-4.301-11.511-11.159-.19-8.274-.384-16.548-.563-24.823-.22-7.431 5.115-12.935 12.348-13.596.406-.038.807-.054 1.199-.054zM297.968 128.313c.067 2.881.1 4.324.162 7.205-4.619.002-9.238.084-13.854.234.092 4.139.188 8.273.283 12.413 3.549-.118 7.102-.192 10.654-.222.068 2.885.102 4.324.166 7.205-3.555.031-7.107.106-10.658.22.108 4.72.213 9.435.327 14.149 4.925-.143 9.853-.222 14.786-.229.066 2.88.096 4.321.164 7.205-7.695.022-15.366.223-23.047.584l-1.098-48.176c7.369-.351 14.732-.554 22.115-.588z"/><path fill="#9A5853" d="M60.36 209.869l-2.858 2.765c-2.872.331-4.306.489-7.177.789l2.854-2.762c2.872-.3 4.307-.459 7.181-.792z"/><defs><path id="m" d="M60.36 209.869l-2.858 2.765c-2.872.331-4.306.489-7.177.789l2.854-2.762c2.872-.3 4.307-.459 7.181-.792z"/></defs><clipPath id="n"><use xlink:href="#m" overflow="visible"/></clipPath><path fill="#9A5853" d="M60.36 209.869l-2.858 2.765c-2.872.331-4.306.489-7.177.789l2.854-2.762c2.872-.3 4.307-.459 7.181-.792" clip-path="url(#n)" enable-background="new"/><path fill="#9A5853" d="M42.539 211.666l-2.858 2.761c-2.977.253-4.466.368-7.451.579l2.854-2.762c2.986-.21 4.479-.327 7.455-.578z"/><defs><path id="o" d="M42.539 211.666l-2.858 2.761c-2.977.253-4.466.368-7.451.579l2.854-2.762c2.986-.21 4.479-.327 7.455-.578z"/></defs><clipPath id="p"><use xlink:href="#o" overflow="visible"/></clipPath><path fill="#9A5853" d="M42.539 211.666l-2.858 2.761c-2.977.253-4.466.368-7.451.579l2.854-2.762c2.986-.21 4.479-.327 7.455-.578" clip-path="url(#p)" enable-background="new"/><path fill="#9A5853" d="M89.721 164.748l-2.855 2.762c-3.186.499-4.783.741-7.971 1.206l2.857-2.761c3.19-.466 4.781-.709 7.969-1.207z"/><defs><path id="q" d="M89.721 164.748l-2.855 2.762c-3.186.499-4.783.741-7.971 1.206l2.857-2.761c3.19-.466 4.781-.709 7.969-1.207z"/></defs><clipPath id="r"><use xlink:href="#q" overflow="visible"/></clipPath><path fill="#9A5853" d="M89.721 164.748l-2.855 2.762c-3.186.499-4.783.741-7.971 1.206l2.857-2.761c3.19-.466 4.781-.709 7.969-1.207" clip-path="url(#r)" enable-background="new"/><path fill="#9A5853" d="M73.512 167.12l-2.855 2.763c-3.191.436-4.787.645-7.974 1.045l2.854-2.764c3.194-.398 4.784-.605 7.975-1.044z"/><defs><path id="s" d="M73.512 167.12l-2.855 2.763c-3.191.436-4.787.645-7.974 1.045l2.854-2.764c3.194-.398 4.784-.605 7.975-1.044z"/></defs><clipPath id="t"><use xlink:href="#s" overflow="visible"/></clipPath><path fill="#9A5853" d="M73.512 167.12l-2.855 2.763c-3.191.436-4.787.645-7.974 1.045l2.854-2.764c3.194-.398 4.784-.605 7.975-1.044" clip-path="url(#t)" enable-background="new"/><path fill="#9A5853" d="M82.683 206.927l-2.853 2.763c-3.296.482-4.944.715-8.237 1.164l2.854-2.762c3.296-.453 4.944-.682 8.236-1.165z"/><defs><path id="u" d="M82.683 206.927l-2.853 2.763c-3.296.482-4.944.715-8.237 1.164l2.854-2.762c3.296-.453 4.944-.682 8.236-1.165z"/></defs><clipPath id="v"><use xlink:href="#u" overflow="visible"/></clipPath><path fill="#9A5853" d="M82.683 206.927l-2.853 2.763c-3.296.482-4.944.715-8.237 1.164l2.854-2.762c3.296-.453 4.944-.682 8.236-1.165" clip-path="url(#v)" enable-background="new"/><path fill="#9A5853" d="M113.337 180.514l-2.854 2.766c-3.505.611-5.255.916-8.764 1.507l2.858-2.763c3.509-.59 5.256-.896 8.76-1.51z"/><defs><path id="w" d="M113.337 180.514l-2.854 2.766c-3.505.611-5.255.916-8.764 1.507l2.858-2.763c3.509-.59 5.256-.896 8.76-1.51z"/></defs><clipPath id="x"><use xlink:href="#w" overflow="visible"/></clipPath><path fill="#9A5853" d="M113.337 180.514l-2.854 2.766c-3.505.611-5.255.916-8.764 1.507l2.858-2.763c3.509-.59 5.256-.896 8.76-1.51" clip-path="url(#x)" enable-background="new"/><path fill="#9A5853" d="M122.061 200.4l-2.858 2.765c-3.292.591-4.937.885-8.229 1.465l2.853-2.762c3.292-.58 4.939-.872 8.234-1.468z"/><defs><path id="y" d="M122.061 200.4l-2.858 2.765c-3.292.591-4.937.885-8.229 1.465l2.853-2.762c3.292-.58 4.939-.872 8.234-1.468z"/></defs><clipPath id="z"><use xlink:href="#y" overflow="visible"/></clipPath><path fill="#9A5853" d="M122.061 200.4l-2.858 2.765c-3.292.591-4.937.885-8.229 1.465l2.853-2.762c3.292-.58 4.939-.872 8.234-1.468" clip-path="url(#z)" enable-background="new"/><path fill="#9A5853" d="M105.068 203.376l-2.858 2.763c-3.291.557-4.937.832-8.233 1.362l2.855-2.762c3.299-.53 4.941-.803 8.236-1.363z"/><defs><path id="A" d="M105.068 203.376l-2.858 2.763c-3.291.557-4.937.832-8.233 1.362l2.855-2.762c3.299-.53 4.941-.803 8.236-1.363z"/></defs><clipPath id="B"><use xlink:href="#A" overflow="visible"/></clipPath><path fill="#9A5853" d="M105.068 203.376l-2.858 2.763c-3.291.557-4.937.832-8.233 1.362l2.855-2.762c3.299-.53 4.941-.803 8.236-1.363" clip-path="url(#B)" enable-background="new"/><path fill="#9A5853" d="M149.799 154.119l-2.854 2.761c-4.604.865-9.205 1.729-13.809 2.583l2.859-2.76c4.604-.855 9.201-1.721 13.804-2.584z"/><defs><path id="C" d="M149.799 154.119l-2.854 2.761c-4.604.865-9.205 1.729-13.809 2.583l2.859-2.76c4.604-.855 9.201-1.721 13.804-2.584z"/></defs><clipPath id="D"><use xlink:href="#C" overflow="visible"/></clipPath><path fill="#9A5853" d="M149.799 154.119l-2.854 2.761c-4.604.865-9.205 1.729-13.809 2.583l2.859-2.76c4.604-.855 9.201-1.721 13.804-2.584" clip-path="url(#D)" enable-background="new"/><path fill="#9A5853" d="M147.058 174.335l-2.857 2.763c-3.536.663-7.072 1.324-10.612 1.985l2.856-2.765c3.538-.659 7.074-1.322 10.613-1.983z"/><defs><path id="E" d="M147.058 174.335l-2.857 2.763c-3.536.663-7.072 1.324-10.612 1.985l2.856-2.765c3.538-.659 7.074-1.322 10.613-1.983z"/></defs><clipPath id="F"><use xlink:href="#E" overflow="visible"/></clipPath><path fill="#9A5853" d="M147.058 174.335l-2.857 2.763c-3.536.663-7.072 1.324-10.612 1.985l2.856-2.765c3.538-.659 7.074-1.322 10.613-1.983" clip-path="url(#F)" enable-background="new"/><path fill="#9A5853" d="M151.661 194.916l-2.854 2.764c-7.654 1.435-15.308 2.867-22.964 4.275l2.858-2.764c7.657-1.407 15.307-2.839 22.96-4.275z"/><defs><path id="G" d="M151.661 194.916l-2.854 2.764c-7.654 1.435-15.308 2.867-22.964 4.275l2.858-2.764c7.657-1.407 15.307-2.839 22.96-4.275z"/></defs><clipPath id="H"><use xlink:href="#G" overflow="visible"/></clipPath><path fill="#9A5853" d="M151.661 194.916l-2.854 2.764c-7.654 1.435-15.308 2.867-22.964 4.275l2.858-2.764c7.657-1.407 15.307-2.839 22.96-4.275" clip-path="url(#H)" enable-background="new"/><path fill="#9A5853" d="M180.194 148.479l-2.858 2.765c-4.909.889-9.819 1.792-14.737 2.702l2.861-2.76c4.912-.915 9.818-1.815 14.734-2.707z"/><defs><path id="I" d="M180.194 148.479l-2.858 2.765c-4.909.889-9.819 1.792-14.737 2.702l2.861-2.76c4.912-.915 9.818-1.815 14.734-2.707z"/></defs><clipPath id="J"><use xlink:href="#I" overflow="visible"/></clipPath><path fill="#9A5853" d="M180.194 148.479l-2.858 2.765c-4.909.889-9.819 1.792-14.737 2.702l2.861-2.76c4.912-.915 9.818-1.815 14.734-2.707" clip-path="url(#J)" enable-background="new"/><path fill="#9A5853" d="M176.926 168.771l-2.854 2.765c-3.674.672-7.346 1.346-11.02 2.028l2.854-2.76c3.672-.684 7.347-1.361 11.02-2.033z"/><defs><path id="K" d="M176.926 168.771l-2.854 2.765c-3.674.672-7.346 1.346-11.02 2.028l2.854-2.76c3.672-.684 7.347-1.361 11.02-2.033z"/></defs><clipPath id="L"><use xlink:href="#K" overflow="visible"/></clipPath><path fill="#9A5853" d="M176.926 168.771l-2.854 2.765c-3.674.672-7.346 1.346-11.02 2.028l2.854-2.76c3.672-.684 7.347-1.361 11.02-2.033" clip-path="url(#L)" enable-background="new"/><path fill="#9A5853" d="M166.396 192.156l-2.854 2.766c-3.291.608-4.945.914-8.231 1.532l2.853-2.763c3.29-.615 4.94-.921 8.232-1.535z"/><defs><path id="M" d="M166.396 192.156l-2.854 2.766c-3.291.608-4.945.914-8.231 1.532l2.853-2.763c3.29-.615 4.94-.921 8.232-1.535z"/></defs><clipPath id="N"><use xlink:href="#M" overflow="visible"/></clipPath><path fill="#9A5853" d="M166.396 192.156l-2.854 2.766c-3.291.608-4.945.914-8.231 1.532l2.853-2.763c3.29-.615 4.94-.921 8.232-1.535" clip-path="url(#N)" enable-background="new"/><path fill="#9A5853" d="M207.411 143.826l-2.854 2.762c-4.609.732-9.214 1.5-13.811 2.293l2.854-2.762c4.6-.793 9.202-1.56 13.811-2.293z"/><defs><path id="O" d="M207.411 143.826l-2.854 2.762c-4.609.732-9.214 1.5-13.811 2.293l2.854-2.762c4.6-.793 9.202-1.56 13.811-2.293z"/></defs><clipPath id="P"><use xlink:href="#O" overflow="visible"/></clipPath><path fill="#9A5853" d="M207.411 143.826l-2.854 2.762c-4.609.732-9.214 1.5-13.811 2.293l2.854-2.762c4.6-.793 9.202-1.56 13.811-2.293" clip-path="url(#P)" enable-background="new"/><path fill="#9A5853" d="M204.674 163.958l-2.854 2.762c-3.547.574-7.088 1.169-10.629 1.777l2.861-2.763c3.537-.604 7.075-1.202 10.622-1.776z"/><defs><path id="Q" d="M204.674 163.958l-2.854 2.762c-3.547.574-7.088 1.169-10.629 1.777l2.861-2.763c3.537-.604 7.075-1.202 10.622-1.776z"/></defs><clipPath id="R"><use xlink:href="#Q" overflow="visible"/></clipPath><path fill="#9A5853" d="M204.674 163.958l-2.854 2.762c-3.547.574-7.088 1.169-10.629 1.777l2.861-2.763c3.537-.604 7.075-1.202 10.622-1.776" clip-path="url(#R)" enable-background="new"/><path fill="#9A5853" d="M209.274 184.646l-2.854 2.763c-7.669 1.235-15.326 2.534-22.971 3.881l2.854-2.763c7.651-1.347 15.305-2.644 22.971-3.881z"/><defs><path id="S" d="M209.274 184.646l-2.854 2.763c-7.669 1.235-15.326 2.534-22.971 3.881l2.854-2.763c7.651-1.347 15.305-2.644 22.971-3.881z"/></defs><clipPath id="T"><use xlink:href="#S" overflow="visible"/></clipPath><path fill="#9A5853" d="M209.274 184.646l-2.854 2.763c-7.669 1.235-15.326 2.534-22.971 3.881l2.854-2.763c7.651-1.347 15.305-2.644 22.971-3.881" clip-path="url(#T)" enable-background="new"/><path fill="#9A5853" d="M239.7 180.354l-2.854 2.765c-2.873.343-4.306.528-7.178.899l2.854-2.761c2.874-.373 4.311-.558 7.178-.903z"/><defs><path id="U" d="M239.7 180.354l-2.854 2.765c-2.873.343-4.306.528-7.178.899l2.854-2.761c2.874-.373 4.311-.558 7.178-.903z"/></defs><clipPath id="V"><use xlink:href="#U" overflow="visible"/></clipPath><path fill="#9A5853" d="M239.7 180.354l-2.854 2.765c-2.873.343-4.306.528-7.178.899l2.854-2.761c2.874-.373 4.311-.558 7.178-.903" clip-path="url(#V)" enable-background="new"/><path fill="#9A5853" d="M221.897 182.727l-2.855 2.763c-2.973.431-4.467.653-7.438 1.11l2.853-2.763c2.976-.46 4.465-.683 7.44-1.11z"/><defs><path id="W" d="M221.897 182.727l-2.855 2.763c-2.973.431-4.467.653-7.438 1.11l2.853-2.763c2.976-.46 4.465-.683 7.44-1.11z"/></defs><clipPath id="X"><use xlink:href="#W" overflow="visible"/></clipPath><path fill="#9A5853" d="M221.897 182.727l-2.855 2.763c-2.973.431-4.467.653-7.438 1.11l2.853-2.763c2.976-.46 4.465-.683 7.44-1.11" clip-path="url(#X)" enable-background="new"/><path fill="#9A5853" d="M270.499 145.309l-2.855 2.766c-3.304.209-4.957.33-8.252.594l2.854-2.762c3.299-.264 4.948-.387 8.253-.598z"/><defs><path id="Y" d="M270.499 145.309l-2.855 2.766c-3.304.209-4.957.33-8.252.594l2.854-2.762c3.299-.264 4.948-.387 8.253-.598z"/></defs><clipPath id="Z"><use xlink:href="#Y" overflow="visible"/></clipPath><path fill="#9A5853" d="M270.499 145.309l-2.855 2.766c-3.304.209-4.957.33-8.252.594l2.854-2.762c3.299-.264 4.948-.387 8.253-.598" clip-path="url(#Z)" enable-background="new"/><path fill="#9A5853" d="M298.13 135.518l-2.854 2.762c-4.625 0-9.238.084-13.86.236l2.862-2.764c4.614-.152 9.233-.232 13.852-.234z"/><defs><path id="aa" d="M298.13 135.518l-2.854 2.762c-4.625 0-9.238.084-13.86.236l2.862-2.764c4.614-.152 9.233-.232 13.852-.234z"/></defs><clipPath id="ab"><use xlink:href="#aa" overflow="visible"/></clipPath><path fill="#9A5853" d="M298.13 135.518l-2.854 2.762c-4.625 0-9.238.084-13.86.236l2.862-2.764c4.614-.152 9.233-.232 13.852-.234" clip-path="url(#ab)" enable-background="new"/><path fill="#9A5853" d="M295.381 155.148l-2.856 2.762c-3.553.029-7.108.104-10.653.221l2.853-2.764c3.547-.112 7.101-.189 10.656-.219z"/><defs><path id="ac" d="M295.381 155.148l-2.856 2.762c-3.553.029-7.108.104-10.653.221l2.853-2.764c3.547-.112 7.101-.189 10.656-.219z"/></defs><clipPath id="ad"><use xlink:href="#ac" overflow="visible"/></clipPath><path fill="#9A5853" d="M295.381 155.148l-2.856 2.762c-3.553.029-7.108.104-10.653.221l2.853-2.764c3.547-.112 7.101-.189 10.656-.219" clip-path="url(#ad)" enable-background="new"/><path fill="#9A5853" d="M300 176.492l-2.854 2.763c-7.695.022-15.367.224-23.045.585l2.853-2.764c7.68-.361 15.351-.56 23.046-.584z"/><defs><path id="ae" d="M300 176.492l-2.854 2.763c-7.695.022-15.367.224-23.045.585l2.853-2.764c7.68-.361 15.351-.56 23.046-.584z"/></defs><clipPath id="af"><use xlink:href="#ae" overflow="visible"/></clipPath><path fill="#9A5853" d="M300 176.492l-2.854 2.763c-7.695.022-15.367.224-23.045.585l2.853-2.764c7.68-.361 15.351-.56 23.046-.584" clip-path="url(#af)" enable-background="new"/><g enable-background="new"><path fill="#C05D52" d="M8.885 175.365l2.854-2.764c.673-.652 1.671-.992 3.089-1.029l.289-.006c3.104.01 4.148 1.695 4.229 5.195.188 8.141.372 16.278.557 24.42l-2.853 2.764c-.186-8.141-.375-16.278-.558-24.422-.081-3.5-1.126-5.187-4.231-5.192l-.287.004c-1.417.04-2.417.376-3.089 1.03z"/><defs><path id="ag" d="M8.885 175.365l2.854-2.764c.673-.652 1.671-.992 3.089-1.029l.289-.006c3.104.01 4.148 1.695 4.229 5.195.188 8.141.372 16.278.557 24.42l-2.853 2.764c-.186-8.141-.375-16.278-.558-24.422-.081-3.5-1.126-5.187-4.231-5.192l-.287.004c-1.417.04-2.417.376-3.089 1.03z"/></defs><clipPath id="ah"><use xlink:href="#ag" overflow="visible"/></clipPath><path fill="#C05D52" d="M19.903 201.184l-2.853 2.762c-.186-8.141-.375-16.277-.558-24.42-.081-3.5-1.126-5.188-4.231-5.193l-.287.004c-1.418.04-2.418.376-3.09 1.03l2.854-2.763c.673-.653 1.671-.994 3.089-1.03l.289-.007c3.104.011 4.148 1.697 4.229 5.197.189 8.138.372 16.277.558 24.42" clip-path="url(#ah)" enable-background="new"/></g><path fill="#9A5853" d="M24.536 210.357l-2.854 2.763c-2.201 2.13-5.254 3.413-8.742 3.517l-.473.008c-6.983-.02-12.381-5.019-12.467-12.187-.191-8.272-.382-16.549-.569-24.822-.123-3.716 1.2-6.804 3.449-8.981.953-.92 1.905-1.84 2.857-2.764-2.252 2.182-3.572 5.269-3.451 8.983.186 8.274.382 16.549.567 24.826.091 7.165 5.483 12.161 12.467 12.18l.476-.005c3.487-.105 6.539-1.389 8.74-3.518z"/><defs><path id="ai" d="M24.536 210.357l-2.854 2.763c-2.201 2.13-5.254 3.413-8.742 3.517l-.473.008c-6.983-.02-12.381-5.019-12.467-12.187-.191-8.272-.382-16.549-.569-24.822-.123-3.716 1.2-6.804 3.449-8.981.953-.92 1.905-1.84 2.857-2.764-2.252 2.182-3.572 5.269-3.451 8.983.186 8.274.382 16.549.567 24.826.091 7.165 5.483 12.161 12.467 12.18l.476-.005c3.487-.105 6.539-1.389 8.74-3.518z"/></defs><clipPath id="aj"><use xlink:href="#ai" overflow="visible"/></clipPath><path fill="#9A5853" d="M24.536 210.357l-2.854 2.763c-2.201 2.13-5.254 3.413-8.742 3.517l-.473.008c-6.983-.02-12.381-5.019-12.467-12.187-.191-8.272-.382-16.549-.569-24.822-.123-3.716 1.2-6.804 3.449-8.981l2.857-2.764c-2.252 2.182-3.572 5.269-3.451 8.983.186 8.274.382 16.549.567 24.826.091 7.165 5.483 12.161 12.467 12.18l.476-.005c3.487-.105 6.539-1.389 8.74-3.518" clip-path="url(#aj)" enable-background="new"/><g enable-background="new"><path fill="#C05D52" d="M52.441 190.068l-2.854 2.76c-.216-9.184-.42-18.368-.633-27.557l2.858-2.76c.209 9.184.421 18.371.629 27.557z"/><defs><path id="ak" d="M52.441 190.068l-2.854 2.76c-.216-9.184-.42-18.368-.633-27.557l2.858-2.76c.209 9.184.421 18.371.629 27.557z"/></defs><clipPath id="al"><use xlink:href="#ak" overflow="visible"/></clipPath><path fill="#C05D52" d="M52.441 190.068l-2.854 2.76c-.216-9.184-.42-18.368-.633-27.557l2.858-2.76c.209 9.184.421 18.371.629 27.557" clip-path="url(#al)" enable-background="new"/></g><g enable-background="new"><path fill="#C05D52" d="M53.178 210.661l-2.854 2.762c-3.741-9.696-7.475-19.397-11.194-29.1l2.857-2.763c3.721 9.704 7.453 19.4 11.191 29.101z"/><defs><path id="am" d="M53.178 210.661l-2.854 2.762c-3.741-9.696-7.475-19.397-11.194-29.1l2.857-2.763c3.721 9.704 7.453 19.4 11.191 29.101z"/></defs><clipPath id="an"><use xlink:href="#am" overflow="visible"/></clipPath><path fill="#C05D52" d="M53.178 210.661l-2.854 2.762c-3.741-9.696-7.475-19.397-11.194-29.1l2.857-2.763c3.721 9.704 7.453 19.4 11.191 29.101" clip-path="url(#an)" enable-background="new"/></g><g enable-background="new"><path fill="#C05D52" d="M35.084 212.244l-2.854 2.762c-.367-16.059-.738-32.117-1.1-48.178l2.857-2.762c.369 16.059.73 32.12 1.097 48.178z"/><defs><path id="ao" d="M35.084 212.244l-2.854 2.762c-.367-16.059-.738-32.117-1.1-48.178l2.857-2.762c.369 16.059.73 32.12 1.097 48.178z"/></defs><clipPath id="ap"><use xlink:href="#ao" overflow="visible"/></clipPath><path fill="#C05D52" d="M35.084 212.244l-2.854 2.762c-.367-16.059-.738-32.117-1.1-48.178l2.857-2.762c.369 16.059.73 32.12 1.097 48.178" clip-path="url(#ap)" enable-background="new"/></g><g enable-background="new"><path fill="#C05D52" d="M65.537 168.164l-2.854 2.764c-.068-2.884-.102-4.326-.166-7.209l2.855-2.761c.068 2.882.1 4.323.165 7.206z"/><defs><path id="aq" d="M65.537 168.164l-2.854 2.764c-.068-2.884-.102-4.326-.166-7.209l2.855-2.761c.068 2.882.1 4.323.165 7.206z"/></defs><clipPath id="ar"><use xlink:href="#aq" overflow="visible"/></clipPath><path fill="#C05D52" d="M65.537 168.164l-2.854 2.764c-.068-2.884-.102-4.326-.166-7.209l2.855-2.761c.068 2.882.1 4.323.165 7.206" clip-path="url(#ar)" enable-background="new"/></g><g enable-background="new"><path fill="#C05D52" d="M113.177 173.309l-2.859 2.762c-.145-6.539-.295-13.079-.445-19.62l2.852-2.763c.154 6.539.301 13.08.452 19.621z"/><defs><path id="as" d="M113.177 173.309l-2.859 2.762c-.145-6.539-.295-13.079-.445-19.62l2.852-2.763c.154 6.539.301 13.08.452 19.621z"/></defs><clipPath id="at"><use xlink:href="#as" overflow="visible"/></clipPath><path fill="#C05D52" d="M113.177 173.309l-2.859 2.762c-.145-6.539-.295-13.079-.445-19.62l2.852-2.763c.154 6.539.301 13.08.452 19.621" clip-path="url(#at)" enable-background="new"/></g><g enable-background="new"><path fill="#C05D52" d="M96.832 204.739l-2.855 2.762c-.366-16.062-.734-32.117-1.099-48.176l2.854-2.763 1.1 48.177z"/><defs><path id="au" d="M96.832 204.739l-2.855 2.762c-.366-16.062-.734-32.117-1.099-48.176l2.854-2.763 1.1 48.177z"/></defs><clipPath id="av"><use xlink:href="#au" overflow="visible"/></clipPath><path fill="#C05D52" d="M96.832 204.739l-2.855 2.762c-.366-16.062-.734-32.117-1.099-48.176l2.854-2.763 1.1 48.177" clip-path="url(#av)" enable-background="new"/></g><g enable-background="new"><path fill="#C05D52" d="M128.702 199.191l-2.858 2.764c-.366-16.063-.733-32.117-1.1-48.176l2.857-2.764c.363 16.063.733 32.116 1.101 48.176z"/><defs><path id="aw" d="M128.702 199.191l-2.858 2.764c-.366-16.063-.733-32.117-1.1-48.176l2.857-2.764c.363 16.063.733 32.116 1.101 48.176z"/></defs><clipPath id="ax"><use xlink:href="#aw" overflow="visible"/></clipPath><path fill="#C05D52" d="M128.702 199.191l-2.858 2.764c-.366-16.063-.733-32.117-1.1-48.176l2.857-2.764c.363 16.063.733 32.116 1.101 48.176" clip-path="url(#ax)" enable-background="new"/></g><g enable-background="new"><path fill="#C05D52" d="M158.161 193.691l-2.854 2.763c-.361-16.058-.73-32.118-1.1-48.179l2.854-2.762c.374 16.061.738 32.122 1.1 48.178z"/><defs><path id="ay" d="M158.161 193.691l-2.854 2.763c-.361-16.058-.73-32.118-1.1-48.179l2.854-2.762c.374 16.061.738 32.122 1.1 48.178z"/></defs><clipPath id="az"><use xlink:href="#ay" overflow="visible"/></clipPath><path fill="#C05D52" d="M158.161 193.691l-2.854 2.763c-.361-16.058-.73-32.118-1.1-48.179l2.854-2.762c.374 16.061.738 32.122 1.1 48.178" clip-path="url(#az)" enable-background="new"/></g><g enable-background="new"><path fill="#C05D52" d="M186.304 188.527l-2.854 2.763c-.359-16.062-.729-32.12-1.1-48.177l2.853-2.764c.375 16.059.739 32.12 1.101 48.178z"/><defs><path id="aA" d="M186.304 188.527l-2.854 2.763c-.359-16.062-.729-32.12-1.1-48.177l2.853-2.764c.375 16.059.739 32.12 1.101 48.178z"/></defs><clipPath id="aB"><use xlink:href="#aA" overflow="visible"/></clipPath><path fill="#C05D52" d="M186.304 188.527l-2.854 2.763c-.359-16.062-.729-32.12-1.1-48.177l2.853-2.764c.375 16.059.739 32.12 1.101 48.178" clip-path="url(#aB)" enable-background="new"/></g><g enable-background="new"><path fill="#C05D52" d="M231.794 160.676l-2.859 2.762-.627-27.562 2.854-2.761c.207 9.186.418 18.376.632 27.561z"/><defs><path id="aC" d="M231.794 160.676l-2.859 2.762-.627-27.562 2.854-2.761c.207 9.186.418 18.376.632 27.561z"/></defs><clipPath id="aD"><use xlink:href="#aC" overflow="visible"/></clipPath><path fill="#C05D52" d="M231.794 160.676l-2.859 2.762-.627-27.562 2.854-2.761c.207 9.186.418 18.376.632 27.561" clip-path="url(#aD)" enable-background="new"/></g><g enable-background="new"><path fill="#C05D52" d="M214.455 183.837l-2.853 2.763-1.105-48.18 2.857-2.762c.372 16.059.738 32.119 1.101 48.179z"/><defs><path id="aE" d="M214.455 183.837l-2.853 2.763-1.105-48.18 2.857-2.762c.372 16.059.738 32.119 1.101 48.179z"/></defs><clipPath id="aF"><use xlink:href="#aE" overflow="visible"/></clipPath><path fill="#C05D52" d="M214.455 183.837l-2.853 2.763-1.105-48.18 2.857-2.762c.372 16.059.738 32.119 1.101 48.179" clip-path="url(#aF)" enable-background="new"/></g><g enable-background="new"><path fill="#C05D52" d="M252.179 140.609c.95-.92 1.904-1.842 2.856-2.76.672-.651 1.645-1.031 3.001-1.148l.343-.016c1.985.006 3.692 1.631 3.783 5.482.03 1.494.049 2.244.083 3.738l-2.854 2.762-.087-3.738c-.089-3.85-1.795-5.476-3.78-5.479l-.346.012c-1.355.121-2.327.497-2.999 1.147z"/><defs><path id="aG" d="M252.179 140.609c.95-.92 1.904-1.842 2.856-2.76.672-.651 1.645-1.031 3.001-1.148l.343-.016c1.985.006 3.692 1.631 3.783 5.482.03 1.494.049 2.244.083 3.738l-2.854 2.762-.087-3.738c-.089-3.85-1.795-5.476-3.78-5.479l-.346.012c-1.355.121-2.327.497-2.999 1.147z"/></defs><clipPath id="aH"><use xlink:href="#aG" overflow="visible"/></clipPath><path fill="#C05D52" d="M262.245 145.906l-2.854 2.762-.087-3.738c-.089-3.85-1.795-5.476-3.78-5.479l-.346.012c-1.354.122-2.328.498-3 1.147l2.855-2.76c.673-.651 1.646-1.031 3.002-1.148l.343-.016c1.985.006 3.692 1.631 3.783 5.482.031 1.494.05 2.244.084 3.738" clip-path="url(#aH)" enable-background="new"/></g><g enable-background="new"><path fill="#C05D52" d="M261.526 170.748c-.947.919-1.901 1.84-2.855 2.761.907-.88 1.236-2.278 1.191-4.155-.051-2.319-.078-3.483-.137-5.803l2.86-2.764c.054 2.322.078 3.484.136 5.803.042 1.875-.284 3.277-1.195 4.158z"/><defs><path id="aI" d="M261.526 170.748c-.947.919-1.901 1.84-2.855 2.761.907-.88 1.236-2.278 1.191-4.155-.051-2.319-.078-3.483-.137-5.803l2.86-2.764c.054 2.322.078 3.484.136 5.803.042 1.875-.284 3.277-1.195 4.158z"/></defs><clipPath id="aJ"><use xlink:href="#aI" overflow="visible"/></clipPath><path fill="#C05D52" d="M261.526 170.748l-2.855 2.761c.907-.88 1.236-2.278 1.191-4.155-.051-2.319-.078-3.483-.137-5.803l2.86-2.764c.054 2.322.078 3.484.136 5.803.042 1.875-.284 3.277-1.195 4.158" clip-path="url(#aJ)" enable-background="new"/></g><path fill="#9A5853" d="M267.19 175.37l-2.854 2.763c-2.098 2.027-4.938 3.334-8.189 3.635-.474.045-.939.066-1.406.063-6.4-.015-11.448-4.299-11.508-11.156-.191-8.276-.379-16.55-.569-24.823-.112-3.98 1.362-7.408 3.868-9.836.953-.918 1.906-1.84 2.856-2.762-2.506 2.428-3.987 5.855-3.864 9.835.18 8.274.371 16.548.563 24.823.06 6.859 5.108 11.145 11.51 11.158.464 0 .931-.021 1.407-.064 3.253-.303 6.089-1.61 8.186-3.636z"/><defs><path id="aK" d="M267.19 175.37l-2.854 2.763c-2.098 2.027-4.938 3.334-8.189 3.635-.474.045-.939.066-1.406.063-6.4-.015-11.448-4.299-11.508-11.156-.191-8.276-.379-16.55-.569-24.823-.112-3.98 1.362-7.408 3.868-9.836.953-.918 1.906-1.84 2.856-2.762-2.506 2.428-3.987 5.855-3.864 9.835.18 8.274.371 16.548.563 24.823.06 6.859 5.108 11.145 11.51 11.158.464 0 .931-.021 1.407-.064 3.253-.303 6.089-1.61 8.186-3.636z"/></defs><clipPath id="aL"><use xlink:href="#aK" overflow="visible"/></clipPath><path fill="#9A5853" d="M267.19 175.37l-2.854 2.763c-2.098 2.027-4.938 3.334-8.189 3.635-.474.045-.939.066-1.406.063-6.4-.015-11.448-4.299-11.508-11.156-.191-8.276-.379-16.55-.569-24.823-.112-3.98 1.362-7.408 3.868-9.836l2.856-2.762c-2.506 2.428-3.987 5.855-3.864 9.835.18 8.274.371 16.548.563 24.823.06 6.859 5.108 11.145 11.51 11.158.464 0 .931-.021 1.407-.064 3.253-.303 6.089-1.61 8.186-3.636" clip-path="url(#aL)" enable-background="new"/><g enable-background="new"><path fill="#C05D52" d="M276.953 177.076l-2.853 2.764c-.367-16.061-.736-32.121-1.102-48.178l2.855-2.761c.368 16.056.734 32.115 1.1 48.175z"/><defs><path id="aM" d="M276.953 177.076l-2.853 2.764c-.367-16.061-.736-32.121-1.102-48.178l2.855-2.761c.368 16.056.734 32.115 1.1 48.175z"/></defs><clipPath id="aN"><use xlink:href="#aM" overflow="visible"/></clipPath><path fill="#C05D52" d="M276.953 177.076l-2.853 2.764c-.367-16.061-.736-32.121-1.102-48.178l2.855-2.761c.368 16.056.734 32.115 1.1 48.175" clip-path="url(#aN)" enable-background="new"/></g><path fill="#E95C35" d="M27.082 172.516l-3.844 3.514s-.15 19.672-.15 26.789c0 4.268-1.158 5.199-1.158 5.199l3.007 2.104s3.413-3.712 3.096-8.411c-.444-6.664-.18-18.123-.204-23.918-.02-4.229-.747-5.277-.747-5.277z" opacity=".77" enable-background="new"/><path fill="#E96449" d="M8.203 170.977l2.951 2.434s-.574.938-.567 2.502c.004 2.388.247 20.734.598 26.559.159 2.685 1.429 3.43 1.429 3.43l-2.958 2.529s-2.201-1.814-2.164-6.863c.041-5.402-.344-21.439-.344-26.021-.002-2.676 1.055-4.57 1.055-4.57z" opacity=".77" enable-background="new"/><path fill="#E95A3D" d="M19.289 175.881l3.278-2.627s-1.283-4.622-4.598-5.148c-2.431-.388-3.979-.76-6.16 0-3.254 1.142-3.703 2.903-3.703 2.903l3.022 2.455s.583-1.016 1.295-1.323c1.658-.723 3.657-.779 5.102-.019 1.608.853 1.764 3.759 1.764 3.759z" opacity=".77" enable-background="new"/><path fill="#E96449" d="M251.389 136.34l2.953 2.436s-.575.935-.571 2.498c.008 2.389.252 20.735.599 26.56.161 2.685 1.432 3.427 1.432 3.427l-2.963 2.532s-2.198-1.815-2.164-6.865c.039-5.405-.342-21.435-.342-26.021-.002-2.673 1.056-4.567 1.056-4.567z"/><path fill="#E8755F" d="M255.8 171.259l-3.053 2.619s2.16 1.824 3.395 1.968c2.448.278 3.176.18 5.356-.582 2.543-.889 3.496-2.113 3.496-2.113l-3.218-2.692s-.52.774-1.988 1.188c-.581.164-1.648.314-2.828.062-.598-.132-1.16-.45-1.16-.45z"/><path fill="#E96449" d="M252.78 173.818l-3.219 2.367s1.356 1.531 4.154 2.293c3.243.877 6.239.957 10.284-.895 3.423-1.57 6.539-5.305 6.894-9.82.202-2.566-.057-7.572-.057-7.572l-3.729 4.806s-.666 6.18-1.532 7.438c-1.606 2.334-5.183 3.424-6.382 3.496-5.001.298-6.413-2.113-6.413-2.113z"/><path fill="#F0947D" d="M250.995 137.596l-3.26-2.388s1.636-2.633 4.772-4.18c2.588-1.276 7.035-2.509 11.076-.655 3.422 1.57 6.362 4.939 6.793 10.443.207 2.57.104 4.695.104 4.695l-3.733-4.805s-1.038-4.047-1.902-5.305c-1.604-2.338-6.211-2.488-7.413-2.562-4.995-.295-6.437 4.757-6.437 4.757z"/><path fill="#E95A3D" d="M262.245 145.906l3.896-5.461s.162-6.077-5.022-7.32c-2.396-.576-3.733-.716-5.911.044-3.258 1.142-3.912 3.199-3.912 3.199l3.018 2.457s.703-1.179 1.407-1.507c.957-.443 2.572-.746 4.13-.242 1.997.646 2.305 4.673 2.354 7.061.014 1.043.04 1.769.04 1.769z"/><path fill="#E8755F" d="M236.813 175.518l-1.4.164-2.891 5.576 7.178-.904zM218.087 178.188l-3.632 5.649 7.442-1.11z"/><path fill="#F0947D" d="M217.976 143.436l1.337-.267 1.678-8.651-7.637 1.14zM266.899 165.309l3.939-5.116-8.251.594z"/><path fill="#E8755F" d="M266.364 140.178l-4.119 5.728 8.254-.597z"/><path fill="#E96449" d="M238.601 132.176l-3.391 7.095 1.603 36.247 2.887 4.836zM221.211 152.63l-3.235-9.194.148 35 3.773 4.291zM231.794 160.676l5.019 14.601-1.4.405z"/><path fill="#E8755F" d="M221.211 152.63l-3.321-9.371 1.423-.09z"/><path fill="#E96449" d="M194.052 165.734l-4.136-2.658.269 21.102 4.185-4.296z"/><path fill="#F0947D" d="M189.737 143.555l-4.534-3.205 1.101 48.177 3.886-4.204zM279.93 132.16l-4.074-3.26 1.097 48.176 3.489-3.584z"/><path fill="#E96449" d="M193.644 146.125l-3.808-2.841.08 19.792 3.967-4.549z"/><path fill="#EA6444" d="M203.425 182.125l5.849 2.521-.162-7.208zM200.33 161.623l4.344 2.335-.164-7.209z"/><path fill="#E95A3D" d="M190.302 184.178l-3.998 4.349 22.97-3.881-5.701-2.582z"/><path fill="none" stroke="#fff" stroke-width=".714" stroke-miterlimit="10" d="M23.361 201.643c0 3.944-.493 7.725-6.986 8.814-.571.098-1.498.07-2.301-.064-4.064-.677-6.516-2.944-6.516-7.854l-.42-25.202c0-3.945.06-8.545 5.782-9.55.682-.119 2.765-.063 2.765-.063 4.789.055 7.167 3.372 7.167 7.317l.509 26.602z"/><path fill="#E96449" d="M284.723 155.368l-4.702-3.389.33 21.485 4.699-3.946zM284.276 135.752l-4.543-3.748.288 19.975 4.539-3.814z"/><path fill="#EA6444" d="M293.772 173.211l6.228 3.281-.164-7.205zM290.692 151.648l4.689 3.5-.166-7.205zM293.207 131.563l4.923 3.955-.162-7.205z"/><path fill="#E95A3D" d="M280.511 173.389l-3.558 3.688s8.878-.331 11.817-.407c2.819-.071 11.229-.177 11.229-.177l-6.228-3.281-13.26.177zM279.876 132.068l4.4 3.684s3.813-.066 6.759-.143c2.819-.07 7.095-.092 7.095-.092l-4.852-3.925-13.402.476z"/><path fill="#EA6444" d="M202.503 141.205l4.908 2.621-.163-7.21z"/><path fill="#E95A3D" d="M189.567 143.346l4.077 2.779 13.767-2.299-4.764-2.597zM189.987 163.182l4.109 2.576 10.578-1.8-4.344-2.335zM165.905 170.805l-3.816-3.13.182 20.889 4.125 3.592z"/><path fill="#E96449" d="M165.46 151.186l-3.635-3.295.446 19.873 3.468-4.166z"/><path fill="#EA6444" d="M158.161 193.691l8.235-1.535-4.081-3.814zM96.832 204.739l8.236-1.363-4.488-3.011zM113.827 201.868l8.234-1.468-4.013-3.668z"/><path fill="#E95A3D" d="M172.478 166.268l4.448 2.503-.169-7.207z"/><path fill="#EA6444" d="M175.504 145.869l4.69 2.61-.166-7.206z"/><path fill="#E95A3D" d="M161.825 147.891l3.635 3.295 14.734-2.707-4.69-2.61z"/><path fill="#E96449" d="M162.165 167.748l3.74 3.057 11.021-2.034-3.736-2.503zM100.492 179.207l4.167 2.857 8.678-1.55 4.505-3.868z"/><path fill="#E95A3D" d="M220.991 134.518l-1.678 8.651 16.37 32.286-4.026-14.762z"/><path fill="#F0947D" d="M38.012 170.639l1.861-.257 1.766-6.909-7.652.593zM55.841 169.225l3.418-7.53-7.445.819z"/><path fill="#E96449" d="M59.259 161.695l-3.316 7.213 1.607 36.244 2.81 4.717zM41.852 181.568l-3.556-10.902.566 37.404 3.677 3.596zM52.31 190.084l5.065 15.027-1.226.207z"/><path fill="#E8755F" d="M41.852 181.568l-3.584-10.812 1.459-.27z"/><path fill="#E95A3D" d="M41.639 163.473l-1.853 7.283 16.635 34.342-4.111-15.014z"/><g fill="none" stroke="#fff" stroke-width=".714" stroke-miterlimit="10"><path d="M293.772 131.563l-13.975.516.542 41.454 13.877-.368M280.151 151.91l11.121-.349"/></g><g fill="none" stroke="#fff" stroke-width=".714" stroke-miterlimit="10"><path d="M202.849 141.174l-13.168 2.172.504 40.9 13.568-2.252M190.212 163.076l10.576-1.533"/></g><path fill="#E96449" d="M136.448 176.379l-4.026-3.04.271 21.097 4.072-3.967z"/><path fill="#E95C35" d="M104.578 182.023l-4.264-2.877.222 21.381 4.532 2.849zM120.962 152.225l-3.512 4.567.628 40.12 3.983 3.488z"/><path fill="#F0947D" d="M145.187 151.383l4.442-4.474-22.028 4.107 4.673 2.687z"/><path fill="#E96449" d="M135.996 156.703l-3.655-3.159.081 19.795 3.857-4.225zM103.963 155.199l-4.009 5.514.36 18.433 4.099-4.328z"/><path fill="#EA6444" d="M145.845 192.314l5.816 2.602-.164-7.21zM142.837 171.884l4.221 2.451-.162-7.21z"/><path fill="#E95A3D" d="M132.807 194.436l-4.105 4.755 22.959-4.275-5.581-2.592z"/><path fill="#EA6444" d="M145.011 151.466l4.788 2.653-.17-7.21z"/><path fill="#E95A3D" d="M132.072 153.605l3.924 3.098 13.803-2.584-4.648-2.631zM132.497 173.441l3.951 2.938 10.61-2.044-4.221-2.451z"/><g fill="none" stroke="#fff" stroke-width=".714" stroke-miterlimit="10"><path d="M145.356 151.434l-13.17 2.171.507 40.9 13.565-2.252M132.72 173.339l10.569-1.536"/></g><path fill="#EA6444" d="M86.698 162.006l3.023 2.742-.166-7.204zM65.373 160.958l.164 7.206 3.909-3.838zM78.797 203.206l-4.35 4.886 8.236-1.165z"/><path fill="#E95C35" d="M81.752 165.955l-3.647-2.721.624 39.995 3.954 3.698z"/><path fill="#E96449" d="M89.721 164.748l-3.023-2.742-8.769 1.39 3.823 2.559zM65.496 168.211l3.95-3.885 8.659-.959-4.642 3.772z"/><path fill="#F0947D" d="M86.698 162.006l2.857-4.462-24.182 3.414 4.139 3.397zM103.963 155.199l-8.231 1.364 4.222 4.15zM117.808 176.468l-4.631-3.159-8.764 1.509-4.234 4.553zM120.962 152.225l-8.237 1.463 4.817 3.63zM175.504 145.869l4.524-4.596-22.965 4.243 4.762 2.375z"/><g fill="none" stroke="#fff" stroke-width=".71" stroke-miterlimit="10"><path d="M69.139 164.305s4.761-.516 8.688-1.06c4.041-.562 9.134-1.345 9.134-1.345M78.169 163.221l.651 40.411"/></g><g fill="none" stroke="#fff" stroke-width=".714" stroke-miterlimit="10"><path d="M175.632 145.667l-13.807 2.224.503 40.903M162.358 167.623l10.577-1.536"/></g><path fill="none" stroke="#fff" stroke-width=".714" stroke-miterlimit="10" d="M99.95 160.361l.651 40.412M117.45 156.792l.65 40.41M100.168 179.207l17.554-2.62M235.028 138.854l1.473 36.675-1.088.153-16.088-32.605-1.435.182.211 35.464M55.766 168.493l1.47 36.678-1.087.147-16.444-34.746-1.437.184.569 37.601M266.321 140.669c0-4.685-2.683-8.125-8.217-7.945-7.471.241-7.896 6.633-7.802 11.01.226 9.895.455 15.639.683 25.533.09 4.035 3.078 6.707 6.42 6.664 9.941-.117 9.55-7.314 9.464-11.129"/></svg>