<?xml version="1.0" encoding="utf-8"?><svg xmlns="http://www.w3.org/2000/svg" width="350" height="350" viewBox="0 0 350 350"><g fill="#241410"><path d="M257.514 246.387c.771 1.618-.477 3.823-2.789 4.924-2.313 1.102-4.813.681-5.582-.937-.774-1.62.479-3.826 2.789-4.926 2.309-1.101 4.809-.681 5.582.939z"/><ellipse cx="270.9" cy="252.265" transform="matrix(.894 -.447 .447 .894 -84.237 147.852)" rx="5.531" ry="4.627"/><ellipse cx="264.037" cy="248.096" rx="8.729" ry="5.558"/><path d="M276.543 248.902c0 1.964-1.595 3.562-3.564 3.562-1.963 0-3.561-1.598-3.561-3.562 0-1.971 1.598-3.566 3.561-3.566 1.969 0 3.564 1.596 3.564 3.566zM257.037 250.118c1.468 1.352 1.747 3.44.622 4.662-1.128 1.218-3.228 1.111-4.698-.241-1.469-1.357-1.747-3.443-.621-4.661 1.127-1.223 3.225-1.114 4.697.24z"/><circle cx="276.488" cy="250.44" r="1.649"/><path d="M269.134 253.629c0 2.438-2.968 4.42-6.626 4.42-3.656 0-6.625-1.981-6.625-4.42 0-2.441 2.969-4.422 6.625-4.422 3.658 0 6.626 1.981 6.626 4.422z"/></g><path fill="none" stroke="#241410" d="M256.582 254.643v7.42M259.93 254.643v7.42M268.793 254.643v7.42M271.746 254.643v7.42" stroke-linecap="round"/><path fill="#241410" d="M256.877 262.048c.053.26-.33.557-.852.661-.525.111-.995-.013-1.048-.271-.054-.26.33-.556.855-.664.523-.108.995.015 1.045.274zM260.229 262.048c.053.26-.334.557-.856.661-.525.111-.994-.013-1.049-.271-.057-.26.33-.556.855-.664.528-.108.994.015 1.05.274zM269.117 262.048c.058.26-.328.557-.854.661-.522.111-.992-.013-1.049-.271-.049-.26.334-.556.859-.664.526-.108.991.015 1.044.274zM272.054 262.048c.049.26-.329.557-.859.661-.521.111-.992-.013-1.044-.271-.054-.26.332-.556.855-.664.525-.108.994.015 1.048.274zM253.043 245.919c-.116-.771.399-1.482 1.155-1.598.752-.107 1.454.427 1.57 1.194.109.771-.408 1.487-1.16 1.597-.753.11-1.455-.422-1.565-1.193z"/><g fill="#CC9D59"><path d="M284.772 70.177c0 3.944-3.193 7.142-7.141 7.142-3.943 0-7.142-3.198-7.142-7.142 0-3.943 3.198-7.142 7.142-7.142 3.948 0 7.141 3.198 7.141 7.142z"/><circle cx="303.658" cy="78.003" r="7.142"/><path d="M295.93 72.132c0 3.945-3.202 7.142-7.143 7.142-3.944 0-7.143-3.197-7.143-7.142 0-3.942 3.198-7.141 7.143-7.141 3.941.001 7.143 3.199 7.143 7.141z"/><circle cx="299.254" cy="69.883" r="4.988"/><path d="M280.08 78.493c0 1.565-1.267 2.835-2.834 2.835-1.572 0-2.84-1.27-2.84-2.835 0-1.568 1.268-2.839 2.84-2.839 1.567 0 2.834 1.271 2.834 2.839z"/><circle cx="289.079" cy="77.905" r="10.565"/></g><g fill="#CC9D59"><ellipse cx="27.449" cy="150.212" rx="14.773" ry="7.141"/><path d="M96.058 158.039c0 3.943-6.614 7.139-14.774 7.139-8.158 0-14.774-3.196-14.774-7.139 0-3.946 6.616-7.141 14.774-7.141 8.16 0 14.774 3.195 14.774 7.141z"/><ellipse cx="50.521" cy="152.167" rx="14.774" ry="7.143"/><ellipse cx="72.178" cy="149.919" rx="10.323" ry="4.988"/><ellipse cx="26.641" cy="158.526" rx="5.869" ry="2.837"/><ellipse cx="51.128" cy="157.94" rx="21.857" ry="10.566"/></g><g fill="#CC9D59"><circle cx="148.411" cy="43.801" r="15.814"/><circle cx="90.792" cy="26.471" r="15.813"/><path d="M107.904 39.469c0-8.733 7.08-15.813 15.812-15.813 8.734 0 15.814 7.08 15.814 15.813 0 8.73-7.08 15.811-15.814 15.811-8.732 0-15.812-7.08-15.812-15.811z"/><circle cx="100.54" cy="44.452" r="11.047"/><circle cx="149.277" cy="25.39" r="6.282"/><circle cx="123.068" cy="26.688" r="23.395"/></g><g fill="#CC9D59"><path d="M278.97 159.136c2.719 8.299-1.802 17.234-10.098 19.958-8.298 2.721-17.232-1.8-19.952-10.099-2.723-8.297 1.794-17.23 10.094-19.953 8.297-2.722 17.229 1.799 19.956 10.094zM339.117 157.642c2.724 8.299-1.8 17.231-10.096 19.955-8.294 2.723-17.231-1.799-19.953-10.096-2.723-8.297 1.798-17.231 10.095-19.953 8.3-2.723 17.233 1.797 19.954 10.094zM303.78 155.559c2.727 8.297-1.797 17.229-10.094 19.952-8.298 2.723-17.23-1.797-19.956-10.096-2.719-8.297 1.8-17.23 10.099-19.953 8.296-2.723 17.229 1.798 19.951 10.097zM319.723 145.085c1.899 5.795-1.255 12.037-7.053 13.939-5.798 1.901-12.038-1.257-13.938-7.054-1.904-5.797 1.251-12.037 7.051-13.941 5.794-1.899 12.038 1.258 13.94 7.056zM274.83 179.875c1.081 3.294-.717 6.843-4.015 7.926-3.299 1.08-6.847-.714-7.925-4.011-1.084-3.297.713-6.845 4.01-7.927 3.297-1.081 6.848.714 7.93 4.012z"/><circle cx="293.356" cy="172.427" r="23.393"/></g><path fill="#523A18" d="M41.766 166.935v-64.87c0-21.339 4.989-36.757 14.974-46.256 9.983-9.499 23.865-14.248 41.65-14.248 17.705 0 31.567 4.771 41.589 14.308 10.022 9.54 15.037 24.936 15.037 46.196v64.87c0 14.307-2.346 25.949-7.034 34.92-4.69 8.974-11.256 15.479-19.703 19.521-8.448 4.043-18.412 6.063-29.89 6.063-17.785 0-31.667-4.789-41.65-14.367-9.985-9.581-14.973-24.958-14.973-46.137zm34.316-69.282v73.696c0 6.455.884 11.56 2.659 15.31 1.773 3.753 4.271 6.395 7.496 7.929 3.225 1.531 7.254 2.297 12.093 2.297 7.417 0 12.999-1.876 16.748-5.629 3.748-3.75 5.623-10.383 5.623-19.906v-73.697c0-9.521-1.875-16.157-5.623-19.909-3.749-3.752-9.331-5.628-16.748-5.628-4.839 0-8.869.769-12.093 2.3-3.225 1.535-5.723 4.177-7.496 7.927-1.776 3.752-2.659 8.856-2.659 15.31z"/><path fill="#806627" d="M40.774 165.722v-64.868c0-21.341 4.987-36.758 14.973-46.259 9.982-9.496 23.866-14.246 41.65-14.246 17.703 0 31.565 4.771 41.59 14.307 10.021 9.541 15.032 24.938 15.032 46.198v64.868c0 14.31-2.344 25.947-7.031 34.919-4.689 8.973-11.259 15.483-19.703 19.523-8.448 4.04-18.411 6.063-29.889 6.063-17.784 0-31.668-4.791-41.65-14.367-9.984-9.578-14.972-24.957-14.972-46.138zm34.313-69.281v73.697c0 6.454.889 11.557 2.659 15.307 1.775 3.752 4.272 6.397 7.498 7.93 3.225 1.533 7.252 2.297 12.093 2.297 7.415 0 12.998-1.876 16.748-5.626 3.748-3.752 5.623-10.388 5.623-19.908v-73.697c0-9.522-1.875-16.16-5.623-19.911-3.75-3.75-9.333-5.625-16.748-5.625-4.84 0-8.868.767-12.093 2.298-3.226 1.534-5.723 4.177-7.498 7.928-1.77 3.753-2.659 8.856-2.659 15.31z"/><path fill="#241410" d="M38.458 163.408v-64.868c0-21.343 4.99-36.761 14.974-46.26 9.984-9.498 23.866-14.245 41.652-14.245 17.701 0 31.564 4.77 41.588 14.308 10.021 9.538 15.034 24.938 15.034 46.197v64.868c0 14.309-2.345 25.945-7.033 34.921-4.688 8.973-11.256 15.479-19.703 19.519-8.448 4.044-18.411 6.064-29.886 6.064-17.787 0-31.668-4.789-41.652-14.369-9.984-9.577-14.974-24.955-14.974-46.135zm34.314-69.283v73.696c0 6.455.887 11.557 2.661 15.312 1.774 3.75 4.271 6.394 7.496 7.925 3.224 1.534 7.254 2.303 12.094 2.303 7.414 0 12.996-1.877 16.746-5.631 3.748-3.752 5.623-10.387 5.623-19.909v-73.696c0-9.52-1.875-16.157-5.623-19.907-3.75-3.752-9.333-5.629-16.746-5.629-4.84 0-8.87.769-12.094 2.3-3.225 1.534-5.722 4.178-7.496 7.928-1.774 3.752-2.661 8.854-2.661 15.308z"/><path fill="#523A18" d="M202.09 225.013h-31.285v-181.026h37.589l47.652 107.307h.485v-107.307h31.283v181.025h-32.737l-52.381-117.007h-.606v117.008z"/><path fill="#806627" d="M201.098 223.802h-31.284v-181.028h37.59l47.65 107.306h.481v-107.306h31.284v181.027h-32.735l-52.381-117.007h-.606v117.008z"/><path fill="#241410" d="M198.782 221.486h-31.282v-181.027h37.588l47.648 107.308h.491v-107.308h31.275v181.027h-32.732l-52.383-117.006h-.604v117.006z"/><path fill="#AC8028" d="M29.567 240.709h1.641v22.427h-1.641z"/><g fill="#806627"><path d="M149.917 243.082v11.612c0 .232.052.408.157.528.103.12.292.216.562.293v.354h-4.781v-.354c.27-.077.458-.173.562-.293.103-.12.156-.296.156-.528v-11.612h-4.758c-.225 0-.397.05-.517.153-.117.104-.216.289-.292.562h-.357v-3.957h.357c.084.271.181.459.299.561.114.104.284.156.509.156h12.849c.231 0 .406-.052.528-.156.118-.102.217-.289.291-.561h.358v3.957h-.358c-.074-.272-.173-.458-.291-.562-.122-.104-.297-.153-.528-.153h-4.746zM170.258 249.184h-8.83v5.521c0 .227.055.398.164.521.106.125.292.222.558.29v.354h-4.781v-.354c.268-.077.455-.173.56-.293.103-.12.155-.292.155-.519v-12.981c0-.225-.053-.398-.155-.516-.105-.12-.292-.217-.56-.291v-.359h4.781v.359c-.271.065-.457.162-.563.286-.106.122-.158.296-.158.521v4.938h8.83v-4.938c0-.225-.051-.398-.154-.521-.106-.124-.293-.221-.562-.286v-.359h4.778v.359c-.268.074-.455.171-.561.291-.103.117-.155.291-.155.516v12.981c0 .227.053.398.155.519.106.12.292.216.561.293v.354h-4.778v-.354c.261-.068.447-.165.555-.29.109-.123.161-.295.161-.521v-5.521zM180.225 249.151v4.195h9.854c.224 0 .393-.051.518-.157.118-.104.216-.292.288-.56h.359v3.961h-.359c-.072-.271-.17-.456-.288-.561-.125-.106-.294-.161-.518-.161h-13.916v-.354c.271-.077.455-.173.562-.293s.155-.296.155-.528v-12.961c0-.23-.049-.409-.155-.526-.106-.12-.29-.217-.562-.291v-.359h13.647c.222 0 .396-.054.513-.16.122-.106.22-.293.292-.557h.36v3.957h-.36c-.072-.262-.17-.452-.292-.557-.117-.105-.291-.158-.513-.158h-9.585v3.635h6.218c.225 0 .396-.053.516-.156.119-.107.215-.293.293-.563h.355v3.872h-.355c-.078-.261-.174-.447-.293-.557-.12-.106-.291-.161-.516-.161h-6.218z"/></g><path fill="none" stroke="#AC8028" stroke-width=".5" d="M29.594 248.711h100.497M29.594 253.017h100.497M29.594 257.326h100.497"/><path fill="#AC8028" d="M128.835 240.709h1.642v22.427h-1.642zM95.404 240.709h1.642v22.427h-1.642zM61.973 240.709h1.642v22.427h-1.642z"/><path fill="none" stroke="#AC8028" stroke-width=".5" d="M201.877 248.711h100.499M201.877 253.017l100.499.001M201.877 257.326h100.499"/><path fill="#AC8028" d="M201.851 240.709h1.641v22.427h-1.641zM267.688 240.709h1.637v22.427h-1.637zM301.118 240.709h1.641v22.427h-1.641zM234.256 240.709h1.642v22.427h-1.642z"/><path fill="none" stroke="#AC8028" stroke-width=".5" d="M29.594 244.4l100.497.001M201.877 244.401h100.499"/><path fill="#523A18" d="M299.367 303.97l10.697 42.366h-276.686l11.012-37.75-11.977-41.774h276.732z"/><path fill="#806627" d="M298.189 303.933l10.593 41.378h-275.923l10.938-38.719-11.895-41.169 276.88.001z"/><path fill="#241410" d="M294.651 302.768l10.593 39.671h-275.925l10.941-38.719-11.229-41.165h276.213z"/><g fill="#060607"><path d="M127.308 292.864c0-.524-.111-1.059-.336-1.602-.223-.542-.542-.967-.955-1.281-.144.034-.428.07-.846.11-.418.038-.912.073-1.485.108l-1.837.102-1.945.09-1.784.076c-.551.022-1.007.04-1.365.049.902-1.574 1.683-2.968 2.335-4.187.655-1.218 1.187-2.295 1.599-3.239.415-.944.719-1.771.915-2.479.194-.71.293-1.338.293-1.885 0-.714-.111-1.425-.335-2.137-.224-.706-.524-1.378-.904-2.009-.381-.632-.828-1.216-1.341-1.759-.513-.542-1.063-1.009-1.648-1.405-.588-.396-1.193-.705-1.818-.928-.625-.225-1.239-.338-1.842-.338-.581 0-1.1.045-1.557.135-.458.09-.866.266-1.224.535-.356.267-.676.646-.954 1.138-.28.494-.53 1.139-.746 1.937-.218.799-.413 1.771-.587 2.924-.171 1.149-.335 2.515-.492 4.103l-.234 2.401c-.089.9-.182 1.809-.276 2.731l-.277 2.646c-.089.842-.167 1.567-.234 2.17-.379.032-.749.176-1.105.425-.358.25-.674.569-.947.956-.273.386-.494.817-.662 1.297s-.252.963-.252 1.44c0 1.072.644 1.642 1.927 1.708-.133.705-.318 1.53-.553 2.479s-.497 1.962-.788 3.042c-.291 1.077-.598 2.188-.929 3.339-.33 1.151-.661 2.281-.996 3.394-.335 1.11-.663 2.172-.981 3.189-.318 1.015-.616 1.932-.896 2.748-.637 1.91-1.184 3.563-1.641 4.967-.459 1.396-.84 2.617-1.148 3.65-.308 1.032-.551 1.903-.736 2.621-.184.712-.327 1.343-.427 1.883-.102.541-.165 1.02-.192 1.443-.027.418-.042.845-.042 1.278 0 1.888.562 3.354 1.684 4.396 1.121 1.046 2.849 1.567 5.182 1.567 1.13 0 2.274-.256 3.434-.77 1.161-.514 2.303-1.229 3.425-2.146 1.122-.915 2.212-1.997 3.274-3.248 1.061-1.249 2.06-2.613 2.998-4.087.938-1.475 1.793-3.032 2.571-4.674.776-1.64 1.444-3.305 2.002-4.991.557-1.686.993-3.367 1.307-5.043.309-1.673.469-3.28.469-4.821 0-1.193-.107-2.302-.321-3.324-.211-1.022-.511-1.941-.895-2.763-.386-.822-.849-1.534-1.391-2.138-.542-.602-1.136-1.082-1.784-1.44.692.067 1.388.118 2.086.152.696.032 1.443.051 2.234.051.572 0 1.096-.12 1.576-.354.48-.231.898-.561 1.255-.972.357-.41.636-.898.839-1.457.2-.552.303-1.155.303-1.803zm-11.089 18.39c-.168 1.047-.393 2.117-.677 3.199-.286 1.081-.621 2.163-1.007 3.237-.385 1.08-.795 2.11-1.238 3.093-.441.984-.895 1.896-1.357 2.737-.464.844-.92 1.579-1.375 2.202-.452.628-.881 1.114-1.288 1.468-.409.353-.773.527-1.097.527-.247 0-.444-.058-.595-.169-.151-.109-.226-.285-.226-.519l.04-.294.094-.326c.233-.582.535-1.377.903-2.385.37-1.012.77-2.171 1.198-3.477.431-1.306.875-2.729 1.333-4.266.457-1.53.905-3.122 1.34-4.762.435-1.644.841-3.303 1.214-4.981.374-1.681.682-3.316.93-4.9.625.515 1.125 1.345 1.498 2.496.374 1.148.562 2.532.562 4.154 0 .927-.084 1.915-.252 2.966zM236.551 303.298c-.122-.269-.288-.505-.511-.712-.223-.205-.499-.38-.822-.519-.322-.142-.692-.216-1.102-.227-.974 1.496-2.067 2.855-3.278 4.079-1.21 1.222-2.459 2.269-3.751 3.139-1.291.87-2.586 1.546-3.884 2.018-1.301.476-2.532.711-3.698.711-.664 0-1.214-.104-1.647-.316-.427-.213-.765-.519-1.004-.921-.239-.403-.409-.902-.504-1.5-.092-.594-.139-1.279-.139-2.052 2.343-.536 4.33-1.208 5.95-2.016 1.624-.812 2.942-1.741 3.955-2.799 1.015-1.057 1.74-2.214 2.183-3.484.449-1.266.672-2.62.672-4.062 0-2.4-.632-4.177-1.89-5.331-1.265-1.158-3.075-1.734-5.445-1.734-1.114 0-2.263.274-3.444.829-1.174.552-2.323 1.316-3.441 2.292-1.115.978-2.172 2.13-3.171 3.458-.998 1.33-1.874 2.771-2.62 4.322-.753 1.55-1.341 3.181-1.777 4.881-.175.688-.305 1.375-.41 2.065l-.378.431c-1.095 1.191-2.204 2.207-3.331 3.058-1.129.85-2.247 1.508-3.359 1.975-1.111.471-2.15.705-3.104.705-.676 0-1.24-.099-1.714-.296-.462-.193-.849-.503-1.145-.926-.297-.424-.51-.972-.643-1.642-.137-.671-.203-1.473-.203-2.414 0-1.729.134-3.291.393-4.688.263-1.396.583-2.586.965-3.567.381-.985.786-1.738 1.212-2.27.433-.533.808-.797 1.135-.797.21 0 .412.118.599.353.189.234.286.598.286 1.09 0 .443-.053 1.042-.156 1.792-.109.747-.286 1.593-.529 2.529.276.411.65.733 1.111.964.464.227 1.076.342 1.838.342.825 0 1.62-.207 2.383-.62.762-.414 1.443-.977 2.037-1.685.592-.709 1.068-1.542 1.425-2.504.356-.959.538-1.986.538-3.081 0-1.051-.148-1.985-.438-2.813-.292-.827-.729-1.524-1.315-2.096-.588-.567-1.313-1.002-2.186-1.302-.869-.303-1.895-.456-3.065-.456-1.216 0-2.453.276-3.71.821-1.257.547-2.471 1.308-3.642 2.279-1.175.97-2.271 2.118-3.292 3.443-1.018 1.321-1.914 2.762-2.673 4.319s-1.357 3.195-1.8 4.913c-.198.781-.348 1.566-.457 2.354l-.533.63c-1.043 1.191-2.005 2.199-2.895 3.016-.892.815-1.671 1.435-2.354 1.867-.68.429-1.193.642-1.538.642-.314 0-.554-.072-.72-.225-.171-.151-.253-.414-.253-.793 0-.291.055-.659.169-1.106.111-.448.26-.942.451-1.487.189-.538.404-1.114.643-1.723.242-.606.486-1.223.739-1.84.252-.62.502-1.226.753-1.819.25-.591.474-1.14.678-1.641.728-1.644 1.24-3.077 1.542-4.312.3-1.235.454-2.309.454-3.227 0-.668-.1-1.29-.298-1.866-.195-.576-.488-1.078-.887-1.507-.396-.431-.89-.765-1.479-1.006-.592-.24-1.286-.357-2.078-.357-.75 0-1.601.204-2.555.617-.953.412-1.979 1.085-3.073 2.01-1.096.929-2.242 2.137-3.443 3.628-1.199 1.491-2.428 3.317-3.675 5.481.457-.836.858-1.74 1.205-2.72.348-.975.632-1.92.854-2.838.224-.916.392-1.758.501-2.53.112-.769.17-1.365.17-1.792 0-.514-.045-.95-.134-1.313-.088-.362-.245-.664-.461-.897-.22-.232-.517-.403-.896-.51-.38-.106-.866-.158-1.457-.158-.705 0-1.448.182-2.236.551-.787.369-1.565.858-2.335 1.466-.772.608-1.505 1.303-2.204 2.085-.698.782-1.314 1.589-1.843 2.422-.53.83-.953 1.658-1.262 2.478-.315.818-.471 1.566-.471 2.236 0 .693.044 1.411.134 2.16.07.579.197 1.127.38 1.646-.781 1.084-1.629 2.092-2.549 3.02-1.211 1.222-2.46 2.269-3.75 3.139-1.291.87-2.586 1.545-3.887 2.018-1.3.476-2.532.711-3.693.711-.668 0-1.218-.104-1.651-.316-.428-.213-.763-.519-1.003-.921-.24-.403-.407-.902-.503-1.5-.094-.594-.141-1.279-.141-2.052 2.344-.536 4.329-1.208 5.954-2.016 1.622-.812 2.941-1.741 3.953-2.799 1.011-1.057 1.74-2.214 2.184-3.484.448-1.266.671-2.62.671-4.062 0-2.4-.63-4.177-1.894-5.332-1.262-1.157-3.077-1.733-5.441-1.733-1.116 0-2.265.274-3.442.829-1.177.552-2.326 1.316-3.443 2.292-1.116.978-2.172 2.13-3.173 3.458-.999 1.33-1.872 2.771-2.621 4.322-.747 1.55-1.34 3.181-1.776 4.881-.434 1.705-.652 3.421-.652 5.151 0 1.854.196 3.498.588 4.933.39 1.434.99 2.645 1.799 3.634.807.989 1.832 1.74 3.064 2.254 1.235.513 2.691.772 4.366.772 1.115 0 2.261-.16 3.441-.48 1.177-.317 2.347-.751 3.509-1.305 1.159-.555 2.299-1.198 3.416-1.937 1.117-.737 2.171-1.525 3.166-2.369.701-.596 1.351-1.211 1.976-1.834.044.938.215 1.838.528 2.698.338.937.81 1.762 1.406 2.469.598.71 1.303 1.276 2.12 1.698.813.426 1.7.638 2.663.638.39 0 .721-.013.997-.042.271-.028.511-.073.712-.142.2-.065.382-.161.544-.277.162-.116.327-.26.494-.427.056-1.16.123-2.249.201-3.258.077-1.008.178-2.017.301-3.023.124-1.004.271-2.052.445-3.14.173-1.089.381-2.29.628-3.61.669-.926 1.306-1.692 1.91-2.301.603-.608 1.151-1.095 1.641-1.458.49-.362.91-.616 1.255-.76.347-.146.596-.22.754-.22.546 0 .82.274.82.821 0 .257-.085.648-.259 1.171-.171.525-.39 1.142-.643 1.85l-.846 2.331c-.309.842-.591 1.703-.849 2.579-.254.874-.471 1.746-.643 2.602-.174.862-.26 1.671-.26 2.432 0 .948.092 1.772.276 2.472.186.694.49 1.273.915 1.733.424.455.982.799 1.674 1.021.692.225 1.541.334 2.547.334.79 0 1.654-.168 2.586-.502.933-.335 1.89-.793 2.875-1.373.981-.582 1.973-1.253 2.975-2.02.995-.765 1.957-1.577 2.878-2.437.508-.474.995-.956 1.466-1.443.057.288.114.575.184.849.364 1.434.943 2.645 1.729 3.634.779.989 1.773 1.74 2.989 2.254 1.208.513 2.659.772 4.343.772 1.039 0 2.109-.167 3.209-.495 1.097-.332 2.191-.773 3.281-1.332 1.087-.558 2.155-1.212 3.208-1.959 1.049-.751 2.043-1.549 2.981-2.398.451-.405.882-.818 1.297-1.237.056.257.108.517.174.762.393 1.434.992 2.645 1.801 3.634.813.989 1.835 1.74 3.069 2.254 1.231.513 2.686.772 4.363.772 1.117 0 2.259-.16 3.44-.48 1.179-.317 2.347-.751 3.509-1.305 1.16-.555 2.3-1.198 3.414-1.937 1.118-.737 2.173-1.525 3.169-2.369.994-.843 1.91-1.714 2.749-2.613.839-.897 1.557-1.779 2.166-2.646.605-.863 1.081-1.697 1.424-2.495.34-.799.513-1.516.513-2.153-.01-.268-.073-.535-.188-.802zm-19.346-4.521c.261-.896.553-1.638.88-2.23.323-.59.653-1.034.979-1.33.329-.296.612-.444.85-.444.412 0 .741.198.994.595.253.396.374.957.374 1.684 0 .513-.059 1.021-.182 1.524-.122.501-.358.969-.705 1.405-.347.435-.818.824-1.421 1.165-.605.341-1.386.594-2.347.763.123-1.193.319-2.239.578-3.132zm-80.243 0c.264-.896.555-1.638.879-2.23.324-.59.65-1.034.979-1.33.331-.296.611-.444.848-.444.413 0 .745.198.997.595.25.396.376.957.376 1.684 0 .513-.063 1.021-.185 1.524-.123.501-.359.969-.705 1.405-.345.435-.82.824-1.422 1.165-.604.341-1.387.594-2.349.763.128-1.193.32-2.239.582-3.132z"/></g><radialGradient id="a" cx="58.906" cy="195.8" r="171.336" gradientTransform="matrix(.616 0 0 .616 109.105 109.74)" gradientUnits="userSpaceOnUse"><stop offset="0" stop-color="#CC9D59"/><stop offset="1" stop-color="#AC8028"/></radialGradient><path fill="url(#a)" d="M127.102 291.428c0-.525-.11-1.059-.335-1.602-.224-.539-.542-.967-.953-1.281-.146.034-.429.07-.847.108-.417.042-.912.076-1.482.111-.57.034-1.185.069-1.843.1l-1.941.092c-.637.026-1.233.058-1.785.075-.551.025-1.007.042-1.365.052.903-1.576 1.683-2.972 2.337-4.187.653-1.219 1.185-2.297 1.599-3.245.415-.942.718-1.764.912-2.476.197-.71.294-1.338.294-1.885 0-.715-.112-1.427-.335-2.135-.224-.71-.525-1.379-.905-2.012-.38-.631-.824-1.214-1.339-1.756-.514-.543-1.063-1.012-1.649-1.407-.588-.397-1.191-.707-1.819-.93-.623-.224-1.239-.337-1.84-.337-.583 0-1.103.047-1.559.134-.458.089-.865.271-1.223.539-.357.266-.674.645-.955 1.137-.276.49-.525 1.136-.746 1.935-.217.799-.413 1.774-.585 2.925-.173 1.147-.338 2.516-.496 4.101-.066.705-.143 1.506-.233 2.402-.091.9-.18 1.812-.276 2.734l-.275 2.645-.236 2.17c-.38.03-.749.173-1.106.423-.355.254-.672.572-.946.958-.273.385-.493.818-.662 1.297-.168.48-.251.961-.251 1.442 0 1.072.643 1.641 1.926 1.708-.132.704-.317 1.531-.554 2.476-.234.951-.497 1.963-.786 3.042-.29 1.079-.601 2.189-.931 3.342-.329 1.149-.661 2.279-.995 3.392-.334 1.111-.662 2.174-.981 3.189-.317 1.018-.616 1.932-.895 2.747-.638 1.911-1.183 3.566-1.642 4.968-.458 1.399-.84 2.617-1.148 3.651-.306 1.029-.551 1.904-.736 2.62-.184.716-.326 1.343-.427 1.884-.102.543-.165 1.021-.193 1.441-.027.418-.041.848-.041 1.281 0 1.885.559 3.354 1.683 4.395 1.123 1.045 2.849 1.569 5.184 1.569 1.127 0 2.271-.26 3.433-.772 1.161-.513 2.303-1.229 3.427-2.143 1.12-.917 2.212-2.001 3.274-3.251 1.06-1.249 2.059-2.612 2.997-4.088.938-1.472 1.794-3.032 2.57-4.672.777-1.642 1.443-3.306 2.001-4.99.558-1.687.995-3.367 1.308-5.042.311-1.676.469-3.281.469-4.822 0-1.196-.105-2.305-.32-3.326-.211-1.02-.51-1.943-.896-2.763-.385-.82-.849-1.533-1.39-2.136-.541-.602-1.136-1.084-1.783-1.44.692.066 1.387.117 2.084.152.699.033 1.443.05 2.235.05.57 0 1.093-.119 1.576-.355.479-.232.897-.559 1.256-.97.357-.414.636-.898.838-1.456.2-.558.302-1.161.302-1.808zm-11.089 18.388c-.167 1.05-.391 2.115-.677 3.199-.283 1.085-.621 2.163-1.004 3.241-.385 1.079-.799 2.11-1.241 3.09-.441.982-.892 1.896-1.356 2.737-.462.847-.921 1.578-1.375 2.202-.451.625-.881 1.116-1.29 1.466-.408.354-.773.527-1.097.527-.245 0-.44-.054-.595-.165-.15-.112-.225-.286-.225-.52l.042-.292.093-.326c.234-.585.537-1.378.905-2.388.368-1.012.767-2.168 1.196-3.476.43-1.307.875-2.727 1.332-4.264.458-1.534.904-3.122 1.339-4.763.437-1.644.84-3.304 1.215-4.982.375-1.681.683-3.314.929-4.9.627.513 1.124 1.346 1.501 2.494.372 1.151.559 2.536.559 4.155.001.929-.083 1.918-.251 2.965z"/><radialGradient id="b" cx="58.907" cy="195.798" r="171.336" gradientTransform="matrix(.616 0 0 .616 109.105 109.74)" gradientUnits="userSpaceOnUse"><stop offset="0" stop-color="#CC9D59"/><stop offset="1" stop-color="#AC8028"/></radialGradient><path fill="url(#b)" d="M236.346 301.862c-.119-.269-.288-.506-.512-.711-.224-.208-.496-.382-.818-.521-.326-.139-.694-.216-1.106-.227-.975 1.498-2.065 2.857-3.273 4.078-1.216 1.225-2.464 2.271-3.755 3.142-1.287.869-2.585 1.54-3.884 2.018-1.305.474-2.529.713-3.694.713-.668 0-1.218-.105-1.646-.321-.43-.209-.766-.518-1.008-.922-.242-.399-.408-.898-.504-1.497-.094-.596-.139-1.28-.139-2.05 2.342-.538 4.329-1.208 5.957-2.021 1.62-.809 2.938-1.739 3.949-2.796 1.009-1.056 1.737-2.215 2.184-3.484.445-1.266.673-2.619.673-4.061 0-2.4-.633-4.18-1.894-5.333-1.267-1.157-3.074-1.735-5.441-1.735-1.118 0-2.267.277-3.446.829-1.173.552-2.325 1.316-3.444 2.296-1.114.975-2.173 2.128-3.17 3.458-.999 1.328-1.874 2.768-2.617 4.319-.755 1.552-1.344 3.181-1.78 4.883-.176.687-.306 1.377-.41 2.068l-.375.428c-1.098 1.188-2.206 2.207-3.336 3.055-1.127.852-2.245 1.511-3.356 1.977-1.108.472-2.147.704-3.105.704-.669 0-1.238-.099-1.711-.292-.47-.195-.853-.504-1.145-.93-.297-.424-.509-.97-.646-1.642-.132-.671-.198-1.471-.198-2.413 0-1.727.13-3.292.389-4.689.267-1.396.582-2.585.966-3.564.376-.985.784-1.741 1.214-2.271s.809-.794 1.132-.794c.209 0 .413.116.604.349.188.236.281.599.281 1.088 0 .448-.054 1.046-.156 1.795-.106.75-.281 1.591-.528 2.528.278.412.647.733 1.111.965.465.229 1.074.342 1.833.342.829 0 1.625-.207 2.39-.62.763-.412 1.441-.974 2.033-1.684.593-.709 1.07-1.541 1.425-2.503.356-.958.536-1.987.536-3.082 0-1.048-.146-1.987-.433-2.813-.293-.828-.729-1.523-1.313-2.096-.591-.567-1.32-1.005-2.191-1.306-.868-.302-1.89-.452-3.063-.452-1.217 0-2.455.274-3.714.822-1.251.547-2.466 1.305-3.637 2.276-1.175.972-2.273 2.118-3.295 3.442-1.022 1.324-1.911 2.762-2.669 4.32-.763 1.558-1.362 3.197-1.802 4.914-.198.781-.347 1.566-.457 2.354l-.53.629c-1.045 1.195-2.007 2.198-2.896 3.014-.892.816-1.673 1.438-2.356 1.869-.68.428-1.194.646-1.538.646-.314 0-.552-.075-.721-.228-.168-.149-.252-.415-.252-.793 0-.292.057-.661.167-1.108.109-.445.264-.941.453-1.481.188-.541.404-1.118.645-1.725.24-.609.484-1.223.736-1.844.251-.618.501-1.224.754-1.815.252-.594.479-1.139.678-1.645.726-1.64 1.238-3.077 1.545-4.311.301-1.233.449-2.31.449-3.225 0-.667-.1-1.295-.296-1.865-.193-.576-.489-1.079-.885-1.508-.396-.433-.891-.764-1.483-1.009-.59-.236-1.283-.356-2.076-.356-.75 0-1.601.206-2.555.619-.954.412-1.979 1.081-3.073 2.01-1.095.927-2.242 2.134-3.442 3.625-1.202 1.491-2.426 3.317-3.676 5.486.456-.838.86-1.747 1.205-2.725.346-.975.631-1.922.854-2.838.224-.914.39-1.758.504-2.528.11-.771.168-1.366.168-1.791 0-.515-.046-.953-.136-1.315-.09-.363-.243-.661-.461-.896-.218-.231-.515-.405-.893-.512-.381-.104-.87-.156-1.458-.156-.704 0-1.449.183-2.238.551-.785.368-1.564.857-2.335 1.467-.771.608-1.504 1.304-2.202 2.083-.698.785-1.313 1.591-1.843 2.418-.53.837-.953 1.662-1.262 2.481-.314.82-.47 1.566-.47 2.239 0 .689.043 1.41.133 2.158.068.58.197 1.128.379 1.646-.78 1.085-1.628 2.092-2.547 3.018-1.213 1.225-2.464 2.271-3.751 3.142-1.29.869-2.586 1.54-3.887 2.018-1.302.474-2.533.713-3.696.713-.667 0-1.216-.105-1.647-.321-.43-.209-.766-.518-1.003-.922-.243-.399-.409-.898-.503-1.497-.096-.596-.143-1.28-.143-2.05 2.344-.538 4.33-1.208 5.953-2.021 1.625-.809 2.942-1.739 3.954-2.796 1.011-1.056 1.74-2.215 2.185-3.484.447-1.266.671-2.619.671-4.061 0-2.4-.63-4.18-1.893-5.333-1.261-1.157-3.075-1.735-5.442-1.735-1.117 0-2.265.277-3.443.829-1.179.552-2.325 1.316-3.441 2.296-1.117.975-2.174 2.128-3.175 3.458-.998 1.328-1.874 2.768-2.621 4.319-.748 1.552-1.338 3.181-1.775 4.883-.435 1.703-.653 3.421-.653 5.151 0 1.853.194 3.499.588 4.931.389 1.437.99 2.647 1.798 3.636.81.989 1.833 1.74 3.065 2.253 1.235.512 2.692.771 4.364.771 1.119 0 2.263-.159 3.441-.478 1.179-.317 2.35-.754 3.508-1.308 1.163-.554 2.302-1.198 3.419-1.933 1.115-.737 2.17-1.528 3.166-2.37.702-.596 1.351-1.211 1.975-1.833.044.935.215 1.834.527 2.696.34.938.811 1.759 1.408 2.468.599.71 1.303 1.277 2.12 1.701.815.426 1.702.637 2.665.637.39 0 .72-.014.994-.041.274-.029.511-.077.712-.143.202-.067.381-.161.546-.277.16-.118.325-.26.493-.427.056-1.16.124-2.249.202-3.258.078-1.012.178-2.019.3-3.024.124-1.004.271-2.051.444-3.142.174-1.086.383-2.288.628-3.605.671-.928 1.307-1.697 1.912-2.306.6-.607 1.147-1.094 1.639-1.456.492-.363.912-.618 1.257-.762.348-.145.598-.219.755-.219.546 0 .82.275.82.821 0 .257-.087.648-.261 1.173-.171.525-.388 1.142-.642 1.851-.259.708-.541 1.484-.846 2.33-.309.841-.591 1.7-.849 2.578-.254.877-.469 1.743-.644 2.604-.173.858-.261 1.669-.261 2.425 0 .952.094 1.778.275 2.476.187.697.491 1.271.916 1.731.424.459.981.799 1.674 1.021.692.224 1.54.334 2.547.334.792 0 1.654-.166 2.587-.5.93-.334 1.89-.793 2.871-1.375.982-.58 1.975-1.253 2.974-2.018.995-.765 1.958-1.577 2.88-2.438.509-.474.996-.954 1.467-1.442.058.289.113.575.184.848.369 1.437.942 2.647 1.728 3.636.779.989 1.776 1.74 2.988 2.253 1.212.512 2.659.771 4.348.771 1.034 0 2.105-.164 3.208-.493 1.099-.33 2.193-.775 3.276-1.33 1.09-.561 2.161-1.212 3.209-1.962 1.053-.749 2.045-1.547 2.982-2.396.452-.406.883-.819 1.3-1.24.056.258.108.518.174.763.391 1.437.993 2.647 1.802 3.636.809.989 1.83 1.74 3.064 2.253 1.233.512 2.689.771 4.363.771 1.115 0 2.263-.159 3.441-.478 1.178-.317 2.35-.754 3.509-1.308 1.16-.554 2.299-1.198 3.417-1.933 1.115-.737 2.173-1.528 3.165-2.37.995-.843 1.91-1.714 2.748-2.613.837-.897 1.563-1.784 2.168-2.646.608-.865 1.085-1.697 1.424-2.495.34-.8.514-1.519.514-2.155-.011-.265-.074-.531-.188-.801zm-19.346-4.524c.262-.894.556-1.634.879-2.224.325-.595.648-1.039.979-1.335.329-.294.615-.442.848-.442.416 0 .746.198.995.596.251.396.377.956.377 1.683 0 .513-.061 1.023-.183 1.524-.124.502-.356.969-.703 1.407-.346.434-.818.824-1.422 1.163-.604.339-1.387.592-2.346.762.12-1.196.316-2.238.576-3.134zm-80.243 0c.262-.894.556-1.634.879-2.224.324-.595.649-1.039.98-1.335.328-.294.609-.442.845-.442.413 0 .747.198.997.596.251.396.377.956.377 1.683 0 .513-.062 1.023-.187 1.524-.121.502-.356.969-.702 1.407-.347.434-.82.824-1.424 1.163-.602.339-1.385.592-2.346.762.127-1.196.319-2.238.581-3.134z"/><path fill="none" stroke="#533A18" stroke-miterlimit="10" d="M31.557 349.14h281.809l-10.454-45.43 9.112-35.378" stroke-linecap="round" stroke-linejoin="round" stroke-dasharray="0,1.504"/><g fill="#CC9D59"><path d="M258.471 310.32l11.428 6.535.142-13.309-11.506-6.58zM282.49 297.027l-11.504 6.583.135 13.306 11.43-6.53zM270.43 289.322l-11.398 6.757 11.578 6.647 11.321-6.716-11.501-6.688zm-2.929 5.065l.855-.518 5.296 3.191-.855.485-5.296-3.158z"/></g><path fill="#806627" d="M70.039 61.256l9.646 11.757s4.266-4.424 15.338-4.424c10.645 0 15.355 4.411 15.355 4.411l11.769-11.692s-9.857-8.419-24.026-8.728c-19.197-.417-28.082 8.676-28.082 8.676z" opacity=".22"/><path fill="#AC8028" d="M65.983 197.56l11.705-10.739s4.12 6.535 16.903 6.535c13.515 0 17.98-6.526 17.98-6.526l13.478 10.73s-10.242 11.345-27.928 11.345c-23.513-.001-32.138-11.345-32.138-11.345zM167.5 221.486h31.282l-15.131-15.327zM205.088 40.459h-37.588l16.093 14.379h7.188zM251.77 221.486l32.863-.004-15.247-14.685-5.544-.099zM284.503 40.459h-31.275l16.03 14.841z" opacity=".28"/><path fill="#CC9D59" d="M269.258 55.3l-16.03-14.841v107.309l16.158 59.029zM183.548 54.838l-16.031-14.379-.017 181.027 16.177-15.384zM190.781 54.838l8.606 49.642 52.383 117.006 12.072-14.788z" opacity=".33"/><path fill="#806627" d="M253.228 147.768h-.492l10.946 59.032h5.704zM199.387 104.48l-8.606-49.686h-7.12l15.238 49.74z" opacity=".33"/><path fill="#CC9D59" d="M54.388 210.41l12.266-12.266c-.485-.411-.917-.798-1.286-1.149-9.395-8.934-8.522-22.719-8.522-29.174l.205-73.696c0-6.454.136-11.8 1.335-15.774 2.464-8.165 8.419-14.99 13.437-18.569 6.101-4.353 16.956-7.202 23.202-7.202 6.951 0 19.205 1.714 27.126 8.347l11.333-11.334c-9.706-7.695-22.5-11.557-38.399-11.557-17.787 0-31.668 4.748-41.652 14.245-9.984 9.499-14.974 24.917-14.974 46.26v64.868c0 21.18 4.99 36.558 14.974 46.135.31.298.636.578.955.866z" opacity=".33"/><path fill="none" stroke="#fff" stroke-width="1.5" stroke-miterlimit="10" d="M135.297 173.944c0 22.231-17.563 34.91-39.227 34.91-21.665 0-39.226-12.679-39.226-34.91v-84.606c0-22.231 17.561-36.758 39.226-36.758 21.664 0 39.227 14.527 39.227 36.758v84.606zM183.675 206.8l-.082-151.962h7.188l72.901 151.962h5.704l-.161-151.962"/><path fill="#CC9D59" d="M66.265 289.479l11.501 6.687-11.319 6.715-11.584-6.652zM65.873 303.7l-.141 13.306-11.426-6.531.063-13.355zM66.821 303.764l.138 13.303 11.427-6.528-.062-13.358z"/><path fill="#241410" d="M68.629 297.7l.858-.486-5.295-3.193-.859.518z"/></svg>