<?xml version="1.0" encoding="utf-8"?><svg xmlns="http://www.w3.org/2000/svg" width="780.438" height="400" viewBox="0 0 780.438 400"><radialGradient id="a" cx="498.784" cy="149.407" r="175.81" fx="520.177" fy="123.717" gradientTransform="matrix(1.123 -.02 .02 1.123 -53.774 -16.619)" gradientUnits="userSpaceOnUse"><stop offset="0" stop-color="#A8C041"/><stop offset=".402" stop-color="#A3BA40"/><stop offset=".926" stop-color="#94AA3D"/><stop offset="1" stop-color="#91A73C"/></radialGradient><path fill="url(#a)" d="M4.031 187.95s212.944-105.267 392.537-107.838c241.414-3.456 375.526 91.396 382.418 98.429 6.893 7.032-57.199 214.395-376.677 220.056-313.825 5.563-398.278-210.647-398.278-210.647z"/><ellipse cx="213.498" cy="153.309" fill="#80993E" transform="matrix(.915 .404 -.404 .915 80.055 -73.137)" rx="56.394" ry="30.49"/><path fill="#80993E" d="M260.215 192.239c-2.641 5.986-11.021 8.086-18.715 4.687-7.696-3.394-11.793-10.998-9.154-16.982 2.64-5.986 11.021-8.084 18.716-4.688 7.696 3.393 11.794 11 9.153 16.983z"/><path fill="none" stroke="#040303" stroke-width="2.751" d="M211.892 139.097v18.798M251.782 132.679v18.799M182.089 117.547v18.801"/><path fill="#E8E3DC" d="M212.43 84.784c-.519 13.248-11.677 23.566-24.925 23.047-13.248-.518-23.563-11.674-23.046-24.924.518-13.243 11.676-23.562 24.921-23.044 13.25.519 23.567 11.675 23.05 24.921zM279.372 109.599c-.609 15.608-13.615 27.776-29.046 27.172-15.434-.6-27.45-13.748-26.84-29.357.612-15.612 13.615-27.778 29.048-27.172 15.433.601 27.447 13.745 26.838 29.357zM232.203 86.401c-.515 13.249-11.675 23.565-24.922 23.047-13.245-.517-23.564-11.674-23.047-24.921s11.676-23.565 24.922-23.046c13.248.517 23.568 11.677 23.047 24.92zM254.235 84.41c-.359 9.25-8.154 16.462-17.411 16.099-9.253-.362-16.462-8.156-16.099-17.412.363-9.25 8.156-16.462 17.412-16.101 9.254.36 16.462 8.157 16.098 17.414zM249.42 127.623c-.358 9.25-8.154 16.46-17.41 16.099-9.253-.362-16.464-8.156-16.1-17.413.362-9.251 8.156-16.464 17.412-16.099 9.254.358 16.462 8.157 16.098 17.413zM185.021 104.302c-.206 5.26-4.639 9.362-9.9 9.156-5.263-.208-9.365-4.64-9.156-9.9.205-5.262 4.638-9.361 9.901-9.154 5.26.202 9.359 4.637 9.155 9.898zM191.896 118.515c-.204 5.263-4.636 9.36-9.898 9.155-5.265-.206-9.363-4.638-9.157-9.899.207-5.264 4.639-9.362 9.903-9.155 5.26.202 9.358 4.636 9.152 9.899zM222.616 137.772c-.204 5.261-4.638 9.36-9.9 9.157-5.262-.208-9.363-4.641-9.154-9.902.204-5.262 4.639-9.363 9.9-9.155 5.262.205 9.36 4.639 9.154 9.9zM260.672 133.644c-.204 5.263-4.638 9.362-9.899 9.158-5.263-.208-9.363-4.641-9.155-9.901.204-5.262 4.638-9.36 9.901-9.155 5.261.205 9.359 4.637 9.153 9.898zM243.93 106.274c-.763 19.599-17.272 34.865-36.869 34.1-19.599-.767-34.864-17.275-34.098-36.874.764-19.6 17.273-34.864 36.873-34.096 19.596.767 34.863 17.275 34.094 36.87z"/><path fill="#040303" d="M264.808 96.561c6.69 8.832 6.409 20.315-.631 25.647-7.043 5.335-18.178 2.504-24.862-6.322-6.692-8.832-6.409-20.316.635-25.651 7.037-5.335 18.169-2.5 24.858 6.326zM216.363 160.501c.636 1.365.086 1.75-.406 1.84-.512.095-2.255-2.138-2.758-1.904-.274.129.821 2.905.653 3.144-.385.533-1.62.578-2.361-1.015-.869-1.867-1.813-5.154.053-6.023 1.869-.869 3.95 2.092 4.819 3.958zM255.735 153.625c.636 1.363.088 1.747-.405 1.839-.511.095-2.256-2.137-2.758-1.903-.274.127.822 2.903.654 3.14-.384.535-1.621.58-2.36-1.013-.87-1.866-1.816-5.154.052-6.022 1.868-.868 3.95 2.091 4.817 3.959zM186.102 137.808c.635 1.362.084 1.747-.405 1.838-.513.095-2.256-2.137-2.76-1.902-.272.126.824 2.902.655 3.138-.384.536-1.619.582-2.361-1.014-.869-1.864-1.814-5.152.053-6.021 1.867-.868 3.949 2.093 4.818 3.961z"/><circle cx="246.166" cy="101.9" r="4.298" fill="#fff"/><circle cx="254.247" cy="96.915" r="3.783" fill="#fff"/><circle cx="246.291" cy="100.662" r=".945" fill="#040303"/><path fill="#040303" d="M256.641 96.596c0 .52-.424.944-.947.944-.521 0-.945-.425-.945-.944 0-.524.424-.947.945-.947.523 0 .947.423.947.947zM228.677 113.518c-.787-.801-1.27-5.326 1.218-7.775 2.488-2.452 5.167-6.956 5.956-6.158.587.599-.062 5.398-1.466 7.208-.466.604-1.018 1.23-1.642 1.842-2.487 2.449-3.281 5.679-4.066 4.883zM267.836 89.706c-.291-.891-3.455-2.992-6.233-2.097-2.775.896-7.149 1.145-6.861 2.034.217.668 4.024 2.04 5.906 1.699.629-.114 1.306-.28 2.001-.507 2.774-.896 5.473-.239 5.187-1.129z"/><path fill="#DDD7BF" d="M255.563 108.634c2.041-1.043 2.302-1.609 2.663-1.594.899.034.345 4.323-.757 4.882-1.286.653-5.523-1.157-5.259-1.866.217-.58.797-.116 3.353-1.422z"/><path fill="#91A73C" d="M251.205 115.228s-1.164.38-1.329 1.213c-.026.125-.321.615-.321.615l1.355-.505-.696.923s.167.056.479.031c.281-.023.583-.306.583-.306s-.433.445-.496 1.028c-.054.51.177 1.269.214 1.555.04.322.41 1.466.41 1.466l1.002-1.456s.199.49.279.788c.05.186.382.677.382.677l.948-1.338s-.343.67-.23 1.037c.031.092.045.381.045.381l.76-.85s.182.887.215 1.187c.029.262.046 1.057.046 1.057s.85-.725 1.11-.913c.713-.51.679-1.189.679-1.189l1.194 1.858s.366-.554.311-.779c-.194-.778-.232-1.126-.232-1.126l1.065 1.448s.379-.446.353-1.295l-.064-2.023s-2.738.595-5.376-.736c-1.046-.53-2.686-2.748-2.686-2.748z"/><path fill="none" stroke="#808080" stroke-width="1.093" d="M260.843 117.943c-3.376 1.901-7.646.71-9.549-2.665M249.453 111.235c.254 1.937-1.104 3.709-3.041 3.963" stroke-linecap="round"/><ellipse cx="233.434" cy="94.703" fill="#E8E3DC" transform="matrix(.965 .263 -.263 .965 33.081 -58.001)" rx="3.599" ry="3.99"/><path fill="#E8E3DC" d="M238.93 92.37c-.039 1.027-.907 1.83-1.934 1.791-1.029-.043-1.833-.91-1.79-1.939.04-1.028.906-1.828 1.936-1.787 1.025.038 1.827.906 1.788 1.935zM240.749 89.947c-.04 1.028-.906 1.831-1.935 1.79-1.029-.041-1.831-.908-1.791-1.936.04-1.031.906-1.83 1.936-1.788 1.029.037 1.829.905 1.79 1.934zM247.754 88.824c2.417-.283 4.14-2.111 3.844-4.079-.296-1.969-2.496-3.338-4.915-3.05-2.418.283-4.139 2.107-3.844 4.078.295 1.97 2.495 3.335 4.915 3.051zM243.635 89.939c1.491-.84 2.081-2.57 1.316-3.865-.764-1.297-2.595-1.665-4.083-.826-1.493.839-2.08 2.567-1.317 3.865.765 1.295 2.592 1.665 4.084.826z"/><path fill="#9FB53D" d="M617.658 106.342l.921-5.242-3.195 4.668-.011-5.641-3.631 3.989.136-5.182-1.62 1.803-.562-2.209-1.392 4.691-1.077-3.399-1.946 2.757.312-5.551-2.21 4.877-.25-3.524-.128-1.802-1.583 3.72-.437.491-.426-.661.262-1.755.351-2.002-2.567 3.751-.842-4.953-2.465 3.162-.823-4.088-.002.019-.001-.058-2.596 5.257.414-5.663-1.394 4.69-1.077-3.399-1.944 2.757.311-5.551-2.209 4.878-.379-5.328-2.06 4.85.227-3.474-2.439 2.919-.97-5.702-2.069 5.126-1.221-6.053s-1.229 7.707-.701 8.923c.549 1.268 8.577 4.155 11.543 4.99 2.187.616 6.768 2.303 9.678 3.058 2.745.712 6.086 1.212 7.73 1.674 3.047.857 11.139 2.721 12.377 2.024 1.197-.672 3.935-8.291 3.935-8.291l-3.97 4.454z"/><path fill="#6B8E37" d="M514.857 138.088c-.718.683-6.505.8-8.707.739-2.147-.061-8.063-.646-8.648-1.409-.563-.732-1.043-6.148-1.043-6.148l1.854 3.882.526-3.815 1.625 3.688 1.152-2.387.436 2.386.569-3.627 1.162 3.534.663-3.671.734 3.803.845-2.192 1.306 2.113.144-3.407.683 3.896.859-3.994.789 3.525 1.774-3.313.968 3.811 1.363-3.697.272 3.697 1.922-3.685c0 .001-.553 5.614-1.248 6.271zM137.356 165.429c-7.041 1.429-9.729.166-10.314-.597-.564-.733-1.024-5.113-1.024-5.113l1.854 3.882.526-3.815 1.625 3.688 1.152-2.386.437 2.386.567-3.627 1.163 3.535.663-3.672.734 3.804.845-2.193 1.306 2.113 1.259-3.636.006 4.184c-.002-.002-.211 1.328-.799 1.447z"/><path fill="#80993E" d="M498.444 139.688c-7.04 1.431-9.729.167-10.316-.597-.563-.733-1.023-5.112-1.023-5.112l1.855 3.881.526-3.815 1.623 3.688 1.154-2.387.436 2.386.567-3.627 1.162 3.535.663-3.671.733 3.804.845-2.193 1.306 2.114 1.261-3.638.007 4.185s-.211 1.329-.799 1.447z"/><path fill="#6B8E37" d="M175.957 270.465c.97.855 8.52.739 11.39.554 2.797-.178 10.485-1.218 11.213-2.24.701-.982 1.072-8.068 1.072-8.068l-2.236 5.15-.863-4.952-1.948 4.886-1.615-3.059-.457 3.132-.91-4.704-1.35 4.666-1.036-4.758-.781 4.996-1.205-2.821-1.604 2.817-.347-4.437-.71 5.115-1.307-5.169-.865 4.635-2.469-4.238-1.083 5.015-1.953-4.758-.18 4.835-2.68-4.717c.003-.001.987 7.295 1.924 8.12z"/><path fill="#80993E" d="M197.513 276.001c9.249 1.535 12.696-.238 13.425-1.262.702-.982 1.097-6.715 1.097-6.715l-2.237 5.149-.863-4.952-1.947 4.887-1.615-3.06-.457 3.133-.91-4.704-1.35 4.664-1.036-4.758-.78 4.995-1.205-2.821-1.604 2.817-1.812-4.683.188 5.458c-.002.001.334 1.723 1.106 1.852zM389.515 87.13c-7.039 1.429-9.729.165-10.315-.598-.563-.733-1.024-5.113-1.024-5.113l1.853 3.881.528-3.815 1.623 3.688 1.153-2.386.438 2.386.566-3.627 1.162 3.536.663-3.672.734 3.803.845-2.193 1.306 2.113 1.257-3.637.007 4.185c.001.001-.208 1.329-.796 1.449zM475.453 84.984c-5.201 1.057-7.187.124-7.621-.44-.415-.542-.756-3.778-.756-3.778l1.37 2.869.388-2.819 1.202 2.725.851-1.763.32 1.763.42-2.68.858 2.612.491-2.713.541 2.811.625-1.621.964 1.562.931-2.686.005 3.09c0-.002-.153.98-.589 1.068zM396.122 80.923c-3.94.801-5.447.093-5.772-.334-.316-.41-.573-2.861-.573-2.861l1.037 2.173.293-2.136.91 2.064.645-1.335.243 1.335.319-2.029.649 1.977.371-2.056.411 2.13.474-1.228.732 1.183.705-2.036.002 2.341c0 .001-.116.746-.446.812zM421.597 147.355c-3.943.8-5.447.093-5.775-.334-.314-.411-.571-2.862-.571-2.862l1.037 2.173.295-2.137.908 2.065.646-1.335.246 1.335.316-2.03.649 1.979.372-2.055.413 2.129.471-1.228.732 1.183.702-2.036.005 2.342s-.118.743-.446.811z"/><path fill="#836314" d="M480.866 165.188l-10.985.291-2.845-105.949 10.99-.296z"/><path fill="#DDD6BF" d="M452.115 172.803c-.386 0-.732-.274-.813-.667-.09-.447.202-.884.649-.974.298-.064 6.595-1.499 9.943-10.718 6.538-18.021 9.683-88.519 9.713-89.231.021-.458.354-.772.866-.791.457.021.81.407.79.865-.127 2.908-3.187 71.465-9.81 89.723-3.691 10.165-10.871 11.715-11.174 11.777l-.164.016zM452.115 190.51c-.232 0-.462-.099-.625-.288-.3-.346-.263-.867.083-1.167.094-.083 9.38-8.192 12.834-17.712 6.535-18.001 7.193-70.081 7.199-70.604.005-.458.391-.873.836-.821.458.008.827.381.822.839-.026 2.151-.669 52.888-7.301 71.155-3.603 9.932-12.913 18.056-13.307 18.396-.155.136-.348.202-.541.202zM448.937 208.311c-.261 0-.515-.121-.675-.349-.266-.373-.18-.892.193-1.156.105-.073 10.623-7.641 14.752-16.878 7.806-17.463 8.689-62.547 8.698-63 .007-.453.377-.813.826-.813h.016c.459.009.822.387.813.842-.032 1.865-.898 45.879-8.84 63.649-4.318 9.656-14.858 17.233-15.306 17.551-.146.102-.312.154-.477.154zM452.606 216.408c-.421 0-.781-.323-.822-.75-.044-.457.29-.859.744-.904.327-.033 8.044-.899 12.051-9.873 7.801-17.455 7.623-49.204 7.621-49.521-.003-.458.366-.832.822-.837h.007c.453 0 .824.367.828.824.012 1.317.181 32.429-7.768 50.209-4.414 9.889-13.038 10.813-13.404 10.849l-.079.003z"/><path fill="#836314" d="M445.535 167.892l10.974-.625 6.839 119.995-10.974.625z"/><path fill="#040303" d="M433.956 116.779l27.415 43.068-3.608 2.297-27.415-43.068zM437.212 94.9l27.544 44.022-3.627 2.27-27.544-44.022zM490.25 101.895l3.746 2.068-26.86 48.657-3.746-2.068zM492.117 85.514l3.745 2.067-26.854 48.657-3.745-2.067z"/><path fill="#E7E2DC" d="M434.564 48.178c4.566 11.319-.906 24.198-12.224 28.764-11.316 4.568-22.624 12.98-28.762-12.22-2.891-11.856.903-24.189 12.217-28.761 11.321-4.568 24.196.902 28.769 12.217zM433.557 32.91c.254 9.705-7.415 17.777-17.119 18.022-9.711.247-27.354 4.397-21.284-15.03 4.643-14.853 10.421-15.684 20.391-20.117 8.865-3.944 17.767 7.423 18.012 17.125zM511.584 104.867c-1.903 7.382-7.917 12.22-13.419 10.794-5.514-1.422-8.435-8.566-6.524-15.94 1.905-7.384 7.915-12.217 13.424-10.795 5.506 1.418 8.42 8.563 6.519 15.941zM442.104 104.494c.228 8.946-6.838 16.388-15.781 16.617-8.952.224-16.389-6.842-16.615-15.786-.23-8.945 6.838-16.384 15.79-16.612 8.943-.227 16.379 6.839 16.606 15.781zM516.069 30.587c.203 7.933-6.595 6.338-14.529 6.537-7.939.201-14.531-6.068-14.735-14.002-.204-7.934.621-19.269 14.005-14.734 10.334 3.506 15.059 14.265 15.259 22.199zM448.729 116.738c-3.21 6.48-1.228 11.795-7.903 14.902-6.678 3.109-10.812 1.287-16.269-3.654-21.014-19.042-.212-14.602 6.461-17.711 6.673-3.108 20.979-.135 17.711 6.463zM493.456 126.277c-3.618 5.568-11.066 7.146-16.639 3.528-5.565-3.628-2.667-10.057-3.526-16.64-1.979-15.208 10.233-5.276 16.644-3.521 23.217 6.335 7.14 11.067 3.521 16.633zM518.293 65.564c.847 33.019-24.971 60.461-57.658 61.294-32.692.833-59.875-25.257-60.717-58.275-.842-33.016 24.983-60.453 57.667-61.291 32.689-.829 59.87 25.264 60.708 58.272z"/><path fill="#040303" d="M464.564 161.415c.755 2.939-.976 3.589-1.296 3.351-2.201-1.63-3.557.103-3.849.579-1.489 2.431-3.57.844-4.029-.787-.528-1.91-.41-5.759 3.93-6.538 2.03-.369 4.751 1.47 5.244 3.395zM469.708 141.728c.393 1.389-.939 1.88-1.968 2.042-1.076.173-4.465 1.342-4.949 1.617-1.102.63-3.568.845-4.029-.785-.531-1.91-.316-5.352 3.927-6.54 4.243-1.186 6.484 1.748 7.019 3.666zM456.253 153.239c-.186 1.435 1.195 1.731 2.235 1.75 1.088.014 4.615.697 5.129.901 1.176.471 3.656.34 3.878-1.346.259-1.965-.441-5.341-4.808-5.92-4.37-.576-6.17 2.65-6.434 4.615zM461.253 137.456c.016 1.448 1.428 1.545 2.466 1.416 1.074-.137 4.657.041 5.201.17 1.229.299 3.663-.187 3.646-1.877-.02-1.984-1.187-5.229-5.593-5.185-4.404.046-5.738 3.493-5.72 5.476z"/><path fill="#E7E2DC" d="M523.21 45.827c1.759 12.076-2.369 24.038-14.446 25.806-12.077 1.763-23.299-6.597-25.06-18.674-1.766-12.078 6.594-23.297 18.672-25.063 12.074-1.76 19.066 5.855 20.834 17.931zM452.091 21.717c-7.904 6.331-7.742 18.54-17.865 18.796-10.127.257-18.547-7.741-18.808-17.868-.254-10.122 7.741-18.857 17.871-18.798 44.741.257 30.73 8.306 18.802 17.87zM496.7 14.69c3.5 8.663-4.654 13.51-15.971 18.079-11.313 4.567-23.327 1.249-26.827-7.425-3.496-8.66-2.013-25.747 14.158-23.958 12.13 1.341 25.142 4.635 28.64 13.304z"/><path fill="#040303" d="M489.605 56.531c1.182 20.388-11.042 37.684-27.302 38.625-16.261.932-30.4-14.83-31.576-35.212-1.182-20.391 11.04-37.691 27.304-38.622 16.256-.947 30.39 14.825 31.574 35.209z"/><path fill="#E7E2DC" d="M487.574 37.879c-1.934 4.292-11.156 4.312-20.6.05-9.443-4.26-15.531-11.189-13.599-15.474 1.934-4.288 11.156-4.305 20.602-.048 9.442 4.26 15.532 11.187 13.597 15.472zM455.104 25.267c.068 2.613-2.004 4.795-4.621 4.862-2.623.068-4.803-2.003-4.869-4.625-.066-2.617 2.002-4.797 4.629-4.865 2.617-.065 4.793 2.007 4.861 4.628zM463.934 29.219c.067 2.623-2 4.798-4.623 4.868-2.619.064-4.799-2.009-4.862-4.623-.068-2.623 2.002-4.801 4.621-4.869 2.619-.065 4.797 2.006 4.864 4.624zM474.319 38.898c-1.23 2.314-5.222 2.596-8.905.626-3.691-1.967-5.681-5.433-4.446-7.744 1.233-2.316 5.223-2.597 8.911-.63 3.686 1.963 5.673 5.433 4.44 7.748zM448.536 26.881c.066 2.62-2.002 4.8-4.623 4.863-2.621.067-4.798-2.001-4.864-4.622-.068-2.619 2.004-4.8 4.623-4.864 2.618-.07 4.798 2.004 4.864 4.623z"/><path fill="#fff" d="M475.874 52.981c-1.706 3.056-5.565 4.16-8.623 2.455-3.063-1.705-4.157-5.566-2.456-8.623 1.702-3.058 5.564-4.162 8.623-2.458 3.06 1.707 4.16 5.566 2.456 8.626zM456.417 54.241c-1.7 3.057-5.562 4.159-8.623 2.455-3.062-1.707-4.16-5.563-2.456-8.629 1.704-3.054 5.566-4.154 8.629-2.45 3.058 1.701 4.157 5.563 2.45 8.624z"/><path fill="#040303" d="M450.424 52.525c-.425.763-1.39 1.037-2.151.613-.768-.427-1.046-1.392-.614-2.155.425-.768 1.39-1.04 2.156-.614.763.422 1.039 1.389.609 2.156zM472.025 51.409c-.425.763-1.388 1.037-2.155.614-.768-.425-1.042-1.395-.614-2.156.426-.767 1.391-1.041 2.153-.615.766.426 1.042 1.389.616 2.157zM415.646 53.534c-.447-1.606 2.206-7.843 7.217-9.229 5.013-1.386 11.761-5.305 12.207-3.699.333 1.206-3.989 6.973-7.125 8.317-1.044.448-2.217.859-3.472 1.204-5.009 1.389-8.384 5.012-8.827 3.407zM499.218 48.794c.271-1.371-2.325-6.397-6.588-7.246-4.262-.843-10.13-3.688-10.399-2.321-.207 1.027 3.756 5.567 6.449 6.486.899.308 1.903.582 2.965.792 4.265.844 7.3 3.656 7.573 2.289z"/><path fill="#E7E2DC" d="M435.991 81.976c3.036 11.555-2.118 22.92-11.509 25.386-9.393 2.461-19.463-4.909-22.492-16.458-3.035-11.556 2.123-22.918 11.518-25.38 9.382-2.469 19.452 4.903 22.483 16.452z"/><path fill="#C2C080" d="M411.177 106.488s.855 4.896 1.772 6.234c.998 1.456 4.479 2.919 5.639 4.247 1.333 1.521 2.607 5.529 3.952 7.032.689.774 3.347 2.421 3.347 2.421s-2.265-2.77-2.853-3.8c-1.085-1.9-1.855-6.495-3.362-8.091-1.101-1.162-4.614-1.678-5.761-2.794-1.063-1.03-2.734-5.249-2.734-5.249zM511.012 100.421s-1.618 6.739-3.007 8.519c-1.516 1.942-6.48 3.673-8.213 5.422-1.979 2-4.104 7.465-6.104 9.441-1.023 1.015-4.864 3.077-4.864 3.077s3.387-3.657 4.297-5.037c1.675-2.551 3.149-8.876 5.379-10.961 1.63-1.524 6.562-1.939 8.253-3.393 1.568-1.342 4.259-7.068 4.259-7.068zM454.867 21.237s1.217 4.252 2.156 5.352c1.015 1.195 4.235 2.16 5.386 3.229 1.315 1.219 2.824 4.651 4.156 5.853.682.619 3.19 1.826 3.19 1.826s-2.266-2.236-2.884-3.089c-1.139-1.581-2.252-5.578-3.732-6.846-1.079-.926-4.239-1.054-5.362-1.937-1.032-.812-2.91-4.388-2.91-4.388zM464.021 22.791s1.216 4.25 2.154 5.351c1.02 1.193 4.236 2.16 5.388 3.233 1.316 1.217 2.823 4.645 4.154 5.851.678.619 3.19 1.827 3.19 1.827s-2.266-2.239-2.879-3.092c-1.146-1.585-2.257-5.575-3.737-6.845-1.079-.927-4.239-1.056-5.357-1.935-1.038-.813-2.913-4.39-2.913-4.39zM439.917 29.208s-3.438-5.276 1.09-6.978c3.062-1.154 4.849.759 4.849.759s-.312-1.886 1.585-3.2c2.612-1.807 4.654 1.666 4.654 1.666s-2.23-1.936-4.208-.743c-1.665 1.005-.938 4.292-.938 4.292s-1.851-2.891-5.347-1.472c-3.323 1.345-1.685 5.676-1.685 5.676zM454.167 102.686s5.355 3.686 4.715 6.284c-.401 1.621-5.119 4.914-5.119 4.914s1.675 3.229 1 4.587c-.783 1.594-5.599 3.594-5.599 3.594s3.382-2.838 3.73-4.086c.364-1.287-1.577-3.797-1.577-3.797s4.498-3.913 4.985-5.61c.561-1.933-2.135-5.886-2.135-5.886zM448.961 124.129s10.98-1.392 14.659-1.781c4.013-.427 15.884-1.151 15.884-1.151s-9.542 3.478-15.472 3.86c-6.522.425-15.071-.928-15.071-.928z"/><path fill="#808080" d="M453.297 83.438c-.125 0-.248-.044-.351-.128-.224-.194-.25-.532-.055-.754 1.776-2.063 4.092-1.598 6.336-1.153 1.14.228 2.32.457 3.439.377 1.118-.09 2.261-.498 3.364-.897 2.212-.79 4.5-1.61 6.59.18.224.194.248.532.057.755-.192.224-.535.249-.754.058-1.616-1.386-3.43-.737-5.529.016-1.173.421-2.384.855-3.645.953-1.283.104-2.522-.148-3.732-.393-2.117-.422-3.948-.788-5.316.8-.106.123-.255.186-.404.186z"/><path fill="#DDD6BF" d="M461.938 64.878c3.938-.283 4.741-1.002 5.305-.735 1.406.662-2.375 7.097-4.502 7.246-2.479.164-7.987-5.571-7.092-6.511.736-.783 1.346.354 6.289 0z"/><path fill="#6B8E37" d="M602.852 291.208c.984 1.275 10.245 2.908 13.801 3.358 3.463.442 13.111.979 14.241-.1 1.089-1.036 3.21-9.615 3.21-9.615l-3.944 5.771.108-6.259-3.533 5.518-1.254-4.122-1.296 3.724-.008-5.97-2.748 5.391-.147-6.063-2.13 5.926-.81-3.733-2.625 3.067.621-5.508-2.073 6.088-.381-6.629-2.148 5.465-2.022-5.766-2.506 5.88-1.268-6.281-1.357 5.873-2.169-6.399c-.001-.001-.516 9.155.438 10.384z"/><path fill="#80993E" d="M580.695 297.805c10.95 4.055 15.585 2.699 16.717 1.618 1.09-1.036 2.921-7.955 2.921-7.955l-3.947 5.769.109-6.26-3.531 5.519-1.257-4.121-1.296 3.724-.004-5.966-2.751 5.388-.147-6.064-2.13 5.928-.809-3.735-2.626 3.066-1.112-6.153-1.056 6.72c0-.003.006 2.183.919 2.522z"/></svg>