<?xml version="1.0" encoding="utf-8"?><svg xmlns="http://www.w3.org/2000/svg" width="1600" height="1080" xmlns:xlink="http://www.w3.org/1999/xlink" viewBox="0 0 1600 1080"><g><defs><path id="a" d="M354 574h910v506h-910z"/></defs><clipPath id="b"><use xlink:href="#a" overflow="visible"/></clipPath><g clip-path="url(#b)"><path fill="#060202" d="M986.315 1794.891l-.131-.006c-8.636-.069-15.582-7.134-15.508-15.772l2.325-272.237c.064-8.595 7.061-15.512 15.636-15.512h.137c8.636.078 15.583 7.14 15.508 15.779l-2.324 272.236c-.07 8.595-7.062 15.512-15.643 15.512zM942.988 1810.612c1.655 27.538 18.416 28.369 20.517 25.4 14.525-20.229 31.083-8.989 34.944-5.684 19.633 16.899 33.228-2.619 32.661-18.012-.723-17.999-12.456-50.994-52.187-45.666-18.557 2.441-37.019 25.941-35.935 43.962zM644.488 1787.068c-8.577 0-15.565-6.914-15.638-15.512l-2.326-272.237c-.074-8.639 6.868-15.7 15.512-15.772l.133-.005c8.581 0 15.567 6.919 15.639 15.514l2.325 272.235c.072 8.644-6.869 15.705-15.508 15.777h-.137zM689.535 1801.477c-1.653 27.55-18.417 28.378-20.517 25.408-14.519-20.229-31.076-8.989-34.943-5.678-19.636 16.895-33.229-2.625-32.665-18.017.725-18.006 12.459-50.989 52.184-45.667 18.57 2.434 37.029 25.934 35.941 43.954zM944.607 1656.713l-.137-.006c-8.638-.072-15.582-7.133-15.505-15.771l2.322-272.238c.067-8.594 7.062-15.511 15.639-15.511h.134c8.645.073 15.586 7.139 15.511 15.778l-2.327 272.234c-.061 8.598-7.061 15.514-15.637 15.514zM979.933 1678.1c-.014 12.107-10.111 13.597-16.92 11.047-13.392-5.039-21.202-4.773-35.972-.3-11.125 3.355-25.358-2.742-25.327-16.95.059-16.562 7.919-42.222 38.44-41.506 38.062.894 39.809 31.123 39.779 47.709zM717.493 1668.44c-8.576 0-15.565-6.919-15.637-15.511l-2.318-272.238c-.078-8.639 6.868-15.705 15.508-15.777h.135c8.577 0 15.568 6.917 15.641 15.512l2.318 272.238c.075 8.638-6.87 15.702-15.508 15.773l-.139.003zM754.573 1686.151c-.016 11.317-9.454 12.706-15.823 10.334-12.531-4.714-19.833-4.472-33.638-.295-10.405 3.15-23.709-2.552-23.68-15.842.064-15.479 7.407-38.169 35.928-38.808 36.633-.808 37.247 29.101 37.213 44.611z"/><path fill="#E8E3DC" d="M671.258 1077.326c30.45 75.444-6.02 161.289-81.471 191.738-75.435 30.439-150.795 86.52-191.718-81.449-19.265-79.041 6.032-161.261 81.439-191.719 75.45-30.468 161.291 6 191.75 81.43zM667.166 946.887c1.709 64.695-49.424 118.491-114.107 120.127-64.744 1.645-182.335 29.316-141.885-100.183 30.95-99.009 69.459-104.538 135.93-134.093 59.09-26.281 118.427 49.47 120.062 114.149zM1151.412 1410.219c-12.697 49.203-52.764 81.445-89.441 71.951-36.758-9.479-56.228-57.086-43.494-106.25 12.705-49.225 52.75-81.436 89.482-71.95 36.709 9.45 56.15 57.073 43.453 106.249zM698.07 1421.428c1.522 59.625-45.592 109.225-105.2 110.747-59.665 1.508-109.235-45.595-110.734-105.216-1.547-59.625 45.565-109.205 105.234-110.723 59.612-1.511 109.186 45.584 110.7 105.192zM1191.081 928.793c1.367 52.869-43.966 42.242-96.836 43.559-52.912 1.352-96.862-40.439-98.229-93.316-1.353-52.893 4.139-128.453 93.344-98.211 68.883 23.364 100.382 95.079 101.721 147.968zM742.218 1503.036c-21.388 43.2-8.192 78.63-52.679 99.333-44.511 20.725-72.07 8.588-108.442-24.345-140.07-126.944-1.422-97.338 43.081-118.065 44.466-20.717 139.824-.903 118.04 43.077zM1040.354 1566.616c-24.125 37.124-73.767 47.642-110.905 23.528-37.103-24.182-17.771-67.039-23.503-110.925-13.178-101.372 68.214-35.155 110.942-23.47 154.758 42.231 47.591 73.781 23.466 110.867zM1205.915 1161.945c5.628 220.08-166.461 402.996-384.337 408.552-217.904 5.544-399.095-168.366-404.707-388.433-5.605-220.076 166.528-402.959 384.382-408.543 217.888-5.537 399.067 168.383 404.662 388.424zM1226.947 1032.328c11.718 80.498-15.791 160.236-96.287 171.998-80.494 11.756-155.289-43.958-167.039-124.461-11.777-80.504 43.941-155.289 124.458-167.052 80.481-11.747 127.092 39.025 138.868 119.515zM764.629 869.648c-52.679 42.208-51.593 123.6-119.078 125.299-67.515 1.719-123.627-51.588-125.351-119.098-1.71-67.468 51.59-125.693 119.112-125.297 298.215 1.702 204.827 55.37 125.317 119.096zM1061.971 822.818c23.333 57.744-31.008 90.064-106.441 120.514-75.424 30.432-155.489 8.313-178.815-49.484-23.316-57.736-13.431-171.623 94.353-159.71 80.87 8.946 167.592 30.895 190.903 88.68zM657.327 1271.337c20.238 77.011-14.134 152.774-76.724 169.2-62.602 16.41-129.737-32.717-149.92-109.695-20.239-77.032 14.148-152.766 76.765-169.177 62.554-16.456 129.679 32.675 149.879 109.672z"/><path fill="#C2C080" d="M491.908 1434.725s5.715 32.629 11.826 41.545c6.647 9.705 29.842 19.461 37.564 28.311 8.895 10.134 17.401 36.855 26.355 46.881 4.592 5.146 22.318 16.136 22.318 16.136s-15.112-18.47-19.021-25.339c-7.247-12.66-12.373-43.283-22.408-53.919-7.35-7.759-30.754-11.187-38.407-18.628-7.073-6.864-18.227-34.987-18.227-34.987zM1141.737 1396.239s-10.789 44.925-20.042 56.783c-10.097 12.94-43.208 24.489-54.735 36.136-13.208 13.328-27.372 49.755-40.7 62.944-6.816 6.755-32.422 20.505-32.422 20.505s22.589-24.377 28.639-33.58c11.17-17.003 21-59.163 35.855-73.064 10.864-10.16 43.73-12.926 55.017-22.615 10.444-8.948 28.388-47.109 28.388-47.109zM778.464 1409.378s35.702 24.563 31.434 41.892c-2.67 10.789-34.104 32.75-34.104 32.75s11.155 21.521 6.665 30.569c-5.226 10.622-37.324 23.958-37.324 23.958s22.534-18.916 24.858-27.25c2.429-8.555-10.497-25.295-10.497-25.295s29.972-26.088 33.229-37.41c3.709-12.867-14.261-39.214-14.261-39.214zM743.774 1552.311s73.187-9.277 97.711-11.88c26.742-2.834 105.886-7.665 105.886-7.665s-63.616 23.184-103.127 25.726c-43.495 2.83-100.47-6.181-100.47-6.181z"/><path fill="#060202" d="M1014.688 1046.965c7.872 135.906-73.608 251.191-181.98 257.467-108.399 6.211-202.638-98.855-210.477-234.708-7.861-135.923 73.594-251.236 182.003-257.446 108.337-6.318 202.559 98.819 210.454 234.687z"/><path fill="#E8E3DC" d="M1001.152 922.643c-12.893 28.607-74.358 28.748-137.306.328-62.944-28.389-103.528-74.58-90.648-103.129 12.896-28.583 74.368-28.705 137.323-.324 62.928 28.403 103.522 74.566 90.631 103.125zM784.716 838.57c.447 17.427-13.354 31.964-30.798 32.417-17.488.444-32.016-13.355-32.461-30.825-.425-17.448 13.35-31.977 30.858-32.42 17.448-.445 31.96 13.36 32.401 30.828zM843.572 864.92c.452 17.477-13.342 31.975-30.816 32.446-17.453.429-31.978-13.379-32.408-30.819-.457-17.474 13.344-31.997 30.802-32.444 17.461-.439 31.986 13.355 32.422 30.817zM912.805 929.433c-8.211 15.417-34.816 17.306-59.378 4.173-24.585-13.109-37.857-36.207-29.61-51.611 8.194-15.447 34.789-17.311 59.383-4.197 24.577 13.078 37.827 36.206 29.605 51.635zM740.931 849.338c.45 17.463-13.332 31.99-30.811 32.418-17.462.452-31.985-13.354-32.417-30.812-.456-17.457 13.367-31.99 30.816-32.428 17.46-.463 31.976 13.361 32.412 30.822z"/><path fill="#fff" d="M923.166 1023.303c-11.375 20.385-37.086 27.734-57.475 16.364-20.431-11.356-27.725-37.091-16.381-57.479 11.355-20.384 37.089-27.728 57.479-16.374 20.397 11.366 27.732 37.103 16.377 57.489zM793.474 1031.702c-11.327 20.389-37.081 27.72-57.475 16.366-20.396-11.373-27.725-37.089-16.361-57.514 11.347-20.362 37.09-27.691 57.514-16.332 20.367 11.339 27.691 37.085 16.322 57.48z"/><path fill="#060202" d="M767.458 997.717c-2.825 5.088-9.271 6.917-14.342 4.098-5.124-2.85-6.969-9.277-4.097-14.363 2.825-5.121 9.278-6.941 14.376-4.098 5.077 2.819 6.917 9.265 4.063 14.363zM895.473 987.148c-2.834 5.088-9.242 6.93-14.367 4.1-5.104-2.838-6.938-9.301-4.1-14.377 2.833-5.1 9.289-6.926 14.372-4.086 5.105 2.832 6.923 9.268 4.095 14.363zM521.719 1026.983c-2.998-10.691 14.692-52.278 48.1-61.513 33.413-9.227 78.384-35.354 81.365-24.649 2.214 8.046-26.597 46.487-47.493 55.443-6.954 2.98-14.773 5.729-23.146 8.02-33.378 9.261-55.88 33.413-58.826 22.699zM1078.752 995.406c1.813-9.133-15.484-42.648-43.908-48.3-28.4-5.618-67.518-24.586-69.324-15.481-1.368 6.837 25.043 37.119 43.002 43.23 5.994 2.061 12.691 3.884 19.761 5.283 28.43 5.635 48.66 24.366 50.469 15.268z"/><path fill="#C2C080" d="M783.16 811.711s8.09 28.346 14.343 35.672c6.783 7.975 28.235 14.406 35.892 21.525 8.794 8.136 18.844 31.01 27.722 39.016 4.545 4.125 21.261 12.168 21.261 12.168s-15.1-14.896-19.225-20.594c-7.589-10.547-15.014-37.175-24.872-45.625-7.2-6.172-28.267-7.024-35.739-12.908-6.896-5.405-19.382-29.254-19.382-29.254zM844.15 822.072s8.1 28.338 14.366 35.666c6.788 7.955 28.228 14.398 35.922 21.541 8.761 8.129 18.813 30.975 27.678 39.018 4.521 4.122 21.27 12.179 21.27 12.179s-15.098-14.927-19.197-20.626c-7.634-10.559-15.042-37.152-24.917-45.615-7.194-6.197-28.25-7.045-35.693-12.908-6.933-5.409-19.429-29.255-19.429-29.255zM683.492 864.846s-22.933-35.168 7.257-46.518c20.41-7.686 32.325 5.063 32.325 5.063s-2.076-12.579 10.572-21.327c17.416-12.043 31.03 11.098 31.03 11.098s-14.881-12.89-28.065-4.948c-11.103 6.683-6.264 28.612-6.264 28.612s-12.332-19.271-35.641-9.823c-22.136 8.97-11.214 37.843-11.214 37.843z"/><path fill="#DDD6BF" d="M830.264 1102.607c26.269-1.877 31.61-6.676 35.363-4.902 9.379 4.414-15.833 47.321-30.005 48.311-16.517 1.094-53.243-37.142-47.281-43.408 4.906-5.225 8.971 2.352 41.923-.001z"/><path fill="#808080" d="M786.904 1224.698c-6.503 0-12.903-1.884-19.047-7.155-1.499-1.283-1.669-3.533-.388-5.025 1.282-1.492 3.537-1.664 5.03-.389 10.774 9.247 22.853 4.908 36.846-.108 7.805-2.8 15.877-5.697 24.294-6.355 8.444-.679 16.806 1.003 24.889 2.617 14.101 2.821 26.289 5.255 35.4-5.333 1.291-1.484 3.541-1.656 5.027-.376 1.5 1.286 1.67 3.539.383 5.036-11.827 13.744-27.276 10.656-42.21 7.666-7.605-1.516-15.467-3.077-22.934-2.499-7.464.587-15.078 3.317-22.441 5.955-8.232 2.956-16.619 5.966-24.849 5.966z"/><path fill="#060202" d="M764.906 1120.193c18.163 45.25 6.566 92.502-25.853 105.516-32.479 13.025-73.474-13.121-91.659-58.371-18.162-45.273-6.584-92.517 25.86-105.551 32.454-13.021 73.481 13.134 91.652 58.406z"/></g></g></svg>