<?xml version="1.0" encoding="utf-8"?><svg xmlns="http://www.w3.org/2000/svg" width="300" height="300" viewBox="0 0 300 300"><path fill="#80993E" d="M51.454 250.03c14.558 33.002 75.86 37.927 136.914 10.986 61.047-26.936 98.733-75.536 84.178-108.541-14.566-33.006-75.87-37.927-136.917-10.987-61.054 26.937-98.741 75.53-84.175 108.542zM61.904 284.654c5.662 12.827 23.616 17.33 40.099 10.049 16.484-7.27 25.271-23.56 19.609-36.387-5.654-12.815-23.607-17.317-40.1-10.041-16.483 7.266-25.262 23.564-19.608 36.379z"/><path fill="none" stroke="#040303" stroke-width="5.894" d="M165.442 170.801v40.275M79.974 157.056v40.267M229.288 124.628v40.283"/><path fill="#E8E3DC" d="M164.281 54.439c1.114 28.378 25.024 50.488 53.406 49.381 28.379-1.114 50.486-25.017 49.373-53.407-1.105-28.371-25.016-50.48-53.389-49.374-28.389 1.114-50.489 25.018-49.39 53.4zM20.861 107.604c1.308 33.439 29.17 59.508 62.23 58.214 33.068-1.294 58.819-29.449 57.504-62.897-1.299-33.447-29.162-59.516-62.238-58.222-33.061 1.29-58.803 29.457-57.496 62.905zM121.922 57.902c1.098 28.382 25.017 50.491 53.39 49.377 28.38-1.11 50.496-25.009 49.382-53.399-1.115-28.374-25.015-50.48-53.398-49.381-28.38 1.113-50.487 25.024-49.374 53.403zM74.722 53.634c.758 19.819 17.466 35.272 37.299 34.491 19.826-.773 35.274-17.474 34.5-37.309-.789-19.815-17.481-35.272-37.315-34.491-19.818.774-35.274 17.474-34.484 37.309zM85.025 146.218c.774 19.823 17.482 35.265 37.315 34.491 19.817-.774 35.272-17.475 34.491-37.301-.782-19.831-17.474-35.272-37.307-34.499-19.825.774-35.272 17.474-34.499 37.309zM223.007 96.254c.449 11.279 9.939 20.058 21.211 19.616 11.279-.438 20.064-9.938 19.615-21.21-.432-11.275-9.932-20.065-21.211-19.616-11.277.434-20.049 9.938-19.615 21.21zM208.28 126.7c.432 11.279 9.932 20.065 21.209 19.616 11.277-.438 20.059-9.938 19.617-21.207-.441-11.271-9.932-20.053-21.227-19.612-11.263.434-20.04 9.943-19.599 21.203zM142.459 167.96c.441 11.279 9.939 20.065 21.204 19.616 11.285-.446 20.064-9.932 19.623-21.207-.441-11.279-9.938-20.062-21.218-19.62-11.271.434-20.049 9.936-19.609 21.211zM60.921 159.119c.449 11.279 9.933 20.058 21.21 19.624 11.278-.449 20.065-9.947 19.617-21.219-.433-11.268-9.932-20.057-21.21-19.608-11.269.435-20.05 9.932-19.617 21.203zM96.798 100.479c1.632 41.987 37.006 74.7 78.993 73.058 41.988-1.646 74.693-37.012 73.052-78.999-1.639-41.995-37.014-74.692-79-73.054-41.98 1.641-74.693 37.016-73.045 78.995z"/><path fill="#040303" d="M155.858 216.661c-1.354 2.924-.188 3.744.874 3.947 1.098.2 4.834-4.58 5.909-4.084.588.277-1.765 6.227-1.409 6.727.829 1.145 3.467 1.255 5.06-2.165 1.864-3.998 3.883-11.045-.107-12.909-4.007-1.857-8.463 4.486-10.327 8.484zM71.503 201.927c-1.361 2.924-.186 3.744.867 3.943 1.099.204 4.835-4.584 5.911-4.076.587.27-1.764 6.219-1.4 6.73.828 1.138 3.473 1.239 5.059-2.173 1.864-3.998 3.891-11.045-.116-12.909-4.001-1.856-8.465 4.487-10.321 8.485zM220.692 168.038c-1.359 2.924-.184 3.744.869 3.943 1.098.203 4.834-4.584 5.916-4.084.58.281-1.762 6.229-1.406 6.73.818 1.145 3.465 1.246 5.057-2.174 1.865-3.998 3.885-11.037-.115-12.901-4-1.856-8.463 4.488-10.321 8.486zM29.346 134.813c-12.577 20.136-9.762 44.578 6.288 54.607 16.052 10.024 39.257 1.841 51.835-18.271 12.578-20.136 9.762-44.586-6.297-54.619-16.035-10.025-39.248-1.833-51.826 18.283z"/><path fill="#fff" d="M60.736 145.295c2.034 4.659 7.457 6.785 12.129 4.749 4.657-2.04 6.792-7.469 4.75-12.127-2.042-4.655-7.465-6.792-12.129-4.749-4.656 2.032-6.785 7.465-4.75 12.127zM41.599 141.993c1.803 4.1 6.576 5.979 10.675 4.178 4.1-1.786 5.979-6.566 4.184-10.666-1.786-4.1-6.567-5.972-10.667-4.178-4.106 1.786-5.971 6.566-4.192 10.666z"/><path fill="#040303" d="M67.62 140.359c.45 1.032 1.641 1.501 2.662 1.047 1.036-.441 1.501-1.642 1.051-2.669-.448-1.02-1.64-1.493-2.668-1.043-1.029.438-1.493 1.638-1.045 2.665zM46.132 137.948c.448 1.02 1.64 1.493 2.668 1.044 1.029-.458 1.493-1.638 1.044-2.669-.45-1.02-1.641-1.493-2.669-1.044-1.012.449-1.492 1.641-1.043 2.669zM118.008 133.152c-.789-2.274-8.996-7.535-16.074-5.12-7.085 2.419-18.286 3.24-17.512 5.507.587 1.708 10.404 5.057 15.223 4.107 1.593-.316 3.326-.782 5.089-1.383 7.086-2.415 14.033-.836 13.274-3.111zM10.936 119.817c1.277-1.548 9.236-3.271 14.079.688 4.827 3.959 13.358 7.868 12.083 9.423-.944 1.157-9.607.911-13.104-1.231-1.161-.711-2.382-1.579-3.59-2.567-4.827-3.964-10.733-4.765-9.468-6.313zM55.306 152.287l-17.737-.144.07-7.735 17.736.145zM75.526 158.584l-18.024-4.33 2.313-9.599 18.016 4.33z"/><path fill="#999" d="M42.373 180.15c-.232.93-1.817 1.324-3.527.898-1.718-.449-2.916-1.548-2.676-2.474.231-.931 1.817-1.333 3.527-.899 1.716.442 2.916 1.549 2.676 2.475z"/><path fill="#DDD7BF" d="M51.454 159.722c-4.974-1.259-5.833-2.357-6.605-2.158-1.95.528 1.399 9.615 4.084 10.291 3.125.77 11.479-5.284 10.542-6.691-.758-1.161-1.795.144-8.021-1.442z"/></svg>