<?xml version="1.0" encoding="utf-8"?><svg xmlns="http://www.w3.org/2000/svg" width="32" height="340" viewBox="0 0 32 340"><path fill="#917E63" d="M31.581.921s-7.792-.921-10.413-.921c-7.348 0-14.217 1.397-14.217 1.397l-2.983 337.469 24.63-.609 2.983-337.336z"/><path fill="#7C7155" d="M6.671 1.24l-2.549 338.424h7.141l2.97-339.664-6.069 1.229z"/><path fill="#7C7155" d="M19.24 10.562v21.041l1.928 7.076-1.928 7.72-1.467-8.455-3.375-2.389 1.532-12.222 1.246 5.906-.748-16.845zM23.553 11.659l-2.104 10.408 1.778 22.853 3.648-6.789v-3.29l-3.086.745z" opacity=".77"/><path fill="#6B8E37" d="M2.014 335.593c1.012 1.2 10.059 2.339 13.524 2.602 3.375.262 12.747.307 13.792-.804 1.007-1.067 2.669-9.564 2.669-9.564l-3.557 5.841-.181-6.126-3.17 5.572-1.404-3.972-1.084 3.708-.281-5.84-2.416 5.409-.42-5.924-1.792 5.903-.955-3.613-2.403 3.131.35-5.418-1.73 6.059-.672-6.466-1.832 5.452-2.223-5.54-2.158 5.875-1.516-6.081-1.046 5.812-2.394-6.15c-.001-.001-.08 8.979.899 10.134z"/><path fill="#80993E" d="M1.797 339.408c11.555 1.678 15.805-.615 16.686-1.908.849-1.241 1.195-8.39 1.195-8.39l-2.656 6.465-1.2-6.145-2.301 6.136-2.09-3.769-.49 3.912-1.25-5.833-1.565 5.843-1.411-5.9-.845 6.242-1.57-3.483-1.928 3.547-2.372-5.786.371 6.793s.462 2.137 1.426 2.276z"/></svg>