<?xml version="1.0" encoding="utf-8"?><svg xmlns="http://www.w3.org/2000/svg" width="75" height="95.102" viewBox="12.5 0 75 95.102" enable-background="new 12.5 0 75 95.102"><linearGradient id="a" x1="269.861" x2="342.411" y1="-256.051" y2="-256.051" gradientUnits="userSpaceOnUse" gradientTransform="matrix(1 0 0 -1 -256 -208.5)"><stop offset="0" stop-color="#75B8E6"/><stop offset="1" stop-color="#1E72B7"/></linearGradient><path fill="url(#a)" d="M13.862 0s2.157 43.159 0 95.102c0 0 20.051-4.114 35.539-3.435 15.488.682 37.011 3.435 37.011 3.435s-4.214-42.796-.002-95.102"/><path d="M69.941 41.358c-1.409.239-3.449-.009-4.529-.459 2.245-.187 3.767-1.206 4.355-2.594-.813.498-3.327 1.042-4.714.524-.07-.328-.145-.638-.22-.919-1.056-3.888-4.682-7.02-8.472-6.642.302-.122.612-.237.927-.344.418-.149 2.868-.55 2.483-1.414-.327-.762-3.32.575-3.885.75.742-.28 1.973-.76 2.104-1.618-1.138.157-2.257.696-3.12 1.482.309-.338.548-.747.597-1.187-3.042 1.945-4.82 5.863-6.258 9.669-1.128-1.095-2.129-1.958-3.026-2.438-2.518-1.35-5.531-2.76-10.257-4.518-.144 1.565.773 3.648 3.415 5.032-.568-.078-1.619.095-2.456.295.34 1.795 1.458 3.271 4.477 3.986-1.378.087-2.092.406-2.737 1.082.625 1.247 2.161 2.715 4.917 2.415-3.068 1.323-1.251 3.775 1.248 3.411-4.257 4.402-10.971 4.077-14.828.394 10.064 13.732 31.947 8.118 35.207-5.106 2.444.019 3.88-.844 4.772-1.801z" opacity=".3"/><path fill="#fff" d="M70.308 42.092c-1.408.239-3.447-.008-4.528-.462 2.245-.184 3.766-1.206 4.355-2.592-.813.497-3.328 1.041-4.715.524-.069-.328-.144-.637-.22-.921-1.056-3.884-4.682-7.018-8.472-6.64.302-.123.613-.238.927-.344.417-.147 2.869-.55 2.483-1.415-.326-.762-3.319.575-3.884.75.741-.281 1.972-.758 2.104-1.617-1.139.156-2.256.696-3.12 1.48.309-.336.549-.747.597-1.188-3.041 1.946-4.82 5.864-6.258 9.669-1.128-1.095-2.128-1.958-3.025-2.439-2.518-1.348-5.532-2.758-10.257-4.515-.145 1.563.772 3.648 3.416 5.028-.568-.078-1.62.097-2.456.296.341 1.797 1.458 3.272 4.477 3.986-1.378.089-2.093.408-2.738 1.084.626 1.246 2.162 2.713 4.917 2.412-3.067 1.325-1.251 3.776 1.248 3.412-4.258 4.402-10.97 4.078-14.827.395 10.063 13.731 31.948 8.118 35.206-5.106 2.443.022 3.878-.841 4.77-1.797z"/><linearGradient id="b" x1="274.209" x2="338.198" y1="-255.19" y2="-255.19" gradientUnits="userSpaceOnUse" gradientTransform="matrix(1 0 0 -1 -256 -208.5)"><stop offset="0" stop-color="#75B8E6"/><stop offset=".003" stop-color="#74B7E5"/><stop offset=".075" stop-color="#59A2D7"/><stop offset=".156" stop-color="#4390CB"/><stop offset=".252" stop-color="#3282C2"/><stop offset=".371" stop-color="#2779BC"/><stop offset=".537" stop-color="#2074B8"/><stop offset="1" stop-color="#1E72B7"/></linearGradient><path fill="url(#b)" d="M18.209 4.076s3.103 40.49 0 84.231c0 0 17.872-1.04 31.743-1.651 22.009 1.766 32.246 3.827 32.246 3.827s-6.792-39.535-.641-87.12c.663-5.123-7.782 32.776-1.805 83.962 0 0-16.317-2.7-30.208-2.435-14.265.271-27.938.511-29.603.905 0 0 3.566-45.343-1.732-81.719z"/><linearGradient id="c" x1="306.204" x2="306.204" y1="-217.467" y2="-208.5" gradientUnits="userSpaceOnUse" gradientTransform="matrix(1 0 0 -1 -256 -208.5)"><stop offset=".417" stop-opacity="0"/><stop offset=".793" stop-color="#030000" stop-opacity=".387"/><stop offset=".995" stop-color="#090000" stop-opacity=".595"/><stop offset="1" stop-color="#090000" stop-opacity=".6"/></linearGradient><path fill="url(#c)" d="M13.997 0l.815 8.967h70.462l1.136-8.967z" opacity=".5"/></svg>