<?xml version="1.0" encoding="utf-8"?><svg xmlns="http://www.w3.org/2000/svg" width="300" height="200" xmlns:xlink="http://www.w3.org/1999/xlink" viewBox="0 0 300 200"><path fill="#91A73C" d="M6.317 121.09l126.844 63.49-3.976 3.868 29.336 5.135 114.397 6.145 24.031-53.056-31.885-13.063-3.836 2.365-97.162-43.733-102.583 6.179-55.166 15.643z"/><path fill="#DDC6AA" d="M6.317 17.975h124.84v103.115h-124.84z"/><path fill="#D4BEA4" d="M164.066 92.241l-32.908 28.849v-103.115l32.908-17.961z"/><path fill="#C1AE97" d="M1.299 17.975h133.079v21.017h-133.079z"/><path fill="#AE9C88" d="M134.377 38.992l31.75-22.839-.257-16.139-31.493 17.961z"/><path fill="#DDC6AA" d="M134.377 17.975h-133.078l39.936-17.961h124.635z"/><g fill-rule="evenodd" clip-rule="evenodd"><path fill="#D8D4CB" d="M99.564 67.802c5.165 14.381-3.051 31.107-18.337 37.356-15.29 6.246-31.87-.348-37.035-14.732-5.164-14.381 3.048-31.107 18.337-37.356 15.286-6.246 31.872.348 37.035 14.732z"/><path fill="#E46531" d="M83.256 50.429c17.03 4.357 23.072 20.036 18.697 34.891-4.788 16.294-20.604 24.313-32.185 24.569-16.938.365-29.928-13.129-29.655-27.197.385-20.124 18.022-32.095 31.313-33.484 3.689-.39 6.205-.218 11.83 1.221zm-16.45 2.342c-7.178 1.797-16.145 6.717-21.022 17.355-8.013 17.479 2.385 35.626 21.182 36.65 11.548.64 26.964-6.925 31.814-22.255 1.507-4.772 1.403-11.338.795-14-1.382-6.088-7.658-15.172-18.633-17.704-6.204-1.425-10.536-.954-14.136-.046zM86.917 56.724c-.427 2.842-7.052 2.374-10.53 2.947-11.225 1.857-21.586 10.709-29.397 20.728 5.609 2.064 9.896-5.054 14.708-7.498 4.765-2.427 9.742-2.339 13.987-5.321.473.397 1.361 2.096 2.261 1.27-3.135 4.357-10.53 4.642-14.947 8.226 1.611.481 2.943 1.115 3.498 2.138.385 1.459-1.088 2.296-.737 3.401 3.9.928 6.642-3.176 10.431-3.806 4.252-.707 8.247 2.216 12.754.756 3.287-1.069 5.094-4.206 8.69-2.019.305 8.76-5.991 17.229-10.704 20.873-3.863-4.477-4.487-10.61-6.126-16.223-6.391-5.24-16.642 7.934-22.581 1.238-.775-.876-1.306-3.327.076-4.871-3.949.215-6.446 3.672-10.211 4.291-.663 4.871 2.342 7.871 1.501 12.84-5.37-4.751-6.68-11.799-4.586-19.726 5.061-19.156 24.533-27.829 41.913-19.244zm-27.857 24.168c.633 3.369 5.582 2.736 6.177-1.333-2.024-1.611-5.215-1.432-6.177 1.333z"/></g><defs><path id="a" d="M134.417 17.961h-133.081l39.935-17.961h124.634z"/></defs><clipPath id="b"><use xlink:href="#a" overflow="visible"/></clipPath><g fill="#AE9C88" clip-path="url(#b)"><path d="M151.37 11.011c-.288 9.552-30.318 16.382-67.069 15.262-36.751-1.124-66.304-9.775-66.012-19.327.292-9.552 30.319-16.382 67.07-15.26 36.75 1.126 66.303 9.777 66.011 19.325z"/><ellipse cx="145.549" cy="13.454" transform="matrix(.994 .107 -.107 .994 2.271 -15.476)" rx="22.264" ry="6.68"/><ellipse cx="28.097" cy="6.001" transform="matrix(1 .031 -.031 1 .197 -.856)" rx="22.265" ry="5.786"/></g><path fill="#0E0C17" d="M74.373 16.245h-8.135l26.623-14.49 5.713-.007z" opacity=".88"/></svg>