<?xml version="1.0" encoding="utf-8"?>
<!-- Generator: Adobe Illustrator 16.0.0, SVG Export Plug-In . SVG Version: 6.00 Build 0)  -->
<!DOCTYPE svg PUBLIC "-//W3C//DTD SVG 1.1//EN" "http://www.w3.org/Graphics/SVG/1.1/DTD/svg11.dtd">
<svg version="1.1" id="Layer_1" xmlns="http://www.w3.org/2000/svg" xmlns:xlink="http://www.w3.org/1999/xlink" x="0px" y="0px"
	 width="200px" height="265px" viewBox="0 0 200 265" enable-background="new 0 0 200 265" xml:space="preserve">
<g>
	<g>
		<polygon fill="#C05D51" points="23.199,165.158 18.747,170.072 18.577,170.102 23.027,165.188 		"/>
	</g>
	<g>
		<polygon fill="#C05D51" points="27.947,191.896 23.495,196.809 18.747,170.072 23.199,165.158 		"/>
	</g>
	<g>
		<polygon fill="#C05D51" points="31.841,215.037 27.39,219.95 25.225,206.108 29.678,201.193 		"/>
	</g>
	<g>
		<polygon fill="#9B5752" points="42.307,213.4 37.856,218.315 27.39,219.95 31.841,215.037 		"/>
	</g>
	<g>
		<polygon fill="#9B5752" points="29.678,201.193 25.225,206.108 13.362,207.962 17.815,203.048 		"/>
	</g>
	<g>
		<polygon fill="#9B5752" points="16.136,217.491 11.683,222.404 1.217,224.046 5.67,219.133 		"/>
	</g>
	<g>
		<path fill="#EF836E" d="M29.616,151.391l12.691,62.01l-10.466,1.637l-2.163-13.844l-11.863,1.854l-1.68,14.443L5.67,219.133
			l10.51-65.64L29.616,151.391z M19.224,193.259l8.723-1.362l-4.749-26.738l-0.171,0.03L19.224,193.259"/>
	</g>
	<g>
		<polygon fill="#C05D51" points="5.67,219.133 1.217,224.046 11.727,158.407 16.18,153.493 		"/>
	</g>
	<g>
		<polygon fill="#9B5752" points="62.546,155.283 58.096,160.197 53.993,160.839 58.446,155.925 		"/>
	</g>
	<g>
		<defs>
			<path id="SVGID_1_" d="M76.456,172.336c-1.485,1.64-2.969,3.277-4.451,4.914c-0.897,0.987-1.948,1.852-3.167,2.54l4.453-4.915
				C74.508,174.187,75.56,173.325,76.456,172.336z"/>
		</defs>
		<use xlink:href="#SVGID_1_"  overflow="visible" fill="#9B5752"/>
		<clipPath id="SVGID_2_">
			<use xlink:href="#SVGID_1_"  overflow="visible"/>
		</clipPath>
		<g clip-path="url(#SVGID_2_)" enable-background="new    ">
			<path fill="#9B5752" d="M76.456,172.336l-4.451,4.914c-0.897,0.987-1.948,1.852-3.167,2.54l4.453-4.915
				C74.508,174.187,75.56,173.325,76.456,172.336"/>
		</g>
	</g>
	<g>
		<defs>
			<path id="SVGID_3_" d="M67.499,169.91l-4.451,4.913c1.444-1.597,2.313-3.871,2.264-6.716c-0.091-5.273-1.94-8.026-5.735-8.032
				c-0.465,0-0.96,0.039-1.481,0.122l4.451-4.914c0.524-0.081,1.018-0.124,1.482-0.121c3.795,0.006,5.646,2.758,5.734,8.031
				C69.813,166.039,68.947,168.313,67.499,169.91z"/>
		</defs>
		<use xlink:href="#SVGID_3_"  overflow="visible" fill="#9B5752"/>
		<clipPath id="SVGID_4_">
			<use xlink:href="#SVGID_3_"  overflow="visible"/>
		</clipPath>
		<g clip-path="url(#SVGID_4_)" enable-background="new    ">
			<path fill="#9B5752" d="M67.499,169.91l-4.451,4.913c1.444-1.597,2.313-3.871,2.264-6.716c-0.091-5.273-1.94-8.026-5.735-8.032
				c-0.465,0-0.96,0.039-1.481,0.122l4.451-4.914c0.524-0.081,1.018-0.124,1.482-0.121c3.795,0.006,5.646,2.758,5.734,8.031
				C69.813,166.039,68.947,168.313,67.499,169.91"/>
		</g>
	</g>
	<g>
		<polygon fill="#9B5752" points="62.383,181.548 57.93,186.462 54.441,187.007 58.894,182.092 		"/>
	</g>
	<g>
		<defs>
			<path id="SVGID_5_" d="M69.151,198.42c-1.486,1.638-2.969,3.275-4.452,4.914c1.7-1.879,2.362-4.697,2.299-8.457
				c-0.097-5.678-1.995-8.604-6.723-8.613c-0.716-0.001-1.496,0.064-2.345,0.198l4.454-4.914c0.848-0.134,1.628-0.198,2.344-0.198
				c4.727,0.008,6.625,2.935,6.723,8.612C71.514,193.722,70.852,196.542,69.151,198.42z"/>
		</defs>
		<use xlink:href="#SVGID_5_"  overflow="visible" fill="#9B5752"/>
		<clipPath id="SVGID_6_">
			<use xlink:href="#SVGID_5_"  overflow="visible"/>
		</clipPath>
		<g clip-path="url(#SVGID_6_)" enable-background="new    ">
			<path fill="#9B5752" d="M69.151,198.42l-4.452,4.914c1.7-1.879,2.362-4.697,2.299-8.457c-0.097-5.678-1.995-8.604-6.723-8.613
				c-0.716-0.001-1.496,0.064-2.345,0.198l4.454-4.914c0.848-0.134,1.628-0.198,2.344-0.198c4.727,0.008,6.625,2.935,6.723,8.612
				C71.514,193.722,70.852,196.542,69.151,198.42"/>
		</g>
	</g>
	<g>
		<defs>
			<path id="SVGID_7_" d="M77.431,203.931c-1.485,1.638-2.968,3.277-4.452,4.914c-2.648,2.924-6.489,4.992-11.767,5.816l4.452-4.914
				C70.941,208.924,74.782,206.855,77.431,203.931z"/>
		</defs>
		<use xlink:href="#SVGID_7_"  overflow="visible" fill="#9B5752"/>
		<clipPath id="SVGID_8_">
			<use xlink:href="#SVGID_7_"  overflow="visible"/>
		</clipPath>
		<g clip-path="url(#SVGID_8_)" enable-background="new    ">
			<path fill="#9B5752" d="M77.431,203.931l-4.452,4.914c-2.648,2.924-6.489,4.992-11.767,5.816l4.452-4.914
				C70.941,208.924,74.782,206.855,77.431,203.931"/>
		</g>
	</g>
	<g>
		<polygon fill="#9B5752" points="65.664,209.747 61.212,214.661 44.118,217.34 48.568,212.426 		"/>
	</g>
	<g>
		<path fill="#EF836E" d="M73.291,174.875c5.539,1.615,8.84,5.53,8.981,13.753c0.179,10.52-4.306,19.198-16.608,21.119
			l-17.095,2.679l-1.093-63.828l16.048-2.509c1.531-0.239,2.954-0.356,4.265-0.354c8.637,0.015,12.609,5.182,12.77,14.622
			C80.652,165.834,78.488,171.938,73.291,174.875z M63.766,201.007c5.758-0.901,7.794-4.587,7.685-11.045
			c-0.098-5.678-1.997-8.604-6.723-8.612c-0.716,0-1.497,0.064-2.344,0.198l-3.49,0.544l0.336,19.624L63.766,201.007
			 M58.446,155.925l0.292,17.148l3.923-0.61c4.101-0.643,7.193-3.964,7.101-9.27c-0.089-5.273-1.939-8.025-5.734-8.031
			c-0.464-0.003-0.958,0.04-1.482,0.121L58.446,155.925"/>
	</g>
	<g>
		<polygon fill="#C05D51" points="48.568,212.426 44.118,217.34 43.023,153.511 47.476,148.598 		"/>
	</g>
	<g>
		<defs>
			<path id="SVGID_9_" d="M95.836,155.196c1.485-1.638,2.968-3.274,4.454-4.913c0.886-0.981,2.197-1.6,4.049-1.887
				c0.544-0.086,1.045-0.129,1.502-0.127c3.192,0.004,4.3,2.119,4.372,6.293l-4.452,4.916c-0.072-4.177-1.179-6.292-4.372-6.296
				c-0.457,0-0.957,0.042-1.502,0.127C98.035,153.598,96.726,154.217,95.836,155.196z"/>
		</defs>
		<use xlink:href="#SVGID_9_"  overflow="visible" fill="#9B5752"/>
		<clipPath id="SVGID_10_">
			<use xlink:href="#SVGID_9_"  overflow="visible"/>
		</clipPath>
		<g clip-path="url(#SVGID_10_)" enable-background="new    ">
			<path fill="#9B5752" d="M110.213,154.563l-4.452,4.916c-0.072-4.177-1.179-6.292-4.372-6.296c-0.457,0-0.957,0.042-1.502,0.127
				c-1.852,0.288-3.161,0.907-4.05,1.887l4.454-4.913c0.886-0.981,2.197-1.6,4.049-1.887c0.544-0.086,1.045-0.129,1.502-0.127
				C109.033,148.273,110.141,150.389,110.213,154.563"/>
		</g>
	</g>
	<g>
		<defs>
			<path id="SVGID_11_" d="M87.986,149.663c1.485-1.639,2.969-3.277,4.454-4.915c-3.175,3.506-4.644,8.148-4.561,13.043
				l-4.451,4.913C83.344,157.81,84.812,153.167,87.986,149.663z"/>
		</defs>
		<use xlink:href="#SVGID_11_"  overflow="visible" fill="#C05D51"/>
		<clipPath id="SVGID_12_">
			<use xlink:href="#SVGID_11_"  overflow="visible"/>
		</clipPath>
		<g clip-path="url(#SVGID_12_)" enable-background="new    ">
			<path fill="#C05D51" d="M87.879,157.791l-4.451,4.913c-0.084-4.895,1.384-9.537,4.558-13.041l4.454-4.915
				C89.265,148.254,87.796,152.896,87.879,157.791"/>
		</g>
	</g>
	<g>
		<polygon fill="#C05D51" points="110.769,186.919 106.313,191.833 105.761,159.479 110.213,154.563 		"/>
	</g>
	<g>
		<defs>
			<path id="SVGID_13_" d="M109.176,193.003c-1.484,1.638-2.968,3.276-4.453,4.914c1.209-1.331,1.639-3.334,1.591-6.084l4.455-4.914
				C110.813,189.67,110.383,191.671,109.176,193.003z"/>
		</defs>
		<use xlink:href="#SVGID_13_"  overflow="visible" fill="#C05D51"/>
		<clipPath id="SVGID_14_">
			<use xlink:href="#SVGID_13_"  overflow="visible"/>
		</clipPath>
		<g clip-path="url(#SVGID_14_)" enable-background="new    ">
			<path fill="#C05D51" d="M109.176,193.003l-4.453,4.914c1.209-1.331,1.639-3.334,1.591-6.084l4.455-4.914
				C110.813,189.67,110.383,191.671,109.176,193.003"/>
		</g>
	</g>
	<g>
		<polygon fill="#C05D51" points="88.444,190.679 83.991,195.593 83.428,162.704 87.879,157.791 		"/>
	</g>
	<g>
		<defs>
			<path id="SVGID_15_" d="M117.033,198.532c-1.483,1.639-2.968,3.276-4.452,4.915c-2.673,2.948-6.554,5.093-11.734,5.903
				c-1.275,0.201-2.477,0.295-3.601,0.294c-8.883-0.017-13.118-6.052-13.255-14.052l4.453-4.914
				c0.136,7.998,4.373,14.035,13.255,14.051c1.123,0.002,2.324-0.092,3.6-0.291C110.48,203.626,114.36,201.481,117.033,198.532z"/>
		</defs>
		<use xlink:href="#SVGID_15_"  overflow="visible" fill="#9B5752"/>
		<clipPath id="SVGID_16_">
			<use xlink:href="#SVGID_15_"  overflow="visible"/>
		</clipPath>
		<g clip-path="url(#SVGID_16_)" enable-background="new    ">
			<path fill="#9B5752" d="M117.033,198.532l-4.452,4.915c-2.673,2.948-6.554,5.093-11.734,5.903
				c-1.275,0.201-2.477,0.295-3.601,0.294c-8.883-0.017-13.118-6.052-13.255-14.052l4.453-4.914
				c0.136,7.998,4.373,14.035,13.255,14.051c1.123,0.002,2.324-0.092,3.6-0.291C110.48,203.626,114.36,201.481,117.033,198.532"/>
		</g>
	</g>
	<g>
		<path fill="#EF836E" d="M107.767,138.553c8.883,0.016,13.126,6.05,13.262,14.058l0.564,32.882
			c0.154,9.018-4.958,17.169-16.294,18.946c-1.275,0.199-2.477,0.293-3.6,0.291c-8.883-0.016-13.12-6.053-13.255-14.051
			l-0.564-32.888c-0.154-9.014,4.954-17.172,16.295-18.945C105.447,138.646,106.644,138.552,107.767,138.553z M110.769,186.919
			l-0.556-32.356c-0.072-4.174-1.18-6.289-4.372-6.293c-0.457-0.002-0.958,0.041-1.502,0.127c-4.366,0.678-5.722,3.193-5.639,7.968
			l0.554,32.355c0.072,4.178,1.181,6.292,4.385,6.297c0.455,0.002,0.953-0.04,1.495-0.125
			C109.493,194.207,110.849,191.691,110.769,186.919"/>
	</g>
	<g>
		<polygon fill="#C05D51" points="152.635,180.46 148.181,185.375 147.356,137.194 151.81,132.28 		"/>
	</g>
	<g>
		<defs>
			<path id="SVGID_17_" d="M150.919,186.424c-1.484,1.639-2.967,3.275-4.451,4.913c1.205-1.329,1.76-3.309,1.713-5.962l4.454-4.915
				C152.679,183.113,152.125,185.094,150.919,186.424z"/>
		</defs>
		<use xlink:href="#SVGID_17_"  overflow="visible" fill="#C05D51"/>
		<clipPath id="SVGID_18_">
			<use xlink:href="#SVGID_17_"  overflow="visible"/>
		</clipPath>
		<g clip-path="url(#SVGID_18_)" enable-background="new    ">
			<path fill="#C05D51" d="M150.919,186.424l-4.451,4.913c1.205-1.329,1.76-3.309,1.713-5.962l4.454-4.915
				C152.679,183.113,152.125,185.094,150.919,186.424"/>
		</g>
	</g>
	<g>
		<polygon fill="#C05D51" points="130.298,183.51 125.846,188.423 125.029,140.69 129.479,135.776 		"/>
	</g>
	<g>
		<defs>
			<path id="SVGID_19_" d="M158.869,192.03c-1.485,1.638-2.97,3.276-4.454,4.914c-2.794,3.084-6.779,5.088-11.708,5.857
				c-1.271,0.198-2.48,0.297-3.627,0.294c-8.145-0.015-13.069-5.063-13.234-14.673l4.452-4.913
				c0.165,9.608,5.089,14.658,13.233,14.672c1.146,0.003,2.357-0.095,3.627-0.294C152.088,197.118,156.074,195.115,158.869,192.03z"
				/>
		</defs>
		<use xlink:href="#SVGID_19_"  overflow="visible" fill="#9B5752"/>
		<clipPath id="SVGID_20_">
			<use xlink:href="#SVGID_19_"  overflow="visible"/>
		</clipPath>
		<g clip-path="url(#SVGID_20_)" enable-background="new    ">
			<path fill="#9B5752" d="M158.869,192.029l-4.454,4.915c-2.794,3.084-6.779,5.088-11.708,5.857
				c-1.271,0.198-2.48,0.297-3.627,0.294c-8.145-0.015-13.069-5.063-13.234-14.673l4.452-4.913
				c0.165,9.608,5.089,14.658,13.233,14.672c1.146,0.003,2.357-0.095,3.627-0.294C152.088,197.118,156.074,195.115,158.869,192.029"
				/>
		</g>
	</g>
	<g>
		<path fill="#EF836E" d="M162.623,130.589l0.818,47.733c0.188,10.967-5.988,17.959-16.283,19.565
			c-1.27,0.199-2.481,0.297-3.627,0.294c-8.145-0.014-13.068-5.063-13.233-14.672l-0.818-47.733l10.816-1.69l0.826,48.175
			c0.069,4.132,1.53,6.185,4.564,6.19c0.406,0.001,0.844-0.035,1.308-0.108c3.93-0.612,5.721-3.201,5.641-7.883l-0.825-48.18
			L162.623,130.589z"/>
	</g>
	<g>
		<polygon fill="#9B5752" points="200.815,134.19 196.363,139.105 185.898,140.74 190.35,135.827 		"/>
	</g>
	<g>
		<polygon fill="#9B5752" points="179.533,137.517 175.082,142.433 164.614,144.072 169.066,139.16 		"/>
	</g>
	<g>
		<polygon fill="#C05D51" points="169.066,139.16 164.614,144.072 164.451,134.521 168.904,129.607 		"/>
	</g>
	<g>
		<polygon fill="#EF836E" points="200.652,124.646 200.815,134.19 190.35,135.827 191.28,190.104 180.465,191.794 179.533,137.517 
			169.066,139.16 168.904,129.607 		"/>
	</g>
	<g>
		<polygon fill="#9B5752" points="191.28,190.104 186.826,195.019 176.011,196.709 180.465,191.794 		"/>
	</g>
	<g>
		<polygon fill="#C05D51" points="180.465,191.794 176.011,196.709 175.082,142.433 179.533,137.517 		"/>
	</g>
	<polygon fill="#E97560" points="11.121,211.661 5.67,219.133 16.136,217.491 	"/>
	<polygon fill="#E97560" points="35.853,208.064 31.841,215.037 42.307,213.4 	"/>
	<polygon fill="#E97560" points="185.881,184.665 180.465,191.794 191.28,190.104 	"/>
	<polygon fill="#EB6444" points="194.866,131.072 200.815,134.19 200.652,124.646 	"/>
	<polygon fill="#EB6444" points="168.904,129.607 169.066,139.16 173.888,133.437 	"/>
	<path fill="#EA5B36" d="M119.737,146.004l-4.744,4.973c0,0-0.215,27.342-0.215,37.235c0,5.935-1.607,7.226-1.607,7.226l4.185,2.925
		c0,0,4.194-4.932,4.194-11.469c0-9.282-0.455-24.84-0.495-32.893C121.026,148.125,119.737,146.004,119.737,146.004z"/>
	<path fill="#EA6449" d="M97.972,197.503l-4.602,4.845c0,0,2.814,1.975,5.848,2.319c6.02,0.69,7.012-0.109,12.344-2.061
		c2.743-1.003,5.793-4.244,5.793-4.244l-4.185-2.925c0,0-1.891,2.571-3.385,3.269c-2.695,1.262-4.761,1.607-8.087,1.147
		C100.208,199.647,97.972,197.503,97.972,197.503z"/>
	<path fill="#EA6449" d="M96.419,148.236l3.223,3.148c0,0-0.664,0.265-0.945,2.877c-0.299,2.795,0.474,25.497,0.474,33.507
		c0,4.806,1.071,5.715,1.071,5.715l-3.306,3.521c0,0-2.62-2.566-2.62-7.86c0-7.517,0.293-28.502,0.293-34.873
		C94.608,150.557,96.419,148.236,96.419,148.236z"/>
	<path fill="#E97560" d="M100.242,193.483l-3.306,3.521c0,0,2.414,2.265,4.13,2.462c3.404,0.39,4.783,0.187,7.813-0.873
		c3.535-1.234,5.111-3.95,5.111-3.95l-4.197-2.656c0,0-1.045,1.85-3.052,2.535c-1.764,0.602-2.718,0.679-4.952,0.121
		C100.963,194.436,100.242,193.483,100.242,193.483z"/>
	<path fill="#EA5A3D" d="M110.213,154.563l4.536-3.571c0,0-1.431-6.334-6.031-7.064c-3.384-0.538-4.665-0.416-7.694,0.645
		c-4.526,1.583-4.902,3.74-4.902,3.74l3.521,3.073c0,0,0.949-1.655,1.938-2.085c2.308-1.004,4.572-1.49,6.577-0.43
		C110.397,150.053,110.213,154.563,110.213,154.563z"/>
	<path fill="none" stroke="#FFFFFF" stroke-miterlimit="10" d="M115.5,187.909c0,5.125-0.936,9.71-8.826,11.443l-2.964,0.347
		c-5.124,0-9.21-4.152-9.21-9.276v-34.072c0-5.122,0.458-10.229,8.09-12.396l4.376-0.434c5.122,0,8.534,4.673,8.534,9.796V187.909z"
		/>
	<polygon fill="#EB644B" points="129.479,135.776 134.941,143.453 140.296,134.086 	"/>
	<polygon fill="#EB644B" points="151.81,132.28 156.992,138.639 162.623,130.589 	"/>
	<path fill="#EA6449" d="M140.296,134.086l-5.354,9.367c0,0,0.042,28.753,0.042,39.636c0,4.132,3.249,7.471,3.249,7.471l4.287-3.26
		c0,0-1.517-2.147-1.517-6.103C141.003,163.188,140.296,134.086,140.296,134.086z"/>
	<path fill="#EA5B36" d="M162.623,130.589l-5.631,8.05c0,0-0.085,29.873-0.085,40.755c0,4.132-1.014,7.885-1.014,7.885l4.037,3.616
		c0,0,3.511-4.11,3.511-12.572C163.441,160.312,162.623,130.589,162.623,130.589z"/>
	<path fill="#EA6449" d="M138.232,190.56l-4.29,3.994c0,0,2.863,2.94,6.2,3.322c6.623,0.758,7.03,0.596,12.896-1.548
		c3.018-1.102,6.893-5.434,6.893-5.434l-4.226-3.785c0,0-1.971,3.55-3.612,4.319c-2.964,1.386-5.972,2.568-9.629,2.063
		C140.821,193.266,138.232,190.56,138.232,190.56z"/>
	<path fill="none" stroke="#FFFFFF" stroke-miterlimit="10" d="M135.5,143v39.21c0,5.741,3.357,11.352,9.1,11.352l2.895-0.388
		c8.837-1.942,9.006-8.039,9.006-13.78V138"/>
	<path fill="#EB644B" d="M53.152,152.335l5.294,3.59c0,0,1.97-0.41,5.264-0.721c1.817-0.172,3.497,0.801,3.497,0.801l3.037-3.896
		c0,0-2.866-1.662-7.658-1.302C57.165,151.215,53.152,152.335,53.152,152.335z"/>
	<path fill="#EB644B" d="M47.476,148.598l5.676,3.737c0,0,6.624-1.298,9.928-1.487c4.829-0.276,6.935,1.261,6.935,1.261l3.954-5.101
		c0,0-2.095-1.933-9.514-0.975C59.066,146.729,47.476,148.598,47.476,148.598z"/>
	<polygon fill="#EA5A3D" points="58.446,155.925 53.152,152.335 53.393,178.416 58.724,173.2 	"/>
	<polygon fill="#EA6449" points="58.961,182.063 53.667,178.473 54.08,207.334 59.229,201.716 	"/>
	<path fill="#EA5B36" d="M54.165,206.989l-5.597,5.437c0,0,16.455-2.487,18.666-2.942c5.846-1.205,8.77-4.041,8.77-4.041
		l-3.008-4.128c0,0-2.704,2.233-5.331,3.182C59.325,207.506,54.165,206.989,54.165,206.989z"/>
	<path fill="#EB644B" d="M64.999,176.811c0,0,11.164,0.52,11.435,14.102c0.171,8.597-3.354,10.661-3.354,10.661l2.924,3.869
		c0,0,6.277-4.816,6.277-16.422c0-3.385-0.345-11.692-8.856-14.1C71.147,174.275,64.999,176.811,64.999,176.811z"/>
	<g>
		<line fill="none" stroke="#FFFFFF" stroke-miterlimit="10" x1="52.934" y1="152.223" x2="53.966" y2="207.133"/>
		<path fill="none" stroke="#FFFFFF" stroke-miterlimit="10" d="M52.705,152.395c0,0,13.756-3.037,18.34,0.171
			c5.918,4.144,3.504,15.103,0,19.146c-4.197,4.843-8.481,5.502-8.481,5.502"/>
		<path fill="none" stroke="#FFFFFF" stroke-miterlimit="10" d="M62.563,177.213c0,0,4.814-0.916,9.4,2.295
			c5.918,4.14,5.316,17.354,1.605,21.206c-6.077,6.305-19.833,6.533-19.833,6.533"/>
		<line fill="none" stroke="#FFFFFF" stroke-miterlimit="10" x1="63.237" y1="177.114" x2="53.393" y2="178.274"/>
	</g>
	<polygon fill="#EA5A3D" points="33.274,195.556 29.678,201.193 17.815,203.048 13.459,198.002 	"/>
	<polygon fill="#EA6449" points="17.815,203.048 13.459,198.002 11.091,211.761 16.136,217.491 	"/>
	<polygon fill="#EA5A3D" points="23.027,165.188 19.688,158.929 13.5,198.134 19.224,193.259 	"/>
	<polygon fill="#E77762" points="19.688,158.929 23.128,165.378 25.537,158.241 	"/>
	<polygon fill="#EA5A3D" points="25.537,158.241 29.616,151.391 42.307,213.4 35.853,208.064 	"/>
	<polygon fill="#E96449" points="16.18,153.493 19.862,159.187 25.537,158.241 29.616,151.391 	"/>
	<g>
		<line fill="none" stroke="#FFFFFF" stroke-miterlimit="10" x1="11.091" y1="212.234" x2="19.688" y2="158.929"/>
		<line fill="none" stroke="#FFFFFF" stroke-miterlimit="10" x1="19.346" y1="158.95" x2="25.902" y2="158.284"/>
		<line fill="none" stroke="#FFFFFF" stroke-miterlimit="10" x1="25.537" y1="158.241" x2="35.853" y2="208.623"/>
		<line fill="none" stroke="#FFFFFF" stroke-miterlimit="10" x1="13.5" y1="198.134" x2="33.103" y2="195.384"/>
	</g>
	<g>
		<polygon fill="#EA6449" points="200.815,134.19 195.35,130.941 184.665,132.052 190.35,135.827 		"/>
	</g>
	<g>
		<polygon fill="#EA6449" points="169.066,139.16 173.888,133.437 184.665,132.052 179.533,137.517 		"/>
	</g>
	<g>
		<polygon fill="#EA5B36" points="190.35,135.827 184.665,132.052 185.91,184.778 191.28,190.104 		"/>
	</g>
	<g>
		<line fill="none" stroke="#FFFFFF" stroke-miterlimit="10" x1="184.498" y1="132.304" x2="185.91" y2="185.122"/>
		<path fill="none" stroke="#FFFFFF" stroke-miterlimit="10" d="M195.35,130.941c0,0-5.854,0.546-10.685,1.11
			c-4.975,0.581-11.243,1.389-11.243,1.389"/>
	</g>
</g>
</svg>
