<?xml version="1.0" encoding="utf-8"?>
<!-- Generator: Adobe Illustrator 16.0.0, SVG Export Plug-In . SVG Version: 6.00 Build 0)  -->
<!DOCTYPE svg PUBLIC "-//W3C//DTD SVG 1.1//EN" "http://www.w3.org/Graphics/SVG/1.1/DTD/svg11.dtd">
<svg version="1.1" id="Layer_1" xmlns="http://www.w3.org/2000/svg" xmlns:xlink="http://www.w3.org/1999/xlink" x="0px" y="0px"
	 width="80px" height="80px" viewBox="0 0 80 80" enable-background="new 0 0 80 80" xml:space="preserve">
<g>
	<g>
		
			<linearGradient id="SVGID_1_" gradientUnits="userSpaceOnUse" x1="9.5171" y1="77.2305" x2="4.8064" y2="97.4046" gradientTransform="matrix(0.9974 0.0727 -0.0727 0.9974 31.9129 -20.7044)">
			<stop  offset="0" style="stop-color:#000211"/>
			<stop  offset="1" style="stop-color:#031C10"/>
		</linearGradient>
		<path fill="url(#SVGID_1_)" d="M33.431,47.42c0,0-12.682,23.756-10.727,26.335c0,0,0.304,0.969,1.81,0.747
			c0,0-0.714,1.629,1.051,3.19c1.773,1.563,3.578-0.212,3.578-0.212s0.755,2.104,3.321,2.29c2.384,0.174,2.828-2.099,2.828-2.099
			s1.309,1.236,2.952-0.853c1.155-1.47,1.336-28.034,1.336-28.034L33.431,47.42z"/>
		<g>
			<g>
				<defs>
					<path id="SVGID_2_" d="M35.602,27.975l-7.386-5.599c0,0-2.61-4.22-4.954-12.066c-0.88-2.952-1.729-10.222-5.616-9.943
						C13.76,0.65,10.513,8.07,20.889,22.956c0,0-6.867-9.289-8.366-12.343c-0.513-1.048-3.312-7.009-5.35-0.646
						c-2.436,7.613,13.406,19.658,13.406,19.658s-0.513-0.009-3.768-2.355c-2.625-1.892-6.944-7.569-8.537-5.235
						c-2.436,3.567,2.817,8.026,11.876,13.886c2.429,1.57,7.97,7.757,7.97,7.757l4.19-0.044L35.602,27.975z"/>
				</defs>
				
					<radialGradient id="SVGID_3_" cx="33.8301" cy="30.7793" r="33.5847" gradientTransform="matrix(0.9365 0 0 0.9365 2.5457 2.5429)" gradientUnits="userSpaceOnUse">
					<stop  offset="0" style="stop-color:#000211"/>
					<stop  offset="0.1402" style="stop-color:#040212"/>
					<stop  offset="0.2691" style="stop-color:#0F0116"/>
					<stop  offset="0.3374" style="stop-color:#180019"/>
					<stop  offset="1" style="stop-color:#031C10"/>
				</radialGradient>
				<use xlink:href="#SVGID_2_"  overflow="visible" fill="url(#SVGID_3_)"/>
				<clipPath id="SVGID_4_">
					<use xlink:href="#SVGID_2_"  overflow="visible"/>
				</clipPath>
			</g>
		</g>
		<g>
			<g>
				<defs>
					<path id="SVGID_5_" d="M45.548,30.28l7.504-1.909c0,0,3.379-2.4,7.731-7.677c1.64-1.987,4.654-7.307,7.553-5.829
						c2.899,1.48,2.989,8.247-9.833,16.332c0,0,8.303-4.918,10.449-6.783c0.734-0.64,4.827-4.317,4.327,1.242
						c-0.598,6.651-16.706,10.776-16.706,10.776s0.4,0.159,3.665-0.589c2.636-0.604,7.805-3.57,8.273-1.257
						c0.716,3.538-4.779,5.264-13.654,6.832c-2.378,0.421-8.654,3.38-8.654,3.38l-3.209-1.395L45.548,30.28z"/>
				</defs>
				
					<radialGradient id="SVGID_6_" cx="41.8521" cy="35.0337" r="35.4689" gradientTransform="matrix(0.9365 0 0 0.9365 2.5457 2.5429)" gradientUnits="userSpaceOnUse">
					<stop  offset="0" style="stop-color:#000211"/>
					<stop  offset="0.1402" style="stop-color:#040212"/>
					<stop  offset="0.2691" style="stop-color:#0F0116"/>
					<stop  offset="0.3374" style="stop-color:#180019"/>
					<stop  offset="1" style="stop-color:#031C10"/>
				</radialGradient>
				<use xlink:href="#SVGID_5_"  overflow="visible" fill="url(#SVGID_6_)"/>
				<clipPath id="SVGID_7_">
					<use xlink:href="#SVGID_5_"  overflow="visible"/>
				</clipPath>
			</g>
		</g>
		<g>
			
				<radialGradient id="SVGID_8_" cx="41.6089" cy="12.7896" r="25.3782" gradientTransform="matrix(0.9365 0 0 0.9365 2.5457 2.5429)" gradientUnits="userSpaceOnUse">
				<stop  offset="0" style="stop-color:#3D7D61"/>
				<stop  offset="0.0257" style="stop-color:#39775D"/>
				<stop  offset="0.1481" style="stop-color:#275C4C"/>
				<stop  offset="0.274" style="stop-color:#1A4A40"/>
				<stop  offset="0.4044" style="stop-color:#123F38"/>
				<stop  offset="0.546" style="stop-color:#103B36"/>
				<stop  offset="1" style="stop-color:#000211"/>
			</radialGradient>
			<path fill="url(#SVGID_8_)" d="M41.075,11.815c0,0-8.359-0.879-11.294,6.455c-2.935,7.337-2.349,26.087-1.027,28.009
				c0,0,1.321,6.031,7.482,7.352c6.16,1.322,11.149-9.687,11.149-9.687S60.001,12.549,41.075,11.815z"/>
			<g>
				<defs>
					<path id="SVGID_9_" d="M41.075,11.815c0,0-8.359-0.879-11.294,6.455c-2.935,7.337-2.349,26.087-1.027,28.009
						c0,0,1.321,6.031,7.482,7.352c6.16,1.322,11.149-9.687,11.149-9.687S60.001,12.549,41.075,11.815z"/>
				</defs>
				
					<radialGradient id="SVGID_10_" cx="41.6089" cy="12.7896" r="25.3782" gradientTransform="matrix(0.9365 0 0 0.9365 2.5457 2.5429)" gradientUnits="userSpaceOnUse">
					<stop  offset="0" style="stop-color:#3D7D61"/>
					<stop  offset="0.0257" style="stop-color:#39775D"/>
					<stop  offset="0.1481" style="stop-color:#275C4C"/>
					<stop  offset="0.274" style="stop-color:#1A4A40"/>
					<stop  offset="0.4044" style="stop-color:#123F38"/>
					<stop  offset="0.546" style="stop-color:#103B36"/>
					<stop  offset="1" style="stop-color:#000211"/>
				</radialGradient>
				<use xlink:href="#SVGID_9_"  overflow="visible" fill="url(#SVGID_10_)"/>
				<clipPath id="SVGID_11_">
					<use xlink:href="#SVGID_9_"  overflow="visible"/>
				</clipPath>
				
					<radialGradient id="SVGID_12_" cx="41.6089" cy="12.7896" r="25.3785" gradientTransform="matrix(0.9365 0 0 0.9365 2.5457 2.5429)" gradientUnits="userSpaceOnUse">
					<stop  offset="0" style="stop-color:#3D7D61"/>
					<stop  offset="0.0257" style="stop-color:#39775D"/>
					<stop  offset="0.1481" style="stop-color:#275C4C"/>
					<stop  offset="0.274" style="stop-color:#1A4A40"/>
					<stop  offset="0.4044" style="stop-color:#123F38"/>
					<stop  offset="0.546" style="stop-color:#103B36"/>
					<stop  offset="1" style="stop-color:#000211"/>
				</radialGradient>
				<path clip-path="url(#SVGID_11_)" fill="url(#SVGID_12_)" d="M28.098,45.358c0,0,0.736-21.574,3.373-20.983l23.938-4.241
					L43.355,9.266l-14.672,2.785l-3.375,31.546L28.098,45.358z"/>
			</g>
		</g>
		<g>
			<path fill="#FFF1D4" d="M28.282,26.702c0,0-0.038-1.569-0.088-2.089c-0.058-0.594-0.381-2.491,0.677-2.29
				c0.484,0.091,0.514,1.144,0.514,1.144s-0.956-2.213-0.726,2.87c0.035,0.761,0.138,2.298-0.47,2.171
				c-0.484-0.103-0.433-1.053-0.433-1.053S28.392,28.356,28.282,26.702z"/>
			<path fill="#FFF1D4" d="M29.494,27.249c0,0,0.327-1.213,0.465-1.609c0.157-0.451,0.768-1.865-0.092-1.91
				c-0.394-0.021-0.617,0.792-0.617,0.792s1.164-1.539,0.02,2.369c-0.171,0.586-0.542,1.764-0.045,1.779
				c0.394,0.012,0.536-0.739,0.536-0.739S29.095,28.516,29.494,27.249z"/>
			<path fill="#FFF1D4" d="M30.335,27.887c0,0,0.125-1.162,0.139-1.551c0.018-0.445-0.034-1.879,0.727-1.626
				c0.349,0.115,0.268,0.896,0.268,0.896s-0.488-1.729-0.82,2.048c-0.049,0.566-0.125,1.711-0.562,1.559
				c-0.346-0.122-0.216-0.824-0.216-0.824S30.252,29.122,30.335,27.887z"/>
			<path fill="#FFF1D4" d="M31.538,28.427c0,0,0.277-0.883,0.392-1.168c0.13-0.328,0.623-1.348-0.008-1.408
				c-0.289-0.028-0.478,0.563-0.478,0.563s0.904-1.096-0.059,1.744c-0.145,0.425-0.456,1.278-0.09,1.305
				c0.29,0.022,0.417-0.525,0.417-0.525S31.204,29.345,31.538,28.427z"/>
			<path fill="#FFF1D4" d="M32.628,27.561c0,0-0.247,0.781-0.348,1.035c-0.116,0.29-0.553,1.194,0.007,1.248
				c0.255,0.024,0.423-0.5,0.423-0.5s-0.802,0.972,0.053-1.544c0.127-0.377,0.403-1.134,0.08-1.158
				c-0.255-0.021-0.37,0.466-0.37,0.466S32.924,26.745,32.628,27.561z"/>
		</g>
		<path fill="#FFF1D4" d="M49.704,30.37c0,0-0.222,0.703-0.312,0.931c-0.104,0.261-0.497,1.073,0.006,1.123
			c0.23,0.021,0.38-0.45,0.38-0.45s-0.72,0.875,0.048-1.389c0.115-0.339,0.361-1.019,0.072-1.04
			c-0.231-0.018-0.333,0.419-0.333,0.419S49.97,29.638,49.704,30.37z"/>
		<path fill="#FFF1D4" d="M51.162,28.558c0,0-0.424,1.347-0.598,1.783c-0.2,0.499-0.953,2.058,0.011,2.148
			c0.442,0.042,0.73-0.86,0.73-0.86s-1.379,1.671,0.091-2.66c0.221-0.649,0.694-1.952,0.138-1.993
			c-0.442-0.033-0.638,0.802-0.638,0.802S51.672,27.155,51.162,28.558z"/>
		<g>
			
				<radialGradient id="SVGID_13_" cx="43.6748" cy="18.624" r="17.1312" gradientTransform="matrix(0.9365 0 0 0.9365 2.5457 2.5429)" gradientUnits="userSpaceOnUse">
				<stop  offset="0" style="stop-color:#457864"/>
				<stop  offset="0.217" style="stop-color:#437562"/>
				<stop  offset="0.4087" style="stop-color:#3E6A5A"/>
				<stop  offset="0.591" style="stop-color:#36584D"/>
				<stop  offset="0.7662" style="stop-color:#2A3E3B"/>
				<stop  offset="0.908" style="stop-color:#1D2428"/>
			</radialGradient>
			<path fill="url(#SVGID_13_)" d="M37.991,15.576c0,0-3.474-0.603-3.849,2.641c-0.144,1.234-0.756,2.359-1.783,3.071
				c-0.733,0.509-1.562,0.38-1.298,1.451c0.188,0.78,0.791,1.692,1.195,2.395c1.431,2.469,3.155,4.677,5.543,6.287
				c1.176,0.793,2.555,1.413,3.823,2.054c1.523,0.772,1.86,1.052,3.39,0.18c0.943-0.541,1.853-0.858,2.62-1.677
				c1.012-1.081,1.783-2.475,2.452-3.779c0.533-1.035,0.963-2.111,1.287-3.224c0.335-1.159,1.327-2.718,0.883-3.942
				c-0.438-1.207-2.263-1.88-2.263-3.345c0-1.056-4.453-4.524-5.965-0.225c0,0-1.056,1.206-2.525,0
				C41.499,17.462,41.009,15.651,37.991,15.576z"/>
			
				<radialGradient id="SVGID_14_" cx="43.6748" cy="18.624" r="17.1312" gradientTransform="matrix(0.9365 0 0 0.9365 2.5457 2.5429)" gradientUnits="userSpaceOnUse">
				<stop  offset="0" style="stop-color:#457864"/>
				<stop  offset="0.217" style="stop-color:#437562"/>
				<stop  offset="0.4087" style="stop-color:#3E6A5A"/>
				<stop  offset="0.591" style="stop-color:#36584D"/>
				<stop  offset="0.7662" style="stop-color:#2A3E3B"/>
				<stop  offset="0.908" style="stop-color:#1D2428"/>
			</radialGradient>
			<path fill="url(#SVGID_14_)" d="M37.991,15.576c0,0-3.474-0.603-3.849,2.641c-0.144,1.234-0.756,2.359-1.783,3.071
				c-0.733,0.509-1.562,0.38-1.298,1.451c0.188,0.78,0.791,1.692,1.195,2.395c1.431,2.469,3.155,4.677,5.543,6.287
				c1.176,0.793,2.555,1.413,3.823,2.054c1.523,0.772,1.86,1.052,3.39,0.18c0.943-0.541,1.853-0.858,2.62-1.677
				c1.012-1.081,1.783-2.475,2.452-3.779c0.533-1.035,0.963-2.111,1.287-3.224c0.335-1.159,1.327-2.718,0.883-3.942
				c-0.438-1.207-2.263-1.88-2.263-3.345c0-1.056-4.453-4.524-5.965-0.225c0,0-1.056,1.206-2.525,0
				C41.499,17.462,41.009,15.651,37.991,15.576z"/>
			
				<radialGradient id="SVGID_15_" cx="43.6748" cy="18.624" r="17.1312" gradientTransform="matrix(0.9365 0 0 0.9365 2.5457 2.5429)" gradientUnits="userSpaceOnUse">
				<stop  offset="0" style="stop-color:#457864"/>
				<stop  offset="0.217" style="stop-color:#437562"/>
				<stop  offset="0.4087" style="stop-color:#3E6A5A"/>
				<stop  offset="0.591" style="stop-color:#36584D"/>
				<stop  offset="0.7662" style="stop-color:#2A3E3B"/>
				<stop  offset="0.908" style="stop-color:#1D2428"/>
			</radialGradient>
			<path fill="url(#SVGID_15_)" d="M37.991,15.576c0,0-3.474-0.603-3.849,2.641c-0.144,1.234-0.756,2.359-1.783,3.071
				c-0.733,0.509-1.562,0.38-1.298,1.451c0.188,0.78,0.791,1.692,1.195,2.395c1.431,2.469,3.155,4.677,5.543,6.287
				c1.176,0.793,2.555,1.413,3.823,2.054c1.523,0.772,1.86,1.052,3.39,0.18c0.943-0.541,1.853-0.858,2.62-1.677
				c1.012-1.081,1.783-2.475,2.452-3.779c0.533-1.035,0.963-2.111,1.287-3.224c0.335-1.159,1.327-2.718,0.883-3.942
				c-0.438-1.207-2.263-1.88-2.263-3.345c0-1.056-4.453-4.524-5.965-0.225c0,0-1.056,1.206-2.525,0
				C41.499,17.462,41.009,15.651,37.991,15.576z"/>
			
				<radialGradient id="SVGID_16_" cx="43.6748" cy="18.624" r="17.1312" gradientTransform="matrix(0.9365 0 0 0.9365 2.5457 2.5429)" gradientUnits="userSpaceOnUse">
				<stop  offset="0" style="stop-color:#457864"/>
				<stop  offset="0.217" style="stop-color:#437562"/>
				<stop  offset="0.4087" style="stop-color:#3E6A5A"/>
				<stop  offset="0.591" style="stop-color:#36584D"/>
				<stop  offset="0.7662" style="stop-color:#2A3E3B"/>
				<stop  offset="0.908" style="stop-color:#1D2428"/>
			</radialGradient>
			<path fill="url(#SVGID_16_)" d="M37.991,15.576c0,0-3.474-0.603-3.849,2.641c-0.144,1.234-0.756,2.359-1.783,3.071
				c-0.733,0.509-1.562,0.38-1.298,1.451c0.188,0.78,0.791,1.692,1.195,2.395c1.431,2.469,3.155,4.677,5.543,6.287
				c1.176,0.793,2.555,1.413,3.823,2.054c1.523,0.772,1.86,1.052,3.39,0.18c0.943-0.541,1.853-0.858,2.62-1.677
				c1.012-1.081,1.783-2.475,2.452-3.779c0.533-1.035,0.963-2.111,1.287-3.224c0.335-1.159,1.327-2.718,0.883-3.942
				c-0.438-1.207-2.263-1.88-2.263-3.345c0-1.056-4.453-4.524-5.965-0.225c0,0-1.056,1.206-2.525,0
				C41.499,17.462,41.009,15.651,37.991,15.576z"/>
		</g>
		<g>
			<g>
				<g>
					<path fill="#0D0000" d="M41.014,19.312c0,1.211-0.98,2.192-2.192,2.192c-1.212,0-2.194-0.981-2.194-2.192
						c0-0.418,0.119-0.813,0.321-1.145c0.387-0.628,1.078-1.048,1.873-1.048C40.033,17.12,41.014,18.101,41.014,19.312z"/>
					<path fill="#0D0000" d="M36.949,18.167c0,0-0.834,0.284-1.347-0.765c0,0,0.144,2.758,2.383,3.938l0.156-1.605L36.949,18.167z"
						/>
				</g>
			</g>
			<g>
				<g>
					<path fill="#0D0000" d="M45,19.369c0,1.04,0.846,1.884,1.884,1.884c1.042,0,1.883-0.845,1.883-1.884
						c0-0.36-0.098-0.701-0.277-0.984c-0.329-0.541-0.929-0.901-1.606-0.901C45.846,17.484,45,18.329,45,19.369z"/>
					<path fill="#0D0000" d="M48.49,18.385c0,0,0.719,0.245,1.16-0.658c0,0,0.254,2.158-1.667,3.169l-0.513-1.165L48.49,18.385z"/>
				</g>
			</g>
			<circle fill="#F3EDE5" cx="46.214" cy="18.575" r="0.505"/>
			<circle fill="#F3EDE5" cx="38.491" cy="18.575" r="0.506"/>
			
				<radialGradient id="SVGID_17_" cx="125.3438" cy="-131.894" r="2.3955" gradientTransform="matrix(0.8572 -0.3772 0.3772 0.8572 -8.1735 183.1877)" gradientUnits="userSpaceOnUse">
				<stop  offset="0" style="stop-color:#30465F"/>
				<stop  offset="0.2303" style="stop-color:#2E3848"/>
				<stop  offset="0.7424" style="stop-color:#2B1B1B"/>
				<stop  offset="1" style="stop-color:#2A1009"/>
			</radialGradient>
			<path fill="url(#SVGID_17_)" d="M51.815,21.465c0.419,0.951-0.73,2.582-2.105,3.188c-1.368,0.601-2.25,0.108-2.668-0.844
				c-0.419-0.951,0.447-1.969,1.815-2.571C50.23,20.631,51.396,20.515,51.815,21.465z"/>
			
				<radialGradient id="SVGID_18_" cx="660.0693" cy="103.1592" r="2.3949" gradientTransform="matrix(-0.8572 -0.3772 -0.3772 0.8572 640.5134 183.1877)" gradientUnits="userSpaceOnUse">
				<stop  offset="0" style="stop-color:#30465F"/>
				<stop  offset="0.2303" style="stop-color:#2E3848"/>
				<stop  offset="0.7424" style="stop-color:#2B1B1B"/>
				<stop  offset="1" style="stop-color:#2A1009"/>
			</radialGradient>
			<path fill="url(#SVGID_18_)" d="M33.477,21.238c-0.418,0.95,0.73,2.583,2.105,3.187c1.368,0.603,2.25,0.107,2.667-0.842
				c0.42-0.953-0.446-1.97-1.814-2.573C35.061,20.404,33.894,20.287,33.477,21.238z"/>
			<g>
				<path fill="#43423F" d="M44.469,21.029c-1.273-0.165-2.139,0.116-2.256,1.303c-0.079,0.782,0.688,1.211,1.689,1.29
					c1.518,0.118,2.621-0.443,4.227-0.482c1.723-0.043,1.788-0.197,2.862,0.396C51.327,23.721,50.984,21.865,44.469,21.029z"/>
				<path fill="#0D0000" d="M44.982,23.782c-0.998,0.176-2.869-0.229-2.792-1.349c0.063-0.926,1.566,0.113,2.333,0.305
					c1.108,0.28,1.584,0.313,3.21,0.243c1.355-0.058,1.54-0.119,2.155,0.128C49.95,23.133,48.342,23.188,44.982,23.782z"/>
			</g>
		</g>
		<path fill="#FFFFFF" d="M43.388,33.273c2.852,0.41,1.554,5.256-0.899,5.95c-1.861,0.527-3.342-0.568-4.501-2.114
			c-1.16-1.546-1.073-3.415,0.5-4.536C39.636,31.755,41.42,32.991,43.388,33.273z"/>
	</g>
	<path fill-rule="evenodd" clip-rule="evenodd" fill="#120018" d="M44.203,21.264c0.099,0.043,0.157,0.097,0.157,0.156
		c0,0.136-0.307,0.246-0.683,0.246c-0.313,0-0.577-0.078-0.656-0.179c-0.042,0.039-0.065,0.082-0.065,0.126
		c0,0.202,0.441,0.365,0.986,0.365c0.546,0,0.987-0.163,0.987-0.365C44.929,21.447,44.621,21.307,44.203,21.264z"/>
	<path fill="#E3D7CF" d="M42.226,33.247c-0.57-0.283-1.008-0.585-1.281-0.541c0.095,0.008,0.569,0.484,0.995,0.74
		c1.175,0.705,1.716,1.577,1.389,3.086c-0.258,1.189-1.154,2.055-2.178,2.224c1.238,0.103,2.423-0.848,2.727-2.248
		C44.203,35,43.452,33.86,42.226,33.247z"/>
</g>
<g>
	
		<radialGradient id="SVGID_19_" cx="-722.1445" cy="-1925.4253" r="6.5102" gradientTransform="matrix(0.4109 0.8416 -0.8416 0.4109 -1289.0706 1452.7015)" gradientUnits="userSpaceOnUse">
		<stop  offset="0" style="stop-color:#3F2C28"/>
		<stop  offset="0.131" style="stop-color:#2D2021"/>
		<stop  offset="0.3563" style="stop-color:#141018"/>
		<stop  offset="0.5623" style="stop-color:#050513"/>
		<stop  offset="0.7301" style="stop-color:#000211"/>
	</radialGradient>
	<path fill-rule="evenodd" clip-rule="evenodd" fill="url(#SVGID_19_)" d="M34.129,51.03c-0.343-0.349-1.529-0.714-1.911-0.406
		c-0.307,0.247-0.667,2.926-0.721,3.317c-0.085,0.619,0.052,1.243,0.052,1.243l1.119-2.266c0,0-0.236,2.694,0.204,2.679
		c0.172-0.009,0.646-2.84,0.646-2.84l0.351,2.928c0,0,0.591-0.343,0.575-3.098C34.442,52.19,34.409,51.312,34.129,51.03z"/>
	
		<radialGradient id="SVGID_20_" cx="-719.0879" cy="-1930.2446" r="6.5118" gradientTransform="matrix(0.4109 0.8416 -0.8416 0.4109 -1289.0706 1452.7015)" gradientUnits="userSpaceOnUse">
		<stop  offset="0" style="stop-color:#3F2C28"/>
		<stop  offset="0.131" style="stop-color:#2D2021"/>
		<stop  offset="0.3563" style="stop-color:#141018"/>
		<stop  offset="0.5623" style="stop-color:#050513"/>
		<stop  offset="0.7301" style="stop-color:#000211"/>
	</radialGradient>
	<path fill-rule="evenodd" clip-rule="evenodd" fill="url(#SVGID_20_)" d="M39.441,51.623c-0.343-0.347-1.53-0.714-1.911-0.407
		c-0.308,0.247-0.749,2.983-0.825,3.37c-0.067,0.352,0.155,1.19,0.155,1.19l0.985-2.792c0,0-0.104,3.224,0.338,3.204
		c0.172-0.006,0.877-3.196,0.877-3.196l0.12,3.286c0,0,0.591-0.344,0.573-3.099C39.752,52.783,39.721,51.905,39.441,51.623z"/>
</g>
</svg>
