<?xml version="1.0" encoding="utf-8"?>
<!-- Generator: Adobe Illustrator 16.0.0, SVG Export Plug-In . SVG Version: 6.00 Build 0)  -->
<!DOCTYPE svg PUBLIC "-//W3C//DTD SVG 1.1//EN" "http://www.w3.org/Graphics/SVG/1.1/DTD/svg11.dtd">
<svg version="1.1" id="Layer_1" xmlns="http://www.w3.org/2000/svg" xmlns:xlink="http://www.w3.org/1999/xlink" x="0px" y="0px"
	 width="80px" height="80px" viewBox="0 0 80 80" enable-background="new 0 0 80 80" xml:space="preserve">
<g>
	<g>
		<g>
			<path fill-rule="evenodd" clip-rule="evenodd" fill="#EDDBAE" d="M38.29,38.539c0,0-7.45,18.662-10.979,30.676
				c-0.529,1.809-0.596,2.455,0.102,2.665c0.509,0.152,1.127-0.833,1.465-2.286C31.707,57.448,38.29,38.539,38.29,38.539z"/>
			<path fill-rule="evenodd" clip-rule="evenodd" fill="#EDDBAE" d="M40.057,39.486c0,0,1.144,20.061,0.675,32.578
				c-0.069,1.878-0.21,2.515-0.939,2.489c-0.532-0.016-0.803-1.145-0.662-2.63C40.301,59.507,40.057,39.486,40.057,39.486z"/>
			
				<linearGradient id="SVGID_1_" gradientUnits="userSpaceOnUse" x1="959.3984" y1="69.1318" x2="953.2487" y2="95.4688" gradientTransform="matrix(0.6892 0.0503 -0.0727 0.9974 -616.9238 -67.4118)">
				<stop  offset="0" style="stop-color:#4D322C"/>
				<stop  offset="1" style="stop-color:#2A1009"/>
			</linearGradient>
			<path fill="url(#SVGID_1_)" d="M38.87,37.502c0,0-12.768,32.41-11.287,35.304c0,0,0.217,1.098,1.415,0.806
				c0,0-0.608,1.88,0.749,3.615c1.365,1.737,2.838-0.336,2.838-0.336s0.545,2.382,2.57,2.531c1.884,0.139,2.293-2.47,2.293-2.47
				s1.004,1.377,2.358-1.047c1.306-2.336,0.209-38.174,0.209-38.174L38.87,37.502z"/>
			
				<radialGradient id="SVGID_2_" cx="36.0254" cy="46.9614" r="14.0914" gradientTransform="matrix(-0.4007 1.4425 -0.3156 -0.0877 64.352 2.4814)" gradientUnits="userSpaceOnUse">
				<stop  offset="0.2699" style="stop-color:#4D322C"/>
				<stop  offset="0.4393" style="stop-color:#52372E"/>
				<stop  offset="0.6473" style="stop-color:#614535"/>
				<stop  offset="0.8746" style="stop-color:#7A5C41"/>
				<stop  offset="1" style="stop-color:#8B6C49"/>
			</radialGradient>
			<path fill-rule="evenodd" clip-rule="evenodd" fill="url(#SVGID_2_)" d="M36.007,50.386c0,0-4.573,12.818-7.064,21.008
				c-0.375,1.229-0.424,1.671,0.053,1.817c0.348,0.108,0.777-0.561,1.018-1.552C32.027,63.382,36.007,50.386,36.007,50.386z"/>
			
				<radialGradient id="SVGID_3_" cx="8.8096" cy="368.3828" r="15.3299" gradientTransform="matrix(-0.1733 1.487 -0.3253 -0.0379 157.7936 51.7089)" gradientUnits="userSpaceOnUse">
				<stop  offset="0.2699" style="stop-color:#4D322C"/>
				<stop  offset="0.4393" style="stop-color:#52372E"/>
				<stop  offset="0.6473" style="stop-color:#614535"/>
				<stop  offset="0.8746" style="stop-color:#7A5C41"/>
				<stop  offset="1" style="stop-color:#8B6C49"/>
			</radialGradient>
			<path fill-rule="evenodd" clip-rule="evenodd" fill="url(#SVGID_3_)" d="M37.507,50.733c0,0-3.598,15.563-4.795,24.037
				c-0.182,1.273-0.161,1.718,0.333,1.79c0.359,0.051,0.68-0.676,0.767-1.69C34.521,66.379,37.507,50.733,37.507,50.733z"/>
			
				<radialGradient id="SVGID_4_" cx="-3922.772" cy="-552.9785" r="14.5946" gradientTransform="matrix(-0.0995 1.5908 0.3371 0.0144 -164.136 6297.8882)" gradientUnits="userSpaceOnUse">
				<stop  offset="0.2699" style="stop-color:#4D322C"/>
				<stop  offset="0.4393" style="stop-color:#52372E"/>
				<stop  offset="0.6473" style="stop-color:#614535"/>
				<stop  offset="0.8746" style="stop-color:#7A5C41"/>
				<stop  offset="1" style="stop-color:#8B6C49"/>
			</radialGradient>
			<path fill-rule="evenodd" clip-rule="evenodd" fill="url(#SVGID_4_)" d="M38.63,49.528h0.235c0,0-0.581,19.529-0.759,24.125
				c-0.055,1.369,0.117,2.116-0.398,2.109c-0.373-0.006-0.372-1.21-0.271-2.29C38.288,64.437,38.63,49.528,38.63,49.528z"/>
		</g>
		<g>
			<linearGradient id="SVGID_5_" gradientUnits="userSpaceOnUse" x1="69.4277" y1="7.5542" x2="56.1816" y2="26.0186">
				<stop  offset="0.2883" style="stop-color:#4D322C"/>
				<stop  offset="0.6611" style="stop-color:#381E17"/>
				<stop  offset="1" style="stop-color:#2A1009"/>
			</linearGradient>
			<path fill="url(#SVGID_5_)" d="M49.429,25.006c1.086-0.625,2.159-1.259,3.245-1.886c0.354-0.205,0.737-0.373,1.064-0.639
				c0.344-0.275,0.547-0.652,0.823-0.985c0.776-0.943,1.417-2.078,1.971-3.154c0.452-0.862,0.714-1.886,1.229-2.699
				c0.009,0,3.401-5.306,5.179-4.686c1.77,0.627,1.06,7.05-5.874,12.748c0,0,4.318-1.652,5.909-3.463c0,0,2.531-3.155,2.433,0.908
				c-0.091,4.07-9.202,6.589-9.202,6.589s-0.535,0.476,0.423,0.788c0,0,6.115-2.889,5.899-1.183
				c-0.218,1.713-4.887,3.314-7.12,3.589c0,0-1.431,0.333-0.63,0.702c0,0,2.928-0.643,2.857,0.746
				c-0.068,1.394-9.054,2.41-9.054,2.41L49.429,25.006z"/>
			<g>
				<defs>
					<path id="SVGID_6_" d="M49.429,25.006l4.31-2.499c0,0,2.132-2.193,4.023-6.864c0,0,3.401-5.306,5.179-4.686
						c1.77,0.627,1.06,7.05-5.874,12.748c0,0,4.318-1.652,5.909-3.463c0,0,2.531-3.155,2.433,0.908
						c-0.091,4.07-9.202,6.589-9.202,6.589s-0.535,0.476,0.423,0.788c0,0,6.115-2.889,5.899-1.183
						c-0.218,1.713-4.887,3.314-7.12,3.589c0,0-1.431,0.333-0.63,0.702c0,0,2.928-0.643,2.857,0.746
						c-0.068,1.394-3.916,2.506-5.827,2.668c-1.89,0.161-3.227-0.259-3.227-0.259L49.429,25.006z"/>
				</defs>
				<linearGradient id="SVGID_7_" gradientUnits="userSpaceOnUse" x1="69.4277" y1="7.5542" x2="56.1816" y2="26.0186">
					<stop  offset="0.2883" style="stop-color:#4D322C"/>
					<stop  offset="0.6611" style="stop-color:#381E17"/>
					<stop  offset="1" style="stop-color:#2A1009"/>
				</linearGradient>
				<use xlink:href="#SVGID_6_"  overflow="visible" fill="url(#SVGID_7_)"/>
				<clipPath id="SVGID_8_">
					<use xlink:href="#SVGID_6_"  overflow="visible"/>
				</clipPath>
				<linearGradient id="SVGID_9_" gradientUnits="userSpaceOnUse" x1="69.4268" y1="7.5537" x2="56.1806" y2="26.0181">
					<stop  offset="0.2883" style="stop-color:#4D322C"/>
					<stop  offset="0.6611" style="stop-color:#381E17"/>
					<stop  offset="1" style="stop-color:#2A1009"/>
				</linearGradient>
				<path clip-path="url(#SVGID_8_)" fill="url(#SVGID_9_)" d="M49.429,25.006l4.31-2.499c0,0,2.132-2.193,4.023-6.864
					c0,0,3.401-5.306,5.179-4.686c1.77,0.627,1.06,7.05-5.874,12.748c0,0,4.318-1.652,5.909-3.463c0,0,2.531-3.155,2.433,0.908
					c-0.091,4.07-9.202,6.589-9.202,6.589s-0.535,0.476,0.423,0.788c0,0,6.115-2.889,5.899-1.183
					c-0.218,1.713-4.887,3.314-7.12,3.589c0,0-1.431,0.333-0.63,0.702c0,0,2.928-0.643,2.857,0.746
					c-0.068,1.394-7.1,2.923-7.1,2.923l-1.954-0.513L49.429,25.006z"/>
			</g>
		</g>
		<g>
			<linearGradient id="SVGID_10_" gradientUnits="userSpaceOnUse" x1="18.584" y1="-1.3809" x2="27.0135" y2="26.5572">
				<stop  offset="0.2883" style="stop-color:#4D322C"/>
				<stop  offset="0.6611" style="stop-color:#381E17"/>
				<stop  offset="1" style="stop-color:#2A1009"/>
			</linearGradient>
			<path fill="url(#SVGID_10_)" d="M37.089,23.152c-1.502-1.136-3.012-2.288-4.526-3.428c-0.497-0.377-1.059-0.722-1.479-1.152
				c-0.446-0.458-0.639-1.006-0.948-1.529c-0.87-1.443-1.446-3.102-1.916-4.645c-0.379-1.241-0.392-2.645-0.903-3.836
				c0,0-3.368-7.854-6.532-7.62c-3.167,0.225-4.676,8.655,4.318,18.127c0,0-6.371-3.481-8.229-6.285c0,0-2.852-4.838-4.383,0.382
				c-1.537,5.225,12.363,11.336,12.363,11.336s0.674,0.778-1.031,0.872c0,0-8.834-5.635-9.171-3.38
				c-0.351,2.247,6.635,5.776,10.179,6.839c0,0,2.206,0.873,0.742,1.089c0,0-4.525-1.756-5,0.047
				c-0.465,1.797,13.834,5.953,13.834,5.953L37.089,23.152z"/>
			<g>
				<defs>
					<path id="SVGID_11_" d="M37.089,23.152l-6.018-4.557c0,0-2.594-3.462-3.755-10.034c0,0-3.368-7.854-6.532-7.62
						c-3.167,0.225-4.676,8.655,4.318,18.127c0,0-6.371-3.481-8.229-6.285c0,0-2.852-4.838-4.383,0.382
						c-1.537,5.225,12.363,11.336,12.363,11.336s0.674,0.778-1.031,0.872c0,0-8.834-5.635-9.171-3.38
						c-0.351,2.247,6.635,5.776,10.179,6.839c0,0,2.206,0.873,0.742,1.089c0,0-4.525-1.756-5,0.047
						c-0.465,1.797,6.531,4.503,9.035,5.241c2.047,0.601,4.799,0.712,4.799,0.712L37.089,23.152z"/>
				</defs>
				<linearGradient id="SVGID_12_" gradientUnits="userSpaceOnUse" x1="18.584" y1="-1.3809" x2="27.0135" y2="26.5572">
					<stop  offset="0.2883" style="stop-color:#4D322C"/>
					<stop  offset="0.6611" style="stop-color:#381E17"/>
					<stop  offset="1" style="stop-color:#2A1009"/>
				</linearGradient>
				<use xlink:href="#SVGID_11_"  overflow="visible" fill="url(#SVGID_12_)"/>
				<clipPath id="SVGID_13_">
					<use xlink:href="#SVGID_11_"  overflow="visible"/>
				</clipPath>
				<linearGradient id="SVGID_14_" gradientUnits="userSpaceOnUse" x1="18.584" y1="-1.3809" x2="27.0135" y2="26.5572">
					<stop  offset="0.2883" style="stop-color:#4D322C"/>
					<stop  offset="0.6611" style="stop-color:#381E17"/>
					<stop  offset="1" style="stop-color:#2A1009"/>
				</linearGradient>
				<path clip-path="url(#SVGID_13_)" fill="url(#SVGID_14_)" d="M37.089,23.152l-6.018-4.557c0,0-2.594-3.462-3.755-10.034
					c0,0-3.368-7.854-6.532-7.62c-3.167,0.225-4.676,8.655,4.318,18.127c0,0-6.371-3.481-8.229-6.285c0,0-2.852-4.838-4.383,0.382
					c-1.537,5.225,12.363,11.336,12.363,11.336s0.674,0.778-1.031,0.872c0,0-8.834-5.635-9.171-3.38
					c-0.351,2.247,6.635,5.776,10.179,6.839c0,0,2.206,0.873,0.742,1.089c0,0-4.525-1.756-5,0.047
					c-0.465,1.797,10.419,5.987,10.419,5.987l3.415-0.034L37.089,23.152z"/>
			</g>
		</g>
		<g>
			
				<radialGradient id="SVGID_15_" cx="41.4487" cy="24.5259" r="15.5219" gradientTransform="matrix(1.4971 0 0 1.4971 -18.8374 -19.9754)" gradientUnits="userSpaceOnUse">
				<stop  offset="0.2883" style="stop-color:#4D322C"/>
				<stop  offset="0.4818" style="stop-color:#7A593F"/>
				<stop  offset="0.6686" style="stop-color:#A0794E"/>
				<stop  offset="0.7669" style="stop-color:#AE8554"/>
			</radialGradient>
			<path fill="url(#SVGID_15_)" d="M42.959,10.599c0,0-6.813-0.719-9.2,5.26c-2.398,5.98-1.924,21.254-0.846,22.821
				c0,0,1.085,4.913,6.103,5.992c5.018,1.073,9.088-7.894,9.088-7.894S58.379,11.197,42.959,10.599z"/>
			<g>
				<defs>
					<path id="SVGID_16_" d="M42.959,10.599c0,0-6.813-0.719-9.2,5.26c-2.398,5.98-1.924,21.254-0.846,22.821
						c0,0,1.085,4.913,6.103,5.992c5.018,1.073,9.088-7.894,9.088-7.894S58.379,11.197,42.959,10.599z"/>
				</defs>
				
					<radialGradient id="SVGID_17_" cx="41.4487" cy="24.5259" r="15.5219" gradientTransform="matrix(1.4971 0 0 1.4971 -18.8374 -19.9754)" gradientUnits="userSpaceOnUse">
					<stop  offset="0.2883" style="stop-color:#4D322C"/>
					<stop  offset="0.4818" style="stop-color:#7A593F"/>
					<stop  offset="0.6686" style="stop-color:#A0794E"/>
					<stop  offset="0.7669" style="stop-color:#AE8554"/>
				</radialGradient>
				<use xlink:href="#SVGID_16_"  overflow="visible" fill="url(#SVGID_17_)"/>
				<clipPath id="SVGID_18_">
					<use xlink:href="#SVGID_16_"  overflow="visible"/>
				</clipPath>
				
					<radialGradient id="SVGID_19_" cx="41.4487" cy="24.5259" r="15.5216" gradientTransform="matrix(1.4971 0 0 1.4971 -18.8374 -19.9754)" gradientUnits="userSpaceOnUse">
					<stop  offset="0.2883" style="stop-color:#4D322C"/>
					<stop  offset="0.4818" style="stop-color:#7A593F"/>
					<stop  offset="0.6686" style="stop-color:#A0794E"/>
					<stop  offset="0.7669" style="stop-color:#AE8554"/>
				</radialGradient>
				<path clip-path="url(#SVGID_18_)" fill="url(#SVGID_19_)" d="M32.387,37.93c0,0,0.6-17.58,2.741-17.103l19.507-3.449
					L44.823,8.52l-11.957,2.269l-2.748,25.704L32.387,37.93z"/>
			</g>
		</g>
		
			<radialGradient id="SVGID_20_" cx="41.5527" cy="27.4521" r="5.5076" gradientTransform="matrix(1.4971 0 0 1.4971 -18.8374 -19.9754)" gradientUnits="userSpaceOnUse">
			<stop  offset="0" style="stop-color:#8B6C49"/>
			<stop  offset="0.283" style="stop-color:#86694A"/>
			<stop  offset="0.6134" style="stop-color:#78604C"/>
			<stop  offset="0.9662" style="stop-color:#61524F"/>
			<stop  offset="1" style="stop-color:#5E504F"/>
		</radialGradient>
		<path fill-rule="evenodd" clip-rule="evenodd" fill="url(#SVGID_20_)" d="M45.276,15.171c0.334-0.853,0.783-1.657,1.836-1.751
			c0.775-0.067,1.369,0.225,1.854,0.534c0.391,0.247,1.023,0.719,1.185,1.2c0.079,0.237,0.053,0.478,0.12,0.671
			c0.332,0.924,1.371,1.303,1.734,2.163c0.257,0.612,0.02,1.403-0.173,1.921c-0.221,0.597-0.431,1.132-0.617,1.699
			c-0.384,1.173-0.876,2.24-1.424,3.229c-0.542,0.971-2.396,2.921-2.961,3.228c-0.491,0.266-1.614,0.904-2.273,0.753
			c-0.554-0.127-1.491-0.186-3.372-1.449c-2.604-1.746-4.35-3.879-5.896-6.55c-0.139-0.238-0.293-0.503-0.429-0.807
			c-0.122-0.268-0.297-0.721-0.206-1.029c0.1-0.341,0.795-0.509,1.115-0.738c0.707-0.504,1.238-1.254,1.406-2.298
			c0.09-0.542,0.184-1,0.446-1.391c0.534-0.787,1.538-1.067,2.679-0.978c1.274,0.1,2.301,0.399,2.814,1.32
			c0.047,0.085,0.086,0.199,0.152,0.275C43.7,15.647,44.79,15.729,45.276,15.171z"/>
		<path fill="#211E22" d="M45.909,21.062c0,0,0.103,1.346-0.219,1.58l-2.4,0.782l-1.463-0.71l-0.162-0.206l0.061-0.265l1.846-1.91
			L45.909,21.062z"/>
		<path fill="#0D0000" d="M41.665,22.367c0,0,1.418-1.194,3.135-1.194c1.727,0,2.635,0.597,2.635,0.597s-0.052-2.541-2.293-2.6
			C42.89,19.123,41.665,22.367,41.665,22.367z"/>
		<path fill="#0D0000" d="M41.231,22.111c0,0,1.889,1.088,4.678,0.288c0,0-0.624,1.435-2.338,1.509
			C41.849,23.979,41.231,22.111,41.231,22.111z"/>
		
			<radialGradient id="SVGID_21_" cx="37.5674" cy="25.0034" r="2.7144" gradientTransform="matrix(1.4971 0 0 1.4971 -18.8374 -19.9754)" gradientUnits="userSpaceOnUse">
			<stop  offset="0" style="stop-color:#EDDBAE"/>
			<stop  offset="0.2251" style="stop-color:#DEC291"/>
			<stop  offset="0.5514" style="stop-color:#CAA36B"/>
			<stop  offset="0.7239" style="stop-color:#C3975D"/>
		</radialGradient>
		<path fill="url(#SVGID_21_)" d="M36.442,18.583c-0.295,0.67,0.515,1.82,1.485,2.248c0.966,0.424,1.588,0.076,1.884-0.595
			c0.292-0.671-0.316-1.388-1.281-1.813C37.56,17.996,36.737,17.911,36.442,18.583z"/>
		
			<radialGradient id="SVGID_22_" cx="-3818.0313" cy="25.1465" r="2.7143" gradientTransform="matrix(-1.4971 0 0 1.4971 -5665.7075 -19.9754)" gradientUnits="userSpaceOnUse">
			<stop  offset="0" style="stop-color:#EDDBAE"/>
			<stop  offset="0.2251" style="stop-color:#DEC291"/>
			<stop  offset="0.5514" style="stop-color:#CAA36B"/>
			<stop  offset="0.7239" style="stop-color:#C3975D"/>
		</radialGradient>
		<path fill="url(#SVGID_22_)" d="M51.329,18.795c0.295,0.671-0.515,1.823-1.485,2.249c-0.966,0.425-1.585,0.077-1.88-0.594
			c-0.297-0.669,0.314-1.389,1.277-1.813C50.212,18.209,51.034,18.125,51.329,18.795z"/>
		
			<radialGradient id="SVGID_23_" cx="39.3691" cy="22.209" r="3.1749" gradientTransform="matrix(1.4971 0 0 1.4971 -18.8374 -19.9754)" gradientUnits="userSpaceOnUse">
			<stop  offset="0.092" style="stop-color:#EDDBAE"/>
			<stop  offset="0.3743" style="stop-color:#DEC291"/>
			<stop  offset="0.7836" style="stop-color:#CAA36B"/>
			<stop  offset="1" style="stop-color:#C3975D"/>
		</radialGradient>
		<path fill-rule="evenodd" clip-rule="evenodd" fill="url(#SVGID_23_)" d="M36.359,14.462c0.017,0.444,2.388,1.147,4.194,1.076
			c1.807-0.071,2.503-0.573,2.352-1.333c-0.293-1.473-2.076-0.727-3.646-0.604C37.454,13.741,36.342,14.016,36.359,14.462z"/>
		
			<radialGradient id="SVGID_24_" cx="-4588.9336" cy="218.9531" r="3.1734" gradientTransform="matrix(-1.0886 0.0018 -0.0545 1.1188 -4935.6255 -223.1245)" gradientUnits="userSpaceOnUse">
			<stop  offset="0.092" style="stop-color:#EDDBAE"/>
			<stop  offset="0.3743" style="stop-color:#DEC291"/>
			<stop  offset="0.7836" style="stop-color:#CAA36B"/>
			<stop  offset="1" style="stop-color:#C3975D"/>
		</radialGradient>
		<path fill-rule="evenodd" clip-rule="evenodd" fill="url(#SVGID_24_)" d="M50.452,14.48c-0.029,0.331-1.778,0.858-3.09,0.807
			c-1.311-0.051-1.799-0.427-1.66-0.993c0.266-1.102,1.536-0.545,2.674-0.456C49.683,13.941,50.481,14.147,50.452,14.48z"/>
		<path fill="#0D0000" d="M42.604,16.681c0,0.971-0.549,1.76-1.223,1.76c-0.68,0-1.229-0.79-1.229-1.76
			c0-0.977,0.549-1.766,1.229-1.766C42.056,14.915,42.604,15.705,42.604,16.681z"/>
		<path fill="#FFFFFF" d="M42.267,15.982c0,0.238-0.201,0.441-0.439,0.441c-0.25,0-0.445-0.203-0.445-0.441
			c0-0.243,0.195-0.443,0.445-0.443C42.065,15.539,42.267,15.74,42.267,15.982z"/>
		<path fill="#0D0000" d="M49.21,16.681c0,0.971-0.684,1.76-1.542,1.76c-0.856,0-1.562-0.79-1.562-1.76
			c0-0.977,0.705-1.766,1.562-1.766C48.526,14.915,49.21,15.705,49.21,16.681z"/>
		<path fill="#FFFFFF" d="M48.771,15.982c0,0.238-0.199,0.441-0.438,0.441c-0.251,0-0.446-0.203-0.446-0.441
			c0-0.243,0.195-0.443,0.446-0.443C48.571,15.539,48.771,15.74,48.771,15.982z"/>
	</g>
	<g>
		
			<radialGradient id="SVGID_25_" cx="-730.2061" cy="-1932.9414" r="4.543" gradientTransform="matrix(0.6568 1.3453 -1.3453 0.6568 -2083.5679 2298.1975)" gradientUnits="userSpaceOnUse">
			<stop  offset="0" style="stop-color:#3F2C28"/>
			<stop  offset="0.131" style="stop-color:#2D2021"/>
			<stop  offset="0.3563" style="stop-color:#141018"/>
			<stop  offset="0.5623" style="stop-color:#050513"/>
			<stop  offset="0.7301" style="stop-color:#000211"/>
		</radialGradient>
		<path fill-rule="evenodd" clip-rule="evenodd" fill="url(#SVGID_25_)" d="M36.708,43.126c-0.383-0.388-1.707-0.795-2.131-0.453
			c-0.342,0.276-0.744,3.266-0.806,3.702c-0.095,0.691,0.06,1.389,0.06,1.389l1.246-2.529c0,0-0.264,3.01,0.229,2.99
			c0.192-0.007,0.722-3.17,0.722-3.17l0.394,3.266c0,0,0.658-0.38,0.639-3.455C37.057,44.423,37.021,43.444,36.708,43.126z"/>
		
			<radialGradient id="SVGID_26_" cx="-728.0728" cy="-1936.3042" r="4.5453" gradientTransform="matrix(0.6568 1.3453 -1.3453 0.6568 -2083.5679 2298.1975)" gradientUnits="userSpaceOnUse">
			<stop  offset="0" style="stop-color:#3F2C28"/>
			<stop  offset="0.131" style="stop-color:#2D2021"/>
			<stop  offset="0.3563" style="stop-color:#141018"/>
			<stop  offset="0.5623" style="stop-color:#050513"/>
			<stop  offset="0.7301" style="stop-color:#000211"/>
		</radialGradient>
		<path fill-rule="evenodd" clip-rule="evenodd" fill="url(#SVGID_26_)" d="M42.634,43.79c-0.383-0.389-1.707-0.797-2.133-0.455
			c-0.342,0.276-0.836,3.326-0.918,3.759c-0.076,0.394,0.172,1.332,0.172,1.332l1.1-3.119c0,0-0.115,3.599,0.377,3.578
			c0.193-0.008,0.979-3.568,0.979-3.568l0.135,3.666c0,0,0.66-0.383,0.639-3.455C42.981,45.084,42.946,44.104,42.634,43.79z"/>
	</g>
</g>
</svg>
