<?xml version="1.0" encoding="utf-8"?>
<!-- Generator: Adobe Illustrator 16.0.0, SVG Export Plug-In . SVG Version: 6.00 Build 0)  -->
<!DOCTYPE svg PUBLIC "-//W3C//DTD SVG 1.1//EN" "http://www.w3.org/Graphics/SVG/1.1/DTD/svg11.dtd">
<svg version="1.1" id="Layer_1" xmlns="http://www.w3.org/2000/svg" xmlns:xlink="http://www.w3.org/1999/xlink" x="0px" y="0px"
	 width="320px" height="420px" viewBox="-70.102 -78.461 320 420" enable-background="new -70.102 -78.461 320 420"
	 xml:space="preserve">
<polygon fill="#91A73C" points="-65.673,253.101 70.122,321.073 65.864,325.211 97.272,330.709 219.741,337.291 245.469,280.489 
	211.333,266.504 207.227,269.037 103.208,222.216 -6.614,228.833 -65.673,245.579 "/>
<g>
	<rect x="-65.673" y="142.709" fill="#DDC6AA" width="133.65" height="110.392"/>
	<polygon fill="#D4BEA4" points="103.208,222.216 67.978,253.101 67.978,142.709 103.208,123.481 	"/>
	<rect x="-71.046" y="142.709" fill="#C1AE97" width="142.47" height="22.501"/>
	<polygon fill="#AE9C88" points="71.423,165.21 105.414,140.759 105.138,123.481 71.423,142.709 	"/>
	<polygon fill="#DDC6AA" points="71.423,142.709 -71.046,142.709 -28.291,123.481 105.138,123.481 	"/>
	<g>
		<path fill="#D8D4CB" d="M34.154,196.052c5.53,15.396-3.267,33.302-19.63,39.994c-16.371,6.687-34.121-0.372-39.649-15.773
			c-5.528-15.395,3.264-33.302,19.63-39.992C10.87,173.595,28.628,180.655,34.154,196.052z"/>
		<path fill="#E46531" d="M16.695,177.455c18.232,4.664,24.7,21.45,20.017,37.352c-5.125,17.444-22.058,26.031-34.455,26.305
			c-18.134,0.391-32.041-14.057-31.749-29.117c0.413-21.544,19.294-34.36,33.522-35.848C7.98,175.729,10.673,175.914,16.695,177.455
			z M-0.916,179.961c-7.684,1.923-17.284,7.19-22.504,18.579c-8.579,18.713,2.553,38.142,22.677,39.236
			c12.362,0.687,28.867-7.413,34.06-23.824c1.613-5.11,1.5-12.138,0.851-14.988c-1.48-6.519-8.2-16.242-19.948-18.954
			C7.575,178.485,2.939,178.989-0.916,179.961z"/>
		<path fill="#E46531" d="M20.614,184.193c-0.457,3.043-7.549,2.542-11.271,3.154c-12.018,1.989-23.111,11.466-31.473,22.192
			c6.005,2.21,10.594-5.411,15.747-8.027c5.101-2.599,10.43-2.504,14.973-5.696c0.507,0.425,1.457,2.244,2.421,1.359
			c-3.356,4.665-11.273,4.969-16.001,8.807c1.725,0.515,3.151,1.192,3.745,2.288c0.413,1.561-1.165,2.459-0.789,3.642
			c4.176,0.994,7.11-3.4,11.167-4.075c4.552-0.757,8.829,2.372,13.653,0.81c3.52-1.145,5.455-4.504,9.304-2.162
			c0.327,9.379-6.414,18.445-11.459,22.347c-4.137-4.794-4.803-11.358-6.558-17.368c-6.842-5.61-17.817,8.493-24.175,1.326
			c-0.829-0.938-1.398-3.563,0.082-5.215c-4.228,0.23-6.9,3.93-10.932,4.593c-0.709,5.215,2.507,8.428,1.607,13.746
			c-5.748-5.086-7.151-12.631-4.91-21.118C-18.838,184.288,2.009,175.003,20.614,184.193z M-9.209,210.066
			c0.678,3.606,5.976,2.929,6.613-1.427C-4.762,206.915-8.177,207.108-9.209,210.066z"/>
	</g>
	<g>
		<g>
			<defs>
				<polygon id="SVGID_1_" points="71.466,142.696 -71.006,142.696 -28.253,123.467 105.176,123.467 				"/>
			</defs>
			<clipPath id="SVGID_2_">
				<use xlink:href="#SVGID_1_"  overflow="visible"/>
			</clipPath>
			<g clip-path="url(#SVGID_2_)">
				<path fill="#AE9C88" d="M89.616,135.253c-0.309,10.228-32.457,17.539-71.802,16.34c-39.345-1.203-70.983-10.465-70.671-20.691
					c0.313-10.226,32.459-17.538,71.803-16.336C58.289,115.771,89.929,125.033,89.616,135.253z"/>
				
					<ellipse transform="matrix(0.1068 -0.9943 0.9943 0.1068 -62.6046 206.0644)" fill="#AE9C88" cx="83.388" cy="137.876" rx="7.151" ry="23.835"/>
				
					<ellipse transform="matrix(0.0306 -0.9995 0.9995 0.0306 -170.8931 83.5813)" fill="#AE9C88" cx="-42.358" cy="129.892" rx="6.195" ry="23.835"/>
			</g>
		</g>
	</g>
	<polygon opacity="0.88" fill="#0E0C17" enable-background="new    " points="7.186,140.857 -1.525,140.857 26.978,125.344 
		33.094,125.338 	"/>
</g>
<path fill="#D48022" d="M50.09,122.885c0.489,2.664,3.397,1.625,4.857,3.633c1.684,2.311-1.197,4.945-2.48,5.401
	c0,0,0.226-3.289-0.397-3.28c-2.083,0.032-3.797-1.804-3.797-1.804s-3.782-0.254-5.059-1.375c-2.902-2.529-1.827-2.409-3.284-2.54
	c-4.558-0.416-5.915,1.911-6.104,1.803c-0.764-0.446,0.287-3.54,1.784-3.438c0.205,0.017,2.135-1.254,3.574-1.048
	c0.367,0.054,2.789,0.654,2.789,0.654l-0.061-0.57c0,0,4.854-1.234,5.026-0.992c1.732,2.432,3.547,0.715,5.45,0.826
	c2.812,0.163,3.178,1.387,3.306,1.46c1.815,1.062,2.13,3.966,0.486,4.984c0,0-0.504-2.756-2.022-2.868
	C53.122,123.652,50.09,122.885,50.09,122.885z"/>
<path fill="#D48022" d="M-0.131,121.248c-1.089,2.48-3.679,0.802-5.563,2.41c-2.169,1.862,0.027,5.097,1.17,5.831
	c0,0,0.54-3.247,1.14-3.097c2.02,0.511,4.111-0.88,4.111-0.88s3.741,0.62,5.242-0.168c3.411-1.796,2.334-1.925,3.782-1.722
	c4.529,0.649,5.312,3.225,5.519,3.161c0.854-0.257,0.542-3.511-0.939-3.753c-0.203-0.032-1.792-1.71-3.241-1.844
	c-0.364-0.032-2.866-0.007-2.866-0.007l0.195-0.545c0,0-4.439-2.317-4.664-2.119c-2.247,1.962-3.617-0.122-5.491-0.455
	c-2.771-0.487-3.416,0.62-3.553,0.668c-2.007,0.615-2.988,3.362-1.622,4.73c0,0,1.124-2.564,2.632-2.323
	C-3.257,121.293-0.131,121.248-0.131,121.248z"/>
<path fill="#D48022" d="M7.14,97.333c-1.118-0.076-1.506,6.642-2.098,8.837c-0.289,1.056-2.005,2.93-1.769,3.994
	c0.101,0.459,1.232,0.788,1.413,1.218c0.504,1.205-0.354,5.212-0.354,5.212l-0.354,3.197l3.501,0.012c0,0,0.107-6.285,0.929-8.167
	c0.187-0.427,1.146-0.952,1.218-1.413c0.131-0.825-1.077-2.273-1.286-3.081c-0.265-1.01-0.469-4.145-0.469-4.145l1.448-4.766
	L7.14,97.333z"/>
<path fill="#D48022" d="M46.243,97.881c-1.118-0.075-1.506,6.645-2.096,8.833c-0.287,1.055-2.007,2.931-1.769,4.001
	c0.101,0.452,1.231,0.785,1.411,1.218c0.507,1.205-0.351,5.212-0.351,5.212l-0.357,3.195l3.504,0.013c0,0,0.104-6.288,0.926-8.17
	c0.189-0.426,1.146-0.951,1.222-1.413c0.128-0.824-1.079-2.272-1.29-3.081c-0.263-1.011-0.467-4.146-0.467-4.146l1.445-4.768
	L46.243,97.881z"/>
<g>
	<g>
		<path fill="#B7802F" d="M6.619,99.98c0.388-0.704,1.381-0.336,1.573,0.325c0.211,0.728,1.344,0.415,1.132-0.312
			c-0.47-1.61-2.831-2.221-3.718-0.606C5.242,100.051,6.255,100.644,6.619,99.98L6.619,99.98z"/>
	</g>
</g>
<g>
	<g>
		<path fill="#B7802F" d="M5.944,104.268c0.344-0.544,1.143-0.624,1.512-0.053c0.406,0.634,1.421,0.046,1.01-0.593
			c-0.848-1.321-2.717-1.248-3.535,0.053C4.528,104.32,5.542,104.908,5.944,104.268L5.944,104.268z"/>
	</g>
</g>
<g>
	<g>
		<path fill="#B7802F" d="M5.235,107.25c0.698-0.906,1.882-0.406,2.643,0.125c0.623,0.434,1.208-0.583,0.593-1.013
			c-1.39-0.97-3.139-1.141-4.25,0.295C3.758,107.257,4.78,107.84,5.235,107.25L5.235,107.25z"/>
	</g>
</g>
<g>
	<g>
		<path fill="#B7802F" d="M5.38,113.476c0.661-0.3,1.607-0.568,2.105,0.146c0.428,0.62,1.443,0.033,1.013-0.593
			c-0.907-1.311-2.401-1.161-3.712-0.568C4.098,112.773,4.696,113.784,5.38,113.476L5.38,113.476z"/>
	</g>
</g>
<g>
	<g>
		<path fill="#B7802F" d="M4.454,117.241c1.071-0.144,2.102-0.105,3.142,0.203c0.726,0.217,1.036-0.915,0.312-1.13
			c-1.133-0.339-2.288-0.403-3.454-0.246C3.715,116.167,3.706,117.34,4.454,117.241L4.454,117.241z"/>
	</g>
</g>
<g>
	<g>
		<path fill="#B7802F" d="M3.518,119.076c0.929,0.956,2.792,1.644,4.115,1.441c0.749-0.112,0.428-1.243-0.309-1.13
			c-0.886,0.135-2.372-0.52-2.976-1.143C3.821,117.703,2.991,118.534,3.518,119.076L3.518,119.076z"/>
	</g>
</g>
<g>
	<g>
		<path fill="#B7802F" d="M1.238,118.792c-1.468-0.318-3.686,1.252-2.151,2.657c0.558,0.51,1.392-0.318,0.83-0.83
			c-0.291-0.263-0.156-0.307,0.154-0.487c0.224-0.128,0.592-0.266,0.854-0.212C1.663,120.083,1.977,118.954,1.238,118.792
			L1.238,118.792z"/>
	</g>
</g>
<g>
	<g>
		<path fill="#B7802F" d="M-2.097,117.667c-1.227,0.852-1.466,2.89-0.389,3.965c0.535,0.535,1.365-0.295,0.829-0.831
			c-0.512-0.508-0.458-1.698,0.151-2.118C-0.887,118.253-1.472,117.238-2.097,117.667L-2.097,117.667z"/>
	</g>
</g>
<g>
	<g>
		<path fill="#B7802F" d="M-5.531,119.441c0.5,0.322,0.377,0.937,0.197,1.406c-0.269,0.709,0.869,1.01,1.135,0.311
			c0.382-1.01,0.205-2.122-0.739-2.734C-5.574,118.015-6.162,119.03-5.531,119.441L-5.531,119.441z"/>
	</g>
</g>
<g>
	<g>
		<path fill="#B7802F" d="M-3.582,123.444c1.171,0.425,1.668,1.531,1.425,2.72c-0.151,0.739,0.979,1.052,1.132,0.312
			c0.379-1.849-0.443-3.512-2.244-4.161C-3.984,122.057-4.289,123.191-3.582,123.444L-3.582,123.444z"/>
	</g>
</g>
<g>
	<g>
		<path fill="#B7802F" d="M-0.936,122.726c0.965,0.82,2.096,1.635,2.307,2.967c0.118,0.745,1.248,0.428,1.135-0.312
			c-0.244-1.54-1.491-2.531-2.609-3.486C-0.678,121.41-1.512,122.235-0.936,122.726L-0.936,122.726z"/>
	</g>
</g>
<g>
	<g>
		<path fill="#B7802F" d="M8.318,120.698c-1.584,0.522-1.861,2.512-1.125,3.837c0.364,0.662,1.379,0.07,1.01-0.593
			c-0.344-0.62-0.405-1.842,0.425-2.113C9.344,121.594,9.037,120.459,8.318,120.698L8.318,120.698z"/>
	</g>
</g>
<g>
	<g>
		<path fill="#B7802F" d="M10.311,120.774c-1.051,0.631-1.659,1.93-1.063,3.07c0.35,0.673,1.362,0.08,1.013-0.593
			c-0.293-0.556,0.174-1.185,0.645-1.465C11.552,121.399,10.962,120.383,10.311,120.774L10.311,120.774z"/>
	</g>
</g>
<g>
	<g>
		<path fill="#B7802F" d="M12.999,121.685c-1.143,0.269-1.949,1.384-1.653,2.551c0.188,0.733,1.321,0.425,1.135-0.312
			c-0.147-0.56,0.325-0.99,0.828-1.109C14.047,122.644,13.734,121.513,12.999,121.685L12.999,121.685z"/>
	</g>
</g>
<g>
	<g>
		<path fill="#B7802F" d="M13.934,122.479c-1.106,0.257-1.685,1.183-1.378,2.282c0.202,0.729,1.333,0.422,1.132-0.312
			c-0.137-0.494,0.072-0.728,0.559-0.837C14.982,123.438,14.669,122.309,13.934,122.479L13.934,122.479z"/>
	</g>
</g>
<g>
	<g>
		<path fill="#B7802F" d="M4.955,115.364c0.888-0.129,1.687-0.132,2.549,0.128c0.726,0.22,1.034-0.913,0.312-1.13
			c-1.071-0.322-2.076-0.29-3.173-0.129C3.897,114.343,4.216,115.473,4.955,115.364L4.955,115.364z"/>
	</g>
</g>
<g>
	<g>
		<path fill="#B7802F" d="M6.252,102.092c0.341-0.544,1.141-0.626,1.508-0.054c0.411,0.635,1.424,0.045,1.013-0.594
			c-0.848-1.32-2.716-1.246-3.533,0.055C4.835,102.141,5.852,102.731,6.252,102.092L6.252,102.092z"/>
	</g>
</g>
<g>
	<g>
		<path fill="#B7802F" d="M5.172,111.835c0.669-0.3,2.076-0.69,2.622,0.055c0.441,0.604,1.458,0.021,1.01-0.593
			c-0.99-1.358-2.878-1.078-4.229-0.477C3.891,111.129,4.487,112.142,5.172,111.835L5.172,111.835z"/>
	</g>
</g>
<g>
	<g>
		<path fill="#B7802F" d="M45.771,99.831c0.388-0.706,1.381-0.33,1.573,0.329c0.211,0.726,1.34,0.417,1.13-0.312
			c-0.467-1.611-2.824-2.224-3.715-0.61C44.392,99.9,45.405,100.492,45.771,99.831L45.771,99.831z"/>
	</g>
</g>
<g>
	<g>
		<path fill="#B7802F" d="M45.099,104.121c0.341-0.547,1.14-0.624,1.503-0.05c0.411,0.634,1.423,0.047,1.014-0.593
			c-0.846-1.321-2.716-1.254-3.532,0.05C43.683,104.173,44.699,104.759,45.099,104.121L45.099,104.121z"/>
	</g>
</g>
<g>
	<g>
		<path fill="#B7802F" d="M44.293,107.215c0.753-0.975,1.857-0.604,2.737,0.007c0.62,0.432,1.205-0.584,0.592-1.012
			c-1.283-0.892-3.095-1.203-4.161,0.175C43.005,106.977,43.83,107.811,44.293,107.215L44.293,107.215z"/>
	</g>
</g>
<g>
	<g>
		<path fill="#B7802F" d="M45.405,101.943c0.339-0.546,1.14-0.63,1.506-0.055c0.408,0.634,1.423,0.045,1.014-0.593
			c-0.848-1.32-2.719-1.247-3.538,0.053C43.989,101.992,45.004,102.58,45.405,101.943L45.405,101.943z"/>
	</g>
</g>
<g>
	<g>
		<path fill="#B7802F" d="M44.743,113.978c0.662-0.298,1.607-0.566,2.105,0.148c0.428,0.617,1.445,0.03,1.015-0.595
			c-0.909-1.311-2.401-1.159-3.712-0.566C43.46,113.274,44.057,114.286,44.743,113.978L44.743,113.978z"/>
	</g>
</g>
<g>
	<g>
		<path fill="#B7802F" d="M43.972,117.722c1.009-0.135,2.007-0.07,2.984,0.228c0.726,0.222,1.034-0.912,0.309-1.132
			c-1.19-0.359-2.38-0.391-3.608-0.227C42.915,116.693,43.234,117.825,43.972,117.722L43.972,117.722z"/>
	</g>
</g>
<g>
	<g>
		<path fill="#B7802F" d="M42.881,119.578c0.926,0.958,2.794,1.647,4.115,1.445c0.749-0.111,0.428-1.243-0.309-1.132
			c-0.886,0.136-2.374-0.52-2.973-1.144C43.187,118.202,42.357,119.033,42.881,119.578L42.881,119.578z"/>
	</g>
</g>
<g>
	<g>
		<path fill="#B7802F" d="M44.317,115.863c0.886-0.123,1.686-0.126,2.548,0.135c0.726,0.222,1.034-0.912,0.312-1.132
			c-1.071-0.324-2.074-0.29-3.171-0.135C43.259,114.835,43.577,115.965,44.317,115.863L44.317,115.863z"/>
	</g>
</g>
<g>
	<g>
		<path fill="#B7802F" d="M44.535,112.34c0.666-0.301,2.079-0.693,2.621,0.051c0.437,0.607,1.458,0.022,1.011-0.593
			c-0.983-1.359-2.885-1.077-4.228-0.474C43.252,111.635,43.849,112.648,44.535,112.34L44.535,112.34z"/>
	</g>
</g>
<g>
	<g>
		<path fill="#B7802F" d="M49.038,121.472c0.237,0.009,0.469,0.184,0.66,0.313c0.314,0.215,0.525,0.415,0.146,0.614
			c-0.669,0.354-0.076,1.365,0.593,1.014c1.836-0.969,0.108-3.054-1.399-3.114C48.281,120.267,48.284,121.44,49.038,121.472
			L49.038,121.472z"/>
	</g>
</g>
<g>
	<g>
		<path fill="#B7802F" d="M51.712,120.882c0.484,0.563,0.23,1.728-0.391,2.093c-0.652,0.384-0.061,1.397,0.593,1.013
			c1.313-0.77,1.598-2.801,0.626-3.939C52.048,119.476,51.221,120.31,51.712,120.882L51.712,120.882z"/>
	</g>
</g>
<g>
	<g>
		<path fill="#B7802F" d="M55.096,121.504c-1.064,0.36-1.521,1.372-1.402,2.448c0.08,0.744,1.255,0.75,1.174,0
			c-0.054-0.499-0.024-1.125,0.54-1.318C56.119,122.393,55.814,121.26,55.096,121.504L55.096,121.504z"/>
	</g>
</g>
<g>
	<g>
		<path fill="#B7802F" d="M52.508,124.84c-1.897,0.178-3.138,1.564-3.238,3.449c-0.038,0.755,1.136,0.752,1.173,0
			c0.064-1.205,0.828-2.16,2.065-2.276C53.255,125.947,53.26,124.773,52.508,124.84L52.508,124.84z"/>
	</g>
</g>
<g>
	<g>
		<path fill="#B7802F" d="M49.544,123.633c-1.321,0.641-2.782,1.282-3.406,2.713c-0.293,0.688,0.713,1.283,1.014,0.593
			c0.536-1.24,1.844-1.739,2.981-2.291C50.818,124.318,50.222,123.307,49.544,123.633L49.544,123.633z"/>
	</g>
</g>
<g>
	<g>
		<path fill="#B7802F" d="M41.106,121.358c0.734,0.479,0.37,1.634-0.125,2.15c-0.522,0.547,0.306,1.378,0.831,0.831
			c1.049-1.099,1.283-3.082-0.113-3.996C41.063,119.931,40.475,120.947,41.106,121.358L41.106,121.358z"/>
	</g>
</g>
<g>
	<g>
		<path fill="#B7802F" d="M38.919,120.741c0.382,0.388,0.678,1.121,0.25,1.582c-0.509,0.557,0.318,1.391,0.831,0.831
			c0.866-0.947,0.603-2.37-0.25-3.243C39.218,119.372,38.388,120.2,38.919,120.741L38.919,120.741z"/>
	</g>
</g>
<g>
	<g>
		<path fill="#B7802F" d="M36.329,121.128c0.457,0.241,0.808,0.77,0.525,1.277c-0.366,0.663,0.646,1.256,1.011,0.593
			c0.585-1.056,0.092-2.331-0.944-2.886C36.253,119.76,35.66,120.774,36.329,121.128L36.329,121.128z"/>
	</g>
</g>
<g>
	<g>
		<path fill="#B7802F" d="M35.223,121.665c0.44,0.228,0.593,0.5,0.33,0.945c-0.382,0.654,0.628,1.247,1.011,0.593
			c0.576-0.983,0.257-2.031-0.749-2.554C35.144,120.302,34.55,121.315,35.223,121.665L35.223,121.665z"/>
	</g>
</g>
<path fill="#F1D484" d="M65.135,15.714c0,0,1.148-11.255,16.953-9.837c4.598,0.412,12.62,6.134,15.938,9.352
	c4.32,4.183,9.898,8.148,12.809,20.341c0.156,0.654-21.306-8.604-26.839-10.62c-3.32-1.209-8.651-0.016-11.679-3.292
	C70.258,19.424,65.135,15.714,65.135,15.714z"/>
<polygon fill="#EEB651" points="2.885,91.541 2.779,98.64 7.323,97.825 9.506,98.721 10.125,100.635 13.052,101.583 13.256,98.6 
	17.384,92.894 "/>
<polygon fill="#EEB651" points="41.714,92.676 41.609,99.774 46.153,98.964 48.334,99.859 48.954,101.772 51.882,102.717 
	52.086,99.737 56.215,94.032 "/>
<path fill="#F1D484" d="M4.739-4.491C1.662,1.431-7.38,20.938-13.375,31.089c-4.689,7.94-7.631,24.374-6.226,30.358
	c9.743,41.47,44.989,37.244,54.919,37.369c10.559,0.135,34.055,1.546,45.071-40.999C87.865,28.92,65.882,12.613,60.938-0.937
	c-5.97-16.388-23.649-14.812-31.553-14.932C10.682-16.15,7.288-9.401,4.739-4.491z"/>
<path fill="#FFFFFF" stroke="#FFFFFF" stroke-width="0.2663" d="M15.1,15.765C8.262,20.992,0.975,44.71,3.208,53.019
	c2.021,7.514,8.397,18.694,26.854,22.663c21.508,4.626,29.957-14.955,32.303-21.972c2.822-8.451,0.91-28.959-5.426-35.219
	C49.211,10.866,23.726,9.171,15.1,15.765z"/>
<path fill="#BFBCBA" d="M14.781,13.485C8.016,18.659,7.657,23.73,4.688,35.187c-0.271,1.042,2.606-35.5,44.725-12.913
	c19.192,10.292,5.273,41.066,9.861,35.349c7.513-9.352,3.196-35.242-3.082-41.435C48.545,8.634,23.323,6.959,14.781,13.485z"/>
<path fill="#EEB651" d="M4.289-7.602C2.524-2.641,0.825,8.746-5.21,16.213c-5.895,7.295-11.608,17.212-10.72,21.85
	c0.218,1.138,11.864-41.97,69.364-27.899C78.58,16.32,81.131,59.453,81.623,54.32c2.878-29.858-24.984-56.357-30.939-65.837
	c-7.203-11.469-20.433-9.04-27.043-7.908C7.992-16.734,5.751-11.708,4.289-7.602z"/>
<path fill="#F1D484" d="M21.126-74.213v23.474c0,0-11.731,3.875-13.687,24.813C5.484-4.989-1.243,7.674-1.243,7.674
	s23.542,2.515,38.404,35.008c0,0,14.365-31.731,26.096-37.699c0,0-9.281-30.306-12.8-39.3c-3.52-8.994-16.033-18.083-16.033-18.083
	S29.729-69.532,21.126-74.213z"/>
<path opacity="0.5" fill="#221E21" enable-background="new    " d="M50.766,9.873"/>
<path fill="#7F8080" d="M44.798-37.459c3.052,2.609,5.087,8.427,5.154,10.854c0.107,4.334-2.716,5.978-6.807,8.093
	c-2.083,1.076-6.969-0.851-8.515-2.57c-3.547-3.937-4.454-18.553-0.208-19.781C39.583-42.36,44.115-38.043,44.798-37.459z"/>
<path fill="#FFFFFF" d="M36.212-37.905c3.663-0.676,11.292,6.285,10.543,11.68c-0.082,0.596,0.196,6.039-7.503,7.286
	c-2.183,0.352-6.116-2.637-6.403-4.674C30.942-37.251,33.726-37.446,36.212-37.905z"/>
<g>
	<path d="M39.053-26.901c1.127-0.319,1.998,0.772,2.169,1.404c0.281,1.078-0.104,2.67-1.13,2.905
		c-1.283,0.291-2.429-0.996-2.542-1.705C37.438-25.002,37.771-26.535,39.053-26.901z"/>
	<path d="M39.154-26.211c0.785-0.124,1.271,0.642,1.375,1.289c0.15,0.958-0.733,1.49-1.06,1.508
		c-0.807,0.041-1.143-0.491-1.247-1.206C38.223-24.619,38.06-26.042,39.154-26.211z"/>
	
		<ellipse transform="matrix(0.9876 0.1571 -0.1571 0.9876 -3.5214 -6.6438)" fill="#FFFFFF" cx="40.276" cy="-25.602" rx="0.465" ry="0.495"/>
</g>
<path fill="#7F8080" d="M14.426-35.155c-3.073,2.584-5.148,8.389-5.23,10.816c-0.146,4.331,2.67,6,6.746,8.139
	c2.077,1.092,6.972-0.797,8.536-2.509c3.57-3.906,4.58-18.52,0.345-19.779C19.673-40.017,15.114-35.736,14.426-35.155z"/>
<path fill="#FFFFFF" d="M22.563-35.031c-3.629-0.83-11.55,5.795-11.038,11.216c0.058,0.602-0.452,6.029,7.184,7.601
	c2.169,0.442,6.225-2.369,6.601-4.394C27.801-34.151,25.029-34.465,22.563-35.031z"/>
<g>
	<path d="M19.983-25.445c-1.036-0.275-1.857,0.656-2.016,1.193c-0.272,0.918,0.073,2.282,1.014,2.483
		c1.191,0.254,2.261-0.842,2.372-1.449C21.465-23.818,21.17-25.125,19.983-25.445z"/>
	<path d="M19.863-24.899c-0.729-0.107-1.184,0.543-1.285,1.099c-0.148,0.815,0.662,1.271,0.965,1.285
		c0.743,0.04,1.06-0.414,1.167-1.022C20.71-23.538,20.872-24.75,19.863-24.899z"/>
	<circle fill="#FFFFFF" cx="20.503" cy="-23.949" r="0.429"/>
</g>
<path fill="#D7AE2B" d="M44.052-10.344c0,0-9.189-12.95-13.882-11.731c0,0-4.015-1.876-12.592,13.261c0,0,5.162,9.399,12.396,9.802
	C29.973,0.985,32.908,3.688,44.052-10.344z"/>
<path fill="#EEC280" d="M46.987-39.696c0.113,0.277-8.955-8.241-12.703-9.177c-3.278-0.822-10.948,0.286-14.308,0.635
	c-4.951,0.516-11.037,12.809-9.407,9.84c4.854-8.838,7.356-10.354,7.356-10.354c3.252-6.112,0.086-24.312,2.252-24.878
	c8.085-2.11,15.929,22.99,15.929,22.99S43.749-47.663,46.987-39.696z"/>
<path fill="#CE922D" d="M29.686-65.185c-5.424-9.915-8.944-8.891-8.944-8.891c7.447,8.488,12.171,22.018,11.764,24.231
	c-0.403,2.194,2.044-0.854,3.012-0.505C36.084-50.145,35.973-53.697,29.686-65.185z"/>
<path fill="#EEB651" d="M51.548-28.376c0,0,0.196,2.836,1.073,7.195c1.008,5.032,2.218,10.837,1.1,13.176
	c-0.773,1.63-0.565,3.127-0.565,3.127c0.153-1.195,1.751-1.724,3.199-1.485c0.681,0.113,3.079,1.958,4.069,2.689
	c0.647,0.474-1.58-3.333-1.659-4.131c-0.119-1.229-3.62-7.192-3.728-7.718C54.145-19.933,51.548-28.376,51.548-28.376z"/>
<path fill="#F1D484" d="M4.265,18.41c0,0,0.418-12.604-17.249-13.417c-5.143-0.237-14.863,4.874-19.013,7.925
	c-5.391,3.969-12.158,7.513-17.205,20.542c-0.272,0.699,24.826-6.295,31.243-7.692c3.853-0.839,9.556,1.288,13.395-1.877
	C-1.955,21.736,4.265,18.41,4.265,18.41z"/>
<path fill="#CE922D" d="M26.643-7.862c1.369,0.006,4.076,0.438,5.435,0.589c1.094,0.124,3.987-1.107,4.885-0.275
	c0.495,0.458,0.062,2.041-0.073,2.702c-0.128,0.625-0.394,2.517-0.394,2.517c1.735-1.927,2.319-3.987,3.248-5.287
	c0.517-0.723,4.39-1.621,4.39-1.621s-5.255-0.218-6.758-0.275c-1.552-0.058-4.466,0.738-6.019,0.641
	c-1.075-0.063-3.241-0.796-4.32-0.733c-2.002,0.114-8.096,2.269-8.096,2.269s3.733,0.124,5.025-0.211
	C24.641-7.721,25.968-7.862,26.643-7.862z"/>
<path fill="#CE922D" d="M24.242-15.968c-0.134,0.26,1.812-3.854,4.244-4.948c1.063-0.475,3.619-0.128,4.615,0.462
	c0.751,0.442,1.946,1.783,2.41,2.519c0.578,0.917,1.482,2.885,1.873,3.888c0.208,0.52,0.269,1.818,0.745,2.118
	c0.413,0.26,1.445-0.271,1.931-0.237c0.65,0.039,3.128,1.685,3.128,1.685c-3.492-2.819-4.922-5.94-5.857-7.105
	c-1.252-1.564-3.345-3.987-5.881-4.602c-1.301-0.314-3.13,0.065-3.765,1.144C26.424-18.897,27.121-21.452,24.242-15.968z"/>
<path fill="#BF8025" d="M23.549-8.696c0,0,2.896-0.899,3.891-0.917c0.967-0.019,2.826,0.703,3.784,0.754
	c1.072,0.053,3.173-0.522,4.244-0.577c2.129-0.119,8.536,0.208,8.536,0.208s-5.136,0.795-4.995,3.055
	c0.028,0.424-0.163-1.366-0.482-1.657c-0.749-0.693-2.414-1.336-6.804-0.609c-1.635,0.27-2.169-0.244-3.828-0.259
	C26.811-8.709,23.549-8.696,23.549-8.696z"/>
<path fill="#FFFFFF" d="M29.769-20.083c0,0,0.064,0.424,0.012,0.554c-0.089,0.211-0.666,0.642-0.666,0.642s0.244-0.449,0.336-0.615
	C29.526-19.632,29.769-20.083,29.769-20.083z"/>
<path fill="#FFFFFF" d="M32.503-18.825c0,0-0.422-0.102-0.514-0.2c-0.162-0.165-0.339-0.862-0.339-0.862s0.321,0.397,0.437,0.55
	C32.182-19.216,32.503-18.825,32.503-18.825z"/>
<path fill="#EEB651" d="M-18.926,6.207c0,0,11.38,1.347,14.241,2.878c2.783,1.494,7.801,5.519,7.801,5.519s-2.157-7.67-13.641-9.467
	C-13.589,4.653-18.926,6.207-18.926,6.207z"/>
<path fill="#EEB651" d="M68.675,14.029l-1.604-2.66c0,0,5.052-4.572,7.112-5.251C80.571,4.001,88.958,8.44,88.958,8.44
	S77.172,7.017,74.669,8.318C72.873,9.252,68.675,14.029,68.675,14.029z"/>
</svg>
