<?xml version="1.0" encoding="utf-8"?>
<!-- Generator: Adobe Illustrator 16.0.0, SVG Export Plug-In . SVG Version: 6.00 Build 0)  -->
<!DOCTYPE svg PUBLIC "-//W3C//DTD SVG 1.1//EN" "http://www.w3.org/Graphics/SVG/1.1/DTD/svg11.dtd">
<svg version="1.1" id="Layer_1" xmlns="http://www.w3.org/2000/svg" xmlns:xlink="http://www.w3.org/1999/xlink" x="0px" y="0px"
	 width="102.314px" height="131.782px" viewBox="0 0 102.314 131.782" enable-background="new 0 0 102.314 131.782"
	 xml:space="preserve">
<path fill="#D48022" d="M63.479,126.006c0.313,1.703,2.172,1.039,3.106,2.322c1.076,1.478-0.766,3.162-1.586,3.453
	c0,0,0.144-2.102-0.254-2.096c-1.332,0.02-2.428-1.154-2.428-1.154s-2.418-0.162-3.234-0.878c-1.856-1.618-1.168-1.54-2.1-1.624
	c-2.914-0.266-3.781,1.221-3.902,1.152c-0.488-0.285,0.183-2.262,1.14-2.197c0.131,0.01,1.366-0.802,2.286-0.67
	c0.234,0.034,1.783,0.418,1.783,0.418l-0.039-0.365c0,0,3.103-0.789,3.213-0.634c1.107,1.554,2.267,0.457,3.484,0.528
	c1.797,0.104,2.031,0.887,2.113,0.934c1.16,0.678,1.362,2.535,0.311,3.186c0,0-0.322-1.762-1.293-1.834
	C65.418,126.497,63.479,126.006,63.479,126.006z"/>
<path fill="#D48022" d="M31.373,124.959c-0.696,1.586-2.352,0.513-3.557,1.541c-1.387,1.191,0.018,3.258,0.748,3.728
	c0,0,0.345-2.076,0.729-1.979c1.291,0.326,2.628-0.563,2.628-0.563s2.391,0.396,3.351-0.108c2.181-1.148,1.492-1.23,2.418-1.1
	c2.896,0.415,3.396,2.061,3.529,2.021c0.545-0.164,0.346-2.244-0.601-2.4c-0.13-0.021-1.146-1.092-2.072-1.178
	c-0.233-0.021-1.832-0.004-1.832-0.004l0.125-0.349c0,0-2.838-1.481-2.982-1.354c-1.436,1.254-2.312-0.078-3.511-0.291
	c-1.771-0.312-2.183,0.396-2.271,0.426c-1.283,0.393-1.91,2.15-1.037,3.025c0,0,0.719-1.64,1.682-1.486
	C29.375,124.989,31.373,124.959,31.373,124.959z"/>
<path fill="#D48022" d="M36.021,109.67c-0.715-0.049-0.963,4.246-1.341,5.65c-0.184,0.674-1.282,1.873-1.13,2.553
	c0.064,0.293,0.788,0.504,0.903,0.779c0.322,0.771-0.227,3.332-0.227,3.332l-0.226,2.044l2.238,0.007c0,0,0.068-4.018,0.594-5.221
	c0.119-0.273,0.732-0.609,0.778-0.904c0.084-0.527-0.688-1.453-0.822-1.969c-0.169-0.646-0.3-2.65-0.3-2.65l0.926-3.047
	L36.021,109.67z"/>
<path fill="#D48022" d="M61.02,110.021c-0.715-0.048-0.963,4.248-1.34,5.647c-0.183,0.674-1.283,1.873-1.13,2.558
	c0.064,0.289,0.787,0.502,0.902,0.778c0.324,0.771-0.225,3.332-0.225,3.332l-0.228,2.043l2.24,0.008c0,0,0.066-4.02,0.592-5.223
	c0.121-0.272,0.732-0.608,0.781-0.903c0.082-0.527-0.689-1.453-0.824-1.97c-0.168-0.646-0.299-2.651-0.299-2.651l0.924-3.048
	L61.02,110.021z"/>
<g>
	<g>
		<path fill="#B7802F" d="M35.688,111.363c0.248-0.45,0.883-0.215,1.006,0.208c0.135,0.465,0.859,0.266,0.724-0.199
			c-0.301-1.029-1.81-1.42-2.377-0.388C34.808,111.409,35.456,111.788,35.688,111.363L35.688,111.363z"/>
	</g>
</g>
<g>
	<g>
		<path fill="#B7802F" d="M35.257,114.104c0.219-0.348,0.73-0.398,0.966-0.033c0.26,0.405,0.909,0.029,0.646-0.379
			c-0.542-0.845-1.737-0.798-2.26,0.033C34.351,114.137,35,114.513,35.257,114.104L35.257,114.104z"/>
	</g>
</g>
<g>
	<g>
		<path fill="#B7802F" d="M34.803,116.01c0.447-0.579,1.204-0.26,1.69,0.08c0.398,0.277,0.772-0.373,0.379-0.647
			c-0.889-0.62-2.007-0.729-2.717,0.188C33.859,116.015,34.512,116.388,34.803,116.01L34.803,116.01z"/>
	</g>
</g>
<g>
	<g>
		<path fill="#B7802F" d="M34.896,119.991c0.423-0.191,1.028-0.363,1.346,0.094c0.273,0.396,0.923,0.021,0.647-0.379
			c-0.58-0.838-1.535-0.742-2.373-0.363C34.077,119.542,34.459,120.188,34.896,119.991L34.896,119.991z"/>
	</g>
</g>
<g>
	<g>
		<path fill="#B7802F" d="M34.304,122.398c0.685-0.092,1.344-0.067,2.009,0.13c0.464,0.139,0.662-0.585,0.199-0.723
			c-0.724-0.217-1.462-0.258-2.208-0.157C33.832,121.711,33.826,122.461,34.304,122.398L34.304,122.398z"/>
	</g>
</g>
<g>
	<g>
		<path fill="#B7802F" d="M33.706,123.571c0.594,0.611,1.785,1.051,2.631,0.922c0.478-0.072,0.273-0.795-0.198-0.723
			c-0.566,0.086-1.516-0.332-1.902-0.73C33.899,122.693,33.369,123.224,33.706,123.571L33.706,123.571z"/>
	</g>
</g>
<g>
	<g>
		<path fill="#B7802F" d="M32.248,123.39c-0.939-0.204-2.357,0.8-1.375,1.698c0.356,0.326,0.889-0.203,0.53-0.53
			c-0.185-0.168-0.1-0.196,0.099-0.312c0.143-0.082,0.379-0.17,0.546-0.135C32.52,124.215,32.72,123.493,32.248,123.39
			L32.248,123.39z"/>
	</g>
</g>
<g>
	<g>
		<path fill="#B7802F" d="M30.116,122.67c-0.784,0.545-0.938,1.848-0.249,2.535c0.342,0.342,0.873-0.188,0.53-0.531
			c-0.327-0.325-0.293-1.086,0.097-1.354C30.889,123.045,30.515,122.396,30.116,122.67L30.116,122.67z"/>
	</g>
</g>
<g>
	<g>
		<path fill="#B7802F" d="M27.921,123.804c0.319,0.206,0.241,0.599,0.126,0.899c-0.172,0.453,0.555,0.646,0.725,0.199
			c0.244-0.645,0.131-1.357-0.472-1.748C27.893,122.893,27.517,123.542,27.921,123.804L27.921,123.804z"/>
	</g>
</g>
<g>
	<g>
		<path fill="#B7802F" d="M29.167,126.364c0.749,0.271,1.066,0.979,0.911,1.738c-0.097,0.473,0.626,0.673,0.724,0.199
			c0.242-1.182-0.284-2.245-1.435-2.66C28.91,125.477,28.715,126.202,29.167,126.364L29.167,126.364z"/>
	</g>
</g>
<g>
	<g>
		<path fill="#B7802F" d="M30.858,125.905c0.617,0.524,1.34,1.045,1.475,1.896c0.075,0.477,0.798,0.273,0.725-0.199
			c-0.156-0.984-0.953-1.618-1.668-2.229C31.023,125.063,30.49,125.59,30.858,125.905L30.858,125.905z"/>
	</g>
</g>
<g>
	<g>
		<path fill="#B7802F" d="M36.774,124.608c-1.013,0.334-1.189,1.605-0.719,2.453c0.233,0.423,0.882,0.045,0.646-0.379
			c-0.22-0.396-0.259-1.178,0.271-1.352C37.43,125.181,37.234,124.456,36.774,124.608L36.774,124.608z"/>
	</g>
</g>
<g>
	<g>
		<path fill="#B7802F" d="M38.049,124.657c-0.672,0.403-1.061,1.233-0.68,1.963c0.224,0.43,0.871,0.051,0.647-0.379
			c-0.187-0.355,0.112-0.758,0.412-0.937C38.842,125.056,38.465,124.407,38.049,124.657L38.049,124.657z"/>
	</g>
</g>
<g>
	<g>
		<path fill="#B7802F" d="M39.767,125.239c-0.73,0.172-1.246,0.885-1.056,1.631c0.12,0.469,0.844,0.271,0.725-0.199
			c-0.093-0.358,0.208-0.633,0.53-0.709C40.437,125.852,40.237,125.129,39.767,125.239L39.767,125.239z"/>
	</g>
</g>
<g>
	<g>
		<path fill="#B7802F" d="M40.365,125.747c-0.707,0.164-1.077,0.756-0.881,1.459c0.129,0.467,0.853,0.269,0.724-0.199
			c-0.088-0.316,0.046-0.465,0.357-0.536C41.035,126.36,40.835,125.638,40.365,125.747L40.365,125.747z"/>
	</g>
</g>
<g>
	<g>
		<path fill="#B7802F" d="M34.625,121.198c0.567-0.082,1.078-0.084,1.63,0.082c0.464,0.141,0.661-0.584,0.199-0.723
			c-0.685-0.206-1.327-0.186-2.028-0.082C33.948,120.545,34.152,121.268,34.625,121.198L34.625,121.198z"/>
	</g>
</g>
<g>
	<g>
		<path fill="#B7802F" d="M35.454,112.713c0.218-0.348,0.729-0.4,0.964-0.034c0.262,0.405,0.91,0.028,0.647-0.38
			c-0.542-0.844-1.736-0.797-2.259,0.035C34.548,112.745,35.198,113.122,35.454,112.713L35.454,112.713z"/>
	</g>
</g>
<g>
	<g>
		<path fill="#B7802F" d="M34.763,118.942c0.428-0.191,1.328-0.441,1.676,0.035c0.282,0.387,0.933,0.014,0.646-0.379
			c-0.633-0.868-1.84-0.689-2.703-0.305C33.944,118.491,34.325,119.138,34.763,118.942L34.763,118.942z"/>
	</g>
</g>
<g>
	<g>
		<path fill="#B7802F" d="M60.719,111.267c0.248-0.451,0.882-0.211,1.005,0.211c0.135,0.464,0.857,0.267,0.723-0.199
			c-0.299-1.03-1.806-1.422-2.375-0.391C59.837,111.312,60.484,111.69,60.719,111.267L60.719,111.267z"/>
	</g>
</g>
<g>
	<g>
		<path fill="#B7802F" d="M60.289,114.01c0.218-0.35,0.728-0.399,0.961-0.032c0.262,0.405,0.91,0.03,0.648-0.379
			c-0.541-0.845-1.736-0.802-2.258,0.032C59.384,114.043,60.033,114.418,60.289,114.01L60.289,114.01z"/>
	</g>
</g>
<g>
	<g>
		<path fill="#B7802F" d="M59.773,115.989c0.482-0.623,1.188-0.387,1.75,0.004c0.397,0.276,0.771-0.373,0.379-0.647
			c-0.82-0.57-1.978-0.769-2.66,0.112C58.95,115.836,59.477,116.37,59.773,115.989L59.773,115.989z"/>
	</g>
</g>
<g>
	<g>
		<path fill="#B7802F" d="M60.484,112.618c0.217-0.349,0.729-0.402,0.963-0.035c0.261,0.405,0.91,0.029,0.648-0.379
			c-0.542-0.844-1.738-0.797-2.261,0.034C59.579,112.649,60.228,113.025,60.484,112.618L60.484,112.618z"/>
	</g>
</g>
<g>
	<g>
		<path fill="#B7802F" d="M60.061,120.312c0.423-0.19,1.028-0.362,1.346,0.095c0.273,0.395,0.924,0.02,0.648-0.38
			c-0.581-0.838-1.535-0.741-2.373-0.362C59.241,119.862,59.623,120.508,60.061,120.312L60.061,120.312z"/>
	</g>
</g>
<g>
	<g>
		<path fill="#B7802F" d="M59.568,122.706c0.646-0.086,1.283-0.045,1.908,0.145c0.464,0.141,0.661-0.583,0.198-0.723
			c-0.761-0.23-1.522-0.25-2.307-0.145C58.892,122.047,59.096,122.771,59.568,122.706L59.568,122.706z"/>
	</g>
</g>
<g>
	<g>
		<path fill="#B7802F" d="M58.871,123.892c0.592,0.612,1.786,1.053,2.631,0.924c0.478-0.071,0.273-0.795-0.198-0.724
			c-0.566,0.087-1.517-0.332-1.9-0.731C59.066,123.012,58.536,123.543,58.871,123.892L58.871,123.892z"/>
	</g>
</g>
<g>
	<g>
		<path fill="#B7802F" d="M59.789,121.517c0.566-0.079,1.078-0.081,1.629,0.086c0.464,0.142,0.661-0.583,0.199-0.724
			c-0.685-0.207-1.326-0.185-2.027-0.086C59.112,120.86,59.316,121.583,59.789,121.517L59.789,121.517z"/>
	</g>
</g>
<g>
	<g>
		<path fill="#B7802F" d="M59.928,119.265c0.426-0.192,1.33-0.443,1.676,0.032c0.28,0.389,0.932,0.015,0.647-0.379
			c-0.629-0.869-1.845-0.688-2.703-0.303C59.108,118.814,59.49,119.461,59.928,119.265L59.928,119.265z"/>
	</g>
</g>
<g>
	<g>
		<path fill="#B7802F" d="M62.807,125.103c0.152,0.006,0.3,0.117,0.422,0.2c0.201,0.138,0.336,0.266,0.094,0.393
			c-0.428,0.227-0.049,0.873,0.379,0.648c1.174-0.619,0.069-1.952-0.895-1.991C62.323,124.333,62.325,125.083,62.807,125.103
			L62.807,125.103z"/>
	</g>
</g>
<g>
	<g>
		<path fill="#B7802F" d="M64.516,124.726c0.31,0.36,0.148,1.104-0.25,1.338c-0.417,0.245-0.039,0.894,0.379,0.647
			c0.84-0.492,1.022-1.791,0.401-2.518C64.731,123.827,64.203,124.36,64.516,124.726L64.516,124.726z"/>
	</g>
</g>
<g>
	<g>
		<path fill="#B7802F" d="M66.68,125.124c-0.68,0.23-0.972,0.877-0.896,1.565c0.051,0.476,0.802,0.479,0.75,0
			c-0.034-0.319-0.016-0.72,0.346-0.843C67.334,125.692,67.139,124.967,66.68,125.124L66.68,125.124z"/>
	</g>
</g>
<g>
	<g>
		<path fill="#B7802F" d="M65.025,127.256c-1.213,0.113-2.006,1-2.07,2.205c-0.025,0.483,0.726,0.481,0.75,0
			c0.041-0.77,0.529-1.381,1.32-1.455C65.503,127.963,65.507,127.213,65.025,127.256L65.025,127.256z"/>
	</g>
</g>
<g>
	<g>
		<path fill="#B7802F" d="M63.131,126.485c-0.845,0.409-1.779,0.819-2.178,1.734c-0.188,0.439,0.456,0.82,0.648,0.379
			c0.343-0.793,1.179-1.112,1.907-1.465C63.945,126.922,63.564,126.276,63.131,126.485L63.131,126.485z"/>
	</g>
</g>
<g>
	<g>
		<path fill="#B7802F" d="M57.736,125.03c0.47,0.307,0.236,1.045-0.08,1.375c-0.334,0.35,0.195,0.881,0.531,0.531
			c0.671-0.702,0.821-1.971-0.072-2.555C57.709,124.118,57.333,124.767,57.736,125.03L57.736,125.03z"/>
	</g>
</g>
<g>
	<g>
		<path fill="#B7802F" d="M56.338,124.635c0.244,0.248,0.433,0.717,0.16,1.012c-0.325,0.355,0.203,0.889,0.531,0.531
			c0.554-0.605,0.386-1.516-0.16-2.073C56.529,123.76,55.999,124.29,56.338,124.635L56.338,124.635z"/>
	</g>
</g>
<g>
	<g>
		<path fill="#B7802F" d="M54.682,124.883c0.292,0.154,0.517,0.492,0.336,0.816c-0.234,0.424,0.413,0.803,0.647,0.379
			c0.374-0.674,0.058-1.49-0.604-1.844C54.634,124.008,54.255,124.657,54.682,124.883L54.682,124.883z"/>
	</g>
</g>
<g>
	<g>
		<path fill="#B7802F" d="M53.975,125.226c0.282,0.146,0.379,0.319,0.211,0.604c-0.244,0.418,0.402,0.797,0.647,0.379
			c0.368-0.629,0.164-1.299-0.479-1.633C53.925,124.355,53.545,125.002,53.975,125.226L53.975,125.226z"/>
	</g>
</g>
<path fill="#F1D484" d="M73.098,57.491c0,0,0.735-7.195,10.838-6.289c2.94,0.264,8.069,3.922,10.19,5.979
	c2.761,2.674,6.328,5.209,8.188,13.004c0.1,0.418-13.621-5.501-17.158-6.789c-2.123-0.773-5.531-0.01-7.467-2.105
	C76.373,59.863,73.098,57.491,73.098,57.491z"/>
<polygon fill="#EEB651" points="33.302,105.967 33.233,110.506 36.138,109.985 37.534,110.558 37.929,111.782 39.801,112.388 
	39.931,110.481 42.57,106.833 "/>
<polygon fill="#EEB651" points="58.125,106.694 58.057,111.231 60.963,110.713 62.357,111.286 62.754,112.508 64.625,113.113 
	64.756,111.208 67.395,107.56 "/>
<path fill="#F1D484" d="M34.486,44.574c-1.967,3.786-7.747,16.257-11.58,22.747c-2.998,5.076-4.879,15.582-3.98,19.408
	c6.228,26.512,28.761,23.811,35.11,23.891c6.75,0.086,21.771,0.988,28.814-26.211c4.78-18.475-9.275-28.9-12.435-37.563
	c-3.817-10.477-15.119-9.469-20.172-9.546C38.286,37.12,36.116,41.435,34.486,44.574z"/>
<path fill="#FFFFFF" stroke="#FFFFFF" stroke-width="0.2663" d="M41.11,57.524c-4.371,3.341-9.03,18.505-7.602,23.816
	c1.292,4.804,5.368,11.951,17.168,14.488c13.75,2.957,19.151-9.56,20.651-14.047c1.805-5.402,0.582-18.513-3.469-22.515
	C62.918,54.392,46.625,53.308,41.11,57.524z"/>
<path fill="#BFBCBA" d="M40.906,56.066c-4.324,3.308-4.554,6.55-6.452,13.874c-0.173,0.666,1.666-22.695,28.593-8.255
	c12.269,6.58,3.371,26.254,6.304,22.599c4.803-5.979,2.043-22.531-1.97-26.49C62.492,52.965,46.367,51.894,40.906,56.066z"/>
<path fill="#EEB651" d="M34.199,42.585c-1.129,3.172-2.215,10.451-6.073,15.225c-3.769,4.664-7.421,11.004-6.854,13.969
	c0.14,0.728,7.585-26.832,44.345-17.836c16.076,3.936,17.707,31.511,18.021,28.229c1.84-19.088-15.972-36.029-19.779-42.09
	c-4.604-7.332-13.062-5.779-17.289-5.055C36.566,36.747,35.134,39.96,34.199,42.585z"/>
<path fill="#F1D484" d="M44.963,0v15.007c0,0-7.5,2.477-8.75,15.863s-5.551,21.481-5.551,21.481s15.051,1.608,24.552,22.381
	c0,0,9.183-20.286,16.683-24.101c0,0-5.933-19.375-8.183-25.125s-10.25-11.561-10.25-11.561S50.463,2.993,44.963,0z"/>
<path opacity="0.5" fill="#221E21" enable-background="new    " d="M63.912,53.757"/>
<path fill="#7F8080" d="M60.096,23.497c1.952,1.668,3.252,5.388,3.295,6.939c0.069,2.771-1.736,3.822-4.351,5.174
	c-1.332,0.688-4.455-0.544-5.444-1.643c-2.267-2.517-2.847-11.861-0.132-12.646C56.762,20.364,59.66,23.124,60.096,23.497z"/>
<path fill="#FFFFFF" d="M54.607,23.212c2.342-0.432,7.219,4.018,6.74,7.467c-0.052,0.381,0.125,3.861-4.796,4.658
	c-1.396,0.225-3.911-1.686-4.094-2.988C51.238,23.63,53.018,23.506,54.607,23.212z"/>
<g>
	<path d="M56.424,30.247c0.72-0.204,1.277,0.494,1.386,0.898c0.18,0.689-0.066,1.707-0.722,1.857
		c-0.821,0.186-1.553-0.637-1.625-1.09C55.391,31.461,55.604,30.481,56.424,30.247z"/>
	<path d="M56.488,30.688c0.502-0.079,0.813,0.41,0.879,0.824c0.096,0.613-0.469,0.953-0.678,0.964
		c-0.515,0.026-0.73-0.314-0.797-0.771C55.893,31.706,55.789,30.796,56.488,30.688z"/>
	
		<ellipse transform="matrix(-0.1576 0.9875 -0.9875 -0.1576 96.9085 -20.514)" fill="#FFFFFF" cx="57.204" cy="31.076" rx="0.316" ry="0.297"/>
</g>
<path fill="#7F8080" d="M40.679,24.97c-1.964,1.652-3.291,5.363-3.343,6.915c-0.093,2.769,1.707,3.835,4.312,5.203
	c1.328,0.698,4.457-0.51,5.457-1.604c2.282-2.497,2.928-11.84,0.221-12.645C44.034,21.862,41.119,24.599,40.679,24.97z"/>
<path fill="#FFFFFF" d="M45.882,25.05c-2.321-0.531-7.384,3.705-7.057,7.17c0.037,0.385-0.289,3.854,4.593,4.859
	c1.386,0.283,3.979-1.514,4.219-2.809C49.23,25.612,47.458,25.411,45.882,25.05z"/>
<g>
	<path d="M44.232,31.178c-0.662-0.176-1.187,0.419-1.289,0.763c-0.174,0.587,0.047,1.459,0.649,1.588
		c0.761,0.162,1.445-0.539,1.516-0.927C45.179,32.218,44.991,31.383,44.232,31.178z"/>
	<path d="M44.155,31.527c-0.466-0.069-0.757,0.347-0.821,0.702c-0.095,0.521,0.423,0.813,0.617,0.822
		c0.475,0.025,0.678-0.265,0.746-0.654C44.697,32.397,44.801,31.622,44.155,31.527z"/>
	<circle fill="#FFFFFF" cx="44.564" cy="32.134" r="0.274"/>
</g>
<path fill="#D7AE2B" enable-background="new    " d="M59.62,40.832c0,0-5.875-8.279-8.875-7.5c0,0-2.567-1.199-8.05,8.478
	c0,0,3.3,6.009,7.925,6.266C50.619,48.075,52.495,49.803,59.62,40.832z"/>
<path fill="#EEC280" d="M61.496,22.067c0.072,0.177-5.725-5.268-8.121-5.867c-2.096-0.525-6.999,0.183-9.148,0.406
	c-3.165,0.33-7.055,8.189-6.013,6.291c3.103-5.65,4.703-6.619,4.703-6.619c2.079-3.908,0.054-15.543,1.439-15.905
	C49.525-0.976,54.54,15.071,54.54,15.071S59.426,16.974,61.496,22.067z"/>
<path fill="#CE922D" d="M50.435,5.772c-3.467-6.339-5.717-5.684-5.717-5.684c4.76,5.426,7.781,14.076,7.52,15.491
	c-0.258,1.403,1.307-0.546,1.926-0.323C54.525,15.387,54.455,13.116,50.435,5.772z"/>
<path fill="#EEB651" d="M64.412,29.304c0,0,0.125,1.813,0.685,4.6c0.645,3.217,1.418,6.928,0.704,8.423
	c-0.495,1.042-0.362,1.999-0.362,1.999c0.098-0.764,1.119-1.102,2.045-0.949c0.436,0.072,1.969,1.252,2.602,1.719
	c0.414,0.303-1.01-2.131-1.061-2.641c-0.076-0.785-2.314-4.598-2.383-4.934C66.072,34.702,64.412,29.304,64.412,29.304z"/>
<path fill="#F1D484" d="M34.183,59.215c0,0,0.268-8.058-11.027-8.578c-3.288-0.151-9.502,3.116-12.155,5.067
	c-3.447,2.537-7.773,4.803-10.999,13.132c-0.174,0.447,15.871-4.024,19.973-4.917c2.463-0.536,6.11,0.823,8.564-1.2
	C30.207,61.341,34.183,59.215,34.183,59.215z"/>
<path fill="#CE922D" d="M48.49,42.419c0.875,0.004,2.605,0.28,3.475,0.377c0.699,0.079,2.548-0.708,3.123-0.176
	c0.316,0.293,0.039,1.305-0.047,1.727c-0.082,0.4-0.252,1.609-0.252,1.609c1.109-1.232,1.482-2.549,2.076-3.38
	c0.33-0.462,2.807-1.036,2.807-1.036s-3.36-0.139-4.321-0.176c-0.992-0.037-2.855,0.472-3.847,0.41
	c-0.688-0.04-2.073-0.509-2.762-0.469c-1.28,0.073-5.176,1.451-5.176,1.451s2.387,0.079,3.213-0.135
	C47.21,42.509,48.058,42.419,48.49,42.419z"/>
<path fill="#CE922D" d="M46.955,37.237c-0.086,0.166,1.158-2.464,2.713-3.164c0.679-0.303,2.313-0.082,2.95,0.296
	c0.48,0.283,1.244,1.14,1.541,1.61c0.369,0.586,0.947,1.844,1.197,2.486c0.133,0.332,0.172,1.162,0.477,1.354
	c0.263,0.166,0.924-0.174,1.234-0.152c0.416,0.025,2,1.077,2,1.077c-2.232-1.802-3.146-3.797-3.744-4.542
	c-0.801-1-2.139-2.549-3.76-2.942c-0.832-0.201-2.001,0.042-2.407,0.731C48.349,35.364,48.796,33.731,46.955,37.237z"/>
<path fill="#BF8025" d="M46.511,41.886c0,0,1.852-0.575,2.488-0.586c0.618-0.012,1.806,0.449,2.419,0.482
	c0.685,0.034,2.028-0.334,2.713-0.369c1.361-0.076,5.457,0.133,5.457,0.133s-3.284,0.508-3.194,1.953
	c0.018,0.271-0.104-0.873-0.308-1.059c-0.479-0.443-1.543-0.854-4.35-0.389c-1.045,0.172-1.387-0.156-2.447-0.166
	C48.597,41.877,46.511,41.886,46.511,41.886z"/>
<path fill="#FFFFFF" d="M50.488,34.606c0,0,0.041,0.271,0.008,0.354c-0.057,0.135-0.426,0.41-0.426,0.41s0.156-0.287,0.215-0.393
	C50.333,34.894,50.488,34.606,50.488,34.606z"/>
<path fill="#FFFFFF" d="M52.236,35.41c0,0-0.269-0.065-0.328-0.128c-0.104-0.105-0.217-0.551-0.217-0.551s0.205,0.254,0.279,0.352
	C52.031,35.16,52.236,35.41,52.236,35.41z"/>
<path fill="#EEB651" d="M19.357,51.413c0,0,7.276,0.861,9.105,1.84c1.779,0.955,4.987,3.528,4.987,3.528s-1.379-4.903-8.721-6.052
	C22.769,50.42,19.357,51.413,19.357,51.413z"/>
<path fill="#EEB651" d="M75.361,56.414l-1.025-1.7c0,0,3.229-2.923,4.547-3.357c4.084-1.354,9.445,1.484,9.445,1.484
	s-7.535-0.91-9.135-0.078C78.045,53.36,75.361,56.414,75.361,56.414z"/>
</svg>
