<?xml version="1.0" encoding="utf-8"?>
<!-- Generator: Adobe Illustrator 16.0.0, SVG Export Plug-In . SVG Version: 6.00 Build 0)  -->
<!DOCTYPE svg PUBLIC "-//W3C//DTD SVG 1.1//EN" "http://www.w3.org/Graphics/SVG/1.1/DTD/svg11.dtd">
<svg version="1.1" id="Layer_1" xmlns="http://www.w3.org/2000/svg" xmlns:xlink="http://www.w3.org/1999/xlink" x="0px" y="0px"
	 width="50px" height="50px" viewBox="0 0 50 50" enable-background="new 0 0 50 50" xml:space="preserve">
<g>
	<g>
		<g>
			
				<radialGradient id="SVGID_1_" cx="-5369.917" cy="-2268.6279" r="33.5478" fx="-5396.854" fy="-2268.1873" gradientTransform="matrix(0 1.2187 -1.2187 0 -2739.28 6569.6987)" gradientUnits="userSpaceOnUse">
				<stop  offset="0" style="stop-color:#EF8068"/>
				<stop  offset="0.207" style="stop-color:#E7775E"/>
				<stop  offset="0.5543" style="stop-color:#D16044"/>
				<stop  offset="0.997" style="stop-color:#AE391A"/>
				<stop  offset="1" style="stop-color:#AE391A"/>
			</radialGradient>
			<path fill="url(#SVGID_1_)" d="M25.557,49.845c-13.594,0-24.607-11.019-24.607-24.611c0-13.593,11.014-24.611,24.607-24.611
				c13.591,0,24.611,11.019,24.611,24.611C50.168,38.826,39.148,49.845,25.557,49.845z"/>
			<path opacity="0.22" fill="#FFF6DC" d="M25.557,1.928c13.375,0,24.248,10.672,24.594,23.959c0.007-0.218,0.017-0.436,0.017-0.654
				c0-13.593-11.02-24.611-24.611-24.611C11.963,0.623,0.95,11.641,0.95,25.234c0,0.218,0.009,0.436,0.014,0.654
				C1.313,12.601,12.183,1.928,25.557,1.928z"/>
			<path opacity="0.7" fill="#801810" d="M25.559,48.799c-13.375,0-24.246-10.668-24.595-23.955
				C0.959,25.063,0.95,25.28,0.95,25.498c0,13.595,11.019,24.611,24.609,24.611c13.595,0,24.609-11.016,24.609-24.611
				c0-0.218-0.01-0.435-0.017-0.654C49.805,38.131,38.933,48.799,25.559,48.799z"/>
			<path fill="#FFF6DC" d="M33.173,28.726c-0.144-0.138-1.157-1.176-2.545-2.587l5.111-5.093c0.638-0.66,0.761-1.584,0.266-2.059
				l-2.754-2.672c-0.498-0.479-1.412-0.332-2.052,0.329c0,0-2.33,2.39-4.92,5.043c-2.594-2.653-4.923-5.043-4.923-5.043
				c-0.638-0.661-1.554-0.807-2.049-0.329l-2.754,2.672c-0.495,0.475-0.375,1.398,0.265,2.059l5.109,5.093
				c-1.382,1.411-2.403,2.449-2.541,2.587l-2.675,2.766c-0.495,0.475-0.705,1.526-0.058,2.179l1.862,1.855
				c0.304,0.307,0.666,0.49,1.016,0.564c0.501,0.16,1.169-0.037,1.668-0.549l5.081-5.067l5.083,5.067
				c0.494,0.512,1.161,0.709,1.662,0.549c0.35-0.074,0.712-0.258,1.017-0.564L35.9,33.67c0.649-0.652,0.44-1.704-0.055-2.179
				L33.173,28.726z"/>
			<path fill="#801810" d="M33.173,27.725c-0.144-0.135-1.157-1.173-2.545-2.589l5.111-5.093c0.638-0.656,0.761-1.585,0.266-2.057
				l-2.754-2.673c-0.498-0.476-1.412-0.332-2.052,0.332c0,0-2.33,2.387-4.92,5.04c-2.594-2.653-4.923-5.04-4.923-5.04
				c-0.638-0.663-1.554-0.807-2.049-0.332l-2.754,2.673c-0.495,0.471-0.375,1.401,0.265,2.057l5.109,5.093
				c-1.382,1.417-2.403,2.455-2.541,2.589l-2.675,2.771c-0.495,0.472-0.705,1.523-0.058,2.171l1.862,1.858
				c0.304,0.305,0.666,0.489,1.016,0.562c0.501,0.162,1.169-0.037,1.668-0.549l5.081-5.063l5.083,5.063
				c0.494,0.512,1.161,0.711,1.662,0.549c0.35-0.072,0.712-0.257,1.017-0.562l1.859-1.858c0.649-0.647,0.44-1.699-0.055-2.171
				L33.173,27.725z"/>
		</g>
		<g>
			<path fill="none" stroke="#801810" stroke-width="0.7291" stroke-linecap="round" stroke-dasharray="4.2925,5.7233" d="
				M44.095,31.28c-2.86,10.173-13.425,16.103-23.597,13.242c-10.175-2.864-16.1-13.431-13.241-23.599
				C10.119,10.749,20.684,4.821,30.856,7.682C41.031,10.542,46.958,21.109,44.095,31.28z"/>
		</g>
		<g>
			<path fill="none" stroke="#FFFBFD" stroke-width="0.7269" stroke-linecap="round" stroke-dasharray="4.2791,5.7054" d="
				M44.037,30.279c-2.851,10.14-13.381,16.052-23.523,13.196C10.371,40.626,4.465,30.093,7.316,19.952
				C10.168,9.81,20.699,3.899,30.841,6.753C40.983,9.604,46.893,20.139,44.037,30.279z"/>
		</g>
	</g>
</g>
</svg>
