<?xml version="1.0" encoding="utf-8"?>
<!-- Generator: Adobe Illustrator 16.0.0, SVG Export Plug-In . SVG Version: 6.00 Build 0)  -->
<!DOCTYPE svg PUBLIC "-//W3C//DTD SVG 1.1//EN" "http://www.w3.org/Graphics/SVG/1.1/DTD/svg11.dtd">
<svg version="1.1" xmlns="http://www.w3.org/2000/svg" xmlns:xlink="http://www.w3.org/1999/xlink" x="0px" y="0px" width="800px"
	 height="600px" viewBox="0 0 800 600" enable-background="new 0 0 800 600" xml:space="preserve">
<g id="Layer_3">
</g>
<g id="Layer_2">
	<rect opacity="0.1" fill="#C5DFDC" width="800" height="600"/>
	<g>
		<path fill="#F5F1EB" d="M130.325,515.681c-0.17,20.535-24.729,36.978-54.842,36.714c-30.095-0.274-54.364-17.147-54.166-37.7
			c0.162-20.542,24.731-36.978,54.835-36.714C106.257,478.255,130.519,495.128,130.325,515.681z"/>
		<path fill="#F5F1EB" d="M328.585,558.223c-0.186,20.544-24.74,36.988-54.851,36.723c-30.106-0.277-54.345-17.155-54.166-37.697
			c0.17-20.547,24.723-36.987,54.833-36.711C304.508,520.808,328.759,537.679,328.585,558.223z"/>
		<path fill="#F5F1EB" d="M215.349,526.633c-0.185,20.545-24.723,36.986-54.833,36.71c-30.104-0.271-54.357-17.134-54.174-37.688
			c0.188-20.544,24.74-36.977,54.837-36.715C191.296,489.212,215.549,506.088,215.349,526.633z"/>
		<path fill="#F5F1EB" d="M278.92,515.479c-0.116,14.349-17.279,25.832-38.308,25.649c-21.021-0.186-37.981-11.977-37.847-26.342
			c0.131-14.347,17.285-25.834,38.308-25.631C262.119,489.332,279.06,501.118,278.92,515.479z"/>
		<path fill="#F5F1EB" d="M94.095,558.676c-0.069,8.159-9.829,14.688-21.785,14.58c-11.958-0.109-21.606-6.813-21.52-14.971
			c0.069-8.158,9.822-14.686,21.782-14.586C84.535,543.807,94.172,550.51,94.095,558.676z"/>
		<path fill="#F5F1EB" d="M243.46,556.952c-0.271,30.396-36.594,54.713-81.129,54.313c-44.542-0.394-80.428-25.362-80.15-55.759
			c0.27-30.388,36.599-54.713,81.136-54.313C207.854,501.594,243.736,526.555,243.46,556.952z"/>
	</g>
	<g>
		<path fill="#F5F1EB" d="M130.325-86.985c-0.17,20.535-24.729,36.978-54.842,36.714c-30.095-0.274-54.364-17.147-54.166-37.7
			c0.162-20.542,24.731-36.978,54.835-36.714C106.257-124.411,130.519-107.538,130.325-86.985z"/>
		<path fill="#F5F1EB" d="M328.585-44.443c-0.186,20.544-24.74,36.988-54.851,36.723c-30.106-0.277-54.345-17.155-54.166-37.697
			c0.17-20.547,24.723-36.987,54.833-36.711C304.508-81.858,328.759-64.987,328.585-44.443z"/>
		<path fill="#F5F1EB" d="M215.349-76.033c-0.185,20.545-24.723,36.986-54.833,36.71c-30.104-0.271-54.357-17.134-54.174-37.688
			c0.188-20.544,24.74-36.977,54.837-36.715C191.296-113.454,215.549-96.578,215.349-76.033z"/>
		<path fill="#F5F1EB" d="M278.92-87.187c-0.116,14.349-17.279,25.832-38.308,25.649c-21.021-0.186-37.981-11.977-37.847-26.342
			c0.131-14.347,17.285-25.834,38.308-25.631C262.119-113.334,279.06-101.548,278.92-87.187z"/>
		<path fill="#F5F1EB" d="M94.095-43.99c-0.069,8.159-9.829,14.688-21.785,14.58c-11.958-0.109-21.606-6.813-21.52-14.971
			c0.069-8.158,9.822-14.686,21.782-14.586C84.535-58.859,94.172-52.156,94.095-43.99z"/>
		<path fill="#F5F1EB" d="M243.46-45.714c-0.271,30.396-36.594,54.713-81.129,54.313C117.789,8.205,81.903-16.764,82.18-47.16
			c0.27-30.388,36.599-54.713,81.136-54.313C207.854-101.072,243.736-76.111,243.46-45.714z"/>
	</g>
	<g>
		<path fill="#F5F1EB" d="M732.076,299.437c0.021,3.865-4.558,7.022-10.225,7.051c-5.663,0.026-10.27-3.085-10.289-6.955
			c-0.021-3.864,4.559-7.019,10.224-7.048C727.453,292.459,732.058,295.571,732.076,299.437z"/>
		<path fill="#F5F1EB" d="M769.484,306.928c0.021,3.87-4.56,7.023-10.221,7.05c-5.665,0.024-10.274-3.086-10.29-6.948
			c-0.02-3.87,4.559-7.026,10.221-7.053C764.86,299.951,769.47,303.063,769.484,306.928z"/>
		<path fill="#F5F1EB" d="M748.099,301.279c0.021,3.864-4.551,7.02-10.22,7.048c-5.662,0.024-10.273-3.083-10.29-6.949
			c-0.019-3.868,4.561-7.025,10.225-7.051C743.477,294.301,748.085,297.412,748.099,301.279z"/>
		<path fill="#F5F1EB" d="M760.034,299.016c0.014,2.702-3.188,4.907-7.146,4.924c-3.957,0.019-7.173-2.153-7.184-4.855
			c-0.018-2.702,3.184-4.906,7.141-4.926C756.801,294.139,760.021,296.314,760.034,299.016z"/>
		<path fill="#F5F1EB" d="M725.372,307.622c0.006,1.531-1.815,2.785-4.06,2.8c-2.255,0.008-4.084-1.225-4.09-2.764
			c-0.008-1.535,1.806-2.788,4.059-2.8C723.531,304.847,725.364,306.085,725.372,307.622z"/>
		<path fill="#F5F1EB" d="M753.468,306.91c0.025,5.719-6.745,10.39-15.127,10.429c-8.379,0.04-15.192-4.564-15.217-10.286
			c-0.032-5.719,6.74-10.387,15.12-10.429C746.627,296.585,753.439,301.19,753.468,306.91z"/>
	</g>
	<path fill="#F5F1EB" d="M870.747,59.516c0.223-0.763,0.319-1.544,0.269-2.335c-0.406-6.4-10.041-11.019-21.514-10.317
		c-8.738,0.538-16.02,4.006-18.817,8.453c-5.651-3.928-14.71-6.167-24.762-5.555c-7.746,0.473-14.695,2.557-19.819,5.586
		c-5.303-4.983-15.464-7.986-26.921-7.288c-16.429,1.009-29.286,9.247-28.699,18.399c0.442,6.975,8.532,12.463,19.608,14.25
		c-1.392,1.186-2.181,2.593-2.087,4.064c0.226,3.646,5.698,6.263,12.238,5.87c2.603-0.163,4.973-0.79,6.878-1.708
		c5.861,9.987,23.307,16.503,43.455,15.271c16.863-1.03,31.166-7.216,38.067-15.43c5.642,2.938,13.539,4.513,22.168,3.988
		c16.418-1.003,29.278-9.237,28.69-18.405C898.958,65.584,886.266,59.154,870.747,59.516z"/>
	<g>
		<path fill="#F5F1EB" d="M536.907,204.803c-0.152-11.082,8.713-20.188,19.792-20.344c11.083-0.135,20.191,8.725,20.328,19.803
			c0.17,11.082-8.708,20.189-19.794,20.333C546.151,224.75,537.054,215.881,536.907,204.803z"/>
		<path fill="#F5F1EB" d="M463.476,183.795c-0.144-11.078,8.716-20.188,19.802-20.34c11.082-0.134,20.191,8.725,20.334,19.803
			c0.165,11.08-8.712,20.186-19.797,20.333C472.734,203.747,463.633,194.878,463.476,183.795z"/>
		<path fill="#F5F1EB" d="M505.488,199.736c-0.146-11.077,8.715-20.199,19.798-20.342c11.076-0.158,20.188,8.714,20.336,19.792
			c0.159,11.074-8.711,20.188-19.803,20.333C514.739,219.673,505.637,210.806,505.488,199.736z"/>
		<path fill="#F5F1EB" d="M482.208,206.366c-0.114-7.739,6.083-14.102,13.835-14.212c7.742-0.093,14.098,6.089,14.199,13.827
			c0.106,7.75-6.091,14.115-13.827,14.222C488.67,220.301,482.311,214.107,482.208,206.366z"/>
		<path fill="#F5F1EB" d="M549.771,181.262c-0.049-4.395,3.475-8.021,7.871-8.078c4.403-0.07,8.028,3.457,8.078,7.851
			c0.068,4.411-3.454,8.025-7.871,8.093C553.453,189.189,549.84,185.661,549.771,181.262z"/>
		<path fill="#F5F1EB" d="M494.828,183.646c-0.231-16.391,12.887-29.866,29.281-30.092c16.396-0.213,29.866,12.903,30.096,29.294
			c0.228,16.402-12.903,29.875-29.302,30.084C508.512,213.17,495.047,200.054,494.828,183.646z"/>
	</g>
	<path fill="#F5F1EB" d="M876.652,521.31c0,3.541-46.243,6.399-103.293,6.399c-57.052,0-247.956-4.896-197.968-6.973
		c21.845-0.899,89.928-4.936,137.785-2.706c29.108,1.359,75.105-0.908,81.626-0.908C851.856,517.122,876.652,517.778,876.652,521.31
		z"/>
	<path fill="#F5F1EB" d="M470.794,530.467c0,2.442,25.829,4.416,57.702,4.416c31.862,0,57.691-1.974,57.691-4.416
		c0-2.437-25.829-4.421-57.691-4.421C496.623,526.046,470.794,528.03,470.794,530.467z"/>
	<path fill="#F5F1EB" d="M254.605,104.879c0-4.725,61.702-8.537,137.823-8.537c76.118,0,330.839,6.532,264.141,9.302
		c-29.147,1.2-119.987,6.586-183.846,3.611c-38.835-1.814-100.208,1.211-108.906,1.211
		C287.689,110.466,254.605,109.59,254.605,104.879z"/>
	<path fill="#F5F1EB" d="M532.334,121.657c0-2.216-55.063-4.054-123.002-4.054c-67.939,0-122.999,1.837-122.999,4.054
		c0,2.251,55.059,4.049,122.999,4.049C477.271,125.707,532.334,123.909,532.334,121.657z"/>
	<path fill="#F5F1EB" d="M0,517.124v10.37c44.136-0.727,76.652-3.216,76.652-6.185C76.652,517.888,53.364,517.165,0,517.124z"/>
	<path fill="#F5F1EB" d="M70.747,59.516c0.223-0.763,0.319-1.544,0.269-2.335c-0.406-6.4-10.041-11.019-21.514-10.317
		c-8.738,0.538-16.02,4.006-18.817,8.453c-5.651-3.928-14.71-6.167-24.762-5.555C3.886,49.886,1.908,50.127,0,50.462v53.676
		c3.403,0.256,6.945,0.289,10.576,0.067c16.863-1.03,31.166-7.216,38.067-15.43c5.642,2.938,13.539,4.513,22.168,3.988
		c16.418-1.003,29.278-9.237,28.69-18.405C98.958,65.584,86.266,59.154,70.747,59.516z"/>
</g>
</svg>
