<?xml version="1.0" encoding="utf-8"?>
<!-- Generator: Adobe Illustrator 16.0.0, SVG Export Plug-In . SVG Version: 6.00 Build 0)  -->
<!DOCTYPE svg PUBLIC "-//W3C//DTD SVG 1.1//EN" "http://www.w3.org/Graphics/SVG/1.1/DTD/svg11.dtd">
<svg version="1.1" id="Layer_1" xmlns="http://www.w3.org/2000/svg" xmlns:xlink="http://www.w3.org/1999/xlink" x="0px" y="0px"
	 width="40px" height="40px" viewBox="0 0 40 40" enable-background="new 0 0 40 40" xml:space="preserve">
<rect fill="none" width="40" height="40"/>
<rect fill="none" width="40" height="40"/>
<g>
	<rect x="0.084" fill="none" width="84.221" height="84.22"/>
	<g>
		<defs>
			<rect id="SVGID_1_" x="0.042" y="0.125" width="39.958" height="39.875"/>
		</defs>
		<clipPath id="SVGID_2_">
			<use xlink:href="#SVGID_1_"  overflow="visible"/>
		</clipPath>
		<g clip-path="url(#SVGID_2_)">
			<path fill="#51311E" stroke="#3E271B" stroke-width="9.3577" stroke-miterlimit="10" d="M756.448,4.508H37.941
				c0,0-3.949,30.19-33.191,30.19v489.396c15.207,0,31.817,14.975,31.817,32.521h721.041c0.297-21.058,13.305-32.827,33.189-32.827
				V34.698C760.385,34.698,756.448,4.508,756.448,4.508z"/>
			<g opacity="0.77">
				
					<radialGradient id="SVGID_3_" cx="557.8701" cy="-292.1953" r="592.4047" gradientTransform="matrix(1.4509 0 0 -1.3118 -417.5975 -425.9271)" gradientUnits="userSpaceOnUse">
					<stop  offset="0" style="stop-color:#C2955C"/>
					<stop  offset="0.1204" style="stop-color:#BD9159"/>
					<stop  offset="0.2618" style="stop-color:#AF8451"/>
					<stop  offset="0.4138" style="stop-color:#976F45"/>
					<stop  offset="0.5721" style="stop-color:#775233"/>
					<stop  offset="0.7199" style="stop-color:#51311E"/>
				</radialGradient>
				<path fill="url(#SVGID_3_)" d="M751.91,8.492c0-0.183-713.107-0.177-713.153,0c-4.47,17.58-16.03,28.883-31.452,30.191
					l0.081,487.795c19.375,0,34.436,16.1,34.721,35.985h710.518c0.292-19.886,14.964-36.029,32.508-36.029V41.511
					C767.588,41.511,751.91,27.366,751.91,8.492z"/>
			</g>
		</g>
	</g>
</g>
<g>
	<defs>
		<rect id="SVGID_4_" width="40" height="40"/>
	</defs>
	<clipPath id="SVGID_5_">
		<use xlink:href="#SVGID_4_"  overflow="visible"/>
	</clipPath>
</g>
</svg>
