<?xml version="1.0" encoding="utf-8"?>
<!-- Generator: Adobe Illustrator 16.0.0, SVG Export Plug-In . SVG Version: 6.00 Build 0)  -->
<!DOCTYPE svg PUBLIC "-//W3C//DTD SVG 1.1//EN" "http://www.w3.org/Graphics/SVG/1.1/DTD/svg11.dtd">
<svg version="1.1" id="Layer_1" xmlns="http://www.w3.org/2000/svg" xmlns:xlink="http://www.w3.org/1999/xlink" x="0px" y="0px"
	 width="397.219px" height="255.441px" viewBox="0 0 397.219 255.441" enable-background="new 0 0 397.219 255.441"
	 xml:space="preserve">
<g>
	<path fill="#020303" d="M7.446,46.811c7.977,1.085,8.598,7.407,8.299,10.454c-0.435,4.482-6.688,12.37-4.877,16.492
		c1,2.28,9.031,4.183,9.031,4.183S1.383,81.487,0.025,64.248C-0.327,59.774,2.999,46.205,7.446,46.811z"/>
	<path fill="none" stroke="#020303" stroke-width="2.2497" d="M5.244,49.605c0,0,4.087-11.251,10.967-18.057
		C40.465,7.55,57.427,21.89,68.134,30.077c28.075,21.473,44.356-15.99,44.356-15.99"/>
	<path fill="#CCC8AB" d="M104.669,134.307c-9.306,7.363-4.481,35.458-3.882,47.311c0.514,10.095,7.362,39.758,7.362,39.758
		l7.873,2.964c0,0,0.463-31.784,5.05-40.795c2.808-5.517,8.645-9.879,12.385-14.813c4.619-6.092,15.362-21.65,11.591-28.301
		C140.011,131.55,112.679,127.974,104.669,134.307z"/>
	<path fill="#020303" d="M115.835,215.731c-2.942-0.1-8.134,1.813-9.582,4.376c-0.944,1.669-1.981,8.668-0.844,10.213
		c1.831,2.488,5.494,2.966,10.619,1.916c2.714-0.555-0.571-7.139,1.595-5.417c3.36,2.676,4.343,4.816,8.623,4.153
		c2.155-0.336,2.215-5.508,0.183-10.086C125.638,219.105,119.804,215.867,115.835,215.731z"/>
	<path fill="#E1A280" d="M63.446,155.616c0,0,9.577,5.659,10.283,11.58c1.159,9.742,4.657,11.449,7.185,14.652
		c2.557,3.234,0.088,6.962,0.073,8.445c-0.01,1.024,1.299,2.679,2.66,1.301c1.246-1.264-0.092-7.472,0.969-8.462
		c0.717-0.667,3.222,0.095,3.816,0.873c0.584,0.76-0.052,2.876-0.148,3.831c-0.494,5.059,2.834,3.898,3.512,3.272
		c1.596-1.479-2.28-6.289-1.533-7.589c0.568-0.994,4.808-1.371,5.916-1.083c2.713,0.705,0.251,6.777,1.278,8.264
		c0.974,1.404,2.688,0.823,3.198-0.104c1.228-2.233-3.305-8.17-0.559-9.131c1.519-0.531,4.584-0.271,5.382,0.932
		c1.757,2.65-2.44,8.575,1.277,8.264c4.945-0.414-3.231-9.365,3.842-9.318c0.964,0.003,0.464,0.019,1.351,0.394
		c1.444,0.611,2.062,3.246,1.983,4.809c-0.037,0.747-0.904,3.079-0.431,3.991c0.638,1.223,2.146,1.67,3.638,0.128
		c2.021-2.089-2.099-7.643-1.515-8.486c0.416-0.6,2.642-1.794,5.883-1.244c2.223,0.38,1.663,4.085,1.393,4.591
		c-1.2,2.234-0.259,3.253-0.025,3.563c0.516,0.676,2.438,1.092,2.906-0.63c0.822-3.037-3.687-7.242,1.48-10.227
		c3.287-1.898,7.17-4.256,10.706-8.439c3.423-4.048,10.523-18.417,10.523-18.417s-34.152-13.812-46.23-14.108
		C95.787,137.109,63.446,155.616,63.446,155.616z"/>
	<path fill="#CCC8AB" d="M359.797,36.993c3.395,0.078,11.691,1.875,15.068,2.201c7.406,0.721,16.705-6.102,21.021-3.292
		c2.162,1.408,1.203,8.009,0.508,10.489c-2.645,9.482-11.17,13.232-16.492,13.51c-15.059,0.787-20.643-9.013-20.643-9.013
		l-2.248-8.367C357.012,42.521,358.754,36.968,359.797,36.993z"/>
	<path fill="#E4E1D2" d="M364.805,113.069c-0.346-4.031-4.02-16.976-4.355-19.779c-0.59-4.929-1.273-8.454,0.311-14.552
		c0.398-1.524,2.342-4.263,2.479-5.831c0.088-0.993-0.236-3.746-0.213-4.743c0.029-1.278,1.422-4.917,1.422-4.917
		s-3.453-6.716-3.877-9.166c-0.346-1.976,0.789-5.507,0.33-9.234c-0.578-4.688,0.504-10.779-6.34-16.519
		c-5.154-4.318-19.506-6.519-26.215-6.054c-8.027,0.557-22.027,2.372-27.131,8.596c-0.512,0.624-0.96,1.281-1.36,1.962
		c-20.611,5.348-60.858,14.174-93.86,11.606c-19.183-1.493-45.686-19.334-65.354-32.873c-11.675-8.036-17.87,2.042-23.443,1.868
		C106.627,13.105,85.226-4,74.907,1.815C53.269,14.005,50.471,36.26,49.429,54.238c-1.292,22.314-3.28,46.35-3.249,66.593
		c0.019,11.771,2.457,35.268,4.35,46.883c2.48,15.23,14.104,60.095,14.104,60.095l7.256-1.772c0,0-9.146-63.205,4.989-75.938
		c5.145-4.639,18.905,2.123,25.148,5.126c45.468,21.873,89.719,7.484,92.382,22.159c1.09,6.01-1.133,13.645,0.943,24.425
		c3.758,19.51,7.868,39.729,7.868,39.729l12.362-1.715c0,0-1.09-13.771-0.254-35.418c0.193-5.012,2.854-14.73,6.346-15.188
		c3.174-0.415,10.341,8.532,24.248,10.177c3.398,0.402,11.66-1.938,14.695,0.055c3.986,2.619,4.115,44.465,4.115,44.465
		l14.473-0.494c0,0-1.442-16.656-1.469-30.215c-0.023-12.427,9.008-32.833,11.422-38.195c6.744-14.989,11.709-12.011,19.004-45.337
		c0.926-4.227,2.085-8.126,3.397-11.747c0.502,0.702,0.968,1.364,1.353,1.946c1.844,2.782,2.779,5.706,5.086,8.121
		c2.795,2.926,10.938,2.937,13.564,3.417c3.326,0.611,4.07,4.2,13.109,3.53c9.723-0.719,14.076-7.125,16.455-9.477
		C363.303,123.312,365.067,116.114,364.805,113.069z"/>
	<path fill="#BD803D" d="M329.766,20.95c-2.305,0.104-6.982-1.091-9.221-0.518c-1.313,0.334-3.293,2.53-4.605,2.863
		c-0.959,0.245-4.592-0.076-4.592-0.076s1.396,0.977,1.855,1.216c1.531,0.797,3.34,0.939,3.34,0.939s-2.658,0.814-3.463,0.946
		c-0.984,0.158-3.691,0.213-3.691,0.213s0.818,0.96,4.373,1.326c0.912,0.096,3.605-0.039,3.605-0.039s-1.215,2.643-1.637,3.515
		c-0.594,1.207-3.314,3.771-2.436,4.79c0.635,0.732,2.785-0.849,3.674-1.238c1.777-0.771,6.816-3.7,6.816-3.7
		s4.107,2.413,5.209,3.535c1.352,1.381,2.334,6.981,4.203,6.485c0.955-0.255,0.221-3.952,0.221-3.952s1.242,6.599,3.004,6.416
		c1.879-0.193,1.734-7.353,1.734-7.353s1.418,4.358,2.539,3.987c1.58-0.523-0.467-6.636-0.467-6.636s2.395,1.418,3.133,1.977
		c0.797,0.607,2.971,2.691,2.971,2.691l-0.629-3.761c0,0,1.055,1.111,3.564,1.95c0.748,0.249,3.629,0.496,3.629,0.496l-2.795-3.761
		l3.627,1.768l-3.186-3.185l3.348,0.307c0,0-2.936-2.131-3.801-2.976c-1.137-1.111-2.721-4.033-4.047-4.914
		c-1.414-0.938-6.5-1.955-6.5-1.955s2.656,0.028,2.682-0.663c0.049-1.424-4.01-1.629-5.428-1.746
		C335.024,19.757,331.542,20.87,329.766,20.95z"/>
	<path fill="#504330" d="M329.62,123.104c-0.6-1.022-0.613-2.189-0.545-3.376c0.152-2.593-1.357-7.333,3.324-9.842
		c2.99-1.602,9.934,2.576,13.322,2.563c3.795-0.015,11.676-5.017,14.881-2.984c1.707,1.08,2.246,5.846,1.947,7.845
		c-0.256,1.732-1.76,4.425-3.1,5.549c-1.266,1.055-4.055,1.284-5.58,1.895c-1.912,0.766-2.707,3.957-8.639,4.102
		c-7.049,0.171-8.057-3.158-10.695-4.325C331.696,123.267,330.518,124.635,329.62,123.104z"/>
	<path fill="#FFFFFF" d="M330.379,66.978c-0.246,4.381-3.998,7.736-8.381,7.488c-4.385-0.245-7.738-3.999-7.492-8.38
		c0.244-4.384,3.998-7.739,8.381-7.492C327.272,58.839,330.624,62.592,330.379,66.978z"/>
	<path fill="#FFFFFF" d="M360.374,68.697c-0.234,4.173-3.807,7.366-7.979,7.134c-4.174-0.235-7.365-3.809-7.135-7.98
		c0.236-4.171,3.809-7.365,7.982-7.132C357.413,60.954,360.61,64.522,360.374,68.697z"/>
	<path fill="#020303" d="M325.389,67.473c-0.471,0.746-1.459,0.968-2.205,0.498c-0.746-0.474-0.969-1.46-0.492-2.205
		c0.469-0.746,1.457-0.967,2.203-0.498C325.637,65.742,325.86,66.729,325.389,67.473z"/>
	<path fill="#020303" d="M355.766,69.216c-0.473,0.746-1.459,0.97-2.203,0.498c-0.748-0.471-0.971-1.461-0.496-2.207
		c0.471-0.744,1.457-0.966,2.201-0.493C356.014,67.484,356.237,68.47,355.766,69.216z"/>
	<path fill="#CCC8AB" d="M314.299,64.785c0,0,4.908-1.414,9.072-1.643c4.746-0.259,6.934,0.771,6.934,0.771s-0.643-8.145-9.48-7.268
		C314.137,57.312,314.299,64.785,314.299,64.785z"/>
	<path fill="#CCC8AB" d="M345.547,66.354c0,0,4.359-1.02,8.07-1.158c4.227-0.156,6.184,0.632,6.184,0.632s-0.637-6.109-8.508-5.521
		C345.342,60.75,345.547,66.354,345.547,66.354z"/>
	<path fill="#020303" d="M342.122,121.63c0.324-0.729-1.697-1.687-2.295-2.214c-0.605-0.536-1.834-2.461-2.52-2.031
		c-0.859,0.544,0.164,3.306,0.941,3.966C338.987,121.98,341.727,122.515,342.122,121.63z"/>
	<path fill="#020303" d="M351.417,121.232c-0.455-0.581,1.152-1.896,1.572-2.504c0.426-0.616,1.102-2.625,1.814-2.387
		c0.896,0.296,0.59,3.011,0.039,3.78C354.317,120.849,351.969,121.945,351.417,121.232z"/>
	<path fill="none" stroke="#808080" stroke-width="1.1248" stroke-linecap="round" d="M352.801,129.342
		c-1.77,2.606-9.297,3.187-12.359,2.036c-4.4-1.652-6.484-5.736-10.18-2.888"/>
	<path fill="#CCC8AB" d="M303.213,28.445c-3.334,0.632-9.567,4.276-12.85,5.15c-7.188,1.911-17.473-3.313-21.277,0.163
		c-1.901,1.737,0.115,8.093,1.201,10.43c4.152,8.925,13.17,11.244,18.467,10.654c14.986-1.665,17.803-14.233,17.803-14.233
		s2.361-4.501,1.967-6.628C308.241,32.458,304.235,28.255,303.213,28.445z"/>
	<path fill="#020303" d="M213.756,236.723c-3.234-0.111-8.944,1.992-10.536,4.813c-1.036,1.834-2.177,9.531-0.927,11.227
		c2.015,2.734,6.039,3.26,11.677,2.107c2.983-0.609-0.632-7.853,1.753-5.955c3.693,2.94,4.773,5.295,9.479,4.563
		c2.371-0.367,2.435-6.055,0.2-11.087C224.534,240.433,218.12,236.87,213.756,236.723z"/>
	<path fill="#020303" d="M274.403,234.881c-2.939-0.102-8.133,1.814-9.584,4.376c-0.941,1.671-1.979,8.672-0.842,10.213
		c1.832,2.484,5.494,2.965,10.621,1.916c2.711-0.553-0.574-7.138,1.592-5.415c3.361,2.675,4.344,4.815,8.625,4.153
		c2.154-0.336,2.215-5.508,0.182-10.086C284.208,238.257,278.372,235.017,274.403,234.881z"/>
	<path fill="#020303" d="M70.563,222.585c-2.942-0.102-8.134,1.812-9.583,4.377c-0.941,1.668-1.982,8.669-0.845,10.213
		c1.833,2.485,5.496,2.963,10.622,1.916c2.713-0.557-0.574-7.143,1.594-5.416c3.36,2.673,4.343,4.815,8.621,4.15
		c2.156-0.334,2.216-5.508,0.184-10.084C80.363,225.961,74.531,222.72,70.563,222.585z"/>
	<path fill="#504330" d="M94.428,58.315c1.719-5.183,9.739-14.689,15.085-15.798c10.725-2.224,34.412,9.244,39.514,18.938
		c5.496,10.444-11.293,35.53-7.299,46.636c2.477,6.896,21.087,12.159,21.933,19.438c0.753,6.489-9.061,18.806-15.073,21.361
		c-6.058,2.574-21.54,0.817-26.022-4.003c-7.718-8.297,6.224-39.576-3.627-45.177c-7.673-4.364-23.588,19.048-31.699,15.563
		c-7.874-3.381-13.35-24.728-10.239-32.714c1.997-5.13,16.606-6.102,19.058-11.03C97.541,68.549,93.383,61.476,94.428,58.315z"/>
	<path fill="#504330" d="M188.801,119.332c-4.876-0.292-12.564,9.106-13.802,13.832c-1.373,5.24,1.826,17.225,5.827,20.877
		c6.981,6.369,28.934,11.404,37.189,6.802c5.415-3.021,12.799-18.188,9.024-23.109c-3.355-4.376-16.818,4.507-21.922,2.418
		C198.997,137.652,195.401,119.729,188.801,119.332z"/>
	<path fill="#504330" d="M216.23,44.883c0,0-12.985,8.71-13.917,12.755c-1.688,7.335,5.236,22.811,10.465,28.224
		c6.883,7.123,27.617,19.095,36.656,15.045c6.266-2.808,10.982-19.289,9.135-25.902c-1.154-4.133-9.197-9.553-13.277-10.885
		c-4.084-1.332-14.758,4.524-17.156,0.964c-2.143-3.187,3.188-12.052,6.566-13.877c3.771-2.038,13.387,4.689,16.99,2.363
		c2.541-1.641,3.41-11.603,3.41-11.603s-10.412,1.541-20.975,2.325C225.22,44.957,216.23,44.883,216.23,44.883z"/>
	<path fill="#504330" d="M223.222,189.537c0,0,7.87-0.947,8.589-3.618c1.668-6.197-2.574-17.983,0.223-22.365
		c3.071-4.812,14.032-12.143,19.709-11.534c3.938,0.424,10.146,7.064,11.668,10.725c1.979,4.752,0.922,15.725-0.795,20.582
		c-1.128,3.188-8.359,7.466-8.093,10.835c0.138,1.715,4.94,4.797,4.94,4.797s-2.287-0.823-10.539,0.362
		C238.404,200.833,223.222,189.537,223.222,189.537z"/>
	<path fill="#CCC8AB" d="M309.782,114.742c0,0-9.855-12.668-11.424-17.204c-1.055-3.045-1.355-19.76-1.355-19.76
		s-4.063,13.236-1.877,18.941C298.642,105.905,309.782,114.742,309.782,114.742z"/>
</g>
</svg>
