<?xml version="1.0" encoding="utf-8"?>
<!-- Generator: Adobe Illustrator 16.0.0, SVG Export Plug-In . SVG Version: 6.00 Build 0)  -->
<!DOCTYPE svg PUBLIC "-//W3C//DTD SVG 1.1//EN" "http://www.w3.org/Graphics/SVG/1.1/DTD/svg11.dtd">
<svg version="1.1" id="Layer_1" xmlns="http://www.w3.org/2000/svg" xmlns:xlink="http://www.w3.org/1999/xlink" x="0px" y="0px"
	 width="135px" height="80px" viewBox="0 0 135 80" enable-background="new 0 0 135 80" xml:space="preserve">
<g>
	<polygon fill="#ECC43B" points="0.395,50.918 99.453,0.379 134.606,0.379 105.935,31.649 0.395,78.484 	"/>
	<polygon fill="#D9A938" points="134.464,2.043 134.606,0.379 105.148,31.824 0.395,78.484 0.395,79.537 105.813,32.459 	"/>
	<polygon fill="#D9A938" points="11.025,67.472 24.276,63.143 32.778,58.815 21.905,61.869 	"/>
	<polygon fill="#D9A938" points="97.149,32.82 106.577,20.337 103.265,28.49 	"/>
	<polygon fill="#D9A938" points="42.113,54.733 88.229,35.114 65.176,43.268 	"/>
	<g>
		<path fill-rule="evenodd" clip-rule="evenodd" fill="#2B0B31" d="M85.086,28.597c-0.517,0.217-0.88,0.6-1.501,0.699
			c-0.682-1.642-1.499-3.065-2.213-4.651c-0.193,1.756-0.205,3.724-0.2,5.711c-0.361,0.424-0.976,0.569-1.485,0.83
			c-0.985-2.665-2.052-5.181-3.037-7.851c0.549-0.1,0.809-0.518,1.412-0.549c0.566,1.396,1.13,2.805,1.657,4.274
			c0.236-1.584,0.091-3.598,0.235-5.285c0.517-0.131,0.786-0.541,1.412-0.547c0.655,1.415,1.408,2.667,2.054,4.094
			c0.132-1.532-0.063-3.438-0.062-5.121c0.244-0.357,0.823-0.329,1.086-0.655C85.212,22.295,84.682,25.731,85.086,28.597z"/>
		<path fill-rule="evenodd" clip-rule="evenodd" fill="#2B0B31" d="M74.153,24.54c3.234-0.753,4.233,10.172-0.088,9.116
			c-1.892-0.463-2.813-6.461-1.4-8.276C73.047,24.883,73.542,24.68,74.153,24.54z M74.633,31.901
			c1.892,0.28,0.837-6.502-0.828-5.482C72.761,27.056,73.506,31.735,74.633,31.901z"/>
		<path fill-rule="evenodd" clip-rule="evenodd" fill="#2B0B31" d="M71.981,34.831c-0.486,0.122-0.754,0.494-1.307,0.535
			c-0.769-1.738-0.422-6.36-1.774-6.682c-2.333-0.553-0.386,5.468-0.118,7.7c-0.567,0.063-0.816,0.499-1.41,0.542
			c-0.379-3.017-1.063-5.526-1.43-8.563c1.595,0.126,2.519-2.504,4.17-1.208C71.54,28.276,71.197,32.224,71.981,34.831z"/>
		<path fill-rule="evenodd" clip-rule="evenodd" fill="#2B0B31" d="M54.853,30.441c0.535,0.527,0.427,2.118,0.707,3.072
			c0.446-0.003,0.521-0.417,1.006-0.375c-0.013,0.626,0.253,0.783,0.24,1.407c-0.32,0.184-0.579,0.438-0.998,0.508
			c0.321,1.699,0.508,3.623,0.901,5.192c0.48,0.313,0.479-0.402,0.897-0.502c0,0.632,0.016,1.284-0.037,1.852
			c-2.281,2.462-2.595-2.918-2.941-5.724c-0.245-0.247-0.533,0.227-0.919,0.217c-0.031-0.548-0.094-1.04-0.235-1.402
			c0.232-0.2,0.469-0.395,0.788-0.498C53.769,32.275,54.052,31.182,54.853,30.441z"/>
		<path fill-rule="evenodd" clip-rule="evenodd" fill="#2B0B31" d="M62.627,35.335c-1,0.592-2.127,1.042-3.202,1.552
			c0.139,2.256,1.961,1.685,2.334,0.371c0.164,0.38,0.569,0.363,0.791,0.644c-0.361,1.321-1.155,2.854-2.689,2.501
			c-2.607-0.583-2.714-8.965,0.073-9.254C61.445,30.992,62.175,32.958,62.627,35.335z M59.06,35.209
			c0.539,0.116,1.263-0.563,1.916-0.734C60.821,31.824,58.568,33.027,59.06,35.209z"/>
		<path fill-rule="evenodd" clip-rule="evenodd" fill="#2B0B31" d="M50.55,44.754c-2.693-1.56-2.415-10.585,1.254-8.933
			C53.774,36.711,54.409,45.769,50.55,44.754z M51.134,37.588c-1.947-0.507-1.084,4.498-0.123,5.418
			C52.842,42.895,52.102,38.523,51.134,37.588z"/>
		<path fill-rule="evenodd" clip-rule="evenodd" fill="#2B0B31" d="M47.568,37.463c-0.221,3.072-0.549,6.022-0.71,9.171
			c-0.351,0.228-0.702,0.462-1.203,0.526c-0.88-2.676-2.17-4.672-2.996-7.433c0.375-0.123,0.779-0.214,1-0.511
			c0.902,1.219,1.387,3.134,2.107,4.66c0.213-1.819,0.365-3.708,0.401-5.729C46.595,37.875,47.051,37.634,47.568,37.463z"/>
		<path fill-rule="evenodd" clip-rule="evenodd" fill="#2B0B31" d="M32.67,41.281c0.511,0.406,0.274,2.051,0.486,2.953
			c0.241,0.304,0.594-0.336,1.024-0.231c0.043,0.469,0.087,0.943,0.132,1.415c-0.276,0.186-0.569,0.366-0.896,0.501
			c0.255,1.641,0.366,3.523,0.685,5.063c0.58,0.156,0.515-0.426,0.891-0.498c-0.118,0.533-0.054,1.282-0.139,1.857
			c-2.202,2.377-2.286-3.024-2.627-5.756c-0.21-0.349-0.457,0.317-0.817,0.212c-0.046-0.513-0.097-1.037-0.144-1.549
			c0.375,0.001,0.475-0.307,0.804-0.353C31.579,43.743,31.799,41.678,32.67,41.281z"/>
		<path fill-rule="evenodd" clip-rule="evenodd" fill="#2B0B31" d="M37.365,42.304c3.169-0.779,3.566,9.523-0.113,8.841
			c-2.047-0.385-2.363-6.854-0.99-8.314C36.501,42.577,36.991,42.4,37.365,42.304z M37.818,49.39
			c1.467-0.035,0.836-6.059-0.605-5.359C36.19,44.524,36.607,49.414,37.818,49.39z"/>
		<path fill-rule="evenodd" clip-rule="evenodd" fill="#2B0B31" d="M27.168,43.883c0.661,3.365,1.029,8.08,1.382,11.412
			c-0.363,0.221-0.76,0.397-1.203,0.527c-0.329-2.287-0.473-4.818-0.807-7.472C26.229,45.893,25.998,44.784,27.168,43.883z"/>
		<path fill-rule="evenodd" clip-rule="evenodd" fill="#2B0B31" d="M24.728,49.068c1.606,2.288,1.712,9.13-1.383,8.66
			c-1.551-0.235-2.223-4.598-1.581-6.84C22.185,49.41,23.29,48.48,24.728,49.068z M23.702,55.99
			c1.447,0.243,0.996-3.982,0.343-5.294C21.959,49.754,22.648,55.813,23.702,55.99z"/>
		<path fill-rule="evenodd" clip-rule="evenodd" fill="#2B0B31" d="M20.776,50.402c0.146,0.793-0.078,1.172-0.037,1.85
			c-2.355-0.353-0.564,5.181-0.608,6.886c-0.271,0.365-0.713,0.538-1.189,0.668c-0.25-2.741-0.589-6.19-0.792-8.47
			C19.343,51.063,19.48,50.403,20.776,50.402z"/>
		<path fill-rule="evenodd" clip-rule="evenodd" fill="#2B0B31" d="M11.5,51.754c0.048,0.518,0.096,1.036,0.146,1.554
			c-0.776,0.467-1.63,0.843-2.499,1.205c0.083,0.895,0.167,1.79,0.251,2.686c0.572-0.193,0.989-0.563,1.607-0.708
			c0.047,0.52,0.098,1.04,0.146,1.553c-0.495,0.327-1.072,0.555-1.596,0.848c0.106,1.129,0.212,2.26,0.318,3.388
			c1.018-0.204,1.966-1.118,2.824-1.089c0.014,0.52,0.204,1.24,0.041,1.558c-1.256,0.639-2.598,1.181-3.796,1.888
			c-0.7-4.327-0.635-7.314-1.043-11.156C9.094,52.898,10.234,52.258,11.5,51.754z"/>
		<path fill-rule="evenodd" clip-rule="evenodd" fill="#2B0B31" d="M16.622,52.887c1.006,1.443,0.672,5.754,1.218,7.438
			c-0.45,0.124-0.659,0.519-1.203,0.534c-0.328-2.779-0.278-4.604-0.919-6.473c-2.433-0.015-0.695,4.684-0.778,7.327
			c-0.417,0.154-0.723,0.444-1.203,0.529c-0.31-3.845-0.574-5.807-0.679-8.342C14.404,53.848,15.028,52.101,16.622,52.887z"/>
		<path fill-rule="evenodd" clip-rule="evenodd" fill="#CFCBC1" d="M104.316,10.087c3.088,4.065,3,10.983-0.199,15.449
			c-3.194,4.465-8.289,4.793-11.375,0.728c-3.092-4.07-3.002-10.984,0.195-15.453C96.135,6.346,101.229,6.019,104.316,10.087z"/>
		<path fill-rule="evenodd" clip-rule="evenodd" fill="#E96E38" d="M97.982,6.728c4.935-1.151,8.409,3.214,9.088,8.912
			c0.745,6.242-2.377,11.392-5.344,13.262c-4.336,2.733-9.341,0.169-10.984-4.625c-2.352-6.86,0.758-13.621,4.027-16.142
			C95.679,7.433,96.35,7.107,97.982,6.728z M94.007,10.052c-1.64,1.714-3.361,4.761-3.328,9.104
			c0.053,7.145,4.955,11.675,9.947,9.125c3.063-1.565,6.133-6.495,5.523-12.424c-0.192-1.846-1.02-4.042-1.501-4.855
			c-1.096-1.843-3.825-3.946-6.979-3.112C95.893,8.365,94.83,9.191,94.007,10.052z"/>
		<path fill-rule="evenodd" clip-rule="evenodd" fill="#E96E38" d="M99.691,8.287c0.24,1.027-1.533,1.891-2.366,2.624
			c-2.676,2.353-4.28,6.942-5.084,11.528c1.707-0.162,1.949-3.229,2.895-4.797c0.938-1.556,2.234-2.292,2.975-3.952
			c0.169,0.061,0.605,0.494,0.74,0.081c-0.283,1.954-2.164,3.19-2.868,5.08c0.475-0.08,0.896-0.073,1.164,0.185
			c0.28,0.438,0,0.945,0.227,1.266c1.119-0.285,1.329-2.101,2.236-2.893c1.014-0.894,2.403-0.521,3.39-1.711
			c0.72-0.868,0.808-2.205,2.006-2.022c1.146,2.917,0.55,6.745-0.23,8.704c-1.543-0.915-2.453-2.894-3.56-4.539
			c-2.292-0.786-3.341,5.245-5.693,3.899c-0.312-0.177-0.743-0.925-0.574-1.661c-0.996,0.683-1.22,2.235-2.12,3.025
			c0.42,1.746,1.565,2.302,1.952,4.108c-1.968-0.784-3.165-2.959-3.589-5.961C90.169,13.998,94.152,8.067,99.691,8.287z
			 M95.43,20.75c0.571,1.045,1.776,0.066,1.435-1.404C96.143,19.117,95.34,19.668,95.43,20.75z"/>
	</g>
</g>
</svg>
