<?xml version="1.0" encoding="utf-8"?>
<!-- Generator: Adobe Illustrator 16.0.4, SVG Export Plug-In . SVG Version: 6.00 Build 0)  -->
<!DOCTYPE svg PUBLIC "-//W3C//DTD SVG 1.1//EN" "http://www.w3.org/Graphics/SVG/1.1/DTD/svg11.dtd">
<svg version="1.1" id="Layer_1" xmlns="http://www.w3.org/2000/svg" xmlns:xlink="http://www.w3.org/1999/xlink" x="0px" y="0px"
	 width="131px" height="303px" viewBox="0 0 131 303" enable-background="new 0 0 131 303" xml:space="preserve">
<g>
	<rect x="75.459" y="13.256" transform="matrix(1 -0.0066 0.0066 1 -0.2593 0.5218)" fill="#846211" width="7.42" height="52.816"/>
	
		<line fill="none" stroke="#DED7C0" stroke-width="1.1193" stroke-linecap="round" x1="61.432" y1="53.561" x2="78.488" y2="21.579"/>
	
		<line fill="none" stroke="#DED7C0" stroke-width="1.1193" stroke-linecap="round" x1="61.432" y1="62.586" x2="78.488" y2="30.606"/>
	
		<line fill="none" stroke="#DED7C0" stroke-width="1.1193" stroke-linecap="round" x1="61.432" y1="72.68" x2="78.488" y2="40.699"/>
	
		<line fill="none" stroke="#DED7C0" stroke-width="1.1193" stroke-linecap="round" x1="61.432" y1="84.104" x2="78.488" y2="52.124"/>
	<g>
		<polygon fill="#846211" points="75.759,136 63.85,136.316 60.766,21.45 72.68,21.128 		"/>
		<path fill="none" stroke="#DED7C0" stroke-width="1.7968" stroke-linecap="round" d="M44.589,143.358
			c0,0,7.57-1.521,11.446-12.192c7.217-19.894,10.584-97.01,10.584-97.01"/>
		<path fill="none" stroke="#DED7C0" stroke-width="1.7968" stroke-linecap="round" d="M44.589,162.557
			c0,0,10.297-8.901,14.17-19.573c7.221-19.891,7.86-76.848,7.86-76.848"/>
		<path fill="none" stroke="#DED7C0" stroke-width="1.7968" stroke-linecap="round" d="M41.142,181.855
			c0,0,11.658-8.299,16.292-18.664c8.635-19.318,9.508-68.655,9.508-68.655"/>
		<path fill="none" stroke="#DED7C0" stroke-width="1.7968" stroke-linecap="round" d="M45.122,190.633
			c0,0,9.17-0.868,13.798-11.233c8.635-19.319,8.343-54.062,8.343-54.062"/>
		
			<rect x="41.134" y="138.504" transform="matrix(0.9984 -0.0568 0.0568 0.9984 -11.4926 3.0038)" fill="#846211" width="11.914" height="130.305"/>
	</g>
</g>
<path fill="#6B8E37" d="M69.226,271.055c-0.887,0.806-7.894,0.826-10.559,0.704c-2.597-0.122-9.752-0.957-10.443-1.896
	c-0.668-0.899-1.133-7.464-1.133-7.464l2.164,4.738l0.719-4.606l1.889,4.5l1.446-2.865l0.479,2.898l0.769-4.376l1.325,4.302
	l0.886-4.429l0.807,4.617l1.068-2.633l1.534,2.586l0.246-4.118l0.746,4.726l1.127-4.814l0.878,4.286l2.222-3.972l1.089,4.634
	l1.735-4.447l0.243,4.482l2.41-4.42C70.872,263.487,70.078,270.271,69.226,271.055z"/>
<path fill="#80993E" d="M48.735,289c-15.429,2.838-21.242-0.021-22.488-1.705c-1.199-1.632-2.037-11.199-2.037-11.199l3.89,8.543
	l1.3-8.304l3.4,8.105l2.607-5.157l0.866,5.221l1.37-7.893l2.4,7.762l1.59-7.986l1.458,8.326l1.932-4.749l2.755,4.666l2.893-7.891
	l-0.151,9.131C50.52,285.87,50.015,288.764,48.735,289z"/>
</svg>
