<?xml version="1.0" encoding="utf-8"?>
<!-- Generator: Adobe Illustrator 16.0.0, SVG Export Plug-In . SVG Version: 6.00 Build 0)  -->
<!DOCTYPE svg PUBLIC "-//W3C//DTD SVG 1.1//EN" "http://www.w3.org/Graphics/SVG/1.1/DTD/svg11.dtd">
<svg version="1.1" id="Layer_1" xmlns="http://www.w3.org/2000/svg" xmlns:xlink="http://www.w3.org/1999/xlink" x="0px" y="0px"
	 width="150px" height="50px" viewBox="0 0 150 50" enable-background="new 0 0 150 50" xml:space="preserve">
<path fill="#6B8E37" d="M142.979,38.438c-3.726,3.41-33.194,3.481-44.413,2.965c-10.924-0.503-40.999-4.022-43.914-7.962
	c-2.805-3.785-4.745-31.406-4.745-31.406l9.085,19.938l3.024-19.383l7.941,18.932L76.047,9.47l2.003,12.193l3.22-18.419
	l5.598,18.105l3.707-18.634l3.396,19.436l4.504-11.087l6.456,10.879l1.039-17.338l3.129,19.905l4.739-20.256l3.698,18.021
	l9.338-16.711l4.578,19.493l7.288-18.705l1.036,18.856l10.135-18.589C149.911,6.618,146.577,35.151,142.979,38.438z"/>
<path fill="#80993E" d="M59.249,45.086c-35.987,6.643-49.564-0.041-52.479-3.98C3.966,37.32,2.023,14.979,2.023,14.979l9.088,19.935
	l3.027-19.382l7.938,18.931l6.087-12.05l2.002,12.194l3.22-18.42l5.598,18.104l3.708-18.633l3.396,19.436l4.504-11.09l6.456,10.883
	l6.744-18.409l-0.35,21.31C63.441,37.786,62.25,44.534,59.249,45.086z"/>
</svg>
