<?xml version="1.0" encoding="utf-8"?>
<!-- Generator: Adobe Illustrator 16.0.0, SVG Export Plug-In . SVG Version: 6.00 Build 0)  -->
<!DOCTYPE svg PUBLIC "-//W3C//DTD SVG 1.1//EN" "http://www.w3.org/Graphics/SVG/1.1/DTD/svg11.dtd">
<svg version="1.1" id="Layer_1" xmlns="http://www.w3.org/2000/svg" xmlns:xlink="http://www.w3.org/1999/xlink" x="0px" y="0px"
	 width="200px" height="265px" viewBox="0 0 200 265" enable-background="new 0 0 200 265" xml:space="preserve">
<g>
	<polygon fill="#9C5550" points="199.918,218.713 191.125,226.996 190.674,216.056 	"/>
	<g>
		<g>
			<g>
				<path fill="#9C5550" d="M0.595,262.627c0.002-71.719,0-143.438,0-215.157c12.317-2.065,24.601-4.32,36.875-6.628
					c-0.023,29.165-0.045,58.33-0.07,87.495c12.202-2.286,24.412-4.531,36.612-6.825c-0.607-29.04-1.216-58.081-1.824-87.121
					c13.298-2.524,26.596-5.053,39.899-7.551c0.455,71.576,0.904,143.152,1.359,214.727c-12.258,2.278-24.522,4.523-36.78,6.802
					c-0.658-31.609-1.323-63.219-1.984-94.828c-12.435,2.328-24.873,4.641-37.307,6.974c-0.026,31.747-0.052,63.494-0.075,95.241
					C25.065,258.046,12.829,260.332,0.595,262.627z"/>
				<path fill="#9C5550" d="M154.166,233.867c-0.096-71.57-0.204-143.141-0.3-214.711c12.383-2.32,25.134-4.64,37.134-6.895
					c0,71.55,0,143.101,0,214.65C179,229.238,166.462,231.553,154.166,233.867z"/>
			</g>
		</g>
		<polygon fill="#9C5550" points="0.188,47.559 8.264,39.266 11.68,48.515 		"/>
		<polygon fill="#9C5550" points="44.959,247.56 37.03,256.101 36.012,245.348 		"/>
		<polygon fill="#9C5550" points="119.943,233.36 113.22,241.579 112.071,230.96 		"/>
		<polygon fill="#9C5550" points="72.181,34.391 79.893,26.193 83.114,35.667 		"/>
		<polygon fill="#9C5550" points="153.196,19.254 161.837,10.929 172.016,17.948 		"/>
		<polygon fill="#EF836E" points="161.837,10.929 183,23.676 183,204.48 163.159,225.648 		"/>
		<polygon fill="#EA5B36" points="200,4.062 183,23.676 183,204.48 200,218.713 		"/>
		<polygon fill="#EA5B36" points="119.131,18.638 100,38.644 100,219.451 120.199,233.36 		"/>
		<polygon fill="#EF836E" points="80.062,26.193 100,38.644 100,126.072 80.725,113.293 		"/>
		<polygon fill="#EF806A" points="45.064,120.104 26.695,140.058 101.272,126.072 81.681,113.293 		"/>
		<polygon fill="#EB6444" points="82.257,145.348 101.272,126.141 26.695,140.126 45.064,152.312 		"/>
		<polygon fill="#EA5B36" points="45.283,32.639 27,52.584 27,140.058 45.25,120.104 		"/>
		<polygon fill="#EF836E" points="7.958,39.266 27,52.584 27,232.845 8.98,254.429 		"/>
		<polygon fill="#EB6444" points="8.264,39.266 27.292,52.789 45.429,32.639 		"/>
		<polygon fill="#EB6444" points="79.843,26.193 101.286,39.643 118.964,18.789 		"/>
		<polygon fill="#EB6443" points="161.771,10.929 182.125,24.875 200,4.062 		"/>
		<polygon fill="#EB785D" points="44.959,247.56 26.755,232.845 8.264,254.429 		"/>
		<polygon fill="#EB785D" points="119.943,233.36 100.997,217.916 83.104,240.172 		"/>
		<polygon fill="#EB785D" points="200,218.713 181.625,203 162.8,225.648 		"/>
		<polygon fill="#EA5B36" points="26.8,140.048 45.064,152.312 44.959,247.56 26.755,232.845 		"/>
		<polygon fill="#EF836E" points="100,126.072 81.622,145.348 83.36,240.172 100,219.451 		"/>
		<g>
			<line fill="none" stroke="#FFFFFF" stroke-width="3" x1="25.5" y1="51" x2="25.5" y2="231"/>
			<line fill="none" stroke="#FFFFFF" stroke-width="2.86" x1="100.813" y1="126.072" x2="27.048" y2="139.991"/>
			<line fill="none" stroke="#FFFFFF" stroke-width="3" x1="102.5" y1="37" x2="102.5" y2="219"/>
		</g>
		<line fill="none" stroke="#FFFFFF" stroke-width="3" x1="182.5" y1="24" x2="182.5" y2="205"/>
	</g>
</g>
</svg>
