<?xml version="1.0" encoding="utf-8"?>
<!-- Generator: Adobe Illustrator 16.0.0, SVG Export Plug-In . SVG Version: 6.00 Build 0)  -->
<!DOCTYPE svg PUBLIC "-//W3C//DTD SVG 1.1//EN" "http://www.w3.org/Graphics/SVG/1.1/DTD/svg11.dtd">
<svg version="1.1" id="Layer_1" xmlns="http://www.w3.org/2000/svg" xmlns:xlink="http://www.w3.org/1999/xlink" x="0px" y="0px"
	 width="1600px" height="1441.044px" viewBox="0 0 1600 1441.044" enable-background="new 0 0 1600 1441.044" xml:space="preserve">
<g id="Layer_11" display="none">
	
		<radialGradient id="SVGID_1_" cx="1328.7773" cy="411.4209" r="350.4061" fx="1234.9019" fy="384.4853" gradientTransform="matrix(0.0868 -1.4479 -1.567 -0.2178 1248.7562 2107.7559)" gradientUnits="userSpaceOnUse">
		<stop  offset="0" style="stop-color:#CECFCC;stop-opacity:0.72"/>
		<stop  offset="1" style="stop-color:#B5CFCD"/>
	</radialGradient>
	
		<rect x="-255.338" y="-2048.231" display="inline" opacity="0.77" fill="url(#SVGID_1_)" enable-background="new    " width="2830.391" height="3046.969"/>
</g>
<g>
	<g>
		<defs>
			<rect id="SVGID_2_" y="-161.771" width="1603.053" height="1607.697"/>
		</defs>
		<clipPath id="SVGID_3_">
			<use xlink:href="#SVGID_2_"  overflow="visible"/>
		</clipPath>
		<g clip-path="url(#SVGID_3_)">
			<defs>
				<rect id="SVGID_4_" x="-3.006" y="-176" width="1606.119" height="1620"/>
			</defs>
			<clipPath id="SVGID_5_">
				<use xlink:href="#SVGID_4_"  overflow="visible"/>
			</clipPath>
			
				<radialGradient id="SVGID_6_" cx="1463.5996" cy="-106.7549" r="207.1494" gradientTransform="matrix(-4.379644e-008 1 2.3062 1.006114e-007 1205.6713 -881.1865)" gradientUnits="userSpaceOnUse">
				<stop  offset="0" style="stop-color:#A8C142"/>
				<stop  offset="0.4337" style="stop-color:#9CB440"/>
				<stop  offset="1" style="stop-color:#90A73E"/>
			</radialGradient>
			<path clip-path="url(#SVGID_5_)" fill="url(#SVGID_6_)" d="M0,3515.286h1603.113V692.813c0,0-109.813-5.332-316.593-54.052
				c-66.896-15.76-172.729-58.019-353.484-38.071c-87.66,9.671-241.696,39.085-242.167,39.166
				c-27.565,4.86-311.532,54.873-411.655,59.614C154.491,705.377,0,692.813,0,692.813V3515.286z"/>
			<g clip-path="url(#SVGID_5_)">
				<g>
					<defs>
						<rect id="SVGID_7_" y="437.807" width="1603.113" height="330.735"/>
					</defs>
					<clipPath id="SVGID_8_">
						<use xlink:href="#SVGID_7_"  overflow="visible"/>
					</clipPath>
					<g clip-path="url(#SVGID_8_)">
						<path fill="none" stroke="#B1A55A" stroke-width="0.5517" d="M-882.187,763.03c0,0,91.583-33.018,119.127-42.962
							c76.938-27.779,169.889-25.244,227.017-27.193c92.564-3.158,430.267-11.859,536.043-3.183
							c58.514,4.8,149.016,11.63,281.747,6.319c90.001-3.601,429.278-64.125,457.33-68.537
							c86.289-13.689,200.753-33.12,286.358-35.324c32.885,0,81.437-0.52,143.302,11.78c77.051,15.319,171.23,45.179,240.506,58.455
							c130.121,24.937,198.68,27.548,198.68,27.548"/>
						<path fill="none" stroke="#B1A55A" stroke-width="0.5517" d="M-882.187,759.722c0,0,91.583-33.016,119.127-42.96
							c76.938-27.778,169.889-25.245,227.017-27.194C-443.479,686.41-92.735,679.234,0,686.412
							c65.46,5.066,153.024,11.125,285.755,5.813c90.001-3.6,425.27-63.646,453.321-68.058
							c86.289-13.691,200.753-33.122,286.358-35.326c32.83,0,81.24-0.554,142.969,11.712
							c77.172,15.336,171.56,45.245,240.968,58.548c130.066,24.931,198.551,27.525,198.551,27.525"/>
						<path fill="none" stroke="#B1A55A" stroke-width="0.5517" d="M-882.187,756.415c0,0,91.583-33.017,119.127-42.961
							c76.938-27.78,169.889-25.245,227.017-27.194C-443.479,683.102-92.73,675.798,0,683.037
							c78.553,6.133,149.417,11.086,282.148,5.775c90.001-3.601,428.877-63.539,456.928-67.952
							c86.289-13.689,200.753-33.12,286.358-35.325c32.843,0,81.285-0.547,143.043,11.727
							c77.177,15.336,171.56,45.245,240.964,58.547c130.037,24.926,198.481,27.513,198.481,27.513"/>
						<path fill="none" stroke="#B1A55A" stroke-width="0.5517" d="M-882.187,753.107c0,0,91.583-33.018,119.127-42.963
							c76.938-27.777,169.889-25.243,227.017-27.191c92.564-3.158,433.809-11.106,536.043-3.164
							c89.24,6.934,149.417,10.334,282.148,5.023c90.001-3.601,428.877-62.848,456.928-67.26
							c86.289-13.688,200.753-33.12,286.358-35.325c32.787,0,81.081-0.587,142.701,11.651
							c77.328,15.356,171.965,45.33,241.533,58.665c129.94,24.911,198.253,27.468,198.253,27.468"/>
						<g>
							<g>
								<rect x="-592.102" y="680.271" fill="#846211" width="1.517" height="20.686"/>
								<rect x="-558.732" y="680.271" fill="#846211" width="1.517" height="20.686"/>
								<rect x="-525.596" y="678.158" fill="#846211" width="1.518" height="20.686"/>
								<rect x="-492.526" y="675.815" fill="#846211" width="1.516" height="20.687"/>
								<rect x="-459.389" y="672.095" fill="#846211" width="1.517" height="20.687"/>
								<rect x="-625.171" y="681.523" fill="#846211" width="1.516" height="20.687"/>
							</g>
							<rect x="-393.066" y="663.963" fill="#846211" width="1.515" height="20.688"/>
							<rect x="-359.699" y="659.554" fill="#846211" width="1.516" height="20.688"/>
							<rect x="-326.561" y="654.502" fill="#846211" width="1.516" height="20.686"/>
							<rect x="-293.493" y="649.77" fill="#846211" width="1.516" height="20.687"/>
							<rect x="-260.355" y="644.946" fill="#846211" width="1.517" height="20.687"/>
							<rect x="-426.138" y="667.422" fill="#846211" width="1.518" height="20.687"/>
							<rect x="-857.365" y="739.804" fill="#846211" width="1.515" height="20.687"/>
							<rect x="-823.998" y="728.25" fill="#846211" width="1.517" height="20.686"/>
							<rect x="-790.86" y="716.192" fill="#846211" width="1.516" height="20.687"/>
							<rect x="-757.791" y="705.031" fill="#846211" width="1.516" height="20.686"/>
							<rect x="-724.653" y="695.431" fill="#846211" width="1.517" height="20.687"/>
							<rect x="-658.331" y="685.461" fill="#846211" width="1.517" height="20.688"/>
							<rect x="-691.4" y="688.919" fill="#846211" width="1.517" height="20.687"/>
							<rect x="-194.263" y="637.092" fill="#846211" width="1.516" height="20.687"/>
							<rect x="-160.896" y="635.07" fill="#846211" width="1.517" height="20.687"/>
							<rect x="-127.757" y="634.796" fill="#846211" width="1.516" height="20.687"/>
							<rect x="-94.688" y="635.208" fill="#846211" width="1.517" height="20.688"/>
							
								<rect x="-61.522" y="637.011" transform="matrix(-0.9984 0.0567 -0.0567 -0.9984 -84.7481 1297.1101)" fill="#846211" width="1.517" height="20.686"/>
							<rect x="-227.333" y="640.733" fill="#846211" width="1.516" height="20.686"/>
							<rect x="14.275" y="677.658" fill="#846211" width="1.517" height="20.686"/>
							<rect x="38.024" y="678.344" fill="#846211" width="1.517" height="20.688"/>
							<rect x="71.161" y="680.988" fill="#846211" width="1.517" height="20.686"/>
							<rect x="104.23" y="679.997" fill="#846211" width="1.517" height="22.771"/>
							<rect x="137.369" y="682.67" fill="#846211" width="1.517" height="20.688"/>
							<rect x="-28.413" y="638.666" fill="#846211" width="1.516" height="20.686"/>
							
								<rect x="203.593" y="684.287" transform="matrix(-0.9961 -0.0883 0.0883 -0.9961 346.59 1404.5874)" fill="#846211" width="1.516" height="20.687"/>
							<rect x="236.989" y="683.701" fill="#846211" width="1.516" height="20.686"/>
							<rect x="270.126" y="682.069" fill="#846211" width="1.518" height="20.686"/>
							
								<rect x="303.191" y="680.599" transform="matrix(-0.9969 -0.0785 0.0785 -0.9969 552.7112 1403.615)" fill="#846211" width="1.517" height="20.686"/>
							<rect x="336.334" y="676.9" fill="#846211" width="1.517" height="20.687"/>
							<rect x="170.553" y="684.301" fill="#846211" width="1.516" height="20.513"/>
							<rect x="402.586" y="667.384" fill="#846211" width="1.518" height="20.688"/>
							<rect x="435.955" y="661.109" fill="#846211" width="1.517" height="22.484"/>
							<rect x="469.091" y="654.413" fill="#846211" width="1.518" height="23.832"/>
							<rect x="502.161" y="652.547" fill="#846211" width="1.518" height="20.687"/>
							
								<rect x="535.273" y="647.677" transform="matrix(-0.9978 0.0656 -0.0656 -0.9978 1114.1021 1279.4329)" fill="#846211" width="1.517" height="20.686"/>
							<rect x="369.518" y="672.069" fill="#846211" width="1.517" height="20.687"/>
							<rect x="601.552" y="636.332" fill="#846211" width="1.516" height="20.687"/>
							<rect x="634.919" y="630.154" fill="#846211" width="1.518" height="20.688"/>
							<rect x="668.058" y="625.471" fill="#846211" width="1.516" height="20.687"/>
							<rect x="701.125" y="620.371" fill="#846211" width="1.518" height="20.686"/>
							<rect x="734.264" y="615.732" fill="#846211" width="1.516" height="20.686"/>
							<rect x="568.483" y="641.292" fill="#846211" width="1.516" height="23.521"/>
						</g>
						<rect x="1036.824" y="578.57" fill="#846211" width="1.516" height="20.686"/>
						
							<rect x="1070.211" y="580.237" transform="matrix(-0.9999 0.0155 -0.0155 -0.9999 2150.9468 1164.5195)" fill="#846211" width="1.515" height="20.686"/>
						
							<rect x="1103.305" y="582.509" transform="matrix(-0.9938 -0.1109 0.1109 -0.9938 2135.5481 1304.5166)" fill="#846211" width="1.514" height="20.687"/>
						<rect x="1136.396" y="585.966" fill="#846211" width="1.518" height="20.687"/>
						<rect x="1169.534" y="587.736" fill="#846211" width="1.519" height="25.923"/>
						<rect x="1003.754" y="579.822" fill="#846211" width="1.516" height="20.687"/>
						<rect x="1351.301" y="637.771" fill="#846211" width="1.517" height="20.686"/>
						
							<rect x="1384.651" y="644.295" transform="matrix(-0.9999 0.0148 -0.0148 -0.9999 2780.3657 1288.6744)" fill="#846211" width="1.516" height="20.685"/>
						
							<rect x="1417.784" y="651.746" transform="matrix(-0.9939 -0.1102 0.1102 -0.9939 2755.4661 1476.4966)" fill="#846211" width="1.515" height="20.688"/>
						<rect x="1318.23" y="628.622" fill="#846211" width="1.516" height="20.686"/>
						
							<rect x="1235.854" y="608.945" transform="matrix(-0.9895 -0.1442 0.1442 -0.9895 2370.988 1410.4404)" fill="#846211" width="1.517" height="20.687"/>
						
							<rect x="1288.746" y="621.992" transform="matrix(-0.9895 -0.1442 0.1442 -0.9895 2474.3364 1444.0284)" fill="#846211" width="1.517" height="20.688"/>
						<rect x="1269.226" y="617.21" fill="#846211" width="1.517" height="20.687"/>
						<rect x="1202.789" y="597.347" fill="#846211" width="1.516" height="23.357"/>
						
							<rect x="771.523" y="610.532" transform="matrix(-0.9892 0.1467 -0.1467 -0.9892 1627.3079 1121.7076)" fill="#846211" width="1.517" height="20.686"/>
						<rect x="804.927" y="604.457" fill="#846211" width="1.518" height="20.686"/>
						<rect x="838.064" y="599.056" fill="#846211" width="1.518" height="20.688"/>
						<rect x="871.134" y="594.233" fill="#846211" width="1.518" height="20.687"/>
						<rect x="904.271" y="587.941" fill="#846211" width="1.518" height="20.686"/>
						<rect x="1453.653" y="658.857" fill="#846211" width="1.517" height="20.686"/>
						<rect x="1486.792" y="662.791" fill="#846211" width="1.515" height="20.686"/>
						<rect x="1519.859" y="669.168" fill="#846211" width="1.517" height="20.686"/>
						<rect x="1552.391" y="671.536" fill="#846211" width="1.519" height="20.687"/>
						
							<rect x="1584.707" y="670.916" transform="matrix(-0.9977 -0.0682 0.0682 -0.9977 3120.6079 1473.4182)" fill="#846211" width="1.517" height="25.006"/>
						<rect x="970.593" y="582.658" fill="#846211" width="1.518" height="20.686"/>
						<rect x="937.524" y="584.288" fill="#846211" width="1.516" height="20.686"/>
					</g>
				</g>
			</g>
		</g>
	</g>
</g>
</svg>
