<?xml version="1.0" encoding="utf-8"?>
<!-- Generator: Adobe Illustrator 16.0.0, SVG Export Plug-In . SVG Version: 6.00 Build 0)  -->
<!DOCTYPE svg PUBLIC "-//W3C//DTD SVG 1.1//EN" "http://www.w3.org/Graphics/SVG/1.1/DTD/svg11.dtd">
<svg version="1.1" id="Layer_1" xmlns="http://www.w3.org/2000/svg" xmlns:xlink="http://www.w3.org/1999/xlink" x="0px" y="0px"
	 width="350px" height="350px" viewBox="0 0 350 350" enable-background="new 0 0 350 350" xml:space="preserve">
<g>
	<g>
		<g>
			<path fill="#241410" d="M257.514,246.387c0.771,1.618-0.477,3.823-2.789,4.924c-2.313,1.102-4.813,0.681-5.582-0.937
				c-0.774-1.62,0.479-3.826,2.789-4.926C254.241,244.347,256.741,244.767,257.514,246.387z"/>
			
				<ellipse transform="matrix(0.8943 -0.4474 0.4474 0.8943 -84.2371 147.8525)" fill="#241410" cx="270.9" cy="252.265" rx="5.531" ry="4.627"/>
			<ellipse fill="#241410" cx="264.037" cy="248.096" rx="8.729" ry="5.558"/>
			<path fill="#241410" d="M276.543,248.902c0,1.964-1.595,3.562-3.564,3.562c-1.963,0-3.561-1.598-3.561-3.562
				c0-1.971,1.598-3.566,3.561-3.566C274.948,245.336,276.543,246.932,276.543,248.902z"/>
			<path fill="#241410" d="M257.037,250.118c1.468,1.352,1.747,3.44,0.622,4.662c-1.128,1.218-3.228,1.111-4.698-0.241
				c-1.469-1.357-1.747-3.443-0.621-4.661C253.467,248.655,255.565,248.764,257.037,250.118z"/>
			<circle fill="#241410" cx="276.488" cy="250.44" r="1.649"/>
			<path fill="#241410" d="M269.134,253.629c0,2.438-2.968,4.42-6.626,4.42c-3.656,0-6.625-1.981-6.625-4.42
				c0-2.441,2.969-4.422,6.625-4.422C266.166,249.207,269.134,251.188,269.134,253.629z"/>
		</g>
		<line fill="none" stroke="#241410" stroke-linecap="round" x1="256.582" y1="254.643" x2="256.582" y2="262.063"/>
		<line fill="none" stroke="#241410" stroke-linecap="round" x1="259.93" y1="254.643" x2="259.93" y2="262.063"/>
		<line fill="none" stroke="#241410" stroke-linecap="round" x1="268.793" y1="254.643" x2="268.793" y2="262.063"/>
		<line fill="none" stroke="#241410" stroke-linecap="round" x1="271.746" y1="254.643" x2="271.746" y2="262.063"/>
		<path fill="#241410" d="M256.877,262.048c0.053,0.26-0.33,0.557-0.852,0.661c-0.525,0.111-0.995-0.013-1.048-0.271
			c-0.054-0.26,0.33-0.556,0.855-0.664C256.355,261.666,256.827,261.789,256.877,262.048z"/>
		<path fill="#241410" d="M260.229,262.048c0.053,0.26-0.334,0.557-0.856,0.661c-0.525,0.111-0.994-0.013-1.049-0.271
			c-0.057-0.26,0.33-0.556,0.855-0.664C259.707,261.666,260.173,261.789,260.229,262.048z"/>
		<path fill="#241410" d="M269.117,262.048c0.058,0.26-0.328,0.557-0.854,0.661c-0.522,0.111-0.992-0.013-1.049-0.271
			c-0.049-0.26,0.334-0.556,0.859-0.664C268.599,261.666,269.064,261.789,269.117,262.048z"/>
		<path fill="#241410" d="M272.054,262.048c0.049,0.26-0.329,0.557-0.859,0.661c-0.521,0.111-0.992-0.013-1.044-0.271
			c-0.054-0.26,0.332-0.556,0.855-0.664C271.531,261.666,272,261.789,272.054,262.048z"/>
		<path fill="#241410" d="M253.043,245.919c-0.116-0.771,0.399-1.482,1.155-1.598c0.752-0.107,1.454,0.427,1.57,1.194
			c0.109,0.771-0.408,1.487-1.16,1.597C253.855,247.222,253.153,246.69,253.043,245.919z"/>
	</g>
	<g>
		<path fill="#CC9D59" d="M284.772,70.177c0,3.944-3.193,7.142-7.141,7.142c-3.943,0-7.142-3.198-7.142-7.142
			c0-3.943,3.198-7.142,7.142-7.142C281.579,63.035,284.772,66.233,284.772,70.177z"/>
		<circle fill="#CC9D59" cx="303.658" cy="78.003" r="7.142"/>
		<path fill="#CC9D59" d="M295.93,72.132c0,3.945-3.202,7.142-7.143,7.142c-3.944,0-7.143-3.197-7.143-7.142
			c0-3.942,3.198-7.141,7.143-7.141C292.728,64.992,295.93,68.19,295.93,72.132z"/>
		<circle fill="#CC9D59" cx="299.254" cy="69.883" r="4.988"/>
		<path fill="#CC9D59" d="M280.08,78.493c0,1.565-1.267,2.835-2.834,2.835c-1.572,0-2.84-1.27-2.84-2.835
			c0-1.568,1.268-2.839,2.84-2.839C278.813,75.654,280.08,76.925,280.08,78.493z"/>
		<circle fill="#CC9D59" cx="289.079" cy="77.905" r="10.565"/>
	</g>
	<g>
		<ellipse fill="#CC9D59" cx="27.449" cy="150.212" rx="14.773" ry="7.141"/>
		<path fill="#CC9D59" d="M96.058,158.039c0,3.943-6.614,7.139-14.774,7.139c-8.158,0-14.774-3.196-14.774-7.139
			c0-3.946,6.616-7.141,14.774-7.141C89.444,150.898,96.058,154.093,96.058,158.039z"/>
		<ellipse fill="#CC9D59" cx="50.521" cy="152.167" rx="14.774" ry="7.143"/>
		<ellipse fill="#CC9D59" cx="72.178" cy="149.919" rx="10.323" ry="4.988"/>
		<ellipse fill="#CC9D59" cx="26.641" cy="158.526" rx="5.869" ry="2.837"/>
		<ellipse fill="#CC9D59" cx="51.128" cy="157.94" rx="21.857" ry="10.566"/>
	</g>
	<g>
		<circle fill="#CC9D59" cx="148.411" cy="43.801" r="15.814"/>
		<circle fill="#CC9D59" cx="90.792" cy="26.471" r="15.813"/>
		<path fill="#CC9D59" d="M107.904,39.469c0-8.733,7.08-15.813,15.812-15.813c8.734,0,15.814,7.08,15.814,15.813
			c0,8.73-7.08,15.811-15.814,15.811C114.984,55.28,107.904,48.2,107.904,39.469z"/>
		<circle fill="#CC9D59" cx="100.54" cy="44.452" r="11.047"/>
		<circle fill="#CC9D59" cx="149.277" cy="25.39" r="6.282"/>
		<circle fill="#CC9D59" cx="123.068" cy="26.688" r="23.395"/>
	</g>
	<g>
		<path fill="#CC9D59" d="M278.97,159.136c2.719,8.299-1.802,17.234-10.098,19.958c-8.298,2.721-17.232-1.8-19.952-10.099
			c-2.723-8.297,1.794-17.23,10.094-19.953C267.311,146.32,276.243,150.841,278.97,159.136z"/>
		<path fill="#CC9D59" d="M339.117,157.642c2.724,8.299-1.8,17.231-10.096,19.955c-8.294,2.723-17.231-1.799-19.953-10.096
			c-2.723-8.297,1.798-17.231,10.095-19.953C327.463,144.825,336.396,149.345,339.117,157.642z"/>
		<path fill="#CC9D59" d="M303.78,155.559c2.727,8.297-1.797,17.229-10.094,19.952c-8.298,2.723-17.23-1.797-19.956-10.096
			c-2.719-8.297,1.8-17.23,10.099-19.953C292.125,142.739,301.058,147.26,303.78,155.559z"/>
		<path fill="#CC9D59" d="M319.723,145.085c1.899,5.795-1.255,12.037-7.053,13.939c-5.798,1.901-12.038-1.257-13.938-7.054
			c-1.904-5.797,1.251-12.037,7.051-13.941C311.577,136.13,317.821,139.287,319.723,145.085z"/>
		<path fill="#CC9D59" d="M274.83,179.875c1.081,3.294-0.717,6.843-4.015,7.926c-3.299,1.08-6.847-0.714-7.925-4.011
			c-1.084-3.297,0.713-6.845,4.01-7.927C270.197,174.782,273.748,176.577,274.83,179.875z"/>
		<circle fill="#CC9D59" cx="293.356" cy="172.427" r="23.393"/>
	</g>
	<g>
		<path fill="#523A18" d="M41.766,166.935v-64.87c0-21.339,4.989-36.757,14.974-46.256c9.983-9.499,23.865-14.248,41.65-14.248
			c17.705,0,31.567,4.771,41.589,14.308c10.022,9.54,15.037,24.936,15.037,46.196v64.87c0,14.307-2.346,25.949-7.034,34.92
			c-4.69,8.974-11.256,15.479-19.703,19.521c-8.448,4.043-18.412,6.063-29.89,6.063c-17.785,0-31.667-4.789-41.65-14.367
			C46.754,203.491,41.766,188.114,41.766,166.935z M76.082,97.653v73.696c0,6.455,0.884,11.56,2.659,15.31
			c1.773,3.753,4.271,6.395,7.496,7.929c3.225,1.531,7.254,2.297,12.093,2.297c7.417,0,12.999-1.876,16.748-5.629
			c3.748-3.75,5.623-10.383,5.623-19.906V97.653c0-9.521-1.875-16.157-5.623-19.909c-3.749-3.752-9.331-5.628-16.748-5.628
			c-4.839,0-8.869,0.769-12.093,2.3c-3.225,1.535-5.723,4.177-7.496,7.927C76.965,86.095,76.082,91.199,76.082,97.653z"/>
		<path fill="#806627" d="M40.774,165.722v-64.868c0-21.341,4.987-36.758,14.973-46.259c9.982-9.496,23.866-14.246,41.65-14.246
			c17.703,0,31.565,4.771,41.59,14.307c10.021,9.541,15.032,24.938,15.032,46.198v64.868c0,14.31-2.344,25.947-7.031,34.919
			c-4.689,8.973-11.259,15.483-19.703,19.523c-8.448,4.04-18.411,6.063-29.889,6.063c-17.784,0-31.668-4.791-41.65-14.367
			C45.762,202.282,40.774,186.903,40.774,165.722z M75.087,96.441v73.697c0,6.454,0.889,11.557,2.659,15.307
			c1.775,3.752,4.272,6.397,7.498,7.93c3.225,1.533,7.252,2.297,12.093,2.297c7.415,0,12.998-1.876,16.748-5.626
			c3.748-3.752,5.623-10.388,5.623-19.908V96.441c0-9.522-1.875-16.16-5.623-19.911c-3.75-3.75-9.333-5.625-16.748-5.625
			c-4.84,0-8.868,0.767-12.093,2.298c-3.226,1.534-5.723,4.177-7.498,7.928C75.976,84.884,75.087,89.987,75.087,96.441z"/>
		<path fill="#241410" d="M38.458,163.408V98.54c0-21.343,4.99-36.761,14.974-46.26c9.984-9.498,23.866-14.245,41.652-14.245
			c17.701,0,31.564,4.77,41.588,14.308c10.021,9.538,15.034,24.938,15.034,46.197v64.868c0,14.309-2.345,25.945-7.033,34.921
			c-4.688,8.973-11.256,15.479-19.703,19.519c-8.448,4.044-18.411,6.064-29.886,6.064c-17.787,0-31.668-4.789-41.652-14.369
			C43.448,199.966,38.458,184.588,38.458,163.408z M72.772,94.125v73.696c0,6.455,0.887,11.557,2.661,15.312
			c1.774,3.75,4.271,6.394,7.496,7.925c3.224,1.534,7.254,2.303,12.094,2.303c7.414,0,12.996-1.877,16.746-5.631
			c3.748-3.752,5.623-10.387,5.623-19.909V94.125c0-9.52-1.875-16.157-5.623-19.907c-3.75-3.752-9.333-5.629-16.746-5.629
			c-4.84,0-8.87,0.769-12.094,2.3c-3.225,1.534-5.722,4.178-7.496,7.928C73.659,82.569,72.772,87.671,72.772,94.125z"/>
		<g>
			<path fill="#523A18" d="M202.09,225.013h-31.285V43.987h37.589l47.652,107.307h0.485V43.987h31.283v181.025h-32.737
				l-52.381-117.007h-0.606V225.013z"/>
			<path fill="#806627" d="M201.098,223.802h-31.284V42.774h37.59l47.65,107.306h0.481V42.774h31.284v181.027h-32.735
				l-52.381-117.007h-0.606V223.802z"/>
			<path fill="#241410" d="M198.782,221.486H167.5V40.459h37.588l47.648,107.308h0.491V40.459h31.275v181.027H251.77L199.387,104.48
				h-0.604V221.486z"/>
		</g>
	</g>
	<rect x="29.567" y="240.709" fill="#AC8028" width="1.641" height="22.427"/>
	<g>
		<path fill="#806627" d="M149.917,243.082v11.612c0,0.232,0.052,0.408,0.157,0.528c0.103,0.12,0.292,0.216,0.562,0.293v0.354
			h-4.781v-0.354c0.27-0.077,0.458-0.173,0.562-0.293c0.103-0.12,0.156-0.296,0.156-0.528v-11.612h-4.758
			c-0.225,0-0.397,0.05-0.517,0.153c-0.117,0.104-0.216,0.289-0.292,0.562h-0.357v-3.957h0.357c0.084,0.271,0.181,0.459,0.299,0.561
			c0.114,0.104,0.284,0.156,0.509,0.156h12.849c0.231,0,0.406-0.052,0.528-0.156c0.118-0.102,0.217-0.289,0.291-0.561h0.358v3.957
			h-0.358c-0.074-0.272-0.173-0.458-0.291-0.562c-0.122-0.104-0.297-0.153-0.528-0.153H149.917z"/>
		<path fill="#806627" d="M170.258,249.184h-8.83v5.521c0,0.227,0.055,0.398,0.164,0.521c0.106,0.125,0.292,0.222,0.558,0.29v0.354
			h-4.781v-0.354c0.268-0.077,0.455-0.173,0.56-0.293c0.103-0.12,0.155-0.292,0.155-0.519v-12.981c0-0.225-0.053-0.398-0.155-0.516
			c-0.105-0.12-0.292-0.217-0.56-0.291v-0.359h4.781v0.359c-0.271,0.065-0.457,0.162-0.563,0.286
			c-0.106,0.122-0.158,0.296-0.158,0.521v4.938h8.83v-4.938c0-0.225-0.051-0.398-0.154-0.521c-0.106-0.124-0.293-0.221-0.562-0.286
			v-0.359h4.778v0.359c-0.268,0.074-0.455,0.171-0.561,0.291c-0.103,0.117-0.155,0.291-0.155,0.516v12.981
			c0,0.227,0.053,0.398,0.155,0.519c0.106,0.12,0.292,0.216,0.561,0.293v0.354h-4.778v-0.354c0.261-0.068,0.447-0.165,0.555-0.29
			c0.109-0.123,0.161-0.295,0.161-0.521V249.184z"/>
		<path fill="#806627" d="M180.225,249.151v4.195h9.854c0.224,0,0.393-0.051,0.518-0.157c0.118-0.104,0.216-0.292,0.288-0.56h0.359
			v3.961h-0.359c-0.072-0.271-0.17-0.456-0.288-0.561c-0.125-0.106-0.294-0.161-0.518-0.161h-13.916v-0.354
			c0.271-0.077,0.455-0.173,0.562-0.293s0.155-0.296,0.155-0.528v-12.961c0-0.23-0.049-0.409-0.155-0.526
			c-0.106-0.12-0.29-0.217-0.562-0.291v-0.359h13.647c0.222,0,0.396-0.054,0.513-0.16c0.122-0.106,0.22-0.293,0.292-0.557h0.36
			v3.957h-0.36c-0.072-0.262-0.17-0.452-0.292-0.557c-0.117-0.105-0.291-0.158-0.513-0.158h-9.585v3.635h6.218
			c0.225,0,0.396-0.053,0.516-0.156c0.119-0.107,0.215-0.293,0.293-0.563h0.355v3.872h-0.355c-0.078-0.261-0.174-0.447-0.293-0.557
			c-0.12-0.106-0.291-0.161-0.516-0.161H180.225z"/>
	</g>
	<line fill="none" stroke="#AC8028" stroke-width="0.5" x1="29.594" y1="248.711" x2="130.091" y2="248.711"/>
	<line fill="none" stroke="#AC8028" stroke-width="0.5" x1="29.594" y1="253.017" x2="130.091" y2="253.017"/>
	<line fill="none" stroke="#AC8028" stroke-width="0.5" x1="29.594" y1="257.326" x2="130.091" y2="257.326"/>
	<rect x="128.835" y="240.709" fill="#AC8028" width="1.642" height="22.427"/>
	<rect x="95.404" y="240.709" fill="#AC8028" width="1.642" height="22.427"/>
	<rect x="61.973" y="240.709" fill="#AC8028" width="1.642" height="22.427"/>
	<line fill="none" stroke="#AC8028" stroke-width="0.5" x1="201.877" y1="248.711" x2="302.376" y2="248.711"/>
	<line fill="none" stroke="#AC8028" stroke-width="0.5" x1="201.877" y1="253.017" x2="302.376" y2="253.018"/>
	<line fill="none" stroke="#AC8028" stroke-width="0.5" x1="201.877" y1="257.326" x2="302.376" y2="257.326"/>
	<rect x="201.851" y="240.709" fill="#AC8028" width="1.641" height="22.427"/>
	<rect x="267.688" y="240.709" fill="#AC8028" width="1.637" height="22.427"/>
	<rect x="301.118" y="240.709" fill="#AC8028" width="1.641" height="22.427"/>
	<rect x="234.256" y="240.709" fill="#AC8028" width="1.642" height="22.427"/>
	<line fill="none" stroke="#AC8028" stroke-width="0.5" x1="29.594" y1="244.4" x2="130.091" y2="244.401"/>
	<line fill="none" stroke="#AC8028" stroke-width="0.5" x1="201.877" y1="244.401" x2="302.376" y2="244.401"/>
	<g>
		<polygon fill="#523A18" points="299.367,303.97 310.064,346.336 33.378,346.336 44.39,308.586 32.413,266.812 309.145,266.812 		
			"/>
		<polygon fill="#806627" points="298.189,303.933 308.782,345.311 32.859,345.311 43.797,306.592 31.902,265.423 308.782,265.424 
					"/>
		<polygon fill="#241410" points="294.651,302.768 305.244,342.439 29.319,342.439 40.26,303.72 29.031,262.555 305.244,262.555 		
			"/>
	</g>
	<g>
		<path fill="#060607" d="M127.308,292.864c0-0.524-0.111-1.059-0.336-1.602c-0.223-0.542-0.542-0.967-0.955-1.281
			c-0.144,0.034-0.428,0.07-0.846,0.11c-0.418,0.038-0.912,0.073-1.485,0.108c-0.567,0.033-1.18,0.068-1.837,0.102
			c-0.663,0.032-1.308,0.063-1.945,0.09c-0.636,0.025-1.231,0.052-1.784,0.076c-0.551,0.022-1.007,0.04-1.365,0.049
			c0.902-1.574,1.683-2.968,2.335-4.187c0.655-1.218,1.187-2.295,1.599-3.239c0.415-0.944,0.719-1.771,0.915-2.479
			c0.194-0.71,0.293-1.338,0.293-1.885c0-0.714-0.111-1.425-0.335-2.137c-0.224-0.706-0.524-1.378-0.904-2.009
			c-0.381-0.632-0.828-1.216-1.341-1.759c-0.513-0.542-1.063-1.009-1.648-1.405c-0.588-0.396-1.193-0.705-1.818-0.928
			c-0.625-0.225-1.239-0.338-1.842-0.338c-0.581,0-1.1,0.045-1.557,0.135c-0.458,0.09-0.866,0.266-1.224,0.535
			c-0.356,0.267-0.676,0.646-0.954,1.138c-0.28,0.494-0.53,1.139-0.746,1.937c-0.218,0.799-0.413,1.771-0.587,2.924
			c-0.171,1.149-0.335,2.515-0.492,4.103c-0.068,0.703-0.146,1.505-0.234,2.401c-0.089,0.9-0.182,1.809-0.276,2.731
			c-0.096,0.922-0.188,1.804-0.277,2.646c-0.089,0.842-0.167,1.567-0.234,2.17c-0.379,0.032-0.749,0.176-1.105,0.425
			c-0.358,0.25-0.674,0.569-0.947,0.956c-0.273,0.386-0.494,0.817-0.662,1.297s-0.252,0.963-0.252,1.44
			c0,1.072,0.644,1.642,1.927,1.708c-0.133,0.705-0.318,1.53-0.553,2.479s-0.497,1.962-0.788,3.042
			c-0.291,1.077-0.598,2.188-0.929,3.339c-0.33,1.151-0.661,2.281-0.996,3.394c-0.335,1.11-0.663,2.172-0.981,3.189
			c-0.318,1.015-0.616,1.932-0.896,2.748c-0.637,1.91-1.184,3.563-1.641,4.967c-0.459,1.396-0.84,2.617-1.148,3.65
			c-0.308,1.032-0.551,1.903-0.736,2.621c-0.184,0.712-0.327,1.343-0.427,1.883c-0.102,0.541-0.165,1.02-0.192,1.443
			c-0.027,0.418-0.042,0.845-0.042,1.278c0,1.888,0.562,3.354,1.684,4.396c1.121,1.046,2.849,1.567,5.182,1.567
			c1.13,0,2.274-0.256,3.434-0.77c1.161-0.514,2.303-1.229,3.425-2.146c1.122-0.915,2.212-1.997,3.274-3.248
			c1.061-1.249,2.06-2.613,2.998-4.087c0.938-1.475,1.793-3.032,2.571-4.674c0.776-1.64,1.444-3.305,2.002-4.991
			c0.557-1.686,0.993-3.367,1.307-5.043c0.309-1.673,0.469-3.28,0.469-4.821c0-1.193-0.107-2.302-0.321-3.324
			c-0.211-1.022-0.511-1.941-0.895-2.763c-0.386-0.822-0.849-1.534-1.391-2.138c-0.542-0.602-1.136-1.082-1.784-1.44
			c0.692,0.067,1.388,0.118,2.086,0.152c0.696,0.032,1.443,0.051,2.234,0.051c0.572,0,1.096-0.12,1.576-0.354
			c0.48-0.231,0.898-0.561,1.255-0.972c0.357-0.41,0.636-0.898,0.839-1.457C127.205,294.115,127.308,293.512,127.308,292.864z
			 M116.219,311.254c-0.168,1.047-0.393,2.117-0.677,3.199c-0.286,1.081-0.621,2.163-1.007,3.237
			c-0.385,1.08-0.795,2.11-1.238,3.093c-0.441,0.984-0.895,1.896-1.357,2.737c-0.464,0.844-0.92,1.579-1.375,2.202
			c-0.452,0.628-0.881,1.114-1.288,1.468c-0.409,0.353-0.773,0.527-1.097,0.527c-0.247,0-0.444-0.058-0.595-0.169
			c-0.151-0.109-0.226-0.285-0.226-0.519c0-0.079,0.014-0.177,0.04-0.294c0.03-0.115,0.06-0.226,0.094-0.326
			c0.233-0.582,0.535-1.377,0.903-2.385c0.37-1.012,0.77-2.171,1.198-3.477c0.431-1.306,0.875-2.729,1.333-4.266
			c0.457-1.53,0.905-3.122,1.34-4.762c0.435-1.644,0.841-3.303,1.214-4.981c0.374-1.681,0.682-3.316,0.93-4.9
			c0.625,0.515,1.125,1.345,1.498,2.496c0.374,1.148,0.562,2.532,0.562,4.154C116.471,309.215,116.387,310.203,116.219,311.254z"/>
		<path fill="#060607" d="M236.551,303.298c-0.122-0.269-0.288-0.505-0.511-0.712c-0.223-0.205-0.499-0.38-0.822-0.519
			c-0.322-0.142-0.692-0.216-1.102-0.227c-0.974,1.496-2.067,2.855-3.278,4.079c-1.21,1.222-2.459,2.269-3.751,3.139
			c-1.291,0.87-2.586,1.546-3.884,2.018c-1.301,0.476-2.532,0.711-3.698,0.711c-0.664,0-1.214-0.104-1.647-0.316
			c-0.427-0.213-0.765-0.519-1.004-0.921c-0.239-0.403-0.409-0.902-0.504-1.5c-0.092-0.594-0.139-1.279-0.139-2.052
			c2.343-0.536,4.33-1.208,5.95-2.016c1.624-0.812,2.942-1.741,3.955-2.799c1.015-1.057,1.74-2.214,2.183-3.484
			c0.449-1.266,0.672-2.62,0.672-4.062c0-2.4-0.632-4.177-1.89-5.331c-1.265-1.158-3.075-1.734-5.445-1.734
			c-1.114,0-2.263,0.274-3.444,0.829c-1.174,0.552-2.323,1.316-3.441,2.292c-1.115,0.978-2.172,2.13-3.171,3.458
			c-0.998,1.33-1.874,2.771-2.62,4.322c-0.753,1.55-1.341,3.181-1.777,4.881c-0.175,0.688-0.305,1.375-0.41,2.065
			c-0.125,0.145-0.249,0.29-0.378,0.431c-1.095,1.191-2.204,2.207-3.331,3.058c-1.129,0.85-2.247,1.508-3.359,1.975
			c-1.111,0.471-2.15,0.705-3.104,0.705c-0.676,0-1.24-0.099-1.714-0.296c-0.462-0.193-0.849-0.503-1.145-0.926
			c-0.297-0.424-0.51-0.972-0.643-1.642c-0.137-0.671-0.203-1.473-0.203-2.414c0-1.729,0.134-3.291,0.393-4.688
			c0.263-1.396,0.583-2.586,0.965-3.567c0.381-0.985,0.786-1.738,1.212-2.27c0.433-0.533,0.808-0.797,1.135-0.797
			c0.21,0,0.412,0.118,0.599,0.353c0.189,0.234,0.286,0.598,0.286,1.09c0,0.443-0.053,1.042-0.156,1.792
			c-0.109,0.747-0.286,1.593-0.529,2.529c0.276,0.411,0.65,0.733,1.111,0.964c0.464,0.227,1.076,0.342,1.838,0.342
			c0.825,0,1.62-0.207,2.383-0.62c0.762-0.414,1.443-0.977,2.037-1.685c0.592-0.709,1.068-1.542,1.425-2.504
			c0.356-0.959,0.538-1.986,0.538-3.081c0-1.051-0.148-1.985-0.438-2.813c-0.292-0.827-0.729-1.524-1.315-2.096
			c-0.588-0.567-1.313-1.002-2.186-1.302c-0.869-0.303-1.895-0.456-3.065-0.456c-1.216,0-2.453,0.276-3.71,0.821
			c-1.257,0.547-2.471,1.308-3.642,2.279c-1.175,0.97-2.271,2.118-3.292,3.443c-1.018,1.321-1.914,2.762-2.673,4.319
			s-1.357,3.195-1.8,4.913c-0.198,0.781-0.348,1.566-0.457,2.354c-0.176,0.213-0.355,0.427-0.533,0.63
			c-1.043,1.191-2.005,2.199-2.895,3.016c-0.892,0.815-1.671,1.435-2.354,1.867c-0.68,0.429-1.193,0.642-1.538,0.642
			c-0.314,0-0.554-0.072-0.72-0.225c-0.171-0.151-0.253-0.414-0.253-0.793c0-0.291,0.055-0.659,0.169-1.106
			c0.111-0.448,0.26-0.942,0.451-1.487c0.189-0.538,0.404-1.114,0.643-1.723c0.242-0.606,0.486-1.223,0.739-1.84
			c0.252-0.62,0.502-1.226,0.753-1.819c0.25-0.591,0.474-1.14,0.678-1.641c0.728-1.644,1.24-3.077,1.542-4.312
			c0.3-1.235,0.454-2.309,0.454-3.227c0-0.668-0.1-1.29-0.298-1.866c-0.195-0.576-0.488-1.078-0.887-1.507
			c-0.396-0.431-0.89-0.765-1.479-1.006c-0.592-0.24-1.286-0.357-2.078-0.357c-0.75,0-1.601,0.204-2.555,0.617
			c-0.953,0.412-1.979,1.085-3.073,2.01c-1.096,0.929-2.242,2.137-3.443,3.628c-1.199,1.491-2.428,3.317-3.675,5.481
			c0.457-0.836,0.858-1.74,1.205-2.72c0.348-0.975,0.632-1.92,0.854-2.838c0.224-0.916,0.392-1.758,0.501-2.53
			c0.112-0.769,0.17-1.365,0.17-1.792c0-0.514-0.045-0.95-0.134-1.313c-0.088-0.362-0.245-0.664-0.461-0.897
			c-0.22-0.232-0.517-0.403-0.896-0.51c-0.38-0.106-0.866-0.158-1.457-0.158c-0.705,0-1.448,0.182-2.236,0.551
			c-0.787,0.369-1.565,0.858-2.335,1.466c-0.772,0.608-1.505,1.303-2.204,2.085c-0.698,0.782-1.314,1.589-1.843,2.422
			c-0.53,0.83-0.953,1.658-1.262,2.478c-0.315,0.818-0.471,1.566-0.471,2.236c0,0.693,0.044,1.411,0.134,2.16
			c0.07,0.579,0.197,1.127,0.38,1.646c-0.781,1.084-1.629,2.092-2.549,3.02c-1.211,1.222-2.46,2.269-3.75,3.139
			c-1.291,0.87-2.586,1.545-3.887,2.018c-1.3,0.476-2.532,0.711-3.693,0.711c-0.668,0-1.218-0.104-1.651-0.316
			c-0.428-0.213-0.763-0.519-1.003-0.921c-0.24-0.403-0.407-0.902-0.503-1.5c-0.094-0.594-0.141-1.279-0.141-2.052
			c2.344-0.536,4.329-1.208,5.954-2.016c1.622-0.812,2.941-1.741,3.953-2.799c1.011-1.057,1.74-2.214,2.184-3.484
			c0.448-1.266,0.671-2.62,0.671-4.062c0-2.4-0.63-4.177-1.894-5.332c-1.262-1.157-3.077-1.733-5.441-1.733
			c-1.116,0-2.265,0.274-3.442,0.829c-1.177,0.552-2.326,1.316-3.443,2.292c-1.116,0.978-2.172,2.13-3.173,3.458
			c-0.999,1.33-1.872,2.771-2.621,4.322c-0.747,1.55-1.34,3.181-1.776,4.881c-0.434,1.705-0.652,3.421-0.652,5.151
			c0,1.854,0.196,3.498,0.588,4.933c0.39,1.434,0.99,2.645,1.799,3.634c0.807,0.989,1.832,1.74,3.064,2.254
			c1.235,0.513,2.691,0.772,4.366,0.772c1.115,0,2.261-0.16,3.441-0.48c1.177-0.317,2.347-0.751,3.509-1.305
			c1.159-0.555,2.299-1.198,3.416-1.937c1.117-0.737,2.171-1.525,3.166-2.369c0.701-0.596,1.351-1.211,1.976-1.834
			c0.044,0.938,0.215,1.838,0.528,2.698c0.338,0.937,0.81,1.762,1.406,2.469c0.598,0.71,1.303,1.276,2.12,1.698
			c0.813,0.426,1.7,0.638,2.663,0.638c0.39,0,0.721-0.013,0.997-0.042c0.271-0.028,0.511-0.073,0.712-0.142
			c0.2-0.065,0.382-0.161,0.544-0.277c0.162-0.116,0.327-0.26,0.494-0.427c0.056-1.16,0.123-2.249,0.201-3.258
			c0.077-1.008,0.178-2.017,0.301-3.023c0.124-1.004,0.271-2.052,0.445-3.14c0.173-1.089,0.381-2.29,0.628-3.61
			c0.669-0.926,1.306-1.692,1.91-2.301c0.603-0.608,1.151-1.095,1.641-1.458c0.49-0.362,0.91-0.616,1.255-0.76
			c0.347-0.146,0.596-0.22,0.754-0.22c0.546,0,0.82,0.274,0.82,0.821c0,0.257-0.085,0.648-0.259,1.171
			c-0.171,0.525-0.39,1.142-0.643,1.85c-0.259,0.711-0.54,1.488-0.846,2.331c-0.309,0.842-0.591,1.703-0.849,2.579
			c-0.254,0.874-0.471,1.746-0.643,2.602c-0.174,0.862-0.26,1.671-0.26,2.432c0,0.948,0.092,1.772,0.276,2.472
			c0.186,0.694,0.49,1.273,0.915,1.733c0.424,0.455,0.982,0.799,1.674,1.021c0.692,0.225,1.541,0.334,2.547,0.334
			c0.79,0,1.654-0.168,2.586-0.502c0.933-0.335,1.89-0.793,2.875-1.373c0.981-0.582,1.973-1.253,2.975-2.02
			c0.995-0.765,1.957-1.577,2.878-2.437c0.508-0.474,0.995-0.956,1.466-1.443c0.057,0.288,0.114,0.575,0.184,0.849
			c0.364,1.434,0.943,2.645,1.729,3.634c0.779,0.989,1.773,1.74,2.989,2.254c1.208,0.513,2.659,0.772,4.343,0.772
			c1.039,0,2.109-0.167,3.209-0.495c1.097-0.332,2.191-0.773,3.281-1.332c1.087-0.558,2.155-1.212,3.208-1.959
			c1.049-0.751,2.043-1.549,2.981-2.398c0.451-0.405,0.882-0.818,1.297-1.237c0.056,0.257,0.108,0.517,0.174,0.762
			c0.393,1.434,0.992,2.645,1.801,3.634c0.813,0.989,1.835,1.74,3.069,2.254c1.231,0.513,2.686,0.772,4.363,0.772
			c1.117,0,2.259-0.16,3.44-0.48c1.179-0.317,2.347-0.751,3.509-1.305c1.16-0.555,2.3-1.198,3.414-1.937
			c1.118-0.737,2.173-1.525,3.169-2.369c0.994-0.843,1.91-1.714,2.749-2.613c0.839-0.897,1.557-1.779,2.166-2.646
			c0.605-0.863,1.081-1.697,1.424-2.495c0.34-0.799,0.513-1.516,0.513-2.153C236.729,303.832,236.666,303.565,236.551,303.298z
			 M217.205,298.777c0.261-0.896,0.553-1.638,0.88-2.23c0.323-0.59,0.653-1.034,0.979-1.33c0.329-0.296,0.612-0.444,0.85-0.444
			c0.412,0,0.741,0.198,0.994,0.595c0.253,0.396,0.374,0.957,0.374,1.684c0,0.513-0.059,1.021-0.182,1.524
			c-0.122,0.501-0.358,0.969-0.705,1.405c-0.347,0.435-0.818,0.824-1.421,1.165c-0.605,0.341-1.386,0.594-2.347,0.763
			C216.75,300.716,216.946,299.67,217.205,298.777z M136.962,298.777c0.264-0.896,0.555-1.638,0.879-2.23
			c0.324-0.59,0.65-1.034,0.979-1.33c0.331-0.296,0.611-0.444,0.848-0.444c0.413,0,0.745,0.198,0.997,0.595
			c0.25,0.396,0.376,0.957,0.376,1.684c0,0.513-0.063,1.021-0.185,1.524c-0.123,0.501-0.359,0.969-0.705,1.405
			c-0.345,0.435-0.82,0.824-1.422,1.165c-0.604,0.341-1.387,0.594-2.349,0.763C136.508,300.716,136.7,299.67,136.962,298.777z"/>
	</g>
	<g>
		
			<radialGradient id="SVGID_1_" cx="58.9058" cy="195.7998" r="171.3356" gradientTransform="matrix(0.6161 0 0 0.6161 109.1054 109.7397)" gradientUnits="userSpaceOnUse">
			<stop  offset="0" style="stop-color:#CC9D59"/>
			<stop  offset="1" style="stop-color:#AC8028"/>
		</radialGradient>
		<path fill="url(#SVGID_1_)" d="M127.102,291.428c0-0.525-0.11-1.059-0.335-1.602c-0.224-0.539-0.542-0.967-0.953-1.281
			c-0.146,0.034-0.429,0.07-0.847,0.108c-0.417,0.042-0.912,0.076-1.482,0.111c-0.57,0.034-1.185,0.069-1.843,0.1
			c-0.66,0.032-1.307,0.064-1.941,0.092c-0.637,0.026-1.233,0.058-1.785,0.075c-0.551,0.025-1.007,0.042-1.365,0.052
			c0.903-1.576,1.683-2.972,2.337-4.187c0.653-1.219,1.185-2.297,1.599-3.245c0.415-0.942,0.718-1.764,0.912-2.476
			c0.197-0.71,0.294-1.338,0.294-1.885c0-0.715-0.112-1.427-0.335-2.135c-0.224-0.71-0.525-1.379-0.905-2.012
			c-0.38-0.631-0.824-1.214-1.339-1.756c-0.514-0.543-1.063-1.012-1.649-1.407c-0.588-0.397-1.191-0.707-1.819-0.93
			c-0.623-0.224-1.239-0.337-1.84-0.337c-0.583,0-1.103,0.047-1.559,0.134c-0.458,0.089-0.865,0.271-1.223,0.539
			c-0.357,0.266-0.674,0.645-0.955,1.137c-0.276,0.49-0.525,1.136-0.746,1.935c-0.217,0.799-0.413,1.774-0.585,2.925
			c-0.173,1.147-0.338,2.516-0.496,4.101c-0.066,0.705-0.143,1.506-0.233,2.402c-0.091,0.9-0.18,1.812-0.276,2.734
			c-0.095,0.919-0.188,1.801-0.275,2.645c-0.091,0.844-0.169,1.568-0.236,2.17c-0.38,0.03-0.749,0.173-1.106,0.423
			c-0.355,0.254-0.672,0.572-0.946,0.958c-0.273,0.385-0.493,0.818-0.662,1.297c-0.168,0.48-0.251,0.961-0.251,1.442
			c0,1.072,0.643,1.641,1.926,1.708c-0.132,0.704-0.317,1.531-0.554,2.476c-0.234,0.951-0.497,1.963-0.786,3.042
			c-0.29,1.079-0.601,2.189-0.931,3.342c-0.329,1.149-0.661,2.279-0.995,3.392c-0.334,1.111-0.662,2.174-0.981,3.189
			c-0.317,1.018-0.616,1.932-0.895,2.747c-0.638,1.911-1.183,3.566-1.642,4.968c-0.458,1.399-0.84,2.617-1.148,3.651
			c-0.306,1.029-0.551,1.904-0.736,2.62c-0.184,0.716-0.326,1.343-0.427,1.884c-0.102,0.543-0.165,1.021-0.193,1.441
			c-0.027,0.418-0.041,0.848-0.041,1.281c0,1.885,0.559,3.354,1.683,4.395c1.123,1.045,2.849,1.569,5.184,1.569
			c1.127,0,2.271-0.26,3.433-0.772c1.161-0.513,2.303-1.229,3.427-2.143c1.12-0.917,2.212-2.001,3.274-3.251
			c1.06-1.249,2.059-2.612,2.997-4.088c0.938-1.472,1.794-3.032,2.57-4.672c0.777-1.642,1.443-3.306,2.001-4.99
			c0.558-1.687,0.995-3.367,1.308-5.042c0.311-1.676,0.469-3.281,0.469-4.822c0-1.196-0.105-2.305-0.32-3.326
			c-0.211-1.02-0.51-1.943-0.896-2.763c-0.385-0.82-0.849-1.533-1.39-2.136c-0.541-0.602-1.136-1.084-1.783-1.44
			c0.692,0.066,1.387,0.117,2.084,0.152c0.699,0.033,1.443,0.05,2.235,0.05c0.57,0,1.093-0.119,1.576-0.355
			c0.479-0.232,0.897-0.559,1.256-0.97c0.357-0.414,0.636-0.898,0.838-1.456C127,292.678,127.102,292.075,127.102,291.428z
			 M116.013,309.816c-0.167,1.05-0.391,2.115-0.677,3.199c-0.283,1.085-0.621,2.163-1.004,3.241c-0.385,1.079-0.799,2.11-1.241,3.09
			c-0.441,0.982-0.892,1.896-1.356,2.737c-0.462,0.847-0.921,1.578-1.375,2.202c-0.451,0.625-0.881,1.116-1.29,1.466
			c-0.408,0.354-0.773,0.527-1.097,0.527c-0.245,0-0.44-0.054-0.595-0.165c-0.15-0.112-0.225-0.286-0.225-0.52
			c0-0.079,0.014-0.176,0.042-0.292c0.028-0.12,0.058-0.227,0.093-0.326c0.234-0.585,0.537-1.378,0.905-2.388
			c0.368-1.012,0.767-2.168,1.196-3.476c0.43-1.307,0.875-2.727,1.332-4.264c0.458-1.534,0.904-3.122,1.339-4.763
			c0.437-1.644,0.84-3.304,1.215-4.982c0.375-1.681,0.683-3.314,0.929-4.9c0.627,0.513,1.124,1.346,1.501,2.494
			c0.372,1.151,0.559,2.536,0.559,4.155C116.265,307.78,116.181,308.769,116.013,309.816z"/>
		
			<radialGradient id="SVGID_2_" cx="58.9072" cy="195.7979" r="171.3363" gradientTransform="matrix(0.6161 0 0 0.6161 109.1054 109.7397)" gradientUnits="userSpaceOnUse">
			<stop  offset="0" style="stop-color:#CC9D59"/>
			<stop  offset="1" style="stop-color:#AC8028"/>
		</radialGradient>
		<path fill="url(#SVGID_2_)" d="M236.346,301.862c-0.119-0.269-0.288-0.506-0.512-0.711c-0.224-0.208-0.496-0.382-0.818-0.521
			c-0.326-0.139-0.694-0.216-1.106-0.227c-0.975,1.498-2.065,2.857-3.273,4.078c-1.216,1.225-2.464,2.271-3.755,3.142
			c-1.287,0.869-2.585,1.54-3.884,2.018c-1.305,0.474-2.529,0.713-3.694,0.713c-0.668,0-1.218-0.105-1.646-0.321
			c-0.43-0.209-0.766-0.518-1.008-0.922c-0.242-0.399-0.408-0.898-0.504-1.497c-0.094-0.596-0.139-1.28-0.139-2.05
			c2.342-0.538,4.329-1.208,5.957-2.021c1.62-0.809,2.938-1.739,3.949-2.796c1.009-1.056,1.737-2.215,2.184-3.484
			c0.445-1.266,0.673-2.619,0.673-4.061c0-2.4-0.633-4.18-1.894-5.333c-1.267-1.157-3.074-1.735-5.441-1.735
			c-1.118,0-2.267,0.277-3.446,0.829c-1.173,0.552-2.325,1.316-3.444,2.296c-1.114,0.975-2.173,2.128-3.17,3.458
			c-0.999,1.328-1.874,2.768-2.617,4.319c-0.755,1.552-1.344,3.181-1.78,4.883c-0.176,0.687-0.306,1.377-0.41,2.068
			c-0.125,0.142-0.248,0.289-0.375,0.428c-1.098,1.188-2.206,2.207-3.336,3.055c-1.127,0.852-2.245,1.511-3.356,1.977
			c-1.108,0.472-2.147,0.704-3.105,0.704c-0.669,0-1.238-0.099-1.711-0.292c-0.47-0.195-0.853-0.504-1.145-0.93
			c-0.297-0.424-0.509-0.97-0.646-1.642c-0.132-0.671-0.198-1.471-0.198-2.413c0-1.727,0.13-3.292,0.389-4.689
			c0.267-1.396,0.582-2.585,0.966-3.564c0.376-0.985,0.784-1.741,1.214-2.271s0.809-0.794,1.132-0.794
			c0.209,0,0.413,0.116,0.604,0.349c0.188,0.236,0.281,0.599,0.281,1.088c0,0.448-0.054,1.046-0.156,1.795
			c-0.106,0.75-0.281,1.591-0.528,2.528c0.278,0.412,0.647,0.733,1.111,0.965c0.465,0.229,1.074,0.342,1.833,0.342
			c0.829,0,1.625-0.207,2.39-0.62c0.763-0.412,1.441-0.974,2.033-1.684c0.593-0.709,1.07-1.541,1.425-2.503
			c0.356-0.958,0.536-1.987,0.536-3.082c0-1.048-0.146-1.987-0.433-2.813c-0.293-0.828-0.729-1.523-1.313-2.096
			c-0.591-0.567-1.32-1.005-2.191-1.306c-0.868-0.302-1.89-0.452-3.063-0.452c-1.217,0-2.455,0.274-3.714,0.822
			c-1.251,0.547-2.466,1.305-3.637,2.276c-1.175,0.972-2.273,2.118-3.295,3.442c-1.022,1.324-1.911,2.762-2.669,4.32
			c-0.763,1.558-1.362,3.197-1.802,4.914c-0.198,0.781-0.347,1.566-0.457,2.354c-0.177,0.213-0.354,0.426-0.53,0.629
			c-1.045,1.195-2.007,2.198-2.896,3.014c-0.892,0.816-1.673,1.438-2.356,1.869c-0.68,0.428-1.194,0.646-1.538,0.646
			c-0.314,0-0.552-0.075-0.721-0.228c-0.168-0.149-0.252-0.415-0.252-0.793c0-0.292,0.057-0.661,0.167-1.108
			c0.109-0.445,0.264-0.941,0.453-1.481c0.188-0.541,0.404-1.118,0.645-1.725c0.24-0.609,0.484-1.223,0.736-1.844
			c0.251-0.618,0.501-1.224,0.754-1.815c0.252-0.594,0.479-1.139,0.678-1.645c0.726-1.64,1.238-3.077,1.545-4.311
			c0.301-1.233,0.449-2.31,0.449-3.225c0-0.667-0.1-1.295-0.296-1.865c-0.193-0.576-0.489-1.079-0.885-1.508
			c-0.396-0.433-0.891-0.764-1.483-1.009c-0.59-0.236-1.283-0.356-2.076-0.356c-0.75,0-1.601,0.206-2.555,0.619
			c-0.954,0.412-1.979,1.081-3.073,2.01c-1.095,0.927-2.242,2.134-3.442,3.625c-1.202,1.491-2.426,3.317-3.676,5.486
			c0.456-0.838,0.86-1.747,1.205-2.725c0.346-0.975,0.631-1.922,0.854-2.838c0.224-0.914,0.39-1.758,0.504-2.528
			c0.11-0.771,0.168-1.366,0.168-1.791c0-0.515-0.046-0.953-0.136-1.315c-0.09-0.363-0.243-0.661-0.461-0.896
			c-0.218-0.231-0.515-0.405-0.893-0.512c-0.381-0.104-0.87-0.156-1.458-0.156c-0.704,0-1.449,0.183-2.238,0.551
			c-0.785,0.368-1.564,0.857-2.335,1.467c-0.771,0.608-1.504,1.304-2.202,2.083c-0.698,0.785-1.313,1.591-1.843,2.418
			c-0.53,0.837-0.953,1.662-1.262,2.481c-0.314,0.82-0.47,1.566-0.47,2.239c0,0.689,0.043,1.41,0.133,2.158
			c0.068,0.58,0.197,1.128,0.379,1.646c-0.78,1.085-1.628,2.092-2.547,3.018c-1.213,1.225-2.464,2.271-3.751,3.142
			c-1.29,0.869-2.586,1.54-3.887,2.018c-1.302,0.474-2.533,0.713-3.696,0.713c-0.667,0-1.216-0.105-1.647-0.321
			c-0.43-0.209-0.766-0.518-1.003-0.922c-0.243-0.399-0.409-0.898-0.503-1.497c-0.096-0.596-0.143-1.28-0.143-2.05
			c2.344-0.538,4.33-1.208,5.953-2.021c1.625-0.809,2.942-1.739,3.954-2.796c1.011-1.056,1.74-2.215,2.185-3.484
			c0.447-1.266,0.671-2.619,0.671-4.061c0-2.4-0.63-4.18-1.893-5.333c-1.261-1.157-3.075-1.735-5.442-1.735
			c-1.117,0-2.265,0.277-3.443,0.829c-1.179,0.552-2.325,1.316-3.441,2.296c-1.117,0.975-2.174,2.128-3.175,3.458
			c-0.998,1.328-1.874,2.768-2.621,4.319c-0.748,1.552-1.338,3.181-1.775,4.883c-0.435,1.703-0.653,3.421-0.653,5.151
			c0,1.853,0.194,3.499,0.588,4.931c0.389,1.437,0.99,2.647,1.798,3.636c0.81,0.989,1.833,1.74,3.065,2.253
			c1.235,0.512,2.692,0.771,4.364,0.771c1.119,0,2.263-0.159,3.441-0.478c1.179-0.317,2.35-0.754,3.508-1.308
			c1.163-0.554,2.302-1.198,3.419-1.933c1.115-0.737,2.17-1.528,3.166-2.37c0.702-0.596,1.351-1.211,1.975-1.833
			c0.044,0.935,0.215,1.834,0.527,2.696c0.34,0.938,0.811,1.759,1.408,2.468c0.599,0.71,1.303,1.277,2.12,1.701
			c0.815,0.426,1.702,0.637,2.665,0.637c0.39,0,0.72-0.014,0.994-0.041c0.274-0.029,0.511-0.077,0.712-0.143
			c0.202-0.067,0.381-0.161,0.546-0.277c0.16-0.118,0.325-0.26,0.493-0.427c0.056-1.16,0.124-2.249,0.202-3.258
			c0.078-1.012,0.178-2.019,0.3-3.024c0.124-1.004,0.271-2.051,0.444-3.142c0.174-1.086,0.383-2.288,0.628-3.605
			c0.671-0.928,1.307-1.697,1.912-2.306c0.6-0.607,1.147-1.094,1.639-1.456c0.492-0.363,0.912-0.618,1.257-0.762
			c0.348-0.145,0.598-0.219,0.755-0.219c0.546,0,0.82,0.275,0.82,0.821c0,0.257-0.087,0.648-0.261,1.173
			c-0.171,0.525-0.388,1.142-0.642,1.851c-0.259,0.708-0.541,1.484-0.846,2.33c-0.309,0.841-0.591,1.7-0.849,2.578
			c-0.254,0.877-0.469,1.743-0.644,2.604c-0.173,0.858-0.261,1.669-0.261,2.425c0,0.952,0.094,1.778,0.275,2.476
			c0.187,0.697,0.491,1.271,0.916,1.731c0.424,0.459,0.981,0.799,1.674,1.021c0.692,0.224,1.54,0.334,2.547,0.334
			c0.792,0,1.654-0.166,2.587-0.5c0.93-0.334,1.89-0.793,2.871-1.375c0.982-0.58,1.975-1.253,2.974-2.018
			c0.995-0.765,1.958-1.577,2.88-2.438c0.509-0.474,0.996-0.954,1.467-1.442c0.058,0.289,0.113,0.575,0.184,0.848
			c0.369,1.437,0.942,2.647,1.728,3.636c0.779,0.989,1.776,1.74,2.988,2.253c1.212,0.512,2.659,0.771,4.348,0.771
			c1.034,0,2.105-0.164,3.208-0.493c1.099-0.33,2.193-0.775,3.276-1.33c1.09-0.561,2.161-1.212,3.209-1.962
			c1.053-0.749,2.045-1.547,2.982-2.396c0.452-0.406,0.883-0.819,1.3-1.24c0.056,0.258,0.108,0.518,0.174,0.763
			c0.391,1.437,0.993,2.647,1.802,3.636c0.809,0.989,1.83,1.74,3.064,2.253c1.233,0.512,2.689,0.771,4.363,0.771
			c1.115,0,2.263-0.159,3.441-0.478c1.178-0.317,2.35-0.754,3.509-1.308c1.16-0.554,2.299-1.198,3.417-1.933
			c1.115-0.737,2.173-1.528,3.165-2.37c0.995-0.843,1.91-1.714,2.748-2.613c0.837-0.897,1.563-1.784,2.168-2.646
			c0.608-0.865,1.085-1.697,1.424-2.495c0.34-0.8,0.514-1.519,0.514-2.155C236.523,302.398,236.46,302.132,236.346,301.862z
			 M217,297.338c0.262-0.894,0.556-1.634,0.879-2.224c0.325-0.595,0.648-1.039,0.979-1.335c0.329-0.294,0.615-0.442,0.848-0.442
			c0.416,0,0.746,0.198,0.995,0.596c0.251,0.396,0.377,0.956,0.377,1.683c0,0.513-0.061,1.023-0.183,1.524
			c-0.124,0.502-0.356,0.969-0.703,1.407c-0.346,0.434-0.818,0.824-1.422,1.163c-0.604,0.339-1.387,0.592-2.346,0.762
			C216.544,299.276,216.74,298.234,217,297.338z M136.757,297.338c0.262-0.894,0.556-1.634,0.879-2.224
			c0.324-0.595,0.649-1.039,0.98-1.335c0.328-0.294,0.609-0.442,0.845-0.442c0.413,0,0.747,0.198,0.997,0.596
			c0.251,0.396,0.377,0.956,0.377,1.683c0,0.513-0.062,1.023-0.187,1.524c-0.121,0.502-0.356,0.969-0.702,1.407
			c-0.347,0.434-0.82,0.824-1.424,1.163c-0.602,0.339-1.385,0.592-2.346,0.762C136.303,299.276,136.495,298.234,136.757,297.338z"/>
	</g>
	
		<polyline fill="none" stroke="#533A18" stroke-linecap="round" stroke-linejoin="round" stroke-miterlimit="10" stroke-dasharray="0,1.504" points="
		31.557,349.14 313.366,349.14 302.912,303.71 312.024,268.332 	"/>
	<g>
		<polygon fill="#CC9D59" points="258.471,310.32 269.899,316.855 270.041,303.546 258.535,296.966 		"/>
		<polygon fill="#CC9D59" points="282.49,297.027 270.986,303.61 271.121,316.916 282.551,310.386 		"/>
		<path fill="#CC9D59" d="M270.43,289.322l-11.398,6.757l11.578,6.647l11.321-6.716L270.43,289.322z M267.501,294.387l0.855-0.518
			l5.296,3.191l-0.855,0.485L267.501,294.387z"/>
	</g>
	<path opacity="0.22" fill="#806627" d="M70.039,61.256l9.646,11.757c0,0,4.266-4.424,15.338-4.424
		c10.645,0,15.355,4.411,15.355,4.411l11.769-11.692c0,0-9.857-8.419-24.026-8.728C78.924,52.163,70.039,61.256,70.039,61.256z"/>
	<path opacity="0.28" fill="#AC8028" d="M65.983,197.56l11.705-10.739c0,0,4.12,6.535,16.903,6.535
		c13.515,0,17.98-6.526,17.98-6.526l13.478,10.73c0,0-10.242,11.345-27.928,11.345C74.608,208.904,65.983,197.56,65.983,197.56z"/>
	<polygon opacity="0.28" fill="#AC8028" points="167.5,221.486 198.782,221.486 183.651,206.159 	"/>
	<polygon opacity="0.28" fill="#AC8028" points="205.088,40.459 167.5,40.459 183.593,54.838 190.781,54.838 	"/>
	<polygon opacity="0.28" fill="#AC8028" points="251.77,221.486 284.633,221.482 269.386,206.797 263.842,206.698 	"/>
	<polygon opacity="0.28" fill="#AC8028" points="284.503,40.459 253.228,40.459 269.258,55.3 	"/>
	<polygon opacity="0.33" fill="#CC9D59" points="269.258,55.3 253.228,40.459 253.228,147.768 269.386,206.797 	"/>
	<polygon opacity="0.33" fill="#CC9D59" points="183.548,54.838 167.517,40.459 167.5,221.486 183.677,206.102 	"/>
	<polygon opacity="0.33" fill="#CC9D59" points="190.781,54.838 199.387,104.48 251.77,221.486 263.842,206.698 	"/>
	<polygon opacity="0.33" fill="#806627" points="253.228,147.768 252.736,147.768 263.682,206.8 269.386,206.8 	"/>
	<polygon opacity="0.33" fill="#806627" points="199.387,104.48 190.781,54.794 183.661,54.794 198.899,104.534 	"/>
	<g>
		<path opacity="0.33" fill="#CC9D59" d="M54.388,210.41l12.266-12.266c-0.485-0.411-0.917-0.798-1.286-1.149
			c-9.395-8.934-8.522-22.719-8.522-29.174l0.205-73.696c0-6.454,0.136-11.8,1.335-15.774c2.464-8.165,8.419-14.99,13.437-18.569
			c6.101-4.353,16.956-7.202,23.202-7.202c6.951,0,19.205,1.714,27.126,8.347l11.333-11.334c-9.706-7.695-22.5-11.557-38.399-11.557
			c-17.787,0-31.668,4.748-41.652,14.245c-9.984,9.499-14.974,24.917-14.974,46.26v64.868c0,21.18,4.99,36.558,14.974,46.135
			C53.743,209.842,54.069,210.122,54.388,210.41z"/>
	</g>
	<path fill="none" stroke="#FFFFFF" stroke-width="1.5" stroke-miterlimit="10" d="M135.297,173.944
		c0,22.231-17.563,34.91-39.227,34.91l0,0c-21.665,0-39.226-12.679-39.226-34.91V89.338c0-22.231,17.561-36.758,39.226-36.758l0,0
		c21.664,0,39.227,14.527,39.227,36.758V173.944z"/>
	<polyline fill="none" stroke="#FFFFFF" stroke-width="1.5" stroke-miterlimit="10" points="183.675,206.8 183.593,54.838 
		190.781,54.838 263.682,206.8 269.386,206.8 269.225,54.838 	"/>
	<g>
		<polygon fill="#CC9D59" points="66.265,289.479 77.766,296.166 66.447,302.881 54.863,296.229 		"/>
		<polygon fill="#CC9D59" points="65.873,303.7 65.732,317.006 54.306,310.475 54.369,297.12 		"/>
		<polygon fill="#CC9D59" points="66.821,303.764 66.959,317.067 78.386,310.539 78.324,297.181 		"/>
		<polygon fill="#241410" points="68.629,297.7 69.487,297.214 64.192,294.021 63.333,294.539 		"/>
	</g>
</g>
</svg>
