<?xml version="1.0" encoding="utf-8"?>
<!-- Generator: Adobe Illustrator 16.0.0, SVG Export Plug-In . SVG Version: 6.00 Build 0)  -->
<!DOCTYPE svg PUBLIC "-//W3C//DTD SVG 1.1//EN" "http://www.w3.org/Graphics/SVG/1.1/DTD/svg11.dtd">
<svg version="1.1" id="Layer_1" xmlns="http://www.w3.org/2000/svg" xmlns:xlink="http://www.w3.org/1999/xlink" x="0px" y="0px"
	 width="300px" height="265px" viewBox="0 0 300 265" enable-background="new 0 0 300 265" xml:space="preserve">
<g>
	<path opacity="0.77" fill="#E96449" enable-background="new    " d="M9.79,208.369l-2.803,2.561c0,0,2.208,1.838,4.437,2.409
		c4.062,1.044,6.905,0.49,9.345-0.478c1.956-0.773,4.167-2.74,4.167-2.74l-3.007-2.104c0,0-1.783,1.182-2.859,1.682
		c-1.938,0.908-3.061,1.029-5.446,0.626C10.935,209.875,9.79,208.369,9.79,208.369z"/>
	<path opacity="0.77" fill="#E8755F" enable-background="new    " d="M12.613,205.898l-3.047,2.619c0,0,2.439,1.586,3.672,1.726
		c2.451,0.282,2.897,0.423,5.073-0.343c2.548-0.887,3.5-2.111,3.5-2.111l-2.931-2.338c0,0-0.513,0.672-1.979,1.087
		c-0.581,0.163-1.895,0.224-3.068-0.029C13.238,206.381,12.613,205.898,12.613,205.898z"/>
	<polygon fill="#E8755F" points="57.55,205.152 56.149,205.318 53.178,210.661 60.36,209.869 	"/>
	<polygon fill="#E8755F" points="38.825,207.825 35.084,212.244 42.539,211.666 	"/>
	<g>
		<g>
			<g>
				<path id="SVGID_1_" fill="#9A5853" d="M18.708,205.633c-0.145,0.139-0.287,0.277-0.431,0.417
					c-0.809,0.782-1.619,1.564-2.428,2.351c0.923-0.898,1.246-2.375,1.201-4.455l2.853-2.762
					C19.954,203.264,19.628,204.739,18.708,205.633z"/>
			</g>
			<g>
				<defs>
					<path id="SVGID_2_" d="M18.708,205.633c-0.145,0.139-0.287,0.277-0.431,0.417c-0.809,0.782-1.619,1.564-2.428,2.351
						c0.923-0.898,1.246-2.375,1.201-4.455l2.853-2.762C19.954,203.264,19.628,204.739,18.708,205.633z"/>
				</defs>
				<clipPath id="SVGID_3_">
					<use xlink:href="#SVGID_2_"  overflow="visible"/>
				</clipPath>
				<g clip-path="url(#SVGID_3_)" enable-background="new    ">
					<path fill="#9A5853" d="M18.708,205.633l-2.859,2.768c0.923-0.898,1.246-2.375,1.201-4.455l2.853-2.762
						C19.954,203.264,19.628,204.739,18.708,205.633"/>
				</g>
			</g>
		</g>
		<g>
			<path fill="#E37F68" d="M15.169,164.355c6.868,0.018,12.355,4.613,12.426,11.812c0.189,8.271,0.378,16.548,0.564,24.823
				c0.236,7.367-5.129,12.67-12.363,12.885c-0.161,0.003-0.321,0.006-0.476,0.005c-6.983-0.019-12.375-5.015-12.467-12.18
				c-0.186-8.277-0.382-16.552-0.567-24.826c-0.243-7.399,5.236-12.302,12.377-12.511C14.831,164.355,15,164.355,15.169,164.355z
				 M19.903,201.184c-0.186-8.143-0.369-16.279-0.557-24.42c-0.081-3.5-1.125-5.188-4.229-5.197c-0.093,0-0.19,0.002-0.289,0.007
				c-3.329,0.092-4.356,1.835-4.275,5.437c0.186,8.143,0.375,16.283,0.56,24.424c0.08,3.502,1.126,5.233,4.246,5.241
				c0.09,0,0.179-0.003,0.272-0.003C18.958,206.572,19.988,204.784,19.903,201.184"/>
		</g>
		<g enable-background="new    ">
			<g>
				<defs>
					<path id="SVGID_4_" d="M41.987,181.561l-2.857,2.764c-0.058,0.004-0.081,0.005-0.139,0.01l2.86-2.764
						C41.906,181.568,41.93,181.564,41.987,181.561z"/>
				</defs>
				<clipPath id="SVGID_6_">
					<use xlink:href="#SVGID_4_"  overflow="visible"/>
				</clipPath>
				<g clip-path="url(#SVGID_6_)" enable-background="new    ">
					<path fill="#955747" d="M41.987,181.561l-2.857,2.764c-0.058,0.004-0.081,0.005-0.139,0.01l2.86-2.764
						C41.906,181.568,41.93,181.564,41.987,181.561"/>
				</g>
			</g>
		</g>
		<g>
			<path fill="#E37F68" d="M59.259,161.695c0.368,16.055,0.733,32.117,1.101,48.174c-2.874,0.333-4.309,0.492-7.182,0.792
				c-3.738-9.701-7.47-19.397-11.19-29.101c-0.058,0.004-0.082,0.008-0.135,0.008c0.226,10.035,0.456,20.065,0.687,30.098
				c-2.977,0.251-4.469,0.368-7.455,0.578c-0.367-16.059-0.729-32.119-1.097-48.178c3.06-0.217,4.586-0.334,7.652-0.594
				c3.549,8.873,7.104,17.739,10.67,26.61c0.052-0.007,0.078-0.011,0.132-0.017c-0.209-9.187-0.42-18.371-0.628-27.556
				C54.794,162.2,56.277,162.038,59.259,161.695z"/>
		</g>
		<g>
			<path fill="#E37F68" d="M89.555,157.544c0.067,2.882,0.101,4.324,0.166,7.204c-3.188,0.498-4.778,0.741-7.969,1.207
				c0.311,13.656,0.625,27.313,0.932,40.972c-3.292,0.483-4.94,0.712-8.236,1.165c-0.311-13.658-0.625-27.314-0.935-40.972
				c-3.191,0.438-4.782,0.646-7.976,1.044c-0.064-2.883-0.097-4.324-0.164-7.207C73.451,159.921,81.508,158.775,89.555,157.544z"/>
		</g>
		<g>
			<g>
				<path id="SVGID_5_" fill="#C05D52" d="M74.447,208.092l-2.854,2.762c-0.311-13.658-0.625-27.313-0.936-40.971l2.855-2.763
					C73.823,180.777,74.137,194.434,74.447,208.092z"/>
			</g>
			<g>
				<defs>
					<path id="SVGID_8_" d="M74.447,208.092l-2.854,2.762c-0.311-13.658-0.625-27.313-0.936-40.971l2.855-2.763
						C73.823,180.777,74.137,194.434,74.447,208.092z"/>
				</defs>
				<clipPath id="SVGID_9_">
					<use xlink:href="#SVGID_8_"  overflow="visible"/>
				</clipPath>
				<g clip-path="url(#SVGID_9_)" enable-background="new    ">
					<path fill="#C05D52" d="M74.447,208.092l-2.854,2.762c-0.311-13.658-0.625-27.313-0.936-40.971l2.855-2.763
						C73.823,180.777,74.137,194.434,74.447,208.092"/>
				</g>
			</g>
		</g>
		<g>
			<g>
				<path id="SVGID_7_" fill="#C05D52" d="M113.827,201.868l-2.853,2.762c-0.166-7.119-0.324-14.239-0.49-21.353l2.854-2.764
					C113.503,187.629,113.669,194.749,113.827,201.868z"/>
			</g>
			<g>
				<defs>
					<path id="SVGID_10_" d="M113.827,201.868l-2.853,2.762c-0.166-7.119-0.324-14.239-0.49-21.353l2.854-2.764
						C113.503,187.629,113.669,194.749,113.827,201.868z"/>
				</defs>
				<clipPath id="SVGID_12_">
					<use xlink:href="#SVGID_10_"  overflow="visible"/>
				</clipPath>
				<g clip-path="url(#SVGID_12_)" enable-background="new    ">
					<path fill="#C05D52" d="M113.827,201.868l-2.853,2.762c-0.166-7.119-0.324-14.239-0.49-21.353l2.854-2.764
						C113.503,187.629,113.669,194.749,113.827,201.868"/>
				</g>
			</g>
		</g>
		<g>
			<path fill="#E37F68" d="M120.962,152.225c0.361,16.057,0.733,32.119,1.099,48.176c-3.295,0.597-4.942,0.889-8.234,1.469
				c-0.158-7.119-0.324-14.239-0.489-21.354c-3.505,0.613-5.251,0.918-8.759,1.51c0.161,7.117,0.324,14.236,0.49,21.353
				c-3.295,0.56-4.937,0.833-8.236,1.363c-0.365-16.06-0.735-32.116-1.101-48.177c3.295-0.533,4.945-0.807,8.232-1.363
				c0.15,6.541,0.301,13.078,0.449,19.619c3.509-0.594,5.256-0.897,8.765-1.51c-0.151-6.541-0.299-13.082-0.453-19.621
				C116.02,153.111,117.663,152.818,120.962,152.225z"/>
		</g>
		<g>
			<path fill="#E37F68" d="M149.629,146.909c0.063,2.884,0.103,4.323,0.171,7.21c-4.604,0.863-9.201,1.729-13.804,2.584
				c0.092,4.136,0.187,8.271,0.283,12.411c3.539-0.659,7.078-1.324,10.617-1.989c0.064,2.889,0.099,4.326,0.162,7.21
				c-3.539,0.661-7.074,1.324-10.614,1.983c0.108,4.717,0.213,9.434,0.321,14.149c4.913-0.919,9.821-1.84,14.732-2.763
				c0.066,2.883,0.098,4.324,0.164,7.21c-7.653,1.435-15.303,2.868-22.959,4.276c-0.368-16.063-0.738-32.114-1.101-48.178
				C134.945,149.664,142.291,148.292,149.629,146.909z"/>
		</g>
		<g>
			<path fill="#E37F68" d="M180.028,141.273c0.065,2.884,0.1,4.322,0.166,7.205c-4.916,0.893-9.822,1.793-14.734,2.709
				c0.09,4.133,0.188,8.273,0.279,12.41c3.676-0.684,7.348-1.361,11.018-2.031c0.071,2.885,0.104,4.326,0.169,7.207
				c-3.673,0.672-7.348,1.349-11.021,2.033c0.166,7.113,0.324,14.233,0.488,21.352c-3.291,0.611-4.939,0.92-8.232,1.535
				c-0.362-16.057-0.727-32.117-1.1-48.178C164.716,144.083,172.37,142.664,180.028,141.273z"/>
		</g>
		<g>
			<path fill="#E37F68" d="M207.248,136.616c0.063,2.884,0.098,4.323,0.163,7.209c-4.609,0.733-9.211,1.5-13.811,2.293
				c0.098,4.133,0.188,8.272,0.281,12.409c3.538-0.607,7.081-1.201,10.627-1.779c0.064,2.884,0.102,4.324,0.164,7.209
				c-3.547,0.574-7.085,1.172-10.622,1.775c0.106,4.718,0.213,9.435,0.318,14.147c4.907-0.838,9.825-1.651,14.743-2.444
				c0.066,2.885,0.103,4.326,0.16,7.209c-7.666,1.236-15.319,2.533-22.971,3.881c-0.359-16.059-0.727-32.119-1.102-48.178
				C192.542,139.055,199.884,137.809,207.248,136.616z"/>
		</g>
		<g enable-background="new    ">
			<g>
				<defs>
					<path id="SVGID_14_" d="M221.345,152.614l-2.857,2.764c-0.051,0.003-0.08,0.006-0.131,0.015l2.854-2.762
						C221.264,152.623,221.29,152.619,221.345,152.614z"/>
				</defs>
				<clipPath id="SVGID_16_">
					<use xlink:href="#SVGID_14_"  overflow="visible"/>
				</clipPath>
				<g clip-path="url(#SVGID_16_)" enable-background="new    ">
					<path fill="#955747" d="M221.345,152.614l-2.857,2.764c-0.051,0.003-0.08,0.006-0.131,0.015l2.854-2.762
						C221.264,152.623,221.29,152.619,221.345,152.614"/>
				</g>
			</g>
		</g>
		<g>
			<g>
				<path id="SVGID_11_" fill="#C05D52" d="M232.522,181.258l-2.854,2.762c-3.719-9.549-7.449-19.096-11.182-28.642l2.856-2.764
					C225.078,162.16,228.808,171.707,232.522,181.258z"/>
			</g>
			<g>
				<defs>
					<path id="SVGID_18_" d="M232.522,181.258l-2.854,2.762c-3.719-9.549-7.449-19.096-11.182-28.642l2.856-2.764
						C225.078,162.16,228.808,171.707,232.522,181.258z"/>
				</defs>
				<clipPath id="SVGID_20_">
					<use xlink:href="#SVGID_18_"  overflow="visible"/>
				</clipPath>
				<g clip-path="url(#SVGID_20_)" enable-background="new    ">
					<path fill="#C05D52" d="M232.522,181.258l-2.854,2.762c-3.719-9.549-7.449-19.096-11.182-28.642l2.856-2.764
						C225.078,162.16,228.808,171.707,232.522,181.258"/>
				</g>
			</g>
		</g>
		<g>
			<path fill="#E37F68" d="M238.601,132.176c0.367,16.061,0.737,32.123,1.102,48.178c-2.868,0.346-4.307,0.529-7.18,0.903
				c-3.715-9.551-7.443-19.098-11.178-28.644c-0.055,0.005-0.08,0.009-0.134,0.017c0.231,10.033,0.457,20.065,0.687,30.095
				c-2.976,0.43-4.465,0.651-7.441,1.111c-0.363-16.061-0.729-32.12-1.102-48.179c3.059-0.468,4.584-0.695,7.639-1.14
				c3.563,8.726,7.115,17.448,10.664,26.174c0.056-0.008,0.08-0.014,0.138-0.017c-0.214-9.185-0.425-18.375-0.634-27.561
				C234.142,132.727,235.626,132.534,238.601,132.176z"/>
		</g>
		<g>
			<path fill="#E37F68" d="M259.069,129.438c6.756,0.016,11.262,5.585,11.346,12.335c0.035,1.416,0.049,2.123,0.084,3.535
				c-3.305,0.211-4.954,0.334-8.254,0.598c-0.034-1.494-0.053-2.244-0.083-3.738c-0.091-3.852-1.798-5.477-3.783-5.482
				c-0.112,0-0.229,0.006-0.343,0.016c-3.324,0.292-4.348,2.138-4.266,5.736c0.182,8.142,0.367,16.283,0.557,24.428
				c0.074,3.318,1.021,4.96,3.771,4.968c0.23,0,0.48-0.01,0.742-0.034c2.992-0.263,3.947-2.068,3.881-5.209
				c-0.058-2.318-0.082-3.48-0.136-5.803c3.299-0.266,4.948-0.385,8.251-0.594c0.053,2.212,0.074,3.32,0.128,5.535
				c0.216,7.238-4.907,12.623-11.962,13.276c-0.477,0.044-0.943,0.065-1.406,0.065c-6.4-0.016-11.451-4.301-11.511-11.159
				c-0.19-8.274-0.384-16.548-0.563-24.823c-0.22-7.431,5.115-12.935,12.348-13.596
				C258.276,129.454,258.677,129.438,259.069,129.438z"/>
		</g>
		<g>
			<path fill="#E37F68" d="M297.968,128.313c0.067,2.881,0.1,4.324,0.162,7.205c-4.619,0.002-9.238,0.084-13.854,0.234
				c0.092,4.139,0.188,8.273,0.283,12.413c3.549-0.118,7.102-0.192,10.654-0.222c0.068,2.885,0.102,4.324,0.166,7.205
				c-3.555,0.031-7.107,0.106-10.658,0.22c0.108,4.72,0.213,9.435,0.327,14.149c4.925-0.143,9.853-0.222,14.786-0.229
				c0.066,2.88,0.096,4.321,0.164,7.205c-7.695,0.022-15.366,0.223-23.047,0.584c-0.366-16.062-0.732-32.119-1.098-48.176
				C283.222,128.55,290.585,128.347,297.968,128.313z"/>
		</g>
		<g>
			<g>
				<g>
					<path id="SVGID_13_" fill="#9A5853" d="M60.36,209.869l-2.858,2.765c-2.872,0.331-4.306,0.489-7.177,0.789l2.854-2.762
						C56.051,210.361,57.486,210.202,60.36,209.869z"/>
				</g>
				<g>
					<defs>
						<path id="SVGID_22_" d="M60.36,209.869l-2.858,2.765c-2.872,0.331-4.306,0.489-7.177,0.789l2.854-2.762
							C56.051,210.361,57.486,210.202,60.36,209.869z"/>
					</defs>
					<clipPath id="SVGID_24_">
						<use xlink:href="#SVGID_22_"  overflow="visible"/>
					</clipPath>
					<g clip-path="url(#SVGID_24_)" enable-background="new    ">
						<path fill="#9A5853" d="M60.36,209.869l-2.858,2.765c-2.872,0.331-4.306,0.489-7.177,0.789l2.854-2.762
							C56.051,210.361,57.486,210.202,60.36,209.869"/>
					</g>
				</g>
			</g>
			<g>
				<g>
					<path id="SVGID_15_" fill="#9A5853" d="M42.539,211.666l-2.858,2.761c-2.977,0.253-4.466,0.368-7.451,0.579l2.854-2.762
						C38.07,212.034,39.563,211.917,42.539,211.666z"/>
				</g>
				<g>
					<defs>
						<path id="SVGID_26_" d="M42.539,211.666l-2.858,2.761c-2.977,0.253-4.466,0.368-7.451,0.579l2.854-2.762
							C38.07,212.034,39.563,211.917,42.539,211.666z"/>
					</defs>
					<clipPath id="SVGID_28_">
						<use xlink:href="#SVGID_26_"  overflow="visible"/>
					</clipPath>
					<g clip-path="url(#SVGID_28_)" enable-background="new    ">
						<path fill="#9A5853" d="M42.539,211.666l-2.858,2.761c-2.977,0.253-4.466,0.368-7.451,0.579l2.854-2.762
							C38.07,212.034,39.563,211.917,42.539,211.666"/>
					</g>
				</g>
			</g>
			<g>
				<g>
					<path id="SVGID_17_" fill="#9A5853" d="M89.721,164.748l-2.855,2.762c-3.186,0.499-4.783,0.741-7.971,1.206l2.857-2.761
						C84.942,165.489,86.533,165.246,89.721,164.748z"/>
				</g>
				<g>
					<defs>
						<path id="SVGID_30_" d="M89.721,164.748l-2.855,2.762c-3.186,0.499-4.783,0.741-7.971,1.206l2.857-2.761
							C84.942,165.489,86.533,165.246,89.721,164.748z"/>
					</defs>
					<clipPath id="SVGID_32_">
						<use xlink:href="#SVGID_30_"  overflow="visible"/>
					</clipPath>
					<g clip-path="url(#SVGID_32_)" enable-background="new    ">
						<path fill="#9A5853" d="M89.721,164.748l-2.855,2.762c-3.186,0.499-4.783,0.741-7.971,1.206l2.857-2.761
							C84.942,165.489,86.533,165.246,89.721,164.748"/>
					</g>
				</g>
			</g>
			<g>
				<g>
					<path id="SVGID_19_" fill="#9A5853" d="M73.512,167.12l-2.855,2.763c-3.191,0.436-4.787,0.645-7.974,1.045l2.854-2.764
						C68.731,167.766,70.321,167.559,73.512,167.12z"/>
				</g>
				<g>
					<defs>
						<path id="SVGID_34_" d="M73.512,167.12l-2.855,2.763c-3.191,0.436-4.787,0.645-7.974,1.045l2.854-2.764
							C68.731,167.766,70.321,167.559,73.512,167.12z"/>
					</defs>
					<clipPath id="SVGID_36_">
						<use xlink:href="#SVGID_34_"  overflow="visible"/>
					</clipPath>
					<g clip-path="url(#SVGID_36_)" enable-background="new    ">
						<path fill="#9A5853" d="M73.512,167.12l-2.855,2.763c-3.191,0.436-4.787,0.645-7.974,1.045l2.854-2.764
							C68.731,167.766,70.321,167.559,73.512,167.12"/>
					</g>
				</g>
			</g>
			<g>
				<g>
					<path id="SVGID_21_" fill="#9A5853" d="M82.683,206.927l-2.853,2.763c-3.296,0.482-4.944,0.715-8.237,1.164l2.854-2.762
						C77.743,207.639,79.391,207.41,82.683,206.927z"/>
				</g>
				<g>
					<defs>
						<path id="SVGID_38_" d="M82.683,206.927l-2.853,2.763c-3.296,0.482-4.944,0.715-8.237,1.164l2.854-2.762
							C77.743,207.639,79.391,207.41,82.683,206.927z"/>
					</defs>
					<clipPath id="SVGID_40_">
						<use xlink:href="#SVGID_38_"  overflow="visible"/>
					</clipPath>
					<g clip-path="url(#SVGID_40_)" enable-background="new    ">
						<path fill="#9A5853" d="M82.683,206.927l-2.853,2.763c-3.296,0.482-4.944,0.715-8.237,1.164l2.854-2.762
							C77.743,207.639,79.391,207.41,82.683,206.927"/>
					</g>
				</g>
			</g>
			<g>
				<g>
					<path id="SVGID_23_" fill="#9A5853" d="M113.337,180.514l-2.854,2.766c-3.505,0.611-5.255,0.916-8.764,1.507l2.858-2.763
						C108.086,181.434,109.833,181.128,113.337,180.514z"/>
				</g>
				<g>
					<defs>
						<path id="SVGID_42_" d="M113.337,180.514l-2.854,2.766c-3.505,0.611-5.255,0.916-8.764,1.507l2.858-2.763
							C108.086,181.434,109.833,181.128,113.337,180.514z"/>
					</defs>
					<clipPath id="SVGID_44_">
						<use xlink:href="#SVGID_42_"  overflow="visible"/>
					</clipPath>
					<g clip-path="url(#SVGID_44_)" enable-background="new    ">
						<path fill="#9A5853" d="M113.337,180.514l-2.854,2.766c-3.505,0.611-5.255,0.916-8.764,1.507l2.858-2.763
							C108.086,181.434,109.833,181.128,113.337,180.514"/>
					</g>
				</g>
			</g>
			<g>
				<g>
					<path id="SVGID_25_" fill="#9A5853" d="M122.061,200.4l-2.858,2.765c-3.292,0.591-4.937,0.885-8.229,1.465l2.853-2.762
						C117.119,201.288,118.766,200.996,122.061,200.4z"/>
				</g>
				<g>
					<defs>
						<path id="SVGID_46_" d="M122.061,200.4l-2.858,2.765c-3.292,0.591-4.937,0.885-8.229,1.465l2.853-2.762
							C117.119,201.288,118.766,200.996,122.061,200.4z"/>
					</defs>
					<clipPath id="SVGID_48_">
						<use xlink:href="#SVGID_46_"  overflow="visible"/>
					</clipPath>
					<g clip-path="url(#SVGID_48_)" enable-background="new    ">
						<path fill="#9A5853" d="M122.061,200.4l-2.858,2.765c-3.292,0.591-4.937,0.885-8.229,1.465l2.853-2.762
							C117.119,201.288,118.766,200.996,122.061,200.4"/>
					</g>
				</g>
			</g>
			<g>
				<g>
					<path id="SVGID_27_" fill="#9A5853" d="M105.068,203.376l-2.858,2.763c-3.291,0.557-4.937,0.832-8.233,1.362l2.855-2.762
						C100.131,204.209,101.773,203.936,105.068,203.376z"/>
				</g>
				<g>
					<defs>
						<path id="SVGID_50_" d="M105.068,203.376l-2.858,2.763c-3.291,0.557-4.937,0.832-8.233,1.362l2.855-2.762
							C100.131,204.209,101.773,203.936,105.068,203.376z"/>
					</defs>
					<clipPath id="SVGID_52_">
						<use xlink:href="#SVGID_50_"  overflow="visible"/>
					</clipPath>
					<g clip-path="url(#SVGID_52_)" enable-background="new    ">
						<path fill="#9A5853" d="M105.068,203.376l-2.858,2.763c-3.291,0.557-4.937,0.832-8.233,1.362l2.855-2.762
							C100.131,204.209,101.773,203.936,105.068,203.376"/>
					</g>
				</g>
			</g>
			<g>
				<g>
					<path id="SVGID_29_" fill="#9A5853" d="M149.799,154.119l-2.854,2.761c-4.604,0.865-9.205,1.729-13.809,2.583l2.859-2.76
						C140.599,155.848,145.196,154.982,149.799,154.119z"/>
				</g>
				<g>
					<defs>
						<path id="SVGID_54_" d="M149.799,154.119l-2.854,2.761c-4.604,0.865-9.205,1.729-13.809,2.583l2.859-2.76
							C140.599,155.848,145.196,154.982,149.799,154.119z"/>
					</defs>
					<clipPath id="SVGID_56_">
						<use xlink:href="#SVGID_54_"  overflow="visible"/>
					</clipPath>
					<g clip-path="url(#SVGID_56_)" enable-background="new    ">
						<path fill="#9A5853" d="M149.799,154.119l-2.854,2.761c-4.604,0.865-9.205,1.729-13.809,2.583l2.859-2.76
							C140.599,155.848,145.196,154.982,149.799,154.119"/>
					</g>
				</g>
			</g>
			<g>
				<g>
					<path id="SVGID_31_" fill="#9A5853" d="M147.058,174.335l-2.857,2.763c-3.536,0.663-7.072,1.324-10.612,1.985l2.856-2.765
						C139.983,175.659,143.519,174.996,147.058,174.335z"/>
				</g>
				<g>
					<defs>
						<path id="SVGID_58_" d="M147.058,174.335l-2.857,2.763c-3.536,0.663-7.072,1.324-10.612,1.985l2.856-2.765
							C139.983,175.659,143.519,174.996,147.058,174.335z"/>
					</defs>
					<clipPath id="SVGID_60_">
						<use xlink:href="#SVGID_58_"  overflow="visible"/>
					</clipPath>
					<g clip-path="url(#SVGID_60_)" enable-background="new    ">
						<path fill="#9A5853" d="M147.058,174.335l-2.857,2.763c-3.536,0.663-7.072,1.324-10.612,1.985l2.856-2.765
							C139.983,175.659,143.519,174.996,147.058,174.335"/>
					</g>
				</g>
			</g>
			<g>
				<g>
					<path id="SVGID_33_" fill="#9A5853" d="M151.661,194.916l-2.854,2.764c-7.654,1.435-15.308,2.867-22.964,4.275l2.858-2.764
						C136.358,197.784,144.008,196.352,151.661,194.916z"/>
				</g>
				<g>
					<defs>
						<path id="SVGID_62_" d="M151.661,194.916l-2.854,2.764c-7.654,1.435-15.308,2.867-22.964,4.275l2.858-2.764
							C136.358,197.784,144.008,196.352,151.661,194.916z"/>
					</defs>
					<clipPath id="SVGID_64_">
						<use xlink:href="#SVGID_62_"  overflow="visible"/>
					</clipPath>
					<g clip-path="url(#SVGID_64_)" enable-background="new    ">
						<path fill="#9A5853" d="M151.661,194.916l-2.854,2.764c-7.654,1.435-15.308,2.867-22.964,4.275l2.858-2.764
							C136.358,197.784,144.008,196.352,151.661,194.916"/>
					</g>
				</g>
			</g>
			<g>
				<g>
					<path id="SVGID_35_" fill="#9A5853" d="M180.194,148.479l-2.858,2.765c-4.909,0.889-9.819,1.792-14.737,2.702l2.861-2.76
						C170.372,150.271,175.278,149.371,180.194,148.479z"/>
				</g>
				<g>
					<defs>
						<path id="SVGID_66_" d="M180.194,148.479l-2.858,2.765c-4.909,0.889-9.819,1.792-14.737,2.702l2.861-2.76
							C170.372,150.271,175.278,149.371,180.194,148.479z"/>
					</defs>
					<clipPath id="SVGID_68_">
						<use xlink:href="#SVGID_66_"  overflow="visible"/>
					</clipPath>
					<g clip-path="url(#SVGID_68_)" enable-background="new    ">
						<path fill="#9A5853" d="M180.194,148.479l-2.858,2.765c-4.909,0.889-9.819,1.792-14.737,2.702l2.861-2.76
							C170.372,150.271,175.278,149.371,180.194,148.479"/>
					</g>
				</g>
			</g>
			<g>
				<g>
					<path id="SVGID_37_" fill="#9A5853" d="M176.926,168.771l-2.854,2.765c-3.674,0.672-7.346,1.346-11.02,2.028l2.854-2.76
						C169.578,170.12,173.253,169.443,176.926,168.771z"/>
				</g>
				<g>
					<defs>
						<path id="SVGID_70_" d="M176.926,168.771l-2.854,2.765c-3.674,0.672-7.346,1.346-11.02,2.028l2.854-2.76
							C169.578,170.12,173.253,169.443,176.926,168.771z"/>
					</defs>
					<clipPath id="SVGID_72_">
						<use xlink:href="#SVGID_70_"  overflow="visible"/>
					</clipPath>
					<g clip-path="url(#SVGID_72_)" enable-background="new    ">
						<path fill="#9A5853" d="M176.926,168.771l-2.854,2.765c-3.674,0.672-7.346,1.346-11.02,2.028l2.854-2.76
							C169.578,170.12,173.253,169.443,176.926,168.771"/>
					</g>
				</g>
			</g>
			<g>
				<g>
					<path id="SVGID_39_" fill="#9A5853" d="M166.396,192.156l-2.854,2.766c-3.291,0.608-4.945,0.914-8.231,1.532l2.853-2.763
						C161.454,193.076,163.104,192.77,166.396,192.156z"/>
				</g>
				<g>
					<defs>
						<path id="SVGID_74_" d="M166.396,192.156l-2.854,2.766c-3.291,0.608-4.945,0.914-8.231,1.532l2.853-2.763
							C161.454,193.076,163.104,192.77,166.396,192.156z"/>
					</defs>
					<clipPath id="SVGID_76_">
						<use xlink:href="#SVGID_74_"  overflow="visible"/>
					</clipPath>
					<g clip-path="url(#SVGID_76_)" enable-background="new    ">
						<path fill="#9A5853" d="M166.396,192.156l-2.854,2.766c-3.291,0.608-4.945,0.914-8.231,1.532l2.853-2.763
							C161.454,193.076,163.104,192.77,166.396,192.156"/>
					</g>
				</g>
			</g>
			<g>
				<g>
					<path id="SVGID_41_" fill="#9A5853" d="M207.411,143.826l-2.854,2.762c-4.609,0.732-9.214,1.5-13.811,2.293l2.854-2.762
						C198.2,145.326,202.802,144.559,207.411,143.826z"/>
				</g>
				<g>
					<defs>
						<path id="SVGID_78_" d="M207.411,143.826l-2.854,2.762c-4.609,0.732-9.214,1.5-13.811,2.293l2.854-2.762
							C198.2,145.326,202.802,144.559,207.411,143.826z"/>
					</defs>
					<clipPath id="SVGID_80_">
						<use xlink:href="#SVGID_78_"  overflow="visible"/>
					</clipPath>
					<g clip-path="url(#SVGID_80_)" enable-background="new    ">
						<path fill="#9A5853" d="M207.411,143.826l-2.854,2.762c-4.609,0.732-9.214,1.5-13.811,2.293l2.854-2.762
							C198.2,145.326,202.802,144.559,207.411,143.826"/>
					</g>
				</g>
			</g>
			<g>
				<g>
					<path id="SVGID_43_" fill="#9A5853" d="M204.674,163.958l-2.854,2.762c-3.547,0.574-7.088,1.169-10.629,1.777l2.861-2.763
						C197.589,165.13,201.127,164.532,204.674,163.958z"/>
				</g>
				<g>
					<defs>
						<path id="SVGID_82_" d="M204.674,163.958l-2.854,2.762c-3.547,0.574-7.088,1.169-10.629,1.777l2.861-2.763
							C197.589,165.13,201.127,164.532,204.674,163.958z"/>
					</defs>
					<clipPath id="SVGID_84_">
						<use xlink:href="#SVGID_82_"  overflow="visible"/>
					</clipPath>
					<g clip-path="url(#SVGID_84_)" enable-background="new    ">
						<path fill="#9A5853" d="M204.674,163.958l-2.854,2.762c-3.547,0.574-7.088,1.169-10.629,1.777l2.861-2.763
							C197.589,165.13,201.127,164.532,204.674,163.958"/>
					</g>
				</g>
			</g>
			<g>
				<g>
					<path id="SVGID_45_" fill="#9A5853" d="M209.274,184.646l-2.854,2.763c-7.669,1.235-15.326,2.534-22.971,3.881l2.854-2.763
						C193.954,187.18,201.608,185.883,209.274,184.646z"/>
				</g>
				<g>
					<defs>
						<path id="SVGID_86_" d="M209.274,184.646l-2.854,2.763c-7.669,1.235-15.326,2.534-22.971,3.881l2.854-2.763
							C193.954,187.18,201.608,185.883,209.274,184.646z"/>
					</defs>
					<clipPath id="SVGID_88_">
						<use xlink:href="#SVGID_86_"  overflow="visible"/>
					</clipPath>
					<g clip-path="url(#SVGID_88_)" enable-background="new    ">
						<path fill="#9A5853" d="M209.274,184.646l-2.854,2.763c-7.669,1.235-15.326,2.534-22.971,3.881l2.854-2.763
							C193.954,187.18,201.608,185.883,209.274,184.646"/>
					</g>
				</g>
			</g>
			<g>
				<g>
					<path id="SVGID_47_" fill="#9A5853" d="M239.7,180.354l-2.854,2.765c-2.873,0.343-4.306,0.528-7.178,0.899l2.854-2.761
						C235.396,180.884,236.833,180.699,239.7,180.354z"/>
				</g>
				<g>
					<defs>
						<path id="SVGID_90_" d="M239.7,180.354l-2.854,2.765c-2.873,0.343-4.306,0.528-7.178,0.899l2.854-2.761
							C235.396,180.884,236.833,180.699,239.7,180.354z"/>
					</defs>
					<clipPath id="SVGID_92_">
						<use xlink:href="#SVGID_90_"  overflow="visible"/>
					</clipPath>
					<g clip-path="url(#SVGID_92_)" enable-background="new    ">
						<path fill="#9A5853" d="M239.7,180.354l-2.854,2.765c-2.873,0.343-4.306,0.528-7.178,0.899l2.854-2.761
							C235.396,180.884,236.833,180.699,239.7,180.354"/>
					</g>
				</g>
			</g>
			<g>
				<g>
					<path id="SVGID_49_" fill="#9A5853" d="M221.897,182.727l-2.855,2.763c-2.973,0.431-4.467,0.653-7.438,1.11l2.853-2.763
						C217.433,183.377,218.922,183.154,221.897,182.727z"/>
				</g>
				<g>
					<defs>
						<path id="SVGID_93_" d="M221.897,182.727l-2.855,2.763c-2.973,0.431-4.467,0.653-7.438,1.11l2.853-2.763
							C217.433,183.377,218.922,183.154,221.897,182.727z"/>
					</defs>
					<clipPath id="SVGID_94_">
						<use xlink:href="#SVGID_93_"  overflow="visible"/>
					</clipPath>
					<g clip-path="url(#SVGID_94_)" enable-background="new    ">
						<path fill="#9A5853" d="M221.897,182.727l-2.855,2.763c-2.973,0.431-4.467,0.653-7.438,1.11l2.853-2.763
							C217.433,183.377,218.922,183.154,221.897,182.727"/>
					</g>
				</g>
			</g>
			<g>
				<g>
					<path id="SVGID_51_" fill="#9A5853" d="M270.499,145.309l-2.855,2.766c-3.304,0.209-4.957,0.33-8.252,0.594l2.854-2.762
						C265.545,145.643,267.194,145.52,270.499,145.309z"/>
				</g>
				<g>
					<defs>
						<path id="SVGID_95_" d="M270.499,145.309l-2.855,2.766c-3.304,0.209-4.957,0.33-8.252,0.594l2.854-2.762
							C265.545,145.643,267.194,145.52,270.499,145.309z"/>
					</defs>
					<clipPath id="SVGID_96_">
						<use xlink:href="#SVGID_95_"  overflow="visible"/>
					</clipPath>
					<g clip-path="url(#SVGID_96_)" enable-background="new    ">
						<path fill="#9A5853" d="M270.499,145.309l-2.855,2.766c-3.304,0.209-4.957,0.33-8.252,0.594l2.854-2.762
							C265.545,145.643,267.194,145.52,270.499,145.309"/>
					</g>
				</g>
			</g>
			<g>
				<g>
					<path id="SVGID_53_" fill="#9A5853" d="M298.13,135.518l-2.854,2.762c-4.625,0-9.238,0.084-13.86,0.236l2.862-2.764
						C288.892,135.6,293.511,135.52,298.13,135.518z"/>
				</g>
				<g>
					<defs>
						<path id="SVGID_97_" d="M298.13,135.518l-2.854,2.762c-4.625,0-9.238,0.084-13.86,0.236l2.862-2.764
							C288.892,135.6,293.511,135.52,298.13,135.518z"/>
					</defs>
					<clipPath id="SVGID_98_">
						<use xlink:href="#SVGID_97_"  overflow="visible"/>
					</clipPath>
					<g clip-path="url(#SVGID_98_)" enable-background="new    ">
						<path fill="#9A5853" d="M298.13,135.518l-2.854,2.762c-4.625,0-9.238,0.084-13.86,0.236l2.862-2.764
							C288.892,135.6,293.511,135.52,298.13,135.518"/>
					</g>
				</g>
			</g>
			<g>
				<g>
					<path id="SVGID_55_" fill="#9A5853" d="M295.381,155.148l-2.856,2.762c-3.553,0.029-7.108,0.104-10.653,0.221l2.853-2.764
						C288.272,155.255,291.826,155.178,295.381,155.148z"/>
				</g>
				<g>
					<defs>
						<path id="SVGID_99_" d="M295.381,155.148l-2.856,2.762c-3.553,0.029-7.108,0.104-10.653,0.221l2.853-2.764
							C288.272,155.255,291.826,155.178,295.381,155.148z"/>
					</defs>
					<clipPath id="SVGID_100_">
						<use xlink:href="#SVGID_99_"  overflow="visible"/>
					</clipPath>
					<g clip-path="url(#SVGID_100_)" enable-background="new    ">
						<path fill="#9A5853" d="M295.381,155.148l-2.856,2.762c-3.553,0.029-7.108,0.104-10.653,0.221l2.853-2.764
							C288.272,155.255,291.826,155.178,295.381,155.148"/>
					</g>
				</g>
			</g>
			<g>
				<g>
					<path id="SVGID_57_" fill="#9A5853" d="M300,176.492l-2.854,2.763c-7.695,0.022-15.367,0.224-23.045,0.585l2.853-2.764
						C284.634,176.715,292.305,176.516,300,176.492z"/>
				</g>
				<g>
					<defs>
						<path id="SVGID_101_" d="M300,176.492l-2.854,2.763c-7.695,0.022-15.367,0.224-23.045,0.585l2.853-2.764
							C284.634,176.715,292.305,176.516,300,176.492z"/>
					</defs>
					<clipPath id="SVGID_102_">
						<use xlink:href="#SVGID_101_"  overflow="visible"/>
					</clipPath>
					<g clip-path="url(#SVGID_102_)" enable-background="new    ">
						<path fill="#9A5853" d="M300,176.492l-2.854,2.763c-7.695,0.022-15.367,0.224-23.045,0.585l2.853-2.764
							C284.634,176.715,292.305,176.516,300,176.492"/>
					</g>
				</g>
			</g>
		</g>
		<g>
			<g enable-background="new    ">
				<g>
					<path id="SVGID_59_" fill="#C05D52" d="M8.885,175.365c0.949-0.922,1.905-1.84,2.854-2.764
						c0.673-0.652,1.671-0.992,3.089-1.029c0.098-0.006,0.196-0.006,0.289-0.006c3.104,0.01,4.148,1.695,4.229,5.195
						c0.188,8.141,0.372,16.278,0.557,24.42l-2.853,2.764c-0.186-8.141-0.375-16.278-0.558-24.422
						c-0.081-3.5-1.126-5.187-4.231-5.192c-0.091-0.004-0.188,0-0.287,0.004C10.557,174.375,9.557,174.711,8.885,175.365z"/>
				</g>
				<g>
					<defs>
						<path id="SVGID_103_" d="M8.885,175.365c0.949-0.922,1.905-1.84,2.854-2.764c0.673-0.652,1.671-0.992,3.089-1.029
							c0.098-0.006,0.196-0.006,0.289-0.006c3.104,0.01,4.148,1.695,4.229,5.195c0.188,8.141,0.372,16.278,0.557,24.42l-2.853,2.764
							c-0.186-8.141-0.375-16.278-0.558-24.422c-0.081-3.5-1.126-5.187-4.231-5.192c-0.091-0.004-0.188,0-0.287,0.004
							C10.557,174.375,9.557,174.711,8.885,175.365z"/>
					</defs>
					<clipPath id="SVGID_104_">
						<use xlink:href="#SVGID_103_"  overflow="visible"/>
					</clipPath>
					<g clip-path="url(#SVGID_104_)" enable-background="new    ">
						<path fill="#C05D52" d="M19.903,201.184l-2.853,2.762c-0.186-8.141-0.375-16.277-0.558-24.42
							c-0.081-3.5-1.126-5.188-4.231-5.193c-0.091-0.004-0.188,0-0.287,0.004c-1.418,0.04-2.418,0.376-3.09,1.03l2.854-2.763
							c0.673-0.653,1.671-0.994,3.089-1.03c0.098-0.005,0.196-0.007,0.289-0.007c3.104,0.011,4.148,1.697,4.229,5.197
							C19.534,184.902,19.717,193.041,19.903,201.184"/>
					</g>
				</g>
			</g>
			<g>
				<g>
					<path id="SVGID_61_" fill="#9A5853" d="M24.536,210.357c-0.951,0.92-1.901,1.841-2.854,2.763
						c-2.201,2.13-5.254,3.413-8.742,3.517c-0.159,0.004-0.317,0.008-0.473,0.008C5.484,216.625,0.086,211.626,0,204.458
						c-0.191-8.272-0.382-16.549-0.569-24.822c-0.123-3.716,1.2-6.804,3.449-8.981l0,0c0.953-0.92,1.905-1.84,2.857-2.764
						c-2.252,2.182-3.572,5.269-3.451,8.983c0.186,8.274,0.382,16.549,0.567,24.826c0.091,7.165,5.483,12.161,12.467,12.18
						c0.155,0.001,0.315-0.002,0.476-0.005C19.283,213.77,22.335,212.486,24.536,210.357z"/>
				</g>
				<g>
					<defs>
						<path id="SVGID_105_" d="M24.536,210.357c-0.951,0.92-1.901,1.841-2.854,2.763c-2.201,2.13-5.254,3.413-8.742,3.517
							c-0.159,0.004-0.317,0.008-0.473,0.008C5.484,216.625,0.086,211.626,0,204.458c-0.191-8.272-0.382-16.549-0.569-24.822
							c-0.123-3.716,1.2-6.804,3.449-8.981l0,0c0.953-0.92,1.905-1.84,2.857-2.764c-2.252,2.182-3.572,5.269-3.451,8.983
							c0.186,8.274,0.382,16.549,0.567,24.826c0.091,7.165,5.483,12.161,12.467,12.18c0.155,0.001,0.315-0.002,0.476-0.005
							C19.283,213.77,22.335,212.486,24.536,210.357z"/>
					</defs>
					<clipPath id="SVGID_106_">
						<use xlink:href="#SVGID_105_"  overflow="visible"/>
					</clipPath>
					<g clip-path="url(#SVGID_106_)" enable-background="new    ">
						<path fill="#9A5853" d="M24.536,210.357l-2.854,2.763c-2.201,2.13-5.254,3.413-8.742,3.517
							c-0.159,0.004-0.317,0.008-0.473,0.008C5.484,216.625,0.086,211.626,0,204.458c-0.191-8.272-0.382-16.549-0.569-24.822
							c-0.123-3.716,1.2-6.804,3.449-8.981l2.857-2.764c-2.252,2.182-3.572,5.269-3.451,8.983
							c0.186,8.274,0.382,16.549,0.567,24.826c0.091,7.165,5.483,12.161,12.467,12.18c0.155,0.001,0.315-0.002,0.476-0.005
							C19.283,213.77,22.335,212.486,24.536,210.357"/>
					</g>
				</g>
			</g>
			<g enable-background="new    ">
				<g>
					<path id="SVGID_63_" fill="#C05D52" d="M52.441,190.068l-2.854,2.76c-0.216-9.184-0.42-18.368-0.633-27.557l2.858-2.76
						C52.021,171.695,52.233,180.882,52.441,190.068z"/>
				</g>
				<g>
					<defs>
						<path id="SVGID_107_" d="M52.441,190.068l-2.854,2.76c-0.216-9.184-0.42-18.368-0.633-27.557l2.858-2.76
							C52.021,171.695,52.233,180.882,52.441,190.068z"/>
					</defs>
					<clipPath id="SVGID_108_">
						<use xlink:href="#SVGID_107_"  overflow="visible"/>
					</clipPath>
					<g clip-path="url(#SVGID_108_)" enable-background="new    ">
						<path fill="#C05D52" d="M52.441,190.068l-2.854,2.76c-0.216-9.184-0.42-18.368-0.633-27.557l2.858-2.76
							C52.021,171.695,52.233,180.882,52.441,190.068"/>
					</g>
				</g>
			</g>
			<g enable-background="new    ">
				<g>
					<path id="SVGID_65_" fill="#C05D52" d="M53.178,210.661l-2.854,2.762c-3.741-9.696-7.475-19.397-11.194-29.1l2.857-2.763
						C45.708,191.264,49.44,200.96,53.178,210.661z"/>
				</g>
				<g>
					<defs>
						<path id="SVGID_109_" d="M53.178,210.661l-2.854,2.762c-3.741-9.696-7.475-19.397-11.194-29.1l2.857-2.763
							C45.708,191.264,49.44,200.96,53.178,210.661z"/>
					</defs>
					<clipPath id="SVGID_110_">
						<use xlink:href="#SVGID_109_"  overflow="visible"/>
					</clipPath>
					<g clip-path="url(#SVGID_110_)" enable-background="new    ">
						<path fill="#C05D52" d="M53.178,210.661l-2.854,2.762c-3.741-9.696-7.475-19.397-11.194-29.1l2.857-2.763
							C45.708,191.264,49.44,200.96,53.178,210.661"/>
					</g>
				</g>
			</g>
			<g enable-background="new    ">
				<g>
					<path id="SVGID_67_" fill="#C05D52" d="M35.084,212.244l-2.854,2.762c-0.367-16.059-0.738-32.117-1.1-48.178l2.857-2.762
						C34.356,180.125,34.717,196.186,35.084,212.244z"/>
				</g>
				<g>
					<defs>
						<path id="SVGID_111_" d="M35.084,212.244l-2.854,2.762c-0.367-16.059-0.738-32.117-1.1-48.178l2.857-2.762
							C34.356,180.125,34.717,196.186,35.084,212.244z"/>
					</defs>
					<clipPath id="SVGID_112_">
						<use xlink:href="#SVGID_111_"  overflow="visible"/>
					</clipPath>
					<g clip-path="url(#SVGID_112_)" enable-background="new    ">
						<path fill="#C05D52" d="M35.084,212.244l-2.854,2.762c-0.367-16.059-0.738-32.117-1.1-48.178l2.857-2.762
							C34.356,180.125,34.717,196.186,35.084,212.244"/>
					</g>
				</g>
			</g>
			<g enable-background="new    ">
				<g>
					<path id="SVGID_69_" fill="#C05D52" d="M65.537,168.164l-2.854,2.764c-0.068-2.884-0.102-4.326-0.166-7.209l2.855-2.761
						C65.44,163.84,65.472,165.281,65.537,168.164z"/>
				</g>
				<g>
					<defs>
						<path id="SVGID_113_" d="M65.537,168.164l-2.854,2.764c-0.068-2.884-0.102-4.326-0.166-7.209l2.855-2.761
							C65.44,163.84,65.472,165.281,65.537,168.164z"/>
					</defs>
					<clipPath id="SVGID_114_">
						<use xlink:href="#SVGID_113_"  overflow="visible"/>
					</clipPath>
					<g clip-path="url(#SVGID_114_)" enable-background="new    ">
						<path fill="#C05D52" d="M65.537,168.164l-2.854,2.764c-0.068-2.884-0.102-4.326-0.166-7.209l2.855-2.761
							C65.44,163.84,65.472,165.281,65.537,168.164"/>
					</g>
				</g>
			</g>
			<g enable-background="new    ">
				<g>
					<path id="SVGID_71_" fill="#C05D52" d="M113.177,173.309l-2.859,2.762c-0.145-6.539-0.295-13.079-0.445-19.62l2.852-2.763
						C112.879,160.227,113.026,166.768,113.177,173.309z"/>
				</g>
				<g>
					<defs>
						<path id="SVGID_115_" d="M113.177,173.309l-2.859,2.762c-0.145-6.539-0.295-13.079-0.445-19.62l2.852-2.763
							C112.879,160.227,113.026,166.768,113.177,173.309z"/>
					</defs>
					<clipPath id="SVGID_116_">
						<use xlink:href="#SVGID_115_"  overflow="visible"/>
					</clipPath>
					<g clip-path="url(#SVGID_116_)" enable-background="new    ">
						<path fill="#C05D52" d="M113.177,173.309l-2.859,2.762c-0.145-6.539-0.295-13.079-0.445-19.62l2.852-2.763
							C112.879,160.227,113.026,166.768,113.177,173.309"/>
					</g>
				</g>
			</g>
			<g enable-background="new    ">
				<g>
					<path id="SVGID_73_" fill="#C05D52" d="M96.832,204.739l-2.855,2.762c-0.366-16.062-0.734-32.117-1.099-48.176l2.854-2.763
						C96.097,172.623,96.467,188.682,96.832,204.739z"/>
				</g>
				<g>
					<defs>
						<path id="SVGID_117_" d="M96.832,204.739l-2.855,2.762c-0.366-16.062-0.734-32.117-1.099-48.176l2.854-2.763
							C96.097,172.623,96.467,188.682,96.832,204.739z"/>
					</defs>
					<clipPath id="SVGID_118_">
						<use xlink:href="#SVGID_117_"  overflow="visible"/>
					</clipPath>
					<g clip-path="url(#SVGID_118_)" enable-background="new    ">
						<path fill="#C05D52" d="M96.832,204.739l-2.855,2.762c-0.366-16.062-0.734-32.117-1.099-48.176l2.854-2.763
							C96.097,172.623,96.467,188.682,96.832,204.739"/>
					</g>
				</g>
			</g>
			<g enable-background="new    ">
				<g>
					<path id="SVGID_75_" fill="#C05D52" d="M128.702,199.191l-2.858,2.764c-0.366-16.063-0.733-32.117-1.1-48.176l2.857-2.764
						C127.964,167.078,128.334,183.131,128.702,199.191z"/>
				</g>
				<g>
					<defs>
						<path id="SVGID_119_" d="M128.702,199.191l-2.858,2.764c-0.366-16.063-0.733-32.117-1.1-48.176l2.857-2.764
							C127.964,167.078,128.334,183.131,128.702,199.191z"/>
					</defs>
					<clipPath id="SVGID_120_">
						<use xlink:href="#SVGID_119_"  overflow="visible"/>
					</clipPath>
					<g clip-path="url(#SVGID_120_)" enable-background="new    ">
						<path fill="#C05D52" d="M128.702,199.191l-2.858,2.764c-0.366-16.063-0.733-32.117-1.1-48.176l2.857-2.764
							C127.964,167.078,128.334,183.131,128.702,199.191"/>
					</g>
				</g>
			</g>
			<g enable-background="new    ">
				<g>
					<path id="SVGID_77_" fill="#C05D52" d="M158.161,193.691l-2.854,2.763c-0.361-16.058-0.73-32.118-1.1-48.179l2.854-2.762
						C157.435,161.574,157.799,177.635,158.161,193.691z"/>
				</g>
				<g>
					<defs>
						<path id="SVGID_121_" d="M158.161,193.691l-2.854,2.763c-0.361-16.058-0.73-32.118-1.1-48.179l2.854-2.762
							C157.435,161.574,157.799,177.635,158.161,193.691z"/>
					</defs>
					<clipPath id="SVGID_122_">
						<use xlink:href="#SVGID_121_"  overflow="visible"/>
					</clipPath>
					<g clip-path="url(#SVGID_122_)" enable-background="new    ">
						<path fill="#C05D52" d="M158.161,193.691l-2.854,2.763c-0.361-16.058-0.73-32.118-1.1-48.179l2.854-2.762
							C157.435,161.574,157.799,177.635,158.161,193.691"/>
					</g>
				</g>
			</g>
			<g enable-background="new    ">
				<g>
					<path id="SVGID_79_" fill="#C05D52" d="M186.304,188.527l-2.854,2.763c-0.359-16.062-0.729-32.12-1.1-48.177l2.853-2.764
						C185.578,156.408,185.942,172.469,186.304,188.527z"/>
				</g>
				<g>
					<defs>
						<path id="SVGID_123_" d="M186.304,188.527l-2.854,2.763c-0.359-16.062-0.729-32.12-1.1-48.177l2.853-2.764
							C185.578,156.408,185.942,172.469,186.304,188.527z"/>
					</defs>
					<clipPath id="SVGID_124_">
						<use xlink:href="#SVGID_123_"  overflow="visible"/>
					</clipPath>
					<g clip-path="url(#SVGID_124_)" enable-background="new    ">
						<path fill="#C05D52" d="M186.304,188.527l-2.854,2.763c-0.359-16.062-0.729-32.12-1.1-48.177l2.853-2.764
							C185.578,156.408,185.942,172.469,186.304,188.527"/>
					</g>
				</g>
			</g>
			<g enable-background="new    ">
				<g>
					<path id="SVGID_81_" fill="#C05D52" d="M231.794,160.676l-2.859,2.762c-0.209-9.186-0.418-18.375-0.627-27.562l2.854-2.761
						C231.369,142.301,231.58,151.491,231.794,160.676z"/>
				</g>
				<g>
					<defs>
						<path id="SVGID_125_" d="M231.794,160.676l-2.859,2.762c-0.209-9.186-0.418-18.375-0.627-27.562l2.854-2.761
							C231.369,142.301,231.58,151.491,231.794,160.676z"/>
					</defs>
					<clipPath id="SVGID_126_">
						<use xlink:href="#SVGID_125_"  overflow="visible"/>
					</clipPath>
					<g clip-path="url(#SVGID_126_)" enable-background="new    ">
						<path fill="#C05D52" d="M231.794,160.676l-2.859,2.762c-0.209-9.186-0.418-18.375-0.627-27.562l2.854-2.761
							C231.369,142.301,231.58,151.491,231.794,160.676"/>
					</g>
				</g>
			</g>
			<g enable-background="new    ">
				<g>
					<path id="SVGID_83_" fill="#C05D52" d="M214.455,183.837l-2.853,2.763c-0.369-16.061-0.736-32.119-1.105-48.18l2.857-2.762
						C213.726,151.717,214.092,167.777,214.455,183.837z"/>
				</g>
				<g>
					<defs>
						<path id="SVGID_127_" d="M214.455,183.837l-2.853,2.763c-0.369-16.061-0.736-32.119-1.105-48.18l2.857-2.762
							C213.726,151.717,214.092,167.777,214.455,183.837z"/>
					</defs>
					<clipPath id="SVGID_128_">
						<use xlink:href="#SVGID_127_"  overflow="visible"/>
					</clipPath>
					<g clip-path="url(#SVGID_128_)" enable-background="new    ">
						<path fill="#C05D52" d="M214.455,183.837l-2.853,2.763c-0.369-16.061-0.736-32.119-1.105-48.18l2.857-2.762
							C213.726,151.717,214.092,167.777,214.455,183.837"/>
					</g>
				</g>
			</g>
			<g enable-background="new    ">
				<g>
					<path id="SVGID_85_" fill="#C05D52" d="M252.179,140.609c0.95-0.92,1.904-1.842,2.856-2.76
						c0.672-0.651,1.645-1.031,3.001-1.148c0.113-0.01,0.229-0.016,0.343-0.016c1.985,0.006,3.692,1.631,3.783,5.482
						c0.03,1.494,0.049,2.244,0.083,3.738l-2.854,2.762c-0.033-1.493-0.053-2.242-0.087-3.738c-0.089-3.85-1.795-5.476-3.78-5.479
						c-0.115-0.005-0.228,0.003-0.346,0.012C253.823,139.583,252.851,139.959,252.179,140.609z"/>
				</g>
				<g>
					<defs>
						<path id="SVGID_129_" d="M252.179,140.609c0.95-0.92,1.904-1.842,2.856-2.76c0.672-0.651,1.645-1.031,3.001-1.148
							c0.113-0.01,0.229-0.016,0.343-0.016c1.985,0.006,3.692,1.631,3.783,5.482c0.03,1.494,0.049,2.244,0.083,3.738l-2.854,2.762
							c-0.033-1.493-0.053-2.242-0.087-3.738c-0.089-3.85-1.795-5.476-3.78-5.479c-0.115-0.005-0.228,0.003-0.346,0.012
							C253.823,139.583,252.851,139.959,252.179,140.609z"/>
					</defs>
					<clipPath id="SVGID_130_">
						<use xlink:href="#SVGID_129_"  overflow="visible"/>
					</clipPath>
					<g clip-path="url(#SVGID_130_)" enable-background="new    ">
						<path fill="#C05D52" d="M262.245,145.906l-2.854,2.762c-0.033-1.493-0.053-2.242-0.087-3.738
							c-0.089-3.85-1.795-5.476-3.78-5.479c-0.115-0.005-0.228,0.003-0.346,0.012c-1.354,0.122-2.328,0.498-3,1.147l2.855-2.76
							c0.673-0.651,1.646-1.031,3.002-1.148c0.113-0.01,0.229-0.016,0.343-0.016c1.985,0.006,3.692,1.631,3.783,5.482
							C262.192,143.662,262.211,144.412,262.245,145.906"/>
					</g>
				</g>
			</g>
			<g enable-background="new    ">
				<g>
					<path id="SVGID_87_" fill="#C05D52" d="M261.526,170.748c-0.947,0.919-1.901,1.84-2.855,2.761
						c0.907-0.88,1.236-2.278,1.191-4.155c-0.051-2.319-0.078-3.483-0.137-5.803l2.86-2.764c0.054,2.322,0.078,3.484,0.136,5.803
						C262.763,168.465,262.437,169.867,261.526,170.748z"/>
				</g>
				<g>
					<defs>
						<path id="SVGID_131_" d="M261.526,170.748c-0.947,0.919-1.901,1.84-2.855,2.761c0.907-0.88,1.236-2.278,1.191-4.155
							c-0.051-2.319-0.078-3.483-0.137-5.803l2.86-2.764c0.054,2.322,0.078,3.484,0.136,5.803
							C262.763,168.465,262.437,169.867,261.526,170.748z"/>
					</defs>
					<clipPath id="SVGID_132_">
						<use xlink:href="#SVGID_131_"  overflow="visible"/>
					</clipPath>
					<g clip-path="url(#SVGID_132_)" enable-background="new    ">
						<path fill="#C05D52" d="M261.526,170.748l-2.855,2.761c0.907-0.88,1.236-2.278,1.191-4.155
							c-0.051-2.319-0.078-3.483-0.137-5.803l2.86-2.764c0.054,2.322,0.078,3.484,0.136,5.803
							C262.763,168.465,262.437,169.867,261.526,170.748"/>
					</g>
				</g>
			</g>
			<g>
				<g>
					<path id="SVGID_89_" fill="#9A5853" d="M267.19,175.37l-2.854,2.763c-2.098,2.027-4.938,3.334-8.189,3.635
						c-0.474,0.045-0.939,0.066-1.406,0.063c-6.4-0.015-11.448-4.299-11.508-11.156c-0.191-8.276-0.379-16.55-0.569-24.823
						c-0.112-3.98,1.362-7.408,3.868-9.836c0.953-0.918,1.906-1.84,2.856-2.762c-2.506,2.428-3.987,5.855-3.864,9.835
						c0.18,8.274,0.371,16.548,0.563,24.823c0.06,6.859,5.108,11.145,11.51,11.158c0.464,0,0.931-0.021,1.407-0.064
						C262.257,178.703,265.093,177.396,267.19,175.37z"/>
				</g>
				<g>
					<defs>
						<path id="SVGID_133_" d="M267.19,175.37l-2.854,2.763c-2.098,2.027-4.938,3.334-8.189,3.635
							c-0.474,0.045-0.939,0.066-1.406,0.063c-6.4-0.015-11.448-4.299-11.508-11.156c-0.191-8.276-0.379-16.55-0.569-24.823
							c-0.112-3.98,1.362-7.408,3.868-9.836c0.953-0.918,1.906-1.84,2.856-2.762c-2.506,2.428-3.987,5.855-3.864,9.835
							c0.18,8.274,0.371,16.548,0.563,24.823c0.06,6.859,5.108,11.145,11.51,11.158c0.464,0,0.931-0.021,1.407-0.064
							C262.257,178.703,265.093,177.396,267.19,175.37z"/>
					</defs>
					<clipPath id="SVGID_134_">
						<use xlink:href="#SVGID_133_"  overflow="visible"/>
					</clipPath>
					<g clip-path="url(#SVGID_134_)" enable-background="new    ">
						<path fill="#9A5853" d="M267.19,175.37l-2.854,2.763c-2.098,2.027-4.938,3.334-8.189,3.635
							c-0.474,0.045-0.939,0.066-1.406,0.063c-6.4-0.015-11.448-4.299-11.508-11.156c-0.191-8.276-0.379-16.55-0.569-24.823
							c-0.112-3.98,1.362-7.408,3.868-9.836l2.856-2.762c-2.506,2.428-3.987,5.855-3.864,9.835
							c0.18,8.274,0.371,16.548,0.563,24.823c0.06,6.859,5.108,11.145,11.51,11.158c0.464,0,0.931-0.021,1.407-0.064
							C262.257,178.703,265.093,177.396,267.19,175.37"/>
					</g>
				</g>
			</g>
			<g enable-background="new    ">
				<g>
					<path id="SVGID_91_" fill="#C05D52" d="M276.953,177.076l-2.853,2.764c-0.367-16.061-0.736-32.121-1.102-48.178l2.855-2.761
						C276.221,144.957,276.587,161.016,276.953,177.076z"/>
				</g>
				<g>
					<defs>
						<path id="SVGID_135_" d="M276.953,177.076l-2.853,2.764c-0.367-16.061-0.736-32.121-1.102-48.178l2.855-2.761
							C276.221,144.957,276.587,161.016,276.953,177.076z"/>
					</defs>
					<clipPath id="SVGID_136_">
						<use xlink:href="#SVGID_135_"  overflow="visible"/>
					</clipPath>
					<g clip-path="url(#SVGID_136_)" enable-background="new    ">
						<path fill="#C05D52" d="M276.953,177.076l-2.853,2.764c-0.367-16.061-0.736-32.121-1.102-48.178l2.855-2.761
							C276.221,144.957,276.587,161.016,276.953,177.076"/>
					</g>
				</g>
			</g>
		</g>
		<path opacity="0.77" fill="#E95C35" enable-background="new    " d="M27.082,172.516l-3.844,3.514c0,0-0.15,19.672-0.15,26.789
			c0,4.268-1.158,5.199-1.158,5.199l3.007,2.104c0,0,3.413-3.712,3.096-8.411c-0.444-6.664-0.18-18.123-0.204-23.918
			C27.809,173.564,27.082,172.516,27.082,172.516z"/>
		<path opacity="0.77" fill="#E96449" enable-background="new    " d="M8.203,170.977l2.951,2.434c0,0-0.574,0.938-0.567,2.502
			c0.004,2.388,0.247,20.734,0.598,26.559c0.159,2.685,1.429,3.43,1.429,3.43l-2.958,2.529c0,0-2.201-1.814-2.164-6.863
			c0.041-5.402-0.344-21.439-0.344-26.021C7.146,172.871,8.203,170.977,8.203,170.977z"/>
		<path opacity="0.77" fill="#E95A3D" enable-background="new    " d="M19.289,175.881l3.278-2.627c0,0-1.283-4.622-4.598-5.148
			c-2.431-0.388-3.979-0.76-6.16,0c-3.254,1.142-3.703,2.903-3.703,2.903l3.022,2.455c0,0,0.583-1.016,1.295-1.323
			c1.658-0.723,3.657-0.779,5.102-0.019C19.133,172.975,19.289,175.881,19.289,175.881z"/>
		<path fill="#E96449" d="M251.389,136.34l2.953,2.436c0,0-0.575,0.935-0.571,2.498c0.008,2.389,0.252,20.735,0.599,26.56
			c0.161,2.685,1.432,3.427,1.432,3.427l-2.963,2.532c0,0-2.198-1.815-2.164-6.865c0.039-5.405-0.342-21.435-0.342-26.021
			C250.331,138.234,251.389,136.34,251.389,136.34z"/>
		<path fill="#E8755F" d="M255.8,171.259l-3.053,2.619c0,0,2.16,1.824,3.395,1.968c2.448,0.278,3.176,0.18,5.356-0.582
			c2.543-0.889,3.496-2.113,3.496-2.113l-3.218-2.692c0,0-0.52,0.774-1.988,1.188c-0.581,0.164-1.648,0.314-2.828,0.062
			C256.362,171.577,255.8,171.259,255.8,171.259z"/>
		<path fill="#E96449" d="M252.78,173.818l-3.219,2.367c0,0,1.356,1.531,4.154,2.293c3.243,0.877,6.239,0.957,10.284-0.895
			c3.423-1.57,6.539-5.305,6.894-9.82c0.202-2.566-0.057-7.572-0.057-7.572l-3.729,4.806c0,0-0.666,6.18-1.532,7.438
			c-1.606,2.334-5.183,3.424-6.382,3.496C254.192,176.229,252.78,173.818,252.78,173.818z"/>
		<path fill="#F0947D" d="M250.995,137.596l-3.26-2.388c0,0,1.636-2.633,4.772-4.18c2.588-1.276,7.035-2.509,11.076-0.655
			c3.422,1.57,6.362,4.939,6.793,10.443c0.207,2.57,0.104,4.695,0.104,4.695l-3.733-4.805c0,0-1.038-4.047-1.902-5.305
			c-1.604-2.338-6.211-2.488-7.413-2.562C252.437,132.544,250.995,137.596,250.995,137.596z"/>
		<path fill="#E95A3D" d="M262.245,145.906l3.896-5.461c0,0,0.162-6.077-5.022-7.32c-2.396-0.576-3.733-0.716-5.911,0.044
			c-3.258,1.142-3.912,3.199-3.912,3.199l3.018,2.457c0,0,0.703-1.179,1.407-1.507c0.957-0.443,2.572-0.746,4.13-0.242
			c1.997,0.646,2.305,4.673,2.354,7.061C262.219,145.18,262.245,145.906,262.245,145.906z"/>
		<polygon fill="#E8755F" points="236.813,175.518 235.413,175.682 232.522,181.258 239.7,180.354 		"/>
		<polygon fill="#E8755F" points="218.087,178.188 214.455,183.837 221.897,182.727 		"/>
		<polygon fill="#F0947D" points="217.976,143.436 219.313,143.169 220.991,134.518 213.354,135.658 		"/>
		<polygon fill="#F0947D" points="266.899,165.309 270.838,160.193 262.587,160.787 		"/>
		<polygon fill="#E8755F" points="266.364,140.178 262.245,145.906 270.499,145.309 		"/>
		<polygon fill="#E96449" points="238.601,132.176 235.21,139.271 236.813,175.518 239.7,180.354 		"/>
		<polygon fill="#E96449" points="221.211,152.63 217.976,143.436 218.124,178.436 221.897,182.727 		"/>
		<polygon fill="#E96449" points="231.794,160.676 236.813,175.277 235.413,175.682 		"/>
		<polygon fill="#E8755F" points="221.211,152.63 217.89,143.259 219.313,143.169 		"/>
		<polygon fill="#E96449" points="194.052,165.734 189.916,163.076 190.185,184.178 194.37,179.882 		"/>
		<polygon fill="#F0947D" points="189.737,143.555 185.203,140.35 186.304,188.527 190.19,184.323 		"/>
		<polygon fill="#F0947D" points="279.93,132.16 275.856,128.9 276.953,177.076 280.442,173.492 		"/>
		<polygon fill="#E96449" points="193.644,146.125 189.836,143.284 189.916,163.076 193.883,158.527 		"/>
		<polygon fill="#EA6444" points="203.425,182.125 209.274,184.646 209.112,177.438 		"/>
		<polygon fill="#EA6444" points="200.33,161.623 204.674,163.958 204.51,156.749 		"/>
		<polygon fill="#E95A3D" points="190.302,184.178 186.304,188.527 209.274,184.646 203.573,182.064 		"/>
		<path fill="none" stroke="#FFFFFF" stroke-width="0.7142" stroke-miterlimit="10" d="M23.361,201.643
			c0,3.944-0.493,7.725-6.986,8.814c-0.571,0.098-1.498,0.07-2.301-0.064c-4.064-0.677-6.516-2.944-6.516-7.854l-0.42-25.202
			c0-3.945,0.06-8.545,5.782-9.55c0.682-0.119,2.765-0.063,2.765-0.063c4.789,0.055,7.167,3.372,7.167,7.317L23.361,201.643z"/>
		<polygon fill="#E96449" points="284.723,155.368 280.021,151.979 280.351,173.464 285.05,169.518 		"/>
		<polygon fill="#E96449" points="284.276,135.752 279.733,132.004 280.021,151.979 284.56,148.165 		"/>
		<polygon fill="#EA6444" points="293.772,173.211 300,176.492 299.836,169.287 		"/>
		<polygon fill="#EA6444" points="290.692,151.648 295.381,155.148 295.215,147.943 		"/>
		<polygon fill="#EA6444" points="293.207,131.563 298.13,135.518 297.968,128.313 		"/>
		<path fill="#E95A3D" d="M280.511,173.389l-3.558,3.688c0,0,8.878-0.331,11.817-0.407c2.819-0.071,11.229-0.177,11.229-0.177
			l-6.228-3.281L280.511,173.389z"/>
		<path fill="#E95A3D" d="M279.876,132.068l4.4,3.684c0,0,3.813-0.066,6.759-0.143c2.819-0.07,7.095-0.092,7.095-0.092l-4.852-3.925
			L279.876,132.068z"/>
		<polygon fill="#EA6444" points="202.503,141.205 207.411,143.826 207.248,136.616 		"/>
		<polygon fill="#E95A3D" points="189.567,143.346 193.644,146.125 207.411,143.826 202.647,141.229 		"/>
		<polygon fill="#E95A3D" points="189.987,163.182 194.096,165.758 204.674,163.958 200.33,161.623 		"/>
		<polygon fill="#E95A3D" points="165.905,170.805 162.089,167.675 162.271,188.564 166.396,192.156 		"/>
		<polygon fill="#E96449" points="165.46,151.186 161.825,147.891 162.271,167.764 165.739,163.598 		"/>
		<polygon fill="#EA6444" points="158.161,193.691 166.396,192.156 162.315,188.342 		"/>
		<polygon fill="#EA6444" points="96.832,204.739 105.068,203.376 100.58,200.365 		"/>
		<polygon fill="#EA6444" points="113.827,201.868 122.061,200.4 118.048,196.732 		"/>
		<polygon fill="#E95A3D" points="172.478,166.268 176.926,168.771 176.757,161.564 		"/>
		<polygon fill="#EA6444" points="175.504,145.869 180.194,148.479 180.028,141.273 		"/>
		<polygon fill="#E95A3D" points="161.825,147.891 165.46,151.186 180.194,148.479 175.504,145.869 		"/>
		<polygon fill="#E96449" points="162.165,167.748 165.905,170.805 176.926,168.771 173.19,166.268 		"/>
		<polygon fill="#E96449" points="100.492,179.207 104.659,182.064 113.337,180.514 117.842,176.646 		"/>
		<polygon fill="#E95A3D" points="220.991,134.518 219.313,143.169 235.683,175.455 231.657,160.693 		"/>
		<polygon fill="#F0947D" points="38.012,170.639 39.873,170.382 41.639,163.473 33.987,164.066 		"/>
		<polygon fill="#F0947D" points="55.841,169.225 59.259,161.695 51.814,162.514 		"/>
		<polygon fill="#E96449" points="59.259,161.695 55.943,168.908 57.55,205.152 60.36,209.869 		"/>
		<polygon fill="#E96449" points="41.852,181.568 38.296,170.666 38.862,208.07 42.539,211.666 		"/>
		<polygon fill="#E96449" points="52.31,190.084 57.375,205.111 56.149,205.318 		"/>
		<polygon fill="#E8755F" points="41.852,181.568 38.268,170.756 39.727,170.486 		"/>
		<polygon fill="#E95A3D" points="41.639,163.473 39.786,170.756 56.421,205.098 52.31,190.084 		"/>
		<g>
			<polyline fill="none" stroke="#FFFFFF" stroke-width="0.7142" stroke-miterlimit="10" points="293.772,131.563 279.797,132.079 
				280.339,173.533 294.216,173.165 			"/>
			
				<line fill="none" stroke="#FFFFFF" stroke-width="0.7142" stroke-miterlimit="10" x1="280.151" y1="151.91" x2="291.272" y2="151.561"/>
		</g>
		<g>
			<polyline fill="none" stroke="#FFFFFF" stroke-width="0.7142" stroke-miterlimit="10" points="202.849,141.174 189.681,143.346 
				190.185,184.246 203.753,181.994 			"/>
			
				<line fill="none" stroke="#FFFFFF" stroke-width="0.7142" stroke-miterlimit="10" x1="190.212" y1="163.076" x2="200.788" y2="161.543"/>
		</g>
		<polygon fill="#E96449" points="136.448,176.379 132.422,173.339 132.693,194.436 136.765,190.469 		"/>
		<polygon fill="#E95C35" points="104.578,182.023 100.314,179.146 100.536,200.527 105.068,203.376 		"/>
		<polygon fill="#E95C35" points="120.962,152.225 117.45,156.792 118.078,196.912 122.061,200.4 		"/>
		<polygon fill="#F0947D" points="145.187,151.383 149.629,146.909 127.601,151.016 132.274,153.703 		"/>
		<polygon fill="#E96449" points="135.996,156.703 132.341,153.544 132.422,173.339 136.279,169.114 		"/>
		<polygon fill="#E96449" points="103.963,155.199 99.954,160.713 100.314,179.146 104.413,174.818 		"/>
		<polygon fill="#EA6444" points="145.845,192.314 151.661,194.916 151.497,187.706 		"/>
		<polygon fill="#EA6444" points="142.837,171.884 147.058,174.335 146.896,167.125 		"/>
		<polygon fill="#E95A3D" points="132.807,194.436 128.702,199.191 151.661,194.916 146.08,192.324 		"/>
		<polygon fill="#EA6444" points="145.011,151.466 149.799,154.119 149.629,146.909 		"/>
		<polygon fill="#E95A3D" points="132.072,153.605 135.996,156.703 149.799,154.119 145.151,151.488 		"/>
		<polygon fill="#E95A3D" points="132.497,173.441 136.448,176.379 147.058,174.335 142.837,171.884 		"/>
		<g>
			<polyline fill="none" stroke="#FFFFFF" stroke-width="0.7142" stroke-miterlimit="10" points="145.356,151.434 132.186,153.605 
				132.693,194.505 146.258,192.253 			"/>
			
				<line fill="none" stroke="#FFFFFF" stroke-width="0.7142" stroke-miterlimit="10" x1="132.72" y1="173.339" x2="143.289" y2="171.803"/>
		</g>
		<polygon fill="#EA6444" points="86.698,162.006 89.721,164.748 89.555,157.544 		"/>
		<polygon fill="#EA6444" points="65.373,160.958 65.537,168.164 69.446,164.326 		"/>
		<polygon fill="#EA6444" points="78.797,203.206 74.447,208.092 82.683,206.927 		"/>
		<g>
			<polygon fill="#E95C35" points="81.752,165.955 78.105,163.234 78.729,203.229 82.683,206.927 			"/>
		</g>
		<g>
			<polygon fill="#E96449" points="89.721,164.748 86.698,162.006 77.929,163.396 81.752,165.955 			"/>
		</g>
		<g>
			<polygon fill="#E96449" points="65.496,168.211 69.446,164.326 78.105,163.367 73.463,167.139 			"/>
		</g>
		<polygon fill="#F0947D" points="86.698,162.006 89.555,157.544 65.373,160.958 69.512,164.355 		"/>
		<polygon fill="#F0947D" points="103.963,155.199 95.732,156.563 99.954,160.713 		"/>
		<polygon fill="#F0947D" points="117.808,176.468 113.177,173.309 104.413,174.818 100.179,179.371 		"/>
		<polygon fill="#F0947D" points="120.962,152.225 112.725,153.688 117.542,157.318 		"/>
		<polygon fill="#F0947D" points="175.504,145.869 180.028,141.273 157.063,145.516 161.825,147.891 		"/>
		<g>
			<path fill="none" stroke="#FFFFFF" stroke-width="0.7098" stroke-miterlimit="10" d="M69.139,164.305c0,0,4.761-0.516,8.688-1.06
				c4.041-0.562,9.134-1.345,9.134-1.345"/>
			
				<line fill="none" stroke="#FFFFFF" stroke-width="0.7098" stroke-miterlimit="10" x1="78.169" y1="163.221" x2="78.82" y2="203.632"/>
		</g>
		<g>
			<polyline fill="none" stroke="#FFFFFF" stroke-width="0.7142" stroke-miterlimit="10" points="175.632,145.667 161.825,147.891 
				162.328,188.794 			"/>
			
				<line fill="none" stroke="#FFFFFF" stroke-width="0.7142" stroke-miterlimit="10" x1="162.358" y1="167.623" x2="172.935" y2="166.087"/>
		</g>
		<g>
			<g>
				
					<line fill="none" stroke="#FFFFFF" stroke-width="0.7142" stroke-miterlimit="10" x1="99.95" y1="160.361" x2="100.601" y2="200.773"/>
			</g>
			<g>
				
					<line fill="none" stroke="#FFFFFF" stroke-width="0.7142" stroke-miterlimit="10" x1="117.45" y1="156.792" x2="118.1" y2="197.202"/>
			</g>
			
				<line fill="none" stroke="#FFFFFF" stroke-width="0.7142" stroke-miterlimit="10" x1="100.168" y1="179.207" x2="117.722" y2="176.587"/>
		</g>
		<polyline fill="none" stroke="#FFFFFF" stroke-width="0.7142" stroke-miterlimit="10" points="235.028,138.854 236.501,175.529 
			235.413,175.682 219.325,143.077 217.89,143.259 218.101,178.723 		"/>
		<polyline fill="none" stroke="#FFFFFF" stroke-width="0.7142" stroke-miterlimit="10" points="55.766,168.493 57.236,205.171 
			56.149,205.318 39.705,170.572 38.268,170.756 38.837,208.357 		"/>
		<path fill="none" stroke="#FFFFFF" stroke-width="0.7142" stroke-miterlimit="10" d="M266.321,140.669
			c0-4.685-2.683-8.125-8.217-7.945c-7.471,0.241-7.896,6.633-7.802,11.01c0.226,9.895,0.455,15.639,0.683,25.533
			c0.09,4.035,3.078,6.707,6.42,6.664c9.941-0.117,9.55-7.314,9.464-11.129"/>
	</g>
</g>
</svg>
