<?xml version="1.0" encoding="utf-8"?>
<!-- Generator: Adobe Illustrator 16.0.0, SVG Export Plug-In . SVG Version: 6.00 Build 0)  -->
<!DOCTYPE svg PUBLIC "-//W3C//DTD SVG 1.1//EN" "http://www.w3.org/Graphics/SVG/1.1/DTD/svg11.dtd">
<svg version="1.1" id="Layer_1" xmlns="http://www.w3.org/2000/svg" xmlns:xlink="http://www.w3.org/1999/xlink" x="0px" y="0px"
	 width="780.438px" height="400px" viewBox="0 0 780.438 400" enable-background="new 0 0 780.438 400" xml:space="preserve">
<radialGradient id="SVGID_1_" cx="498.7842" cy="149.4072" r="175.8101" fx="520.1771" fy="123.717" gradientTransform="matrix(1.1227 -0.0201 0.0201 1.1227 -53.7738 -16.6188)" gradientUnits="userSpaceOnUse">
	<stop  offset="0" style="stop-color:#A8C041"/>
	<stop  offset="0.402" style="stop-color:#A3BA40"/>
	<stop  offset="0.9262" style="stop-color:#94AA3D"/>
	<stop  offset="1" style="stop-color:#91A73C"/>
</radialGradient>
<path fill="url(#SVGID_1_)" d="M4.031,187.95c0,0,212.944-105.267,392.537-107.838c241.414-3.456,375.526,91.396,382.418,98.429
	c6.893,7.032-57.199,214.395-376.677,220.056C88.484,404.16,4.031,187.95,4.031,187.95z"/>
<g>
	
		<ellipse transform="matrix(0.9149 0.4037 -0.4037 0.9149 80.0549 -73.1373)" fill="#80993E" cx="213.498" cy="153.309" rx="56.394" ry="30.49"/>
	<path fill="#80993E" d="M260.215,192.239c-2.641,5.986-11.021,8.086-18.715,4.687c-7.696-3.394-11.793-10.998-9.154-16.982
		c2.64-5.986,11.021-8.084,18.716-4.688C258.758,178.649,262.856,186.256,260.215,192.239z"/>
	<g>
		<line fill="none" stroke="#040303" stroke-width="2.751" x1="211.892" y1="139.097" x2="211.892" y2="157.895"/>
		<line fill="none" stroke="#040303" stroke-width="2.751" x1="251.782" y1="132.679" x2="251.782" y2="151.478"/>
		<line fill="none" stroke="#040303" stroke-width="2.751" x1="182.089" y1="117.547" x2="182.089" y2="136.348"/>
		<path fill="#E8E3DC" d="M212.43,84.784c-0.519,13.248-11.677,23.566-24.925,23.047c-13.248-0.518-23.563-11.674-23.046-24.924
			c0.518-13.243,11.676-23.562,24.921-23.044C202.63,60.382,212.947,71.538,212.43,84.784z"/>
		<path fill="#E8E3DC" d="M279.372,109.599c-0.609,15.608-13.615,27.776-29.046,27.172c-15.434-0.6-27.45-13.748-26.84-29.357
			c0.612-15.612,13.615-27.778,29.048-27.172C267.967,80.843,279.981,93.987,279.372,109.599z"/>
		<path fill="#E8E3DC" d="M232.203,86.401c-0.515,13.249-11.675,23.565-24.922,23.047c-13.245-0.517-23.564-11.674-23.047-24.921
			s11.676-23.565,24.922-23.046C222.404,61.998,232.724,73.158,232.203,86.401z"/>
		<path fill="#E8E3DC" d="M254.235,84.41c-0.359,9.25-8.154,16.462-17.411,16.099c-9.253-0.362-16.462-8.156-16.099-17.412
			c0.363-9.25,8.156-16.462,17.412-16.101C247.391,67.356,254.599,75.153,254.235,84.41z"/>
		<path fill="#E8E3DC" d="M249.42,127.623c-0.358,9.25-8.154,16.46-17.41,16.099c-9.253-0.362-16.464-8.156-16.1-17.413
			c0.362-9.251,8.156-16.464,17.412-16.099C242.576,110.568,249.784,118.367,249.42,127.623z"/>
		<path fill="#E8E3DC" d="M185.021,104.302c-0.206,5.26-4.639,9.362-9.9,9.156c-5.263-0.208-9.365-4.64-9.156-9.9
			c0.205-5.262,4.638-9.361,9.901-9.154C181.126,94.606,185.225,99.041,185.021,104.302z"/>
		<path fill="#E8E3DC" d="M191.896,118.515c-0.204,5.263-4.636,9.36-9.898,9.155c-5.265-0.206-9.363-4.638-9.157-9.899
			c0.207-5.264,4.639-9.362,9.903-9.155C188.004,108.818,192.102,113.252,191.896,118.515z"/>
		<path fill="#E8E3DC" d="M222.616,137.772c-0.204,5.261-4.638,9.36-9.9,9.157c-5.262-0.208-9.363-4.641-9.154-9.902
			c0.204-5.262,4.639-9.363,9.9-9.155C218.724,128.077,222.822,132.511,222.616,137.772z"/>
		<path fill="#E8E3DC" d="M260.672,133.644c-0.204,5.263-4.638,9.362-9.899,9.158c-5.263-0.208-9.363-4.641-9.155-9.901
			c0.204-5.262,4.638-9.36,9.901-9.155C256.78,123.951,260.878,128.383,260.672,133.644z"/>
		<path fill="#E8E3DC" d="M243.93,106.274c-0.763,19.599-17.272,34.865-36.869,34.1c-19.599-0.767-34.864-17.275-34.098-36.874
			c0.764-19.6,17.273-34.864,36.873-34.096C229.432,70.171,244.699,86.679,243.93,106.274z"/>
		<path fill="#040303" d="M264.808,96.561c6.69,8.832,6.409,20.315-0.631,25.647c-7.043,5.335-18.178,2.504-24.862-6.322
			c-6.692-8.832-6.409-20.316,0.635-25.651C246.987,84.9,258.119,87.735,264.808,96.561z"/>
		<path fill="#040303" d="M216.363,160.501c0.636,1.365,0.086,1.75-0.406,1.84c-0.512,0.095-2.255-2.138-2.758-1.904
			c-0.274,0.129,0.821,2.905,0.653,3.144c-0.385,0.533-1.62,0.578-2.361-1.015c-0.869-1.867-1.813-5.154,0.053-6.023
			C213.413,155.674,215.494,158.635,216.363,160.501z"/>
		<path fill="#040303" d="M255.735,153.625c0.636,1.363,0.088,1.747-0.405,1.839c-0.511,0.095-2.256-2.137-2.758-1.903
			c-0.274,0.127,0.822,2.903,0.654,3.14c-0.384,0.535-1.621,0.58-2.36-1.013c-0.87-1.866-1.816-5.154,0.052-6.022
			C252.786,148.798,254.868,151.757,255.735,153.625z"/>
		<path fill="#040303" d="M186.102,137.808c0.635,1.362,0.084,1.747-0.405,1.838c-0.513,0.095-2.256-2.137-2.76-1.902
			c-0.272,0.126,0.824,2.902,0.655,3.138c-0.384,0.536-1.619,0.582-2.361-1.014c-0.869-1.864-1.814-5.152,0.053-6.021
			C183.151,132.979,185.233,135.94,186.102,137.808z"/>
	</g>
	<circle fill="#FFFFFF" cx="246.166" cy="101.9" r="4.298"/>
	<circle fill="#FFFFFF" cx="254.247" cy="96.915" r="3.783"/>
	<circle fill="#040303" cx="246.291" cy="100.662" r="0.945"/>
	<path fill="#040303" d="M256.641,96.596c0,0.52-0.424,0.944-0.947,0.944c-0.521,0-0.945-0.425-0.945-0.944
		c0-0.524,0.424-0.947,0.945-0.947C256.217,95.649,256.641,96.072,256.641,96.596z"/>
	<path fill="#040303" d="M228.677,113.518c-0.787-0.801-1.27-5.326,1.218-7.775c2.488-2.452,5.167-6.956,5.956-6.158
		c0.587,0.599-0.062,5.398-1.466,7.208c-0.466,0.604-1.018,1.23-1.642,1.842C230.256,111.084,229.462,114.314,228.677,113.518z"/>
	<path fill="#040303" d="M267.836,89.706c-0.291-0.891-3.455-2.992-6.233-2.097c-2.775,0.896-7.149,1.145-6.861,2.034
		c0.217,0.668,4.024,2.04,5.906,1.699c0.629-0.114,1.306-0.28,2.001-0.507C265.423,89.939,268.122,90.596,267.836,89.706z"/>
	<path fill="#DDD7BF" d="M255.563,108.634c2.041-1.043,2.302-1.609,2.663-1.594c0.899,0.034,0.345,4.323-0.757,4.882
		c-1.286,0.653-5.523-1.157-5.259-1.866C252.427,109.476,253.007,109.94,255.563,108.634z"/>
	<path fill="#91A73C" d="M251.205,115.228c0,0-1.164,0.38-1.329,1.213c-0.026,0.125-0.321,0.615-0.321,0.615l1.355-0.505
		l-0.696,0.923c0,0,0.167,0.056,0.479,0.031c0.281-0.023,0.583-0.306,0.583-0.306s-0.433,0.445-0.496,1.028
		c-0.054,0.51,0.177,1.269,0.214,1.555c0.04,0.322,0.41,1.466,0.41,1.466l1.002-1.456c0,0,0.199,0.49,0.279,0.788
		c0.05,0.186,0.382,0.677,0.382,0.677l0.948-1.338c0,0-0.343,0.67-0.23,1.037c0.031,0.092,0.045,0.381,0.045,0.381l0.76-0.85
		c0,0,0.182,0.887,0.215,1.187c0.029,0.262,0.046,1.057,0.046,1.057s0.85-0.725,1.11-0.913c0.713-0.51,0.679-1.189,0.679-1.189
		l1.194,1.858c0,0,0.366-0.554,0.311-0.779c-0.194-0.778-0.232-1.126-0.232-1.126l1.065,1.448c0,0,0.379-0.446,0.353-1.295
		c-0.012-0.38-0.064-2.023-0.064-2.023s-2.738,0.595-5.376-0.736C252.845,117.446,251.205,115.228,251.205,115.228z"/>
	<path fill="none" stroke="#808080" stroke-width="1.0928" stroke-linecap="round" d="M260.843,117.943
		c-3.376,1.901-7.646,0.71-9.549-2.665"/>
	<path fill="none" stroke="#808080" stroke-width="1.0928" stroke-linecap="round" d="M249.453,111.235
		c0.254,1.937-1.104,3.709-3.041,3.963"/>
	
		<ellipse transform="matrix(0.9649 0.2627 -0.2627 0.9649 33.0807 -58.0014)" fill="#E8E3DC" cx="233.434" cy="94.703" rx="3.599" ry="3.99"/>
	<path fill="#E8E3DC" d="M238.93,92.37c-0.039,1.027-0.907,1.83-1.934,1.791c-1.029-0.043-1.833-0.91-1.79-1.939
		c0.04-1.028,0.906-1.828,1.936-1.787C238.167,90.473,238.969,91.341,238.93,92.37z"/>
	<path fill="#E8E3DC" d="M240.749,89.947c-0.04,1.028-0.906,1.831-1.935,1.79c-1.029-0.041-1.831-0.908-1.791-1.936
		c0.04-1.031,0.906-1.83,1.936-1.788C239.988,88.05,240.788,88.918,240.749,89.947z"/>
	<path fill="#E8E3DC" d="M247.754,88.824c2.417-0.283,4.14-2.111,3.844-4.079c-0.296-1.969-2.496-3.338-4.915-3.05
		c-2.418,0.283-4.139,2.107-3.844,4.078C243.134,87.743,245.334,89.108,247.754,88.824z"/>
	<path fill="#E8E3DC" d="M243.635,89.939c1.491-0.84,2.081-2.57,1.316-3.865c-0.764-1.297-2.595-1.665-4.083-0.826
		c-1.493,0.839-2.08,2.567-1.317,3.865C240.316,90.408,242.143,90.778,243.635,89.939z"/>
</g>
<path fill="#9FB53D" d="M617.658,106.342l0.921-5.242l-3.195,4.668l-0.011-5.641l-3.631,3.989l0.136-5.182l-1.62,1.803l-0.562-2.209
	l-1.392,4.691l-1.077-3.399l-1.946,2.757l0.312-5.551l-2.21,4.877l-0.25-3.524l-0.128-1.802l-1.583,3.72l-0.437,0.491l-0.426-0.661
	l0.262-1.755l0.351-2.002l-2.567,3.751l-0.842-4.953l-2.465,3.162l-0.823-4.088l-0.002,0.019l-0.001-0.058l-2.596,5.257l0.414-5.663
	l-1.394,4.69l-1.077-3.399l-1.944,2.757l0.311-5.551l-2.209,4.878l-0.379-5.328l-2.06,4.85l0.227-3.474l-2.439,2.919l-0.97-5.702
	l-2.069,5.126l-1.221-6.053c0,0-1.229,7.707-0.701,8.923c0.549,1.268,8.577,4.155,11.543,4.99c2.187,0.616,6.768,2.303,9.678,3.058
	c2.745,0.712,6.086,1.212,7.73,1.674c3.047,0.857,11.139,2.721,12.377,2.024c1.197-0.672,3.935-8.291,3.935-8.291L617.658,106.342z"
	/>
<path fill="#6B8E37" d="M514.857,138.088c-0.718,0.683-6.505,0.8-8.707,0.739c-2.147-0.061-8.063-0.646-8.648-1.409
	c-0.563-0.732-1.043-6.148-1.043-6.148l1.854,3.882l0.526-3.815l1.625,3.688l1.152-2.387l0.436,2.386l0.569-3.627l1.162,3.534
	l0.663-3.671l0.734,3.803l0.845-2.192l1.306,2.113l0.144-3.407l0.683,3.896l0.859-3.994l0.789,3.525l1.774-3.313l0.968,3.811
	l1.363-3.697l0.272,3.697l1.922-3.685C516.105,131.818,515.552,137.431,514.857,138.088z"/>
<path fill="#6B8E37" d="M137.356,165.429c-7.041,1.429-9.729,0.166-10.314-0.597c-0.564-0.733-1.024-5.113-1.024-5.113l1.854,3.882
	l0.526-3.815l1.625,3.688l1.152-2.386l0.437,2.386l0.567-3.627l1.163,3.535l0.663-3.672l0.734,3.804l0.845-2.193l1.306,2.113
	l1.259-3.636l0.006,4.184C138.153,163.98,137.944,165.31,137.356,165.429z"/>
<path fill="#80993E" d="M498.444,139.688c-7.04,1.431-9.729,0.167-10.316-0.597c-0.563-0.733-1.023-5.112-1.023-5.112l1.855,3.881
	l0.526-3.815l1.623,3.688l1.154-2.387l0.436,2.386l0.567-3.627l1.162,3.535l0.663-3.671l0.733,3.804l0.845-2.193l1.306,2.114
	l1.261-3.638l0.007,4.185C499.243,138.241,499.032,139.57,498.444,139.688z"/>
<path fill="#6B8E37" d="M175.957,270.465c0.97,0.855,8.52,0.739,11.39,0.554c2.797-0.178,10.485-1.218,11.213-2.24
	c0.701-0.982,1.072-8.068,1.072-8.068l-2.236,5.15l-0.863-4.952l-1.948,4.886l-1.615-3.059l-0.457,3.132l-0.91-4.704l-1.35,4.666
	l-1.036-4.758l-0.781,4.996l-1.205-2.821l-1.604,2.817l-0.347-4.437l-0.71,5.115l-1.307-5.169l-0.865,4.635l-2.469-4.238
	l-1.083,5.015l-1.953-4.758l-0.18,4.835l-2.68-4.717C174.036,262.344,175.02,269.64,175.957,270.465z"/>
<path fill="#80993E" d="M197.513,276.001c9.249,1.535,12.696-0.238,13.425-1.262c0.702-0.982,1.097-6.715,1.097-6.715l-2.237,5.149
	l-0.863-4.952l-1.947,4.887l-1.615-3.06l-0.457,3.133l-0.91-4.704l-1.35,4.664l-1.036-4.758l-0.78,4.995l-1.205-2.821l-1.604,2.817
	l-1.812-4.683l0.188,5.458C196.405,274.15,196.741,275.872,197.513,276.001z"/>
<path fill="#80993E" d="M389.515,87.13c-7.039,1.429-9.729,0.165-10.315-0.598c-0.563-0.733-1.024-5.113-1.024-5.113l1.853,3.881
	l0.528-3.815l1.623,3.688l1.153-2.386l0.438,2.386l0.566-3.627l1.162,3.536l0.663-3.672l0.734,3.803l0.845-2.193l1.306,2.113
	l1.257-3.637l0.007,4.185C390.312,85.682,390.103,87.01,389.515,87.13z"/>
<path fill="#80993E" d="M475.453,84.984c-5.201,1.057-7.187,0.124-7.621-0.44c-0.415-0.542-0.756-3.778-0.756-3.778l1.37,2.869
	l0.388-2.819l1.202,2.725l0.851-1.763l0.32,1.763l0.42-2.68l0.858,2.612l0.491-2.713l0.541,2.811l0.625-1.621l0.964,1.562
	l0.931-2.686l0.005,3.09C476.042,83.914,475.889,84.896,475.453,84.984z"/>
<path fill="#80993E" d="M396.122,80.923c-3.94,0.801-5.447,0.093-5.772-0.334c-0.316-0.41-0.573-2.861-0.573-2.861l1.037,2.173
	l0.293-2.136l0.91,2.064l0.645-1.335l0.243,1.335l0.319-2.029l0.649,1.977l0.371-2.056l0.411,2.13l0.474-1.228l0.732,1.183
	l0.705-2.036l0.002,2.341C396.568,80.112,396.452,80.857,396.122,80.923z"/>
<path fill="#80993E" d="M421.597,147.355c-3.943,0.8-5.447,0.093-5.775-0.334c-0.314-0.411-0.571-2.862-0.571-2.862l1.037,2.173
	l0.295-2.137l0.908,2.065l0.646-1.335l0.246,1.335l0.316-2.03l0.649,1.979l0.372-2.055l0.413,2.129l0.471-1.228l0.732,1.183
	l0.702-2.036l0.005,2.342C422.043,146.544,421.925,147.287,421.597,147.355z"/>
<g>
	<g>
		<g>
			<polygon fill="#836314" points="480.866,165.188 469.881,165.479 467.036,59.53 478.026,59.234 			"/>
		</g>
		<g>
			<path fill="#DDD6BF" d="M452.115,172.803c-0.386,0-0.732-0.274-0.813-0.667c-0.09-0.447,0.202-0.884,0.649-0.974
				c0.298-0.064,6.595-1.499,9.943-10.718c6.538-18.021,9.683-88.519,9.713-89.231c0.021-0.458,0.354-0.772,0.866-0.791
				c0.457,0.021,0.81,0.407,0.79,0.865c-0.127,2.908-3.187,71.465-9.81,89.723c-3.691,10.165-10.871,11.715-11.174,11.777
				C452.225,172.799,452.167,172.803,452.115,172.803z"/>
		</g>
		<g>
			<path fill="#DDD6BF" d="M452.115,190.51c-0.232,0-0.462-0.099-0.625-0.288c-0.3-0.346-0.263-0.867,0.083-1.167
				c0.094-0.083,9.38-8.192,12.834-17.712c6.535-18.001,7.193-70.081,7.199-70.604c0.005-0.458,0.391-0.873,0.836-0.821
				c0.458,0.008,0.827,0.381,0.822,0.839c-0.026,2.151-0.669,52.888-7.301,71.155c-3.603,9.932-12.913,18.056-13.307,18.396
				C452.501,190.444,452.308,190.51,452.115,190.51z"/>
		</g>
		<g>
			<path fill="#DDD6BF" d="M448.937,208.311c-0.261,0-0.515-0.121-0.675-0.349c-0.266-0.373-0.18-0.892,0.193-1.156
				c0.105-0.073,10.623-7.641,14.752-16.878c7.806-17.463,8.689-62.547,8.698-63c0.007-0.453,0.377-0.813,0.826-0.813
				c0.005,0,0.012,0,0.016,0c0.459,0.009,0.822,0.387,0.813,0.842c-0.032,1.865-0.898,45.879-8.84,63.649
				c-4.318,9.656-14.858,17.233-15.306,17.551C449.268,208.259,449.102,208.311,448.937,208.311z"/>
		</g>
		<g>
			<path fill="#DDD6BF" d="M452.606,216.408c-0.421,0-0.781-0.323-0.822-0.75c-0.044-0.457,0.29-0.859,0.744-0.904
				c0.327-0.033,8.044-0.899,12.051-9.873c7.801-17.455,7.623-49.204,7.621-49.521c-0.003-0.458,0.366-0.832,0.822-0.837
				c0.002,0,0.004,0,0.007,0c0.453,0,0.824,0.367,0.828,0.824c0.012,1.317,0.181,32.429-7.768,50.209
				c-4.414,9.889-13.038,10.813-13.404,10.849C452.659,216.408,452.632,216.408,452.606,216.408z"/>
		</g>
		<g>
			
				<rect x="448.928" y="167.498" transform="matrix(0.9984 -0.0569 0.0569 0.9984 -12.2052 26.2056)" fill="#836314" width="10.992" height="120.187"/>
		</g>
	</g>
	<g>
		<g>
			
				<rect x="420.336" y="137.315" transform="matrix(0.537 0.8436 -0.8436 0.537 324.0746 -311.5544)" fill="#040303" width="51.053" height="4.277"/>
		</g>
		<g>
			
				<rect x="423.209" y="115.924" transform="matrix(0.5304 0.8477 -0.8477 0.5304 311.0105 -325.3407)" fill="#040303" width="51.931" height="4.279"/>
		</g>
		<g>
			
				<rect x="476.545" y="99.45" transform="matrix(0.8755 0.4833 -0.4833 0.8755 121.0992 -215.4878)" fill="#040303" width="4.279" height="55.576"/>
		</g>
		<g>
			
				<rect x="478.433" y="83.084" transform="matrix(0.8755 0.4832 -0.4832 0.8755 113.3954 -218.4053)" fill="#040303" width="4.278" height="55.576"/>
		</g>
		<g>
			<path fill="#E7E2DC" d="M434.564,48.178c4.566,11.319-0.906,24.198-12.224,28.764c-11.316,4.568-22.624,12.98-28.762-12.22
				c-2.891-11.856,0.903-24.189,12.217-28.761C417.116,31.393,429.991,36.863,434.564,48.178z"/>
		</g>
		<g>
			<path fill="#E7E2DC" d="M433.557,32.91c0.254,9.705-7.415,17.777-17.119,18.022c-9.711,0.247-27.354,4.397-21.284-15.03
				c4.643-14.853,10.421-15.684,20.391-20.117C424.41,11.841,433.312,23.208,433.557,32.91z"/>
		</g>
		<g>
			<path fill="#E7E2DC" d="M511.584,104.867c-1.903,7.382-7.917,12.22-13.419,10.794c-5.514-1.422-8.435-8.566-6.524-15.94
				c1.905-7.384,7.915-12.217,13.424-10.795C510.571,90.344,513.485,97.489,511.584,104.867z"/>
		</g>
		<g>
			<path fill="#E7E2DC" d="M442.104,104.494c0.228,8.946-6.838,16.388-15.781,16.617c-8.952,0.224-16.389-6.842-16.615-15.786
				c-0.23-8.945,6.838-16.384,15.79-16.612C434.441,88.486,441.877,95.552,442.104,104.494z"/>
		</g>
		<g>
			<path fill="#E7E2DC" d="M516.069,30.587c0.203,7.933-6.595,6.338-14.529,6.537c-7.939,0.201-14.531-6.068-14.735-14.002
				c-0.204-7.934,0.621-19.269,14.005-14.734C511.144,11.894,515.869,22.653,516.069,30.587z"/>
		</g>
		<g>
			<path fill="#E7E2DC" d="M448.729,116.738c-3.21,6.48-1.228,11.795-7.903,14.902c-6.678,3.109-10.812,1.287-16.269-3.654
				c-21.014-19.042-0.212-14.602,6.461-17.711C437.691,107.167,451.997,110.14,448.729,116.738z"/>
		</g>
		<g>
			<path fill="#E7E2DC" d="M493.456,126.277c-3.618,5.568-11.066,7.146-16.639,3.528c-5.565-3.628-2.667-10.057-3.526-16.64
				c-1.979-15.208,10.233-5.276,16.644-3.521C513.152,115.979,497.075,120.711,493.456,126.277z"/>
		</g>
		<g>
			<path fill="#E7E2DC" d="M518.293,65.564c0.847,33.019-24.971,60.461-57.658,61.294c-32.692,0.833-59.875-25.257-60.717-58.275
				c-0.842-33.016,24.983-60.453,57.667-61.291C490.274,6.463,517.455,32.556,518.293,65.564z"/>
		</g>
		<g>
			<path fill="#040303" d="M464.564,161.415c0.755,2.939-0.976,3.589-1.296,3.351c-2.201-1.63-3.557,0.103-3.849,0.579
				c-1.489,2.431-3.57,0.844-4.029-0.787c-0.528-1.91-0.41-5.759,3.93-6.538C461.35,157.651,464.071,159.49,464.564,161.415z"/>
		</g>
		<g>
			<path fill="#040303" d="M469.708,141.728c0.393,1.389-0.939,1.88-1.968,2.042c-1.076,0.173-4.465,1.342-4.949,1.617
				c-1.102,0.63-3.568,0.845-4.029-0.785c-0.531-1.91-0.316-5.352,3.927-6.54C466.932,136.876,469.173,139.81,469.708,141.728z"/>
		</g>
		<g>
			<path fill="#040303" d="M456.253,153.239c-0.186,1.435,1.195,1.731,2.235,1.75c1.088,0.014,4.615,0.697,5.129,0.901
				c1.176,0.471,3.656,0.34,3.878-1.346c0.259-1.965-0.441-5.341-4.808-5.92C458.317,148.048,456.517,151.274,456.253,153.239z"/>
		</g>
		<g>
			<path fill="#040303" d="M461.253,137.456c0.016,1.448,1.428,1.545,2.466,1.416c1.074-0.137,4.657,0.041,5.201,0.17
				c1.229,0.299,3.663-0.187,3.646-1.877c-0.02-1.984-1.187-5.229-5.593-5.185C462.569,132.026,461.235,135.473,461.253,137.456z"/>
		</g>
		<g>
			<path fill="#E7E2DC" d="M523.21,45.827c1.759,12.076-2.369,24.038-14.446,25.806c-12.077,1.763-23.299-6.597-25.06-18.674
				c-1.766-12.078,6.594-23.297,18.672-25.063C514.45,26.136,521.442,33.751,523.21,45.827z"/>
		</g>
		<g>
			<path fill="#E7E2DC" d="M452.091,21.717c-7.904,6.331-7.742,18.54-17.865,18.796c-10.127,0.257-18.547-7.741-18.808-17.868
				c-0.254-10.122,7.741-18.857,17.871-18.798C478.03,4.104,464.019,12.153,452.091,21.717z"/>
		</g>
		<g>
			<path fill="#E7E2DC" d="M496.7,14.69c3.5,8.663-4.654,13.51-15.971,18.079c-11.313,4.567-23.327,1.249-26.827-7.425
				c-3.496-8.66-2.013-25.747,14.158-23.958C480.19,2.727,493.202,6.021,496.7,14.69z"/>
		</g>
		<g>
			<path fill="#040303" d="M489.605,56.531c1.182,20.388-11.042,37.684-27.302,38.625c-16.261,0.932-30.4-14.83-31.576-35.212
				c-1.182-20.391,11.04-37.691,27.304-38.622C474.287,20.375,488.421,36.147,489.605,56.531z"/>
		</g>
		<g>
			<path fill="#E7E2DC" d="M487.574,37.879c-1.934,4.292-11.156,4.312-20.6,0.05c-9.443-4.26-15.531-11.189-13.599-15.474
				c1.934-4.288,11.156-4.305,20.602-0.048C483.419,26.667,489.509,33.594,487.574,37.879z"/>
		</g>
		<g>
			<path fill="#E7E2DC" d="M455.104,25.267c0.068,2.613-2.004,4.795-4.621,4.862c-2.623,0.068-4.803-2.003-4.869-4.625
				c-0.066-2.617,2.002-4.797,4.629-4.865C452.86,20.574,455.036,22.646,455.104,25.267z"/>
		</g>
		<g>
			<path fill="#E7E2DC" d="M463.934,29.219c0.067,2.623-2,4.798-4.623,4.868c-2.619,0.064-4.799-2.009-4.862-4.623
				c-0.068-2.623,2.002-4.801,4.621-4.869C461.689,24.53,463.867,26.601,463.934,29.219z"/>
		</g>
		<g>
			<path fill="#E7E2DC" d="M474.319,38.898c-1.23,2.314-5.222,2.596-8.905,0.626c-3.691-1.967-5.681-5.433-4.446-7.744
				c1.233-2.316,5.223-2.597,8.911-0.63C473.565,33.113,475.552,36.583,474.319,38.898z"/>
		</g>
		<g>
			<path fill="#E7E2DC" d="M448.536,26.881c0.066,2.62-2.002,4.8-4.623,4.863c-2.621,0.067-4.798-2.001-4.864-4.622
				c-0.068-2.619,2.004-4.8,4.623-4.864C446.29,22.188,448.47,24.262,448.536,26.881z"/>
		</g>
		<g>
			<path fill="#FFFFFF" d="M475.874,52.981c-1.706,3.056-5.565,4.16-8.623,2.455c-3.063-1.705-4.157-5.566-2.456-8.623
				c1.702-3.058,5.564-4.162,8.623-2.458C476.478,46.062,477.578,49.921,475.874,52.981z"/>
		</g>
		<g>
			<path fill="#FFFFFF" d="M456.417,54.241c-1.7,3.057-5.562,4.159-8.623,2.455c-3.062-1.707-4.16-5.563-2.456-8.629
				c1.704-3.054,5.566-4.154,8.629-2.45C457.025,47.318,458.124,51.18,456.417,54.241z"/>
		</g>
		<g>
			<path fill="#040303" d="M450.424,52.525c-0.425,0.763-1.39,1.037-2.151,0.613c-0.768-0.427-1.046-1.392-0.614-2.155
				c0.425-0.768,1.39-1.04,2.156-0.614C450.578,50.791,450.854,51.758,450.424,52.525z"/>
		</g>
		<g>
			<path fill="#040303" d="M472.025,51.409c-0.425,0.763-1.388,1.037-2.155,0.614c-0.768-0.425-1.042-1.395-0.614-2.156
				c0.426-0.767,1.391-1.041,2.153-0.615C472.175,49.678,472.451,50.641,472.025,51.409z"/>
		</g>
		<g>
			<path fill="#040303" d="M415.646,53.534c-0.447-1.606,2.206-7.843,7.217-9.229c5.013-1.386,11.761-5.305,12.207-3.699
				c0.333,1.206-3.989,6.973-7.125,8.317c-1.044,0.448-2.217,0.859-3.472,1.204C419.464,51.516,416.089,55.139,415.646,53.534z"/>
		</g>
		<g>
			<path fill="#040303" d="M499.218,48.794c0.271-1.371-2.325-6.397-6.588-7.246c-4.262-0.843-10.13-3.688-10.399-2.321
				c-0.207,1.027,3.756,5.567,6.449,6.486c0.899,0.308,1.903,0.582,2.965,0.792C495.91,47.349,498.945,50.161,499.218,48.794z"/>
		</g>
		<g>
			<path fill="#E7E2DC" d="M435.991,81.976c3.036,11.555-2.118,22.92-11.509,25.386c-9.393,2.461-19.463-4.909-22.492-16.458
				c-3.035-11.556,2.123-22.918,11.518-25.38C422.89,63.055,432.96,70.427,435.991,81.976z"/>
		</g>
		<g>
			<path fill="#C2C080" d="M411.177,106.488c0,0,0.855,4.896,1.772,6.234c0.998,1.456,4.479,2.919,5.639,4.247
				c1.333,1.521,2.607,5.529,3.952,7.032c0.689,0.774,3.347,2.421,3.347,2.421s-2.265-2.77-2.853-3.8
				c-1.085-1.9-1.855-6.495-3.362-8.091c-1.101-1.162-4.614-1.678-5.761-2.794C412.848,110.707,411.177,106.488,411.177,106.488z"/>
		</g>
		<g>
			<path fill="#C2C080" d="M511.012,100.421c0,0-1.618,6.739-3.007,8.519c-1.516,1.942-6.48,3.673-8.213,5.422
				c-1.979,2-4.104,7.465-6.104,9.441c-1.023,1.015-4.864,3.077-4.864,3.077s3.387-3.657,4.297-5.037
				c1.675-2.551,3.149-8.876,5.379-10.961c1.63-1.524,6.562-1.939,8.253-3.393C508.321,106.147,511.012,100.421,511.012,100.421z"/>
		</g>
		<g>
			<path fill="#C2C080" d="M454.867,21.237c0,0,1.217,4.252,2.156,5.352c1.015,1.195,4.235,2.16,5.386,3.229
				c1.315,1.219,2.824,4.651,4.156,5.853c0.682,0.619,3.19,1.826,3.19,1.826s-2.266-2.236-2.884-3.089
				c-1.139-1.581-2.252-5.578-3.732-6.846c-1.079-0.926-4.239-1.054-5.362-1.937C456.745,24.813,454.867,21.237,454.867,21.237z"/>
		</g>
		<g>
			<path fill="#C2C080" d="M464.021,22.791c0,0,1.216,4.25,2.154,5.351c1.02,1.193,4.236,2.16,5.388,3.233
				c1.316,1.217,2.823,4.645,4.154,5.851c0.678,0.619,3.19,1.827,3.19,1.827s-2.266-2.239-2.879-3.092
				c-1.146-1.585-2.257-5.575-3.737-6.845c-1.079-0.927-4.239-1.056-5.357-1.935C465.896,26.368,464.021,22.791,464.021,22.791z"/>
		</g>
		<g>
			<path fill="#C2C080" d="M439.917,29.208c0,0-3.438-5.276,1.09-6.978c3.062-1.154,4.849,0.759,4.849,0.759s-0.312-1.886,1.585-3.2
				c2.612-1.807,4.654,1.666,4.654,1.666s-2.23-1.936-4.208-0.743c-1.665,1.005-0.938,4.292-0.938,4.292s-1.851-2.891-5.347-1.472
				C438.279,24.877,439.917,29.208,439.917,29.208z"/>
		</g>
		<g>
			<path fill="#C2C080" d="M454.167,102.686c0,0,5.355,3.686,4.715,6.284c-0.401,1.621-5.119,4.914-5.119,4.914s1.675,3.229,1,4.587
				c-0.783,1.594-5.599,3.594-5.599,3.594s3.382-2.838,3.73-4.086c0.364-1.287-1.577-3.797-1.577-3.797s4.498-3.913,4.985-5.61
				C456.863,106.639,454.167,102.686,454.167,102.686z"/>
		</g>
		<g>
			<path fill="#C2C080" d="M448.961,124.129c0,0,10.98-1.392,14.659-1.781c4.013-0.427,15.884-1.151,15.884-1.151
				s-9.542,3.478-15.472,3.86C457.51,125.482,448.961,124.129,448.961,124.129z"/>
		</g>
		<g>
			<path fill="#808080" d="M453.297,83.438c-0.125,0-0.248-0.044-0.351-0.128c-0.224-0.194-0.25-0.532-0.055-0.754
				c1.776-2.063,4.092-1.598,6.336-1.153c1.14,0.228,2.32,0.457,3.439,0.377c1.118-0.09,2.261-0.498,3.364-0.897
				c2.212-0.79,4.5-1.61,6.59,0.18c0.224,0.194,0.248,0.532,0.057,0.755c-0.192,0.224-0.535,0.249-0.754,0.058
				c-1.616-1.386-3.43-0.737-5.529,0.016c-1.173,0.421-2.384,0.855-3.645,0.953c-1.283,0.104-2.522-0.148-3.732-0.393
				c-2.117-0.422-3.948-0.788-5.316,0.8C453.595,83.375,453.446,83.438,453.297,83.438z"/>
		</g>
		<g>
			<path fill="#DDD6BF" d="M461.938,64.878c3.938-0.283,4.741-1.002,5.305-0.735c1.406,0.662-2.375,7.097-4.502,7.246
				c-2.479,0.164-7.987-5.571-7.092-6.511C456.385,64.095,456.995,65.232,461.938,64.878z"/>
		</g>
	</g>
</g>
<path fill="#6B8E37" d="M602.852,291.208c0.984,1.275,10.245,2.908,13.801,3.358c3.463,0.442,13.111,0.979,14.241-0.1
	c1.089-1.036,3.21-9.615,3.21-9.615l-3.944,5.771l0.108-6.259l-3.533,5.518l-1.254-4.122l-1.296,3.724l-0.008-5.97l-2.748,5.391
	l-0.147-6.063l-2.13,5.926l-0.81-3.733l-2.625,3.067l0.621-5.508l-2.073,6.088l-0.381-6.629l-2.148,5.465l-2.022-5.766l-2.506,5.88
	l-1.268-6.281l-1.357,5.873l-2.169-6.399C602.413,280.823,601.898,289.979,602.852,291.208z"/>
<path fill="#80993E" d="M580.695,297.805c10.95,4.055,15.585,2.699,16.717,1.618c1.09-1.036,2.921-7.955,2.921-7.955l-3.947,5.769
	l0.109-6.26l-3.531,5.519l-1.257-4.121l-1.296,3.724l-0.004-5.966l-2.751,5.388l-0.147-6.064l-2.13,5.928l-0.809-3.735l-2.626,3.066
	l-1.112-6.153l-1.056,6.72C579.776,295.28,579.782,297.466,580.695,297.805z"/>
</svg>
