<?xml version="1.0" encoding="utf-8"?>
<!-- Generator: Adobe Illustrator 16.0.0, SVG Export Plug-In . SVG Version: 6.00 Build 0)  -->
<!DOCTYPE svg PUBLIC "-//W3C//DTD SVG 1.1//EN" "http://www.w3.org/Graphics/SVG/1.1/DTD/svg11.dtd">
<svg version="1.1" id="Layer_1" xmlns="http://www.w3.org/2000/svg" xmlns:xlink="http://www.w3.org/1999/xlink" x="0px" y="0px"
	 width="300px" height="300px" viewBox="0 0 300 300" enable-background="new 0 0 300 300" xml:space="preserve">
<g>
	<path fill="#80993E" d="M51.454,250.03c14.558,33.002,75.86,37.927,136.914,10.986c61.047-26.936,98.733-75.536,84.178-108.541
		c-14.566-33.006-75.87-37.927-136.917-10.987C74.575,168.425,36.888,217.018,51.454,250.03z"/>
	<path fill="#80993E" d="M61.904,284.654c5.662,12.827,23.616,17.33,40.099,10.049c16.484-7.27,25.271-23.56,19.609-36.387
		c-5.654-12.815-23.607-17.317-40.1-10.041C65.029,255.541,56.25,271.839,61.904,284.654z"/>
	<line fill="none" stroke="#040303" stroke-width="5.894" x1="165.442" y1="170.801" x2="165.442" y2="211.076"/>
	<line fill="none" stroke="#040303" stroke-width="5.894" x1="79.974" y1="157.056" x2="79.974" y2="197.323"/>
	<line fill="none" stroke="#040303" stroke-width="5.894" x1="229.288" y1="124.628" x2="229.288" y2="164.911"/>
	<path fill="#E8E3DC" d="M164.281,54.439c1.114,28.378,25.024,50.488,53.406,49.381c28.379-1.114,50.486-25.017,49.373-53.407
		c-1.105-28.371-25.016-50.48-53.389-49.374C185.282,2.153,163.182,26.057,164.281,54.439z"/>
	<path fill="#E8E3DC" d="M20.861,107.604c1.308,33.439,29.17,59.508,62.23,58.214c33.068-1.294,58.819-29.449,57.504-62.897
		c-1.299-33.447-29.162-59.516-62.238-58.222C45.296,45.989,19.554,74.156,20.861,107.604z"/>
	<path fill="#E8E3DC" d="M121.922,57.902c1.098,28.382,25.017,50.491,53.39,49.377c28.38-1.11,50.496-25.009,49.382-53.399
		C223.579,25.506,199.679,3.4,171.296,4.499C142.916,5.612,120.809,29.523,121.922,57.902z"/>
	<path fill="#E8E3DC" d="M74.722,53.634c0.758,19.819,17.466,35.272,37.299,34.491c19.826-0.773,35.274-17.474,34.5-37.309
		c-0.789-19.815-17.481-35.272-37.315-34.491C89.388,17.099,73.932,33.799,74.722,53.634z"/>
	<path fill="#E8E3DC" d="M85.025,146.218c0.774,19.823,17.482,35.265,37.315,34.491c19.817-0.774,35.272-17.475,34.491-37.301
		c-0.782-19.831-17.474-35.272-37.307-34.499C99.699,109.683,84.252,126.383,85.025,146.218z"/>
	<path fill="#E8E3DC" d="M223.007,96.254c0.449,11.279,9.939,20.058,21.211,19.616c11.279-0.438,20.064-9.938,19.615-21.21
		c-0.432-11.275-9.932-20.065-21.211-19.616C231.345,75.478,222.573,84.982,223.007,96.254z"/>
	<path fill="#E8E3DC" d="M208.28,126.7c0.432,11.279,9.932,20.065,21.209,19.616c11.277-0.438,20.059-9.938,19.617-21.207
		c-0.441-11.271-9.932-20.053-21.227-19.612C216.616,105.931,207.839,115.44,208.28,126.7z"/>
	<path fill="#E8E3DC" d="M142.459,167.96c0.441,11.279,9.939,20.065,21.204,19.616c11.285-0.446,20.064-9.932,19.623-21.207
		c-0.441-11.279-9.938-20.062-21.218-19.62C150.797,147.183,142.019,156.685,142.459,167.96z"/>
	<path fill="#E8E3DC" d="M60.921,159.119c0.449,11.279,9.933,20.058,21.21,19.624c11.278-0.449,20.065-9.947,19.617-21.219
		c-0.433-11.268-9.932-20.057-21.21-19.608C69.269,138.351,60.488,147.848,60.921,159.119z"/>
	<path fill="#E8E3DC" d="M96.798,100.479c1.632,41.987,37.006,74.7,78.993,73.058c41.988-1.646,74.693-37.012,73.052-78.999
		c-1.639-41.995-37.014-74.692-79-73.054C127.863,23.125,95.15,58.5,96.798,100.479z"/>
	<path fill="#040303" d="M155.858,216.661c-1.354,2.924-0.188,3.744,0.874,3.947c1.098,0.2,4.834-4.58,5.909-4.084
		c0.588,0.277-1.765,6.227-1.409,6.727c0.829,1.145,3.467,1.255,5.06-2.165c1.864-3.998,3.883-11.045-0.107-12.909
		C162.178,206.32,157.722,212.663,155.858,216.661z"/>
	<path fill="#040303" d="M71.503,201.927c-1.361,2.924-0.186,3.744,0.867,3.943c1.099,0.204,4.835-4.584,5.911-4.076
		c0.587,0.27-1.764,6.219-1.4,6.73c0.828,1.138,3.473,1.239,5.059-2.173c1.864-3.998,3.891-11.045-0.116-12.909
		C77.823,191.586,73.359,197.929,71.503,201.927z"/>
	<path fill="#040303" d="M220.692,168.038c-1.359,2.924-0.184,3.744,0.869,3.943c1.098,0.203,4.834-4.584,5.916-4.084
		c0.58,0.281-1.762,6.229-1.406,6.73c0.818,1.145,3.465,1.246,5.057-2.174c1.865-3.998,3.885-11.037-0.115-12.901
		C227.013,157.696,222.55,164.04,220.692,168.038z"/>
	<path fill="#040303" d="M29.346,134.813c-12.577,20.136-9.762,44.578,6.288,54.607c16.052,10.024,39.257,1.841,51.835-18.271
		c12.578-20.136,9.762-44.586-6.297-54.619C65.137,106.505,41.924,114.697,29.346,134.813z"/>
	<path fill="#FFFFFF" d="M60.736,145.295c2.034,4.659,7.457,6.785,12.129,4.749c4.657-2.04,6.792-7.469,4.75-12.127
		c-2.042-4.655-7.465-6.792-12.129-4.749C60.83,135.2,58.701,140.633,60.736,145.295z"/>
	<path fill="#FFFFFF" d="M41.599,141.993c1.803,4.1,6.576,5.979,10.675,4.178c4.1-1.786,5.979-6.566,4.184-10.666
		c-1.786-4.1-6.567-5.972-10.667-4.178C41.685,133.113,39.82,137.893,41.599,141.993z"/>
	<path fill="#040303" d="M67.62,140.359c0.45,1.032,1.641,1.501,2.662,1.047c1.036-0.441,1.501-1.642,1.051-2.669
		c-0.448-1.02-1.64-1.493-2.668-1.043C67.636,138.132,67.172,139.332,67.62,140.359z"/>
	<path fill="#040303" d="M46.132,137.948c0.448,1.02,1.64,1.493,2.668,1.044c1.029-0.458,1.493-1.638,1.044-2.669
		c-0.45-1.02-1.641-1.493-2.669-1.044C46.163,135.728,45.683,136.92,46.132,137.948z"/>
	<path fill="#040303" d="M118.008,133.152c-0.789-2.274-8.996-7.535-16.074-5.12c-7.085,2.419-18.286,3.24-17.512,5.507
		c0.587,1.708,10.404,5.057,15.223,4.107c1.593-0.316,3.326-0.782,5.089-1.383C111.82,133.848,118.767,135.427,118.008,133.152z"/>
	<path fill="#040303" d="M10.936,119.817c1.277-1.548,9.236-3.271,14.079,0.688c4.827,3.959,13.358,7.868,12.083,9.423
		c-0.944,1.157-9.607,0.911-13.104-1.231c-1.161-0.711-2.382-1.579-3.59-2.567C15.577,122.166,9.671,121.365,10.936,119.817z"/>
	<polygon fill="#040303" points="55.306,152.287 37.569,152.143 37.639,144.408 55.375,144.553 	"/>
	<polygon fill="#040303" points="75.526,158.584 57.502,154.254 59.815,144.655 77.831,148.985 	"/>
	<path fill="#999999" d="M42.373,180.15c-0.232,0.93-1.817,1.324-3.527,0.898c-1.718-0.449-2.916-1.548-2.676-2.474
		c0.231-0.931,1.817-1.333,3.527-0.899C41.413,178.117,42.613,179.224,42.373,180.15z"/>
	<path fill="#DDD7BF" d="M51.454,159.722c-4.974-1.259-5.833-2.357-6.605-2.158c-1.95,0.528,1.399,9.615,4.084,10.291
		c3.125,0.77,11.479-5.284,10.542-6.691C58.717,160.003,57.68,161.308,51.454,159.722z"/>
</g>
</svg>
