<?xml version="1.0" encoding="utf-8"?>
<!-- Generator: Adobe Illustrator 16.0.0, SVG Export Plug-In . SVG Version: 6.00 Build 0)  -->
<!DOCTYPE svg PUBLIC "-//W3C//DTD SVG 1.1//EN" "http://www.w3.org/Graphics/SVG/1.1/DTD/svg11.dtd">
<svg version="1.1" id="Layer_1" xmlns="http://www.w3.org/2000/svg" xmlns:xlink="http://www.w3.org/1999/xlink" x="0px" y="0px"
	 width="32px" height="340px" viewBox="0 0 32 340" enable-background="new 0 0 32 340" xml:space="preserve">
<path fill="#917E63" d="M31.581,0.921c0,0-7.792-0.921-10.413-0.921C13.82,0,6.951,1.397,6.951,1.397L3.968,338.866l24.63-0.609
	L31.581,0.921z"/>
<polygon fill="#7C7155" points="6.671,1.24 4.122,339.664 11.263,339.664 14.233,0 8.164,1.229 "/>
<polygon opacity="0.77" fill="#7C7155" points="19.24,10.562 19.24,31.603 21.168,38.679 19.24,46.399 17.773,37.944 14.398,35.555 
	15.93,23.333 17.176,29.239 16.428,12.394 "/>
<polygon opacity="0.77" fill="#7C7155" points="23.553,11.659 21.449,22.067 23.227,44.92 26.875,38.131 26.875,34.841 
	23.789,35.586 "/>
<path fill="#6B8E37" d="M2.014,335.593c1.012,1.2,10.059,2.339,13.524,2.602c3.375,0.262,12.747,0.307,13.792-0.804
	c1.007-1.067,2.669-9.564,2.669-9.564l-3.557,5.841l-0.181-6.126l-3.17,5.572l-1.404-3.972l-1.084,3.708l-0.281-5.84l-2.416,5.409
	l-0.42-5.924l-1.792,5.903l-0.955-3.613l-2.403,3.131l0.35-5.418l-1.73,6.059l-0.672-6.466l-1.832,5.452l-2.223-5.54l-2.158,5.875
	l-1.516-6.081l-1.046,5.812l-2.394-6.15C1.114,325.458,1.035,334.438,2.014,335.593z"/>
<path fill="#80993E" d="M1.797,339.408c11.555,1.678,15.805-0.615,16.686-1.908c0.849-1.241,1.195-8.39,1.195-8.39l-2.656,6.465
	l-1.2-6.145l-2.301,6.136l-2.09-3.769l-0.49,3.912l-1.25-5.833l-1.565,5.843l-1.411-5.9l-0.845,6.242l-1.57-3.483l-1.928,3.547
	L0,330.339l0.371,6.793C0.371,337.132,0.833,339.269,1.797,339.408z"/>
</svg>
