<?xml version="1.0" encoding="utf-8"?>
<!-- Generator: Adobe Illustrator 16.0.0, SVG Export Plug-In . SVG Version: 6.00 Build 0)  -->
<!DOCTYPE svg PUBLIC "-//W3C//DTD SVG 1.1//EN" "http://www.w3.org/Graphics/SVG/1.1/DTD/svg11.dtd">
<svg version="1.1" id="Layer_1" xmlns="http://www.w3.org/2000/svg" xmlns:xlink="http://www.w3.org/1999/xlink" x="0px" y="0px"
	 width="300px" height="200px" viewBox="0 0 300 200" enable-background="new 0 0 300 200" xml:space="preserve">
<polygon fill="#91A73C" points="6.317,121.09 133.161,184.58 129.185,188.448 158.521,193.583 272.918,199.728 296.949,146.672 
	265.064,133.609 261.228,135.974 164.066,92.241 61.483,98.42 6.317,114.063 "/>
<g>
	<rect x="6.317" y="17.975" fill="#DDC6AA" width="124.84" height="103.115"/>
	<polygon fill="#D4BEA4" points="164.066,92.241 131.158,121.09 131.158,17.975 164.066,0.014 	"/>
	<rect x="1.299" y="17.975" fill="#C1AE97" width="133.079" height="21.017"/>
	<polygon fill="#AE9C88" points="134.377,38.992 166.127,16.153 165.87,0.014 134.377,17.975 	"/>
	<polygon fill="#DDC6AA" points="134.377,17.975 1.299,17.975 41.235,0.014 165.87,0.014 	"/>
	<g>
		<path fill-rule="evenodd" clip-rule="evenodd" fill="#D8D4CB" d="M99.564,67.802c5.165,14.381-3.051,31.107-18.337,37.356
			c-15.29,6.246-31.87-0.348-37.035-14.732C39.028,76.045,47.24,59.319,62.529,53.07C77.815,46.824,94.401,53.418,99.564,67.802z"/>
		<path fill-rule="evenodd" clip-rule="evenodd" fill="#E46531" d="M83.256,50.429c17.03,4.357,23.072,20.036,18.697,34.891
			c-4.788,16.294-20.604,24.313-32.185,24.569C52.83,110.254,39.84,96.76,40.113,82.692c0.385-20.124,18.022-32.095,31.313-33.484
			C75.115,48.818,77.631,48.99,83.256,50.429z M66.806,52.771c-7.178,1.797-16.145,6.717-21.022,17.355
			c-8.013,17.479,2.385,35.626,21.182,36.65c11.548,0.64,26.964-6.925,31.814-22.255c1.507-4.772,1.403-11.338,0.795-14
			c-1.382-6.088-7.658-15.172-18.633-17.704C74.738,51.392,70.406,51.863,66.806,52.771z"/>
		<path fill-rule="evenodd" clip-rule="evenodd" fill="#E46531" d="M86.917,56.724c-0.427,2.842-7.052,2.374-10.53,2.947
			C65.162,61.528,54.801,70.38,46.99,80.399c5.609,2.064,9.896-5.054,14.708-7.498c4.765-2.427,9.742-2.339,13.987-5.321
			c0.473,0.397,1.361,2.096,2.261,1.27c-3.135,4.357-10.53,4.642-14.947,8.226c1.611,0.481,2.943,1.115,3.498,2.138
			c0.385,1.459-1.088,2.296-0.737,3.401c3.9,0.928,6.642-3.176,10.431-3.806c4.252-0.707,8.247,2.216,12.754,0.756
			c3.287-1.069,5.094-4.206,8.69-2.019c0.305,8.76-5.991,17.229-10.704,20.873c-3.863-4.477-4.487-10.61-6.126-16.223
			c-6.391-5.24-16.642,7.934-22.581,1.238c-0.775-0.876-1.306-3.327,0.076-4.871c-3.949,0.215-6.446,3.672-10.211,4.291
			c-0.663,4.871,2.342,7.871,1.501,12.84c-5.37-4.751-6.68-11.799-4.586-19.726C50.065,56.812,69.537,48.139,86.917,56.724z
			 M59.06,80.892c0.633,3.369,5.582,2.736,6.177-1.333C63.213,77.948,60.022,78.127,59.06,80.892z"/>
	</g>
	<g>
		<defs>
			<polygon id="SVGID_1_" points="134.417,17.961 1.336,17.961 41.271,0 165.905,0 			"/>
		</defs>
		<clipPath id="SVGID_2_">
			<use xlink:href="#SVGID_1_"  overflow="visible"/>
		</clipPath>
		<g clip-path="url(#SVGID_2_)">
			<path fill="#AE9C88" d="M151.37,11.011c-0.288,9.552-30.318,16.382-67.069,15.262c-36.751-1.124-66.304-9.775-66.012-19.327
				c0.292-9.552,30.319-16.382,67.07-15.26C122.109-7.188,151.662,1.463,151.37,11.011z"/>
			
				<ellipse transform="matrix(0.9943 0.1069 -0.1069 0.9943 2.2711 -15.4763)" fill="#AE9C88" cx="145.549" cy="13.454" rx="22.264" ry="6.68"/>
			
				<ellipse transform="matrix(0.9995 0.0306 -0.0306 0.9995 0.1966 -0.8562)" fill="#AE9C88" cx="28.097" cy="6.001" rx="22.265" ry="5.786"/>
		</g>
	</g>
	<polygon opacity="0.88" fill="#0E0C17" points="74.373,16.245 66.238,16.245 92.861,1.755 98.574,1.748 	"/>
</g>
</svg>
