<?xml version="1.0" encoding="utf-8"?>
<!-- Generator: Adobe Illustrator 16.0.4, SVG Export Plug-In . SVG Version: 6.00 Build 0)  -->
<!DOCTYPE svg PUBLIC "-//W3C//DTD SVG 1.1//EN" "http://www.w3.org/Graphics/SVG/1.1/DTD/svg11.dtd">
<svg version="1.1" id="Layer_1" xmlns="http://www.w3.org/2000/svg" xmlns:xlink="http://www.w3.org/1999/xlink" x="0px" y="0px"
	 width="1600px" height="1080px" viewBox="0 0 1600 1080" enable-background="new 0 0 1600 1080" xml:space="preserve">
<g>
	<g>
		<g>
			<path fill-rule="evenodd" clip-rule="evenodd" fill="#EDDBAE" d="M964.289,324.285c0,0-17.57,44.032-25.903,72.363
				c-1.23,4.265-1.405,5.789,0.241,6.294c1.193,0.351,2.668-1.958,3.461-5.4C948.756,368.876,964.289,324.285,964.289,324.285z"/>
			<path fill-rule="evenodd" clip-rule="evenodd" fill="#EDDBAE" d="M968.461,326.52c0,0,2.703,47.321,1.585,76.858
				c-0.161,4.409-0.499,5.934-2.21,5.868c-1.25-0.05-1.892-2.708-1.562-6.21C969.034,373.746,968.461,326.52,968.461,326.52z"/>
			
				<linearGradient id="SVGID_1_" gradientUnits="userSpaceOnUse" x1="1947.1562" y1="357.4565" x2="1932.6498" y2="419.582" gradientTransform="matrix(0.6892 0.0503 -0.0727 0.9974 -349.3975 -103.6338)">
				<stop  offset="0" style="stop-color:#4D322C"/>
				<stop  offset="1" style="stop-color:#2A1009"/>
			</linearGradient>
			<path fill="url(#SVGID_1_)" d="M965.663,321.818c0,0-30.118,76.464-26.628,83.296c0,0,0.505,2.592,3.34,1.898
				c0,0-1.436,4.434,1.76,8.524c3.234,4.102,6.705-0.782,6.705-0.782s1.269,5.606,6.058,5.971c4.433,0.322,5.405-5.841,5.405-5.841
				s2.367,3.278,5.558-2.466c3.085-5.506,0.505-90.044,0.505-90.044L965.663,321.818z"/>
			
				<radialGradient id="SVGID_2_" cx="956.7617" cy="352.1035" r="49.7764" gradientTransform="matrix(-0.2676 0.9635 -0.2108 -0.0586 1287.0504 -549.1376)" gradientUnits="userSpaceOnUse">
				<stop  offset="0.2699" style="stop-color:#4D322C"/>
				<stop  offset="0.4393" style="stop-color:#52372E"/>
				<stop  offset="0.6473" style="stop-color:#614535"/>
				<stop  offset="0.8746" style="stop-color:#7A5C41"/>
				<stop  offset="1" style="stop-color:#8B6C49"/>
			</radialGradient>
			<path fill-rule="evenodd" clip-rule="evenodd" fill="url(#SVGID_2_)" d="M958.908,352.23c0,0-10.795,30.233-16.666,49.556
				c-0.879,2.891-1.004,3.939,0.12,4.303c0.812,0.236,1.835-1.336,2.397-3.672C949.518,382.887,958.908,352.23,958.908,352.23z"/>
			
				<radialGradient id="SVGID_3_" cx="958.4492" cy="703.9854" r="54.139" gradientTransform="matrix(-0.1158 0.9933 -0.2173 -0.0253 1223.8198 -580.855)" gradientUnits="userSpaceOnUse">
				<stop  offset="0.2699" style="stop-color:#4D322C"/>
				<stop  offset="0.4393" style="stop-color:#52372E"/>
				<stop  offset="0.6473" style="stop-color:#614535"/>
				<stop  offset="0.8746" style="stop-color:#7A5C41"/>
				<stop  offset="1" style="stop-color:#8B6C49"/>
			</radialGradient>
			<path fill-rule="evenodd" clip-rule="evenodd" fill="url(#SVGID_3_)" d="M962.441,353.042c0,0-8.486,36.701-11.309,56.693
				c-0.429,3.028-0.393,4.062,0.789,4.227c0.842,0.13,1.591-1.592,1.803-3.972C955.398,389.954,962.441,353.042,962.441,353.042z"/>
			
				<radialGradient id="SVGID_4_" cx="-3287.7295" cy="-281.5791" r="51.0428" gradientTransform="matrix(-0.0664 1.0625 0.2252 0.0096 812.3013 3847.4844)" gradientUnits="userSpaceOnUse">
				<stop  offset="0.2699" style="stop-color:#4D322C"/>
				<stop  offset="0.4393" style="stop-color:#52372E"/>
				<stop  offset="0.6473" style="stop-color:#614535"/>
				<stop  offset="0.8746" style="stop-color:#7A5C41"/>
				<stop  offset="1" style="stop-color:#8B6C49"/>
			</radialGradient>
			<path fill-rule="evenodd" clip-rule="evenodd" fill="url(#SVGID_4_)" d="M965.088,351h0.557c0,0-1.367,45.676-1.792,56.501
				c-0.125,3.229,0.286,4.805-0.937,4.772c-0.874,0-0.874-2.528-0.638-5.067C964.277,385.885,965.088,351,965.088,351z"/>
		</g>
		<g>
			<linearGradient id="SVGID_5_" gradientUnits="userSpaceOnUse" x1="1037.752" y1="251.1914" x2="1006.5071" y2="294.7448">
				<stop  offset="0.2883" style="stop-color:#4D322C"/>
				<stop  offset="0.6611" style="stop-color:#381E17"/>
				<stop  offset="1" style="stop-color:#2A1009"/>
			</linearGradient>
			<path fill="url(#SVGID_5_)" d="M990.574,292.368c2.554-1.5,5.082-2.982,7.643-4.458c0.837-0.475,1.748-0.875,2.51-1.5
				c0.811-0.673,1.292-1.535,1.942-2.328c1.842-2.244,3.354-4.9,4.651-7.443c1.061-2.042,1.686-4.458,2.91-6.375
				c0.019,0,8.01-12.512,12.212-11.05c4.169,1.472,2.491,16.643-13.861,30.067c0,0,10.188-3.906,13.937-8.166
				c0,0,5.969-7.454,5.743,2.135c-0.206,9.616-21.702,15.548-21.702,15.548s-1.262,1.125,0.986,1.847c0,0,14.436-6.807,13.93-2.771
				c-0.531,4.058-11.525,7.815-16.813,8.464c0,0-3.372,0.774-1.475,1.649c0,0,6.905-1.505,6.736,1.774
				c-0.155,3.284-21.347,5.669-21.347,5.669L990.574,292.368z"/>
			<g>
				<defs>
					<path id="SVGID_6_" d="M990.574,292.368l10.152-5.905c0,0,5.032-5.183,9.504-16.197c0,0,8.01-12.512,12.212-11.05
						c4.169,1.472,2.491,16.643-13.861,30.067c0,0,10.188-3.906,13.937-8.166c0,0,5.969-7.454,5.743,2.135
						c-0.206,9.616-21.702,15.548-21.702,15.548s-1.262,1.125,0.986,1.847c0,0,14.436-6.807,13.93-2.771
						c-0.531,4.058-11.525,7.815-16.813,8.464c0,0-3.372,0.774-1.475,1.649c0,0,6.905-1.505,6.736,1.774
						c-0.155,3.284-9.233,5.895-13.741,6.286c-4.458,0.388-7.605-0.617-7.605-0.617L990.574,292.368z"/>
				</defs>
				<linearGradient id="SVGID_7_" gradientUnits="userSpaceOnUse" x1="1037.752" y1="251.1914" x2="1006.5071" y2="294.7448">
					<stop  offset="0.2883" style="stop-color:#4D322C"/>
					<stop  offset="0.6611" style="stop-color:#381E17"/>
					<stop  offset="1" style="stop-color:#2A1009"/>
				</linearGradient>
				<use xlink:href="#SVGID_6_"  overflow="visible" fill="url(#SVGID_7_)"/>
				<clipPath id="SVGID_8_">
					<use xlink:href="#SVGID_6_"  overflow="visible"/>
				</clipPath>
				<linearGradient id="SVGID_9_" gradientUnits="userSpaceOnUse" x1="1037.752" y1="251.1914" x2="1006.5071" y2="294.7448">
					<stop  offset="0.2883" style="stop-color:#4D322C"/>
					<stop  offset="0.6611" style="stop-color:#381E17"/>
					<stop  offset="1" style="stop-color:#2A1009"/>
				</linearGradient>
				<path clip-path="url(#SVGID_8_)" fill="url(#SVGID_9_)" d="M990.574,292.368l10.152-5.905c0,0,5.032-5.183,9.504-16.197
					c0,0,8.01-12.512,12.212-11.05c4.169,1.472,2.491,16.643-13.861,30.067c0,0,10.188-3.906,13.937-8.166
					c0,0,5.969-7.454,5.743,2.135c-0.206,9.616-21.702,15.548-21.702,15.548s-1.262,1.125,0.986,1.847c0,0,14.436-6.807,13.93-2.771
					c-0.531,4.058-11.525,7.815-16.813,8.464c0,0-3.372,0.774-1.475,1.649c0,0,6.905-1.505,6.736,1.774
					c-0.155,3.284-16.737,6.886-16.737,6.886l-4.609-1.217L990.574,292.368z"/>
			</g>
		</g>
		<g>
			<linearGradient id="SVGID_10_" gradientUnits="userSpaceOnUse" x1="917.8037" y1="230.1191" x2="937.6862" y2="296.0154">
				<stop  offset="0.2883" style="stop-color:#4D322C"/>
				<stop  offset="0.6611" style="stop-color:#381E17"/>
				<stop  offset="1" style="stop-color:#2A1009"/>
			</linearGradient>
			<path fill="url(#SVGID_10_)" d="M961.455,287.983c-3.533-2.684-7.111-5.405-10.678-8.083c-1.186-0.88-2.503-1.717-3.496-2.706
				c-1.043-1.086-1.498-2.385-2.222-3.632c-2.062-3.393-3.415-7.312-4.521-10.966c-0.888-2.896-0.924-6.218-2.148-9.026
				c0,0-7.941-18.531-15.391-17.974c-7.479,0.516-11.039,20.41,10.184,42.76c0,0-15.035-8.217-19.405-14.834
				c0,0-6.731-11.414-10.345,0.899c-3.628,12.31,29.164,26.761,29.164,26.761s1.586,1.833-2.436,2.021
				c0,0-20.829-13.272-21.64-7.954c-0.812,5.3,15.671,13.636,24.013,16.127c0,0,5.207,2.062,1.76,2.567c0,0-10.677-4.134-11.8,0.125
				c-1.093,4.232,32.634,14.032,32.634,14.032L961.455,287.983z"/>
			<g>
				<defs>
					<path id="SVGID_11_" d="M961.455,287.983l-14.197-10.762c0,0-6.121-8.155-8.867-23.651c0,0-7.941-18.531-15.391-17.974
						c-7.479,0.516-11.039,20.41,10.184,42.76c0,0-15.035-8.217-19.405-14.834c0,0-6.731-11.414-10.345,0.899
						c-3.628,12.31,29.164,26.761,29.164,26.761s1.586,1.833-2.436,2.021c0,0-20.829-13.272-21.64-7.954
						c-0.812,5.3,15.671,13.636,24.013,16.127c0,0,5.207,2.062,1.76,2.567c0,0-10.677-4.134-11.8,0.125
						c-1.093,4.232,15.409,10.621,21.315,12.367c4.832,1.41,11.318,1.665,11.318,1.665L961.455,287.983z"/>
				</defs>
				<linearGradient id="SVGID_12_" gradientUnits="userSpaceOnUse" x1="917.8037" y1="230.1191" x2="937.6862" y2="296.0154">
					<stop  offset="0.2883" style="stop-color:#4D322C"/>
					<stop  offset="0.6611" style="stop-color:#381E17"/>
					<stop  offset="1" style="stop-color:#2A1009"/>
				</linearGradient>
				<use xlink:href="#SVGID_11_"  overflow="visible" fill="url(#SVGID_12_)"/>
				<clipPath id="SVGID_13_">
					<use xlink:href="#SVGID_11_"  overflow="visible"/>
				</clipPath>
				<linearGradient id="SVGID_14_" gradientUnits="userSpaceOnUse" x1="917.8037" y1="230.1191" x2="937.6862" y2="296.0154">
					<stop  offset="0.2883" style="stop-color:#4D322C"/>
					<stop  offset="0.6611" style="stop-color:#381E17"/>
					<stop  offset="1" style="stop-color:#2A1009"/>
				</linearGradient>
				<path clip-path="url(#SVGID_13_)" fill="url(#SVGID_14_)" d="M961.455,287.983l-14.197-10.762c0,0-6.121-8.155-8.867-23.651
					c0,0-7.941-18.531-15.391-17.974c-7.479,0.516-11.039,20.41,10.184,42.76c0,0-15.035-8.217-19.405-14.834
					c0,0-6.731-11.414-10.345,0.899c-3.628,12.31,29.164,26.761,29.164,26.761s1.586,1.833-2.436,2.021
					c0,0-20.829-13.272-21.64-7.954c-0.812,5.3,15.671,13.636,24.013,16.127c0,0,5.207,2.062,1.76,2.567
					c0,0-10.677-4.134-11.8,0.125c-1.093,4.232,24.575,14.103,24.575,14.103l8.059-0.071L961.455,287.983z"/>
			</g>
		</g>
		<g>
			<radialGradient id="SVGID_15_" cx="975.9131" cy="272.8481" r="54.8162" gradientUnits="userSpaceOnUse">
				<stop  offset="0.2883" style="stop-color:#4D322C"/>
				<stop  offset="0.4818" style="stop-color:#7A593F"/>
				<stop  offset="0.6686" style="stop-color:#A0794E"/>
				<stop  offset="0.7669" style="stop-color:#AE8554"/>
			</radialGradient>
			<path fill="url(#SVGID_15_)" d="M975.303,258.354c0,0-16.07-1.687-21.703,12.419c-5.655,14.114-4.544,50.141-1.985,53.849
				c0,0,2.548,11.577,14.386,14.103c11.838,2.548,21.447-18.612,21.447-18.612S1011.678,259.783,975.303,258.354z"/>
			<g>
				<defs>
					<path id="SVGID_16_" d="M975.303,258.354c0,0-16.07-1.687-21.703,12.419c-5.655,14.114-4.544,50.141-1.985,53.849
						c0,0,2.548,11.577,14.386,14.103c11.838,2.548,21.447-18.612,21.447-18.612S1011.678,259.783,975.303,258.354z"/>
				</defs>
				<radialGradient id="SVGID_17_" cx="975.9131" cy="272.8481" r="54.8162" gradientUnits="userSpaceOnUse">
					<stop  offset="0.2883" style="stop-color:#4D322C"/>
					<stop  offset="0.4818" style="stop-color:#7A593F"/>
					<stop  offset="0.6686" style="stop-color:#A0794E"/>
					<stop  offset="0.7669" style="stop-color:#AE8554"/>
				</radialGradient>
				<use xlink:href="#SVGID_16_"  overflow="visible" fill="url(#SVGID_17_)"/>
				<clipPath id="SVGID_18_">
					<use xlink:href="#SVGID_16_"  overflow="visible"/>
				</clipPath>
				<radialGradient id="SVGID_19_" cx="975.9131" cy="272.8589" r="54.8213" gradientUnits="userSpaceOnUse">
					<stop  offset="0.2883" style="stop-color:#4D322C"/>
					<stop  offset="0.4818" style="stop-color:#7A593F"/>
					<stop  offset="0.6686" style="stop-color:#A0794E"/>
					<stop  offset="0.7669" style="stop-color:#AE8554"/>
				</radialGradient>
				<path clip-path="url(#SVGID_18_)" fill="url(#SVGID_19_)" d="M950.373,322.842c0,0,1.404-41.47,6.462-40.351l46.015-8.138
					l-23.151-20.894l-28.209,5.368l-6.479,60.625L950.373,322.842z"/>
			</g>
		</g>
		<radialGradient id="SVGID_20_" cx="976.2793" cy="283.2031" r="19.4498" gradientUnits="userSpaceOnUse">
			<stop  offset="0" style="stop-color:#8B6C49"/>
			<stop  offset="0.283" style="stop-color:#86694A"/>
			<stop  offset="0.6134" style="stop-color:#78604C"/>
			<stop  offset="0.9662" style="stop-color:#61524F"/>
			<stop  offset="1" style="stop-color:#5E504F"/>
		</radialGradient>
		<path fill-rule="evenodd" clip-rule="evenodd" fill="url(#SVGID_20_)" d="M980.772,269.154c0.786-2.01,1.842-3.895,4.32-4.121
			c1.837-0.176,3.235,0.519,4.383,1.236c0.925,0.581,2.423,1.711,2.796,2.835c0.178,0.56,0.12,1.146,0.283,1.586
			c0.779,2.184,3.234,3.083,4.082,5.093c0.606,1.453,0.058,3.333-0.405,4.534c-0.518,1.429-1.022,2.678-1.46,4.039
			c-0.899,2.773-2.055,5.25-3.354,7.586c-1.281,2.285-5.651,6.894-6.975,7.617c-1.16,0.636-3.814,2.141-5.369,1.788
			c-1.312-0.315-3.521-0.44-7.954-3.423c-6.145-4.124-10.259-9.143-13.91-15.448c-0.319-0.568-0.694-1.198-1.019-1.898
			c-0.279-0.646-0.693-1.717-0.48-2.434c0.23-0.788,1.873-1.211,2.622-1.749c1.673-1.198,2.921-2.966,3.321-5.411
			c0.219-1.282,0.438-2.355,1.057-3.279c1.254-1.85,3.626-2.51,6.323-2.317c3.004,0.245,5.419,0.942,6.63,3.116
			c0.113,0.212,0.213,0.486,0.37,0.649C977.051,270.265,979.636,270.479,980.772,269.154z"/>
		<path fill="#211E22" d="M982.258,283.059c0,0,0.244,3.165-0.512,3.727l-5.656,1.836l-3.459-1.673l-0.388-0.486l0.151-0.614
			l4.356-4.52L982.258,283.059z"/>
		<path fill="#0D0000" d="M972.243,286.137c0,0,3.354-2.836,7.406-2.836c4.069,0,6.218,1.413,6.218,1.413s-0.131-5.981-5.419-6.112
			C975.141,278.471,972.243,286.137,972.243,286.137z"/>
		<path fill="#0D0000" d="M971.231,285.539c0,0,4.446,2.559,11.026,0.668c0,0-1.468,3.39-5.507,3.564
			C972.681,289.934,971.231,285.539,971.231,285.539z"/>
		<radialGradient id="SVGID_21_" cx="962.2031" cy="274.5513" r="9.5911" gradientUnits="userSpaceOnUse">
			<stop  offset="0" style="stop-color:#EDDBAE"/>
			<stop  offset="0.2251" style="stop-color:#DEC291"/>
			<stop  offset="0.5514" style="stop-color:#CAA36B"/>
			<stop  offset="0.7239" style="stop-color:#C3975D"/>
		</radialGradient>
		<path fill="url(#SVGID_21_)" d="M959.932,277.208c-0.699,1.573,1.211,4.284,3.51,5.299c2.266,1.005,3.746,0.185,4.433-1.41
			c0.698-1.592-0.737-3.257-3.01-4.262C962.566,275.809,960.624,275.625,959.932,277.208z"/>
		
			<radialGradient id="SVGID_22_" cx="-3273.4404" cy="275.0586" r="9.5845" gradientTransform="matrix(-1 0 0 1 -2280.6641 0)" gradientUnits="userSpaceOnUse">
			<stop  offset="0" style="stop-color:#EDDBAE"/>
			<stop  offset="0.2251" style="stop-color:#DEC291"/>
			<stop  offset="0.5514" style="stop-color:#CAA36B"/>
			<stop  offset="0.7239" style="stop-color:#C3975D"/>
		</radialGradient>
		<path fill="url(#SVGID_22_)" d="M995.045,277.708c0.699,1.573-1.211,4.316-3.495,5.308c-2.279,0.997-3.735,0.188-4.433-1.41
			c-0.707-1.564,0.735-3.281,3.01-4.286C992.41,276.336,994.346,276.122,995.045,277.708z"/>
		<radialGradient id="SVGID_23_" cx="968.5615" cy="264.6851" r="11.2006" gradientUnits="userSpaceOnUse">
			<stop  offset="0.092" style="stop-color:#EDDBAE"/>
			<stop  offset="0.3743" style="stop-color:#DEC291"/>
			<stop  offset="0.7836" style="stop-color:#CAA36B"/>
			<stop  offset="1" style="stop-color:#C3975D"/>
		</radialGradient>
		<path fill-rule="evenodd" clip-rule="evenodd" fill="url(#SVGID_23_)" d="M959.73,267.481c0.045,1.076,5.634,2.711,9.904,2.529
			c4.258-0.144,5.904-1.342,5.529-3.126c-0.678-3.485-4.881-1.717-8.597-1.413C962.316,265.783,959.693,266.443,959.73,267.481z"/>
		
			<radialGradient id="SVGID_24_" cx="-4097.0483" cy="378.0186" r="11.2233" gradientTransform="matrix(-0.7271 0.0012 -0.0364 0.7473 -1978.5488 -12.1401)" gradientUnits="userSpaceOnUse">
			<stop  offset="0.092" style="stop-color:#EDDBAE"/>
			<stop  offset="0.3743" style="stop-color:#DEC291"/>
			<stop  offset="0.7836" style="stop-color:#CAA36B"/>
			<stop  offset="1" style="stop-color:#C3975D"/>
		</radialGradient>
		<path fill-rule="evenodd" clip-rule="evenodd" fill="url(#SVGID_24_)" d="M992.973,267.53c-0.062,0.777-4.183,2.023-7.279,1.912
			c-3.098-0.125-4.246-1.024-3.922-2.347c0.638-2.613,3.62-1.298,6.307-1.076C991.168,266.25,993.047,266.731,992.973,267.53z"/>
		<path fill="#0D0000" d="M974.467,272.74c0,2.282-1.293,4.131-2.891,4.131c-1.605,0-2.891-1.85-2.891-4.131
			c0-2.325,1.285-4.183,2.891-4.183C973.174,268.557,974.467,270.415,974.467,272.74z"/>
		<path fill="#FFFFFF" d="M973.679,271.066c0,0.565-0.485,1.035-1.048,1.035c-0.587,0-1.055-0.47-1.055-1.035
			c0-0.57,0.468-1.057,1.055-1.057C973.193,270.01,973.679,270.496,973.679,271.066z"/>
		<path fill="#0D0000" d="M990.051,272.74c0,2.282-1.611,4.131-3.635,4.131c-2.022,0-3.684-1.85-3.684-4.131
			c0-2.325,1.661-4.183,3.684-4.183C988.439,268.557,990.051,270.415,990.051,272.74z"/>
		<path fill="#FFFFFF" d="M989.014,271.066c0,0.565-0.474,1.035-1.036,1.035c-0.601,0-1.048-0.47-1.048-1.035
			c0-0.57,0.447-1.057,1.048-1.057C988.54,270.01,989.014,270.496,989.014,271.066z"/>
		<g>
			
				<radialGradient id="SVGID_25_" cx="-80.6631" cy="-1686.3481" r="16.0426" gradientTransform="matrix(0.4387 0.8986 -0.8986 0.4387 -518.1064 1154.8682)" gradientUnits="userSpaceOnUse">
				<stop  offset="0" style="stop-color:#3F2C28"/>
				<stop  offset="0.131" style="stop-color:#2D2021"/>
				<stop  offset="0.3563" style="stop-color:#141018"/>
				<stop  offset="0.5623" style="stop-color:#050513"/>
				<stop  offset="0.7301" style="stop-color:#000211"/>
			</radialGradient>
			<path fill-rule="evenodd" clip-rule="evenodd" fill="url(#SVGID_25_)" d="M960.557,335.098c-0.899-0.91-4.021-1.885-5.033-1.073
				c-0.799,0.649-1.748,7.704-1.891,8.741c-0.221,1.635,0.143,3.271,0.143,3.271l2.935-5.962c0,0-0.624,7.098,0.544,7.049
				c0.442-0.011,1.691-7.473,1.691-7.473l0.924,7.698c0,0,1.561-0.888,1.518-8.136C961.387,338.16,961.298,335.843,960.557,335.098z
				"/>
			
				<radialGradient id="SVGID_26_" cx="-73.1172" cy="-1698.2197" r="16.0493" gradientTransform="matrix(0.4387 0.8986 -0.8986 0.4387 -518.1064 1154.8682)" gradientUnits="userSpaceOnUse">
				<stop  offset="0" style="stop-color:#3F2C28"/>
				<stop  offset="0.131" style="stop-color:#2D2021"/>
				<stop  offset="0.3563" style="stop-color:#141018"/>
				<stop  offset="0.5623" style="stop-color:#050513"/>
				<stop  offset="0.7301" style="stop-color:#000211"/>
			</radialGradient>
			<path fill-rule="evenodd" clip-rule="evenodd" fill="url(#SVGID_26_)" d="M974.535,336.671c-0.905-0.91-4.027-1.866-5.025-1.073
				c-0.799,0.638-1.974,7.848-2.174,8.866c-0.175,0.942,0.413,3.148,0.413,3.148l2.597-7.383c0,0-0.273,8.5,0.886,8.456
				c0.462-0.019,2.305-8.418,2.305-8.418l0.306,8.654c0,0,1.567-0.905,1.523-8.136C975.347,339.719,975.271,337.396,974.535,336.671
				z"/>
		</g>
	</g>
	<g>
		<g>
			<g>
				
					<linearGradient id="SVGID_27_" gradientUnits="userSpaceOnUse" x1="823.2725" y1="144.1641" x2="812.4625" y2="190.4591" gradientTransform="matrix(0.9974 0.0727 -0.0727 0.9974 69.6538 -73.6274)">
					<stop  offset="0" style="stop-color:#000211"/>
					<stop  offset="1" style="stop-color:#031C10"/>
				</linearGradient>
				<path fill="url(#SVGID_27_)" d="M874.888,107.994c0,0-29.102,54.52-24.62,60.438c0,0,0.701,2.216,4.154,1.711
					c0,0-1.631,3.732,2.422,7.323c4.064,3.577,8.198-0.489,8.198-0.489s1.741,4.822,7.622,5.27c5.477,0.383,6.494-4.824,6.494-4.824
					s2.996,2.836,6.773-1.961c2.647-3.357,3.066-64.333,3.066-64.333L874.888,107.994z"/>
				<g>
					<g>
						<defs>
							<path id="SVGID_28_" d="M879.871,63.371l-16.953-12.843c0,0-5.981-9.689-11.362-27.69
								c-2.017-6.761-3.972-23.456-12.895-22.82c-8.915,0.663-16.363,17.681,7.45,51.836c0,0-15.76-21.318-19.199-28.321
								c-1.174-2.412-7.6-16.086-12.282-1.475c-5.573,17.474,30.763,45.104,30.763,45.104s-1.18-0.027-8.641-5.408
								c-6.025-4.357-15.928-17.371-19.594-12.012c-5.582,8.19,6.469,18.419,27.26,31.865c5.57,3.604,18.288,17.803,18.288,17.803
								l9.616-0.108L879.871,63.371z"/>
						</defs>
						<radialGradient id="SVGID_29_" cx="876.7197" cy="71.1621" r="72.1786" gradientUnits="userSpaceOnUse">
							<stop  offset="0" style="stop-color:#000211"/>
							<stop  offset="0.1402" style="stop-color:#040212"/>
							<stop  offset="0.2691" style="stop-color:#0F0116"/>
							<stop  offset="0.3374" style="stop-color:#180019"/>
							<stop  offset="1" style="stop-color:#031C10"/>
						</radialGradient>
						<use xlink:href="#SVGID_28_"  overflow="visible" fill="url(#SVGID_29_)"/>
						<clipPath id="SVGID_30_">
							<use xlink:href="#SVGID_28_"  overflow="visible"/>
						</clipPath>
					</g>
				</g>
				<g>
					<g>
						<defs>
							<path id="SVGID_31_" d="M902.69,68.662l17.226-4.374c0,0,7.754-5.511,17.738-17.629c3.766-4.547,10.676-16.76,17.339-13.364
								c6.661,3.398,6.854,18.911-22.578,37.475c0,0,19.057-11.289,23.988-15.565c1.687-1.467,11.083-9.909,9.921,2.86
								c-1.361,15.263-38.328,24.716-38.328,24.716s0.918,0.364,8.409-1.353c6.05-1.38,17.906-8.187,18.993-2.879
								c1.643,8.116-10.971,12.071-31.33,15.665c-5.463,0.97-19.861,7.761-19.861,7.761l-7.373-3.194L902.69,68.662z"/>
						</defs>
						<radialGradient id="SVGID_32_" cx="893.96" cy="80.3032" r="76.2217" gradientUnits="userSpaceOnUse">
							<stop  offset="0" style="stop-color:#000211"/>
							<stop  offset="0.1402" style="stop-color:#040212"/>
							<stop  offset="0.2691" style="stop-color:#0F0116"/>
							<stop  offset="0.3374" style="stop-color:#180019"/>
							<stop  offset="1" style="stop-color:#031C10"/>
						</radialGradient>
						<use xlink:href="#SVGID_31_"  overflow="visible" fill="url(#SVGID_32_)"/>
						<clipPath id="SVGID_33_">
							<use xlink:href="#SVGID_31_"  overflow="visible"/>
						</clipPath>
					</g>
				</g>
				<g>
					<radialGradient id="SVGID_34_" cx="893.4395" cy="32.4966" r="54.5454" gradientUnits="userSpaceOnUse">
						<stop  offset="0" style="stop-color:#3D7D61"/>
						<stop  offset="0.0257" style="stop-color:#39775D"/>
						<stop  offset="0.1481" style="stop-color:#275C4C"/>
						<stop  offset="0.274" style="stop-color:#1A4A40"/>
						<stop  offset="0.4044" style="stop-color:#123F38"/>
						<stop  offset="0.546" style="stop-color:#103B36"/>
						<stop  offset="1" style="stop-color:#000211"/>
					</radialGradient>
					<path fill="url(#SVGID_34_)" d="M892.426,26.285c0,0-19.18-2.002-25.917,14.817c-6.731,16.831-5.39,59.862-2.354,64.271
						c0,0,3.028,13.84,17.164,16.876c14.141,3.026,25.599-22.222,25.599-22.222S935.862,27.966,892.426,26.285z"/>
					<g>
						<defs>
							<path id="SVGID_35_" d="M892.426,26.285c0,0-19.18-2.002-25.917,14.817c-6.731,16.831-5.39,59.862-2.354,64.271
								c0,0,3.028,13.84,17.164,16.876c14.141,3.026,25.599-22.222,25.599-22.222S935.862,27.966,892.426,26.285z"/>
						</defs>
						<radialGradient id="SVGID_36_" cx="893.4395" cy="32.4966" r="54.5454" gradientUnits="userSpaceOnUse">
							<stop  offset="0" style="stop-color:#3D7D61"/>
							<stop  offset="0.0257" style="stop-color:#39775D"/>
							<stop  offset="0.1481" style="stop-color:#275C4C"/>
							<stop  offset="0.274" style="stop-color:#1A4A40"/>
							<stop  offset="0.4044" style="stop-color:#123F38"/>
							<stop  offset="0.546" style="stop-color:#103B36"/>
							<stop  offset="1" style="stop-color:#000211"/>
						</radialGradient>
						<use xlink:href="#SVGID_35_"  overflow="visible" fill="url(#SVGID_36_)"/>
						<clipPath id="SVGID_37_">
							<use xlink:href="#SVGID_35_"  overflow="visible"/>
						</clipPath>
						<radialGradient id="SVGID_38_" cx="893.4346" cy="32.4966" r="54.5438" gradientUnits="userSpaceOnUse">
							<stop  offset="0" style="stop-color:#3D7D61"/>
							<stop  offset="0.0257" style="stop-color:#39775D"/>
							<stop  offset="0.1481" style="stop-color:#275C4C"/>
							<stop  offset="0.274" style="stop-color:#1A4A40"/>
							<stop  offset="0.4044" style="stop-color:#123F38"/>
							<stop  offset="0.546" style="stop-color:#103B36"/>
							<stop  offset="1" style="stop-color:#000211"/>
						</radialGradient>
						<path clip-path="url(#SVGID_37_)" fill="url(#SVGID_38_)" d="M862.644,103.263c0,0,1.698-49.513,7.749-48.158l54.93-9.727
							l-27.658-24.941l-33.665,6.392l-7.755,72.393L862.644,103.263z"/>
					</g>
				</g>
				<g>
					<path fill="#FFF1D4" d="M863.076,60.456c0,0-0.089-3.61-0.201-4.794c-0.145-1.375-0.875-5.721,1.555-5.27
						c1.104,0.217,1.174,2.629,1.174,2.629s-2.191-5.077-1.662,6.598c0.076,1.736,0.318,5.27-1.086,4.977
						c-1.111-0.226-0.998-2.429-0.998-2.429S863.324,64.25,863.076,60.456z"/>
					<path fill="#FFF1D4" d="M865.846,61.719c0,0,0.756-2.797,1.068-3.699c0.375-1.035,1.773-4.281-0.205-4.382
						c-0.899-0.062-1.426,1.812-1.426,1.812s2.68-3.523,0.062,5.438c-0.392,1.353-1.254,4.053-0.116,4.083
						c0.917,0.025,1.235-1.703,1.235-1.703S864.941,64.615,865.846,61.719z"/>
					<path fill="#FFF1D4" d="M867.783,63.164c0,0,0.286-2.657,0.322-3.545c0.039-1.029-0.08-4.333,1.663-3.74
						c0.812,0.269,0.611,2.054,0.611,2.054s-1.124-3.972-1.88,4.71c-0.101,1.298-0.288,3.919-1.279,3.575
						c-0.807-0.28-0.494-1.891-0.494-1.891S867.596,66.005,867.783,63.164z"/>
					<path fill="#FFF1D4" d="M870.554,64.408c0,0,0.638-2.029,0.888-2.678c0.312-0.761,1.43-3.097-0.025-3.222
						c-0.656-0.076-1.094,1.274-1.094,1.274s2.081-2.496-0.13,4.02c-0.331,0.962-1.036,2.923-0.206,2.985
						c0.662,0.049,0.961-1.211,0.961-1.211S869.779,66.519,870.554,64.408z"/>
					<path fill="#FFF1D4" d="M873.039,62.431c0,0-0.562,1.785-0.793,2.358c-0.262,0.673-1.274,2.749,0.014,2.879
						c0.592,0.054,0.967-1.157,0.967-1.157s-1.83,2.238,0.131-3.545c0.301-0.867,0.937-2.597,0.188-2.648
						c-0.588-0.049-0.861,1.062-0.861,1.062S873.731,60.543,873.039,62.431z"/>
				</g>
				<path fill="#FFF1D4" d="M912.23,68.874c0,0-0.52,1.616-0.712,2.129c-0.243,0.598-1.149,2.464,0.005,2.575
					c0.538,0.06,0.882-1.035,0.882-1.035s-1.661,2.01,0.112-3.184c0.262-0.769,0.824-2.336,0.169-2.385
					c-0.544-0.038-0.774,0.954-0.774,0.954S912.836,67.187,912.23,68.874z"/>
				<path fill="#FFF1D4" d="M915.582,64.702c0,0-0.973,3.11-1.379,4.107c-0.456,1.138-2.191,4.716,0.031,4.922
					c1.011,0.092,1.674-1.972,1.674-1.972s-3.166,3.846,0.217-6.106c0.494-1.489,1.574-4.477,0.312-4.572
					c-1.018-0.082-1.467,1.842-1.467,1.842S916.75,61.504,915.582,64.702z"/>
				<g>
					<radialGradient id="SVGID_39_" cx="897.877" cy="45.0459" r="36.8166" gradientUnits="userSpaceOnUse">
						<stop  offset="0" style="stop-color:#457864"/>
						<stop  offset="0.217" style="stop-color:#437562"/>
						<stop  offset="0.4087" style="stop-color:#3E6A5A"/>
						<stop  offset="0.591" style="stop-color:#36584D"/>
						<stop  offset="0.7662" style="stop-color:#2A3E3B"/>
						<stop  offset="0.908" style="stop-color:#1D2428"/>
					</radialGradient>
					<path fill="url(#SVGID_39_)" d="M885.364,34.92c0,0-7.979-1.386-8.847,6.057c-0.338,2.833-1.736,5.411-4.084,7.054
						c-1.68,1.16-3.59,0.875-2.978,3.328c0.424,1.793,1.81,3.879,2.733,5.487c3.277,5.667,7.244,10.729,12.712,14.424
						c2.711,1.825,5.87,3.26,8.786,4.721c3.488,1.771,4.276,2.423,7.768,0.424c2.172-1.25,4.264-1.972,6.018-3.857
						c2.329-2.48,4.096-5.672,5.625-8.673c1.219-2.371,2.205-4.838,2.96-7.386c0.774-2.673,3.048-6.25,2.017-9.067
						c-0.998-2.754-5.188-4.308-5.188-7.655c0-2.434-10.215-10.387-13.687-0.511c0,0-2.429,2.741-5.794,0
						C893.406,39.266,892.288,35.094,885.364,34.92z"/>
					<radialGradient id="SVGID_40_" cx="897.877" cy="45.0459" r="36.8166" gradientUnits="userSpaceOnUse">
						<stop  offset="0" style="stop-color:#457864"/>
						<stop  offset="0.217" style="stop-color:#437562"/>
						<stop  offset="0.4087" style="stop-color:#3E6A5A"/>
						<stop  offset="0.591" style="stop-color:#36584D"/>
						<stop  offset="0.7662" style="stop-color:#2A3E3B"/>
						<stop  offset="0.908" style="stop-color:#1D2428"/>
					</radialGradient>
					<path fill="url(#SVGID_40_)" d="M885.364,34.92c0,0-7.979-1.386-8.847,6.057c-0.338,2.833-1.736,5.411-4.084,7.054
						c-1.68,1.16-3.59,0.875-2.978,3.328c0.424,1.793,1.81,3.879,2.733,5.487c3.277,5.667,7.244,10.729,12.712,14.424
						c2.711,1.825,5.87,3.26,8.786,4.721c3.488,1.771,4.276,2.423,7.768,0.424c2.172-1.25,4.264-1.972,6.018-3.857
						c2.329-2.48,4.096-5.672,5.625-8.673c1.219-2.371,2.205-4.838,2.96-7.386c0.774-2.673,3.048-6.25,2.017-9.067
						c-0.998-2.754-5.188-4.308-5.188-7.655c0-2.434-10.215-10.387-13.687-0.511c0,0-2.429,2.741-5.794,0
						C893.406,39.266,892.288,35.094,885.364,34.92z"/>
					<radialGradient id="SVGID_41_" cx="897.877" cy="45.0459" r="36.8166" gradientUnits="userSpaceOnUse">
						<stop  offset="0" style="stop-color:#457864"/>
						<stop  offset="0.217" style="stop-color:#437562"/>
						<stop  offset="0.4087" style="stop-color:#3E6A5A"/>
						<stop  offset="0.591" style="stop-color:#36584D"/>
						<stop  offset="0.7662" style="stop-color:#2A3E3B"/>
						<stop  offset="0.908" style="stop-color:#1D2428"/>
					</radialGradient>
					<path fill="url(#SVGID_41_)" d="M885.364,34.92c0,0-7.979-1.386-8.847,6.057c-0.338,2.833-1.736,5.411-4.084,7.054
						c-1.68,1.16-3.59,0.875-2.978,3.328c0.424,1.793,1.81,3.879,2.733,5.487c3.277,5.667,7.244,10.729,12.712,14.424
						c2.711,1.825,5.87,3.26,8.786,4.721c3.488,1.771,4.276,2.423,7.768,0.424c2.172-1.25,4.264-1.972,6.018-3.857
						c2.329-2.48,4.096-5.672,5.625-8.673c1.219-2.371,2.205-4.838,2.96-7.386c0.774-2.673,3.048-6.25,2.017-9.067
						c-0.998-2.754-5.188-4.308-5.188-7.655c0-2.434-10.215-10.387-13.687-0.511c0,0-2.429,2.741-5.794,0
						C893.406,39.266,892.288,35.094,885.364,34.92z"/>
					<radialGradient id="SVGID_42_" cx="897.877" cy="45.0459" r="36.8166" gradientUnits="userSpaceOnUse">
						<stop  offset="0" style="stop-color:#457864"/>
						<stop  offset="0.217" style="stop-color:#437562"/>
						<stop  offset="0.4087" style="stop-color:#3E6A5A"/>
						<stop  offset="0.591" style="stop-color:#36584D"/>
						<stop  offset="0.7662" style="stop-color:#2A3E3B"/>
						<stop  offset="0.908" style="stop-color:#1D2428"/>
					</radialGradient>
					<path fill="url(#SVGID_42_)" d="M885.364,34.92c0,0-7.979-1.386-8.847,6.057c-0.338,2.833-1.736,5.411-4.084,7.054
						c-1.68,1.16-3.59,0.875-2.978,3.328c0.424,1.793,1.81,3.879,2.733,5.487c3.277,5.667,7.244,10.729,12.712,14.424
						c2.711,1.825,5.87,3.26,8.786,4.721c3.488,1.771,4.276,2.423,7.768,0.424c2.172-1.25,4.264-1.972,6.018-3.857
						c2.329-2.48,4.096-5.672,5.625-8.673c1.219-2.371,2.205-4.838,2.96-7.386c0.774-2.673,3.048-6.25,2.017-9.067
						c-0.998-2.754-5.188-4.308-5.188-7.655c0-2.434-10.215-10.387-13.687-0.511c0,0-2.429,2.741-5.794,0
						C893.406,39.266,892.288,35.094,885.364,34.92z"/>
				</g>
				<g>
					<g>
						<g>
							<path fill="#0D0000" d="M892.288,43.492c0,2.785-2.247,5.039-5.026,5.039c-2.784,0-5.039-2.254-5.039-5.039
								c0-0.956,0.275-1.855,0.738-2.629c0.887-1.435,2.473-2.41,4.301-2.41C890.041,38.454,892.288,40.708,892.288,43.492z"/>
							<path fill="#0D0000" d="M882.961,40.863c0,0-1.904,0.652-3.09-1.75c0,0,0.322,6.321,5.462,9.029l0.356-3.683L882.961,40.863z
								"/>
						</g>
					</g>
					<g>
						<g>
							<path fill="#0D0000" d="M901.441,43.623c0,2.385,1.936,4.321,4.321,4.321c2.385,0,4.327-1.937,4.327-4.321
								c0-0.832-0.239-1.616-0.645-2.255c-0.754-1.241-2.122-2.064-3.683-2.064C903.377,39.304,901.441,41.238,901.441,43.623z"/>
							<path fill="#0D0000" d="M909.445,41.368c0,0,1.654,0.557,2.66-1.51c0,0,0.594,4.952-3.828,7.274l-1.178-2.673L909.445,41.368
								z"/>
						</g>
					</g>
					<path fill="#F3EDE5" d="M905.381,41.814c0,0.625-0.523,1.135-1.156,1.135c-0.635,0-1.159-0.511-1.159-1.135
						c0-0.658,0.524-1.174,1.159-1.174C904.857,40.64,905.381,41.156,905.381,41.814z"/>
					<path fill="#F3EDE5" d="M887.668,41.814c0,0.625-0.531,1.135-1.167,1.135c-0.644,0-1.168-0.511-1.168-1.135
						c0-0.658,0.524-1.174,1.168-1.174C887.137,40.64,887.668,41.156,887.668,41.814z"/>
					
						<radialGradient id="SVGID_43_" cx="1163.4746" cy="-16.0264" r="5.1468" gradientTransform="matrix(0.9153 -0.4028 0.4028 0.9153 -146.6631 534.9131)" gradientUnits="userSpaceOnUse">
						<stop  offset="0" style="stop-color:#30465F"/>
						<stop  offset="0.2303" style="stop-color:#2E3848"/>
						<stop  offset="0.7424" style="stop-color:#2B1B1B"/>
						<stop  offset="1" style="stop-color:#2A1009"/>
					</radialGradient>
					<path fill="url(#SVGID_43_)" d="M917.076,48.431c0.961,2.179-1.68,5.933-4.827,7.318c-3.14,1.385-5.169,0.245-6.13-1.948
						c-0.963-2.173,1.034-4.496,4.169-5.881C913.436,46.521,916.125,46.247,917.076,48.431z"/>
					
						<radialGradient id="SVGID_44_" cx="1501.2559" cy="132.0454" r="5.1481" gradientTransform="matrix(-0.9153 -0.4028 -0.4028 0.9153 2307.5547 534.9131)" gradientUnits="userSpaceOnUse">
						<stop  offset="0" style="stop-color:#30465F"/>
						<stop  offset="0.2303" style="stop-color:#2E3848"/>
						<stop  offset="0.7424" style="stop-color:#2B1B1B"/>
						<stop  offset="1" style="stop-color:#2A1009"/>
					</radialGradient>
					<path fill="url(#SVGID_44_)" d="M874.994,47.92c-0.963,2.179,1.672,5.924,4.833,7.304c3.134,1.385,5.162,0.25,6.124-1.937
						c0.955-2.173-1.023-4.52-4.164-5.9C878.627,46.008,875.955,45.733,874.994,47.92z"/>
					<g>
						<path fill="#43423F" d="M900.225,47.431c-2.934-0.375-4.914,0.277-5.184,2.993c-0.18,1.782,1.574,2.776,3.878,2.964
							c3.478,0.269,6.013-1.024,9.696-1.117c3.959-0.095,4.109-0.445,6.562,0.905C915.957,53.613,915.172,49.354,900.225,47.431z"/>
						<path fill="#0D0000" d="M901.404,53.75c-2.298,0.402-6.594-0.522-6.406-3.097c0.131-2.122,3.584,0.255,5.338,0.706
							c2.555,0.63,3.641,0.707,7.38,0.549c3.103-0.12,3.515-0.266,4.933,0.299C912.798,52.271,909.109,52.396,901.404,53.75z"/>
					</g>
				</g>
				<path fill="#FFFFFF" d="M897.738,75.54c6.549,0.924,3.572,12.05-2.066,13.636c-4.264,1.217-7.666-1.298-10.334-4.857
					c-2.658-3.526-2.459-7.823,1.156-10.387C889.129,72.057,893.219,74.877,897.738,75.54z"/>
			</g>
			<path fill-rule="evenodd" clip-rule="evenodd" fill="#120018" d="M899.605,47.975c0.225,0.095,0.363,0.225,0.363,0.358
				c0,0.315-0.707,0.573-1.567,0.573c-0.718,0-1.317-0.188-1.505-0.413c-0.101,0.082-0.145,0.188-0.145,0.274
				c0,0.476,1.006,0.842,2.261,0.842c1.249,0,2.255-0.366,2.255-0.842C901.268,48.387,900.574,48.069,899.605,47.975z"/>
			<path fill="#E3D7CF" d="M895.066,75.466c-1.305-0.644-2.316-1.345-2.935-1.236c0.206,0.011,1.299,1.111,2.284,1.698
				c2.688,1.622,3.941,3.621,3.192,7.087c-0.601,2.727-2.654,4.713-5.008,5.087c2.84,0.25,5.569-1.937,6.256-5.145
				C899.605,79.495,897.889,76.876,895.066,75.466z"/>
		</g>
		<g>
			
				<radialGradient id="SVGID_45_" cx="-315.1206" cy="-1707.0781" r="13.9872" gradientTransform="matrix(0.4387 0.8986 -0.8986 0.4387 -518.1064 1154.8682)" gradientUnits="userSpaceOnUse">
				<stop  offset="0" style="stop-color:#3F2C28"/>
				<stop  offset="0.131" style="stop-color:#2D2021"/>
				<stop  offset="0.3563" style="stop-color:#141018"/>
				<stop  offset="0.5623" style="stop-color:#050513"/>
				<stop  offset="0.7301" style="stop-color:#000211"/>
			</radialGradient>
			<path fill-rule="evenodd" clip-rule="evenodd" fill="url(#SVGID_45_)" d="M876.498,116.274c-0.786-0.799-3.515-1.625-4.396-0.924
				c-0.692,0.56-1.521,6.704-1.659,7.606c-0.188,1.423,0.138,2.857,0.138,2.857l2.553-5.207c0,0-0.542,6.196,0.469,6.158
				c0.398-0.022,1.491-6.519,1.491-6.519l0.807,6.712c0,0,1.342-0.78,1.323-7.111C877.21,118.947,877.13,116.923,876.498,116.274z"
				/>
			
				<radialGradient id="SVGID_46_" cx="-308.5415" cy="-1717.4312" r="13.9874" gradientTransform="matrix(0.4387 0.8986 -0.8986 0.4387 -518.1064 1154.8682)" gradientUnits="userSpaceOnUse">
				<stop  offset="0" style="stop-color:#3F2C28"/>
				<stop  offset="0.131" style="stop-color:#2D2021"/>
				<stop  offset="0.3563" style="stop-color:#141018"/>
				<stop  offset="0.5623" style="stop-color:#050513"/>
				<stop  offset="0.7301" style="stop-color:#000211"/>
			</radialGradient>
			<path fill-rule="evenodd" clip-rule="evenodd" fill="url(#SVGID_46_)" d="M888.68,117.648c-0.787-0.807-3.516-1.648-4.383-0.937
				c-0.699,0.562-1.705,6.837-1.893,7.728c-0.156,0.815,0.361,2.735,0.361,2.735l2.255-6.413c0,0-0.236,7.413,0.78,7.355
				c0.394-0.016,2.018-7.334,2.018-7.334l0.274,7.546c0,0,1.349-0.779,1.304-7.117C889.396,120.294,889.328,118.284,888.68,117.648z
				"/>
		</g>
	</g>
	<g>
		<path fill="#9D8566" d="M37.661,253.388c0,0-10.624-1.704-14.202-1.704c-10.022,0-19.39,2.586-19.39,2.586L0,822.847l33.594-0.883
			L37.661,253.388z"/>
		<polygon fill="#867655" points="3.688,253.98 0.213,824 9.951,824 14.227,361.956 5.724,253.958 		"/>
		<polygon fill="#EEC338" stroke="#DFAC35" stroke-width="0.4301" points="27.037,288.254 178.337,240.032 227.324,251.004 
			185.991,288.254 27.037,328.562 		"/>
		<polygon fill="#DFAC35" points="228.092,253.042 227.324,251.004 185.991,288.254 27.037,328.562 27.037,329.969 186.377,289.275 
					"/>
		<polygon fill="#DFAC35" points="78.579,309.17 181.654,286.721 201.3,268.862 182.166,281.873 188.034,275.495 178.593,279.576 
			190.074,268.862 176.806,277.538 171.959,282.13 178.593,281.873 177.062,284.297 		"/>
		<polygon opacity="0.77" fill="#867655" points="20.831,271.23 20.831,310.178 23.459,323.273 20.831,337.562 18.831,321.913 
			14.227,317.488 16.316,294.869 18.016,305.803 16.994,274.625 		"/>
		<polygon opacity="0.77" fill="#867655" points="26.714,295.374 23.845,310.422 26.27,343.464 31.244,333.65 31.244,328.894 
			27.037,329.969 		"/>
		<path fill-rule="evenodd" clip-rule="evenodd" fill="#321931" d="M158.653,276.27c-0.797,0.191-1.394,0.577-2.332,0.626
			c-0.786-1.856-1.801-3.486-2.643-5.282c-0.532,1.896-0.823,4.042-1.088,6.215c-0.602,0.429-1.536,0.532-2.328,0.77
			c-1.091-3.001-2.332-5.85-3.423-8.855c0.83-0.056,1.274-0.492,2.177-0.469c0.646,1.58,1.291,3.167,1.868,4.819
			c0.573-1.706,0.638-3.919,1.086-5.749c0.786-0.094,1.244-0.517,2.175-0.467c0.779,1.605,1.726,3.044,2.485,4.663
			c0.413-1.664,0.388-3.762,0.624-5.601c0.408-0.366,1.266-0.281,1.708-0.615C159.717,269.403,158.449,273.103,158.653,276.27z"/>
		<path fill-rule="evenodd" clip-rule="evenodd" fill="#321931" d="M142.956,270.835c4.916-0.525,4.88,11.495-1.398,9.941
			c-2.75-0.68-3.286-7.313-0.932-9.163C141.264,271.104,142.027,270.93,142.956,270.835z M142.646,278.914
			c2.774,0.48,2.15-7.021-0.467-6.061C140.539,273.455,140.994,278.629,142.646,278.914z"/>
		<path fill-rule="evenodd" clip-rule="evenodd" fill="#321931" d="M138.292,281.868c-0.741,0.089-1.19,0.469-2.018,0.462
			c-0.9-1.966,0.256-6.98-1.708-7.457c-3.394-0.817-1.338,5.935-1.243,8.395c-0.857,0.018-1.289,0.471-2.178,0.465
			c-0.144-3.331-0.81-6.13-0.932-9.484c2.351,0.283,4.095-2.5,6.368-0.934C138.548,274.671,137.493,278.95,138.292,281.868z"/>
		<path fill-rule="evenodd" clip-rule="evenodd" fill="#321931" d="M113.425,275.495c0.725,0.624,0.346,2.353,0.624,3.419
			c0.665,0.038,0.835-0.406,1.553-0.314c-0.107,0.685,0.265,0.878,0.157,1.558c-0.503,0.171-0.92,0.427-1.553,0.46
			c0.243,1.885,0.251,4.002,0.62,5.753c0.664,0.386,0.763-0.393,1.4-0.464c-0.085,0.689-0.152,1.403-0.314,2.018
			c-3.732,2.479-3.452-3.423-3.573-6.521c-0.332-0.29-0.826,0.2-1.396,0.152c0.027-0.602,0.004-1.147-0.157-1.553
			c0.377-0.193,0.754-0.386,1.244-0.469C111.562,277.399,112.137,276.229,113.425,275.495z"/>
		<path fill-rule="evenodd" clip-rule="evenodd" fill="#321931" d="M124.31,281.556c-1.569,0.555-3.309,0.943-4.977,1.403
			c-0.107,2.474,2.683,2.018,3.421,0.617c0.191,0.429,0.791,0.449,1.087,0.776c-0.723,1.405-2.119,3.006-4.351,2.48
			c-3.793-0.875-2.788-10.038,1.401-10.094C123.154,276.705,123.971,278.918,124.31,281.556z M119.023,281.089
			c0.781,0.178,1.955-0.498,2.954-0.624C122.112,277.556,118.597,278.663,119.023,281.089z"/>
		<path fill-rule="evenodd" clip-rule="evenodd" fill="#321931" d="M105.035,290.728c-3.787-1.953-2.119-11.782,3.108-9.639
			C110.949,282.241,110.638,292.191,105.035,290.728z M106.902,282.959c-2.824-0.736-2.24,4.808-0.936,5.901
			C108.705,288.907,108.213,284.065,106.902,282.959z"/>
		<path fill-rule="evenodd" clip-rule="evenodd" fill="#321931" d="M101.618,282.49c-0.759,3.335-1.658,6.525-2.33,9.948
			c-0.561,0.215-1.114,0.438-1.868,0.462c-0.936-3.001-2.572-5.3-3.421-8.391c0.572-0.099,1.189-0.162,1.558-0.464
			c1.172,1.412,1.628,3.546,2.485,5.279c0.572-1.966,1.062-4.014,1.398-6.213C100.11,282.851,100.824,282.629,101.618,282.49z"/>
		<path fill-rule="evenodd" clip-rule="evenodd" fill="#321931" d="M78.927,285.287c0.703,0.487,0.119,2.26,0.312,3.264
			c0.314,0.357,0.929-0.308,1.553-0.157c0,0.519,0,1.04,0,1.56c-0.436,0.175-0.896,0.348-1.401,0.462
			c0.153,1.814,0.054,3.881,0.312,5.594c0.842,0.22,0.824-0.422,1.398-0.464c-0.251,0.572-0.26,1.398-0.467,2.018
			c-3.605,2.391-2.981-3.517-3.107-6.527c-0.26-0.402-0.723,0.305-1.243,0.155c0-0.568,0-1.143,0-1.706
			c0.557,0.036,0.75-0.292,1.243-0.312C76.961,287.873,77.576,285.637,78.927,285.287z"/>
		<path fill-rule="evenodd" clip-rule="evenodd" fill="#321931" d="M85.765,286.833c4.828-0.557,3.979,10.729-1.398,9.643
			c-2.99-0.608-2.557-7.701-0.312-9.169C84.442,287.053,85.194,286.903,85.765,286.833z M85.455,294.613
			c2.188,0.099,2.087-6.539-0.155-5.91C83.708,289.149,83.647,294.528,85.455,294.613z"/>
		<path fill-rule="evenodd" clip-rule="evenodd" fill="#321931" d="M70.379,287.617c0.514,3.737,0.406,8.918,0.464,12.588
			c-0.567,0.208-1.183,0.364-1.863,0.465c-0.166-2.525-0.027-5.304-0.155-8.231C68.707,289.727,68.514,288.494,70.379,287.617z"/>
		<path fill-rule="evenodd" clip-rule="evenodd" fill="#321931" d="M66.029,293.055c2.072,2.645,1.275,10.126-3.266,9.327
			c-2.271-0.399-2.662-5.226-1.396-7.616C62.195,293.192,63.971,292.279,66.029,293.055z M63.54,300.514
			c2.119,0.402,2.036-4.251,1.243-5.749C61.816,293.547,61.996,300.227,63.54,300.514z"/>
		<path fill-rule="evenodd" clip-rule="evenodd" fill="#321931" d="M59.966,294.146c0.103,0.88-0.278,1.27-0.31,2.016
			c-3.457-0.602-1.562,5.607-1.867,7.461c-0.453,0.375-1.136,0.523-1.863,0.622c0.012-3.017-0.013-6.817,0-9.322
			C57.74,294.734,58.038,294.029,59.966,294.146z"/>
		<path fill-rule="evenodd" clip-rule="evenodd" fill="#321931" d="M45.982,294.766c0,0.57,0,1.141,0,1.71
			c-1.222,0.44-2.546,0.77-3.888,1.086c0,0.983,0,1.971,0,2.952c0.877-0.157,1.551-0.518,2.49-0.619c0,0.57,0,1.14,0,1.706
			c-0.779,0.312-1.67,0.507-2.49,0.781c0,1.241,0,2.482,0,3.729c1.544-0.128,3.084-1.039,4.35-0.929
			c-0.049,0.568,0.133,1.372-0.152,1.701c-1.958,0.586-4.027,1.053-5.908,1.715c-0.44-4.791,0.069-8.043,0-12.276
			C42.242,295.794,44.029,295.201,45.982,294.766z"/>
		<path fill-rule="evenodd" clip-rule="evenodd" fill="#321931" d="M53.439,296.476c1.297,1.668,0.202,6.344,0.779,8.233
			c-0.689,0.092-1.053,0.505-1.865,0.472c-0.104-3.064,0.225-5.051-0.467-7.152c-3.614-0.242-1.686,5.051-2.178,7.926
			c-0.642,0.132-1.136,0.419-1.863,0.467c0.076-4.227-0.045-6.395,0.157-9.169C50.007,297.32,51.179,295.471,53.439,296.476z"/>
		<path fill-rule="evenodd" clip-rule="evenodd" fill="#D8D4CB" d="M189.834,257.834c4.022,4.725,2.929,12.268-2.447,16.851
			c-5.374,4.579-12.999,4.469-17.024-0.254c-4.029-4.731-2.934-12.271,2.442-16.855
			C178.184,252.995,185.807,253.111,189.834,257.834z"/>
		<path fill-rule="evenodd" clip-rule="evenodd" fill="#E46532" d="M180.878,253.585c7.501-0.804,12.062,4.285,12.276,10.566
			c0.238,6.884-5.118,12.22-9.792,13.986c-6.83,2.586-13.919-0.673-15.694-6.061c-2.543-7.708,3.023-14.801,8.235-17.252
			C177.354,254.14,178.399,253.846,180.878,253.585z M174.505,256.844c-2.678,1.724-5.661,4.889-6.22,9.636
			c-0.911,7.803,5.746,13.201,13.526,10.878c4.774-1.428,10.027-6.523,9.944-13.053c-0.027-2.036-0.952-4.51-1.553-5.441
			c-1.378-2.117-5.145-4.66-9.946-4.041C177.544,255.179,175.848,255.982,174.505,256.844z"/>
		<path fill-rule="evenodd" clip-rule="evenodd" fill="#E46532" d="M183.208,255.444c0.211,1.145-2.545,1.921-3.883,2.646
			c-4.314,2.323-7.335,7.185-9.172,12.119c2.559-0.022,3.345-3.347,4.975-4.97c1.611-1.614,3.646-2.296,4.974-4.042
			c0.243,0.081,0.833,0.597,1.088,0.155c-0.693,2.108-3.659,3.286-4.974,5.284c0.72-0.045,1.344,0.002,1.708,0.305
			c0.35,0.507-0.135,1.035,0.157,1.405c1.706-0.209,2.271-2.171,3.73-2.952c1.634-0.882,3.646-0.348,5.281-1.554
			c1.192-0.882,1.507-2.336,3.262-2.024c1.302,3.291-0.123,7.416-1.553,9.481c-2.168-1.141-3.246-3.385-4.66-5.284
			c-3.302-1.07-5.702,5.417-9.015,3.731c-0.434-0.222-0.975-1.078-0.622-1.866c-1.578,0.656-2.125,2.33-3.576,3.109
			c0.384,1.946,2.007,2.656,2.333,4.665c-2.819-1.037-4.294-3.522-4.51-6.839C168.245,260.802,174.992,254.692,183.208,255.444z
			 M175.127,268.658c0.707,1.192,2.635,0.235,2.332-1.401C176.42,266.941,175.147,267.468,175.127,268.658z"/>
	</g>
	<g>
		<path fill="#E2E15B" d="M1168.229,236.629c0,35.947,29.136,65.092,65.089,65.092c35.945,0,65.092-29.145,65.092-65.092
			c0-35.948-29.146-65.095-65.092-65.095C1197.365,171.534,1168.229,200.681,1168.229,236.629z"/>
		<g>
			<path fill="#EAE5E1" d="M1169.603,250.191c-1.506,9.285,4.809,18.03,14.091,19.536c9.286,1.488,18.035-4.818,19.523-14.104
				c1.517-9.283-4.806-18.03-14.091-19.525C1179.838,234.592,1171.102,240.909,1169.603,250.191z"/>
			<path fill="#EAE5E1" d="M1105.349,258.714c-1.495,9.283,4.811,18.03,14.099,19.534c9.286,1.488,18.035-4.818,19.528-14.101
				c1.512-9.283-4.808-18.03-14.096-19.528C1115.597,243.112,1106.855,249.429,1105.349,258.714z"/>
			<path fill="#EAE5E1" d="M1142.595,250.545c-1.499,9.283,4.811,18.041,14.099,19.536c9.277,1.506,18.029-4.811,19.525-14.093
				c1.512-9.277-4.805-18.03-14.099-19.528C1152.838,234.956,1144.096,241.27,1142.595,250.545z"/>
			<path fill="#EAE5E1" d="M1123.876,242.09c-1.057,6.483,3.354,12.595,9.85,13.648c6.488,1.041,12.59-3.361,13.638-9.845
				c1.049-6.494-3.361-12.605-9.845-13.657C1131.03,231.194,1124.922,235.604,1123.876,242.09z"/>
			<path fill="#EAE5E1" d="M1177.48,271.551c-0.588,3.684,1.92,7.165,5.604,7.758c3.689,0.606,7.17-1.905,7.758-5.588
				c0.604-3.695-1.906-7.166-5.604-7.771C1181.555,265.354,1178.084,267.867,1177.48,271.551z"/>
			<path fill="#EAE5E1" d="M1131.649,262.731c-2.228,13.732,7.113,26.673,20.85,28.896c13.737,2.215,26.673-7.126,28.9-20.857
				c2.227-13.742-7.124-26.683-20.866-28.894C1146.802,239.642,1133.869,248.981,1131.649,262.731z"/>
		</g>
		<path fill="#EAE5E2" d="M1256.328,222.598c0,3.666,47.871,6.624,106.93,6.624c59.056,0,256.683-5.068,204.932-7.217
			c-22.611-0.931-93.091-5.109-142.635-2.802c-30.13,1.407-77.746-0.939-84.495-0.939
			C1281.996,218.263,1256.328,218.942,1256.328,222.598z"/>
		<path fill="#EAE5E2" d="M1291.539,238.983c0,2.333,24.685,4.22,55.146,4.22c30.45,0,55.138-1.886,55.138-4.22
			c0-2.329-24.688-4.225-55.138-4.225C1316.224,234.758,1291.539,236.655,1291.539,238.983z"/>
		<path fill="#EAE5E2" d="M1352.382,214.337c0,1.155,24.306,2.113,54.292,2.113c29.987,0,54.29-0.958,54.29-2.113
			c0-1.173-24.303-2.11-54.29-2.11C1376.688,212.228,1352.382,213.164,1352.382,214.337z"/>
	</g>
</g>
</svg>
